%TF.GenerationSoftware,KiCad,Pcbnew,8.0.7*%
%TF.CreationDate,2025-01-29T20:52:16+00:00*%
%TF.ProjectId,Master-Keyboard_MX,4d617374-6572-42d4-9b65-79626f617264,rev?*%
%TF.SameCoordinates,Original*%
%TF.FileFunction,Drillmap*%
%TF.FilePolarity,Positive*%
%FSLAX45Y45*%
G04 Gerber Fmt 4.5, Leading zero omitted, Abs format (unit mm)*
G04 Created by KiCad (PCBNEW 8.0.7) date 2025-01-29 20:52:16*
%MOMM*%
%LPD*%
G01*
G04 APERTURE LIST*
%ADD10C,0.100000*%
%ADD11C,0.200000*%
%ADD12C,0.170000*%
%ADD13C,0.400000*%
G04 APERTURE END LIST*
D10*
X47929969Y-31890031D02*
X47929969Y-32937500D01*
X13087500Y-18772469D02*
G75*
G02*
X13187531Y-18872500I0J-100031D01*
G01*
X5842394Y-19307606D02*
G75*
G02*
X6372606Y-19307606I265106J0D01*
G01*
X6792562Y-19880031D02*
G75*
G02*
X6692529Y-19780000I-2J100031D01*
G01*
X13035000Y-19325000D02*
G75*
G02*
X12515000Y-19325000I-260000J0D01*
G01*
X12515000Y-19325000D02*
G75*
G02*
X13035000Y-19325000I260000J0D01*
G01*
X48430000Y-31690000D02*
G75*
G02*
X48329969Y-31790030I-100030J0D01*
G01*
X17492531Y-19779969D02*
G75*
G02*
X17392500Y-19880001I-100031J-1D01*
G01*
X41152500Y-32140000D02*
G75*
G02*
X41152500Y-32870000I0J-365000D01*
G01*
X40945000Y-32140000D02*
X41152500Y-32140000D01*
X4125701Y-19677438D02*
X4125701Y-18890000D01*
X11675031Y-19780000D02*
X11675031Y-18872500D01*
X47295000Y-32507500D02*
G75*
G02*
X46775000Y-32507500I-260000J0D01*
G01*
X46775000Y-32507500D02*
G75*
G02*
X47295000Y-32507500I260000J0D01*
G01*
X11692500Y-32515000D02*
G75*
G02*
X10972500Y-32515000I-360000J0D01*
G01*
X10972500Y-32515000D02*
G75*
G02*
X11692500Y-32515000I360000J0D01*
G01*
X48175000Y-20480000D02*
G75*
G02*
X47815000Y-20480000I-180000J0D01*
G01*
X47815000Y-20480000D02*
G75*
G02*
X48175000Y-20480000I180000J0D01*
G01*
X11675031Y-18872500D02*
G75*
G02*
X11775062Y-18772471I100029J0D01*
G01*
X4135000Y-32937500D02*
X4135000Y-32037500D01*
X11775062Y-18772469D02*
X13087500Y-18772469D01*
X17492531Y-19779969D02*
X17492531Y-18777500D01*
X5030000Y-31837500D02*
G75*
G02*
X4929969Y-31937530I-100030J0D01*
G01*
X48175000Y-22480000D02*
G75*
G02*
X47815000Y-22480000I-180000J0D01*
G01*
X47815000Y-22480000D02*
G75*
G02*
X48175000Y-22480000I180000J0D01*
G01*
X4235031Y-31937469D02*
X4930000Y-31937469D01*
X4225733Y-18789969D02*
X6592500Y-18789969D01*
X27205031Y-19885000D02*
G75*
G02*
X27105000Y-19784969I-1J100030D01*
G01*
X13287531Y-19880031D02*
X17392500Y-19880031D01*
X47443000Y-20480000D02*
G75*
G02*
X47083000Y-20480000I-180000J0D01*
G01*
X47083000Y-20480000D02*
G75*
G02*
X47443000Y-20480000I180000J0D01*
G01*
X47929969Y-31890031D02*
G75*
G02*
X48030000Y-31789999I100031J1D01*
G01*
X27105000Y-18777500D02*
X27105000Y-19784969D01*
X48330000Y-31790000D02*
X48030000Y-31790000D01*
X48175000Y-21480000D02*
G75*
G02*
X47815000Y-21480000I-180000J0D01*
G01*
X47815000Y-21480000D02*
G75*
G02*
X48175000Y-21480000I180000J0D01*
G01*
X11675031Y-19780000D02*
G75*
G02*
X11575000Y-19880031I-100031J0D01*
G01*
X27205000Y-19885000D02*
X48330000Y-19885000D01*
X37611000Y-25178000D02*
G75*
G02*
X37251000Y-25178000I-180000J0D01*
G01*
X37251000Y-25178000D02*
G75*
G02*
X37611000Y-25178000I180000J0D01*
G01*
X6592500Y-18789969D02*
G75*
G02*
X6692531Y-18890000I0J-100031D01*
G01*
X5842394Y-19307606D02*
X5842394Y-19589894D01*
X4125701Y-18890000D02*
G75*
G02*
X4225733Y-18789972I100029J0D01*
G01*
X40945000Y-32870000D02*
G75*
G02*
X40945000Y-32140000I0J365000D01*
G01*
X47443000Y-23768000D02*
G75*
G02*
X47083000Y-23768000I-180000J0D01*
G01*
X47083000Y-23768000D02*
G75*
G02*
X47443000Y-23768000I180000J0D01*
G01*
X4610000Y-19255000D02*
G75*
G02*
X4285000Y-19255000I-162500J0D01*
G01*
X4285000Y-19255000D02*
G75*
G02*
X4610000Y-19255000I162500J0D01*
G01*
X4929969Y-19777469D02*
G75*
G02*
X5030001Y-19877500I1J-100031D01*
G01*
X4235031Y-33037531D02*
G75*
G02*
X4134999Y-32937500I-1J100031D01*
G01*
X47829938Y-33037531D02*
X4235000Y-33037531D01*
X48430000Y-19985000D02*
X48430000Y-31690000D01*
X5030000Y-31837500D02*
X5030000Y-19877500D01*
X5567500Y-32495000D02*
G75*
G02*
X5047500Y-32495000I-260000J0D01*
G01*
X5047500Y-32495000D02*
G75*
G02*
X5567500Y-32495000I260000J0D01*
G01*
X27004969Y-18677469D02*
G75*
G02*
X27105001Y-18777500I1J-100031D01*
G01*
X4135000Y-32037500D02*
G75*
G02*
X4235031Y-31937470I100030J0D01*
G01*
X47929969Y-32937500D02*
G75*
G02*
X47829938Y-33037529I-100029J0D01*
G01*
X17592500Y-18677469D02*
X27004969Y-18677469D01*
X6692531Y-18890000D02*
X6692531Y-19780000D01*
X13187531Y-18872500D02*
X13187531Y-19780000D01*
X6792562Y-19880031D02*
X11575000Y-19880031D01*
X5950000Y-25163000D02*
G75*
G02*
X5590000Y-25163000I-180000J0D01*
G01*
X5590000Y-25163000D02*
G75*
G02*
X5950000Y-25163000I180000J0D01*
G01*
X4225733Y-19777469D02*
G75*
G02*
X4125701Y-19677438I-3J100029D01*
G01*
X6372606Y-19589894D02*
G75*
G02*
X5842394Y-19589894I-265106J0D01*
G01*
X40945000Y-32870000D02*
X41152500Y-32870000D01*
X48330000Y-19885000D02*
G75*
G02*
X48430030Y-19985031I0J-100030D01*
G01*
X4929969Y-19777469D02*
X4225733Y-19777469D01*
X6372606Y-19307606D02*
X6372606Y-19589894D01*
X13287531Y-19880031D02*
G75*
G02*
X13187499Y-19780000I-1J100031D01*
G01*
X17492500Y-18777531D02*
G75*
G02*
X17592531Y-18677500I100030J1D01*
G01*
D11*
D12*
X6703500Y-28893500D02*
X6873500Y-29063500D01*
X6873500Y-28893500D02*
X6703500Y-29063500D01*
X6711500Y-26978500D02*
X6881500Y-27148500D01*
X6881500Y-26978500D02*
X6711500Y-27148500D01*
X7178500Y-23154000D02*
X7348500Y-23324000D01*
X7348500Y-23154000D02*
X7178500Y-23324000D01*
X7669500Y-25075000D02*
X7839500Y-25245000D01*
X7839500Y-25075000D02*
X7669500Y-25245000D01*
X7719500Y-28893500D02*
X7889500Y-29063500D01*
X7889500Y-28893500D02*
X7719500Y-29063500D01*
X7727500Y-26978500D02*
X7897500Y-27148500D01*
X7897500Y-26978500D02*
X7727500Y-27148500D01*
X8194500Y-23154000D02*
X8364500Y-23324000D01*
X8364500Y-23154000D02*
X8194500Y-23324000D01*
X8624500Y-26978500D02*
X8794500Y-27148500D01*
X8794500Y-26978500D02*
X8624500Y-27148500D01*
X8685500Y-25075000D02*
X8855500Y-25245000D01*
X8855500Y-25075000D02*
X8685500Y-25245000D01*
X9096500Y-23154000D02*
X9266500Y-23324000D01*
X9266500Y-23154000D02*
X9096500Y-23324000D01*
X9096500Y-28893500D02*
X9266500Y-29063500D01*
X9266500Y-28893500D02*
X9096500Y-29063500D01*
X9640500Y-26978500D02*
X9810500Y-27148500D01*
X9810500Y-26978500D02*
X9640500Y-27148500D01*
X10057000Y-21264000D02*
X10227000Y-21434000D01*
X10227000Y-21264000D02*
X10057000Y-21434000D01*
X10058500Y-25075000D02*
X10228500Y-25245000D01*
X10228500Y-25075000D02*
X10058500Y-25245000D01*
X10112500Y-23154000D02*
X10282500Y-23324000D01*
X10282500Y-23154000D02*
X10112500Y-23324000D01*
X10112500Y-28893500D02*
X10282500Y-29063500D01*
X10282500Y-28893500D02*
X10112500Y-29063500D01*
X10522500Y-26978500D02*
X10692500Y-27148500D01*
X10692500Y-26978500D02*
X10522500Y-27148500D01*
X10995500Y-23154000D02*
X11165500Y-23324000D01*
X11165500Y-23154000D02*
X10995500Y-23324000D01*
X11073000Y-21264000D02*
X11243000Y-21434000D01*
X11243000Y-21264000D02*
X11073000Y-21434000D01*
X11074500Y-25075000D02*
X11244500Y-25245000D01*
X11244500Y-25075000D02*
X11074500Y-25245000D01*
X11470000Y-28893500D02*
X11640000Y-29063500D01*
X11640000Y-28893500D02*
X11470000Y-29063500D01*
X11538500Y-26978500D02*
X11708500Y-27148500D01*
X11708500Y-26978500D02*
X11538500Y-27148500D01*
X11950000Y-25075000D02*
X12120000Y-25245000D01*
X12120000Y-25075000D02*
X11950000Y-25245000D01*
X11959000Y-21259000D02*
X12129000Y-21429000D01*
X12129000Y-21259000D02*
X11959000Y-21429000D01*
X12011500Y-23154000D02*
X12181500Y-23324000D01*
X12181500Y-23154000D02*
X12011500Y-23324000D01*
X12441000Y-26978500D02*
X12611000Y-27148500D01*
X12611000Y-26978500D02*
X12441000Y-27148500D01*
X12486000Y-28893500D02*
X12656000Y-29063500D01*
X12656000Y-28893500D02*
X12486000Y-29063500D01*
X12915000Y-23154000D02*
X13085000Y-23324000D01*
X13085000Y-23154000D02*
X12915000Y-23324000D01*
X12966000Y-25075000D02*
X13136000Y-25245000D01*
X13136000Y-25075000D02*
X12966000Y-25245000D01*
X12975000Y-21259000D02*
X13145000Y-21429000D01*
X13145000Y-21259000D02*
X12975000Y-21429000D01*
X13386500Y-28893500D02*
X13556500Y-29063500D01*
X13556500Y-28893500D02*
X13386500Y-29063500D01*
X13457000Y-26978500D02*
X13627000Y-27148500D01*
X13627000Y-26978500D02*
X13457000Y-27148500D01*
X13855500Y-21266500D02*
X14025500Y-21436500D01*
X14025500Y-21266500D02*
X13855500Y-21436500D01*
X13880500Y-25075000D02*
X14050500Y-25245000D01*
X14050500Y-25075000D02*
X13880500Y-25245000D01*
X13931000Y-23154000D02*
X14101000Y-23324000D01*
X14101000Y-23154000D02*
X13931000Y-23324000D01*
X14344500Y-26978500D02*
X14514500Y-27148500D01*
X14514500Y-26978500D02*
X14344500Y-27148500D01*
X14360500Y-30825500D02*
X14530500Y-30995500D01*
X14530500Y-30825500D02*
X14360500Y-30995500D01*
X14402500Y-28893500D02*
X14572500Y-29063500D01*
X14572500Y-28893500D02*
X14402500Y-29063500D01*
X14824000Y-23154000D02*
X14994000Y-23324000D01*
X14994000Y-23154000D02*
X14824000Y-23324000D01*
X14871500Y-21266500D02*
X15041500Y-21436500D01*
X15041500Y-21266500D02*
X14871500Y-21436500D01*
X14896500Y-25075000D02*
X15066500Y-25245000D01*
X15066500Y-25075000D02*
X14896500Y-25245000D01*
X15295500Y-28893500D02*
X15465500Y-29063500D01*
X15465500Y-28893500D02*
X15295500Y-29063500D01*
X15360500Y-26978500D02*
X15530500Y-27148500D01*
X15530500Y-26978500D02*
X15360500Y-27148500D01*
X15376500Y-30825500D02*
X15546500Y-30995500D01*
X15546500Y-30825500D02*
X15376500Y-30995500D01*
X15770000Y-21254000D02*
X15940000Y-21424000D01*
X15940000Y-21254000D02*
X15770000Y-21424000D01*
X15777500Y-25075000D02*
X15947500Y-25245000D01*
X15947500Y-25075000D02*
X15777500Y-25245000D01*
X15840000Y-23154000D02*
X16010000Y-23324000D01*
X16010000Y-23154000D02*
X15840000Y-23324000D01*
X16255500Y-26978500D02*
X16425500Y-27148500D01*
X16425500Y-26978500D02*
X16255500Y-27148500D01*
X16311500Y-28893500D02*
X16481500Y-29063500D01*
X16481500Y-28893500D02*
X16311500Y-29063500D01*
X16717000Y-23154000D02*
X16887000Y-23324000D01*
X16887000Y-23154000D02*
X16717000Y-23324000D01*
X16786000Y-21254000D02*
X16956000Y-21424000D01*
X16956000Y-21254000D02*
X16786000Y-21424000D01*
X16793500Y-25075000D02*
X16963500Y-25245000D01*
X16963500Y-25075000D02*
X16793500Y-25245000D01*
X17199000Y-28893500D02*
X17369000Y-29063500D01*
X17369000Y-28893500D02*
X17199000Y-29063500D01*
X17271500Y-26978500D02*
X17441500Y-27148500D01*
X17441500Y-26978500D02*
X17271500Y-27148500D01*
X17695000Y-21259000D02*
X17865000Y-21429000D01*
X17865000Y-21259000D02*
X17695000Y-21429000D01*
X17695500Y-25075000D02*
X17865500Y-25245000D01*
X17865500Y-25075000D02*
X17695500Y-25245000D01*
X17733000Y-23154000D02*
X17903000Y-23324000D01*
X17903000Y-23154000D02*
X17733000Y-23324000D01*
X18164500Y-26978500D02*
X18334500Y-27148500D01*
X18334500Y-26978500D02*
X18164500Y-27148500D01*
X18215000Y-28893500D02*
X18385000Y-29063500D01*
X18385000Y-28893500D02*
X18215000Y-29063500D01*
X18638000Y-23154000D02*
X18808000Y-23324000D01*
X18808000Y-23154000D02*
X18638000Y-23324000D01*
X18711000Y-21259000D02*
X18881000Y-21429000D01*
X18881000Y-21259000D02*
X18711000Y-21429000D01*
X18711500Y-25075000D02*
X18881500Y-25245000D01*
X18881500Y-25075000D02*
X18711500Y-25245000D01*
X19110000Y-28893500D02*
X19280000Y-29063500D01*
X19280000Y-28893500D02*
X19110000Y-29063500D01*
X19180500Y-26978500D02*
X19350500Y-27148500D01*
X19350500Y-26978500D02*
X19180500Y-27148500D01*
X19587000Y-21262000D02*
X19757000Y-21432000D01*
X19757000Y-21262000D02*
X19587000Y-21432000D01*
X19602500Y-25075000D02*
X19772500Y-25245000D01*
X19772500Y-25075000D02*
X19602500Y-25245000D01*
X19654000Y-23154000D02*
X19824000Y-23324000D01*
X19824000Y-23154000D02*
X19654000Y-23324000D01*
X20051500Y-26978500D02*
X20221500Y-27148500D01*
X20221500Y-26978500D02*
X20051500Y-27148500D01*
X20060500Y-30825500D02*
X20230500Y-30995500D01*
X20230500Y-30825500D02*
X20060500Y-30995500D01*
X20126000Y-28893500D02*
X20296000Y-29063500D01*
X20296000Y-28893500D02*
X20126000Y-29063500D01*
X20535500Y-23154000D02*
X20705500Y-23324000D01*
X20705500Y-23154000D02*
X20535500Y-23324000D01*
X20603000Y-21262000D02*
X20773000Y-21432000D01*
X20773000Y-21262000D02*
X20603000Y-21432000D01*
X20618500Y-25075000D02*
X20788500Y-25245000D01*
X20788500Y-25075000D02*
X20618500Y-25245000D01*
X21013500Y-28893500D02*
X21183500Y-29063500D01*
X21183500Y-28893500D02*
X21013500Y-29063500D01*
X21067500Y-26978500D02*
X21237500Y-27148500D01*
X21237500Y-26978500D02*
X21067500Y-27148500D01*
X21076500Y-30825500D02*
X21246500Y-30995500D01*
X21246500Y-30825500D02*
X21076500Y-30995500D01*
X21491000Y-21238000D02*
X21661000Y-21408000D01*
X21661000Y-21238000D02*
X21491000Y-21408000D01*
X21499500Y-25075000D02*
X21669500Y-25245000D01*
X21669500Y-25075000D02*
X21499500Y-25245000D01*
X21551500Y-23154000D02*
X21721500Y-23324000D01*
X21721500Y-23154000D02*
X21551500Y-23324000D01*
X21967500Y-26978500D02*
X22137500Y-27148500D01*
X22137500Y-26978500D02*
X21967500Y-27148500D01*
X22029500Y-28893500D02*
X22199500Y-29063500D01*
X22199500Y-28893500D02*
X22029500Y-29063500D01*
X22449000Y-23154000D02*
X22619000Y-23324000D01*
X22619000Y-23154000D02*
X22449000Y-23324000D01*
X22507000Y-21238000D02*
X22677000Y-21408000D01*
X22677000Y-21238000D02*
X22507000Y-21408000D01*
X22515500Y-25075000D02*
X22685500Y-25245000D01*
X22685500Y-25075000D02*
X22515500Y-25245000D01*
X22929000Y-28893500D02*
X23099000Y-29063500D01*
X23099000Y-28893500D02*
X22929000Y-29063500D01*
X22983500Y-26978500D02*
X23153500Y-27148500D01*
X23153500Y-26978500D02*
X22983500Y-27148500D01*
X23402500Y-25075000D02*
X23572500Y-25245000D01*
X23572500Y-25075000D02*
X23402500Y-25245000D01*
X23405000Y-21242000D02*
X23575000Y-21412000D01*
X23575000Y-21242000D02*
X23405000Y-21412000D01*
X23465000Y-23154000D02*
X23635000Y-23324000D01*
X23635000Y-23154000D02*
X23465000Y-23324000D01*
X23883000Y-26978500D02*
X24053000Y-27148500D01*
X24053000Y-26978500D02*
X23883000Y-27148500D01*
X23945000Y-28893500D02*
X24115000Y-29063500D01*
X24115000Y-28893500D02*
X23945000Y-29063500D01*
X24350500Y-23154000D02*
X24520500Y-23324000D01*
X24520500Y-23154000D02*
X24350500Y-23324000D01*
X24418500Y-25075000D02*
X24588500Y-25245000D01*
X24588500Y-25075000D02*
X24418500Y-25245000D01*
X24421000Y-21242000D02*
X24591000Y-21412000D01*
X24591000Y-21242000D02*
X24421000Y-21412000D01*
X24833500Y-28893500D02*
X25003500Y-29063500D01*
X25003500Y-28893500D02*
X24833500Y-29063500D01*
X24899000Y-26978500D02*
X25069000Y-27148500D01*
X25069000Y-26978500D02*
X24899000Y-27148500D01*
X25299000Y-21238000D02*
X25469000Y-21408000D01*
X25469000Y-21238000D02*
X25299000Y-21408000D01*
X25308000Y-25075000D02*
X25478000Y-25245000D01*
X25478000Y-25075000D02*
X25308000Y-25245000D01*
X25366500Y-23154000D02*
X25536500Y-23324000D01*
X25536500Y-23154000D02*
X25366500Y-23324000D01*
X25760500Y-30825500D02*
X25930500Y-30995500D01*
X25930500Y-30825500D02*
X25760500Y-30995500D01*
X25795500Y-26978500D02*
X25965500Y-27148500D01*
X25965500Y-26978500D02*
X25795500Y-27148500D01*
X25849500Y-28893500D02*
X26019500Y-29063500D01*
X26019500Y-28893500D02*
X25849500Y-29063500D01*
X26267500Y-23154000D02*
X26437500Y-23324000D01*
X26437500Y-23154000D02*
X26267500Y-23324000D01*
X26315000Y-21238000D02*
X26485000Y-21408000D01*
X26485000Y-21238000D02*
X26315000Y-21408000D01*
X26324000Y-25075000D02*
X26494000Y-25245000D01*
X26494000Y-25075000D02*
X26324000Y-25245000D01*
X26744500Y-28893500D02*
X26914500Y-29063500D01*
X26914500Y-28893500D02*
X26744500Y-29063500D01*
X26776500Y-30825500D02*
X26946500Y-30995500D01*
X26946500Y-30825500D02*
X26776500Y-30995500D01*
X26811500Y-26978500D02*
X26981500Y-27148500D01*
X26981500Y-26978500D02*
X26811500Y-27148500D01*
X27207000Y-21238000D02*
X27377000Y-21408000D01*
X27377000Y-21238000D02*
X27207000Y-21408000D01*
X27228500Y-25075000D02*
X27398500Y-25245000D01*
X27398500Y-25075000D02*
X27228500Y-25245000D01*
X27283500Y-23154000D02*
X27453500Y-23324000D01*
X27453500Y-23154000D02*
X27283500Y-23324000D01*
X27690500Y-26978500D02*
X27860500Y-27148500D01*
X27860500Y-26978500D02*
X27690500Y-27148500D01*
X27760500Y-28893500D02*
X27930500Y-29063500D01*
X27930500Y-28893500D02*
X27760500Y-29063500D01*
X28161000Y-23154000D02*
X28331000Y-23324000D01*
X28331000Y-23154000D02*
X28161000Y-23324000D01*
X28223000Y-21238000D02*
X28393000Y-21408000D01*
X28393000Y-21238000D02*
X28223000Y-21408000D01*
X28244500Y-25075000D02*
X28414500Y-25245000D01*
X28414500Y-25075000D02*
X28244500Y-25245000D01*
X28652500Y-28893500D02*
X28822500Y-29063500D01*
X28822500Y-28893500D02*
X28652500Y-29063500D01*
X28706500Y-26978500D02*
X28876500Y-27148500D01*
X28876500Y-26978500D02*
X28706500Y-27148500D01*
X29129500Y-25075000D02*
X29299500Y-25245000D01*
X29299500Y-25075000D02*
X29129500Y-25245000D01*
X29177000Y-23154000D02*
X29347000Y-23324000D01*
X29347000Y-23154000D02*
X29177000Y-23324000D01*
X29607500Y-26978500D02*
X29777500Y-27148500D01*
X29777500Y-26978500D02*
X29607500Y-27148500D01*
X29668500Y-28893500D02*
X29838500Y-29063500D01*
X29838500Y-28893500D02*
X29668500Y-29063500D01*
X30101000Y-23154000D02*
X30271000Y-23324000D01*
X30271000Y-23154000D02*
X30101000Y-23324000D01*
X30145500Y-25075000D02*
X30315500Y-25245000D01*
X30315500Y-25075000D02*
X30145500Y-25245000D01*
X30623500Y-26978500D02*
X30793500Y-27148500D01*
X30793500Y-26978500D02*
X30623500Y-27148500D01*
X31026000Y-28893500D02*
X31196000Y-29063500D01*
X31196000Y-28893500D02*
X31026000Y-29063500D01*
X31033000Y-21261000D02*
X31203000Y-21431000D01*
X31203000Y-21261000D02*
X31033000Y-21431000D01*
X31034000Y-25075000D02*
X31204000Y-25245000D01*
X31204000Y-25075000D02*
X31034000Y-25245000D01*
X31117000Y-23154000D02*
X31287000Y-23324000D01*
X31287000Y-23154000D02*
X31117000Y-23324000D01*
X31508500Y-26978500D02*
X31678500Y-27148500D01*
X31678500Y-26978500D02*
X31508500Y-27148500D01*
X31989000Y-23154000D02*
X32159000Y-23324000D01*
X32159000Y-23154000D02*
X31989000Y-23324000D01*
X32042000Y-28893500D02*
X32212000Y-29063500D01*
X32212000Y-28893500D02*
X32042000Y-29063500D01*
X32049000Y-21261000D02*
X32219000Y-21431000D01*
X32219000Y-21261000D02*
X32049000Y-21431000D01*
X32050000Y-25075000D02*
X32220000Y-25245000D01*
X32220000Y-25075000D02*
X32050000Y-25245000D01*
X32524500Y-26978500D02*
X32694500Y-27148500D01*
X32694500Y-26978500D02*
X32524500Y-27148500D01*
X32939000Y-25075000D02*
X33109000Y-25245000D01*
X33109000Y-25075000D02*
X32939000Y-25245000D01*
X33005000Y-23154000D02*
X33175000Y-23324000D01*
X33175000Y-23154000D02*
X33005000Y-23324000D01*
X33405000Y-28893500D02*
X33575000Y-29063500D01*
X33575000Y-28893500D02*
X33405000Y-29063500D01*
X33907000Y-23154000D02*
X34077000Y-23324000D01*
X34077000Y-23154000D02*
X33907000Y-23324000D01*
X33955000Y-25075000D02*
X34125000Y-25245000D01*
X34125000Y-25075000D02*
X33955000Y-25245000D01*
X34364500Y-26978500D02*
X34534500Y-27148500D01*
X34534500Y-26978500D02*
X34364500Y-27148500D01*
X34421000Y-28893500D02*
X34591000Y-29063500D01*
X34591000Y-28893500D02*
X34421000Y-29063500D01*
X34862000Y-21260000D02*
X35032000Y-21430000D01*
X35032000Y-21260000D02*
X34862000Y-21430000D01*
X34862500Y-25075000D02*
X35032500Y-25245000D01*
X35032500Y-25075000D02*
X34862500Y-25245000D01*
X34923000Y-23154000D02*
X35093000Y-23324000D01*
X35093000Y-23154000D02*
X34923000Y-23324000D01*
X35312000Y-28893500D02*
X35482000Y-29063500D01*
X35482000Y-28893500D02*
X35312000Y-29063500D01*
X35380500Y-26978500D02*
X35550500Y-27148500D01*
X35550500Y-26978500D02*
X35380500Y-27148500D01*
X35796000Y-23154000D02*
X35966000Y-23324000D01*
X35966000Y-23154000D02*
X35796000Y-23324000D01*
X35878000Y-21260000D02*
X36048000Y-21430000D01*
X36048000Y-21260000D02*
X35878000Y-21430000D01*
X35878500Y-25075000D02*
X36048500Y-25245000D01*
X36048500Y-25075000D02*
X35878500Y-25245000D01*
X36328000Y-28893500D02*
X36498000Y-29063500D01*
X36498000Y-28893500D02*
X36328000Y-29063500D01*
X36812000Y-23154000D02*
X36982000Y-23324000D01*
X36982000Y-23154000D02*
X36812000Y-23324000D01*
X38496500Y-23154000D02*
X38666500Y-23324000D01*
X38666500Y-23154000D02*
X38496500Y-23324000D01*
X38496500Y-28893500D02*
X38666500Y-29063500D01*
X38666500Y-28893500D02*
X38496500Y-29063500D01*
X38497500Y-26978500D02*
X38667500Y-27148500D01*
X38667500Y-26978500D02*
X38497500Y-27148500D01*
X38498500Y-21249500D02*
X38668500Y-21419500D01*
X38668500Y-21249500D02*
X38498500Y-21419500D01*
X38502500Y-25075000D02*
X38672500Y-25245000D01*
X38672500Y-25075000D02*
X38502500Y-25245000D01*
X39512500Y-23154000D02*
X39682500Y-23324000D01*
X39682500Y-23154000D02*
X39512500Y-23324000D01*
X39512500Y-28893500D02*
X39682500Y-29063500D01*
X39682500Y-28893500D02*
X39512500Y-29063500D01*
X39513500Y-26978500D02*
X39683500Y-27148500D01*
X39683500Y-26978500D02*
X39513500Y-27148500D01*
X39514500Y-21249500D02*
X39684500Y-21419500D01*
X39684500Y-21249500D02*
X39514500Y-21419500D01*
X39518500Y-25075000D02*
X39688500Y-25245000D01*
X39688500Y-25075000D02*
X39518500Y-25245000D01*
X40390000Y-21252000D02*
X40560000Y-21422000D01*
X40560000Y-21252000D02*
X40390000Y-21422000D01*
X40397500Y-25075000D02*
X40567500Y-25245000D01*
X40567500Y-25075000D02*
X40397500Y-25245000D01*
X40397500Y-26978500D02*
X40567500Y-27148500D01*
X40567500Y-26978500D02*
X40397500Y-27148500D01*
X40397500Y-28893500D02*
X40567500Y-29063500D01*
X40567500Y-28893500D02*
X40397500Y-29063500D01*
X40407000Y-23154000D02*
X40577000Y-23324000D01*
X40577000Y-23154000D02*
X40407000Y-23324000D01*
X41406000Y-21252000D02*
X41576000Y-21422000D01*
X41576000Y-21252000D02*
X41406000Y-21422000D01*
X41413500Y-25075000D02*
X41583500Y-25245000D01*
X41583500Y-25075000D02*
X41413500Y-25245000D01*
X41413500Y-26978500D02*
X41583500Y-27148500D01*
X41583500Y-26978500D02*
X41413500Y-27148500D01*
X41413500Y-28893500D02*
X41583500Y-29063500D01*
X41583500Y-28893500D02*
X41413500Y-29063500D01*
X41423000Y-23154000D02*
X41593000Y-23324000D01*
X41593000Y-23154000D02*
X41423000Y-23324000D01*
X42301500Y-21254500D02*
X42471500Y-21424500D01*
X42471500Y-21254500D02*
X42301500Y-21424500D01*
X42314500Y-26978500D02*
X42484500Y-27148500D01*
X42484500Y-26978500D02*
X42314500Y-27148500D01*
X42319500Y-25075000D02*
X42489500Y-25245000D01*
X42489500Y-25075000D02*
X42319500Y-25245000D01*
X42322000Y-23154000D02*
X42492000Y-23324000D01*
X42492000Y-23154000D02*
X42322000Y-23324000D01*
X43274500Y-28893500D02*
X43444500Y-29063500D01*
X43444500Y-28893500D02*
X43274500Y-29063500D01*
X43317500Y-21254500D02*
X43487500Y-21424500D01*
X43487500Y-21254500D02*
X43317500Y-21424500D01*
X43330500Y-26978500D02*
X43500500Y-27148500D01*
X43500500Y-26978500D02*
X43330500Y-27148500D01*
X43335500Y-25075000D02*
X43505500Y-25245000D01*
X43505500Y-25075000D02*
X43335500Y-25245000D01*
X43338000Y-23154000D02*
X43508000Y-23324000D01*
X43508000Y-23154000D02*
X43338000Y-23324000D01*
X44218000Y-25075000D02*
X44388000Y-25245000D01*
X44388000Y-25075000D02*
X44218000Y-25245000D01*
X44219500Y-21266500D02*
X44389500Y-21436500D01*
X44389500Y-21266500D02*
X44219500Y-21436500D01*
X44222000Y-26978500D02*
X44392000Y-27148500D01*
X44392000Y-26978500D02*
X44222000Y-27148500D01*
X44230000Y-23154000D02*
X44400000Y-23324000D01*
X44400000Y-23154000D02*
X44230000Y-23324000D01*
X44290500Y-28893500D02*
X44460500Y-29063500D01*
X44460500Y-28893500D02*
X44290500Y-29063500D01*
X45234000Y-25075000D02*
X45404000Y-25245000D01*
X45404000Y-25075000D02*
X45234000Y-25245000D01*
X45235500Y-21266500D02*
X45405500Y-21436500D01*
X45405500Y-21266500D02*
X45235500Y-21436500D01*
X45238000Y-26978500D02*
X45408000Y-27148500D01*
X45408000Y-26978500D02*
X45238000Y-27148500D01*
X45246000Y-23154000D02*
X45416000Y-23324000D01*
X45416000Y-23154000D02*
X45246000Y-23324000D01*
D13*
X7496500Y-28978500D02*
G75*
G02*
X7096500Y-28978500I-200000J0D01*
G01*
X7096500Y-28978500D02*
G75*
G02*
X7496500Y-28978500I200000J0D01*
G01*
X7504500Y-27063500D02*
G75*
G02*
X7104500Y-27063500I-200000J0D01*
G01*
X7104500Y-27063500D02*
G75*
G02*
X7504500Y-27063500I200000J0D01*
G01*
X7971500Y-23239000D02*
G75*
G02*
X7571500Y-23239000I-200000J0D01*
G01*
X7571500Y-23239000D02*
G75*
G02*
X7971500Y-23239000I200000J0D01*
G01*
X8462500Y-25160000D02*
G75*
G02*
X8062500Y-25160000I-200000J0D01*
G01*
X8062500Y-25160000D02*
G75*
G02*
X8462500Y-25160000I200000J0D01*
G01*
X9417500Y-27063500D02*
G75*
G02*
X9017500Y-27063500I-200000J0D01*
G01*
X9017500Y-27063500D02*
G75*
G02*
X9417500Y-27063500I200000J0D01*
G01*
X9889500Y-23239000D02*
G75*
G02*
X9489500Y-23239000I-200000J0D01*
G01*
X9489500Y-23239000D02*
G75*
G02*
X9889500Y-23239000I200000J0D01*
G01*
X9889500Y-28978500D02*
G75*
G02*
X9489500Y-28978500I-200000J0D01*
G01*
X9489500Y-28978500D02*
G75*
G02*
X9889500Y-28978500I200000J0D01*
G01*
X10850000Y-21349000D02*
G75*
G02*
X10450000Y-21349000I-200000J0D01*
G01*
X10450000Y-21349000D02*
G75*
G02*
X10850000Y-21349000I200000J0D01*
G01*
X10851500Y-25160000D02*
G75*
G02*
X10451500Y-25160000I-200000J0D01*
G01*
X10451500Y-25160000D02*
G75*
G02*
X10851500Y-25160000I200000J0D01*
G01*
X11315500Y-27063500D02*
G75*
G02*
X10915500Y-27063500I-200000J0D01*
G01*
X10915500Y-27063500D02*
G75*
G02*
X11315500Y-27063500I200000J0D01*
G01*
X11788500Y-23239000D02*
G75*
G02*
X11388500Y-23239000I-200000J0D01*
G01*
X11388500Y-23239000D02*
G75*
G02*
X11788500Y-23239000I200000J0D01*
G01*
X12263000Y-28978500D02*
G75*
G02*
X11863000Y-28978500I-200000J0D01*
G01*
X11863000Y-28978500D02*
G75*
G02*
X12263000Y-28978500I200000J0D01*
G01*
X12743000Y-25160000D02*
G75*
G02*
X12343000Y-25160000I-200000J0D01*
G01*
X12343000Y-25160000D02*
G75*
G02*
X12743000Y-25160000I200000J0D01*
G01*
X12752000Y-21344000D02*
G75*
G02*
X12352000Y-21344000I-200000J0D01*
G01*
X12352000Y-21344000D02*
G75*
G02*
X12752000Y-21344000I200000J0D01*
G01*
X13234000Y-27063500D02*
G75*
G02*
X12834000Y-27063500I-200000J0D01*
G01*
X12834000Y-27063500D02*
G75*
G02*
X13234000Y-27063500I200000J0D01*
G01*
X13708000Y-23239000D02*
G75*
G02*
X13308000Y-23239000I-200000J0D01*
G01*
X13308000Y-23239000D02*
G75*
G02*
X13708000Y-23239000I200000J0D01*
G01*
X14179500Y-28978500D02*
G75*
G02*
X13779500Y-28978500I-200000J0D01*
G01*
X13779500Y-28978500D02*
G75*
G02*
X14179500Y-28978500I200000J0D01*
G01*
X14648500Y-21351500D02*
G75*
G02*
X14248500Y-21351500I-200000J0D01*
G01*
X14248500Y-21351500D02*
G75*
G02*
X14648500Y-21351500I200000J0D01*
G01*
X14673500Y-25160000D02*
G75*
G02*
X14273500Y-25160000I-200000J0D01*
G01*
X14273500Y-25160000D02*
G75*
G02*
X14673500Y-25160000I200000J0D01*
G01*
X15137500Y-27063500D02*
G75*
G02*
X14737500Y-27063500I-200000J0D01*
G01*
X14737500Y-27063500D02*
G75*
G02*
X15137500Y-27063500I200000J0D01*
G01*
X15153500Y-30910500D02*
G75*
G02*
X14753500Y-30910500I-200000J0D01*
G01*
X14753500Y-30910500D02*
G75*
G02*
X15153500Y-30910500I200000J0D01*
G01*
X15617000Y-23239000D02*
G75*
G02*
X15217000Y-23239000I-200000J0D01*
G01*
X15217000Y-23239000D02*
G75*
G02*
X15617000Y-23239000I200000J0D01*
G01*
X16088500Y-28978500D02*
G75*
G02*
X15688500Y-28978500I-200000J0D01*
G01*
X15688500Y-28978500D02*
G75*
G02*
X16088500Y-28978500I200000J0D01*
G01*
X16563000Y-21339000D02*
G75*
G02*
X16163000Y-21339000I-200000J0D01*
G01*
X16163000Y-21339000D02*
G75*
G02*
X16563000Y-21339000I200000J0D01*
G01*
X16570500Y-25160000D02*
G75*
G02*
X16170500Y-25160000I-200000J0D01*
G01*
X16170500Y-25160000D02*
G75*
G02*
X16570500Y-25160000I200000J0D01*
G01*
X17048500Y-27063500D02*
G75*
G02*
X16648500Y-27063500I-200000J0D01*
G01*
X16648500Y-27063500D02*
G75*
G02*
X17048500Y-27063500I200000J0D01*
G01*
X17510000Y-23239000D02*
G75*
G02*
X17110000Y-23239000I-200000J0D01*
G01*
X17110000Y-23239000D02*
G75*
G02*
X17510000Y-23239000I200000J0D01*
G01*
X17992000Y-28978500D02*
G75*
G02*
X17592000Y-28978500I-200000J0D01*
G01*
X17592000Y-28978500D02*
G75*
G02*
X17992000Y-28978500I200000J0D01*
G01*
X18488000Y-21344000D02*
G75*
G02*
X18088000Y-21344000I-200000J0D01*
G01*
X18088000Y-21344000D02*
G75*
G02*
X18488000Y-21344000I200000J0D01*
G01*
X18488500Y-25160000D02*
G75*
G02*
X18088500Y-25160000I-200000J0D01*
G01*
X18088500Y-25160000D02*
G75*
G02*
X18488500Y-25160000I200000J0D01*
G01*
X18957500Y-27063500D02*
G75*
G02*
X18557500Y-27063500I-200000J0D01*
G01*
X18557500Y-27063500D02*
G75*
G02*
X18957500Y-27063500I200000J0D01*
G01*
X19431000Y-23239000D02*
G75*
G02*
X19031000Y-23239000I-200000J0D01*
G01*
X19031000Y-23239000D02*
G75*
G02*
X19431000Y-23239000I200000J0D01*
G01*
X19903000Y-28978500D02*
G75*
G02*
X19503000Y-28978500I-200000J0D01*
G01*
X19503000Y-28978500D02*
G75*
G02*
X19903000Y-28978500I200000J0D01*
G01*
X20380000Y-21347000D02*
G75*
G02*
X19980000Y-21347000I-200000J0D01*
G01*
X19980000Y-21347000D02*
G75*
G02*
X20380000Y-21347000I200000J0D01*
G01*
X20395500Y-25160000D02*
G75*
G02*
X19995500Y-25160000I-200000J0D01*
G01*
X19995500Y-25160000D02*
G75*
G02*
X20395500Y-25160000I200000J0D01*
G01*
X20844500Y-27063500D02*
G75*
G02*
X20444500Y-27063500I-200000J0D01*
G01*
X20444500Y-27063500D02*
G75*
G02*
X20844500Y-27063500I200000J0D01*
G01*
X20853500Y-30910500D02*
G75*
G02*
X20453500Y-30910500I-200000J0D01*
G01*
X20453500Y-30910500D02*
G75*
G02*
X20853500Y-30910500I200000J0D01*
G01*
X21328500Y-23239000D02*
G75*
G02*
X20928500Y-23239000I-200000J0D01*
G01*
X20928500Y-23239000D02*
G75*
G02*
X21328500Y-23239000I200000J0D01*
G01*
X21806500Y-28978500D02*
G75*
G02*
X21406500Y-28978500I-200000J0D01*
G01*
X21406500Y-28978500D02*
G75*
G02*
X21806500Y-28978500I200000J0D01*
G01*
X22284000Y-21323000D02*
G75*
G02*
X21884000Y-21323000I-200000J0D01*
G01*
X21884000Y-21323000D02*
G75*
G02*
X22284000Y-21323000I200000J0D01*
G01*
X22292500Y-25160000D02*
G75*
G02*
X21892500Y-25160000I-200000J0D01*
G01*
X21892500Y-25160000D02*
G75*
G02*
X22292500Y-25160000I200000J0D01*
G01*
X22760500Y-27063500D02*
G75*
G02*
X22360500Y-27063500I-200000J0D01*
G01*
X22360500Y-27063500D02*
G75*
G02*
X22760500Y-27063500I200000J0D01*
G01*
X23242000Y-23239000D02*
G75*
G02*
X22842000Y-23239000I-200000J0D01*
G01*
X22842000Y-23239000D02*
G75*
G02*
X23242000Y-23239000I200000J0D01*
G01*
X23722000Y-28978500D02*
G75*
G02*
X23322000Y-28978500I-200000J0D01*
G01*
X23322000Y-28978500D02*
G75*
G02*
X23722000Y-28978500I200000J0D01*
G01*
X24195500Y-25160000D02*
G75*
G02*
X23795500Y-25160000I-200000J0D01*
G01*
X23795500Y-25160000D02*
G75*
G02*
X24195500Y-25160000I200000J0D01*
G01*
X24198000Y-21327000D02*
G75*
G02*
X23798000Y-21327000I-200000J0D01*
G01*
X23798000Y-21327000D02*
G75*
G02*
X24198000Y-21327000I200000J0D01*
G01*
X24676000Y-27063500D02*
G75*
G02*
X24276000Y-27063500I-200000J0D01*
G01*
X24276000Y-27063500D02*
G75*
G02*
X24676000Y-27063500I200000J0D01*
G01*
X25143500Y-23239000D02*
G75*
G02*
X24743500Y-23239000I-200000J0D01*
G01*
X24743500Y-23239000D02*
G75*
G02*
X25143500Y-23239000I200000J0D01*
G01*
X25626500Y-28978500D02*
G75*
G02*
X25226500Y-28978500I-200000J0D01*
G01*
X25226500Y-28978500D02*
G75*
G02*
X25626500Y-28978500I200000J0D01*
G01*
X26092000Y-21323000D02*
G75*
G02*
X25692000Y-21323000I-200000J0D01*
G01*
X25692000Y-21323000D02*
G75*
G02*
X26092000Y-21323000I200000J0D01*
G01*
X26101000Y-25160000D02*
G75*
G02*
X25701000Y-25160000I-200000J0D01*
G01*
X25701000Y-25160000D02*
G75*
G02*
X26101000Y-25160000I200000J0D01*
G01*
X26553500Y-30910500D02*
G75*
G02*
X26153500Y-30910500I-200000J0D01*
G01*
X26153500Y-30910500D02*
G75*
G02*
X26553500Y-30910500I200000J0D01*
G01*
X26588500Y-27063500D02*
G75*
G02*
X26188500Y-27063500I-200000J0D01*
G01*
X26188500Y-27063500D02*
G75*
G02*
X26588500Y-27063500I200000J0D01*
G01*
X27060500Y-23239000D02*
G75*
G02*
X26660500Y-23239000I-200000J0D01*
G01*
X26660500Y-23239000D02*
G75*
G02*
X27060500Y-23239000I200000J0D01*
G01*
X27537500Y-28978500D02*
G75*
G02*
X27137500Y-28978500I-200000J0D01*
G01*
X27137500Y-28978500D02*
G75*
G02*
X27537500Y-28978500I200000J0D01*
G01*
X28000000Y-21323000D02*
G75*
G02*
X27600000Y-21323000I-200000J0D01*
G01*
X27600000Y-21323000D02*
G75*
G02*
X28000000Y-21323000I200000J0D01*
G01*
X28021500Y-25160000D02*
G75*
G02*
X27621500Y-25160000I-200000J0D01*
G01*
X27621500Y-25160000D02*
G75*
G02*
X28021500Y-25160000I200000J0D01*
G01*
X28483500Y-27063500D02*
G75*
G02*
X28083500Y-27063500I-200000J0D01*
G01*
X28083500Y-27063500D02*
G75*
G02*
X28483500Y-27063500I200000J0D01*
G01*
X28954000Y-23239000D02*
G75*
G02*
X28554000Y-23239000I-200000J0D01*
G01*
X28554000Y-23239000D02*
G75*
G02*
X28954000Y-23239000I200000J0D01*
G01*
X29445500Y-28978500D02*
G75*
G02*
X29045500Y-28978500I-200000J0D01*
G01*
X29045500Y-28978500D02*
G75*
G02*
X29445500Y-28978500I200000J0D01*
G01*
X29922500Y-25160000D02*
G75*
G02*
X29522500Y-25160000I-200000J0D01*
G01*
X29522500Y-25160000D02*
G75*
G02*
X29922500Y-25160000I200000J0D01*
G01*
X30400500Y-27063500D02*
G75*
G02*
X30000500Y-27063500I-200000J0D01*
G01*
X30000500Y-27063500D02*
G75*
G02*
X30400500Y-27063500I200000J0D01*
G01*
X30894000Y-23239000D02*
G75*
G02*
X30494000Y-23239000I-200000J0D01*
G01*
X30494000Y-23239000D02*
G75*
G02*
X30894000Y-23239000I200000J0D01*
G01*
X31819000Y-28978500D02*
G75*
G02*
X31419000Y-28978500I-200000J0D01*
G01*
X31419000Y-28978500D02*
G75*
G02*
X31819000Y-28978500I200000J0D01*
G01*
X31826000Y-21346000D02*
G75*
G02*
X31426000Y-21346000I-200000J0D01*
G01*
X31426000Y-21346000D02*
G75*
G02*
X31826000Y-21346000I200000J0D01*
G01*
X31827000Y-25160000D02*
G75*
G02*
X31427000Y-25160000I-200000J0D01*
G01*
X31427000Y-25160000D02*
G75*
G02*
X31827000Y-25160000I200000J0D01*
G01*
X32301500Y-27063500D02*
G75*
G02*
X31901500Y-27063500I-200000J0D01*
G01*
X31901500Y-27063500D02*
G75*
G02*
X32301500Y-27063500I200000J0D01*
G01*
X32782000Y-23239000D02*
G75*
G02*
X32382000Y-23239000I-200000J0D01*
G01*
X32382000Y-23239000D02*
G75*
G02*
X32782000Y-23239000I200000J0D01*
G01*
X33732000Y-25160000D02*
G75*
G02*
X33332000Y-25160000I-200000J0D01*
G01*
X33332000Y-25160000D02*
G75*
G02*
X33732000Y-25160000I200000J0D01*
G01*
X34198000Y-28978500D02*
G75*
G02*
X33798000Y-28978500I-200000J0D01*
G01*
X33798000Y-28978500D02*
G75*
G02*
X34198000Y-28978500I200000J0D01*
G01*
X34700000Y-23239000D02*
G75*
G02*
X34300000Y-23239000I-200000J0D01*
G01*
X34300000Y-23239000D02*
G75*
G02*
X34700000Y-23239000I200000J0D01*
G01*
X35157500Y-27063500D02*
G75*
G02*
X34757500Y-27063500I-200000J0D01*
G01*
X34757500Y-27063500D02*
G75*
G02*
X35157500Y-27063500I200000J0D01*
G01*
X35655000Y-21345000D02*
G75*
G02*
X35255000Y-21345000I-200000J0D01*
G01*
X35255000Y-21345000D02*
G75*
G02*
X35655000Y-21345000I200000J0D01*
G01*
X35655500Y-25160000D02*
G75*
G02*
X35255500Y-25160000I-200000J0D01*
G01*
X35255500Y-25160000D02*
G75*
G02*
X35655500Y-25160000I200000J0D01*
G01*
X36105000Y-28978500D02*
G75*
G02*
X35705000Y-28978500I-200000J0D01*
G01*
X35705000Y-28978500D02*
G75*
G02*
X36105000Y-28978500I200000J0D01*
G01*
X36589000Y-23239000D02*
G75*
G02*
X36189000Y-23239000I-200000J0D01*
G01*
X36189000Y-23239000D02*
G75*
G02*
X36589000Y-23239000I200000J0D01*
G01*
X39289500Y-23239000D02*
G75*
G02*
X38889500Y-23239000I-200000J0D01*
G01*
X38889500Y-23239000D02*
G75*
G02*
X39289500Y-23239000I200000J0D01*
G01*
X39289500Y-28978500D02*
G75*
G02*
X38889500Y-28978500I-200000J0D01*
G01*
X38889500Y-28978500D02*
G75*
G02*
X39289500Y-28978500I200000J0D01*
G01*
X39290500Y-27063500D02*
G75*
G02*
X38890500Y-27063500I-200000J0D01*
G01*
X38890500Y-27063500D02*
G75*
G02*
X39290500Y-27063500I200000J0D01*
G01*
X39291500Y-21334500D02*
G75*
G02*
X38891500Y-21334500I-200000J0D01*
G01*
X38891500Y-21334500D02*
G75*
G02*
X39291500Y-21334500I200000J0D01*
G01*
X39295500Y-25160000D02*
G75*
G02*
X38895500Y-25160000I-200000J0D01*
G01*
X38895500Y-25160000D02*
G75*
G02*
X39295500Y-25160000I200000J0D01*
G01*
X41183000Y-21337000D02*
G75*
G02*
X40783000Y-21337000I-200000J0D01*
G01*
X40783000Y-21337000D02*
G75*
G02*
X41183000Y-21337000I200000J0D01*
G01*
X41190500Y-25160000D02*
G75*
G02*
X40790500Y-25160000I-200000J0D01*
G01*
X40790500Y-25160000D02*
G75*
G02*
X41190500Y-25160000I200000J0D01*
G01*
X41190500Y-27063500D02*
G75*
G02*
X40790500Y-27063500I-200000J0D01*
G01*
X40790500Y-27063500D02*
G75*
G02*
X41190500Y-27063500I200000J0D01*
G01*
X41190500Y-28978500D02*
G75*
G02*
X40790500Y-28978500I-200000J0D01*
G01*
X40790500Y-28978500D02*
G75*
G02*
X41190500Y-28978500I200000J0D01*
G01*
X41200000Y-23239000D02*
G75*
G02*
X40800000Y-23239000I-200000J0D01*
G01*
X40800000Y-23239000D02*
G75*
G02*
X41200000Y-23239000I200000J0D01*
G01*
X43094500Y-21339500D02*
G75*
G02*
X42694500Y-21339500I-200000J0D01*
G01*
X42694500Y-21339500D02*
G75*
G02*
X43094500Y-21339500I200000J0D01*
G01*
X43107500Y-27063500D02*
G75*
G02*
X42707500Y-27063500I-200000J0D01*
G01*
X42707500Y-27063500D02*
G75*
G02*
X43107500Y-27063500I200000J0D01*
G01*
X43112500Y-25160000D02*
G75*
G02*
X42712500Y-25160000I-200000J0D01*
G01*
X42712500Y-25160000D02*
G75*
G02*
X43112500Y-25160000I200000J0D01*
G01*
X43115000Y-23239000D02*
G75*
G02*
X42715000Y-23239000I-200000J0D01*
G01*
X42715000Y-23239000D02*
G75*
G02*
X43115000Y-23239000I200000J0D01*
G01*
X44067500Y-28978500D02*
G75*
G02*
X43667500Y-28978500I-200000J0D01*
G01*
X43667500Y-28978500D02*
G75*
G02*
X44067500Y-28978500I200000J0D01*
G01*
X45011000Y-25160000D02*
G75*
G02*
X44611000Y-25160000I-200000J0D01*
G01*
X44611000Y-25160000D02*
G75*
G02*
X45011000Y-25160000I200000J0D01*
G01*
X45012500Y-21351500D02*
G75*
G02*
X44612500Y-21351500I-200000J0D01*
G01*
X44612500Y-21351500D02*
G75*
G02*
X45012500Y-21351500I200000J0D01*
G01*
X45015000Y-27063500D02*
G75*
G02*
X44615000Y-27063500I-200000J0D01*
G01*
X44615000Y-27063500D02*
G75*
G02*
X45015000Y-27063500I200000J0D01*
G01*
X45023000Y-23239000D02*
G75*
G02*
X44623000Y-23239000I-200000J0D01*
G01*
X44623000Y-23239000D02*
G75*
G02*
X45023000Y-23239000I200000J0D01*
G01*
D11*
X4381478Y-33354015D02*
X4381478Y-33154015D01*
X4381478Y-33154015D02*
X4429097Y-33154015D01*
X4429097Y-33154015D02*
X4457669Y-33163539D01*
X4457669Y-33163539D02*
X4476716Y-33182586D01*
X4476716Y-33182586D02*
X4486240Y-33201634D01*
X4486240Y-33201634D02*
X4495764Y-33239729D01*
X4495764Y-33239729D02*
X4495764Y-33268301D01*
X4495764Y-33268301D02*
X4486240Y-33306396D01*
X4486240Y-33306396D02*
X4476716Y-33325443D01*
X4476716Y-33325443D02*
X4457669Y-33344491D01*
X4457669Y-33344491D02*
X4429097Y-33354015D01*
X4429097Y-33354015D02*
X4381478Y-33354015D01*
X4581478Y-33354015D02*
X4581478Y-33220682D01*
X4581478Y-33258777D02*
X4591002Y-33239729D01*
X4591002Y-33239729D02*
X4600526Y-33230205D01*
X4600526Y-33230205D02*
X4619573Y-33220682D01*
X4619573Y-33220682D02*
X4638621Y-33220682D01*
X4705288Y-33354015D02*
X4705288Y-33220682D01*
X4705288Y-33154015D02*
X4695764Y-33163539D01*
X4695764Y-33163539D02*
X4705288Y-33173063D01*
X4705288Y-33173063D02*
X4714811Y-33163539D01*
X4714811Y-33163539D02*
X4705288Y-33154015D01*
X4705288Y-33154015D02*
X4705288Y-33173063D01*
X4829097Y-33354015D02*
X4810049Y-33344491D01*
X4810049Y-33344491D02*
X4800526Y-33325443D01*
X4800526Y-33325443D02*
X4800526Y-33154015D01*
X4933859Y-33354015D02*
X4914811Y-33344491D01*
X4914811Y-33344491D02*
X4905288Y-33325443D01*
X4905288Y-33325443D02*
X4905288Y-33154015D01*
X5162430Y-33354015D02*
X5162430Y-33154015D01*
X5162430Y-33154015D02*
X5229097Y-33296872D01*
X5229097Y-33296872D02*
X5295764Y-33154015D01*
X5295764Y-33154015D02*
X5295764Y-33354015D01*
X5476716Y-33354015D02*
X5476716Y-33249253D01*
X5476716Y-33249253D02*
X5467192Y-33230205D01*
X5467192Y-33230205D02*
X5448145Y-33220682D01*
X5448145Y-33220682D02*
X5410049Y-33220682D01*
X5410049Y-33220682D02*
X5391002Y-33230205D01*
X5476716Y-33344491D02*
X5457669Y-33354015D01*
X5457669Y-33354015D02*
X5410049Y-33354015D01*
X5410049Y-33354015D02*
X5391002Y-33344491D01*
X5391002Y-33344491D02*
X5381478Y-33325443D01*
X5381478Y-33325443D02*
X5381478Y-33306396D01*
X5381478Y-33306396D02*
X5391002Y-33287348D01*
X5391002Y-33287348D02*
X5410049Y-33277824D01*
X5410049Y-33277824D02*
X5457669Y-33277824D01*
X5457669Y-33277824D02*
X5476716Y-33268301D01*
X5571954Y-33220682D02*
X5571954Y-33420682D01*
X5571954Y-33230205D02*
X5591002Y-33220682D01*
X5591002Y-33220682D02*
X5629097Y-33220682D01*
X5629097Y-33220682D02*
X5648145Y-33230205D01*
X5648145Y-33230205D02*
X5657668Y-33239729D01*
X5657668Y-33239729D02*
X5667192Y-33258777D01*
X5667192Y-33258777D02*
X5667192Y-33315920D01*
X5667192Y-33315920D02*
X5657668Y-33334967D01*
X5657668Y-33334967D02*
X5648145Y-33344491D01*
X5648145Y-33344491D02*
X5629097Y-33354015D01*
X5629097Y-33354015D02*
X5591002Y-33354015D01*
X5591002Y-33354015D02*
X5571954Y-33344491D01*
X5752907Y-33334967D02*
X5762430Y-33344491D01*
X5762430Y-33344491D02*
X5752907Y-33354015D01*
X5752907Y-33354015D02*
X5743383Y-33344491D01*
X5743383Y-33344491D02*
X5752907Y-33334967D01*
X5752907Y-33334967D02*
X5752907Y-33354015D01*
X5752907Y-33230205D02*
X5762430Y-33239729D01*
X5762430Y-33239729D02*
X5752907Y-33249253D01*
X5752907Y-33249253D02*
X5743383Y-33239729D01*
X5743383Y-33239729D02*
X5752907Y-33230205D01*
X5752907Y-33230205D02*
X5752907Y-33249253D01*
D12*
X3950701Y-33597531D02*
X4120701Y-33767531D01*
X4120701Y-33597531D02*
X3950701Y-33767531D01*
D11*
X4486240Y-33774015D02*
X4371954Y-33774015D01*
X4429097Y-33774015D02*
X4429097Y-33574015D01*
X4429097Y-33574015D02*
X4410049Y-33602586D01*
X4410049Y-33602586D02*
X4391002Y-33621634D01*
X4391002Y-33621634D02*
X4371954Y-33631158D01*
X4571954Y-33754967D02*
X4581478Y-33764491D01*
X4581478Y-33764491D02*
X4571954Y-33774015D01*
X4571954Y-33774015D02*
X4562430Y-33764491D01*
X4562430Y-33764491D02*
X4571954Y-33754967D01*
X4571954Y-33754967D02*
X4571954Y-33774015D01*
X4648145Y-33574015D02*
X4781478Y-33574015D01*
X4781478Y-33574015D02*
X4695764Y-33774015D01*
X4895764Y-33574015D02*
X4914811Y-33574015D01*
X4914811Y-33574015D02*
X4933859Y-33583539D01*
X4933859Y-33583539D02*
X4943383Y-33593063D01*
X4943383Y-33593063D02*
X4952907Y-33612110D01*
X4952907Y-33612110D02*
X4962430Y-33650205D01*
X4962430Y-33650205D02*
X4962430Y-33697825D01*
X4962430Y-33697825D02*
X4952907Y-33735920D01*
X4952907Y-33735920D02*
X4943383Y-33754967D01*
X4943383Y-33754967D02*
X4933859Y-33764491D01*
X4933859Y-33764491D02*
X4914811Y-33774015D01*
X4914811Y-33774015D02*
X4895764Y-33774015D01*
X4895764Y-33774015D02*
X4876716Y-33764491D01*
X4876716Y-33764491D02*
X4867192Y-33754967D01*
X4867192Y-33754967D02*
X4857669Y-33735920D01*
X4857669Y-33735920D02*
X4848145Y-33697825D01*
X4848145Y-33697825D02*
X4848145Y-33650205D01*
X4848145Y-33650205D02*
X4857669Y-33612110D01*
X4857669Y-33612110D02*
X4867192Y-33593063D01*
X4867192Y-33593063D02*
X4876716Y-33583539D01*
X4876716Y-33583539D02*
X4895764Y-33574015D01*
X5086240Y-33574015D02*
X5105288Y-33574015D01*
X5105288Y-33574015D02*
X5124335Y-33583539D01*
X5124335Y-33583539D02*
X5133859Y-33593063D01*
X5133859Y-33593063D02*
X5143383Y-33612110D01*
X5143383Y-33612110D02*
X5152907Y-33650205D01*
X5152907Y-33650205D02*
X5152907Y-33697825D01*
X5152907Y-33697825D02*
X5143383Y-33735920D01*
X5143383Y-33735920D02*
X5133859Y-33754967D01*
X5133859Y-33754967D02*
X5124335Y-33764491D01*
X5124335Y-33764491D02*
X5105288Y-33774015D01*
X5105288Y-33774015D02*
X5086240Y-33774015D01*
X5086240Y-33774015D02*
X5067192Y-33764491D01*
X5067192Y-33764491D02*
X5057669Y-33754967D01*
X5057669Y-33754967D02*
X5048145Y-33735920D01*
X5048145Y-33735920D02*
X5038621Y-33697825D01*
X5038621Y-33697825D02*
X5038621Y-33650205D01*
X5038621Y-33650205D02*
X5048145Y-33612110D01*
X5048145Y-33612110D02*
X5057669Y-33593063D01*
X5057669Y-33593063D02*
X5067192Y-33583539D01*
X5067192Y-33583539D02*
X5086240Y-33574015D01*
X5238621Y-33774015D02*
X5238621Y-33640682D01*
X5238621Y-33659729D02*
X5248145Y-33650205D01*
X5248145Y-33650205D02*
X5267192Y-33640682D01*
X5267192Y-33640682D02*
X5295764Y-33640682D01*
X5295764Y-33640682D02*
X5314811Y-33650205D01*
X5314811Y-33650205D02*
X5324335Y-33669253D01*
X5324335Y-33669253D02*
X5324335Y-33774015D01*
X5324335Y-33669253D02*
X5333859Y-33650205D01*
X5333859Y-33650205D02*
X5352907Y-33640682D01*
X5352907Y-33640682D02*
X5381478Y-33640682D01*
X5381478Y-33640682D02*
X5400526Y-33650205D01*
X5400526Y-33650205D02*
X5410050Y-33669253D01*
X5410050Y-33669253D02*
X5410050Y-33774015D01*
X5505288Y-33774015D02*
X5505288Y-33640682D01*
X5505288Y-33659729D02*
X5514811Y-33650205D01*
X5514811Y-33650205D02*
X5533859Y-33640682D01*
X5533859Y-33640682D02*
X5562431Y-33640682D01*
X5562431Y-33640682D02*
X5581478Y-33650205D01*
X5581478Y-33650205D02*
X5591002Y-33669253D01*
X5591002Y-33669253D02*
X5591002Y-33774015D01*
X5591002Y-33669253D02*
X5600526Y-33650205D01*
X5600526Y-33650205D02*
X5619573Y-33640682D01*
X5619573Y-33640682D02*
X5648145Y-33640682D01*
X5648145Y-33640682D02*
X5667192Y-33650205D01*
X5667192Y-33650205D02*
X5676716Y-33669253D01*
X5676716Y-33669253D02*
X5676716Y-33774015D01*
X6067192Y-33564491D02*
X5895764Y-33821634D01*
X6324335Y-33574015D02*
X6343383Y-33574015D01*
X6343383Y-33574015D02*
X6362431Y-33583539D01*
X6362431Y-33583539D02*
X6371954Y-33593063D01*
X6371954Y-33593063D02*
X6381478Y-33612110D01*
X6381478Y-33612110D02*
X6391002Y-33650205D01*
X6391002Y-33650205D02*
X6391002Y-33697825D01*
X6391002Y-33697825D02*
X6381478Y-33735920D01*
X6381478Y-33735920D02*
X6371954Y-33754967D01*
X6371954Y-33754967D02*
X6362431Y-33764491D01*
X6362431Y-33764491D02*
X6343383Y-33774015D01*
X6343383Y-33774015D02*
X6324335Y-33774015D01*
X6324335Y-33774015D02*
X6305288Y-33764491D01*
X6305288Y-33764491D02*
X6295764Y-33754967D01*
X6295764Y-33754967D02*
X6286240Y-33735920D01*
X6286240Y-33735920D02*
X6276716Y-33697825D01*
X6276716Y-33697825D02*
X6276716Y-33650205D01*
X6276716Y-33650205D02*
X6286240Y-33612110D01*
X6286240Y-33612110D02*
X6295764Y-33593063D01*
X6295764Y-33593063D02*
X6305288Y-33583539D01*
X6305288Y-33583539D02*
X6324335Y-33574015D01*
X6476716Y-33754967D02*
X6486240Y-33764491D01*
X6486240Y-33764491D02*
X6476716Y-33774015D01*
X6476716Y-33774015D02*
X6467192Y-33764491D01*
X6467192Y-33764491D02*
X6476716Y-33754967D01*
X6476716Y-33754967D02*
X6476716Y-33774015D01*
X6610050Y-33574015D02*
X6629097Y-33574015D01*
X6629097Y-33574015D02*
X6648145Y-33583539D01*
X6648145Y-33583539D02*
X6657669Y-33593063D01*
X6657669Y-33593063D02*
X6667192Y-33612110D01*
X6667192Y-33612110D02*
X6676716Y-33650205D01*
X6676716Y-33650205D02*
X6676716Y-33697825D01*
X6676716Y-33697825D02*
X6667192Y-33735920D01*
X6667192Y-33735920D02*
X6657669Y-33754967D01*
X6657669Y-33754967D02*
X6648145Y-33764491D01*
X6648145Y-33764491D02*
X6629097Y-33774015D01*
X6629097Y-33774015D02*
X6610050Y-33774015D01*
X6610050Y-33774015D02*
X6591002Y-33764491D01*
X6591002Y-33764491D02*
X6581478Y-33754967D01*
X6581478Y-33754967D02*
X6571954Y-33735920D01*
X6571954Y-33735920D02*
X6562431Y-33697825D01*
X6562431Y-33697825D02*
X6562431Y-33650205D01*
X6562431Y-33650205D02*
X6571954Y-33612110D01*
X6571954Y-33612110D02*
X6581478Y-33593063D01*
X6581478Y-33593063D02*
X6591002Y-33583539D01*
X6591002Y-33583539D02*
X6610050Y-33574015D01*
X6848145Y-33574015D02*
X6810050Y-33574015D01*
X6810050Y-33574015D02*
X6791002Y-33583539D01*
X6791002Y-33583539D02*
X6781478Y-33593063D01*
X6781478Y-33593063D02*
X6762431Y-33621634D01*
X6762431Y-33621634D02*
X6752907Y-33659729D01*
X6752907Y-33659729D02*
X6752907Y-33735920D01*
X6752907Y-33735920D02*
X6762431Y-33754967D01*
X6762431Y-33754967D02*
X6771954Y-33764491D01*
X6771954Y-33764491D02*
X6791002Y-33774015D01*
X6791002Y-33774015D02*
X6829097Y-33774015D01*
X6829097Y-33774015D02*
X6848145Y-33764491D01*
X6848145Y-33764491D02*
X6857669Y-33754967D01*
X6857669Y-33754967D02*
X6867192Y-33735920D01*
X6867192Y-33735920D02*
X6867192Y-33688301D01*
X6867192Y-33688301D02*
X6857669Y-33669253D01*
X6857669Y-33669253D02*
X6848145Y-33659729D01*
X6848145Y-33659729D02*
X6829097Y-33650205D01*
X6829097Y-33650205D02*
X6791002Y-33650205D01*
X6791002Y-33650205D02*
X6771954Y-33659729D01*
X6771954Y-33659729D02*
X6762431Y-33669253D01*
X6762431Y-33669253D02*
X6752907Y-33688301D01*
X7038621Y-33574015D02*
X7000526Y-33574015D01*
X7000526Y-33574015D02*
X6981478Y-33583539D01*
X6981478Y-33583539D02*
X6971954Y-33593063D01*
X6971954Y-33593063D02*
X6952907Y-33621634D01*
X6952907Y-33621634D02*
X6943383Y-33659729D01*
X6943383Y-33659729D02*
X6943383Y-33735920D01*
X6943383Y-33735920D02*
X6952907Y-33754967D01*
X6952907Y-33754967D02*
X6962431Y-33764491D01*
X6962431Y-33764491D02*
X6981478Y-33774015D01*
X6981478Y-33774015D02*
X7019573Y-33774015D01*
X7019573Y-33774015D02*
X7038621Y-33764491D01*
X7038621Y-33764491D02*
X7048145Y-33754967D01*
X7048145Y-33754967D02*
X7057669Y-33735920D01*
X7057669Y-33735920D02*
X7057669Y-33688301D01*
X7057669Y-33688301D02*
X7048145Y-33669253D01*
X7048145Y-33669253D02*
X7038621Y-33659729D01*
X7038621Y-33659729D02*
X7019573Y-33650205D01*
X7019573Y-33650205D02*
X6981478Y-33650205D01*
X6981478Y-33650205D02*
X6962431Y-33659729D01*
X6962431Y-33659729D02*
X6952907Y-33669253D01*
X6952907Y-33669253D02*
X6943383Y-33688301D01*
X7152907Y-33774015D02*
X7191002Y-33774015D01*
X7191002Y-33774015D02*
X7210050Y-33764491D01*
X7210050Y-33764491D02*
X7219573Y-33754967D01*
X7219573Y-33754967D02*
X7238621Y-33726396D01*
X7238621Y-33726396D02*
X7248145Y-33688301D01*
X7248145Y-33688301D02*
X7248145Y-33612110D01*
X7248145Y-33612110D02*
X7238621Y-33593063D01*
X7238621Y-33593063D02*
X7229097Y-33583539D01*
X7229097Y-33583539D02*
X7210050Y-33574015D01*
X7210050Y-33574015D02*
X7171954Y-33574015D01*
X7171954Y-33574015D02*
X7152907Y-33583539D01*
X7152907Y-33583539D02*
X7143383Y-33593063D01*
X7143383Y-33593063D02*
X7133859Y-33612110D01*
X7133859Y-33612110D02*
X7133859Y-33659729D01*
X7133859Y-33659729D02*
X7143383Y-33678777D01*
X7143383Y-33678777D02*
X7152907Y-33688301D01*
X7152907Y-33688301D02*
X7171954Y-33697825D01*
X7171954Y-33697825D02*
X7210050Y-33697825D01*
X7210050Y-33697825D02*
X7229097Y-33688301D01*
X7229097Y-33688301D02*
X7238621Y-33678777D01*
X7238621Y-33678777D02*
X7248145Y-33659729D01*
X7324335Y-33574015D02*
X7324335Y-33612110D01*
X7400526Y-33574015D02*
X7400526Y-33612110D01*
X7695764Y-33850205D02*
X7686240Y-33840682D01*
X7686240Y-33840682D02*
X7667193Y-33812110D01*
X7667193Y-33812110D02*
X7657669Y-33793063D01*
X7657669Y-33793063D02*
X7648145Y-33764491D01*
X7648145Y-33764491D02*
X7638621Y-33716872D01*
X7638621Y-33716872D02*
X7638621Y-33678777D01*
X7638621Y-33678777D02*
X7648145Y-33631158D01*
X7648145Y-33631158D02*
X7657669Y-33602586D01*
X7657669Y-33602586D02*
X7667193Y-33583539D01*
X7667193Y-33583539D02*
X7686240Y-33554967D01*
X7686240Y-33554967D02*
X7695764Y-33545443D01*
X7876716Y-33774015D02*
X7762431Y-33774015D01*
X7819573Y-33774015D02*
X7819573Y-33574015D01*
X7819573Y-33574015D02*
X7800526Y-33602586D01*
X7800526Y-33602586D02*
X7781478Y-33621634D01*
X7781478Y-33621634D02*
X7762431Y-33631158D01*
X7971954Y-33774015D02*
X8010050Y-33774015D01*
X8010050Y-33774015D02*
X8029097Y-33764491D01*
X8029097Y-33764491D02*
X8038621Y-33754967D01*
X8038621Y-33754967D02*
X8057669Y-33726396D01*
X8057669Y-33726396D02*
X8067193Y-33688301D01*
X8067193Y-33688301D02*
X8067193Y-33612110D01*
X8067193Y-33612110D02*
X8057669Y-33593063D01*
X8057669Y-33593063D02*
X8048145Y-33583539D01*
X8048145Y-33583539D02*
X8029097Y-33574015D01*
X8029097Y-33574015D02*
X7991002Y-33574015D01*
X7991002Y-33574015D02*
X7971954Y-33583539D01*
X7971954Y-33583539D02*
X7962431Y-33593063D01*
X7962431Y-33593063D02*
X7952907Y-33612110D01*
X7952907Y-33612110D02*
X7952907Y-33659729D01*
X7952907Y-33659729D02*
X7962431Y-33678777D01*
X7962431Y-33678777D02*
X7971954Y-33688301D01*
X7971954Y-33688301D02*
X7991002Y-33697825D01*
X7991002Y-33697825D02*
X8029097Y-33697825D01*
X8029097Y-33697825D02*
X8048145Y-33688301D01*
X8048145Y-33688301D02*
X8057669Y-33678777D01*
X8057669Y-33678777D02*
X8067193Y-33659729D01*
X8191002Y-33574015D02*
X8210050Y-33574015D01*
X8210050Y-33574015D02*
X8229097Y-33583539D01*
X8229097Y-33583539D02*
X8238621Y-33593063D01*
X8238621Y-33593063D02*
X8248145Y-33612110D01*
X8248145Y-33612110D02*
X8257669Y-33650205D01*
X8257669Y-33650205D02*
X8257669Y-33697825D01*
X8257669Y-33697825D02*
X8248145Y-33735920D01*
X8248145Y-33735920D02*
X8238621Y-33754967D01*
X8238621Y-33754967D02*
X8229097Y-33764491D01*
X8229097Y-33764491D02*
X8210050Y-33774015D01*
X8210050Y-33774015D02*
X8191002Y-33774015D01*
X8191002Y-33774015D02*
X8171954Y-33764491D01*
X8171954Y-33764491D02*
X8162431Y-33754967D01*
X8162431Y-33754967D02*
X8152907Y-33735920D01*
X8152907Y-33735920D02*
X8143383Y-33697825D01*
X8143383Y-33697825D02*
X8143383Y-33650205D01*
X8143383Y-33650205D02*
X8152907Y-33612110D01*
X8152907Y-33612110D02*
X8162431Y-33593063D01*
X8162431Y-33593063D02*
X8171954Y-33583539D01*
X8171954Y-33583539D02*
X8191002Y-33574015D01*
X8495764Y-33774015D02*
X8495764Y-33574015D01*
X8581478Y-33774015D02*
X8581478Y-33669253D01*
X8581478Y-33669253D02*
X8571955Y-33650205D01*
X8571955Y-33650205D02*
X8552907Y-33640682D01*
X8552907Y-33640682D02*
X8524336Y-33640682D01*
X8524336Y-33640682D02*
X8505288Y-33650205D01*
X8505288Y-33650205D02*
X8495764Y-33659729D01*
X8705288Y-33774015D02*
X8686240Y-33764491D01*
X8686240Y-33764491D02*
X8676717Y-33754967D01*
X8676717Y-33754967D02*
X8667193Y-33735920D01*
X8667193Y-33735920D02*
X8667193Y-33678777D01*
X8667193Y-33678777D02*
X8676717Y-33659729D01*
X8676717Y-33659729D02*
X8686240Y-33650205D01*
X8686240Y-33650205D02*
X8705288Y-33640682D01*
X8705288Y-33640682D02*
X8733859Y-33640682D01*
X8733859Y-33640682D02*
X8752907Y-33650205D01*
X8752907Y-33650205D02*
X8762431Y-33659729D01*
X8762431Y-33659729D02*
X8771955Y-33678777D01*
X8771955Y-33678777D02*
X8771955Y-33735920D01*
X8771955Y-33735920D02*
X8762431Y-33754967D01*
X8762431Y-33754967D02*
X8752907Y-33764491D01*
X8752907Y-33764491D02*
X8733859Y-33774015D01*
X8733859Y-33774015D02*
X8705288Y-33774015D01*
X8886240Y-33774015D02*
X8867193Y-33764491D01*
X8867193Y-33764491D02*
X8857669Y-33745444D01*
X8857669Y-33745444D02*
X8857669Y-33574015D01*
X9038621Y-33764491D02*
X9019574Y-33774015D01*
X9019574Y-33774015D02*
X8981478Y-33774015D01*
X8981478Y-33774015D02*
X8962431Y-33764491D01*
X8962431Y-33764491D02*
X8952907Y-33745444D01*
X8952907Y-33745444D02*
X8952907Y-33669253D01*
X8952907Y-33669253D02*
X8962431Y-33650205D01*
X8962431Y-33650205D02*
X8981478Y-33640682D01*
X8981478Y-33640682D02*
X9019574Y-33640682D01*
X9019574Y-33640682D02*
X9038621Y-33650205D01*
X9038621Y-33650205D02*
X9048145Y-33669253D01*
X9048145Y-33669253D02*
X9048145Y-33688301D01*
X9048145Y-33688301D02*
X8952907Y-33707348D01*
X9124336Y-33764491D02*
X9143383Y-33774015D01*
X9143383Y-33774015D02*
X9181478Y-33774015D01*
X9181478Y-33774015D02*
X9200526Y-33764491D01*
X9200526Y-33764491D02*
X9210050Y-33745444D01*
X9210050Y-33745444D02*
X9210050Y-33735920D01*
X9210050Y-33735920D02*
X9200526Y-33716872D01*
X9200526Y-33716872D02*
X9181478Y-33707348D01*
X9181478Y-33707348D02*
X9152907Y-33707348D01*
X9152907Y-33707348D02*
X9133859Y-33697825D01*
X9133859Y-33697825D02*
X9124336Y-33678777D01*
X9124336Y-33678777D02*
X9124336Y-33669253D01*
X9124336Y-33669253D02*
X9133859Y-33650205D01*
X9133859Y-33650205D02*
X9152907Y-33640682D01*
X9152907Y-33640682D02*
X9181478Y-33640682D01*
X9181478Y-33640682D02*
X9200526Y-33650205D01*
X9276717Y-33850205D02*
X9286240Y-33840682D01*
X9286240Y-33840682D02*
X9305288Y-33812110D01*
X9305288Y-33812110D02*
X9314812Y-33793063D01*
X9314812Y-33793063D02*
X9324336Y-33764491D01*
X9324336Y-33764491D02*
X9333859Y-33716872D01*
X9333859Y-33716872D02*
X9333859Y-33678777D01*
X9333859Y-33678777D02*
X9324336Y-33631158D01*
X9324336Y-33631158D02*
X9314812Y-33602586D01*
X9314812Y-33602586D02*
X9305288Y-33583539D01*
X9305288Y-33583539D02*
X9286240Y-33554967D01*
X9286240Y-33554967D02*
X9276717Y-33545443D01*
X9638621Y-33850205D02*
X9629098Y-33840682D01*
X9629098Y-33840682D02*
X9610050Y-33812110D01*
X9610050Y-33812110D02*
X9600526Y-33793063D01*
X9600526Y-33793063D02*
X9591002Y-33764491D01*
X9591002Y-33764491D02*
X9581479Y-33716872D01*
X9581479Y-33716872D02*
X9581479Y-33678777D01*
X9581479Y-33678777D02*
X9591002Y-33631158D01*
X9591002Y-33631158D02*
X9600526Y-33602586D01*
X9600526Y-33602586D02*
X9610050Y-33583539D01*
X9610050Y-33583539D02*
X9629098Y-33554967D01*
X9629098Y-33554967D02*
X9638621Y-33545443D01*
X9714812Y-33640682D02*
X9714812Y-33774015D01*
X9714812Y-33659729D02*
X9724336Y-33650205D01*
X9724336Y-33650205D02*
X9743383Y-33640682D01*
X9743383Y-33640682D02*
X9771955Y-33640682D01*
X9771955Y-33640682D02*
X9791002Y-33650205D01*
X9791002Y-33650205D02*
X9800526Y-33669253D01*
X9800526Y-33669253D02*
X9800526Y-33774015D01*
X9924336Y-33774015D02*
X9905288Y-33764491D01*
X9905288Y-33764491D02*
X9895764Y-33754967D01*
X9895764Y-33754967D02*
X9886240Y-33735920D01*
X9886240Y-33735920D02*
X9886240Y-33678777D01*
X9886240Y-33678777D02*
X9895764Y-33659729D01*
X9895764Y-33659729D02*
X9905288Y-33650205D01*
X9905288Y-33650205D02*
X9924336Y-33640682D01*
X9924336Y-33640682D02*
X9952907Y-33640682D01*
X9952907Y-33640682D02*
X9971955Y-33650205D01*
X9971955Y-33650205D02*
X9981479Y-33659729D01*
X9981479Y-33659729D02*
X9991002Y-33678777D01*
X9991002Y-33678777D02*
X9991002Y-33735920D01*
X9991002Y-33735920D02*
X9981479Y-33754967D01*
X9981479Y-33754967D02*
X9971955Y-33764491D01*
X9971955Y-33764491D02*
X9952907Y-33774015D01*
X9952907Y-33774015D02*
X9924336Y-33774015D01*
X10048145Y-33640682D02*
X10124336Y-33640682D01*
X10076717Y-33574015D02*
X10076717Y-33745444D01*
X10076717Y-33745444D02*
X10086240Y-33764491D01*
X10086240Y-33764491D02*
X10105288Y-33774015D01*
X10105288Y-33774015D02*
X10124336Y-33774015D01*
X10343383Y-33640682D02*
X10343383Y-33840682D01*
X10343383Y-33650205D02*
X10362431Y-33640682D01*
X10362431Y-33640682D02*
X10400526Y-33640682D01*
X10400526Y-33640682D02*
X10419574Y-33650205D01*
X10419574Y-33650205D02*
X10429098Y-33659729D01*
X10429098Y-33659729D02*
X10438621Y-33678777D01*
X10438621Y-33678777D02*
X10438621Y-33735920D01*
X10438621Y-33735920D02*
X10429098Y-33754967D01*
X10429098Y-33754967D02*
X10419574Y-33764491D01*
X10419574Y-33764491D02*
X10400526Y-33774015D01*
X10400526Y-33774015D02*
X10362431Y-33774015D01*
X10362431Y-33774015D02*
X10343383Y-33764491D01*
X10552907Y-33774015D02*
X10533860Y-33764491D01*
X10533860Y-33764491D02*
X10524336Y-33745444D01*
X10524336Y-33745444D02*
X10524336Y-33574015D01*
X10714812Y-33774015D02*
X10714812Y-33669253D01*
X10714812Y-33669253D02*
X10705288Y-33650205D01*
X10705288Y-33650205D02*
X10686241Y-33640682D01*
X10686241Y-33640682D02*
X10648145Y-33640682D01*
X10648145Y-33640682D02*
X10629098Y-33650205D01*
X10714812Y-33764491D02*
X10695764Y-33774015D01*
X10695764Y-33774015D02*
X10648145Y-33774015D01*
X10648145Y-33774015D02*
X10629098Y-33764491D01*
X10629098Y-33764491D02*
X10619574Y-33745444D01*
X10619574Y-33745444D02*
X10619574Y-33726396D01*
X10619574Y-33726396D02*
X10629098Y-33707348D01*
X10629098Y-33707348D02*
X10648145Y-33697825D01*
X10648145Y-33697825D02*
X10695764Y-33697825D01*
X10695764Y-33697825D02*
X10714812Y-33688301D01*
X10781479Y-33640682D02*
X10857669Y-33640682D01*
X10810050Y-33574015D02*
X10810050Y-33745444D01*
X10810050Y-33745444D02*
X10819574Y-33764491D01*
X10819574Y-33764491D02*
X10838621Y-33774015D01*
X10838621Y-33774015D02*
X10857669Y-33774015D01*
X11000526Y-33764491D02*
X10981479Y-33774015D01*
X10981479Y-33774015D02*
X10943383Y-33774015D01*
X10943383Y-33774015D02*
X10924336Y-33764491D01*
X10924336Y-33764491D02*
X10914812Y-33745444D01*
X10914812Y-33745444D02*
X10914812Y-33669253D01*
X10914812Y-33669253D02*
X10924336Y-33650205D01*
X10924336Y-33650205D02*
X10943383Y-33640682D01*
X10943383Y-33640682D02*
X10981479Y-33640682D01*
X10981479Y-33640682D02*
X11000526Y-33650205D01*
X11000526Y-33650205D02*
X11010050Y-33669253D01*
X11010050Y-33669253D02*
X11010050Y-33688301D01*
X11010050Y-33688301D02*
X10914812Y-33707348D01*
X11181479Y-33774015D02*
X11181479Y-33574015D01*
X11181479Y-33764491D02*
X11162431Y-33774015D01*
X11162431Y-33774015D02*
X11124336Y-33774015D01*
X11124336Y-33774015D02*
X11105288Y-33764491D01*
X11105288Y-33764491D02*
X11095764Y-33754967D01*
X11095764Y-33754967D02*
X11086241Y-33735920D01*
X11086241Y-33735920D02*
X11086241Y-33678777D01*
X11086241Y-33678777D02*
X11095764Y-33659729D01*
X11095764Y-33659729D02*
X11105288Y-33650205D01*
X11105288Y-33650205D02*
X11124336Y-33640682D01*
X11124336Y-33640682D02*
X11162431Y-33640682D01*
X11162431Y-33640682D02*
X11181479Y-33650205D01*
X11257669Y-33850205D02*
X11267193Y-33840682D01*
X11267193Y-33840682D02*
X11286240Y-33812110D01*
X11286240Y-33812110D02*
X11295764Y-33793063D01*
X11295764Y-33793063D02*
X11305288Y-33764491D01*
X11305288Y-33764491D02*
X11314812Y-33716872D01*
X11314812Y-33716872D02*
X11314812Y-33678777D01*
X11314812Y-33678777D02*
X11305288Y-33631158D01*
X11305288Y-33631158D02*
X11295764Y-33602586D01*
X11295764Y-33602586D02*
X11286240Y-33583539D01*
X11286240Y-33583539D02*
X11267193Y-33554967D01*
X11267193Y-33554967D02*
X11257669Y-33545443D01*
X4120701Y-33972531D02*
G75*
G02*
X3920701Y-33972531I-100000J0D01*
G01*
X3920701Y-33972531D02*
G75*
G02*
X4120701Y-33972531I100000J0D01*
G01*
X4467192Y-33930682D02*
X4467192Y-34064015D01*
X4419573Y-33854491D02*
X4371954Y-33997348D01*
X4371954Y-33997348D02*
X4495764Y-33997348D01*
X4571954Y-34044967D02*
X4581478Y-34054491D01*
X4581478Y-34054491D02*
X4571954Y-34064015D01*
X4571954Y-34064015D02*
X4562430Y-34054491D01*
X4562430Y-34054491D02*
X4571954Y-34044967D01*
X4571954Y-34044967D02*
X4571954Y-34064015D01*
X4705288Y-33864015D02*
X4724335Y-33864015D01*
X4724335Y-33864015D02*
X4743383Y-33873539D01*
X4743383Y-33873539D02*
X4752907Y-33883063D01*
X4752907Y-33883063D02*
X4762430Y-33902110D01*
X4762430Y-33902110D02*
X4771954Y-33940205D01*
X4771954Y-33940205D02*
X4771954Y-33987825D01*
X4771954Y-33987825D02*
X4762430Y-34025920D01*
X4762430Y-34025920D02*
X4752907Y-34044967D01*
X4752907Y-34044967D02*
X4743383Y-34054491D01*
X4743383Y-34054491D02*
X4724335Y-34064015D01*
X4724335Y-34064015D02*
X4705288Y-34064015D01*
X4705288Y-34064015D02*
X4686240Y-34054491D01*
X4686240Y-34054491D02*
X4676716Y-34044967D01*
X4676716Y-34044967D02*
X4667192Y-34025920D01*
X4667192Y-34025920D02*
X4657669Y-33987825D01*
X4657669Y-33987825D02*
X4657669Y-33940205D01*
X4657669Y-33940205D02*
X4667192Y-33902110D01*
X4667192Y-33902110D02*
X4676716Y-33883063D01*
X4676716Y-33883063D02*
X4686240Y-33873539D01*
X4686240Y-33873539D02*
X4705288Y-33864015D01*
X4895764Y-33864015D02*
X4914811Y-33864015D01*
X4914811Y-33864015D02*
X4933859Y-33873539D01*
X4933859Y-33873539D02*
X4943383Y-33883063D01*
X4943383Y-33883063D02*
X4952907Y-33902110D01*
X4952907Y-33902110D02*
X4962430Y-33940205D01*
X4962430Y-33940205D02*
X4962430Y-33987825D01*
X4962430Y-33987825D02*
X4952907Y-34025920D01*
X4952907Y-34025920D02*
X4943383Y-34044967D01*
X4943383Y-34044967D02*
X4933859Y-34054491D01*
X4933859Y-34054491D02*
X4914811Y-34064015D01*
X4914811Y-34064015D02*
X4895764Y-34064015D01*
X4895764Y-34064015D02*
X4876716Y-34054491D01*
X4876716Y-34054491D02*
X4867192Y-34044967D01*
X4867192Y-34044967D02*
X4857669Y-34025920D01*
X4857669Y-34025920D02*
X4848145Y-33987825D01*
X4848145Y-33987825D02*
X4848145Y-33940205D01*
X4848145Y-33940205D02*
X4857669Y-33902110D01*
X4857669Y-33902110D02*
X4867192Y-33883063D01*
X4867192Y-33883063D02*
X4876716Y-33873539D01*
X4876716Y-33873539D02*
X4895764Y-33864015D01*
X5086240Y-33864015D02*
X5105288Y-33864015D01*
X5105288Y-33864015D02*
X5124335Y-33873539D01*
X5124335Y-33873539D02*
X5133859Y-33883063D01*
X5133859Y-33883063D02*
X5143383Y-33902110D01*
X5143383Y-33902110D02*
X5152907Y-33940205D01*
X5152907Y-33940205D02*
X5152907Y-33987825D01*
X5152907Y-33987825D02*
X5143383Y-34025920D01*
X5143383Y-34025920D02*
X5133859Y-34044967D01*
X5133859Y-34044967D02*
X5124335Y-34054491D01*
X5124335Y-34054491D02*
X5105288Y-34064015D01*
X5105288Y-34064015D02*
X5086240Y-34064015D01*
X5086240Y-34064015D02*
X5067192Y-34054491D01*
X5067192Y-34054491D02*
X5057669Y-34044967D01*
X5057669Y-34044967D02*
X5048145Y-34025920D01*
X5048145Y-34025920D02*
X5038621Y-33987825D01*
X5038621Y-33987825D02*
X5038621Y-33940205D01*
X5038621Y-33940205D02*
X5048145Y-33902110D01*
X5048145Y-33902110D02*
X5057669Y-33883063D01*
X5057669Y-33883063D02*
X5067192Y-33873539D01*
X5067192Y-33873539D02*
X5086240Y-33864015D01*
X5238621Y-34064015D02*
X5238621Y-33930682D01*
X5238621Y-33949729D02*
X5248145Y-33940205D01*
X5248145Y-33940205D02*
X5267192Y-33930682D01*
X5267192Y-33930682D02*
X5295764Y-33930682D01*
X5295764Y-33930682D02*
X5314811Y-33940205D01*
X5314811Y-33940205D02*
X5324335Y-33959253D01*
X5324335Y-33959253D02*
X5324335Y-34064015D01*
X5324335Y-33959253D02*
X5333859Y-33940205D01*
X5333859Y-33940205D02*
X5352907Y-33930682D01*
X5352907Y-33930682D02*
X5381478Y-33930682D01*
X5381478Y-33930682D02*
X5400526Y-33940205D01*
X5400526Y-33940205D02*
X5410050Y-33959253D01*
X5410050Y-33959253D02*
X5410050Y-34064015D01*
X5505288Y-34064015D02*
X5505288Y-33930682D01*
X5505288Y-33949729D02*
X5514811Y-33940205D01*
X5514811Y-33940205D02*
X5533859Y-33930682D01*
X5533859Y-33930682D02*
X5562431Y-33930682D01*
X5562431Y-33930682D02*
X5581478Y-33940205D01*
X5581478Y-33940205D02*
X5591002Y-33959253D01*
X5591002Y-33959253D02*
X5591002Y-34064015D01*
X5591002Y-33959253D02*
X5600526Y-33940205D01*
X5600526Y-33940205D02*
X5619573Y-33930682D01*
X5619573Y-33930682D02*
X5648145Y-33930682D01*
X5648145Y-33930682D02*
X5667192Y-33940205D01*
X5667192Y-33940205D02*
X5676716Y-33959253D01*
X5676716Y-33959253D02*
X5676716Y-34064015D01*
X6067192Y-33854491D02*
X5895764Y-34111634D01*
X6324335Y-33864015D02*
X6343383Y-33864015D01*
X6343383Y-33864015D02*
X6362431Y-33873539D01*
X6362431Y-33873539D02*
X6371954Y-33883063D01*
X6371954Y-33883063D02*
X6381478Y-33902110D01*
X6381478Y-33902110D02*
X6391002Y-33940205D01*
X6391002Y-33940205D02*
X6391002Y-33987825D01*
X6391002Y-33987825D02*
X6381478Y-34025920D01*
X6381478Y-34025920D02*
X6371954Y-34044967D01*
X6371954Y-34044967D02*
X6362431Y-34054491D01*
X6362431Y-34054491D02*
X6343383Y-34064015D01*
X6343383Y-34064015D02*
X6324335Y-34064015D01*
X6324335Y-34064015D02*
X6305288Y-34054491D01*
X6305288Y-34054491D02*
X6295764Y-34044967D01*
X6295764Y-34044967D02*
X6286240Y-34025920D01*
X6286240Y-34025920D02*
X6276716Y-33987825D01*
X6276716Y-33987825D02*
X6276716Y-33940205D01*
X6276716Y-33940205D02*
X6286240Y-33902110D01*
X6286240Y-33902110D02*
X6295764Y-33883063D01*
X6295764Y-33883063D02*
X6305288Y-33873539D01*
X6305288Y-33873539D02*
X6324335Y-33864015D01*
X6476716Y-34044967D02*
X6486240Y-34054491D01*
X6486240Y-34054491D02*
X6476716Y-34064015D01*
X6476716Y-34064015D02*
X6467192Y-34054491D01*
X6467192Y-34054491D02*
X6476716Y-34044967D01*
X6476716Y-34044967D02*
X6476716Y-34064015D01*
X6676716Y-34064015D02*
X6562431Y-34064015D01*
X6619573Y-34064015D02*
X6619573Y-33864015D01*
X6619573Y-33864015D02*
X6600526Y-33892586D01*
X6600526Y-33892586D02*
X6581478Y-33911634D01*
X6581478Y-33911634D02*
X6562431Y-33921158D01*
X6857669Y-33864015D02*
X6762431Y-33864015D01*
X6762431Y-33864015D02*
X6752907Y-33959253D01*
X6752907Y-33959253D02*
X6762431Y-33949729D01*
X6762431Y-33949729D02*
X6781478Y-33940205D01*
X6781478Y-33940205D02*
X6829097Y-33940205D01*
X6829097Y-33940205D02*
X6848145Y-33949729D01*
X6848145Y-33949729D02*
X6857669Y-33959253D01*
X6857669Y-33959253D02*
X6867192Y-33978301D01*
X6867192Y-33978301D02*
X6867192Y-34025920D01*
X6867192Y-34025920D02*
X6857669Y-34044967D01*
X6857669Y-34044967D02*
X6848145Y-34054491D01*
X6848145Y-34054491D02*
X6829097Y-34064015D01*
X6829097Y-34064015D02*
X6781478Y-34064015D01*
X6781478Y-34064015D02*
X6762431Y-34054491D01*
X6762431Y-34054491D02*
X6752907Y-34044967D01*
X6933859Y-33864015D02*
X7067192Y-33864015D01*
X7067192Y-33864015D02*
X6981478Y-34064015D01*
X7238621Y-33864015D02*
X7143383Y-33864015D01*
X7143383Y-33864015D02*
X7133859Y-33959253D01*
X7133859Y-33959253D02*
X7143383Y-33949729D01*
X7143383Y-33949729D02*
X7162431Y-33940205D01*
X7162431Y-33940205D02*
X7210050Y-33940205D01*
X7210050Y-33940205D02*
X7229097Y-33949729D01*
X7229097Y-33949729D02*
X7238621Y-33959253D01*
X7238621Y-33959253D02*
X7248145Y-33978301D01*
X7248145Y-33978301D02*
X7248145Y-34025920D01*
X7248145Y-34025920D02*
X7238621Y-34044967D01*
X7238621Y-34044967D02*
X7229097Y-34054491D01*
X7229097Y-34054491D02*
X7210050Y-34064015D01*
X7210050Y-34064015D02*
X7162431Y-34064015D01*
X7162431Y-34064015D02*
X7143383Y-34054491D01*
X7143383Y-34054491D02*
X7133859Y-34044967D01*
X7324335Y-33864015D02*
X7324335Y-33902110D01*
X7400526Y-33864015D02*
X7400526Y-33902110D01*
X7695764Y-34140205D02*
X7686240Y-34130682D01*
X7686240Y-34130682D02*
X7667193Y-34102110D01*
X7667193Y-34102110D02*
X7657669Y-34083063D01*
X7657669Y-34083063D02*
X7648145Y-34054491D01*
X7648145Y-34054491D02*
X7638621Y-34006872D01*
X7638621Y-34006872D02*
X7638621Y-33968777D01*
X7638621Y-33968777D02*
X7648145Y-33921158D01*
X7648145Y-33921158D02*
X7657669Y-33892586D01*
X7657669Y-33892586D02*
X7667193Y-33873539D01*
X7667193Y-33873539D02*
X7686240Y-33844967D01*
X7686240Y-33844967D02*
X7695764Y-33835444D01*
X7781478Y-34064015D02*
X7819573Y-34064015D01*
X7819573Y-34064015D02*
X7838621Y-34054491D01*
X7838621Y-34054491D02*
X7848145Y-34044967D01*
X7848145Y-34044967D02*
X7867193Y-34016396D01*
X7867193Y-34016396D02*
X7876716Y-33978301D01*
X7876716Y-33978301D02*
X7876716Y-33902110D01*
X7876716Y-33902110D02*
X7867193Y-33883063D01*
X7867193Y-33883063D02*
X7857669Y-33873539D01*
X7857669Y-33873539D02*
X7838621Y-33864015D01*
X7838621Y-33864015D02*
X7800526Y-33864015D01*
X7800526Y-33864015D02*
X7781478Y-33873539D01*
X7781478Y-33873539D02*
X7771954Y-33883063D01*
X7771954Y-33883063D02*
X7762431Y-33902110D01*
X7762431Y-33902110D02*
X7762431Y-33949729D01*
X7762431Y-33949729D02*
X7771954Y-33968777D01*
X7771954Y-33968777D02*
X7781478Y-33978301D01*
X7781478Y-33978301D02*
X7800526Y-33987825D01*
X7800526Y-33987825D02*
X7838621Y-33987825D01*
X7838621Y-33987825D02*
X7857669Y-33978301D01*
X7857669Y-33978301D02*
X7867193Y-33968777D01*
X7867193Y-33968777D02*
X7876716Y-33949729D01*
X8057669Y-33864015D02*
X7962431Y-33864015D01*
X7962431Y-33864015D02*
X7952907Y-33959253D01*
X7952907Y-33959253D02*
X7962431Y-33949729D01*
X7962431Y-33949729D02*
X7981478Y-33940205D01*
X7981478Y-33940205D02*
X8029097Y-33940205D01*
X8029097Y-33940205D02*
X8048145Y-33949729D01*
X8048145Y-33949729D02*
X8057669Y-33959253D01*
X8057669Y-33959253D02*
X8067193Y-33978301D01*
X8067193Y-33978301D02*
X8067193Y-34025920D01*
X8067193Y-34025920D02*
X8057669Y-34044967D01*
X8057669Y-34044967D02*
X8048145Y-34054491D01*
X8048145Y-34054491D02*
X8029097Y-34064015D01*
X8029097Y-34064015D02*
X7981478Y-34064015D01*
X7981478Y-34064015D02*
X7962431Y-34054491D01*
X7962431Y-34054491D02*
X7952907Y-34044967D01*
X8305288Y-34064015D02*
X8305288Y-33864015D01*
X8391002Y-34064015D02*
X8391002Y-33959253D01*
X8391002Y-33959253D02*
X8381478Y-33940205D01*
X8381478Y-33940205D02*
X8362431Y-33930682D01*
X8362431Y-33930682D02*
X8333859Y-33930682D01*
X8333859Y-33930682D02*
X8314812Y-33940205D01*
X8314812Y-33940205D02*
X8305288Y-33949729D01*
X8514812Y-34064015D02*
X8495764Y-34054491D01*
X8495764Y-34054491D02*
X8486240Y-34044967D01*
X8486240Y-34044967D02*
X8476717Y-34025920D01*
X8476717Y-34025920D02*
X8476717Y-33968777D01*
X8476717Y-33968777D02*
X8486240Y-33949729D01*
X8486240Y-33949729D02*
X8495764Y-33940205D01*
X8495764Y-33940205D02*
X8514812Y-33930682D01*
X8514812Y-33930682D02*
X8543383Y-33930682D01*
X8543383Y-33930682D02*
X8562431Y-33940205D01*
X8562431Y-33940205D02*
X8571955Y-33949729D01*
X8571955Y-33949729D02*
X8581478Y-33968777D01*
X8581478Y-33968777D02*
X8581478Y-34025920D01*
X8581478Y-34025920D02*
X8571955Y-34044967D01*
X8571955Y-34044967D02*
X8562431Y-34054491D01*
X8562431Y-34054491D02*
X8543383Y-34064015D01*
X8543383Y-34064015D02*
X8514812Y-34064015D01*
X8695764Y-34064015D02*
X8676717Y-34054491D01*
X8676717Y-34054491D02*
X8667193Y-34035444D01*
X8667193Y-34035444D02*
X8667193Y-33864015D01*
X8848145Y-34054491D02*
X8829098Y-34064015D01*
X8829098Y-34064015D02*
X8791002Y-34064015D01*
X8791002Y-34064015D02*
X8771955Y-34054491D01*
X8771955Y-34054491D02*
X8762431Y-34035444D01*
X8762431Y-34035444D02*
X8762431Y-33959253D01*
X8762431Y-33959253D02*
X8771955Y-33940205D01*
X8771955Y-33940205D02*
X8791002Y-33930682D01*
X8791002Y-33930682D02*
X8829098Y-33930682D01*
X8829098Y-33930682D02*
X8848145Y-33940205D01*
X8848145Y-33940205D02*
X8857669Y-33959253D01*
X8857669Y-33959253D02*
X8857669Y-33978301D01*
X8857669Y-33978301D02*
X8762431Y-33997348D01*
X8933859Y-34054491D02*
X8952907Y-34064015D01*
X8952907Y-34064015D02*
X8991002Y-34064015D01*
X8991002Y-34064015D02*
X9010050Y-34054491D01*
X9010050Y-34054491D02*
X9019574Y-34035444D01*
X9019574Y-34035444D02*
X9019574Y-34025920D01*
X9019574Y-34025920D02*
X9010050Y-34006872D01*
X9010050Y-34006872D02*
X8991002Y-33997348D01*
X8991002Y-33997348D02*
X8962431Y-33997348D01*
X8962431Y-33997348D02*
X8943383Y-33987825D01*
X8943383Y-33987825D02*
X8933859Y-33968777D01*
X8933859Y-33968777D02*
X8933859Y-33959253D01*
X8933859Y-33959253D02*
X8943383Y-33940205D01*
X8943383Y-33940205D02*
X8962431Y-33930682D01*
X8962431Y-33930682D02*
X8991002Y-33930682D01*
X8991002Y-33930682D02*
X9010050Y-33940205D01*
X9086240Y-34140205D02*
X9095764Y-34130682D01*
X9095764Y-34130682D02*
X9114812Y-34102110D01*
X9114812Y-34102110D02*
X9124336Y-34083063D01*
X9124336Y-34083063D02*
X9133859Y-34054491D01*
X9133859Y-34054491D02*
X9143383Y-34006872D01*
X9143383Y-34006872D02*
X9143383Y-33968777D01*
X9143383Y-33968777D02*
X9133859Y-33921158D01*
X9133859Y-33921158D02*
X9124336Y-33892586D01*
X9124336Y-33892586D02*
X9114812Y-33873539D01*
X9114812Y-33873539D02*
X9095764Y-33844967D01*
X9095764Y-33844967D02*
X9086240Y-33835444D01*
X9448145Y-34140205D02*
X9438621Y-34130682D01*
X9438621Y-34130682D02*
X9419574Y-34102110D01*
X9419574Y-34102110D02*
X9410050Y-34083063D01*
X9410050Y-34083063D02*
X9400526Y-34054491D01*
X9400526Y-34054491D02*
X9391002Y-34006872D01*
X9391002Y-34006872D02*
X9391002Y-33968777D01*
X9391002Y-33968777D02*
X9400526Y-33921158D01*
X9400526Y-33921158D02*
X9410050Y-33892586D01*
X9410050Y-33892586D02*
X9419574Y-33873539D01*
X9419574Y-33873539D02*
X9438621Y-33844967D01*
X9438621Y-33844967D02*
X9448145Y-33835444D01*
X9524336Y-33930682D02*
X9524336Y-34064015D01*
X9524336Y-33949729D02*
X9533859Y-33940205D01*
X9533859Y-33940205D02*
X9552907Y-33930682D01*
X9552907Y-33930682D02*
X9581479Y-33930682D01*
X9581479Y-33930682D02*
X9600526Y-33940205D01*
X9600526Y-33940205D02*
X9610050Y-33959253D01*
X9610050Y-33959253D02*
X9610050Y-34064015D01*
X9733859Y-34064015D02*
X9714812Y-34054491D01*
X9714812Y-34054491D02*
X9705288Y-34044967D01*
X9705288Y-34044967D02*
X9695764Y-34025920D01*
X9695764Y-34025920D02*
X9695764Y-33968777D01*
X9695764Y-33968777D02*
X9705288Y-33949729D01*
X9705288Y-33949729D02*
X9714812Y-33940205D01*
X9714812Y-33940205D02*
X9733859Y-33930682D01*
X9733859Y-33930682D02*
X9762431Y-33930682D01*
X9762431Y-33930682D02*
X9781479Y-33940205D01*
X9781479Y-33940205D02*
X9791002Y-33949729D01*
X9791002Y-33949729D02*
X9800526Y-33968777D01*
X9800526Y-33968777D02*
X9800526Y-34025920D01*
X9800526Y-34025920D02*
X9791002Y-34044967D01*
X9791002Y-34044967D02*
X9781479Y-34054491D01*
X9781479Y-34054491D02*
X9762431Y-34064015D01*
X9762431Y-34064015D02*
X9733859Y-34064015D01*
X9857669Y-33930682D02*
X9933859Y-33930682D01*
X9886240Y-33864015D02*
X9886240Y-34035444D01*
X9886240Y-34035444D02*
X9895764Y-34054491D01*
X9895764Y-34054491D02*
X9914812Y-34064015D01*
X9914812Y-34064015D02*
X9933859Y-34064015D01*
X10152907Y-33930682D02*
X10152907Y-34130682D01*
X10152907Y-33940205D02*
X10171955Y-33930682D01*
X10171955Y-33930682D02*
X10210050Y-33930682D01*
X10210050Y-33930682D02*
X10229098Y-33940205D01*
X10229098Y-33940205D02*
X10238621Y-33949729D01*
X10238621Y-33949729D02*
X10248145Y-33968777D01*
X10248145Y-33968777D02*
X10248145Y-34025920D01*
X10248145Y-34025920D02*
X10238621Y-34044967D01*
X10238621Y-34044967D02*
X10229098Y-34054491D01*
X10229098Y-34054491D02*
X10210050Y-34064015D01*
X10210050Y-34064015D02*
X10171955Y-34064015D01*
X10171955Y-34064015D02*
X10152907Y-34054491D01*
X10362431Y-34064015D02*
X10343383Y-34054491D01*
X10343383Y-34054491D02*
X10333860Y-34035444D01*
X10333860Y-34035444D02*
X10333860Y-33864015D01*
X10524336Y-34064015D02*
X10524336Y-33959253D01*
X10524336Y-33959253D02*
X10514812Y-33940205D01*
X10514812Y-33940205D02*
X10495764Y-33930682D01*
X10495764Y-33930682D02*
X10457669Y-33930682D01*
X10457669Y-33930682D02*
X10438621Y-33940205D01*
X10524336Y-34054491D02*
X10505288Y-34064015D01*
X10505288Y-34064015D02*
X10457669Y-34064015D01*
X10457669Y-34064015D02*
X10438621Y-34054491D01*
X10438621Y-34054491D02*
X10429098Y-34035444D01*
X10429098Y-34035444D02*
X10429098Y-34016396D01*
X10429098Y-34016396D02*
X10438621Y-33997348D01*
X10438621Y-33997348D02*
X10457669Y-33987825D01*
X10457669Y-33987825D02*
X10505288Y-33987825D01*
X10505288Y-33987825D02*
X10524336Y-33978301D01*
X10591002Y-33930682D02*
X10667193Y-33930682D01*
X10619574Y-33864015D02*
X10619574Y-34035444D01*
X10619574Y-34035444D02*
X10629098Y-34054491D01*
X10629098Y-34054491D02*
X10648145Y-34064015D01*
X10648145Y-34064015D02*
X10667193Y-34064015D01*
X10810050Y-34054491D02*
X10791002Y-34064015D01*
X10791002Y-34064015D02*
X10752907Y-34064015D01*
X10752907Y-34064015D02*
X10733860Y-34054491D01*
X10733860Y-34054491D02*
X10724336Y-34035444D01*
X10724336Y-34035444D02*
X10724336Y-33959253D01*
X10724336Y-33959253D02*
X10733860Y-33940205D01*
X10733860Y-33940205D02*
X10752907Y-33930682D01*
X10752907Y-33930682D02*
X10791002Y-33930682D01*
X10791002Y-33930682D02*
X10810050Y-33940205D01*
X10810050Y-33940205D02*
X10819574Y-33959253D01*
X10819574Y-33959253D02*
X10819574Y-33978301D01*
X10819574Y-33978301D02*
X10724336Y-33997348D01*
X10991002Y-34064015D02*
X10991002Y-33864015D01*
X10991002Y-34054491D02*
X10971955Y-34064015D01*
X10971955Y-34064015D02*
X10933860Y-34064015D01*
X10933860Y-34064015D02*
X10914812Y-34054491D01*
X10914812Y-34054491D02*
X10905288Y-34044967D01*
X10905288Y-34044967D02*
X10895764Y-34025920D01*
X10895764Y-34025920D02*
X10895764Y-33968777D01*
X10895764Y-33968777D02*
X10905288Y-33949729D01*
X10905288Y-33949729D02*
X10914812Y-33940205D01*
X10914812Y-33940205D02*
X10933860Y-33930682D01*
X10933860Y-33930682D02*
X10971955Y-33930682D01*
X10971955Y-33930682D02*
X10991002Y-33940205D01*
X11067193Y-34140205D02*
X11076717Y-34130682D01*
X11076717Y-34130682D02*
X11095764Y-34102110D01*
X11095764Y-34102110D02*
X11105288Y-34083063D01*
X11105288Y-34083063D02*
X11114812Y-34054491D01*
X11114812Y-34054491D02*
X11124336Y-34006872D01*
X11124336Y-34006872D02*
X11124336Y-33968777D01*
X11124336Y-33968777D02*
X11114812Y-33921158D01*
X11114812Y-33921158D02*
X11105288Y-33892586D01*
X11105288Y-33892586D02*
X11095764Y-33873539D01*
X11095764Y-33873539D02*
X11076717Y-33844967D01*
X11076717Y-33844967D02*
X11067193Y-33835444D01*
M02*
