M48
; DRILL file {KiCad 8.0.7} date 2025-01-29T20:52:16+0000
; FORMAT={-:-/ absolute / inch / decimal}
; #@! TF.CreationDate,2025-01-29T20:52:16+00:00
; #@! TF.GenerationSoftware,Kicad,Pcbnew,8.0.7
; #@! TF.FileFunction,NonPlated,1,2,NPTH
FMAT,2
INCH
; #@! TA.AperFunction,NonPlated,NPTH,ComponentDrill
T1C0.0669
; #@! TA.AperFunction,NonPlated,NPTH,ComponentDrill
T2C0.1575
%
G90
G05
T1
X2.6726Y-11.4089
X2.6758Y-10.6549
X2.8596Y-9.1492
X3.053Y-9.9055
X3.0726Y-11.4089
X3.0758Y-10.6549
X3.2596Y-9.1492
X3.4289Y-10.6549
X3.453Y-9.9055
X3.6148Y-9.1492
X3.6148Y-11.4089
X3.8289Y-10.6549
X3.9929Y-8.4051
X3.9935Y-9.9055
X4.0148Y-9.1492
X4.0148Y-11.4089
X4.1762Y-10.6549
X4.3624Y-9.1492
X4.3929Y-8.4051
X4.3935Y-9.9055
X4.5492Y-11.4089
X4.5762Y-10.6549
X4.7382Y-9.9055
X4.7417Y-8.4031
X4.7624Y-9.1492
X4.9315Y-10.6549
X4.9492Y-11.4089
X5.1181Y-9.1492
X5.1382Y-9.9055
X5.1417Y-8.4031
X5.3037Y-11.4089
X5.3315Y-10.6549
X5.4884Y-8.4061
X5.4982Y-9.9055
X5.5181Y-9.1492
X5.6809Y-10.6549
X5.6872Y-12.1695
X5.7037Y-11.4089
X5.8697Y-9.1492
X5.8884Y-8.4061
X5.8982Y-9.9055
X6.0553Y-11.4089
X6.0809Y-10.6549
X6.0872Y-12.1695
X6.2421Y-8.4012
X6.2451Y-9.9055
X6.2697Y-9.1492
X6.4333Y-10.6549
X6.4553Y-11.4089
X6.615Y-9.1492
X6.6421Y-8.4012
X6.6451Y-9.9055
X6.8047Y-11.4089
X6.8333Y-10.6549
X7.0Y-8.4031
X7.0002Y-9.9055
X7.015Y-9.1492
X7.1848Y-10.6549
X7.2047Y-11.4089
X7.3713Y-9.1492
X7.4Y-8.4031
X7.4002Y-9.9055
X7.5571Y-11.4089
X7.5848Y-10.6549
X7.7449Y-8.4043
X7.751Y-9.9055
X7.7713Y-9.1492
X7.9278Y-10.6549
X7.9313Y-12.1695
X7.9571Y-11.4089
X8.1183Y-9.1492
X8.1449Y-8.4043
X8.151Y-9.9055
X8.3065Y-11.4089
X8.3278Y-10.6549
X8.3313Y-12.1695
X8.4945Y-8.3949
X8.4978Y-9.9055
X8.5183Y-9.1492
X8.6821Y-10.6549
X8.7065Y-11.4089
X8.8717Y-9.1492
X8.8945Y-8.3949
X8.8978Y-9.9055
X9.0606Y-11.4089
X9.0821Y-10.6549
X9.247Y-9.9055
X9.248Y-8.3965
X9.2717Y-9.1492
X9.4362Y-10.6549
X9.4606Y-11.4089
X9.6203Y-9.1492
X9.647Y-9.9055
X9.648Y-8.3965
X9.8104Y-11.4089
X9.8362Y-10.6549
X9.9937Y-8.3949
X9.9972Y-9.9055
X10.0203Y-9.1492
X10.1754Y-12.1695
X10.1892Y-10.6549
X10.2104Y-11.4089
X10.375Y-9.1492
X10.3937Y-8.3949
X10.3972Y-9.9055
X10.5628Y-11.4089
X10.5754Y-12.1695
X10.5892Y-10.6549
X10.7449Y-8.3949
X10.7533Y-9.9055
X10.775Y-9.1492
X10.9352Y-10.6549
X10.9628Y-11.4089
X11.1205Y-9.1492
X11.1449Y-8.3949
X11.1533Y-9.9055
X11.314Y-11.4089
X11.3352Y-10.6549
X11.5018Y-9.9055
X11.5205Y-9.1492
X11.69Y-10.6549
X11.714Y-11.4089
X11.8843Y-9.1492
X11.9018Y-9.9055
X12.09Y-10.6549
X12.2484Y-11.4089
X12.2512Y-8.4039
X12.2516Y-9.9055
X12.2843Y-9.1492
X12.4384Y-10.6549
X12.6276Y-9.1492
X12.6484Y-11.4089
X12.6512Y-8.4039
X12.6516Y-9.9055
X12.8384Y-10.6549
X13.0016Y-9.9055
X13.0276Y-9.1492
X13.185Y-11.4089
X13.3827Y-9.1492
X13.4016Y-9.9055
X13.5628Y-10.6549
X13.585Y-11.4089
X13.7587Y-8.4035
X13.7589Y-9.9055
X13.7827Y-9.1492
X13.9358Y-11.4089
X13.9628Y-10.6549
X14.1264Y-9.1492
X14.1587Y-8.4035
X14.1589Y-9.9055
X14.3358Y-11.4089
X14.5264Y-9.1492
X15.1896Y-9.1492
X15.1896Y-11.4089
X15.19Y-10.6549
X15.1904Y-8.3994
X15.1919Y-9.9055
X15.5896Y-9.1492
X15.5896Y-11.4089
X15.59Y-10.6549
X15.5904Y-8.3994
X15.5919Y-9.9055
X15.935Y-8.4004
X15.938Y-9.9055
X15.938Y-10.6549
X15.938Y-11.4089
X15.9417Y-9.1492
X16.335Y-8.4004
X16.338Y-9.9055
X16.338Y-10.6549
X16.338Y-11.4089
X16.3417Y-9.1492
X16.6876Y-8.4014
X16.6927Y-10.6549
X16.6947Y-9.9055
X16.6957Y-9.1492
X17.0707Y-11.4089
X17.0876Y-8.4014
X17.0927Y-10.6549
X17.0947Y-9.9055
X17.0957Y-9.1492
X17.4421Y-9.9055
X17.4427Y-8.4061
X17.4437Y-10.6549
X17.4469Y-9.1492
X17.4707Y-11.4089
X17.8421Y-9.9055
X17.8427Y-8.4061
X17.8437Y-10.6549
X17.8469Y-9.1492
T2
X2.8726Y-11.4089
X2.8758Y-10.6549
X3.0596Y-9.1492
X3.253Y-9.9055
X3.6289Y-10.6549
X3.8148Y-9.1492
X3.8148Y-11.4089
X4.1929Y-8.4051
X4.1935Y-9.9055
X4.3762Y-10.6549
X4.5624Y-9.1492
X4.7492Y-11.4089
X4.9382Y-9.9055
X4.9417Y-8.4031
X5.1315Y-10.6549
X5.3181Y-9.1492
X5.5037Y-11.4089
X5.6884Y-8.4061
X5.6982Y-9.9055
X5.8809Y-10.6549
X5.8872Y-12.1695
X6.0697Y-9.1492
X6.2553Y-11.4089
X6.4421Y-8.4012
X6.4451Y-9.9055
X6.6333Y-10.6549
X6.815Y-9.1492
X7.0047Y-11.4089
X7.2Y-8.4031
X7.2002Y-9.9055
X7.3848Y-10.6549
X7.5713Y-9.1492
X7.7571Y-11.4089
X7.9449Y-8.4043
X7.951Y-9.9055
X8.1278Y-10.6549
X8.1313Y-12.1695
X8.3183Y-9.1492
X8.5065Y-11.4089
X8.6945Y-8.3949
X8.6978Y-9.9055
X8.8821Y-10.6549
X9.0717Y-9.1492
X9.2606Y-11.4089
X9.447Y-9.9055
X9.448Y-8.3965
X9.6362Y-10.6549
X9.8203Y-9.1492
X10.0104Y-11.4089
X10.1937Y-8.3949
X10.1972Y-9.9055
X10.3754Y-12.1695
X10.3892Y-10.6549
X10.575Y-9.1492
X10.7628Y-11.4089
X10.9449Y-8.3949
X10.9533Y-9.9055
X11.1352Y-10.6549
X11.3205Y-9.1492
X11.514Y-11.4089
X11.7018Y-9.9055
X11.89Y-10.6549
X12.0843Y-9.1492
X12.4484Y-11.4089
X12.4512Y-8.4039
X12.4516Y-9.9055
X12.6384Y-10.6549
X12.8276Y-9.1492
X13.2016Y-9.9055
X13.385Y-11.4089
X13.5827Y-9.1492
X13.7628Y-10.6549
X13.9587Y-8.4035
X13.9589Y-9.9055
X14.1358Y-11.4089
X14.3264Y-9.1492
X15.3896Y-9.1492
X15.3896Y-11.4089
X15.39Y-10.6549
X15.3904Y-8.3994
X15.3919Y-9.9055
X16.135Y-8.4004
X16.138Y-9.9055
X16.138Y-10.6549
X16.138Y-11.4089
X16.1417Y-9.1492
X16.8876Y-8.4014
X16.8927Y-10.6549
X16.8947Y-9.9055
X16.8957Y-9.1492
X17.2707Y-11.4089
X17.6421Y-9.9055
X17.6427Y-8.4061
X17.6437Y-10.6549
X17.6469Y-9.1492
M30
