%TF.GenerationSoftware,KiCad,Pcbnew,8.0.7*%
%TF.CreationDate,2025-01-29T20:52:19+00:00*%
%TF.ProjectId,Master-Keyboard_MX,4d617374-6572-42d4-9b65-79626f617264,rev?*%
%TF.SameCoordinates,Original*%
%TF.FileFunction,Soldermask,Bot*%
%TF.FilePolarity,Negative*%
%FSLAX46Y46*%
G04 Gerber Fmt 4.6, Leading zero omitted, Abs format (unit mm)*
G04 Created by KiCad (PCBNEW 8.0.7) date 2025-01-29 20:52:19*
%MOMM*%
%LPD*%
G01*
G04 APERTURE LIST*
%ADD10C,3.650000*%
%ADD11C,0.000000*%
%ADD12C,2.450000*%
%ADD13C,3.850000*%
%ADD14C,1.700000*%
%ADD15C,4.000000*%
%ADD16C,2.200000*%
%ADD17R,1.800000X1.800000*%
%ADD18C,1.800000*%
%ADD19O,1.700000X1.700000*%
%ADD20C,3.200000*%
G04 APERTURE END LIST*
D10*
X481775000Y-214800000D02*
G75*
G02*
X478125000Y-214800000I-1825000J0D01*
G01*
X478125000Y-214800000D02*
G75*
G02*
X481775000Y-214800000I1825000J0D01*
G01*
D11*
G36*
X56848421Y-192843700D02*
G01*
X56848421Y-192843700D01*
G75*
G02*
X65306847Y-192843700I4229213J0D01*
G01*
X65306847Y-196143700D01*
G75*
G02*
X56848421Y-196143700I-4229213J0D01*
G01*
X56848421Y-192843700D01*
G37*
D12*
X45700000Y-192550000D02*
G75*
G02*
X43250000Y-192550000I-1225000J0D01*
G01*
X43250000Y-192550000D02*
G75*
G02*
X45700000Y-192550000I1225000J0D01*
G01*
D13*
X472275000Y-325075000D02*
G75*
G02*
X468425000Y-325075000I-1925000J0D01*
G01*
X468425000Y-325075000D02*
G75*
G02*
X472275000Y-325075000I1925000J0D01*
G01*
D10*
X481775000Y-204800000D02*
G75*
G02*
X478125000Y-204800000I-1825000J0D01*
G01*
X478125000Y-204800000D02*
G75*
G02*
X481775000Y-204800000I1825000J0D01*
G01*
X129575000Y-193250000D02*
G75*
G02*
X125925000Y-193250000I-1825000J0D01*
G01*
X125925000Y-193250000D02*
G75*
G02*
X129575000Y-193250000I1825000J0D01*
G01*
D13*
X55000000Y-324950000D02*
G75*
G02*
X51150000Y-324950000I-1925000J0D01*
G01*
X51150000Y-324950000D02*
G75*
G02*
X55000000Y-324950000I1925000J0D01*
G01*
D10*
X481775000Y-224800000D02*
G75*
G02*
X478125000Y-224800000I-1825000J0D01*
G01*
X478125000Y-224800000D02*
G75*
G02*
X481775000Y-224800000I1825000J0D01*
G01*
D14*
%TO.C,SW60*%
X139655000Y-251600000D03*
D15*
X144735000Y-251600000D03*
D14*
X149815000Y-251600000D03*
D16*
X147275000Y-246520000D03*
X147855000Y-253590000D03*
X140925000Y-249060000D03*
X141625000Y-253590000D03*
%TD*%
D14*
%TO.C,SW55*%
X101435000Y-251600000D03*
D15*
X106515000Y-251600000D03*
D14*
X111595000Y-251600000D03*
D16*
X109055000Y-246520000D03*
X109635000Y-253590000D03*
X102705000Y-249060000D03*
X103405000Y-253590000D03*
%TD*%
D14*
%TO.C,SW45*%
X334900000Y-289785000D03*
D15*
X339980000Y-289785000D03*
D14*
X345060000Y-289785000D03*
D16*
X342520000Y-284705000D03*
X343100000Y-291775000D03*
X336170000Y-287245000D03*
X336870000Y-291775000D03*
%TD*%
D14*
%TO.C,SW1*%
X72635000Y-232390000D03*
D15*
X77715000Y-232390000D03*
D14*
X82795000Y-232390000D03*
D16*
X80255000Y-227310000D03*
X80835000Y-234380000D03*
X73905000Y-229850000D03*
X74605000Y-234380000D03*
%TD*%
D14*
%TO.C,SW41*%
X277755000Y-270635000D03*
D15*
X282835000Y-270635000D03*
D14*
X287915000Y-270635000D03*
D16*
X285375000Y-265555000D03*
X285955000Y-272625000D03*
X279025000Y-268095000D03*
X279725000Y-272625000D03*
%TD*%
D14*
%TO.C,SW90*%
X144455000Y-309105000D03*
D15*
X149535000Y-309105000D03*
D14*
X154615000Y-309105000D03*
D16*
X152075000Y-304025000D03*
X152655000Y-311095000D03*
X145725000Y-306565000D03*
X146425000Y-311095000D03*
%TD*%
D14*
%TO.C,SW82*%
X339920000Y-232390000D03*
D15*
X345000000Y-232390000D03*
D14*
X350080000Y-232390000D03*
D16*
X347540000Y-227310000D03*
X348120000Y-234380000D03*
X341190000Y-229850000D03*
X341890000Y-234380000D03*
%TD*%
D14*
%TO.C,SW88*%
X385815000Y-232390000D03*
D15*
X390895000Y-232390000D03*
D14*
X395975000Y-232390000D03*
D16*
X393435000Y-227310000D03*
X394015000Y-234380000D03*
X387085000Y-229850000D03*
X387785000Y-234380000D03*
%TD*%
D14*
%TO.C,SW14*%
X77545000Y-251600000D03*
D15*
X82625000Y-251600000D03*
D14*
X87705000Y-251600000D03*
D16*
X85165000Y-246520000D03*
X85745000Y-253590000D03*
X78815000Y-249060000D03*
X79515000Y-253590000D03*
%TD*%
D14*
%TO.C,SW36*%
X196875000Y-251600000D03*
D15*
X201955000Y-251600000D03*
D14*
X207035000Y-251600000D03*
D16*
X204495000Y-246520000D03*
X205075000Y-253590000D03*
X198145000Y-249060000D03*
X198845000Y-253590000D03*
%TD*%
D14*
%TO.C,SW30*%
X106075000Y-270635000D03*
D15*
X111155000Y-270635000D03*
D14*
X116235000Y-270635000D03*
D16*
X113695000Y-265555000D03*
X114275000Y-272625000D03*
X107345000Y-268095000D03*
X108045000Y-272625000D03*
%TD*%
D14*
%TO.C,SW87*%
X424070000Y-232390000D03*
D15*
X429150000Y-232390000D03*
D14*
X434230000Y-232390000D03*
D16*
X431690000Y-227310000D03*
X432270000Y-234380000D03*
X425340000Y-229850000D03*
X426040000Y-234380000D03*
%TD*%
D17*
%TO.C,D15*%
X71820000Y-210345000D03*
D18*
X74360000Y-210345000D03*
%TD*%
D14*
%TO.C,SW16*%
X201455000Y-309105000D03*
D15*
X206535000Y-309105000D03*
D14*
X211615000Y-309105000D03*
D16*
X209075000Y-304025000D03*
X209655000Y-311095000D03*
X202725000Y-306565000D03*
X203425000Y-311095000D03*
%TD*%
D14*
%TO.C,SW37*%
X210985000Y-289785000D03*
D15*
X216065000Y-289785000D03*
D14*
X221145000Y-289785000D03*
D16*
X218605000Y-284705000D03*
X219185000Y-291775000D03*
X212255000Y-287245000D03*
X212955000Y-291775000D03*
%TD*%
D14*
%TO.C,SW21*%
X268295000Y-289785000D03*
D15*
X273375000Y-289785000D03*
D14*
X278455000Y-289785000D03*
D16*
X275915000Y-284705000D03*
X276495000Y-291775000D03*
X269565000Y-287245000D03*
X270265000Y-291775000D03*
%TD*%
D14*
%TO.C,SW38*%
X220525000Y-270635000D03*
D15*
X225605000Y-270635000D03*
D14*
X230685000Y-270635000D03*
D16*
X228145000Y-265555000D03*
X228725000Y-272625000D03*
X221795000Y-268095000D03*
X222495000Y-272625000D03*
%TD*%
D14*
%TO.C,SW67*%
X177800000Y-213440000D03*
D15*
X182880000Y-213440000D03*
D14*
X187960000Y-213440000D03*
D16*
X185420000Y-208360000D03*
X186000000Y-215430000D03*
X179070000Y-210900000D03*
X179770000Y-215430000D03*
%TD*%
D14*
%TO.C,PL1*%
X190040000Y-197000000D03*
D19*
X192580000Y-197000000D03*
X195120000Y-197000000D03*
X197660000Y-197000000D03*
X200200000Y-197000000D03*
X202740000Y-197000000D03*
X205280000Y-197000000D03*
X207820000Y-197000000D03*
X210360000Y-197000000D03*
X212900000Y-197000000D03*
X215440000Y-197000000D03*
X217980000Y-197000000D03*
X220520000Y-197000000D03*
X223060000Y-197000000D03*
X225600000Y-197000000D03*
%TD*%
D14*
%TO.C,SW20*%
X249185000Y-289785000D03*
D15*
X254265000Y-289785000D03*
D14*
X259345000Y-289785000D03*
D16*
X256805000Y-284705000D03*
X257385000Y-291775000D03*
X250455000Y-287245000D03*
X251155000Y-291775000D03*
%TD*%
D14*
%TO.C,SW39*%
X258805000Y-270635000D03*
D15*
X263885000Y-270635000D03*
D14*
X268965000Y-270635000D03*
D16*
X266425000Y-265555000D03*
X267005000Y-272625000D03*
X260075000Y-268095000D03*
X260775000Y-272625000D03*
%TD*%
D14*
%TO.C,SW10*%
X358810000Y-232390000D03*
D15*
X363890000Y-232390000D03*
D14*
X368970000Y-232390000D03*
D16*
X366430000Y-227310000D03*
X367010000Y-234380000D03*
X360080000Y-229850000D03*
X360780000Y-234380000D03*
%TD*%
D14*
%TO.C,SW8*%
X272920000Y-213230000D03*
D15*
X278000000Y-213230000D03*
D14*
X283080000Y-213230000D03*
D16*
X280540000Y-208150000D03*
X281120000Y-215220000D03*
X274190000Y-210690000D03*
X274890000Y-215220000D03*
%TD*%
D14*
%TO.C,SW23*%
X353970000Y-289785000D03*
D15*
X359050000Y-289785000D03*
D14*
X364130000Y-289785000D03*
D16*
X361590000Y-284705000D03*
X362170000Y-291775000D03*
X355240000Y-287245000D03*
X355940000Y-291775000D03*
%TD*%
D14*
%TO.C,SW64*%
X168020000Y-232390000D03*
D15*
X173100000Y-232390000D03*
D14*
X178180000Y-232390000D03*
D16*
X175640000Y-227310000D03*
X176220000Y-234380000D03*
X169290000Y-229850000D03*
X169990000Y-234380000D03*
%TD*%
D14*
%TO.C,SW32*%
X134715000Y-289785000D03*
D15*
X139795000Y-289785000D03*
D14*
X144875000Y-289785000D03*
D16*
X142335000Y-284705000D03*
X142915000Y-291775000D03*
X135985000Y-287245000D03*
X136685000Y-291775000D03*
%TD*%
D14*
%TO.C,SW27*%
X67885000Y-289785000D03*
D15*
X72965000Y-289785000D03*
D14*
X78045000Y-289785000D03*
D16*
X75505000Y-284705000D03*
X76085000Y-291775000D03*
X69155000Y-287245000D03*
X69855000Y-291775000D03*
%TD*%
D14*
%TO.C,PL2*%
X230720000Y-197000000D03*
D19*
X233260000Y-197000000D03*
X235800000Y-197000000D03*
X238340000Y-197000000D03*
X240880000Y-197000000D03*
X243420000Y-197000000D03*
X245960000Y-197000000D03*
X248500000Y-197000000D03*
X251040000Y-197000000D03*
X253580000Y-197000000D03*
X256120000Y-197000000D03*
X258660000Y-197000000D03*
X261200000Y-197000000D03*
X263740000Y-197000000D03*
X266280000Y-197000000D03*
%TD*%
D14*
%TO.C,SW75*%
X263525000Y-232390000D03*
D15*
X268605000Y-232390000D03*
D14*
X273685000Y-232390000D03*
D16*
X271145000Y-227310000D03*
X271725000Y-234380000D03*
X264795000Y-229850000D03*
X265495000Y-234380000D03*
%TD*%
D14*
%TO.C,SW26*%
X423995000Y-270635000D03*
D15*
X429075000Y-270635000D03*
D14*
X434155000Y-270635000D03*
D16*
X431615000Y-265555000D03*
X432195000Y-272625000D03*
X425265000Y-268095000D03*
X425965000Y-272625000D03*
%TD*%
D14*
%TO.C,SW69*%
X234875000Y-251600000D03*
D15*
X239955000Y-251600000D03*
D14*
X245035000Y-251600000D03*
D16*
X242495000Y-246520000D03*
X243075000Y-253590000D03*
X236145000Y-249060000D03*
X236845000Y-253590000D03*
%TD*%
D14*
%TO.C,SW58*%
X130000000Y-232390000D03*
D15*
X135080000Y-232390000D03*
D14*
X140160000Y-232390000D03*
D16*
X137620000Y-227310000D03*
X138200000Y-234380000D03*
X131270000Y-229850000D03*
X131970000Y-234380000D03*
%TD*%
D17*
%TO.C,D17*%
X56500000Y-210345000D03*
D18*
X59040000Y-210345000D03*
%TD*%
D14*
%TO.C,SW79*%
X301860000Y-232390000D03*
D15*
X306940000Y-232390000D03*
D14*
X312020000Y-232390000D03*
D16*
X309480000Y-227310000D03*
X310060000Y-234380000D03*
X303130000Y-229850000D03*
X303830000Y-234380000D03*
%TD*%
D14*
%TO.C,SW76*%
X282460000Y-232390000D03*
D15*
X287540000Y-232390000D03*
D14*
X292620000Y-232390000D03*
D16*
X290080000Y-227310000D03*
X290660000Y-234380000D03*
X283730000Y-229850000D03*
X284430000Y-234380000D03*
%TD*%
D14*
%TO.C,SW63*%
X177805000Y-251600000D03*
D15*
X182885000Y-251600000D03*
D14*
X187965000Y-251600000D03*
D16*
X185425000Y-246520000D03*
X186005000Y-253590000D03*
X179075000Y-249060000D03*
X179775000Y-253590000D03*
%TD*%
D14*
%TO.C,SW40*%
X239680000Y-270635000D03*
D15*
X244760000Y-270635000D03*
D14*
X249840000Y-270635000D03*
D16*
X247300000Y-265555000D03*
X247880000Y-272625000D03*
X240950000Y-268095000D03*
X241650000Y-272625000D03*
%TD*%
D14*
%TO.C,SW68*%
X215845000Y-251600000D03*
D15*
X220925000Y-251600000D03*
D14*
X226005000Y-251600000D03*
D16*
X223465000Y-246520000D03*
X224045000Y-253590000D03*
X217115000Y-249060000D03*
X217815000Y-253590000D03*
%TD*%
D14*
%TO.C,SW54*%
X101420000Y-213490000D03*
D15*
X106500000Y-213490000D03*
D14*
X111580000Y-213490000D03*
D16*
X109040000Y-208410000D03*
X109620000Y-215480000D03*
X102690000Y-210950000D03*
X103390000Y-215480000D03*
%TD*%
D14*
%TO.C,SW3*%
X139405000Y-213515000D03*
D15*
X144485000Y-213515000D03*
D14*
X149565000Y-213515000D03*
D16*
X147025000Y-208435000D03*
X147605000Y-215505000D03*
X140675000Y-210975000D03*
X141375000Y-215505000D03*
%TD*%
D14*
%TO.C,SW89*%
X433595000Y-289785000D03*
D15*
X438675000Y-289785000D03*
D14*
X443755000Y-289785000D03*
D16*
X441215000Y-284705000D03*
X441795000Y-291775000D03*
X434865000Y-287245000D03*
X435565000Y-291775000D03*
%TD*%
D14*
%TO.C,SW50*%
X443030000Y-251600000D03*
D15*
X448110000Y-251600000D03*
D14*
X453190000Y-251600000D03*
D16*
X450650000Y-246520000D03*
X451230000Y-253590000D03*
X444300000Y-249060000D03*
X445000000Y-253590000D03*
%TD*%
D14*
%TO.C,SW13*%
X404825000Y-270635000D03*
D15*
X409905000Y-270635000D03*
D14*
X414985000Y-270635000D03*
D16*
X412445000Y-265555000D03*
X413025000Y-272625000D03*
X406095000Y-268095000D03*
X406795000Y-272625000D03*
%TD*%
D14*
%TO.C,SW28*%
X67965000Y-270635000D03*
D15*
X73045000Y-270635000D03*
D14*
X78125000Y-270635000D03*
D16*
X75585000Y-265555000D03*
X76165000Y-272625000D03*
X69235000Y-268095000D03*
X69935000Y-272625000D03*
%TD*%
D14*
%TO.C,SW9*%
X320740000Y-232390000D03*
D15*
X325820000Y-232390000D03*
D14*
X330900000Y-232390000D03*
D16*
X328360000Y-227310000D03*
X328940000Y-234380000D03*
X322010000Y-229850000D03*
X322710000Y-234380000D03*
%TD*%
D14*
%TO.C,SW24*%
X385815000Y-289785000D03*
D15*
X390895000Y-289785000D03*
D14*
X395975000Y-289785000D03*
D16*
X393435000Y-284705000D03*
X394015000Y-291775000D03*
X387085000Y-287245000D03*
X387785000Y-291775000D03*
%TD*%
D14*
%TO.C,SW78*%
X330240000Y-251600000D03*
D15*
X335320000Y-251600000D03*
D14*
X340400000Y-251600000D03*
D16*
X337860000Y-246520000D03*
X338440000Y-253590000D03*
X331510000Y-249060000D03*
X332210000Y-253590000D03*
%TD*%
D14*
%TO.C,SW62*%
X158625000Y-251600000D03*
D15*
X163705000Y-251600000D03*
D14*
X168785000Y-251600000D03*
D16*
X166245000Y-246520000D03*
X166825000Y-253590000D03*
X159895000Y-249060000D03*
X160595000Y-253590000D03*
%TD*%
D17*
%TO.C,D16*%
X87010000Y-210345000D03*
D18*
X89550000Y-210345000D03*
%TD*%
D14*
%TO.C,SW49*%
X443045000Y-213515000D03*
D15*
X448125000Y-213515000D03*
D14*
X453205000Y-213515000D03*
D16*
X450665000Y-208435000D03*
X451245000Y-215505000D03*
X444315000Y-210975000D03*
X445015000Y-215505000D03*
%TD*%
D14*
%TO.C,SW43*%
X315935000Y-270635000D03*
D15*
X321015000Y-270635000D03*
D14*
X326095000Y-270635000D03*
D16*
X323555000Y-265555000D03*
X324135000Y-272625000D03*
X317205000Y-268095000D03*
X317905000Y-272625000D03*
%TD*%
D20*
%TO.C,BT1*%
X482260000Y-233020000D03*
X482260000Y-243020000D03*
X463760000Y-238020000D03*
%TD*%
D14*
%TO.C,SW29*%
X125260000Y-270635000D03*
D15*
X130340000Y-270635000D03*
D14*
X135420000Y-270635000D03*
D16*
X132880000Y-265555000D03*
X133460000Y-272625000D03*
X126530000Y-268095000D03*
X127230000Y-272625000D03*
%TD*%
D14*
%TO.C,SW2*%
X120440000Y-213440000D03*
D15*
X125520000Y-213440000D03*
D14*
X130600000Y-213440000D03*
D16*
X128060000Y-208360000D03*
X128640000Y-215430000D03*
X121710000Y-210900000D03*
X122410000Y-215430000D03*
%TD*%
D14*
%TO.C,SW71*%
X253930000Y-251600000D03*
D15*
X259010000Y-251600000D03*
D14*
X264090000Y-251600000D03*
D16*
X261550000Y-246520000D03*
X262130000Y-253590000D03*
X255200000Y-249060000D03*
X255900000Y-253590000D03*
%TD*%
D14*
%TO.C,SW7*%
X253840000Y-213230000D03*
D15*
X258920000Y-213230000D03*
D14*
X264000000Y-213230000D03*
D16*
X261460000Y-208150000D03*
X262040000Y-215220000D03*
X255110000Y-210690000D03*
X255810000Y-215220000D03*
%TD*%
D14*
%TO.C,SW80*%
X349470000Y-213450000D03*
D15*
X354550000Y-213450000D03*
D14*
X359630000Y-213450000D03*
D16*
X357090000Y-208370000D03*
X357670000Y-215440000D03*
X350740000Y-210910000D03*
X351440000Y-215440000D03*
%TD*%
D14*
%TO.C,SW46*%
X344495000Y-270635000D03*
D15*
X349575000Y-270635000D03*
D14*
X354655000Y-270635000D03*
D16*
X352115000Y-265555000D03*
X352695000Y-272625000D03*
X345765000Y-268095000D03*
X346465000Y-272625000D03*
%TD*%
D14*
%TO.C,SW4*%
X158550000Y-213390000D03*
D15*
X163630000Y-213390000D03*
D14*
X168710000Y-213390000D03*
D16*
X166170000Y-208310000D03*
X166750000Y-215380000D03*
X159820000Y-210850000D03*
X160520000Y-215380000D03*
%TD*%
D14*
%TO.C,SW92*%
X91815000Y-289785000D03*
D15*
X96895000Y-289785000D03*
D14*
X101975000Y-289785000D03*
D16*
X99435000Y-284705000D03*
X100015000Y-291775000D03*
X93085000Y-287245000D03*
X93785000Y-291775000D03*
%TD*%
D14*
%TO.C,SW12*%
X404825000Y-251600000D03*
D15*
X409905000Y-251600000D03*
D14*
X414985000Y-251600000D03*
D16*
X412445000Y-246520000D03*
X413025000Y-253590000D03*
X406095000Y-249060000D03*
X406795000Y-253590000D03*
%TD*%
D14*
%TO.C,SW25*%
X385825000Y-270635000D03*
D15*
X390905000Y-270635000D03*
D14*
X395985000Y-270635000D03*
D16*
X393445000Y-265555000D03*
X394025000Y-272625000D03*
X387095000Y-268095000D03*
X387795000Y-272625000D03*
%TD*%
D14*
%TO.C,SW51*%
X443070000Y-270635000D03*
D15*
X448150000Y-270635000D03*
D14*
X453230000Y-270635000D03*
D16*
X450690000Y-265555000D03*
X451270000Y-272625000D03*
X444340000Y-268095000D03*
X445040000Y-272625000D03*
%TD*%
D14*
%TO.C,SW61*%
X149090000Y-232390000D03*
D15*
X154170000Y-232390000D03*
D14*
X159250000Y-232390000D03*
D16*
X156710000Y-227310000D03*
X157290000Y-234380000D03*
X150360000Y-229850000D03*
X151060000Y-234380000D03*
%TD*%
D14*
%TO.C,SW22*%
X287375000Y-289785000D03*
D15*
X292455000Y-289785000D03*
D14*
X297535000Y-289785000D03*
D16*
X294995000Y-284705000D03*
X295575000Y-291775000D03*
X288645000Y-287245000D03*
X289345000Y-291775000D03*
%TD*%
D14*
%TO.C,SW33*%
X182495000Y-270635000D03*
D15*
X187575000Y-270635000D03*
D14*
X192655000Y-270635000D03*
D16*
X190115000Y-265555000D03*
X190695000Y-272625000D03*
X183765000Y-268095000D03*
X184465000Y-272625000D03*
%TD*%
D14*
%TO.C,SW34*%
X163405000Y-270635000D03*
D15*
X168485000Y-270635000D03*
D14*
X173565000Y-270635000D03*
D16*
X171025000Y-265555000D03*
X171605000Y-272625000D03*
X164675000Y-268095000D03*
X165375000Y-272625000D03*
%TD*%
D14*
%TO.C,SW70*%
X225340000Y-232390000D03*
D15*
X230420000Y-232390000D03*
D14*
X235500000Y-232390000D03*
D16*
X232960000Y-227310000D03*
X233540000Y-234380000D03*
X226610000Y-229850000D03*
X227310000Y-234380000D03*
%TD*%
D14*
%TO.C,SW31*%
X153805000Y-289785000D03*
D15*
X158885000Y-289785000D03*
D14*
X163965000Y-289785000D03*
D16*
X161425000Y-284705000D03*
X162005000Y-291775000D03*
X155075000Y-287245000D03*
X155775000Y-291775000D03*
%TD*%
D14*
%TO.C,SW15*%
X115550000Y-289785000D03*
D15*
X120630000Y-289785000D03*
D14*
X125710000Y-289785000D03*
D16*
X123170000Y-284705000D03*
X123750000Y-291775000D03*
X116820000Y-287245000D03*
X117520000Y-291775000D03*
%TD*%
D14*
%TO.C,SW48*%
X423865000Y-213395000D03*
D15*
X428945000Y-213395000D03*
D14*
X434025000Y-213395000D03*
D16*
X431485000Y-208315000D03*
X432065000Y-215385000D03*
X425135000Y-210855000D03*
X425835000Y-215385000D03*
%TD*%
D14*
%TO.C,SW18*%
X191950000Y-289785000D03*
D15*
X197030000Y-289785000D03*
D14*
X202110000Y-289785000D03*
D16*
X199570000Y-284705000D03*
X200150000Y-291775000D03*
X193220000Y-287245000D03*
X193920000Y-291775000D03*
%TD*%
D14*
%TO.C,SW42*%
X292145000Y-251600000D03*
D15*
X297225000Y-251600000D03*
D14*
X302305000Y-251600000D03*
D16*
X299765000Y-246520000D03*
X300345000Y-253590000D03*
X293415000Y-249060000D03*
X294115000Y-253590000D03*
%TD*%
D14*
%TO.C,SW5*%
X196720000Y-213470000D03*
D15*
X201800000Y-213470000D03*
D14*
X206880000Y-213470000D03*
D16*
X204340000Y-208390000D03*
X204920000Y-215460000D03*
X197990000Y-210930000D03*
X198690000Y-215460000D03*
%TD*%
D14*
%TO.C,SW11*%
X385875000Y-251600000D03*
D15*
X390955000Y-251600000D03*
D14*
X396035000Y-251600000D03*
D16*
X393495000Y-246520000D03*
X394075000Y-253590000D03*
X387145000Y-249060000D03*
X387845000Y-253590000D03*
%TD*%
D14*
%TO.C,SW86*%
X404750000Y-213370000D03*
D15*
X409830000Y-213370000D03*
D14*
X414910000Y-213370000D03*
D16*
X412370000Y-208290000D03*
X412950000Y-215360000D03*
X406020000Y-210830000D03*
X406720000Y-215360000D03*
%TD*%
D14*
%TO.C,SW72*%
X244355000Y-232390000D03*
D15*
X249435000Y-232390000D03*
D14*
X254515000Y-232390000D03*
D16*
X251975000Y-227310000D03*
X252555000Y-234380000D03*
X245625000Y-229850000D03*
X246325000Y-234380000D03*
%TD*%
D14*
%TO.C,SW66*%
X206205000Y-232390000D03*
D15*
X211285000Y-232390000D03*
D14*
X216365000Y-232390000D03*
D16*
X213825000Y-227310000D03*
X214405000Y-234380000D03*
X207475000Y-229850000D03*
X208175000Y-234380000D03*
%TD*%
D14*
%TO.C,SW47*%
X443150000Y-232390000D03*
D15*
X448230000Y-232390000D03*
D14*
X453310000Y-232390000D03*
D16*
X450770000Y-227310000D03*
X451350000Y-234380000D03*
X444420000Y-229850000D03*
X445120000Y-234380000D03*
%TD*%
D14*
%TO.C,SW17*%
X172840000Y-289785000D03*
D15*
X177920000Y-289785000D03*
D14*
X183000000Y-289785000D03*
D16*
X180460000Y-284705000D03*
X181040000Y-291775000D03*
X174110000Y-287245000D03*
X174810000Y-291775000D03*
%TD*%
D14*
%TO.C,SW44*%
X296925000Y-270635000D03*
D15*
X302005000Y-270635000D03*
D14*
X307085000Y-270635000D03*
D16*
X304545000Y-265555000D03*
X305125000Y-272625000D03*
X298195000Y-268095000D03*
X298895000Y-272625000D03*
%TD*%
D14*
%TO.C,SW95*%
X311180000Y-213460000D03*
D15*
X316260000Y-213460000D03*
D14*
X321340000Y-213460000D03*
D16*
X318800000Y-208380000D03*
X319380000Y-215450000D03*
X312450000Y-210920000D03*
X313150000Y-215450000D03*
%TD*%
D14*
%TO.C,SW81*%
X349475000Y-251600000D03*
D15*
X354555000Y-251600000D03*
D14*
X359635000Y-251600000D03*
D16*
X357095000Y-246520000D03*
X357675000Y-253590000D03*
X350745000Y-249060000D03*
X351445000Y-253590000D03*
%TD*%
D14*
%TO.C,SW53*%
X91815000Y-232390000D03*
D15*
X96895000Y-232390000D03*
D14*
X101975000Y-232390000D03*
D16*
X99435000Y-227310000D03*
X100015000Y-234380000D03*
X93085000Y-229850000D03*
X93785000Y-234380000D03*
%TD*%
D14*
%TO.C,SW52*%
X404825000Y-289785000D03*
D15*
X409905000Y-289785000D03*
D14*
X414985000Y-289785000D03*
D16*
X412445000Y-284705000D03*
X413025000Y-291775000D03*
X406095000Y-287245000D03*
X406795000Y-291775000D03*
%TD*%
D14*
%TO.C,SW73*%
X234900000Y-213270000D03*
D15*
X239980000Y-213270000D03*
D14*
X245060000Y-213270000D03*
D16*
X242520000Y-208190000D03*
X243100000Y-215260000D03*
X236170000Y-210730000D03*
X236870000Y-215260000D03*
%TD*%
D14*
%TO.C,SW59*%
X144295000Y-270635000D03*
D15*
X149375000Y-270635000D03*
D14*
X154455000Y-270635000D03*
D16*
X151915000Y-265555000D03*
X152495000Y-272625000D03*
X145565000Y-268095000D03*
X146265000Y-272625000D03*
%TD*%
D14*
%TO.C,SW85*%
X424045000Y-251600000D03*
D15*
X429125000Y-251600000D03*
D14*
X434205000Y-251600000D03*
D16*
X431665000Y-246520000D03*
X432245000Y-253590000D03*
X425315000Y-249060000D03*
X426015000Y-253590000D03*
%TD*%
D14*
%TO.C,SW94*%
X311110000Y-289785000D03*
D15*
X316190000Y-289785000D03*
D14*
X321270000Y-289785000D03*
D16*
X318730000Y-284705000D03*
X319310000Y-291775000D03*
X312380000Y-287245000D03*
X313080000Y-291775000D03*
%TD*%
D14*
%TO.C,SW93*%
X87095000Y-270635000D03*
D15*
X92175000Y-270635000D03*
D14*
X97255000Y-270635000D03*
D16*
X94715000Y-265555000D03*
X95295000Y-272625000D03*
X88365000Y-268095000D03*
X89065000Y-272625000D03*
%TD*%
D14*
%TO.C,SW77*%
X311190000Y-251600000D03*
D15*
X316270000Y-251600000D03*
D14*
X321350000Y-251600000D03*
D16*
X318810000Y-246520000D03*
X319390000Y-253590000D03*
X312460000Y-249060000D03*
X313160000Y-253590000D03*
%TD*%
D14*
%TO.C,SW35*%
X201365000Y-270635000D03*
D15*
X206445000Y-270635000D03*
D14*
X211525000Y-270635000D03*
D16*
X208985000Y-265555000D03*
X209565000Y-272625000D03*
X202635000Y-268095000D03*
X203335000Y-272625000D03*
%TD*%
D14*
%TO.C,SW83*%
X385835000Y-213345000D03*
D15*
X390915000Y-213345000D03*
D14*
X395995000Y-213345000D03*
D16*
X393455000Y-208265000D03*
X394035000Y-215335000D03*
X387105000Y-210805000D03*
X387805000Y-215335000D03*
%TD*%
D14*
%TO.C,SW6*%
X215760000Y-213230000D03*
D15*
X220840000Y-213230000D03*
D14*
X225920000Y-213230000D03*
D16*
X223380000Y-208150000D03*
X223960000Y-215220000D03*
X217030000Y-210690000D03*
X217730000Y-215220000D03*
%TD*%
D14*
%TO.C,SW56*%
X110805000Y-232390000D03*
D15*
X115885000Y-232390000D03*
D14*
X120965000Y-232390000D03*
D16*
X118425000Y-227310000D03*
X119005000Y-234380000D03*
X112075000Y-229850000D03*
X112775000Y-234380000D03*
%TD*%
D14*
%TO.C,SW19*%
X230140000Y-289785000D03*
D15*
X235220000Y-289785000D03*
D14*
X240300000Y-289785000D03*
D16*
X237760000Y-284705000D03*
X238340000Y-291775000D03*
X231410000Y-287245000D03*
X232110000Y-291775000D03*
%TD*%
D14*
%TO.C,SW91*%
X258455000Y-309105000D03*
D15*
X263535000Y-309105000D03*
D14*
X268615000Y-309105000D03*
D16*
X266075000Y-304025000D03*
X266655000Y-311095000D03*
X259725000Y-306565000D03*
X260425000Y-311095000D03*
%TD*%
D14*
%TO.C,SW84*%
X404920000Y-232390000D03*
D15*
X410000000Y-232390000D03*
D14*
X415080000Y-232390000D03*
D16*
X412540000Y-227310000D03*
X413120000Y-234380000D03*
X406190000Y-229850000D03*
X406890000Y-234380000D03*
%TD*%
D14*
%TO.C,SW65*%
X187230000Y-232390000D03*
D15*
X192310000Y-232390000D03*
D14*
X197390000Y-232390000D03*
D16*
X194850000Y-227310000D03*
X195430000Y-234380000D03*
X188500000Y-229850000D03*
X189200000Y-234380000D03*
%TD*%
D14*
%TO.C,SW57*%
X120350000Y-251600000D03*
D15*
X125430000Y-251600000D03*
D14*
X130510000Y-251600000D03*
D16*
X127970000Y-246520000D03*
X128550000Y-253590000D03*
X121620000Y-249060000D03*
X122320000Y-253590000D03*
%TD*%
D14*
%TO.C,SW74*%
X273135000Y-251600000D03*
D15*
X278215000Y-251600000D03*
D14*
X283295000Y-251600000D03*
D16*
X280755000Y-246520000D03*
X281335000Y-253590000D03*
X274405000Y-249060000D03*
X275105000Y-253590000D03*
%TD*%
M02*
