%TF.GenerationSoftware,KiCad,Pcbnew,7.0.10*%
%TF.CreationDate,2024-06-09T02:47:35+01:00*%
%TF.ProjectId,Electron-PS2Slim,456c6563-7472-46f6-9e2d-505332536c69,rev?*%
%TF.SameCoordinates,Original*%
%TF.FileFunction,Drillmap*%
%TF.FilePolarity,Positive*%
%FSLAX45Y45*%
G04 Gerber Fmt 4.5, Leading zero omitted, Abs format (unit mm)*
G04 Created by KiCad (PCBNEW 7.0.10) date 2024-06-09 02:47:35*
%MOMM*%
%LPD*%
G01*
G04 APERTURE LIST*
%ADD10C,0.100000*%
%ADD11C,0.200000*%
%ADD12C,0.220000*%
G04 APERTURE END LIST*
D10*
X7992500Y-9907500D02*
X10395000Y-9907500D01*
X10395000Y-11565000D01*
X4300000Y-11565000D01*
X4300000Y-9907500D01*
X2282500Y-9907500D01*
X2282500Y-8205000D01*
X7992500Y-8205000D01*
X7992500Y-9907500D01*
D11*
D10*
X4254950Y-8730000D02*
X4294950Y-8770000D01*
X4294950Y-8730000D02*
X4254950Y-8770000D01*
X4255000Y-8889950D02*
X4295000Y-8929950D01*
X4295000Y-8889950D02*
X4255000Y-8929950D01*
X4275000Y-9777550D02*
X4315000Y-9817550D01*
X4315000Y-9777550D02*
X4275000Y-9817550D01*
X4386250Y-8480390D02*
X4426250Y-8520390D01*
X4426250Y-8480390D02*
X4386250Y-8520390D01*
X4540000Y-9568270D02*
X4580000Y-9608270D01*
X4580000Y-9568270D02*
X4540000Y-9608270D01*
X4691290Y-8650000D02*
X4731290Y-8690000D01*
X4731290Y-8650000D02*
X4691290Y-8690000D01*
X4698920Y-9101980D02*
X4738920Y-9141980D01*
X4738920Y-9101980D02*
X4698920Y-9141980D01*
X4765800Y-9417520D02*
X4805800Y-9457520D01*
X4805800Y-9417520D02*
X4765800Y-9457520D01*
X4901450Y-9415530D02*
X4941450Y-9455530D01*
X4941450Y-9415530D02*
X4901450Y-9455530D01*
X5101930Y-8715700D02*
X5141930Y-8755700D01*
X5141930Y-8715700D02*
X5101930Y-8755700D01*
X5102610Y-9132500D02*
X5142610Y-9172500D01*
X5142610Y-9132500D02*
X5102610Y-9172500D01*
X5102740Y-8919750D02*
X5142740Y-8959750D01*
X5142740Y-8919750D02*
X5102740Y-8959750D01*
X5187580Y-9312260D02*
X5227580Y-9352260D01*
X5227580Y-9312260D02*
X5187580Y-9352260D01*
X5389880Y-9015020D02*
X5429880Y-9055020D01*
X5429880Y-9015020D02*
X5389880Y-9055020D01*
X5403580Y-9448480D02*
X5443580Y-9488480D01*
X5443580Y-9448480D02*
X5403580Y-9488480D01*
X5721930Y-8296770D02*
X5761930Y-8336770D01*
X5761930Y-8296770D02*
X5721930Y-8336770D01*
X5773110Y-10115010D02*
X5813110Y-10155010D01*
X5813110Y-10115010D02*
X5773110Y-10155010D01*
X5775640Y-10014990D02*
X5815640Y-10054990D01*
X5815640Y-10014990D02*
X5775640Y-10054990D01*
X5876270Y-8381830D02*
X5916270Y-8421830D01*
X5916270Y-8381830D02*
X5876270Y-8421830D01*
X6100000Y-8725000D02*
X6140000Y-8765000D01*
X6140000Y-8725000D02*
X6100000Y-8765000D01*
X6240880Y-8862750D02*
X6280880Y-8902750D01*
X6280880Y-8862750D02*
X6240880Y-8902750D01*
X6260050Y-10068930D02*
X6300050Y-10108930D01*
X6300050Y-10068930D02*
X6260050Y-10108930D01*
X6378850Y-10784180D02*
X6418850Y-10824180D01*
X6418850Y-10784180D02*
X6378850Y-10824180D01*
X6407080Y-9854420D02*
X6447080Y-9894420D01*
X6447080Y-9854420D02*
X6407080Y-9894420D01*
X6410970Y-9561420D02*
X6450970Y-9601420D01*
X6450970Y-9561420D02*
X6410970Y-9601420D01*
X6505390Y-9335900D02*
X6545390Y-9375900D01*
X6545390Y-9335900D02*
X6505390Y-9375900D01*
X6559160Y-9857010D02*
X6599160Y-9897010D01*
X6599160Y-9857010D02*
X6559160Y-9897010D01*
X6608230Y-9558860D02*
X6648230Y-9598860D01*
X6648230Y-9558860D02*
X6608230Y-9598860D01*
X6648690Y-8989400D02*
X6688690Y-9029400D01*
X6688690Y-8989400D02*
X6648690Y-9029400D01*
X6700000Y-8647500D02*
X6740000Y-8687500D01*
X6740000Y-8647500D02*
X6700000Y-8687500D01*
X6840000Y-10129900D02*
X6880000Y-10169900D01*
X6880000Y-10129900D02*
X6840000Y-10169900D01*
X6885000Y-8712500D02*
X6925000Y-8752500D01*
X6925000Y-8712500D02*
X6885000Y-8752500D01*
X6892100Y-9411410D02*
X6932100Y-9451410D01*
X6932100Y-9411410D02*
X6892100Y-9451410D01*
X6992190Y-9240010D02*
X7032190Y-9280010D01*
X7032190Y-9240010D02*
X6992190Y-9280010D01*
X7030070Y-9752720D02*
X7070070Y-9792720D01*
X7070070Y-9752720D02*
X7030070Y-9792720D01*
X7031510Y-10130940D02*
X7071510Y-10170940D01*
X7071510Y-10130940D02*
X7031510Y-10170940D01*
X7091060Y-9341590D02*
X7131060Y-9381590D01*
X7131060Y-9341590D02*
X7091060Y-9381590D01*
X7108020Y-9182500D02*
X7148020Y-9222500D01*
X7148020Y-9182500D02*
X7108020Y-9222500D01*
X7131530Y-10184890D02*
X7171530Y-10224890D01*
X7171530Y-10184890D02*
X7131530Y-10224890D01*
X7144510Y-9854490D02*
X7184510Y-9894490D01*
X7184510Y-9854490D02*
X7144510Y-9894490D01*
X7157500Y-8712500D02*
X7197500Y-8752500D01*
X7197500Y-8712500D02*
X7157500Y-8752500D01*
X7262280Y-10062420D02*
X7302280Y-10102420D01*
X7302280Y-10062420D02*
X7262280Y-10102420D01*
X7293630Y-10164160D02*
X7333630Y-10204160D01*
X7333630Y-10164160D02*
X7293630Y-10204160D01*
X7595260Y-10134740D02*
X7635260Y-10174740D01*
X7635260Y-10134740D02*
X7595260Y-10174740D01*
X8208680Y-10432040D02*
X8248680Y-10472040D01*
X8248680Y-10432040D02*
X8208680Y-10472040D01*
X8381280Y-10442930D02*
X8421280Y-10482930D01*
X8421280Y-10442930D02*
X8381280Y-10482930D01*
X3190000Y-8715000D02*
G75*
G03*
X3110000Y-8715000I-40000J0D01*
G01*
X3110000Y-8715000D02*
G75*
G03*
X3190000Y-8715000I40000J0D01*
G01*
X3190000Y-8925000D02*
G75*
G03*
X3110000Y-8925000I-40000J0D01*
G01*
X3110000Y-8925000D02*
G75*
G03*
X3190000Y-8925000I40000J0D01*
G01*
X3190000Y-9185000D02*
G75*
G03*
X3110000Y-9185000I-40000J0D01*
G01*
X3110000Y-9185000D02*
G75*
G03*
X3190000Y-9185000I40000J0D01*
G01*
X3190000Y-9395000D02*
G75*
G03*
X3110000Y-9395000I-40000J0D01*
G01*
X3110000Y-9395000D02*
G75*
G03*
X3190000Y-9395000I40000J0D01*
G01*
X3470000Y-8715000D02*
G75*
G03*
X3390000Y-8715000I-40000J0D01*
G01*
X3390000Y-8715000D02*
G75*
G03*
X3470000Y-8715000I40000J0D01*
G01*
X3470000Y-9395000D02*
G75*
G03*
X3390000Y-9395000I-40000J0D01*
G01*
X3390000Y-9395000D02*
G75*
G03*
X3470000Y-9395000I40000J0D01*
G01*
X4002500Y-8557500D02*
G75*
G03*
X3922500Y-8557500I-40000J0D01*
G01*
X3922500Y-8557500D02*
G75*
G03*
X4002500Y-8557500I40000J0D01*
G01*
X4002500Y-9045500D02*
G75*
G03*
X3922500Y-9045500I-40000J0D01*
G01*
X3922500Y-9045500D02*
G75*
G03*
X4002500Y-9045500I40000J0D01*
G01*
X2785000Y-9005000D02*
X2785000Y-9105000D01*
X2735000Y-9055000D02*
X2835000Y-9055000D01*
X2835000Y-9155000D02*
X2835000Y-8955000D01*
X2835000Y-8955000D02*
G75*
G03*
X2735000Y-8955000I-50000J0D01*
G01*
X2735000Y-8955000D02*
X2735000Y-9155000D01*
X2735000Y-9155000D02*
G75*
G03*
X2835000Y-9155000I50000J0D01*
G01*
X2865000Y-8320000D02*
X2865000Y-8420000D01*
X2815000Y-8370000D02*
X2915000Y-8370000D01*
X2790000Y-8420000D02*
X2940000Y-8420000D01*
X2940000Y-8420000D02*
G75*
G03*
X2940000Y-8320000I0J50000D01*
G01*
X2940000Y-8320000D02*
X2790000Y-8320000D01*
X2790000Y-8320000D02*
G75*
G03*
X2790000Y-8420000I0J-50000D01*
G01*
X2865000Y-9690000D02*
X2865000Y-9790000D01*
X2815000Y-9740000D02*
X2915000Y-9740000D01*
X2790000Y-9790000D02*
X2940000Y-9790000D01*
X2940000Y-9790000D02*
G75*
G03*
X2940000Y-9690000I0J50000D01*
G01*
X2940000Y-9690000D02*
X2790000Y-9690000D01*
X2790000Y-9690000D02*
G75*
G03*
X2790000Y-9790000I0J-50000D01*
G01*
X4875500Y-10905000D02*
X4875500Y-11005000D01*
X4825500Y-10955000D02*
X4925500Y-10955000D01*
X4875500Y-11315000D02*
X4875500Y-11415000D01*
X4825500Y-11365000D02*
X4925500Y-11365000D01*
X5129500Y-10905000D02*
X5129500Y-11005000D01*
X5079500Y-10955000D02*
X5179500Y-10955000D01*
X5129500Y-11315000D02*
X5129500Y-11415000D01*
X5079500Y-11365000D02*
X5179500Y-11365000D01*
X5383500Y-10905000D02*
X5383500Y-11005000D01*
X5333500Y-10955000D02*
X5433500Y-10955000D01*
X5383500Y-11315000D02*
X5383500Y-11415000D01*
X5333500Y-11365000D02*
X5433500Y-11365000D01*
X5620000Y-8520000D02*
X5620000Y-8620000D01*
X5570000Y-8570000D02*
X5670000Y-8570000D01*
X5620000Y-8774000D02*
X5620000Y-8874000D01*
X5570000Y-8824000D02*
X5670000Y-8824000D01*
X5620000Y-9028000D02*
X5620000Y-9128000D01*
X5570000Y-9078000D02*
X5670000Y-9078000D01*
X5637500Y-10905000D02*
X5637500Y-11005000D01*
X5587500Y-10955000D02*
X5687500Y-10955000D01*
X5637500Y-11315000D02*
X5637500Y-11415000D01*
X5587500Y-11365000D02*
X5687500Y-11365000D01*
X5874000Y-8520000D02*
X5874000Y-8620000D01*
X5824000Y-8570000D02*
X5924000Y-8570000D01*
X5874000Y-8774000D02*
X5874000Y-8874000D01*
X5824000Y-8824000D02*
X5924000Y-8824000D01*
X5874000Y-9028000D02*
X5874000Y-9128000D01*
X5824000Y-9078000D02*
X5924000Y-9078000D01*
X5891500Y-10905000D02*
X5891500Y-11005000D01*
X5841500Y-10955000D02*
X5941500Y-10955000D01*
X5891500Y-11315000D02*
X5891500Y-11415000D01*
X5841500Y-11365000D02*
X5941500Y-11365000D01*
X6145500Y-10905000D02*
X6145500Y-11005000D01*
X6095500Y-10955000D02*
X6195500Y-10955000D01*
X6145500Y-11315000D02*
X6145500Y-11415000D01*
X6095500Y-11365000D02*
X6195500Y-11365000D01*
X6399500Y-10905000D02*
X6399500Y-11005000D01*
X6349500Y-10955000D02*
X6449500Y-10955000D01*
X6399500Y-11315000D02*
X6399500Y-11415000D01*
X6349500Y-11365000D02*
X6449500Y-11365000D01*
X6653500Y-10905000D02*
X6653500Y-11005000D01*
X6603500Y-10955000D02*
X6703500Y-10955000D01*
X6653500Y-11315000D02*
X6653500Y-11415000D01*
X6603500Y-11365000D02*
X6703500Y-11365000D01*
X6907500Y-10905000D02*
X6907500Y-11005000D01*
X6857500Y-10955000D02*
X6957500Y-10955000D01*
X6907500Y-11315000D02*
X6907500Y-11415000D01*
X6857500Y-11365000D02*
X6957500Y-11365000D01*
X7161500Y-10905000D02*
X7161500Y-11005000D01*
X7111500Y-10955000D02*
X7211500Y-10955000D01*
X7161500Y-11315000D02*
X7161500Y-11415000D01*
X7111500Y-11365000D02*
X7211500Y-11365000D01*
X7415500Y-10905000D02*
X7415500Y-11005000D01*
X7365500Y-10955000D02*
X7465500Y-10955000D01*
X7415500Y-11315000D02*
X7415500Y-11415000D01*
X7365500Y-11365000D02*
X7465500Y-11365000D01*
X7669500Y-10905000D02*
X7669500Y-11005000D01*
X7619500Y-10955000D02*
X7719500Y-10955000D01*
X7669500Y-11315000D02*
X7669500Y-11415000D01*
X7619500Y-11365000D02*
X7719500Y-11365000D01*
X7923500Y-10905000D02*
X7923500Y-11005000D01*
X7873500Y-10955000D02*
X7973500Y-10955000D01*
X7923500Y-11315000D02*
X7923500Y-11415000D01*
X7873500Y-11365000D02*
X7973500Y-11365000D01*
X8177500Y-10905000D02*
X8177500Y-11005000D01*
X8127500Y-10955000D02*
X8227500Y-10955000D01*
X8177500Y-11315000D02*
X8177500Y-11415000D01*
X8127500Y-11365000D02*
X8227500Y-11365000D01*
X8431500Y-10905000D02*
X8431500Y-11005000D01*
X8381500Y-10955000D02*
X8481500Y-10955000D01*
X8431500Y-11315000D02*
X8431500Y-11415000D01*
X8381500Y-11365000D02*
X8481500Y-11365000D01*
X8685500Y-10905000D02*
X8685500Y-11005000D01*
X8635500Y-10955000D02*
X8735500Y-10955000D01*
X8685500Y-11315000D02*
X8685500Y-11415000D01*
X8635500Y-11365000D02*
X8735500Y-11365000D01*
X8939500Y-10905000D02*
X8939500Y-11005000D01*
X8889500Y-10955000D02*
X8989500Y-10955000D01*
X8939500Y-11315000D02*
X8939500Y-11415000D01*
X8889500Y-11365000D02*
X8989500Y-11365000D01*
X9193500Y-10905000D02*
X9193500Y-11005000D01*
X9143500Y-10955000D02*
X9243500Y-10955000D01*
X9193500Y-11315000D02*
X9193500Y-11415000D01*
X9143500Y-11365000D02*
X9243500Y-11365000D01*
X9447500Y-10905000D02*
X9447500Y-11005000D01*
X9397500Y-10955000D02*
X9497500Y-10955000D01*
X9447500Y-11315000D02*
X9447500Y-11415000D01*
X9397500Y-11365000D02*
X9497500Y-11365000D01*
X9701500Y-10905000D02*
X9701500Y-11005000D01*
X9651500Y-10955000D02*
X9751500Y-10955000D01*
X9701500Y-11315000D02*
X9701500Y-11415000D01*
X9651500Y-11365000D02*
X9751500Y-11365000D01*
X9955500Y-10905000D02*
X9955500Y-11005000D01*
X9905500Y-10955000D02*
X10005500Y-10955000D01*
X9955500Y-11315000D02*
X9955500Y-11415000D01*
X9905500Y-11365000D02*
X10005500Y-11365000D01*
X10209500Y-10905000D02*
X10209500Y-11005000D01*
X10159500Y-10955000D02*
X10259500Y-10955000D01*
X10209500Y-11315000D02*
X10209500Y-11415000D01*
X10159500Y-11365000D02*
X10259500Y-11365000D01*
D12*
X3935282Y-9700283D02*
X3935282Y-9544718D01*
X3779717Y-9544718D01*
X3779717Y-9700283D01*
X3935282Y-9700283D01*
D11*
X2538277Y-11881484D02*
X2538277Y-11681484D01*
X2538277Y-11681484D02*
X2585896Y-11681484D01*
X2585896Y-11681484D02*
X2614467Y-11691008D01*
X2614467Y-11691008D02*
X2633515Y-11710055D01*
X2633515Y-11710055D02*
X2643039Y-11729103D01*
X2643039Y-11729103D02*
X2652563Y-11767198D01*
X2652563Y-11767198D02*
X2652563Y-11795769D01*
X2652563Y-11795769D02*
X2643039Y-11833865D01*
X2643039Y-11833865D02*
X2633515Y-11852912D01*
X2633515Y-11852912D02*
X2614467Y-11871960D01*
X2614467Y-11871960D02*
X2585896Y-11881484D01*
X2585896Y-11881484D02*
X2538277Y-11881484D01*
X2738277Y-11881484D02*
X2738277Y-11748150D01*
X2738277Y-11786246D02*
X2747801Y-11767198D01*
X2747801Y-11767198D02*
X2757324Y-11757674D01*
X2757324Y-11757674D02*
X2776372Y-11748150D01*
X2776372Y-11748150D02*
X2795420Y-11748150D01*
X2862086Y-11881484D02*
X2862086Y-11748150D01*
X2862086Y-11681484D02*
X2852562Y-11691008D01*
X2852562Y-11691008D02*
X2862086Y-11700531D01*
X2862086Y-11700531D02*
X2871610Y-11691008D01*
X2871610Y-11691008D02*
X2862086Y-11681484D01*
X2862086Y-11681484D02*
X2862086Y-11700531D01*
X2985896Y-11881484D02*
X2966848Y-11871960D01*
X2966848Y-11871960D02*
X2957324Y-11852912D01*
X2957324Y-11852912D02*
X2957324Y-11681484D01*
X3090658Y-11881484D02*
X3071610Y-11871960D01*
X3071610Y-11871960D02*
X3062086Y-11852912D01*
X3062086Y-11852912D02*
X3062086Y-11681484D01*
X3319229Y-11881484D02*
X3319229Y-11681484D01*
X3319229Y-11681484D02*
X3385896Y-11824341D01*
X3385896Y-11824341D02*
X3452562Y-11681484D01*
X3452562Y-11681484D02*
X3452562Y-11881484D01*
X3633515Y-11881484D02*
X3633515Y-11776722D01*
X3633515Y-11776722D02*
X3623991Y-11757674D01*
X3623991Y-11757674D02*
X3604943Y-11748150D01*
X3604943Y-11748150D02*
X3566848Y-11748150D01*
X3566848Y-11748150D02*
X3547801Y-11757674D01*
X3633515Y-11871960D02*
X3614467Y-11881484D01*
X3614467Y-11881484D02*
X3566848Y-11881484D01*
X3566848Y-11881484D02*
X3547801Y-11871960D01*
X3547801Y-11871960D02*
X3538277Y-11852912D01*
X3538277Y-11852912D02*
X3538277Y-11833865D01*
X3538277Y-11833865D02*
X3547801Y-11814817D01*
X3547801Y-11814817D02*
X3566848Y-11805293D01*
X3566848Y-11805293D02*
X3614467Y-11805293D01*
X3614467Y-11805293D02*
X3633515Y-11795769D01*
X3728753Y-11748150D02*
X3728753Y-11948150D01*
X3728753Y-11757674D02*
X3747801Y-11748150D01*
X3747801Y-11748150D02*
X3785896Y-11748150D01*
X3785896Y-11748150D02*
X3804943Y-11757674D01*
X3804943Y-11757674D02*
X3814467Y-11767198D01*
X3814467Y-11767198D02*
X3823991Y-11786246D01*
X3823991Y-11786246D02*
X3823991Y-11843388D01*
X3823991Y-11843388D02*
X3814467Y-11862436D01*
X3814467Y-11862436D02*
X3804943Y-11871960D01*
X3804943Y-11871960D02*
X3785896Y-11881484D01*
X3785896Y-11881484D02*
X3747801Y-11881484D01*
X3747801Y-11881484D02*
X3728753Y-11871960D01*
X3909705Y-11862436D02*
X3919229Y-11871960D01*
X3919229Y-11871960D02*
X3909705Y-11881484D01*
X3909705Y-11881484D02*
X3900182Y-11871960D01*
X3900182Y-11871960D02*
X3909705Y-11862436D01*
X3909705Y-11862436D02*
X3909705Y-11881484D01*
X3909705Y-11757674D02*
X3919229Y-11767198D01*
X3919229Y-11767198D02*
X3909705Y-11776722D01*
X3909705Y-11776722D02*
X3900182Y-11767198D01*
X3900182Y-11767198D02*
X3909705Y-11757674D01*
X3909705Y-11757674D02*
X3909705Y-11776722D01*
D10*
X2237500Y-12190000D02*
X2277500Y-12230000D01*
X2277500Y-12190000D02*
X2237500Y-12230000D01*
D11*
X2576372Y-12101484D02*
X2595420Y-12101484D01*
X2595420Y-12101484D02*
X2614467Y-12111008D01*
X2614467Y-12111008D02*
X2623991Y-12120531D01*
X2623991Y-12120531D02*
X2633515Y-12139579D01*
X2633515Y-12139579D02*
X2643039Y-12177674D01*
X2643039Y-12177674D02*
X2643039Y-12225293D01*
X2643039Y-12225293D02*
X2633515Y-12263388D01*
X2633515Y-12263388D02*
X2623991Y-12282436D01*
X2623991Y-12282436D02*
X2614467Y-12291960D01*
X2614467Y-12291960D02*
X2595420Y-12301484D01*
X2595420Y-12301484D02*
X2576372Y-12301484D01*
X2576372Y-12301484D02*
X2557324Y-12291960D01*
X2557324Y-12291960D02*
X2547801Y-12282436D01*
X2547801Y-12282436D02*
X2538277Y-12263388D01*
X2538277Y-12263388D02*
X2528753Y-12225293D01*
X2528753Y-12225293D02*
X2528753Y-12177674D01*
X2528753Y-12177674D02*
X2538277Y-12139579D01*
X2538277Y-12139579D02*
X2547801Y-12120531D01*
X2547801Y-12120531D02*
X2557324Y-12111008D01*
X2557324Y-12111008D02*
X2576372Y-12101484D01*
X2728753Y-12282436D02*
X2738277Y-12291960D01*
X2738277Y-12291960D02*
X2728753Y-12301484D01*
X2728753Y-12301484D02*
X2719229Y-12291960D01*
X2719229Y-12291960D02*
X2728753Y-12282436D01*
X2728753Y-12282436D02*
X2728753Y-12301484D01*
X2909705Y-12168150D02*
X2909705Y-12301484D01*
X2862086Y-12091960D02*
X2814467Y-12234817D01*
X2814467Y-12234817D02*
X2938277Y-12234817D01*
X3052562Y-12101484D02*
X3071610Y-12101484D01*
X3071610Y-12101484D02*
X3090658Y-12111008D01*
X3090658Y-12111008D02*
X3100182Y-12120531D01*
X3100182Y-12120531D02*
X3109705Y-12139579D01*
X3109705Y-12139579D02*
X3119229Y-12177674D01*
X3119229Y-12177674D02*
X3119229Y-12225293D01*
X3119229Y-12225293D02*
X3109705Y-12263388D01*
X3109705Y-12263388D02*
X3100182Y-12282436D01*
X3100182Y-12282436D02*
X3090658Y-12291960D01*
X3090658Y-12291960D02*
X3071610Y-12301484D01*
X3071610Y-12301484D02*
X3052562Y-12301484D01*
X3052562Y-12301484D02*
X3033515Y-12291960D01*
X3033515Y-12291960D02*
X3023991Y-12282436D01*
X3023991Y-12282436D02*
X3014467Y-12263388D01*
X3014467Y-12263388D02*
X3004943Y-12225293D01*
X3004943Y-12225293D02*
X3004943Y-12177674D01*
X3004943Y-12177674D02*
X3014467Y-12139579D01*
X3014467Y-12139579D02*
X3023991Y-12120531D01*
X3023991Y-12120531D02*
X3033515Y-12111008D01*
X3033515Y-12111008D02*
X3052562Y-12101484D01*
X3243039Y-12101484D02*
X3262086Y-12101484D01*
X3262086Y-12101484D02*
X3281134Y-12111008D01*
X3281134Y-12111008D02*
X3290658Y-12120531D01*
X3290658Y-12120531D02*
X3300182Y-12139579D01*
X3300182Y-12139579D02*
X3309705Y-12177674D01*
X3309705Y-12177674D02*
X3309705Y-12225293D01*
X3309705Y-12225293D02*
X3300182Y-12263388D01*
X3300182Y-12263388D02*
X3290658Y-12282436D01*
X3290658Y-12282436D02*
X3281134Y-12291960D01*
X3281134Y-12291960D02*
X3262086Y-12301484D01*
X3262086Y-12301484D02*
X3243039Y-12301484D01*
X3243039Y-12301484D02*
X3223991Y-12291960D01*
X3223991Y-12291960D02*
X3214467Y-12282436D01*
X3214467Y-12282436D02*
X3204943Y-12263388D01*
X3204943Y-12263388D02*
X3195420Y-12225293D01*
X3195420Y-12225293D02*
X3195420Y-12177674D01*
X3195420Y-12177674D02*
X3204943Y-12139579D01*
X3204943Y-12139579D02*
X3214467Y-12120531D01*
X3214467Y-12120531D02*
X3223991Y-12111008D01*
X3223991Y-12111008D02*
X3243039Y-12101484D01*
X3395420Y-12301484D02*
X3395420Y-12168150D01*
X3395420Y-12187198D02*
X3404943Y-12177674D01*
X3404943Y-12177674D02*
X3423991Y-12168150D01*
X3423991Y-12168150D02*
X3452563Y-12168150D01*
X3452563Y-12168150D02*
X3471610Y-12177674D01*
X3471610Y-12177674D02*
X3481134Y-12196722D01*
X3481134Y-12196722D02*
X3481134Y-12301484D01*
X3481134Y-12196722D02*
X3490658Y-12177674D01*
X3490658Y-12177674D02*
X3509705Y-12168150D01*
X3509705Y-12168150D02*
X3538277Y-12168150D01*
X3538277Y-12168150D02*
X3557324Y-12177674D01*
X3557324Y-12177674D02*
X3566848Y-12196722D01*
X3566848Y-12196722D02*
X3566848Y-12301484D01*
X3662086Y-12301484D02*
X3662086Y-12168150D01*
X3662086Y-12187198D02*
X3671610Y-12177674D01*
X3671610Y-12177674D02*
X3690658Y-12168150D01*
X3690658Y-12168150D02*
X3719229Y-12168150D01*
X3719229Y-12168150D02*
X3738277Y-12177674D01*
X3738277Y-12177674D02*
X3747801Y-12196722D01*
X3747801Y-12196722D02*
X3747801Y-12301484D01*
X3747801Y-12196722D02*
X3757324Y-12177674D01*
X3757324Y-12177674D02*
X3776372Y-12168150D01*
X3776372Y-12168150D02*
X3804943Y-12168150D01*
X3804943Y-12168150D02*
X3823991Y-12177674D01*
X3823991Y-12177674D02*
X3833515Y-12196722D01*
X3833515Y-12196722D02*
X3833515Y-12301484D01*
X4223991Y-12091960D02*
X4052563Y-12349103D01*
X4481134Y-12101484D02*
X4500182Y-12101484D01*
X4500182Y-12101484D02*
X4519229Y-12111008D01*
X4519229Y-12111008D02*
X4528753Y-12120531D01*
X4528753Y-12120531D02*
X4538277Y-12139579D01*
X4538277Y-12139579D02*
X4547801Y-12177674D01*
X4547801Y-12177674D02*
X4547801Y-12225293D01*
X4547801Y-12225293D02*
X4538277Y-12263388D01*
X4538277Y-12263388D02*
X4528753Y-12282436D01*
X4528753Y-12282436D02*
X4519229Y-12291960D01*
X4519229Y-12291960D02*
X4500182Y-12301484D01*
X4500182Y-12301484D02*
X4481134Y-12301484D01*
X4481134Y-12301484D02*
X4462087Y-12291960D01*
X4462087Y-12291960D02*
X4452563Y-12282436D01*
X4452563Y-12282436D02*
X4443039Y-12263388D01*
X4443039Y-12263388D02*
X4433515Y-12225293D01*
X4433515Y-12225293D02*
X4433515Y-12177674D01*
X4433515Y-12177674D02*
X4443039Y-12139579D01*
X4443039Y-12139579D02*
X4452563Y-12120531D01*
X4452563Y-12120531D02*
X4462087Y-12111008D01*
X4462087Y-12111008D02*
X4481134Y-12101484D01*
X4633515Y-12282436D02*
X4643039Y-12291960D01*
X4643039Y-12291960D02*
X4633515Y-12301484D01*
X4633515Y-12301484D02*
X4623991Y-12291960D01*
X4623991Y-12291960D02*
X4633515Y-12282436D01*
X4633515Y-12282436D02*
X4633515Y-12301484D01*
X4766848Y-12101484D02*
X4785896Y-12101484D01*
X4785896Y-12101484D02*
X4804944Y-12111008D01*
X4804944Y-12111008D02*
X4814468Y-12120531D01*
X4814468Y-12120531D02*
X4823991Y-12139579D01*
X4823991Y-12139579D02*
X4833515Y-12177674D01*
X4833515Y-12177674D02*
X4833515Y-12225293D01*
X4833515Y-12225293D02*
X4823991Y-12263388D01*
X4823991Y-12263388D02*
X4814468Y-12282436D01*
X4814468Y-12282436D02*
X4804944Y-12291960D01*
X4804944Y-12291960D02*
X4785896Y-12301484D01*
X4785896Y-12301484D02*
X4766848Y-12301484D01*
X4766848Y-12301484D02*
X4747801Y-12291960D01*
X4747801Y-12291960D02*
X4738277Y-12282436D01*
X4738277Y-12282436D02*
X4728753Y-12263388D01*
X4728753Y-12263388D02*
X4719229Y-12225293D01*
X4719229Y-12225293D02*
X4719229Y-12177674D01*
X4719229Y-12177674D02*
X4728753Y-12139579D01*
X4728753Y-12139579D02*
X4738277Y-12120531D01*
X4738277Y-12120531D02*
X4747801Y-12111008D01*
X4747801Y-12111008D02*
X4766848Y-12101484D01*
X5023991Y-12301484D02*
X4909706Y-12301484D01*
X4966848Y-12301484D02*
X4966848Y-12101484D01*
X4966848Y-12101484D02*
X4947801Y-12130055D01*
X4947801Y-12130055D02*
X4928753Y-12149103D01*
X4928753Y-12149103D02*
X4909706Y-12158627D01*
X5204944Y-12101484D02*
X5109706Y-12101484D01*
X5109706Y-12101484D02*
X5100182Y-12196722D01*
X5100182Y-12196722D02*
X5109706Y-12187198D01*
X5109706Y-12187198D02*
X5128753Y-12177674D01*
X5128753Y-12177674D02*
X5176372Y-12177674D01*
X5176372Y-12177674D02*
X5195420Y-12187198D01*
X5195420Y-12187198D02*
X5204944Y-12196722D01*
X5204944Y-12196722D02*
X5214468Y-12215769D01*
X5214468Y-12215769D02*
X5214468Y-12263388D01*
X5214468Y-12263388D02*
X5204944Y-12282436D01*
X5204944Y-12282436D02*
X5195420Y-12291960D01*
X5195420Y-12291960D02*
X5176372Y-12301484D01*
X5176372Y-12301484D02*
X5128753Y-12301484D01*
X5128753Y-12301484D02*
X5109706Y-12291960D01*
X5109706Y-12291960D02*
X5100182Y-12282436D01*
X5281134Y-12101484D02*
X5414468Y-12101484D01*
X5414468Y-12101484D02*
X5328753Y-12301484D01*
X5481134Y-12101484D02*
X5481134Y-12139579D01*
X5557325Y-12101484D02*
X5557325Y-12139579D01*
X5852563Y-12377674D02*
X5843039Y-12368150D01*
X5843039Y-12368150D02*
X5823991Y-12339579D01*
X5823991Y-12339579D02*
X5814468Y-12320531D01*
X5814468Y-12320531D02*
X5804944Y-12291960D01*
X5804944Y-12291960D02*
X5795420Y-12244341D01*
X5795420Y-12244341D02*
X5795420Y-12206246D01*
X5795420Y-12206246D02*
X5804944Y-12158627D01*
X5804944Y-12158627D02*
X5814468Y-12130055D01*
X5814468Y-12130055D02*
X5823991Y-12111008D01*
X5823991Y-12111008D02*
X5843039Y-12082436D01*
X5843039Y-12082436D02*
X5852563Y-12072912D01*
X6014468Y-12168150D02*
X6014468Y-12301484D01*
X5966848Y-12091960D02*
X5919229Y-12234817D01*
X5919229Y-12234817D02*
X6043039Y-12234817D01*
X6204944Y-12101484D02*
X6166848Y-12101484D01*
X6166848Y-12101484D02*
X6147801Y-12111008D01*
X6147801Y-12111008D02*
X6138277Y-12120531D01*
X6138277Y-12120531D02*
X6119229Y-12149103D01*
X6119229Y-12149103D02*
X6109706Y-12187198D01*
X6109706Y-12187198D02*
X6109706Y-12263388D01*
X6109706Y-12263388D02*
X6119229Y-12282436D01*
X6119229Y-12282436D02*
X6128753Y-12291960D01*
X6128753Y-12291960D02*
X6147801Y-12301484D01*
X6147801Y-12301484D02*
X6185896Y-12301484D01*
X6185896Y-12301484D02*
X6204944Y-12291960D01*
X6204944Y-12291960D02*
X6214468Y-12282436D01*
X6214468Y-12282436D02*
X6223991Y-12263388D01*
X6223991Y-12263388D02*
X6223991Y-12215769D01*
X6223991Y-12215769D02*
X6214468Y-12196722D01*
X6214468Y-12196722D02*
X6204944Y-12187198D01*
X6204944Y-12187198D02*
X6185896Y-12177674D01*
X6185896Y-12177674D02*
X6147801Y-12177674D01*
X6147801Y-12177674D02*
X6128753Y-12187198D01*
X6128753Y-12187198D02*
X6119229Y-12196722D01*
X6119229Y-12196722D02*
X6109706Y-12215769D01*
X6462087Y-12301484D02*
X6462087Y-12101484D01*
X6547801Y-12301484D02*
X6547801Y-12196722D01*
X6547801Y-12196722D02*
X6538277Y-12177674D01*
X6538277Y-12177674D02*
X6519230Y-12168150D01*
X6519230Y-12168150D02*
X6490658Y-12168150D01*
X6490658Y-12168150D02*
X6471610Y-12177674D01*
X6471610Y-12177674D02*
X6462087Y-12187198D01*
X6671610Y-12301484D02*
X6652563Y-12291960D01*
X6652563Y-12291960D02*
X6643039Y-12282436D01*
X6643039Y-12282436D02*
X6633515Y-12263388D01*
X6633515Y-12263388D02*
X6633515Y-12206246D01*
X6633515Y-12206246D02*
X6643039Y-12187198D01*
X6643039Y-12187198D02*
X6652563Y-12177674D01*
X6652563Y-12177674D02*
X6671610Y-12168150D01*
X6671610Y-12168150D02*
X6700182Y-12168150D01*
X6700182Y-12168150D02*
X6719230Y-12177674D01*
X6719230Y-12177674D02*
X6728753Y-12187198D01*
X6728753Y-12187198D02*
X6738277Y-12206246D01*
X6738277Y-12206246D02*
X6738277Y-12263388D01*
X6738277Y-12263388D02*
X6728753Y-12282436D01*
X6728753Y-12282436D02*
X6719230Y-12291960D01*
X6719230Y-12291960D02*
X6700182Y-12301484D01*
X6700182Y-12301484D02*
X6671610Y-12301484D01*
X6852563Y-12301484D02*
X6833515Y-12291960D01*
X6833515Y-12291960D02*
X6823991Y-12272912D01*
X6823991Y-12272912D02*
X6823991Y-12101484D01*
X7004944Y-12291960D02*
X6985896Y-12301484D01*
X6985896Y-12301484D02*
X6947801Y-12301484D01*
X6947801Y-12301484D02*
X6928753Y-12291960D01*
X6928753Y-12291960D02*
X6919230Y-12272912D01*
X6919230Y-12272912D02*
X6919230Y-12196722D01*
X6919230Y-12196722D02*
X6928753Y-12177674D01*
X6928753Y-12177674D02*
X6947801Y-12168150D01*
X6947801Y-12168150D02*
X6985896Y-12168150D01*
X6985896Y-12168150D02*
X7004944Y-12177674D01*
X7004944Y-12177674D02*
X7014468Y-12196722D01*
X7014468Y-12196722D02*
X7014468Y-12215769D01*
X7014468Y-12215769D02*
X6919230Y-12234817D01*
X7090658Y-12291960D02*
X7109706Y-12301484D01*
X7109706Y-12301484D02*
X7147801Y-12301484D01*
X7147801Y-12301484D02*
X7166849Y-12291960D01*
X7166849Y-12291960D02*
X7176372Y-12272912D01*
X7176372Y-12272912D02*
X7176372Y-12263388D01*
X7176372Y-12263388D02*
X7166849Y-12244341D01*
X7166849Y-12244341D02*
X7147801Y-12234817D01*
X7147801Y-12234817D02*
X7119230Y-12234817D01*
X7119230Y-12234817D02*
X7100182Y-12225293D01*
X7100182Y-12225293D02*
X7090658Y-12206246D01*
X7090658Y-12206246D02*
X7090658Y-12196722D01*
X7090658Y-12196722D02*
X7100182Y-12177674D01*
X7100182Y-12177674D02*
X7119230Y-12168150D01*
X7119230Y-12168150D02*
X7147801Y-12168150D01*
X7147801Y-12168150D02*
X7166849Y-12177674D01*
X7243039Y-12377674D02*
X7252563Y-12368150D01*
X7252563Y-12368150D02*
X7271611Y-12339579D01*
X7271611Y-12339579D02*
X7281134Y-12320531D01*
X7281134Y-12320531D02*
X7290658Y-12291960D01*
X7290658Y-12291960D02*
X7300182Y-12244341D01*
X7300182Y-12244341D02*
X7300182Y-12206246D01*
X7300182Y-12206246D02*
X7290658Y-12158627D01*
X7290658Y-12158627D02*
X7281134Y-12130055D01*
X7281134Y-12130055D02*
X7271611Y-12111008D01*
X7271611Y-12111008D02*
X7252563Y-12082436D01*
X7252563Y-12082436D02*
X7243039Y-12072912D01*
D10*
X2277500Y-12474000D02*
G75*
G03*
X2197500Y-12474000I-40000J0D01*
G01*
X2197500Y-12474000D02*
G75*
G03*
X2277500Y-12474000I40000J0D01*
G01*
D11*
X2576372Y-12365484D02*
X2595420Y-12365484D01*
X2595420Y-12365484D02*
X2614467Y-12375008D01*
X2614467Y-12375008D02*
X2623991Y-12384531D01*
X2623991Y-12384531D02*
X2633515Y-12403579D01*
X2633515Y-12403579D02*
X2643039Y-12441674D01*
X2643039Y-12441674D02*
X2643039Y-12489293D01*
X2643039Y-12489293D02*
X2633515Y-12527388D01*
X2633515Y-12527388D02*
X2623991Y-12546436D01*
X2623991Y-12546436D02*
X2614467Y-12555960D01*
X2614467Y-12555960D02*
X2595420Y-12565484D01*
X2595420Y-12565484D02*
X2576372Y-12565484D01*
X2576372Y-12565484D02*
X2557324Y-12555960D01*
X2557324Y-12555960D02*
X2547801Y-12546436D01*
X2547801Y-12546436D02*
X2538277Y-12527388D01*
X2538277Y-12527388D02*
X2528753Y-12489293D01*
X2528753Y-12489293D02*
X2528753Y-12441674D01*
X2528753Y-12441674D02*
X2538277Y-12403579D01*
X2538277Y-12403579D02*
X2547801Y-12384531D01*
X2547801Y-12384531D02*
X2557324Y-12375008D01*
X2557324Y-12375008D02*
X2576372Y-12365484D01*
X2728753Y-12546436D02*
X2738277Y-12555960D01*
X2738277Y-12555960D02*
X2728753Y-12565484D01*
X2728753Y-12565484D02*
X2719229Y-12555960D01*
X2719229Y-12555960D02*
X2728753Y-12546436D01*
X2728753Y-12546436D02*
X2728753Y-12565484D01*
X2852562Y-12451198D02*
X2833515Y-12441674D01*
X2833515Y-12441674D02*
X2823991Y-12432150D01*
X2823991Y-12432150D02*
X2814467Y-12413103D01*
X2814467Y-12413103D02*
X2814467Y-12403579D01*
X2814467Y-12403579D02*
X2823991Y-12384531D01*
X2823991Y-12384531D02*
X2833515Y-12375008D01*
X2833515Y-12375008D02*
X2852562Y-12365484D01*
X2852562Y-12365484D02*
X2890658Y-12365484D01*
X2890658Y-12365484D02*
X2909705Y-12375008D01*
X2909705Y-12375008D02*
X2919229Y-12384531D01*
X2919229Y-12384531D02*
X2928753Y-12403579D01*
X2928753Y-12403579D02*
X2928753Y-12413103D01*
X2928753Y-12413103D02*
X2919229Y-12432150D01*
X2919229Y-12432150D02*
X2909705Y-12441674D01*
X2909705Y-12441674D02*
X2890658Y-12451198D01*
X2890658Y-12451198D02*
X2852562Y-12451198D01*
X2852562Y-12451198D02*
X2833515Y-12460722D01*
X2833515Y-12460722D02*
X2823991Y-12470246D01*
X2823991Y-12470246D02*
X2814467Y-12489293D01*
X2814467Y-12489293D02*
X2814467Y-12527388D01*
X2814467Y-12527388D02*
X2823991Y-12546436D01*
X2823991Y-12546436D02*
X2833515Y-12555960D01*
X2833515Y-12555960D02*
X2852562Y-12565484D01*
X2852562Y-12565484D02*
X2890658Y-12565484D01*
X2890658Y-12565484D02*
X2909705Y-12555960D01*
X2909705Y-12555960D02*
X2919229Y-12546436D01*
X2919229Y-12546436D02*
X2928753Y-12527388D01*
X2928753Y-12527388D02*
X2928753Y-12489293D01*
X2928753Y-12489293D02*
X2919229Y-12470246D01*
X2919229Y-12470246D02*
X2909705Y-12460722D01*
X2909705Y-12460722D02*
X2890658Y-12451198D01*
X3052562Y-12365484D02*
X3071610Y-12365484D01*
X3071610Y-12365484D02*
X3090658Y-12375008D01*
X3090658Y-12375008D02*
X3100182Y-12384531D01*
X3100182Y-12384531D02*
X3109705Y-12403579D01*
X3109705Y-12403579D02*
X3119229Y-12441674D01*
X3119229Y-12441674D02*
X3119229Y-12489293D01*
X3119229Y-12489293D02*
X3109705Y-12527388D01*
X3109705Y-12527388D02*
X3100182Y-12546436D01*
X3100182Y-12546436D02*
X3090658Y-12555960D01*
X3090658Y-12555960D02*
X3071610Y-12565484D01*
X3071610Y-12565484D02*
X3052562Y-12565484D01*
X3052562Y-12565484D02*
X3033515Y-12555960D01*
X3033515Y-12555960D02*
X3023991Y-12546436D01*
X3023991Y-12546436D02*
X3014467Y-12527388D01*
X3014467Y-12527388D02*
X3004943Y-12489293D01*
X3004943Y-12489293D02*
X3004943Y-12441674D01*
X3004943Y-12441674D02*
X3014467Y-12403579D01*
X3014467Y-12403579D02*
X3023991Y-12384531D01*
X3023991Y-12384531D02*
X3033515Y-12375008D01*
X3033515Y-12375008D02*
X3052562Y-12365484D01*
X3243039Y-12365484D02*
X3262086Y-12365484D01*
X3262086Y-12365484D02*
X3281134Y-12375008D01*
X3281134Y-12375008D02*
X3290658Y-12384531D01*
X3290658Y-12384531D02*
X3300182Y-12403579D01*
X3300182Y-12403579D02*
X3309705Y-12441674D01*
X3309705Y-12441674D02*
X3309705Y-12489293D01*
X3309705Y-12489293D02*
X3300182Y-12527388D01*
X3300182Y-12527388D02*
X3290658Y-12546436D01*
X3290658Y-12546436D02*
X3281134Y-12555960D01*
X3281134Y-12555960D02*
X3262086Y-12565484D01*
X3262086Y-12565484D02*
X3243039Y-12565484D01*
X3243039Y-12565484D02*
X3223991Y-12555960D01*
X3223991Y-12555960D02*
X3214467Y-12546436D01*
X3214467Y-12546436D02*
X3204943Y-12527388D01*
X3204943Y-12527388D02*
X3195420Y-12489293D01*
X3195420Y-12489293D02*
X3195420Y-12441674D01*
X3195420Y-12441674D02*
X3204943Y-12403579D01*
X3204943Y-12403579D02*
X3214467Y-12384531D01*
X3214467Y-12384531D02*
X3223991Y-12375008D01*
X3223991Y-12375008D02*
X3243039Y-12365484D01*
X3395420Y-12565484D02*
X3395420Y-12432150D01*
X3395420Y-12451198D02*
X3404943Y-12441674D01*
X3404943Y-12441674D02*
X3423991Y-12432150D01*
X3423991Y-12432150D02*
X3452563Y-12432150D01*
X3452563Y-12432150D02*
X3471610Y-12441674D01*
X3471610Y-12441674D02*
X3481134Y-12460722D01*
X3481134Y-12460722D02*
X3481134Y-12565484D01*
X3481134Y-12460722D02*
X3490658Y-12441674D01*
X3490658Y-12441674D02*
X3509705Y-12432150D01*
X3509705Y-12432150D02*
X3538277Y-12432150D01*
X3538277Y-12432150D02*
X3557324Y-12441674D01*
X3557324Y-12441674D02*
X3566848Y-12460722D01*
X3566848Y-12460722D02*
X3566848Y-12565484D01*
X3662086Y-12565484D02*
X3662086Y-12432150D01*
X3662086Y-12451198D02*
X3671610Y-12441674D01*
X3671610Y-12441674D02*
X3690658Y-12432150D01*
X3690658Y-12432150D02*
X3719229Y-12432150D01*
X3719229Y-12432150D02*
X3738277Y-12441674D01*
X3738277Y-12441674D02*
X3747801Y-12460722D01*
X3747801Y-12460722D02*
X3747801Y-12565484D01*
X3747801Y-12460722D02*
X3757324Y-12441674D01*
X3757324Y-12441674D02*
X3776372Y-12432150D01*
X3776372Y-12432150D02*
X3804943Y-12432150D01*
X3804943Y-12432150D02*
X3823991Y-12441674D01*
X3823991Y-12441674D02*
X3833515Y-12460722D01*
X3833515Y-12460722D02*
X3833515Y-12565484D01*
X4223991Y-12355960D02*
X4052563Y-12613103D01*
X4481134Y-12365484D02*
X4500182Y-12365484D01*
X4500182Y-12365484D02*
X4519229Y-12375008D01*
X4519229Y-12375008D02*
X4528753Y-12384531D01*
X4528753Y-12384531D02*
X4538277Y-12403579D01*
X4538277Y-12403579D02*
X4547801Y-12441674D01*
X4547801Y-12441674D02*
X4547801Y-12489293D01*
X4547801Y-12489293D02*
X4538277Y-12527388D01*
X4538277Y-12527388D02*
X4528753Y-12546436D01*
X4528753Y-12546436D02*
X4519229Y-12555960D01*
X4519229Y-12555960D02*
X4500182Y-12565484D01*
X4500182Y-12565484D02*
X4481134Y-12565484D01*
X4481134Y-12565484D02*
X4462087Y-12555960D01*
X4462087Y-12555960D02*
X4452563Y-12546436D01*
X4452563Y-12546436D02*
X4443039Y-12527388D01*
X4443039Y-12527388D02*
X4433515Y-12489293D01*
X4433515Y-12489293D02*
X4433515Y-12441674D01*
X4433515Y-12441674D02*
X4443039Y-12403579D01*
X4443039Y-12403579D02*
X4452563Y-12384531D01*
X4452563Y-12384531D02*
X4462087Y-12375008D01*
X4462087Y-12375008D02*
X4481134Y-12365484D01*
X4633515Y-12546436D02*
X4643039Y-12555960D01*
X4643039Y-12555960D02*
X4633515Y-12565484D01*
X4633515Y-12565484D02*
X4623991Y-12555960D01*
X4623991Y-12555960D02*
X4633515Y-12546436D01*
X4633515Y-12546436D02*
X4633515Y-12565484D01*
X4766848Y-12365484D02*
X4785896Y-12365484D01*
X4785896Y-12365484D02*
X4804944Y-12375008D01*
X4804944Y-12375008D02*
X4814468Y-12384531D01*
X4814468Y-12384531D02*
X4823991Y-12403579D01*
X4823991Y-12403579D02*
X4833515Y-12441674D01*
X4833515Y-12441674D02*
X4833515Y-12489293D01*
X4833515Y-12489293D02*
X4823991Y-12527388D01*
X4823991Y-12527388D02*
X4814468Y-12546436D01*
X4814468Y-12546436D02*
X4804944Y-12555960D01*
X4804944Y-12555960D02*
X4785896Y-12565484D01*
X4785896Y-12565484D02*
X4766848Y-12565484D01*
X4766848Y-12565484D02*
X4747801Y-12555960D01*
X4747801Y-12555960D02*
X4738277Y-12546436D01*
X4738277Y-12546436D02*
X4728753Y-12527388D01*
X4728753Y-12527388D02*
X4719229Y-12489293D01*
X4719229Y-12489293D02*
X4719229Y-12441674D01*
X4719229Y-12441674D02*
X4728753Y-12403579D01*
X4728753Y-12403579D02*
X4738277Y-12384531D01*
X4738277Y-12384531D02*
X4747801Y-12375008D01*
X4747801Y-12375008D02*
X4766848Y-12365484D01*
X4900182Y-12365484D02*
X5023991Y-12365484D01*
X5023991Y-12365484D02*
X4957325Y-12441674D01*
X4957325Y-12441674D02*
X4985896Y-12441674D01*
X4985896Y-12441674D02*
X5004944Y-12451198D01*
X5004944Y-12451198D02*
X5014468Y-12460722D01*
X5014468Y-12460722D02*
X5023991Y-12479769D01*
X5023991Y-12479769D02*
X5023991Y-12527388D01*
X5023991Y-12527388D02*
X5014468Y-12546436D01*
X5014468Y-12546436D02*
X5004944Y-12555960D01*
X5004944Y-12555960D02*
X4985896Y-12565484D01*
X4985896Y-12565484D02*
X4928753Y-12565484D01*
X4928753Y-12565484D02*
X4909706Y-12555960D01*
X4909706Y-12555960D02*
X4900182Y-12546436D01*
X5214468Y-12565484D02*
X5100182Y-12565484D01*
X5157325Y-12565484D02*
X5157325Y-12365484D01*
X5157325Y-12365484D02*
X5138277Y-12394055D01*
X5138277Y-12394055D02*
X5119229Y-12413103D01*
X5119229Y-12413103D02*
X5100182Y-12422627D01*
X5395420Y-12365484D02*
X5300182Y-12365484D01*
X5300182Y-12365484D02*
X5290658Y-12460722D01*
X5290658Y-12460722D02*
X5300182Y-12451198D01*
X5300182Y-12451198D02*
X5319229Y-12441674D01*
X5319229Y-12441674D02*
X5366849Y-12441674D01*
X5366849Y-12441674D02*
X5385896Y-12451198D01*
X5385896Y-12451198D02*
X5395420Y-12460722D01*
X5395420Y-12460722D02*
X5404944Y-12479769D01*
X5404944Y-12479769D02*
X5404944Y-12527388D01*
X5404944Y-12527388D02*
X5395420Y-12546436D01*
X5395420Y-12546436D02*
X5385896Y-12555960D01*
X5385896Y-12555960D02*
X5366849Y-12565484D01*
X5366849Y-12565484D02*
X5319229Y-12565484D01*
X5319229Y-12565484D02*
X5300182Y-12555960D01*
X5300182Y-12555960D02*
X5290658Y-12546436D01*
X5481134Y-12365484D02*
X5481134Y-12403579D01*
X5557325Y-12365484D02*
X5557325Y-12403579D01*
X5852563Y-12641674D02*
X5843039Y-12632150D01*
X5843039Y-12632150D02*
X5823991Y-12603579D01*
X5823991Y-12603579D02*
X5814468Y-12584531D01*
X5814468Y-12584531D02*
X5804944Y-12555960D01*
X5804944Y-12555960D02*
X5795420Y-12508341D01*
X5795420Y-12508341D02*
X5795420Y-12470246D01*
X5795420Y-12470246D02*
X5804944Y-12422627D01*
X5804944Y-12422627D02*
X5814468Y-12394055D01*
X5814468Y-12394055D02*
X5823991Y-12375008D01*
X5823991Y-12375008D02*
X5843039Y-12346436D01*
X5843039Y-12346436D02*
X5852563Y-12336912D01*
X5957325Y-12451198D02*
X5938277Y-12441674D01*
X5938277Y-12441674D02*
X5928753Y-12432150D01*
X5928753Y-12432150D02*
X5919229Y-12413103D01*
X5919229Y-12413103D02*
X5919229Y-12403579D01*
X5919229Y-12403579D02*
X5928753Y-12384531D01*
X5928753Y-12384531D02*
X5938277Y-12375008D01*
X5938277Y-12375008D02*
X5957325Y-12365484D01*
X5957325Y-12365484D02*
X5995420Y-12365484D01*
X5995420Y-12365484D02*
X6014468Y-12375008D01*
X6014468Y-12375008D02*
X6023991Y-12384531D01*
X6023991Y-12384531D02*
X6033515Y-12403579D01*
X6033515Y-12403579D02*
X6033515Y-12413103D01*
X6033515Y-12413103D02*
X6023991Y-12432150D01*
X6023991Y-12432150D02*
X6014468Y-12441674D01*
X6014468Y-12441674D02*
X5995420Y-12451198D01*
X5995420Y-12451198D02*
X5957325Y-12451198D01*
X5957325Y-12451198D02*
X5938277Y-12460722D01*
X5938277Y-12460722D02*
X5928753Y-12470246D01*
X5928753Y-12470246D02*
X5919229Y-12489293D01*
X5919229Y-12489293D02*
X5919229Y-12527388D01*
X5919229Y-12527388D02*
X5928753Y-12546436D01*
X5928753Y-12546436D02*
X5938277Y-12555960D01*
X5938277Y-12555960D02*
X5957325Y-12565484D01*
X5957325Y-12565484D02*
X5995420Y-12565484D01*
X5995420Y-12565484D02*
X6014468Y-12555960D01*
X6014468Y-12555960D02*
X6023991Y-12546436D01*
X6023991Y-12546436D02*
X6033515Y-12527388D01*
X6033515Y-12527388D02*
X6033515Y-12489293D01*
X6033515Y-12489293D02*
X6023991Y-12470246D01*
X6023991Y-12470246D02*
X6014468Y-12460722D01*
X6014468Y-12460722D02*
X5995420Y-12451198D01*
X6271610Y-12565484D02*
X6271610Y-12365484D01*
X6357325Y-12565484D02*
X6357325Y-12460722D01*
X6357325Y-12460722D02*
X6347801Y-12441674D01*
X6347801Y-12441674D02*
X6328753Y-12432150D01*
X6328753Y-12432150D02*
X6300182Y-12432150D01*
X6300182Y-12432150D02*
X6281134Y-12441674D01*
X6281134Y-12441674D02*
X6271610Y-12451198D01*
X6481134Y-12565484D02*
X6462087Y-12555960D01*
X6462087Y-12555960D02*
X6452563Y-12546436D01*
X6452563Y-12546436D02*
X6443039Y-12527388D01*
X6443039Y-12527388D02*
X6443039Y-12470246D01*
X6443039Y-12470246D02*
X6452563Y-12451198D01*
X6452563Y-12451198D02*
X6462087Y-12441674D01*
X6462087Y-12441674D02*
X6481134Y-12432150D01*
X6481134Y-12432150D02*
X6509706Y-12432150D01*
X6509706Y-12432150D02*
X6528753Y-12441674D01*
X6528753Y-12441674D02*
X6538277Y-12451198D01*
X6538277Y-12451198D02*
X6547801Y-12470246D01*
X6547801Y-12470246D02*
X6547801Y-12527388D01*
X6547801Y-12527388D02*
X6538277Y-12546436D01*
X6538277Y-12546436D02*
X6528753Y-12555960D01*
X6528753Y-12555960D02*
X6509706Y-12565484D01*
X6509706Y-12565484D02*
X6481134Y-12565484D01*
X6662087Y-12565484D02*
X6643039Y-12555960D01*
X6643039Y-12555960D02*
X6633515Y-12536912D01*
X6633515Y-12536912D02*
X6633515Y-12365484D01*
X6814468Y-12555960D02*
X6795420Y-12565484D01*
X6795420Y-12565484D02*
X6757325Y-12565484D01*
X6757325Y-12565484D02*
X6738277Y-12555960D01*
X6738277Y-12555960D02*
X6728753Y-12536912D01*
X6728753Y-12536912D02*
X6728753Y-12460722D01*
X6728753Y-12460722D02*
X6738277Y-12441674D01*
X6738277Y-12441674D02*
X6757325Y-12432150D01*
X6757325Y-12432150D02*
X6795420Y-12432150D01*
X6795420Y-12432150D02*
X6814468Y-12441674D01*
X6814468Y-12441674D02*
X6823991Y-12460722D01*
X6823991Y-12460722D02*
X6823991Y-12479769D01*
X6823991Y-12479769D02*
X6728753Y-12498817D01*
X6900182Y-12555960D02*
X6919230Y-12565484D01*
X6919230Y-12565484D02*
X6957325Y-12565484D01*
X6957325Y-12565484D02*
X6976372Y-12555960D01*
X6976372Y-12555960D02*
X6985896Y-12536912D01*
X6985896Y-12536912D02*
X6985896Y-12527388D01*
X6985896Y-12527388D02*
X6976372Y-12508341D01*
X6976372Y-12508341D02*
X6957325Y-12498817D01*
X6957325Y-12498817D02*
X6928753Y-12498817D01*
X6928753Y-12498817D02*
X6909706Y-12489293D01*
X6909706Y-12489293D02*
X6900182Y-12470246D01*
X6900182Y-12470246D02*
X6900182Y-12460722D01*
X6900182Y-12460722D02*
X6909706Y-12441674D01*
X6909706Y-12441674D02*
X6928753Y-12432150D01*
X6928753Y-12432150D02*
X6957325Y-12432150D01*
X6957325Y-12432150D02*
X6976372Y-12441674D01*
X7052563Y-12641674D02*
X7062087Y-12632150D01*
X7062087Y-12632150D02*
X7081134Y-12603579D01*
X7081134Y-12603579D02*
X7090658Y-12584531D01*
X7090658Y-12584531D02*
X7100182Y-12555960D01*
X7100182Y-12555960D02*
X7109706Y-12508341D01*
X7109706Y-12508341D02*
X7109706Y-12470246D01*
X7109706Y-12470246D02*
X7100182Y-12422627D01*
X7100182Y-12422627D02*
X7090658Y-12394055D01*
X7090658Y-12394055D02*
X7081134Y-12375008D01*
X7081134Y-12375008D02*
X7062087Y-12346436D01*
X7062087Y-12346436D02*
X7052563Y-12336912D01*
D10*
X2227500Y-12688000D02*
X2227500Y-12788000D01*
X2177500Y-12738000D02*
X2277500Y-12738000D01*
D11*
X2643039Y-12829484D02*
X2528753Y-12829484D01*
X2585896Y-12829484D02*
X2585896Y-12629484D01*
X2585896Y-12629484D02*
X2566848Y-12658055D01*
X2566848Y-12658055D02*
X2547801Y-12677103D01*
X2547801Y-12677103D02*
X2528753Y-12686627D01*
X2728753Y-12810436D02*
X2738277Y-12819960D01*
X2738277Y-12819960D02*
X2728753Y-12829484D01*
X2728753Y-12829484D02*
X2719229Y-12819960D01*
X2719229Y-12819960D02*
X2728753Y-12810436D01*
X2728753Y-12810436D02*
X2728753Y-12829484D01*
X2862086Y-12629484D02*
X2881134Y-12629484D01*
X2881134Y-12629484D02*
X2900182Y-12639008D01*
X2900182Y-12639008D02*
X2909705Y-12648531D01*
X2909705Y-12648531D02*
X2919229Y-12667579D01*
X2919229Y-12667579D02*
X2928753Y-12705674D01*
X2928753Y-12705674D02*
X2928753Y-12753293D01*
X2928753Y-12753293D02*
X2919229Y-12791388D01*
X2919229Y-12791388D02*
X2909705Y-12810436D01*
X2909705Y-12810436D02*
X2900182Y-12819960D01*
X2900182Y-12819960D02*
X2881134Y-12829484D01*
X2881134Y-12829484D02*
X2862086Y-12829484D01*
X2862086Y-12829484D02*
X2843039Y-12819960D01*
X2843039Y-12819960D02*
X2833515Y-12810436D01*
X2833515Y-12810436D02*
X2823991Y-12791388D01*
X2823991Y-12791388D02*
X2814467Y-12753293D01*
X2814467Y-12753293D02*
X2814467Y-12705674D01*
X2814467Y-12705674D02*
X2823991Y-12667579D01*
X2823991Y-12667579D02*
X2833515Y-12648531D01*
X2833515Y-12648531D02*
X2843039Y-12639008D01*
X2843039Y-12639008D02*
X2862086Y-12629484D01*
X3052562Y-12629484D02*
X3071610Y-12629484D01*
X3071610Y-12629484D02*
X3090658Y-12639008D01*
X3090658Y-12639008D02*
X3100182Y-12648531D01*
X3100182Y-12648531D02*
X3109705Y-12667579D01*
X3109705Y-12667579D02*
X3119229Y-12705674D01*
X3119229Y-12705674D02*
X3119229Y-12753293D01*
X3119229Y-12753293D02*
X3109705Y-12791388D01*
X3109705Y-12791388D02*
X3100182Y-12810436D01*
X3100182Y-12810436D02*
X3090658Y-12819960D01*
X3090658Y-12819960D02*
X3071610Y-12829484D01*
X3071610Y-12829484D02*
X3052562Y-12829484D01*
X3052562Y-12829484D02*
X3033515Y-12819960D01*
X3033515Y-12819960D02*
X3023991Y-12810436D01*
X3023991Y-12810436D02*
X3014467Y-12791388D01*
X3014467Y-12791388D02*
X3004943Y-12753293D01*
X3004943Y-12753293D02*
X3004943Y-12705674D01*
X3004943Y-12705674D02*
X3014467Y-12667579D01*
X3014467Y-12667579D02*
X3023991Y-12648531D01*
X3023991Y-12648531D02*
X3033515Y-12639008D01*
X3033515Y-12639008D02*
X3052562Y-12629484D01*
X3243039Y-12629484D02*
X3262086Y-12629484D01*
X3262086Y-12629484D02*
X3281134Y-12639008D01*
X3281134Y-12639008D02*
X3290658Y-12648531D01*
X3290658Y-12648531D02*
X3300182Y-12667579D01*
X3300182Y-12667579D02*
X3309705Y-12705674D01*
X3309705Y-12705674D02*
X3309705Y-12753293D01*
X3309705Y-12753293D02*
X3300182Y-12791388D01*
X3300182Y-12791388D02*
X3290658Y-12810436D01*
X3290658Y-12810436D02*
X3281134Y-12819960D01*
X3281134Y-12819960D02*
X3262086Y-12829484D01*
X3262086Y-12829484D02*
X3243039Y-12829484D01*
X3243039Y-12829484D02*
X3223991Y-12819960D01*
X3223991Y-12819960D02*
X3214467Y-12810436D01*
X3214467Y-12810436D02*
X3204943Y-12791388D01*
X3204943Y-12791388D02*
X3195420Y-12753293D01*
X3195420Y-12753293D02*
X3195420Y-12705674D01*
X3195420Y-12705674D02*
X3204943Y-12667579D01*
X3204943Y-12667579D02*
X3214467Y-12648531D01*
X3214467Y-12648531D02*
X3223991Y-12639008D01*
X3223991Y-12639008D02*
X3243039Y-12629484D01*
X3395420Y-12829484D02*
X3395420Y-12696150D01*
X3395420Y-12715198D02*
X3404943Y-12705674D01*
X3404943Y-12705674D02*
X3423991Y-12696150D01*
X3423991Y-12696150D02*
X3452563Y-12696150D01*
X3452563Y-12696150D02*
X3471610Y-12705674D01*
X3471610Y-12705674D02*
X3481134Y-12724722D01*
X3481134Y-12724722D02*
X3481134Y-12829484D01*
X3481134Y-12724722D02*
X3490658Y-12705674D01*
X3490658Y-12705674D02*
X3509705Y-12696150D01*
X3509705Y-12696150D02*
X3538277Y-12696150D01*
X3538277Y-12696150D02*
X3557324Y-12705674D01*
X3557324Y-12705674D02*
X3566848Y-12724722D01*
X3566848Y-12724722D02*
X3566848Y-12829484D01*
X3662086Y-12829484D02*
X3662086Y-12696150D01*
X3662086Y-12715198D02*
X3671610Y-12705674D01*
X3671610Y-12705674D02*
X3690658Y-12696150D01*
X3690658Y-12696150D02*
X3719229Y-12696150D01*
X3719229Y-12696150D02*
X3738277Y-12705674D01*
X3738277Y-12705674D02*
X3747801Y-12724722D01*
X3747801Y-12724722D02*
X3747801Y-12829484D01*
X3747801Y-12724722D02*
X3757324Y-12705674D01*
X3757324Y-12705674D02*
X3776372Y-12696150D01*
X3776372Y-12696150D02*
X3804943Y-12696150D01*
X3804943Y-12696150D02*
X3823991Y-12705674D01*
X3823991Y-12705674D02*
X3833515Y-12724722D01*
X3833515Y-12724722D02*
X3833515Y-12829484D01*
X4223991Y-12619960D02*
X4052563Y-12877103D01*
X4481134Y-12629484D02*
X4500182Y-12629484D01*
X4500182Y-12629484D02*
X4519229Y-12639008D01*
X4519229Y-12639008D02*
X4528753Y-12648531D01*
X4528753Y-12648531D02*
X4538277Y-12667579D01*
X4538277Y-12667579D02*
X4547801Y-12705674D01*
X4547801Y-12705674D02*
X4547801Y-12753293D01*
X4547801Y-12753293D02*
X4538277Y-12791388D01*
X4538277Y-12791388D02*
X4528753Y-12810436D01*
X4528753Y-12810436D02*
X4519229Y-12819960D01*
X4519229Y-12819960D02*
X4500182Y-12829484D01*
X4500182Y-12829484D02*
X4481134Y-12829484D01*
X4481134Y-12829484D02*
X4462087Y-12819960D01*
X4462087Y-12819960D02*
X4452563Y-12810436D01*
X4452563Y-12810436D02*
X4443039Y-12791388D01*
X4443039Y-12791388D02*
X4433515Y-12753293D01*
X4433515Y-12753293D02*
X4433515Y-12705674D01*
X4433515Y-12705674D02*
X4443039Y-12667579D01*
X4443039Y-12667579D02*
X4452563Y-12648531D01*
X4452563Y-12648531D02*
X4462087Y-12639008D01*
X4462087Y-12639008D02*
X4481134Y-12629484D01*
X4633515Y-12810436D02*
X4643039Y-12819960D01*
X4643039Y-12819960D02*
X4633515Y-12829484D01*
X4633515Y-12829484D02*
X4623991Y-12819960D01*
X4623991Y-12819960D02*
X4633515Y-12810436D01*
X4633515Y-12810436D02*
X4633515Y-12829484D01*
X4766848Y-12629484D02*
X4785896Y-12629484D01*
X4785896Y-12629484D02*
X4804944Y-12639008D01*
X4804944Y-12639008D02*
X4814468Y-12648531D01*
X4814468Y-12648531D02*
X4823991Y-12667579D01*
X4823991Y-12667579D02*
X4833515Y-12705674D01*
X4833515Y-12705674D02*
X4833515Y-12753293D01*
X4833515Y-12753293D02*
X4823991Y-12791388D01*
X4823991Y-12791388D02*
X4814468Y-12810436D01*
X4814468Y-12810436D02*
X4804944Y-12819960D01*
X4804944Y-12819960D02*
X4785896Y-12829484D01*
X4785896Y-12829484D02*
X4766848Y-12829484D01*
X4766848Y-12829484D02*
X4747801Y-12819960D01*
X4747801Y-12819960D02*
X4738277Y-12810436D01*
X4738277Y-12810436D02*
X4728753Y-12791388D01*
X4728753Y-12791388D02*
X4719229Y-12753293D01*
X4719229Y-12753293D02*
X4719229Y-12705674D01*
X4719229Y-12705674D02*
X4728753Y-12667579D01*
X4728753Y-12667579D02*
X4738277Y-12648531D01*
X4738277Y-12648531D02*
X4747801Y-12639008D01*
X4747801Y-12639008D02*
X4766848Y-12629484D01*
X4900182Y-12629484D02*
X5023991Y-12629484D01*
X5023991Y-12629484D02*
X4957325Y-12705674D01*
X4957325Y-12705674D02*
X4985896Y-12705674D01*
X4985896Y-12705674D02*
X5004944Y-12715198D01*
X5004944Y-12715198D02*
X5014468Y-12724722D01*
X5014468Y-12724722D02*
X5023991Y-12743769D01*
X5023991Y-12743769D02*
X5023991Y-12791388D01*
X5023991Y-12791388D02*
X5014468Y-12810436D01*
X5014468Y-12810436D02*
X5004944Y-12819960D01*
X5004944Y-12819960D02*
X4985896Y-12829484D01*
X4985896Y-12829484D02*
X4928753Y-12829484D01*
X4928753Y-12829484D02*
X4909706Y-12819960D01*
X4909706Y-12819960D02*
X4900182Y-12810436D01*
X5119229Y-12829484D02*
X5157325Y-12829484D01*
X5157325Y-12829484D02*
X5176372Y-12819960D01*
X5176372Y-12819960D02*
X5185896Y-12810436D01*
X5185896Y-12810436D02*
X5204944Y-12781865D01*
X5204944Y-12781865D02*
X5214468Y-12743769D01*
X5214468Y-12743769D02*
X5214468Y-12667579D01*
X5214468Y-12667579D02*
X5204944Y-12648531D01*
X5204944Y-12648531D02*
X5195420Y-12639008D01*
X5195420Y-12639008D02*
X5176372Y-12629484D01*
X5176372Y-12629484D02*
X5138277Y-12629484D01*
X5138277Y-12629484D02*
X5119229Y-12639008D01*
X5119229Y-12639008D02*
X5109706Y-12648531D01*
X5109706Y-12648531D02*
X5100182Y-12667579D01*
X5100182Y-12667579D02*
X5100182Y-12715198D01*
X5100182Y-12715198D02*
X5109706Y-12734246D01*
X5109706Y-12734246D02*
X5119229Y-12743769D01*
X5119229Y-12743769D02*
X5138277Y-12753293D01*
X5138277Y-12753293D02*
X5176372Y-12753293D01*
X5176372Y-12753293D02*
X5195420Y-12743769D01*
X5195420Y-12743769D02*
X5204944Y-12734246D01*
X5204944Y-12734246D02*
X5214468Y-12715198D01*
X5385896Y-12696150D02*
X5385896Y-12829484D01*
X5338277Y-12619960D02*
X5290658Y-12762817D01*
X5290658Y-12762817D02*
X5414468Y-12762817D01*
X5481134Y-12629484D02*
X5481134Y-12667579D01*
X5557325Y-12629484D02*
X5557325Y-12667579D01*
X5852563Y-12905674D02*
X5843039Y-12896150D01*
X5843039Y-12896150D02*
X5823991Y-12867579D01*
X5823991Y-12867579D02*
X5814468Y-12848531D01*
X5814468Y-12848531D02*
X5804944Y-12819960D01*
X5804944Y-12819960D02*
X5795420Y-12772341D01*
X5795420Y-12772341D02*
X5795420Y-12734246D01*
X5795420Y-12734246D02*
X5804944Y-12686627D01*
X5804944Y-12686627D02*
X5814468Y-12658055D01*
X5814468Y-12658055D02*
X5823991Y-12639008D01*
X5823991Y-12639008D02*
X5843039Y-12610436D01*
X5843039Y-12610436D02*
X5852563Y-12600912D01*
X6023991Y-12629484D02*
X5928753Y-12629484D01*
X5928753Y-12629484D02*
X5919229Y-12724722D01*
X5919229Y-12724722D02*
X5928753Y-12715198D01*
X5928753Y-12715198D02*
X5947801Y-12705674D01*
X5947801Y-12705674D02*
X5995420Y-12705674D01*
X5995420Y-12705674D02*
X6014468Y-12715198D01*
X6014468Y-12715198D02*
X6023991Y-12724722D01*
X6023991Y-12724722D02*
X6033515Y-12743769D01*
X6033515Y-12743769D02*
X6033515Y-12791388D01*
X6033515Y-12791388D02*
X6023991Y-12810436D01*
X6023991Y-12810436D02*
X6014468Y-12819960D01*
X6014468Y-12819960D02*
X5995420Y-12829484D01*
X5995420Y-12829484D02*
X5947801Y-12829484D01*
X5947801Y-12829484D02*
X5928753Y-12819960D01*
X5928753Y-12819960D02*
X5919229Y-12810436D01*
X6157325Y-12629484D02*
X6176372Y-12629484D01*
X6176372Y-12629484D02*
X6195420Y-12639008D01*
X6195420Y-12639008D02*
X6204944Y-12648531D01*
X6204944Y-12648531D02*
X6214468Y-12667579D01*
X6214468Y-12667579D02*
X6223991Y-12705674D01*
X6223991Y-12705674D02*
X6223991Y-12753293D01*
X6223991Y-12753293D02*
X6214468Y-12791388D01*
X6214468Y-12791388D02*
X6204944Y-12810436D01*
X6204944Y-12810436D02*
X6195420Y-12819960D01*
X6195420Y-12819960D02*
X6176372Y-12829484D01*
X6176372Y-12829484D02*
X6157325Y-12829484D01*
X6157325Y-12829484D02*
X6138277Y-12819960D01*
X6138277Y-12819960D02*
X6128753Y-12810436D01*
X6128753Y-12810436D02*
X6119229Y-12791388D01*
X6119229Y-12791388D02*
X6109706Y-12753293D01*
X6109706Y-12753293D02*
X6109706Y-12705674D01*
X6109706Y-12705674D02*
X6119229Y-12667579D01*
X6119229Y-12667579D02*
X6128753Y-12648531D01*
X6128753Y-12648531D02*
X6138277Y-12639008D01*
X6138277Y-12639008D02*
X6157325Y-12629484D01*
X6462087Y-12829484D02*
X6462087Y-12629484D01*
X6547801Y-12829484D02*
X6547801Y-12724722D01*
X6547801Y-12724722D02*
X6538277Y-12705674D01*
X6538277Y-12705674D02*
X6519230Y-12696150D01*
X6519230Y-12696150D02*
X6490658Y-12696150D01*
X6490658Y-12696150D02*
X6471610Y-12705674D01*
X6471610Y-12705674D02*
X6462087Y-12715198D01*
X6671610Y-12829484D02*
X6652563Y-12819960D01*
X6652563Y-12819960D02*
X6643039Y-12810436D01*
X6643039Y-12810436D02*
X6633515Y-12791388D01*
X6633515Y-12791388D02*
X6633515Y-12734246D01*
X6633515Y-12734246D02*
X6643039Y-12715198D01*
X6643039Y-12715198D02*
X6652563Y-12705674D01*
X6652563Y-12705674D02*
X6671610Y-12696150D01*
X6671610Y-12696150D02*
X6700182Y-12696150D01*
X6700182Y-12696150D02*
X6719230Y-12705674D01*
X6719230Y-12705674D02*
X6728753Y-12715198D01*
X6728753Y-12715198D02*
X6738277Y-12734246D01*
X6738277Y-12734246D02*
X6738277Y-12791388D01*
X6738277Y-12791388D02*
X6728753Y-12810436D01*
X6728753Y-12810436D02*
X6719230Y-12819960D01*
X6719230Y-12819960D02*
X6700182Y-12829484D01*
X6700182Y-12829484D02*
X6671610Y-12829484D01*
X6852563Y-12829484D02*
X6833515Y-12819960D01*
X6833515Y-12819960D02*
X6823991Y-12800912D01*
X6823991Y-12800912D02*
X6823991Y-12629484D01*
X7004944Y-12819960D02*
X6985896Y-12829484D01*
X6985896Y-12829484D02*
X6947801Y-12829484D01*
X6947801Y-12829484D02*
X6928753Y-12819960D01*
X6928753Y-12819960D02*
X6919230Y-12800912D01*
X6919230Y-12800912D02*
X6919230Y-12724722D01*
X6919230Y-12724722D02*
X6928753Y-12705674D01*
X6928753Y-12705674D02*
X6947801Y-12696150D01*
X6947801Y-12696150D02*
X6985896Y-12696150D01*
X6985896Y-12696150D02*
X7004944Y-12705674D01*
X7004944Y-12705674D02*
X7014468Y-12724722D01*
X7014468Y-12724722D02*
X7014468Y-12743769D01*
X7014468Y-12743769D02*
X6919230Y-12762817D01*
X7090658Y-12819960D02*
X7109706Y-12829484D01*
X7109706Y-12829484D02*
X7147801Y-12829484D01*
X7147801Y-12829484D02*
X7166849Y-12819960D01*
X7166849Y-12819960D02*
X7176372Y-12800912D01*
X7176372Y-12800912D02*
X7176372Y-12791388D01*
X7176372Y-12791388D02*
X7166849Y-12772341D01*
X7166849Y-12772341D02*
X7147801Y-12762817D01*
X7147801Y-12762817D02*
X7119230Y-12762817D01*
X7119230Y-12762817D02*
X7100182Y-12753293D01*
X7100182Y-12753293D02*
X7090658Y-12734246D01*
X7090658Y-12734246D02*
X7090658Y-12724722D01*
X7090658Y-12724722D02*
X7100182Y-12705674D01*
X7100182Y-12705674D02*
X7119230Y-12696150D01*
X7119230Y-12696150D02*
X7147801Y-12696150D01*
X7147801Y-12696150D02*
X7166849Y-12705674D01*
X7414468Y-12753293D02*
X7566849Y-12753293D01*
X7490658Y-12829484D02*
X7490658Y-12677103D01*
X7795420Y-12629484D02*
X7919230Y-12629484D01*
X7919230Y-12629484D02*
X7852563Y-12705674D01*
X7852563Y-12705674D02*
X7881134Y-12705674D01*
X7881134Y-12705674D02*
X7900182Y-12715198D01*
X7900182Y-12715198D02*
X7909706Y-12724722D01*
X7909706Y-12724722D02*
X7919230Y-12743769D01*
X7919230Y-12743769D02*
X7919230Y-12791388D01*
X7919230Y-12791388D02*
X7909706Y-12810436D01*
X7909706Y-12810436D02*
X7900182Y-12819960D01*
X7900182Y-12819960D02*
X7881134Y-12829484D01*
X7881134Y-12829484D02*
X7823992Y-12829484D01*
X7823992Y-12829484D02*
X7804944Y-12819960D01*
X7804944Y-12819960D02*
X7795420Y-12810436D01*
X8147801Y-12819960D02*
X8166849Y-12829484D01*
X8166849Y-12829484D02*
X8204944Y-12829484D01*
X8204944Y-12829484D02*
X8223992Y-12819960D01*
X8223992Y-12819960D02*
X8233515Y-12800912D01*
X8233515Y-12800912D02*
X8233515Y-12791388D01*
X8233515Y-12791388D02*
X8223992Y-12772341D01*
X8223992Y-12772341D02*
X8204944Y-12762817D01*
X8204944Y-12762817D02*
X8176373Y-12762817D01*
X8176373Y-12762817D02*
X8157325Y-12753293D01*
X8157325Y-12753293D02*
X8147801Y-12734246D01*
X8147801Y-12734246D02*
X8147801Y-12724722D01*
X8147801Y-12724722D02*
X8157325Y-12705674D01*
X8157325Y-12705674D02*
X8176373Y-12696150D01*
X8176373Y-12696150D02*
X8204944Y-12696150D01*
X8204944Y-12696150D02*
X8223992Y-12705674D01*
X8347801Y-12829484D02*
X8328754Y-12819960D01*
X8328754Y-12819960D02*
X8319230Y-12800912D01*
X8319230Y-12800912D02*
X8319230Y-12629484D01*
X8452563Y-12829484D02*
X8433516Y-12819960D01*
X8433516Y-12819960D02*
X8423992Y-12810436D01*
X8423992Y-12810436D02*
X8414468Y-12791388D01*
X8414468Y-12791388D02*
X8414468Y-12734246D01*
X8414468Y-12734246D02*
X8423992Y-12715198D01*
X8423992Y-12715198D02*
X8433516Y-12705674D01*
X8433516Y-12705674D02*
X8452563Y-12696150D01*
X8452563Y-12696150D02*
X8481135Y-12696150D01*
X8481135Y-12696150D02*
X8500182Y-12705674D01*
X8500182Y-12705674D02*
X8509706Y-12715198D01*
X8509706Y-12715198D02*
X8519230Y-12734246D01*
X8519230Y-12734246D02*
X8519230Y-12791388D01*
X8519230Y-12791388D02*
X8509706Y-12810436D01*
X8509706Y-12810436D02*
X8500182Y-12819960D01*
X8500182Y-12819960D02*
X8481135Y-12829484D01*
X8481135Y-12829484D02*
X8452563Y-12829484D01*
X8576373Y-12696150D02*
X8652563Y-12696150D01*
X8604944Y-12629484D02*
X8604944Y-12800912D01*
X8604944Y-12800912D02*
X8614468Y-12819960D01*
X8614468Y-12819960D02*
X8633516Y-12829484D01*
X8633516Y-12829484D02*
X8652563Y-12829484D01*
X8709706Y-12819960D02*
X8728754Y-12829484D01*
X8728754Y-12829484D02*
X8766849Y-12829484D01*
X8766849Y-12829484D02*
X8785897Y-12819960D01*
X8785897Y-12819960D02*
X8795420Y-12800912D01*
X8795420Y-12800912D02*
X8795420Y-12791388D01*
X8795420Y-12791388D02*
X8785897Y-12772341D01*
X8785897Y-12772341D02*
X8766849Y-12762817D01*
X8766849Y-12762817D02*
X8738277Y-12762817D01*
X8738277Y-12762817D02*
X8719230Y-12753293D01*
X8719230Y-12753293D02*
X8709706Y-12734246D01*
X8709706Y-12734246D02*
X8709706Y-12724722D01*
X8709706Y-12724722D02*
X8719230Y-12705674D01*
X8719230Y-12705674D02*
X8738277Y-12696150D01*
X8738277Y-12696150D02*
X8766849Y-12696150D01*
X8766849Y-12696150D02*
X8785897Y-12705674D01*
X8862087Y-12905674D02*
X8871611Y-12896150D01*
X8871611Y-12896150D02*
X8890658Y-12867579D01*
X8890658Y-12867579D02*
X8900182Y-12848531D01*
X8900182Y-12848531D02*
X8909706Y-12819960D01*
X8909706Y-12819960D02*
X8919230Y-12772341D01*
X8919230Y-12772341D02*
X8919230Y-12734246D01*
X8919230Y-12734246D02*
X8909706Y-12686627D01*
X8909706Y-12686627D02*
X8900182Y-12658055D01*
X8900182Y-12658055D02*
X8890658Y-12639008D01*
X8890658Y-12639008D02*
X8871611Y-12610436D01*
X8871611Y-12610436D02*
X8862087Y-12600912D01*
X2248211Y-13072711D02*
X2248211Y-12931289D01*
X2106789Y-12931289D01*
X2106789Y-13072711D01*
X2248211Y-13072711D01*
X2528753Y-12912531D02*
X2538277Y-12903008D01*
X2538277Y-12903008D02*
X2557324Y-12893484D01*
X2557324Y-12893484D02*
X2604944Y-12893484D01*
X2604944Y-12893484D02*
X2623991Y-12903008D01*
X2623991Y-12903008D02*
X2633515Y-12912531D01*
X2633515Y-12912531D02*
X2643039Y-12931579D01*
X2643039Y-12931579D02*
X2643039Y-12950627D01*
X2643039Y-12950627D02*
X2633515Y-12979198D01*
X2633515Y-12979198D02*
X2519229Y-13093484D01*
X2519229Y-13093484D02*
X2643039Y-13093484D01*
X2728753Y-13074436D02*
X2738277Y-13083960D01*
X2738277Y-13083960D02*
X2728753Y-13093484D01*
X2728753Y-13093484D02*
X2719229Y-13083960D01*
X2719229Y-13083960D02*
X2728753Y-13074436D01*
X2728753Y-13074436D02*
X2728753Y-13093484D01*
X2814467Y-12912531D02*
X2823991Y-12903008D01*
X2823991Y-12903008D02*
X2843039Y-12893484D01*
X2843039Y-12893484D02*
X2890658Y-12893484D01*
X2890658Y-12893484D02*
X2909705Y-12903008D01*
X2909705Y-12903008D02*
X2919229Y-12912531D01*
X2919229Y-12912531D02*
X2928753Y-12931579D01*
X2928753Y-12931579D02*
X2928753Y-12950627D01*
X2928753Y-12950627D02*
X2919229Y-12979198D01*
X2919229Y-12979198D02*
X2804943Y-13093484D01*
X2804943Y-13093484D02*
X2928753Y-13093484D01*
X3052562Y-12893484D02*
X3071610Y-12893484D01*
X3071610Y-12893484D02*
X3090658Y-12903008D01*
X3090658Y-12903008D02*
X3100182Y-12912531D01*
X3100182Y-12912531D02*
X3109705Y-12931579D01*
X3109705Y-12931579D02*
X3119229Y-12969674D01*
X3119229Y-12969674D02*
X3119229Y-13017293D01*
X3119229Y-13017293D02*
X3109705Y-13055388D01*
X3109705Y-13055388D02*
X3100182Y-13074436D01*
X3100182Y-13074436D02*
X3090658Y-13083960D01*
X3090658Y-13083960D02*
X3071610Y-13093484D01*
X3071610Y-13093484D02*
X3052562Y-13093484D01*
X3052562Y-13093484D02*
X3033515Y-13083960D01*
X3033515Y-13083960D02*
X3023991Y-13074436D01*
X3023991Y-13074436D02*
X3014467Y-13055388D01*
X3014467Y-13055388D02*
X3004943Y-13017293D01*
X3004943Y-13017293D02*
X3004943Y-12969674D01*
X3004943Y-12969674D02*
X3014467Y-12931579D01*
X3014467Y-12931579D02*
X3023991Y-12912531D01*
X3023991Y-12912531D02*
X3033515Y-12903008D01*
X3033515Y-12903008D02*
X3052562Y-12893484D01*
X3243039Y-12893484D02*
X3262086Y-12893484D01*
X3262086Y-12893484D02*
X3281134Y-12903008D01*
X3281134Y-12903008D02*
X3290658Y-12912531D01*
X3290658Y-12912531D02*
X3300182Y-12931579D01*
X3300182Y-12931579D02*
X3309705Y-12969674D01*
X3309705Y-12969674D02*
X3309705Y-13017293D01*
X3309705Y-13017293D02*
X3300182Y-13055388D01*
X3300182Y-13055388D02*
X3290658Y-13074436D01*
X3290658Y-13074436D02*
X3281134Y-13083960D01*
X3281134Y-13083960D02*
X3262086Y-13093484D01*
X3262086Y-13093484D02*
X3243039Y-13093484D01*
X3243039Y-13093484D02*
X3223991Y-13083960D01*
X3223991Y-13083960D02*
X3214467Y-13074436D01*
X3214467Y-13074436D02*
X3204943Y-13055388D01*
X3204943Y-13055388D02*
X3195420Y-13017293D01*
X3195420Y-13017293D02*
X3195420Y-12969674D01*
X3195420Y-12969674D02*
X3204943Y-12931579D01*
X3204943Y-12931579D02*
X3214467Y-12912531D01*
X3214467Y-12912531D02*
X3223991Y-12903008D01*
X3223991Y-12903008D02*
X3243039Y-12893484D01*
X3395420Y-13093484D02*
X3395420Y-12960150D01*
X3395420Y-12979198D02*
X3404943Y-12969674D01*
X3404943Y-12969674D02*
X3423991Y-12960150D01*
X3423991Y-12960150D02*
X3452563Y-12960150D01*
X3452563Y-12960150D02*
X3471610Y-12969674D01*
X3471610Y-12969674D02*
X3481134Y-12988722D01*
X3481134Y-12988722D02*
X3481134Y-13093484D01*
X3481134Y-12988722D02*
X3490658Y-12969674D01*
X3490658Y-12969674D02*
X3509705Y-12960150D01*
X3509705Y-12960150D02*
X3538277Y-12960150D01*
X3538277Y-12960150D02*
X3557324Y-12969674D01*
X3557324Y-12969674D02*
X3566848Y-12988722D01*
X3566848Y-12988722D02*
X3566848Y-13093484D01*
X3662086Y-13093484D02*
X3662086Y-12960150D01*
X3662086Y-12979198D02*
X3671610Y-12969674D01*
X3671610Y-12969674D02*
X3690658Y-12960150D01*
X3690658Y-12960150D02*
X3719229Y-12960150D01*
X3719229Y-12960150D02*
X3738277Y-12969674D01*
X3738277Y-12969674D02*
X3747801Y-12988722D01*
X3747801Y-12988722D02*
X3747801Y-13093484D01*
X3747801Y-12988722D02*
X3757324Y-12969674D01*
X3757324Y-12969674D02*
X3776372Y-12960150D01*
X3776372Y-12960150D02*
X3804943Y-12960150D01*
X3804943Y-12960150D02*
X3823991Y-12969674D01*
X3823991Y-12969674D02*
X3833515Y-12988722D01*
X3833515Y-12988722D02*
X3833515Y-13093484D01*
X4223991Y-12883960D02*
X4052563Y-13141103D01*
X4481134Y-12893484D02*
X4500182Y-12893484D01*
X4500182Y-12893484D02*
X4519229Y-12903008D01*
X4519229Y-12903008D02*
X4528753Y-12912531D01*
X4528753Y-12912531D02*
X4538277Y-12931579D01*
X4538277Y-12931579D02*
X4547801Y-12969674D01*
X4547801Y-12969674D02*
X4547801Y-13017293D01*
X4547801Y-13017293D02*
X4538277Y-13055388D01*
X4538277Y-13055388D02*
X4528753Y-13074436D01*
X4528753Y-13074436D02*
X4519229Y-13083960D01*
X4519229Y-13083960D02*
X4500182Y-13093484D01*
X4500182Y-13093484D02*
X4481134Y-13093484D01*
X4481134Y-13093484D02*
X4462087Y-13083960D01*
X4462087Y-13083960D02*
X4452563Y-13074436D01*
X4452563Y-13074436D02*
X4443039Y-13055388D01*
X4443039Y-13055388D02*
X4433515Y-13017293D01*
X4433515Y-13017293D02*
X4433515Y-12969674D01*
X4433515Y-12969674D02*
X4443039Y-12931579D01*
X4443039Y-12931579D02*
X4452563Y-12912531D01*
X4452563Y-12912531D02*
X4462087Y-12903008D01*
X4462087Y-12903008D02*
X4481134Y-12893484D01*
X4633515Y-13074436D02*
X4643039Y-13083960D01*
X4643039Y-13083960D02*
X4633515Y-13093484D01*
X4633515Y-13093484D02*
X4623991Y-13083960D01*
X4623991Y-13083960D02*
X4633515Y-13074436D01*
X4633515Y-13074436D02*
X4633515Y-13093484D01*
X4766848Y-12893484D02*
X4785896Y-12893484D01*
X4785896Y-12893484D02*
X4804944Y-12903008D01*
X4804944Y-12903008D02*
X4814468Y-12912531D01*
X4814468Y-12912531D02*
X4823991Y-12931579D01*
X4823991Y-12931579D02*
X4833515Y-12969674D01*
X4833515Y-12969674D02*
X4833515Y-13017293D01*
X4833515Y-13017293D02*
X4823991Y-13055388D01*
X4823991Y-13055388D02*
X4814468Y-13074436D01*
X4814468Y-13074436D02*
X4804944Y-13083960D01*
X4804944Y-13083960D02*
X4785896Y-13093484D01*
X4785896Y-13093484D02*
X4766848Y-13093484D01*
X4766848Y-13093484D02*
X4747801Y-13083960D01*
X4747801Y-13083960D02*
X4738277Y-13074436D01*
X4738277Y-13074436D02*
X4728753Y-13055388D01*
X4728753Y-13055388D02*
X4719229Y-13017293D01*
X4719229Y-13017293D02*
X4719229Y-12969674D01*
X4719229Y-12969674D02*
X4728753Y-12931579D01*
X4728753Y-12931579D02*
X4738277Y-12912531D01*
X4738277Y-12912531D02*
X4747801Y-12903008D01*
X4747801Y-12903008D02*
X4766848Y-12893484D01*
X4947801Y-12979198D02*
X4928753Y-12969674D01*
X4928753Y-12969674D02*
X4919229Y-12960150D01*
X4919229Y-12960150D02*
X4909706Y-12941103D01*
X4909706Y-12941103D02*
X4909706Y-12931579D01*
X4909706Y-12931579D02*
X4919229Y-12912531D01*
X4919229Y-12912531D02*
X4928753Y-12903008D01*
X4928753Y-12903008D02*
X4947801Y-12893484D01*
X4947801Y-12893484D02*
X4985896Y-12893484D01*
X4985896Y-12893484D02*
X5004944Y-12903008D01*
X5004944Y-12903008D02*
X5014468Y-12912531D01*
X5014468Y-12912531D02*
X5023991Y-12931579D01*
X5023991Y-12931579D02*
X5023991Y-12941103D01*
X5023991Y-12941103D02*
X5014468Y-12960150D01*
X5014468Y-12960150D02*
X5004944Y-12969674D01*
X5004944Y-12969674D02*
X4985896Y-12979198D01*
X4985896Y-12979198D02*
X4947801Y-12979198D01*
X4947801Y-12979198D02*
X4928753Y-12988722D01*
X4928753Y-12988722D02*
X4919229Y-12998246D01*
X4919229Y-12998246D02*
X4909706Y-13017293D01*
X4909706Y-13017293D02*
X4909706Y-13055388D01*
X4909706Y-13055388D02*
X4919229Y-13074436D01*
X4919229Y-13074436D02*
X4928753Y-13083960D01*
X4928753Y-13083960D02*
X4947801Y-13093484D01*
X4947801Y-13093484D02*
X4985896Y-13093484D01*
X4985896Y-13093484D02*
X5004944Y-13083960D01*
X5004944Y-13083960D02*
X5014468Y-13074436D01*
X5014468Y-13074436D02*
X5023991Y-13055388D01*
X5023991Y-13055388D02*
X5023991Y-13017293D01*
X5023991Y-13017293D02*
X5014468Y-12998246D01*
X5014468Y-12998246D02*
X5004944Y-12988722D01*
X5004944Y-12988722D02*
X4985896Y-12979198D01*
X5195420Y-12893484D02*
X5157325Y-12893484D01*
X5157325Y-12893484D02*
X5138277Y-12903008D01*
X5138277Y-12903008D02*
X5128753Y-12912531D01*
X5128753Y-12912531D02*
X5109706Y-12941103D01*
X5109706Y-12941103D02*
X5100182Y-12979198D01*
X5100182Y-12979198D02*
X5100182Y-13055388D01*
X5100182Y-13055388D02*
X5109706Y-13074436D01*
X5109706Y-13074436D02*
X5119229Y-13083960D01*
X5119229Y-13083960D02*
X5138277Y-13093484D01*
X5138277Y-13093484D02*
X5176372Y-13093484D01*
X5176372Y-13093484D02*
X5195420Y-13083960D01*
X5195420Y-13083960D02*
X5204944Y-13074436D01*
X5204944Y-13074436D02*
X5214468Y-13055388D01*
X5214468Y-13055388D02*
X5214468Y-13007769D01*
X5214468Y-13007769D02*
X5204944Y-12988722D01*
X5204944Y-12988722D02*
X5195420Y-12979198D01*
X5195420Y-12979198D02*
X5176372Y-12969674D01*
X5176372Y-12969674D02*
X5138277Y-12969674D01*
X5138277Y-12969674D02*
X5119229Y-12979198D01*
X5119229Y-12979198D02*
X5109706Y-12988722D01*
X5109706Y-12988722D02*
X5100182Y-13007769D01*
X5385896Y-12893484D02*
X5347801Y-12893484D01*
X5347801Y-12893484D02*
X5328753Y-12903008D01*
X5328753Y-12903008D02*
X5319229Y-12912531D01*
X5319229Y-12912531D02*
X5300182Y-12941103D01*
X5300182Y-12941103D02*
X5290658Y-12979198D01*
X5290658Y-12979198D02*
X5290658Y-13055388D01*
X5290658Y-13055388D02*
X5300182Y-13074436D01*
X5300182Y-13074436D02*
X5309706Y-13083960D01*
X5309706Y-13083960D02*
X5328753Y-13093484D01*
X5328753Y-13093484D02*
X5366849Y-13093484D01*
X5366849Y-13093484D02*
X5385896Y-13083960D01*
X5385896Y-13083960D02*
X5395420Y-13074436D01*
X5395420Y-13074436D02*
X5404944Y-13055388D01*
X5404944Y-13055388D02*
X5404944Y-13007769D01*
X5404944Y-13007769D02*
X5395420Y-12988722D01*
X5395420Y-12988722D02*
X5385896Y-12979198D01*
X5385896Y-12979198D02*
X5366849Y-12969674D01*
X5366849Y-12969674D02*
X5328753Y-12969674D01*
X5328753Y-12969674D02*
X5309706Y-12979198D01*
X5309706Y-12979198D02*
X5300182Y-12988722D01*
X5300182Y-12988722D02*
X5290658Y-13007769D01*
X5481134Y-12893484D02*
X5481134Y-12931579D01*
X5557325Y-12893484D02*
X5557325Y-12931579D01*
X5852563Y-13169674D02*
X5843039Y-13160150D01*
X5843039Y-13160150D02*
X5823991Y-13131579D01*
X5823991Y-13131579D02*
X5814468Y-13112531D01*
X5814468Y-13112531D02*
X5804944Y-13083960D01*
X5804944Y-13083960D02*
X5795420Y-13036341D01*
X5795420Y-13036341D02*
X5795420Y-12998246D01*
X5795420Y-12998246D02*
X5804944Y-12950627D01*
X5804944Y-12950627D02*
X5814468Y-12922055D01*
X5814468Y-12922055D02*
X5823991Y-12903008D01*
X5823991Y-12903008D02*
X5843039Y-12874436D01*
X5843039Y-12874436D02*
X5852563Y-12864912D01*
X6033515Y-13093484D02*
X5919229Y-13093484D01*
X5976372Y-13093484D02*
X5976372Y-12893484D01*
X5976372Y-12893484D02*
X5957325Y-12922055D01*
X5957325Y-12922055D02*
X5938277Y-12941103D01*
X5938277Y-12941103D02*
X5919229Y-12950627D01*
X6271610Y-13093484D02*
X6271610Y-12893484D01*
X6357325Y-13093484D02*
X6357325Y-12988722D01*
X6357325Y-12988722D02*
X6347801Y-12969674D01*
X6347801Y-12969674D02*
X6328753Y-12960150D01*
X6328753Y-12960150D02*
X6300182Y-12960150D01*
X6300182Y-12960150D02*
X6281134Y-12969674D01*
X6281134Y-12969674D02*
X6271610Y-12979198D01*
X6481134Y-13093484D02*
X6462087Y-13083960D01*
X6462087Y-13083960D02*
X6452563Y-13074436D01*
X6452563Y-13074436D02*
X6443039Y-13055388D01*
X6443039Y-13055388D02*
X6443039Y-12998246D01*
X6443039Y-12998246D02*
X6452563Y-12979198D01*
X6452563Y-12979198D02*
X6462087Y-12969674D01*
X6462087Y-12969674D02*
X6481134Y-12960150D01*
X6481134Y-12960150D02*
X6509706Y-12960150D01*
X6509706Y-12960150D02*
X6528753Y-12969674D01*
X6528753Y-12969674D02*
X6538277Y-12979198D01*
X6538277Y-12979198D02*
X6547801Y-12998246D01*
X6547801Y-12998246D02*
X6547801Y-13055388D01*
X6547801Y-13055388D02*
X6538277Y-13074436D01*
X6538277Y-13074436D02*
X6528753Y-13083960D01*
X6528753Y-13083960D02*
X6509706Y-13093484D01*
X6509706Y-13093484D02*
X6481134Y-13093484D01*
X6662087Y-13093484D02*
X6643039Y-13083960D01*
X6643039Y-13083960D02*
X6633515Y-13064912D01*
X6633515Y-13064912D02*
X6633515Y-12893484D01*
X6814468Y-13083960D02*
X6795420Y-13093484D01*
X6795420Y-13093484D02*
X6757325Y-13093484D01*
X6757325Y-13093484D02*
X6738277Y-13083960D01*
X6738277Y-13083960D02*
X6728753Y-13064912D01*
X6728753Y-13064912D02*
X6728753Y-12988722D01*
X6728753Y-12988722D02*
X6738277Y-12969674D01*
X6738277Y-12969674D02*
X6757325Y-12960150D01*
X6757325Y-12960150D02*
X6795420Y-12960150D01*
X6795420Y-12960150D02*
X6814468Y-12969674D01*
X6814468Y-12969674D02*
X6823991Y-12988722D01*
X6823991Y-12988722D02*
X6823991Y-13007769D01*
X6823991Y-13007769D02*
X6728753Y-13026817D01*
X6890658Y-13169674D02*
X6900182Y-13160150D01*
X6900182Y-13160150D02*
X6919230Y-13131579D01*
X6919230Y-13131579D02*
X6928753Y-13112531D01*
X6928753Y-13112531D02*
X6938277Y-13083960D01*
X6938277Y-13083960D02*
X6947801Y-13036341D01*
X6947801Y-13036341D02*
X6947801Y-12998246D01*
X6947801Y-12998246D02*
X6938277Y-12950627D01*
X6938277Y-12950627D02*
X6928753Y-12922055D01*
X6928753Y-12922055D02*
X6919230Y-12903008D01*
X6919230Y-12903008D02*
X6900182Y-12874436D01*
X6900182Y-12874436D02*
X6890658Y-12864912D01*
M02*
