%TF.GenerationSoftware,KiCad,Pcbnew,7.0.10*%
%TF.CreationDate,2024-06-09T02:47:37+01:00*%
%TF.ProjectId,Electron-PS2Slim,456c6563-7472-46f6-9e2d-505332536c69,rev?*%
%TF.SameCoordinates,Original*%
%TF.FileFunction,Copper,L1,Top*%
%TF.FilePolarity,Positive*%
%FSLAX46Y46*%
G04 Gerber Fmt 4.6, Leading zero omitted, Abs format (unit mm)*
G04 Created by KiCad (PCBNEW 7.0.10) date 2024-06-09 02:47:37*
%MOMM*%
%LPD*%
G01*
G04 APERTURE LIST*
G04 Aperture macros list*
%AMRoundRect*
0 Rectangle with rounded corners*
0 $1 Rounding radius*
0 $2 $3 $4 $5 $6 $7 $8 $9 X,Y pos of 4 corners*
0 Add a 4 corners polygon primitive as box body*
4,1,4,$2,$3,$4,$5,$6,$7,$8,$9,$2,$3,0*
0 Add four circle primitives for the rounded corners*
1,1,$1+$1,$2,$3*
1,1,$1+$1,$4,$5*
1,1,$1+$1,$6,$7*
1,1,$1+$1,$8,$9*
0 Add four rect primitives between the rounded corners*
20,1,$1+$1,$2,$3,$4,$5,0*
20,1,$1+$1,$4,$5,$6,$7,0*
20,1,$1+$1,$6,$7,$8,$9,0*
20,1,$1+$1,$8,$9,$2,$3,0*%
%AMFreePoly0*
4,1,9,3.862500,-0.866500,0.737500,-0.866500,0.737500,-0.450000,-0.737500,-0.450000,-0.737500,0.450000,0.737500,0.450000,0.737500,0.866500,3.862500,0.866500,3.862500,-0.866500,3.862500,-0.866500,$1*%
G04 Aperture macros list end*
%TA.AperFunction,SMDPad,CuDef*%
%ADD10R,1.200000X0.900000*%
%TD*%
%TA.AperFunction,SMDPad,CuDef*%
%ADD11R,1.300000X0.900000*%
%TD*%
%TA.AperFunction,SMDPad,CuDef*%
%ADD12FreePoly0,180.000000*%
%TD*%
%TA.AperFunction,ComponentPad*%
%ADD13C,3.800000*%
%TD*%
%TA.AperFunction,SMDPad,CuDef*%
%ADD14RoundRect,0.250000X-0.250000X-0.475000X0.250000X-0.475000X0.250000X0.475000X-0.250000X0.475000X0*%
%TD*%
%TA.AperFunction,SMDPad,CuDef*%
%ADD15RoundRect,0.250000X0.450000X-0.262500X0.450000X0.262500X-0.450000X0.262500X-0.450000X-0.262500X0*%
%TD*%
%TA.AperFunction,SMDPad,CuDef*%
%ADD16RoundRect,0.250000X-0.375000X-0.625000X0.375000X-0.625000X0.375000X0.625000X-0.375000X0.625000X0*%
%TD*%
%TA.AperFunction,SMDPad,CuDef*%
%ADD17R,1.500000X0.550000*%
%TD*%
%TA.AperFunction,SMDPad,CuDef*%
%ADD18R,0.550000X1.500000*%
%TD*%
%TA.AperFunction,SMDPad,CuDef*%
%ADD19RoundRect,0.250000X-0.475000X0.250000X-0.475000X-0.250000X0.475000X-0.250000X0.475000X0.250000X0*%
%TD*%
%TA.AperFunction,SMDPad,CuDef*%
%ADD20RoundRect,0.250000X-0.450000X0.262500X-0.450000X-0.262500X0.450000X-0.262500X0.450000X0.262500X0*%
%TD*%
%TA.AperFunction,SMDPad,CuDef*%
%ADD21R,1.600000X0.550000*%
%TD*%
%TA.AperFunction,SMDPad,CuDef*%
%ADD22R,0.550000X1.600000*%
%TD*%
%TA.AperFunction,ComponentPad*%
%ADD23R,1.700000X1.700000*%
%TD*%
%TA.AperFunction,ComponentPad*%
%ADD24O,1.700000X1.700000*%
%TD*%
%TA.AperFunction,ComponentPad*%
%ADD25R,1.600000X1.600000*%
%TD*%
%TA.AperFunction,ComponentPad*%
%ADD26C,1.600000*%
%TD*%
%TA.AperFunction,ComponentPad*%
%ADD27O,3.500000X2.000000*%
%TD*%
%TA.AperFunction,ComponentPad*%
%ADD28O,2.000000X4.000000*%
%TD*%
%TA.AperFunction,ComponentPad*%
%ADD29C,1.500000*%
%TD*%
%TA.AperFunction,ViaPad*%
%ADD30C,0.800000*%
%TD*%
%TA.AperFunction,Conductor*%
%ADD31C,0.400000*%
%TD*%
%TA.AperFunction,Conductor*%
%ADD32C,0.250000*%
%TD*%
%TA.AperFunction,Conductor*%
%ADD33C,0.500000*%
%TD*%
G04 APERTURE END LIST*
D10*
%TO.P,D6,1,K*%
%TO.N,/A8*%
X83275000Y-106875000D03*
%TO.P,D6,2,A*%
%TO.N,/COL5*%
X83275000Y-103575000D03*
%TD*%
D11*
%TO.P,Q1,1,B*%
%TO.N,Net-(Q1-B)*%
X56025000Y-100587500D03*
D12*
%TO.P,Q1,2,C*%
%TO.N,!RST*%
X55937500Y-99087500D03*
D11*
%TO.P,Q1,3,E*%
%TO.N,GND*%
X56025000Y-97587500D03*
%TD*%
D10*
%TO.P,D7,1,K*%
%TO.N,/A7*%
X85375000Y-106875000D03*
%TO.P,D7,2,A*%
%TO.N,/COL6*%
X85375000Y-103575000D03*
%TD*%
D13*
%TO.P,H9,1,1*%
%TO.N,GND*%
X38575000Y-96225000D03*
%TD*%
D14*
%TO.P,C802,1*%
%TO.N,Net-(IC800-AREF)*%
X55150000Y-93650000D03*
%TO.P,C802,2*%
%TO.N,GND*%
X57050000Y-93650000D03*
%TD*%
D15*
%TO.P,R18,1*%
%TO.N,Net-(D15-A)*%
X50625000Y-104250000D03*
%TO.P,R18,2*%
%TO.N,+5V*%
X50625000Y-102425000D03*
%TD*%
D10*
%TO.P,D9,1,K*%
%TO.N,/A5*%
X89625000Y-106875000D03*
%TO.P,D9,2,A*%
%TO.N,/COL8*%
X89625000Y-103575000D03*
%TD*%
D16*
%TO.P,D17,1,K*%
%TO.N,CAPSLOCK*%
X58535000Y-106287500D03*
%TO.P,D17,2,A*%
%TO.N,Net-(D17-A)*%
X61335000Y-106287500D03*
%TD*%
D10*
%TO.P,D8,1,K*%
%TO.N,/A6*%
X87500000Y-106875000D03*
%TO.P,D8,2,A*%
%TO.N,/COL7*%
X87500000Y-103575000D03*
%TD*%
D17*
%TO.P,IC803,1,N/C*%
%TO.N,unconnected-(IC803-N{slash}C-Pad1)*%
X73500000Y-98425000D03*
%TO.P,IC803,2,X14*%
%TO.N,/COL14*%
X73500000Y-97625000D03*
%TO.P,IC803,3,X15*%
%TO.N,/COL15*%
X73500000Y-96825000D03*
%TO.P,IC803,4,X6*%
%TO.N,/COL6*%
X73500000Y-96025000D03*
%TO.P,IC803,5,X7*%
%TO.N,/COL7*%
X73500000Y-95225000D03*
%TO.P,IC803,6,X8*%
%TO.N,/COL8*%
X73500000Y-94425000D03*
%TO.P,IC803,7,X9*%
%TO.N,/COL9*%
X73500000Y-93625000D03*
%TO.P,IC803,8,X10*%
%TO.N,/COL10*%
X73500000Y-92825000D03*
%TO.P,IC803,9,X11*%
%TO.N,/COL11*%
X73500000Y-92025000D03*
%TO.P,IC803,10,Y7*%
%TO.N,/ROW7*%
X73500000Y-91225000D03*
%TO.P,IC803,11,N/C*%
%TO.N,unconnected-(IC803-N{slash}C-Pad11)*%
X73500000Y-90425000D03*
D18*
%TO.P,IC803,12,VSS*%
%TO.N,GND*%
X71800000Y-88725000D03*
%TO.P,IC803,13,Y6*%
%TO.N,/ROW6*%
X71000000Y-88725000D03*
%TO.P,IC803,14,STROBE*%
%TO.N,MTSTROBE*%
X70200000Y-88725000D03*
%TO.P,IC803,15,Y5*%
%TO.N,/ROW5*%
X69400000Y-88725000D03*
%TO.P,IC803,16,VEE*%
%TO.N,GND*%
X68600000Y-88725000D03*
%TO.P,IC803,17,Y4*%
%TO.N,/ROW4*%
X67800000Y-88725000D03*
%TO.P,IC803,18,AX1*%
%TO.N,AX1*%
X67000000Y-88725000D03*
%TO.P,IC803,19,AX2*%
%TO.N,AX2*%
X66200000Y-88725000D03*
%TO.P,IC803,20,AY0*%
%TO.N,AY0*%
X65400000Y-88725000D03*
%TO.P,IC803,21,AY1*%
%TO.N,AY1*%
X64600000Y-88725000D03*
%TO.P,IC803,22,N/C*%
%TO.N,unconnected-(IC803-N{slash}C-Pad22)*%
X63800000Y-88725000D03*
D17*
%TO.P,IC803,23,N/C*%
%TO.N,unconnected-(IC803-N{slash}C-Pad23)*%
X62100000Y-90425000D03*
%TO.P,IC803,24,X13*%
%TO.N,/COL13*%
X62100000Y-91225000D03*
%TO.P,IC803,25,X12*%
%TO.N,/COL12*%
X62100000Y-92025000D03*
%TO.P,IC803,26,X5*%
%TO.N,/COL5*%
X62100000Y-92825000D03*
%TO.P,IC803,27,X4*%
%TO.N,/COL4*%
X62100000Y-93625000D03*
%TO.P,IC803,28,X3*%
%TO.N,/COL3*%
X62100000Y-94425000D03*
%TO.P,IC803,29,X2*%
%TO.N,/COL2*%
X62100000Y-95225000D03*
%TO.P,IC803,30,X1*%
%TO.N,/COL1*%
X62100000Y-96025000D03*
%TO.P,IC803,31,X0*%
%TO.N,/COL0*%
X62100000Y-96825000D03*
%TO.P,IC803,32,Y0*%
%TO.N,/ROW0*%
X62100000Y-97625000D03*
%TO.P,IC803,33,N/C*%
%TO.N,unconnected-(IC803-N{slash}C-Pad33)*%
X62100000Y-98425000D03*
D18*
%TO.P,IC803,34,CS*%
%TO.N,+5V*%
X63800000Y-100125000D03*
%TO.P,IC803,35,Y1*%
%TO.N,/ROW1*%
X64600000Y-100125000D03*
%TO.P,IC803,36,DATA*%
%TO.N,MTDATA*%
X65400000Y-100125000D03*
%TO.P,IC803,37,Y2*%
%TO.N,/ROW2*%
X66200000Y-100125000D03*
%TO.P,IC803,38,VCC*%
%TO.N,+5V*%
X67000000Y-100125000D03*
%TO.P,IC803,39,Y3*%
%TO.N,/ROW3*%
X67800000Y-100125000D03*
%TO.P,IC803,40,AY2*%
%TO.N,AY2*%
X68600000Y-100125000D03*
%TO.P,IC803,41,N/C*%
%TO.N,unconnected-(IC803-N{slash}C-Pad41)*%
X69400000Y-100125000D03*
%TO.P,IC803,42,RESET*%
%TO.N,ADSCK*%
X70200000Y-100125000D03*
%TO.P,IC803,43,AX3*%
%TO.N,ADMOSI*%
X71000000Y-100125000D03*
%TO.P,IC803,44,AX0*%
%TO.N,AX0*%
X71800000Y-100125000D03*
%TD*%
D19*
%TO.P,C806,1*%
%TO.N,GND*%
X59350000Y-98925000D03*
%TO.P,C806,2*%
%TO.N,+5V*%
X59350000Y-100825000D03*
%TD*%
D15*
%TO.P,R3,1*%
%TO.N,/ROW1*%
X66050000Y-106700000D03*
%TO.P,R3,2*%
%TO.N,+5V*%
X66050000Y-104875000D03*
%TD*%
%TO.P,R4,1*%
%TO.N,/ROW2*%
X68200000Y-106700000D03*
%TO.P,R4,2*%
%TO.N,+5V*%
X68200000Y-104875000D03*
%TD*%
D20*
%TO.P,R17,1*%
%TO.N,Net-(Q1-B)*%
X56025000Y-102425000D03*
%TO.P,R17,2*%
%TO.N,Net-(D16-A)*%
X56025000Y-104250000D03*
%TD*%
D10*
%TO.P,D14,1,K*%
%TO.N,/A4*%
X100200000Y-106875000D03*
%TO.P,D14,2,A*%
%TO.N,/COL13*%
X100200000Y-103575000D03*
%TD*%
D19*
%TO.P,C807,1*%
%TO.N,GND*%
X44450000Y-98300000D03*
%TO.P,C807,2*%
%TO.N,+5V*%
X44450000Y-100200000D03*
%TD*%
D10*
%TO.P,D3,1,K*%
%TO.N,/A11*%
X76925000Y-106875000D03*
%TO.P,D3,2,A*%
%TO.N,/COL2*%
X76925000Y-103575000D03*
%TD*%
D19*
%TO.P,C801,1*%
%TO.N,Net-(IC800-XTAL2{slash}PB7)*%
X41975000Y-94850000D03*
%TO.P,C801,2*%
%TO.N,GND*%
X41975000Y-96750000D03*
%TD*%
D10*
%TO.P,D5,1,K*%
%TO.N,/A9*%
X81150000Y-106875000D03*
%TO.P,D5,2,A*%
%TO.N,/COL4*%
X81150000Y-103575000D03*
%TD*%
D16*
%TO.P,D16,1,K*%
%TO.N,GND*%
X53225000Y-106287500D03*
%TO.P,D16,2,A*%
%TO.N,Net-(D16-A)*%
X56025000Y-106287500D03*
%TD*%
D21*
%TO.P,IC800,1,PD3*%
%TO.N,PS2-CLK*%
X44150000Y-85900000D03*
%TO.P,IC800,2,PD4*%
%TO.N,MTSTROBE*%
X44150000Y-86700000D03*
%TO.P,IC800,3,GND*%
%TO.N,GND*%
X44150000Y-87500000D03*
%TO.P,IC800,4,VCC*%
%TO.N,+5V*%
X44150000Y-88300000D03*
%TO.P,IC800,5,GND*%
%TO.N,GND*%
X44150000Y-89100000D03*
%TO.P,IC800,6,VCC*%
%TO.N,+5V*%
X44150000Y-89900000D03*
%TO.P,IC800,7,XTAL1/PB6*%
%TO.N,Net-(IC800-XTAL1{slash}PB6)*%
X44150000Y-90700000D03*
%TO.P,IC800,8,XTAL2/PB7*%
%TO.N,Net-(IC800-XTAL2{slash}PB7)*%
X44150000Y-91500000D03*
D22*
%TO.P,IC800,9,PD5*%
%TO.N,AY2*%
X45600000Y-92950000D03*
%TO.P,IC800,10,PD6*%
%TO.N,AY1*%
X46400000Y-92950000D03*
%TO.P,IC800,11,PD7*%
%TO.N,AY0*%
X47200000Y-92950000D03*
%TO.P,IC800,12,PB0*%
%TO.N,AX2*%
X48000000Y-92950000D03*
%TO.P,IC800,13,PB1*%
%TO.N,AX1*%
X48800000Y-92950000D03*
%TO.P,IC800,14,PB2*%
%TO.N,AX0*%
X49600000Y-92950000D03*
%TO.P,IC800,15,PB3*%
%TO.N,ADMOSI*%
X50400000Y-92950000D03*
%TO.P,IC800,16,PB4*%
%TO.N,ADMISO*%
X51200000Y-92950000D03*
D21*
%TO.P,IC800,17,PB5*%
%TO.N,ADSCK*%
X52650000Y-91500000D03*
%TO.P,IC800,18,AVCC*%
%TO.N,+5V*%
X52650000Y-90700000D03*
%TO.P,IC800,19,ADC6*%
%TO.N,/AA6*%
X52650000Y-89900000D03*
%TO.P,IC800,20,AREF*%
%TO.N,Net-(IC800-AREF)*%
X52650000Y-89100000D03*
%TO.P,IC800,21,GND*%
%TO.N,GND*%
X52650000Y-88300000D03*
%TO.P,IC800,22,ADC7*%
%TO.N,/AA7*%
X52650000Y-87500000D03*
%TO.P,IC800,23,PC0*%
%TO.N,BREAK*%
X52650000Y-86700000D03*
%TO.P,IC800,24,PC1*%
%TO.N,/AA1*%
X52650000Y-85900000D03*
D22*
%TO.P,IC800,25,PC2*%
%TO.N,/AA2*%
X51200000Y-84450000D03*
%TO.P,IC800,26,PC3*%
%TO.N,/AA3*%
X50400000Y-84450000D03*
%TO.P,IC800,27,PC4*%
%TO.N,/AA4*%
X49600000Y-84450000D03*
%TO.P,IC800,28,PC5*%
%TO.N,/AA5*%
X48800000Y-84450000D03*
%TO.P,IC800,29,~{RESET}/PC6*%
%TO.N,ADRESET*%
X48000000Y-84450000D03*
%TO.P,IC800,30,PD0*%
%TO.N,/AD0*%
X47200000Y-84450000D03*
%TO.P,IC800,31,PD1*%
%TO.N,/AD1*%
X46400000Y-84450000D03*
%TO.P,IC800,32,PD2*%
%TO.N,MTDATA*%
X45600000Y-84450000D03*
%TD*%
D19*
%TO.P,C800,1*%
%TO.N,Net-(IC800-XTAL1{slash}PB6)*%
X44025000Y-94850000D03*
%TO.P,C800,2*%
%TO.N,GND*%
X44025000Y-96750000D03*
%TD*%
D10*
%TO.P,D12,1,K*%
%TO.N,/A2*%
X96000000Y-106875000D03*
%TO.P,D12,2,A*%
%TO.N,/COL11*%
X96000000Y-103575000D03*
%TD*%
D23*
%TO.P,CP1,1,Pin_1*%
%TO.N,!RST*%
X48755000Y-113650000D03*
D24*
%TO.P,CP1,2,Pin_2*%
%TO.N,CAPSLOCK*%
X51295000Y-113650000D03*
%TO.P,CP1,3,Pin_3*%
%TO.N,GND*%
X53835000Y-113650000D03*
%TO.P,CP1,4,Pin_4*%
%TO.N,+5V*%
X56375000Y-113650000D03*
%TO.P,CP1,5,Pin_5*%
%TO.N,/ROW0*%
X58915000Y-113650000D03*
%TO.P,CP1,6,Pin_6*%
%TO.N,/ROW1*%
X61455000Y-113650000D03*
%TO.P,CP1,7,Pin_7*%
%TO.N,/ROW2*%
X63995000Y-113650000D03*
%TO.P,CP1,8,Pin_8*%
%TO.N,/ROW3*%
X66535000Y-113650000D03*
%TO.P,CP1,9,Pin_9*%
%TO.N,/A13*%
X69075000Y-113650000D03*
%TO.P,CP1,10,Pin_10*%
%TO.N,/A12*%
X71615000Y-113650000D03*
%TO.P,CP1,11,Pin_11*%
%TO.N,/A11*%
X74155000Y-113650000D03*
%TO.P,CP1,12,Pin_12*%
%TO.N,/A10*%
X76695000Y-113650000D03*
%TO.P,CP1,13,Pin_13*%
%TO.N,/A9*%
X79235000Y-113650000D03*
%TO.P,CP1,14,Pin_14*%
%TO.N,/A8*%
X81775000Y-113650000D03*
%TO.P,CP1,15,Pin_15*%
%TO.N,/A7*%
X84315000Y-113650000D03*
%TO.P,CP1,16,Pin_16*%
%TO.N,/A6*%
X86855000Y-113650000D03*
%TO.P,CP1,17,Pin_17*%
%TO.N,/A5*%
X89395000Y-113650000D03*
%TO.P,CP1,18,Pin_18*%
%TO.N,/A0*%
X91935000Y-113650000D03*
%TO.P,CP1,19,Pin_19*%
%TO.N,/A1*%
X94475000Y-113650000D03*
%TO.P,CP1,20,Pin_20*%
%TO.N,/A2*%
X97015000Y-113650000D03*
%TO.P,CP1,21,Pin_21*%
%TO.N,/A3*%
X99555000Y-113650000D03*
%TO.P,CP1,22,Pin_22*%
%TO.N,/A4*%
X102095000Y-113650000D03*
%TD*%
D20*
%TO.P,R804,1*%
%TO.N,+5V*%
X59350000Y-102425000D03*
%TO.P,R804,2*%
%TO.N,ADRESET*%
X59350000Y-104250000D03*
%TD*%
D15*
%TO.P,R16,1*%
%TO.N,Net-(D16-A)*%
X54050000Y-104250000D03*
%TO.P,R16,2*%
%TO.N,BREAK*%
X54050000Y-102425000D03*
%TD*%
%TO.P,R5,1*%
%TO.N,/ROW3*%
X70350000Y-106700000D03*
%TO.P,R5,2*%
%TO.N,+5V*%
X70350000Y-104875000D03*
%TD*%
%TO.P,R2,1*%
%TO.N,/ROW0*%
X63900000Y-106700000D03*
%TO.P,R2,2*%
%TO.N,+5V*%
X63900000Y-104875000D03*
%TD*%
D10*
%TO.P,D4,1,K*%
%TO.N,/A10*%
X79050000Y-106875000D03*
%TO.P,D4,2,A*%
%TO.N,/COL3*%
X79050000Y-103575000D03*
%TD*%
%TO.P,D13,1,K*%
%TO.N,/A3*%
X98100000Y-106875000D03*
%TO.P,D13,2,A*%
%TO.N,/COL12*%
X98100000Y-103575000D03*
%TD*%
%TO.P,D10,1,K*%
%TO.N,/A0*%
X91750000Y-106875000D03*
%TO.P,D10,2,A*%
%TO.N,/COL9*%
X91750000Y-103575000D03*
%TD*%
D23*
%TO.P,CP2,1,Pin_1*%
%TO.N,!RST*%
X48755000Y-109550000D03*
D24*
%TO.P,CP2,2,Pin_2*%
%TO.N,CAPSLOCK*%
X51295000Y-109550000D03*
%TO.P,CP2,3,Pin_3*%
%TO.N,GND*%
X53835000Y-109550000D03*
%TO.P,CP2,4,Pin_4*%
%TO.N,+5V*%
X56375000Y-109550000D03*
%TO.P,CP2,5,Pin_5*%
%TO.N,/ROW0*%
X58915000Y-109550000D03*
%TO.P,CP2,6,Pin_6*%
%TO.N,/ROW1*%
X61455000Y-109550000D03*
%TO.P,CP2,7,Pin_7*%
%TO.N,/ROW2*%
X63995000Y-109550000D03*
%TO.P,CP2,8,Pin_8*%
%TO.N,/ROW3*%
X66535000Y-109550000D03*
%TO.P,CP2,9,Pin_9*%
%TO.N,/A13*%
X69075000Y-109550000D03*
%TO.P,CP2,10,Pin_10*%
%TO.N,/A12*%
X71615000Y-109550000D03*
%TO.P,CP2,11,Pin_11*%
%TO.N,/A11*%
X74155000Y-109550000D03*
%TO.P,CP2,12,Pin_12*%
%TO.N,/A10*%
X76695000Y-109550000D03*
%TO.P,CP2,13,Pin_13*%
%TO.N,/A9*%
X79235000Y-109550000D03*
%TO.P,CP2,14,Pin_14*%
%TO.N,/A8*%
X81775000Y-109550000D03*
%TO.P,CP2,15,Pin_15*%
%TO.N,/A7*%
X84315000Y-109550000D03*
%TO.P,CP2,16,Pin_16*%
%TO.N,/A6*%
X86855000Y-109550000D03*
%TO.P,CP2,17,Pin_17*%
%TO.N,/A5*%
X89395000Y-109550000D03*
%TO.P,CP2,18,Pin_18*%
%TO.N,/A0*%
X91935000Y-109550000D03*
%TO.P,CP2,19,Pin_19*%
%TO.N,/A1*%
X94475000Y-109550000D03*
%TO.P,CP2,20,Pin_20*%
%TO.N,/A2*%
X97015000Y-109550000D03*
%TO.P,CP2,21,Pin_21*%
%TO.N,/A3*%
X99555000Y-109550000D03*
%TO.P,CP2,22,Pin_22*%
%TO.N,/A4*%
X102095000Y-109550000D03*
%TD*%
D16*
%TO.P,D15,1,K*%
%TO.N,GND*%
X47810000Y-106287500D03*
%TO.P,D15,2,A*%
%TO.N,Net-(D15-A)*%
X50610000Y-106287500D03*
%TD*%
D10*
%TO.P,D11,1,K*%
%TO.N,/A1*%
X93875000Y-106875000D03*
%TO.P,D11,2,A*%
%TO.N,/COL10*%
X93875000Y-103575000D03*
%TD*%
D15*
%TO.P,R19,1*%
%TO.N,Net-(D17-A)*%
X61325000Y-104250000D03*
%TO.P,R19,2*%
%TO.N,+5V*%
X61325000Y-102425000D03*
%TD*%
D23*
%TO.P,J800,1,Pin_1*%
%TO.N,ADMISO*%
X56200000Y-85700000D03*
D24*
%TO.P,J800,2,Pin_2*%
%TO.N,+5V*%
X58740000Y-85700000D03*
%TO.P,J800,3,Pin_3*%
%TO.N,ADSCK*%
X56200000Y-88240000D03*
%TO.P,J800,4,Pin_4*%
%TO.N,ADMOSI*%
X58740000Y-88240000D03*
%TO.P,J800,5,Pin_5*%
%TO.N,ADRESET*%
X56200000Y-90780000D03*
%TO.P,J800,6,Pin_6*%
%TO.N,GND*%
X58740000Y-90780000D03*
%TD*%
D10*
%TO.P,D2,1,K*%
%TO.N,/A12*%
X74800000Y-106875000D03*
%TO.P,D2,2,A*%
%TO.N,/COL1*%
X74800000Y-103575000D03*
%TD*%
%TO.P,D1,1,K*%
%TO.N,/A13*%
X72675000Y-106875000D03*
%TO.P,D1,2,A*%
%TO.N,/COL0*%
X72675000Y-103575000D03*
%TD*%
D25*
%TO.P,J804,1*%
%TO.N,ADMISO*%
X31500000Y-89250000D03*
D26*
%TO.P,J804,2*%
%TO.N,unconnected-(J804-Pad2)*%
X31500000Y-91850000D03*
%TO.P,J804,3*%
%TO.N,GND*%
X31500000Y-87150000D03*
%TO.P,J804,4*%
%TO.N,+5V*%
X31500000Y-93950000D03*
%TO.P,J804,5*%
%TO.N,PS2-CLK*%
X34300000Y-87150000D03*
%TO.P,J804,6*%
%TO.N,unconnected-(J804-Pad6)*%
X34300000Y-93950000D03*
D27*
%TO.P,J804,7*%
%TO.N,GND*%
X28650000Y-97400000D03*
D28*
X27850000Y-90550000D03*
D27*
X28650000Y-83700000D03*
%TD*%
D29*
%TO.P,Y800,1,1*%
%TO.N,Net-(IC800-XTAL1{slash}PB6)*%
X39625000Y-85575000D03*
%TO.P,Y800,2,2*%
%TO.N,Net-(IC800-XTAL2{slash}PB7)*%
X39625000Y-90455000D03*
%TD*%
D30*
%TO.N,GND*%
X69050000Y-87325000D03*
X42750000Y-89099500D03*
X42749500Y-87500000D03*
X42950000Y-97975500D03*
X71775000Y-87325000D03*
%TO.N,PS2-CLK*%
X44062500Y-85003900D03*
%TO.N,Net-(IC800-AREF)*%
X54235800Y-94684800D03*
X51227400Y-89397500D03*
%TO.N,/ROW0*%
X62800500Y-100889300D03*
%TO.N,AY2*%
X68600000Y-101499000D03*
X45600000Y-95882700D03*
%TO.N,/ROW1*%
X64270800Y-98744200D03*
X63988500Y-108041800D03*
%TO.N,/ROW2*%
X65791600Y-98770100D03*
%TO.N,AX0*%
X51226100Y-91525000D03*
X70515100Y-101509400D03*
%TO.N,AX1*%
X49214500Y-94355300D03*
X66686900Y-90094000D03*
%TO.N,AX2*%
X67200000Y-86675000D03*
X47858000Y-94375200D03*
%TO.N,AY0*%
X47189200Y-91219800D03*
X58962700Y-84018300D03*
%TO.N,/COL0*%
X71515300Y-102048900D03*
X66282300Y-95788600D03*
%TO.N,/COL1*%
X64309700Y-95814200D03*
X73136300Y-101841600D03*
%TO.N,/COL3*%
X71110600Y-93615900D03*
X76152599Y-101547401D03*
%TO.N,/COL4*%
X65253900Y-93559000D03*
X72822800Y-100824200D03*
%TO.N,/COL5*%
X70121900Y-92600100D03*
X82286800Y-104520400D03*
%TO.N,BREAK*%
X57956400Y-100349900D03*
X54098800Y-90350200D03*
%TO.N,/COL12*%
X71280200Y-92025000D03*
X84012800Y-104629300D03*
%TO.N,MTSTROBE*%
X47112900Y-86700000D03*
X57419300Y-83167700D03*
%TO.N,ADMOSI*%
X62608800Y-88827500D03*
X71645100Y-98744900D03*
%TO.N,ADMISO*%
X52075800Y-93322600D03*
%TO.N,ADSCK*%
X70500700Y-97727200D03*
%TO.N,ADRESET*%
X57931100Y-101350100D03*
X51219300Y-87357000D03*
%TO.N,MTDATA*%
X69121000Y-94314100D03*
X61200000Y-87450000D03*
%TD*%
D31*
%TO.N,GND*%
X55225000Y-96075000D02*
X57050000Y-94250000D01*
X56025000Y-97587500D02*
X58012500Y-97587500D01*
X53225000Y-108075000D02*
X53225000Y-108940000D01*
X69050000Y-87325000D02*
X68600000Y-87775000D01*
X44149500Y-89099500D02*
X44150000Y-89100000D01*
X44450000Y-98300000D02*
X46675000Y-96075000D01*
X71775000Y-87325000D02*
X71775000Y-88700000D01*
X44150000Y-89100000D02*
X47900000Y-89100000D01*
X53225000Y-108940000D02*
X53835000Y-109550000D01*
X58012500Y-97587500D02*
X59350000Y-98925000D01*
X47900000Y-89100000D02*
X48700000Y-88300000D01*
D32*
X47810000Y-106287500D02*
X47810000Y-106288000D01*
D31*
X56025000Y-96875000D02*
X56025000Y-97587500D01*
D32*
X53225000Y-106288000D02*
X53225000Y-106287500D01*
D31*
X44450000Y-98300000D02*
X44125500Y-97975500D01*
X44025000Y-96750000D02*
X44025000Y-96900500D01*
X44025000Y-96900500D02*
X42950000Y-97975500D01*
X46675000Y-96075000D02*
X55225000Y-96075000D01*
X41975000Y-96750000D02*
X41975000Y-97000500D01*
X41975000Y-97000500D02*
X42950000Y-97975500D01*
X71775000Y-88700000D02*
X71800000Y-88725000D01*
X42750000Y-89099500D02*
X44149500Y-89099500D01*
X48700000Y-88300000D02*
X52650000Y-88300000D01*
X55225000Y-96075000D02*
X56025000Y-96875000D01*
X47810000Y-106288000D02*
X49597500Y-108075000D01*
X49597500Y-108075000D02*
X53225000Y-108075000D01*
X68600000Y-87775000D02*
X68600000Y-88725000D01*
X42749500Y-87500000D02*
X44150000Y-87500000D01*
X53225000Y-106288000D02*
X53225000Y-108075000D01*
X57050000Y-94250000D02*
X57050000Y-93650000D01*
X44125500Y-97975500D02*
X42950000Y-97975500D01*
D33*
%TO.N,+5V*%
X29825000Y-85325600D02*
X32850600Y-82300000D01*
D31*
X50625000Y-102425000D02*
X43375000Y-102425000D01*
D33*
X58050000Y-107875000D02*
X61775000Y-107875000D01*
X56375000Y-114852000D02*
X56375000Y-113650000D01*
X31500000Y-93950000D02*
X29825000Y-92275000D01*
D31*
X48700000Y-90700000D02*
X52650000Y-90700000D01*
X44150000Y-89900000D02*
X41950000Y-89900000D01*
X44150000Y-89900000D02*
X47900000Y-89900000D01*
D33*
X79675000Y-82325000D02*
X79675000Y-99275000D01*
X55340000Y-82300000D02*
X58740000Y-85700000D01*
X56375000Y-109550000D02*
X56375000Y-113650000D01*
X62600000Y-107050000D02*
X62600000Y-104825000D01*
D32*
X66050000Y-104829600D02*
X66050000Y-104875000D01*
D33*
X43250000Y-102500000D02*
X43250000Y-115200000D01*
D31*
X44150000Y-88300000D02*
X42075000Y-88300000D01*
X63800000Y-100125000D02*
X63800000Y-102075000D01*
X47900000Y-89900000D02*
X48700000Y-90700000D01*
X44450000Y-100200000D02*
X43250000Y-100200000D01*
D33*
X31500000Y-97575000D02*
X31500000Y-93950000D01*
D32*
X68200000Y-104825000D02*
X68200000Y-104875000D01*
D31*
X63775000Y-102100000D02*
X61650000Y-102100000D01*
D33*
X59350000Y-102425000D02*
X59350000Y-100825000D01*
X43350000Y-102400000D02*
X43250000Y-102500000D01*
X43450000Y-115400000D02*
X55827100Y-115400000D01*
D32*
X66045400Y-104825000D02*
X66050000Y-104829600D01*
D33*
X79675000Y-99275000D02*
X79725000Y-99325000D01*
X43250000Y-115200000D02*
X43450000Y-115400000D01*
D31*
X42075000Y-88300000D02*
X41950000Y-88425000D01*
X41950000Y-88425000D02*
X41950000Y-82300000D01*
D33*
X29825000Y-92275000D02*
X29825000Y-85325600D01*
X63890800Y-104825000D02*
X66045400Y-104825000D01*
X43200000Y-98825000D02*
X32750000Y-98825000D01*
X103700000Y-99325000D02*
X103700000Y-115400000D01*
X55827100Y-115400000D02*
X56375000Y-114852000D01*
X103700000Y-115400000D02*
X55827100Y-115400000D01*
X54000000Y-82300000D02*
X79650000Y-82300000D01*
X41950000Y-82300000D02*
X54000000Y-82300000D01*
X43250000Y-98875000D02*
X43200000Y-98825000D01*
X43250000Y-100200000D02*
X43250000Y-98875000D01*
X54000000Y-82300000D02*
X55340000Y-82300000D01*
X32750000Y-98825000D02*
X31500000Y-97575000D01*
X70300000Y-104825000D02*
X70350000Y-104875000D01*
X79650000Y-82300000D02*
X79675000Y-82325000D01*
X61325000Y-102425000D02*
X59350000Y-102425000D01*
X79725000Y-99325000D02*
X103700000Y-99325000D01*
X61775000Y-107875000D02*
X62600000Y-107050000D01*
D31*
X43375000Y-102425000D02*
X43350000Y-102400000D01*
D33*
X66045400Y-104825000D02*
X68200000Y-104825000D01*
X56375000Y-109550000D02*
X58050000Y-107875000D01*
X43250000Y-102300000D02*
X43250000Y-100200000D01*
X62600000Y-104825000D02*
X62600000Y-103700000D01*
X43350000Y-102400000D02*
X43250000Y-102300000D01*
X68200000Y-104825000D02*
X70300000Y-104825000D01*
X62600000Y-104825000D02*
X63890800Y-104825000D01*
D31*
X41950000Y-89900000D02*
X41950000Y-88425000D01*
X63800000Y-102075000D02*
X63775000Y-102100000D01*
D32*
X63890800Y-104825000D02*
X63900000Y-104834200D01*
D33*
X62600000Y-103700000D02*
X61325000Y-102425000D01*
D31*
X67000000Y-100125000D02*
X67000000Y-102100000D01*
X67000000Y-102100000D02*
X63775000Y-102100000D01*
D33*
X32850600Y-82300000D02*
X41950000Y-82300000D01*
D32*
X63900000Y-104834200D02*
X63900000Y-104875000D01*
D31*
X61650000Y-102100000D02*
X61325000Y-102425000D01*
D32*
%TO.N,CAPSLOCK*%
X57914100Y-106287500D02*
X58535000Y-106287500D01*
X55010000Y-110036701D02*
X55010000Y-109191600D01*
X55010000Y-109191600D02*
X57914100Y-106287500D01*
X51396701Y-113650000D02*
X55010000Y-110036701D01*
%TO.N,/A13*%
X69074900Y-109550000D02*
X71749900Y-106875000D01*
X69075000Y-109550000D02*
X69074900Y-109550000D01*
X71749900Y-106875000D02*
X72675000Y-106875000D01*
%TO.N,/A12*%
X73514900Y-107650100D02*
X74800000Y-107650100D01*
X71615000Y-109550000D02*
X73514900Y-107650100D01*
X74800000Y-107650100D02*
X74800000Y-106875000D01*
%TO.N,/A11*%
X76925000Y-107650100D02*
X76925000Y-106875000D01*
X74155000Y-109550000D02*
X74168200Y-109550000D01*
X76068100Y-107650100D02*
X76925000Y-107650100D01*
X74168200Y-109550000D02*
X76068100Y-107650100D01*
%TO.N,/A10*%
X76695000Y-109131400D02*
X78181200Y-107645200D01*
X79050000Y-107513000D02*
X79050000Y-106875000D01*
X78917800Y-107645200D02*
X79050000Y-107513000D01*
X76695000Y-109550000D02*
X76695000Y-109131400D01*
X78181200Y-107645200D02*
X78917800Y-107645200D01*
%TO.N,/A9*%
X79250100Y-109550000D02*
X81150000Y-107650100D01*
X79235000Y-109550000D02*
X79250100Y-109550000D01*
X81150000Y-107650100D02*
X81150000Y-106875000D01*
%TO.N,Net-(IC800-XTAL1{slash}PB6)*%
X39625000Y-88385500D02*
X39625000Y-85575000D01*
X42573700Y-93398700D02*
X42573700Y-91151200D01*
X42390700Y-91151200D02*
X39625000Y-88385500D01*
X44025000Y-94850000D02*
X42573700Y-93398700D01*
X42573700Y-91151200D02*
X43024900Y-90700000D01*
X44150000Y-90700000D02*
X43024900Y-90700000D01*
X42573700Y-91151200D02*
X42390700Y-91151200D01*
%TO.N,Net-(IC800-XTAL2{slash}PB7)*%
X45076100Y-94361600D02*
X45076100Y-95338400D01*
X39625000Y-92500000D02*
X41975000Y-94850000D01*
X39625000Y-90455000D02*
X39625000Y-92500000D01*
X44150000Y-91500000D02*
X43024900Y-91500000D01*
X43024900Y-92310400D02*
X45076100Y-94361600D01*
X43024900Y-91500000D02*
X43024900Y-92310400D01*
X42801100Y-95676100D02*
X41975000Y-94850000D01*
X45076100Y-95338400D02*
X44738400Y-95676100D01*
X44738400Y-95676100D02*
X42801100Y-95676100D01*
%TO.N,PS2-CLK*%
X44150000Y-85900000D02*
X43024900Y-85900000D01*
X43472900Y-85003900D02*
X44062500Y-85003900D01*
X43024900Y-85900000D02*
X43024900Y-85451900D01*
X43024900Y-85451900D02*
X43472900Y-85003900D01*
%TO.N,Net-(IC800-AREF)*%
X52650000Y-89100000D02*
X51524900Y-89100000D01*
X54235800Y-94564200D02*
X54235800Y-94684800D01*
X55150000Y-93650000D02*
X54235800Y-94564200D01*
X51524900Y-89100000D02*
X51227400Y-89397500D01*
%TO.N,/ROW0*%
X62630100Y-110085400D02*
X62630100Y-107969900D01*
X61024900Y-99113700D02*
X61024900Y-97625000D01*
X62100000Y-97625000D02*
X61024900Y-97625000D01*
X62630100Y-107969900D02*
X63900000Y-106700000D01*
X58915000Y-113650000D02*
X59065500Y-113650000D01*
X60505000Y-112210500D02*
X62630100Y-110085400D01*
X59065500Y-113650000D02*
X60505000Y-112210500D01*
X62800500Y-100889300D02*
X61024900Y-99113700D01*
%TO.N,AY2*%
X45600000Y-92950000D02*
X45600000Y-95882700D01*
X68600000Y-100125000D02*
X68600000Y-101499000D01*
%TO.N,/ROW1*%
X64708200Y-108041800D02*
X66050000Y-106700000D01*
X64576500Y-99049900D02*
X64600000Y-99049900D01*
X64600000Y-100125000D02*
X64600000Y-99049900D01*
X64270800Y-98744200D02*
X64576500Y-99049900D01*
X63988500Y-108041800D02*
X64708200Y-108041800D01*
%TO.N,/ROW2*%
X65170100Y-109184700D02*
X65170100Y-109550000D01*
X68200000Y-106700000D02*
X67654800Y-106700000D01*
X66200000Y-99049900D02*
X66071400Y-99049900D01*
X66071400Y-99049900D02*
X65791600Y-98770100D01*
X63995000Y-109550000D02*
X65170100Y-109550000D01*
X66200000Y-100125000D02*
X66200000Y-99049900D01*
X67654800Y-106700000D02*
X65170100Y-109184700D01*
%TO.N,AX0*%
X71800000Y-101200100D02*
X70824400Y-101200100D01*
X49600000Y-91824900D02*
X50926200Y-91824900D01*
X49600000Y-92950000D02*
X49600000Y-91824900D01*
X50926200Y-91824900D02*
X51226100Y-91525000D01*
X70824400Y-101200100D02*
X70515100Y-101509400D01*
X71800000Y-100125000D02*
X71800000Y-101200100D01*
%TO.N,/A8*%
X83275000Y-107650100D02*
X83275000Y-106875000D01*
X81775000Y-109150100D02*
X83275000Y-107650100D01*
X81775000Y-109550000D02*
X81775000Y-109150100D01*
%TO.N,/ROW3*%
X69969400Y-102944600D02*
X71427300Y-104402500D01*
X66535000Y-109550000D02*
X67379300Y-109550000D01*
X68977900Y-102944600D02*
X69969400Y-102944600D01*
X70229300Y-106700000D02*
X70350000Y-106700000D01*
X67379300Y-109550000D02*
X70229300Y-106700000D01*
X67800000Y-101200100D02*
X67800000Y-101766700D01*
X67800000Y-101766700D02*
X68977900Y-102944600D01*
X71427300Y-105622700D02*
X70350000Y-106700000D01*
X71427300Y-104402500D02*
X71427300Y-105622700D01*
X67800000Y-100125000D02*
X67800000Y-101200100D01*
%TO.N,AX1*%
X48800000Y-94075100D02*
X48934300Y-94075100D01*
X66686900Y-90094000D02*
X66980800Y-89800100D01*
X48934300Y-94075100D02*
X49214500Y-94355300D01*
X48800000Y-92950000D02*
X48800000Y-94075100D01*
X67000000Y-88725000D02*
X67000000Y-89800100D01*
X66980800Y-89800100D02*
X67000000Y-89800100D01*
%TO.N,AX2*%
X66200000Y-87649900D02*
X66200000Y-88725000D01*
X47858000Y-94217100D02*
X47858000Y-94375200D01*
X48000000Y-92950000D02*
X48000000Y-94075100D01*
X67200000Y-86675000D02*
X66225100Y-87649900D01*
X48000000Y-94075100D02*
X47858000Y-94217100D01*
X66225100Y-87649900D02*
X66200000Y-87649900D01*
%TO.N,AY0*%
X47200000Y-92950000D02*
X47200000Y-91824900D01*
X47200000Y-91824900D02*
X47189200Y-91814100D01*
X61768400Y-84018300D02*
X65400000Y-87649900D01*
X58962700Y-84018300D02*
X61768400Y-84018300D01*
X65400000Y-88725000D02*
X65400000Y-87649900D01*
X47189200Y-91814100D02*
X47189200Y-91219800D01*
%TO.N,AY1*%
X47444500Y-95119600D02*
X52053800Y-95119600D01*
X54584800Y-92588600D02*
X58681400Y-92588600D01*
X46400000Y-92950000D02*
X46400000Y-94075100D01*
X52053800Y-95119600D02*
X54584800Y-92588600D01*
X61226000Y-89800100D02*
X64600000Y-89800100D01*
X60470000Y-90800000D02*
X60470000Y-90556100D01*
X64600000Y-88725000D02*
X64600000Y-89800100D01*
X58681400Y-92588600D02*
X60470000Y-90800000D01*
X46400000Y-94075100D02*
X47444500Y-95119600D01*
X60470000Y-90556100D02*
X61226000Y-89800100D01*
%TO.N,/A7*%
X85375000Y-106875000D02*
X85375000Y-107314900D01*
X85375000Y-107314900D02*
X84315000Y-108374900D01*
X84315000Y-108374900D02*
X84315000Y-109550000D01*
%TO.N,/COL0*%
X72675000Y-103575000D02*
X72675000Y-102799900D01*
X65245900Y-96825000D02*
X66282300Y-95788600D01*
X72266300Y-102799900D02*
X71515300Y-102048900D01*
X63175100Y-96825000D02*
X65245900Y-96825000D01*
X62100000Y-96825000D02*
X63175100Y-96825000D01*
X72675000Y-102799900D02*
X72266300Y-102799900D01*
%TO.N,/A6*%
X87500000Y-107729900D02*
X87500000Y-106875000D01*
X86855000Y-109550000D02*
X86855000Y-108374900D01*
X86855000Y-108374900D02*
X87500000Y-107729900D01*
%TO.N,/A5*%
X89395000Y-109550000D02*
X89395000Y-108374900D01*
X89395000Y-108374900D02*
X89625000Y-108144900D01*
X89625000Y-108144900D02*
X89625000Y-106875000D01*
%TO.N,/A0*%
X91935000Y-108374900D02*
X91750000Y-108189900D01*
X91750000Y-108189900D02*
X91750000Y-106875000D01*
X91935000Y-109550000D02*
X91935000Y-108374900D01*
%TO.N,/A1*%
X93875000Y-107774900D02*
X93875000Y-106875000D01*
X94475000Y-108374900D02*
X93875000Y-107774900D01*
X94475000Y-109550000D02*
X94475000Y-108374900D01*
%TO.N,/A2*%
X97015000Y-109550000D02*
X97015000Y-109065000D01*
X97015000Y-109065000D02*
X96000000Y-108050000D01*
X96000000Y-108050000D02*
X96000000Y-106875000D01*
%TO.N,/A3*%
X98100000Y-107850000D02*
X98100000Y-106875000D01*
X99555000Y-109305000D02*
X98100000Y-107850000D01*
X99555000Y-109550000D02*
X99555000Y-109305000D01*
%TO.N,/A4*%
X102095000Y-109550000D02*
X102095000Y-109545100D01*
X100200000Y-107650100D02*
X100200000Y-106875000D01*
X102095000Y-109545100D02*
X100200000Y-107650100D01*
%TO.N,Net-(D15-A)*%
X50625000Y-106272500D02*
X50625000Y-104250000D01*
X50610000Y-106287500D02*
X50625000Y-106272500D01*
%TO.N,Net-(D16-A)*%
X56025000Y-106287500D02*
X56025000Y-104250000D01*
X56025000Y-104250000D02*
X54050000Y-104250000D01*
%TO.N,Net-(D17-A)*%
X61325000Y-106277500D02*
X61325000Y-104250000D01*
X61335000Y-106287500D02*
X61325000Y-106277500D01*
%TO.N,/COL1*%
X74800000Y-102799900D02*
X74094600Y-102799900D01*
X74094600Y-102799900D02*
X73136300Y-101841600D01*
X74800000Y-103575000D02*
X74800000Y-102799900D01*
X62100000Y-96025000D02*
X64098900Y-96025000D01*
X64098900Y-96025000D02*
X64309700Y-95814200D01*
%TO.N,/COL2*%
X76380500Y-102799900D02*
X72415600Y-98835000D01*
X72415600Y-96583200D02*
X69421400Y-93589000D01*
X62100000Y-95225000D02*
X63175100Y-95225000D01*
X67675500Y-94734200D02*
X63665900Y-94734200D01*
X72415600Y-98835000D02*
X72415600Y-96583200D01*
X76925000Y-102799900D02*
X76380500Y-102799900D01*
X63665900Y-94734200D02*
X63175100Y-95225000D01*
X68820700Y-93589000D02*
X67675500Y-94734200D01*
X69421400Y-93589000D02*
X68820700Y-93589000D01*
X76925000Y-103575000D02*
X76925000Y-102799900D01*
%TO.N,!RST*%
X55560600Y-99087500D02*
X55937500Y-99087500D01*
X46814800Y-107169100D02*
X46814800Y-105408600D01*
X48885900Y-103337500D02*
X51310600Y-103337500D01*
X48755000Y-109109300D02*
X46814800Y-107169100D01*
X48755000Y-109550000D02*
X48755000Y-109109300D01*
X51310600Y-103337500D02*
X55560600Y-99087500D01*
X46814800Y-105408600D02*
X48885900Y-103337500D01*
%TO.N,/COL3*%
X78525000Y-103575000D02*
X79050000Y-103575000D01*
X63316000Y-94284100D02*
X63175100Y-94425000D01*
X76152599Y-101547401D02*
X76308897Y-101547401D01*
X70084900Y-93615900D02*
X69607900Y-93138900D01*
X66699500Y-93138900D02*
X65554300Y-94284100D01*
X77563504Y-102613504D02*
X78525000Y-103575000D01*
X62100000Y-94425000D02*
X63175100Y-94425000D01*
X76308897Y-101547401D02*
X77375000Y-102613504D01*
X71110600Y-93615900D02*
X70084900Y-93615900D01*
X77375000Y-102613504D02*
X77563504Y-102613504D01*
X65554300Y-94284100D02*
X63316000Y-94284100D01*
X69607900Y-93138900D02*
X66699500Y-93138900D01*
%TO.N,/COL4*%
X62100000Y-93625000D02*
X63175100Y-93625000D01*
X81150000Y-103575000D02*
X81150000Y-104350100D01*
X75743700Y-102937100D02*
X73630800Y-100824200D01*
X75743700Y-103903400D02*
X75743700Y-102937100D01*
X73630800Y-100824200D02*
X72822800Y-100824200D01*
X81150000Y-104350100D02*
X76190400Y-104350100D01*
X76190400Y-104350100D02*
X75743700Y-103903400D01*
X63241100Y-93559000D02*
X63175100Y-93625000D01*
X65253900Y-93559000D02*
X63241100Y-93559000D01*
%TO.N,/COL5*%
X70121900Y-92600100D02*
X63400000Y-92600100D01*
X82349900Y-103575000D02*
X82349900Y-104457300D01*
X62100000Y-92825000D02*
X63175100Y-92825000D01*
X82349900Y-104457300D02*
X82286800Y-104520400D01*
X63400000Y-92600100D02*
X63175100Y-92825000D01*
X83275000Y-103575000D02*
X82349900Y-103575000D01*
%TO.N,Net-(Q1-B)*%
X56025000Y-100587500D02*
X56025000Y-102425000D01*
%TO.N,BREAK*%
X54098800Y-90350200D02*
X54098800Y-87023700D01*
X57905900Y-100349900D02*
X57956400Y-100349900D01*
X54888700Y-103263700D02*
X56780800Y-103263700D01*
X54098800Y-87023700D02*
X53775100Y-86700000D01*
X54050000Y-102425000D02*
X54888700Y-103263700D01*
X56780800Y-103263700D02*
X57206000Y-102838500D01*
X57206000Y-101049800D02*
X57905900Y-100349900D01*
X57206000Y-102838500D02*
X57206000Y-101049800D01*
X52650000Y-86700000D02*
X53775100Y-86700000D01*
%TO.N,/COL6*%
X84550000Y-102750000D02*
X85375000Y-103575000D01*
X74575100Y-98299900D02*
X74575000Y-98300000D01*
X74575000Y-98925000D02*
X78400000Y-102750000D01*
X74575000Y-98300000D02*
X74575000Y-98925000D01*
X73500000Y-96025000D02*
X74575100Y-96025000D01*
X78400000Y-102750000D02*
X84550000Y-102750000D01*
X74575100Y-96025000D02*
X74575100Y-98299900D01*
%TO.N,/COL7*%
X78586396Y-102300000D02*
X86225000Y-102300000D01*
X86225000Y-102300000D02*
X87500000Y-103575000D01*
X75025000Y-95674900D02*
X75025000Y-98738604D01*
X75025000Y-98738604D02*
X78586396Y-102300000D01*
X73500000Y-95225000D02*
X74575100Y-95225000D01*
X74575100Y-95225000D02*
X75025000Y-95674900D01*
%TO.N,/COL8*%
X87900000Y-101850000D02*
X89625000Y-103575000D01*
X75525000Y-98602208D02*
X78772792Y-101850000D01*
X74575100Y-94425000D02*
X75525000Y-95374900D01*
X78772792Y-101850000D02*
X87900000Y-101850000D01*
X73500000Y-94425000D02*
X74575100Y-94425000D01*
X75525000Y-95374900D02*
X75525000Y-98602208D01*
%TO.N,/COL9*%
X90350100Y-101400000D02*
X78959188Y-101400000D01*
X75975000Y-95024900D02*
X74575100Y-93625000D01*
X74575100Y-93625000D02*
X73500000Y-93625000D01*
X78959188Y-101400000D02*
X75975000Y-98415812D01*
X91750000Y-103575000D02*
X91750000Y-102799900D01*
X75975000Y-98415812D02*
X75975000Y-95024900D01*
X91750000Y-102799900D02*
X90350100Y-101400000D01*
%TO.N,/COL10*%
X91250000Y-100950000D02*
X93875000Y-103575000D01*
X76425000Y-94674900D02*
X76425000Y-98229416D01*
X74575100Y-92825000D02*
X76425000Y-94674900D01*
X73500000Y-92825000D02*
X74575100Y-92825000D01*
X79145584Y-100950000D02*
X91250000Y-100950000D01*
X76425000Y-98229416D02*
X79145584Y-100950000D01*
%TO.N,/COL11*%
X74575100Y-92025000D02*
X76875000Y-94324900D01*
X79331980Y-100500000D02*
X92925000Y-100500000D01*
X73500000Y-92025000D02*
X74575100Y-92025000D01*
X92925000Y-100500000D02*
X96000000Y-103575000D01*
X76875000Y-94324900D02*
X76875000Y-98043020D01*
X76875000Y-98043020D02*
X79331980Y-100500000D01*
%TO.N,/COL12*%
X98100000Y-103575000D02*
X98100000Y-104350100D01*
X62100000Y-92025000D02*
X63175100Y-92025000D01*
X84292000Y-104350100D02*
X84012800Y-104629300D01*
X71280200Y-92025000D02*
X71130200Y-91875000D01*
X71130200Y-91875000D02*
X63325100Y-91875000D01*
X98100000Y-104350100D02*
X84292000Y-104350100D01*
X63325100Y-91875000D02*
X63175100Y-92025000D01*
%TO.N,/COL13*%
X77325000Y-97856624D02*
X77325000Y-92724500D01*
X100200000Y-102799900D02*
X97450100Y-100050000D01*
X70112700Y-89800200D02*
X68687900Y-91225000D01*
X77325000Y-92724500D02*
X74400700Y-89800200D01*
X97450100Y-100050000D02*
X79518376Y-100050000D01*
X74400700Y-89800200D02*
X70112700Y-89800200D01*
X68687900Y-91225000D02*
X62100000Y-91225000D01*
X79518376Y-100050000D02*
X77325000Y-97856624D01*
X100200000Y-103575000D02*
X100200000Y-102799900D01*
%TO.N,MTSTROBE*%
X70200000Y-87384100D02*
X65983600Y-83167700D01*
X65983600Y-83167700D02*
X57419300Y-83167700D01*
X70200000Y-88725000D02*
X70200000Y-87384100D01*
X44150000Y-86700000D02*
X47112900Y-86700000D01*
%TO.N,ADMOSI*%
X71000000Y-99049900D02*
X71340100Y-99049900D01*
X57470000Y-91212400D02*
X57470000Y-89510000D01*
X56618100Y-92064300D02*
X57470000Y-91212400D01*
X52461600Y-94075100D02*
X54472400Y-92064300D01*
X50400000Y-94075100D02*
X52461600Y-94075100D01*
X58740000Y-88827500D02*
X62608800Y-88827500D01*
X50400000Y-92950000D02*
X50400000Y-94075100D01*
X71340100Y-99049900D02*
X71645100Y-98744900D01*
X54472400Y-92064300D02*
X56618100Y-92064300D01*
X71000000Y-100125000D02*
X71000000Y-99049900D01*
X57470000Y-89510000D02*
X58740000Y-88240000D01*
X58740000Y-88240000D02*
X58740000Y-88827500D01*
%TO.N,ADMISO*%
X51703200Y-92950000D02*
X52075800Y-93322600D01*
X51200000Y-92950000D02*
X51703200Y-92950000D01*
%TO.N,ADSCK*%
X70200000Y-98027900D02*
X70200000Y-100125000D01*
X52650000Y-91500000D02*
X53974500Y-91500000D01*
X70500700Y-97727200D02*
X70200000Y-98027900D01*
X56200000Y-89075100D02*
X56200000Y-88240000D01*
X54823900Y-90650600D02*
X54823900Y-90451200D01*
X54823900Y-90451200D02*
X56200000Y-89075100D01*
X53974500Y-91500000D02*
X54823900Y-90650600D01*
%TO.N,ADRESET*%
X59350000Y-104250000D02*
X57931100Y-102831100D01*
X48000000Y-84450000D02*
X48000000Y-85575100D01*
X48000000Y-85575100D02*
X49437400Y-85575100D01*
X57931100Y-102831100D02*
X57931100Y-101350100D01*
X49437400Y-85575100D02*
X51219300Y-87357000D01*
%TO.N,MTDATA*%
X45600000Y-83324900D02*
X45600000Y-84450000D01*
X65066500Y-98368600D02*
X69121000Y-94314100D01*
X65066500Y-99070400D02*
X65066500Y-98368600D01*
X61200000Y-87450000D02*
X60625200Y-86875200D01*
X51622700Y-83324900D02*
X45600000Y-83324900D01*
X60625200Y-86875200D02*
X55173000Y-86875200D01*
X65400000Y-99403900D02*
X65066500Y-99070400D01*
X55173000Y-86875200D02*
X51622700Y-83324900D01*
X65400000Y-100125000D02*
X65400000Y-99403900D01*
%TD*%
%TA.AperFunction,Conductor*%
%TO.N,+5V*%
G36*
X54852762Y-96803185D02*
G01*
X54898517Y-96855989D01*
X54908461Y-96925147D01*
X54901904Y-96950833D01*
X54900147Y-96955546D01*
X54873011Y-97028295D01*
X54873011Y-97028297D01*
X54866500Y-97088845D01*
X54866500Y-97583271D01*
X54846815Y-97650310D01*
X54794011Y-97696065D01*
X54742500Y-97707271D01*
X52074997Y-97707271D01*
X52001888Y-97712499D01*
X51861586Y-97753697D01*
X51738580Y-97832748D01*
X51642824Y-97943257D01*
X51642823Y-97943258D01*
X51582080Y-98076265D01*
X51561271Y-98221001D01*
X51561271Y-99954002D01*
X51566499Y-100027111D01*
X51607697Y-100167413D01*
X51686748Y-100290419D01*
X51686749Y-100290420D01*
X51686750Y-100290421D01*
X51797257Y-100386176D01*
X51863761Y-100416547D01*
X51930265Y-100446919D01*
X51946427Y-100449242D01*
X52075000Y-100467729D01*
X52985105Y-100467729D01*
X53052144Y-100487414D01*
X53097899Y-100540218D01*
X53107843Y-100609376D01*
X53078818Y-100672932D01*
X53072786Y-100679410D01*
X51927267Y-101824927D01*
X51865944Y-101858412D01*
X51796252Y-101853428D01*
X51740319Y-101811556D01*
X51734047Y-101802343D01*
X51667315Y-101694154D01*
X51543345Y-101570184D01*
X51394124Y-101478143D01*
X51394119Y-101478141D01*
X51227697Y-101422994D01*
X51227690Y-101422993D01*
X51124986Y-101412500D01*
X50875000Y-101412500D01*
X50875000Y-102551000D01*
X50855315Y-102618039D01*
X50802511Y-102663794D01*
X50751000Y-102675000D01*
X49418916Y-102675000D01*
X49370997Y-102701166D01*
X49344639Y-102704000D01*
X48969532Y-102704000D01*
X48953780Y-102702260D01*
X48953755Y-102702532D01*
X48945993Y-102701798D01*
X48945992Y-102701798D01*
X48922638Y-102702532D01*
X48877870Y-102703939D01*
X48873975Y-102704000D01*
X48846044Y-102704000D01*
X48846041Y-102704000D01*
X48846025Y-102704001D01*
X48841932Y-102704518D01*
X48830304Y-102705433D01*
X48786013Y-102706825D01*
X48786007Y-102706826D01*
X48766400Y-102712522D01*
X48747361Y-102716465D01*
X48727111Y-102719024D01*
X48727105Y-102719025D01*
X48727103Y-102719026D01*
X48716325Y-102723292D01*
X48685906Y-102735336D01*
X48674860Y-102739117D01*
X48632313Y-102751479D01*
X48632307Y-102751481D01*
X48614733Y-102761874D01*
X48597272Y-102770428D01*
X48578286Y-102777946D01*
X48578285Y-102777946D01*
X48542435Y-102803992D01*
X48532676Y-102810402D01*
X48494537Y-102832957D01*
X48480101Y-102847394D01*
X48465315Y-102860023D01*
X48448793Y-102872028D01*
X48448791Y-102872029D01*
X48448791Y-102872030D01*
X48448788Y-102872033D01*
X48420542Y-102906174D01*
X48412683Y-102914811D01*
X46425979Y-104901514D01*
X46413620Y-104911418D01*
X46413793Y-104911627D01*
X46407782Y-104916600D01*
X46361137Y-104966270D01*
X46358432Y-104969061D01*
X46338673Y-104988821D01*
X46338658Y-104988838D01*
X46336117Y-104992113D01*
X46328553Y-105000967D01*
X46298220Y-105033271D01*
X46298212Y-105033281D01*
X46288379Y-105051167D01*
X46277703Y-105067420D01*
X46265186Y-105083557D01*
X46265185Y-105083560D01*
X46247585Y-105124229D01*
X46242448Y-105134715D01*
X46221103Y-105173541D01*
X46221103Y-105173542D01*
X46216025Y-105193320D01*
X46209725Y-105211722D01*
X46201618Y-105230457D01*
X46194688Y-105274209D01*
X46192320Y-105285645D01*
X46181300Y-105328565D01*
X46181300Y-105348984D01*
X46179773Y-105368383D01*
X46176580Y-105388541D01*
X46176580Y-105388542D01*
X46180750Y-105432657D01*
X46181300Y-105444326D01*
X46181300Y-107085466D01*
X46179561Y-107101213D01*
X46179832Y-107101239D01*
X46179098Y-107109005D01*
X46181239Y-107177116D01*
X46181300Y-107181012D01*
X46181300Y-107208959D01*
X46181818Y-107213058D01*
X46182734Y-107224698D01*
X46184126Y-107268989D01*
X46184127Y-107268991D01*
X46189822Y-107288595D01*
X46193767Y-107307642D01*
X46196326Y-107327897D01*
X46196327Y-107327900D01*
X46196328Y-107327904D01*
X46212638Y-107369100D01*
X46216421Y-107380149D01*
X46228781Y-107422692D01*
X46239172Y-107440262D01*
X46247732Y-107457735D01*
X46255247Y-107476717D01*
X46281291Y-107512563D01*
X46287705Y-107522327D01*
X46310258Y-107560462D01*
X46310262Y-107560466D01*
X46324689Y-107574893D01*
X46337326Y-107589688D01*
X46349328Y-107606207D01*
X46382007Y-107633242D01*
X46383468Y-107634450D01*
X46392109Y-107642313D01*
X47360181Y-108610385D01*
X47393666Y-108671708D01*
X47396500Y-108698066D01*
X47396500Y-110448654D01*
X47403011Y-110509202D01*
X47403011Y-110509204D01*
X47454111Y-110646204D01*
X47541739Y-110763261D01*
X47658796Y-110850889D01*
X47795799Y-110901989D01*
X47823050Y-110904918D01*
X47856345Y-110908499D01*
X47856362Y-110908500D01*
X49653638Y-110908500D01*
X49653654Y-110908499D01*
X49680692Y-110905591D01*
X49714201Y-110901989D01*
X49851204Y-110850889D01*
X49968261Y-110763261D01*
X50055889Y-110646204D01*
X50101138Y-110524887D01*
X50143009Y-110468956D01*
X50208474Y-110444539D01*
X50276746Y-110459391D01*
X50308545Y-110484236D01*
X50371760Y-110552906D01*
X50549424Y-110691189D01*
X50549425Y-110691189D01*
X50549427Y-110691191D01*
X50676135Y-110759761D01*
X50747426Y-110798342D01*
X50960365Y-110871444D01*
X51182431Y-110908500D01*
X51407569Y-110908500D01*
X51629635Y-110871444D01*
X51842574Y-110798342D01*
X52040576Y-110691189D01*
X52218240Y-110552906D01*
X52370722Y-110387268D01*
X52461193Y-110248790D01*
X52514338Y-110203437D01*
X52583569Y-110194013D01*
X52646905Y-110223515D01*
X52668804Y-110248787D01*
X52759278Y-110387268D01*
X52759283Y-110387273D01*
X52759284Y-110387276D01*
X52894456Y-110534109D01*
X52911760Y-110552906D01*
X53089424Y-110691189D01*
X53089425Y-110691189D01*
X53089427Y-110691191D01*
X53183366Y-110742028D01*
X53232957Y-110791247D01*
X53248065Y-110859464D01*
X53223895Y-110925020D01*
X53212030Y-110938764D01*
X51827749Y-112323045D01*
X51766426Y-112356530D01*
X51699805Y-112352645D01*
X51629637Y-112328556D01*
X51407569Y-112291500D01*
X51182431Y-112291500D01*
X50960362Y-112328556D01*
X50747430Y-112401656D01*
X50747419Y-112401661D01*
X50549427Y-112508808D01*
X50549422Y-112508812D01*
X50371761Y-112647092D01*
X50308548Y-112715760D01*
X50248661Y-112751750D01*
X50178823Y-112749649D01*
X50121207Y-112710124D01*
X50101138Y-112675110D01*
X50055889Y-112553796D01*
X50022214Y-112508812D01*
X49968261Y-112436739D01*
X49851204Y-112349111D01*
X49814755Y-112335516D01*
X49714203Y-112298011D01*
X49653654Y-112291500D01*
X49653638Y-112291500D01*
X47856362Y-112291500D01*
X47856345Y-112291500D01*
X47795797Y-112298011D01*
X47795795Y-112298011D01*
X47658795Y-112349111D01*
X47541739Y-112436739D01*
X47454111Y-112553795D01*
X47403011Y-112690795D01*
X47403011Y-112690797D01*
X47396500Y-112751345D01*
X47396500Y-114548654D01*
X47403011Y-114609202D01*
X47403011Y-114609204D01*
X47454111Y-114746204D01*
X47541739Y-114863261D01*
X47658796Y-114950889D01*
X47795799Y-115001989D01*
X47823050Y-115004918D01*
X47856345Y-115008499D01*
X47856362Y-115008500D01*
X49653638Y-115008500D01*
X49653654Y-115008499D01*
X49680692Y-115005591D01*
X49714201Y-115001989D01*
X49851204Y-114950889D01*
X49968261Y-114863261D01*
X50055889Y-114746204D01*
X50101138Y-114624887D01*
X50143009Y-114568956D01*
X50208474Y-114544539D01*
X50276746Y-114559391D01*
X50308545Y-114584236D01*
X50371760Y-114652906D01*
X50549424Y-114791189D01*
X50549425Y-114791189D01*
X50549427Y-114791191D01*
X50609314Y-114823600D01*
X50747426Y-114898342D01*
X50960365Y-114971444D01*
X51182431Y-115008500D01*
X51407569Y-115008500D01*
X51629635Y-114971444D01*
X51842574Y-114898342D01*
X52040576Y-114791189D01*
X52218240Y-114652906D01*
X52339594Y-114521082D01*
X52370715Y-114487276D01*
X52370715Y-114487275D01*
X52370722Y-114487268D01*
X52461193Y-114348790D01*
X52514338Y-114303437D01*
X52583569Y-114294013D01*
X52646905Y-114323515D01*
X52668804Y-114348787D01*
X52759278Y-114487268D01*
X52759283Y-114487273D01*
X52759284Y-114487276D01*
X52885968Y-114624889D01*
X52911760Y-114652906D01*
X53089424Y-114791189D01*
X53089425Y-114791189D01*
X53089427Y-114791191D01*
X53149314Y-114823600D01*
X53287426Y-114898342D01*
X53500365Y-114971444D01*
X53722431Y-115008500D01*
X53947569Y-115008500D01*
X54169635Y-114971444D01*
X54382574Y-114898342D01*
X54580576Y-114791189D01*
X54758240Y-114652906D01*
X54879594Y-114521082D01*
X54910715Y-114487276D01*
X54910715Y-114487275D01*
X54910722Y-114487268D01*
X55004749Y-114343347D01*
X55057894Y-114297994D01*
X55127125Y-114288570D01*
X55190461Y-114318072D01*
X55210130Y-114340048D01*
X55336890Y-114521078D01*
X55503917Y-114688105D01*
X55697421Y-114823600D01*
X55911507Y-114923429D01*
X55911516Y-114923433D01*
X56125000Y-114980634D01*
X56125000Y-114085501D01*
X56232685Y-114134680D01*
X56339237Y-114150000D01*
X56410763Y-114150000D01*
X56517315Y-114134680D01*
X56625000Y-114085501D01*
X56625000Y-114980633D01*
X56838483Y-114923433D01*
X56838492Y-114923429D01*
X57052578Y-114823600D01*
X57246082Y-114688105D01*
X57413105Y-114521082D01*
X57539868Y-114340048D01*
X57594445Y-114296423D01*
X57663944Y-114289231D01*
X57726298Y-114320753D01*
X57745251Y-114343350D01*
X57839276Y-114487265D01*
X57839284Y-114487276D01*
X57965968Y-114624889D01*
X57991760Y-114652906D01*
X58169424Y-114791189D01*
X58169425Y-114791189D01*
X58169427Y-114791191D01*
X58229314Y-114823600D01*
X58367426Y-114898342D01*
X58580365Y-114971444D01*
X58802431Y-115008500D01*
X59027569Y-115008500D01*
X59249635Y-114971444D01*
X59462574Y-114898342D01*
X59487985Y-114884589D01*
X59556313Y-114869994D01*
X59621686Y-114894656D01*
X59663347Y-114950746D01*
X59671002Y-114992890D01*
X59674238Y-115524746D01*
X59654961Y-115591904D01*
X59602437Y-115637979D01*
X59550240Y-115649500D01*
X43124500Y-115649500D01*
X43057461Y-115629815D01*
X43011706Y-115577011D01*
X43000500Y-115525500D01*
X43000500Y-102175000D01*
X49425000Y-102175000D01*
X50375000Y-102175000D01*
X50375000Y-101412500D01*
X50125029Y-101412500D01*
X50125012Y-101412501D01*
X50022302Y-101422994D01*
X49855880Y-101478141D01*
X49855875Y-101478143D01*
X49706654Y-101570184D01*
X49582684Y-101694154D01*
X49490643Y-101843375D01*
X49490641Y-101843380D01*
X49435494Y-102009802D01*
X49435493Y-102009809D01*
X49425000Y-102112513D01*
X49425000Y-102175000D01*
X43000500Y-102175000D01*
X43000500Y-100661956D01*
X43020185Y-100594917D01*
X43072989Y-100549162D01*
X43142147Y-100539218D01*
X43205703Y-100568243D01*
X43242206Y-100622952D01*
X43290641Y-100769119D01*
X43290643Y-100769124D01*
X43382684Y-100918345D01*
X43506654Y-101042315D01*
X43655875Y-101134356D01*
X43655880Y-101134358D01*
X43822302Y-101189505D01*
X43822309Y-101189506D01*
X43925019Y-101199999D01*
X44199999Y-101199999D01*
X44200000Y-101199998D01*
X44200000Y-100450000D01*
X44700000Y-100450000D01*
X44700000Y-101199999D01*
X44974972Y-101199999D01*
X44974986Y-101199998D01*
X45077697Y-101189505D01*
X45244119Y-101134358D01*
X45244124Y-101134356D01*
X45393345Y-101042315D01*
X45517315Y-100918345D01*
X45609356Y-100769124D01*
X45609358Y-100769119D01*
X45664505Y-100602697D01*
X45664506Y-100602690D01*
X45674999Y-100499986D01*
X45675000Y-100499973D01*
X45675000Y-100450000D01*
X44700000Y-100450000D01*
X44200000Y-100450000D01*
X44200000Y-100074000D01*
X44219685Y-100006961D01*
X44272489Y-99961206D01*
X44324000Y-99950000D01*
X45674999Y-99950000D01*
X45674999Y-99900028D01*
X45674998Y-99900013D01*
X45664505Y-99797302D01*
X45609358Y-99630880D01*
X45609356Y-99630875D01*
X45517315Y-99481654D01*
X45393344Y-99357683D01*
X45387677Y-99353202D01*
X45389404Y-99351016D01*
X45351240Y-99308589D01*
X45340015Y-99239627D01*
X45367855Y-99175543D01*
X45393106Y-99153664D01*
X45392985Y-99153511D01*
X45396401Y-99150809D01*
X45397969Y-99149451D01*
X45398652Y-99149030D01*
X45524030Y-99023652D01*
X45617115Y-98872738D01*
X45672887Y-98704426D01*
X45683500Y-98600545D01*
X45683499Y-98119830D01*
X45703183Y-98052792D01*
X45719813Y-98032155D01*
X46932151Y-96819819D01*
X46993474Y-96786334D01*
X47019832Y-96783500D01*
X54785723Y-96783500D01*
X54852762Y-96803185D01*
G37*
%TD.AperFunction*%
%TA.AperFunction,Conductor*%
G36*
X56625000Y-110880633D02*
G01*
X56838483Y-110823433D01*
X56838492Y-110823429D01*
X57052578Y-110723600D01*
X57246082Y-110588105D01*
X57413105Y-110421082D01*
X57539868Y-110240048D01*
X57594445Y-110196423D01*
X57663944Y-110189231D01*
X57726298Y-110220753D01*
X57745251Y-110243350D01*
X57839276Y-110387265D01*
X57839284Y-110387276D01*
X57974456Y-110534109D01*
X57991760Y-110552906D01*
X58169424Y-110691189D01*
X58169425Y-110691189D01*
X58169427Y-110691191D01*
X58296135Y-110759761D01*
X58367426Y-110798342D01*
X58580365Y-110871444D01*
X58802431Y-110908500D01*
X59027569Y-110908500D01*
X59249635Y-110871444D01*
X59462574Y-110798342D01*
X59463123Y-110798045D01*
X59463371Y-110797991D01*
X59467272Y-110796281D01*
X59467623Y-110797083D01*
X59531450Y-110783445D01*
X59596824Y-110808104D01*
X59638488Y-110864192D01*
X59646145Y-110906342D01*
X59653490Y-112113985D01*
X59634213Y-112181143D01*
X59617173Y-112202420D01*
X59484077Y-112335516D01*
X59422754Y-112369001D01*
X59356133Y-112365116D01*
X59249637Y-112328556D01*
X59027569Y-112291500D01*
X58802431Y-112291500D01*
X58580362Y-112328556D01*
X58367430Y-112401656D01*
X58367419Y-112401661D01*
X58169427Y-112508808D01*
X58169422Y-112508812D01*
X57991761Y-112647092D01*
X57991756Y-112647097D01*
X57839284Y-112812723D01*
X57839276Y-112812734D01*
X57745251Y-112956650D01*
X57692105Y-113002007D01*
X57622873Y-113011430D01*
X57559538Y-112981928D01*
X57539868Y-112959951D01*
X57413113Y-112778926D01*
X57413108Y-112778920D01*
X57246082Y-112611894D01*
X57052578Y-112476399D01*
X56838492Y-112376570D01*
X56838486Y-112376567D01*
X56625000Y-112319364D01*
X56625000Y-113214498D01*
X56517315Y-113165320D01*
X56410763Y-113150000D01*
X56339237Y-113150000D01*
X56232685Y-113165320D01*
X56125000Y-113214498D01*
X56125000Y-112319364D01*
X56124999Y-112319364D01*
X55911513Y-112376567D01*
X55911507Y-112376570D01*
X55697422Y-112476399D01*
X55697420Y-112476400D01*
X55503926Y-112611886D01*
X55503920Y-112611891D01*
X55336891Y-112778920D01*
X55336890Y-112778922D01*
X55210131Y-112959952D01*
X55155554Y-113003577D01*
X55086055Y-113010769D01*
X55023701Y-112979247D01*
X55004752Y-112956656D01*
X54910722Y-112812732D01*
X54910715Y-112812725D01*
X54910715Y-112812723D01*
X54758243Y-112647097D01*
X54758238Y-112647092D01*
X54580577Y-112508812D01*
X54580572Y-112508808D01*
X54382580Y-112401661D01*
X54382577Y-112401659D01*
X54382574Y-112401658D01*
X54382571Y-112401657D01*
X54382569Y-112401656D01*
X54169637Y-112328556D01*
X53947562Y-112291498D01*
X53942458Y-112291076D01*
X53942613Y-112289194D01*
X53883427Y-112271815D01*
X53837672Y-112219011D01*
X53827728Y-112149853D01*
X53856753Y-112086297D01*
X53862785Y-112079819D01*
X54367805Y-111574799D01*
X55342463Y-110600140D01*
X55403784Y-110566657D01*
X55473476Y-110571641D01*
X55501266Y-110586249D01*
X55697414Y-110723595D01*
X55697420Y-110723599D01*
X55911507Y-110823429D01*
X55911516Y-110823433D01*
X56125000Y-110880634D01*
X56125000Y-109985501D01*
X56232685Y-110034680D01*
X56339237Y-110050000D01*
X56410763Y-110050000D01*
X56517315Y-110034680D01*
X56625000Y-109985501D01*
X56625000Y-110880633D01*
G37*
%TD.AperFunction*%
%TA.AperFunction,Conductor*%
G36*
X59545172Y-107452521D02*
G01*
X59601106Y-107494391D01*
X59625524Y-107559855D01*
X59625838Y-107567949D01*
X59629588Y-108184568D01*
X59610311Y-108251726D01*
X59557786Y-108297801D01*
X59488690Y-108308165D01*
X59465327Y-108302603D01*
X59249637Y-108228556D01*
X59027569Y-108191500D01*
X58802431Y-108191500D01*
X58580362Y-108228556D01*
X58367430Y-108301656D01*
X58367419Y-108301661D01*
X58169427Y-108408808D01*
X58169422Y-108408812D01*
X57991761Y-108547092D01*
X57991756Y-108547097D01*
X57839284Y-108712723D01*
X57839276Y-108712734D01*
X57745251Y-108856650D01*
X57692105Y-108902007D01*
X57622873Y-108911430D01*
X57559538Y-108881928D01*
X57539868Y-108859951D01*
X57413113Y-108678926D01*
X57413108Y-108678920D01*
X57246082Y-108511894D01*
X57052577Y-108376399D01*
X57052575Y-108376398D01*
X56987015Y-108345827D01*
X56934575Y-108299655D01*
X56915423Y-108232462D01*
X56935639Y-108165580D01*
X56951729Y-108145774D01*
X57554939Y-107542564D01*
X57616260Y-107509081D01*
X57685952Y-107514065D01*
X57707712Y-107524707D01*
X57736665Y-107542566D01*
X57837253Y-107604610D01*
X57837256Y-107604611D01*
X57837262Y-107604615D01*
X58005574Y-107660387D01*
X58109455Y-107671000D01*
X58960544Y-107670999D01*
X59064426Y-107660387D01*
X59232738Y-107604615D01*
X59383652Y-107511530D01*
X59414160Y-107481021D01*
X59475480Y-107447537D01*
X59545172Y-107452521D01*
G37*
%TD.AperFunction*%
%TA.AperFunction,Conductor*%
G36*
X59543039Y-100594685D02*
G01*
X59583708Y-100641619D01*
X59595417Y-102566606D01*
X59580315Y-102618039D01*
X59527511Y-102663794D01*
X59476000Y-102675000D01*
X59224000Y-102675000D01*
X59156961Y-102655315D01*
X59111206Y-102602511D01*
X59100000Y-102551000D01*
X59100000Y-100699000D01*
X59119685Y-100631961D01*
X59172489Y-100586206D01*
X59224000Y-100575000D01*
X59476000Y-100575000D01*
X59543039Y-100594685D01*
G37*
%TD.AperFunction*%
%TA.AperFunction,Conductor*%
G36*
X43245721Y-98861563D02*
G01*
X43301455Y-98903700D01*
X43307368Y-98912432D01*
X43375970Y-99023652D01*
X43501348Y-99149030D01*
X43502031Y-99149451D01*
X43502401Y-99149863D01*
X43507015Y-99153511D01*
X43506391Y-99154298D01*
X43548759Y-99201397D01*
X43559984Y-99270359D01*
X43532144Y-99334442D01*
X43511582Y-99352264D01*
X43512323Y-99353202D01*
X43506655Y-99357683D01*
X43382684Y-99481654D01*
X43290643Y-99630875D01*
X43290641Y-99630880D01*
X43242206Y-99777049D01*
X43202433Y-99834494D01*
X43137917Y-99861317D01*
X43069142Y-99849002D01*
X43017942Y-99801459D01*
X43000500Y-99738045D01*
X43000500Y-99099759D01*
X43000528Y-99099616D01*
X43000524Y-99099616D01*
X43000539Y-99075002D01*
X43000541Y-99075000D01*
X43000383Y-99074617D01*
X43000382Y-99074616D01*
X42990936Y-99051716D01*
X42992960Y-99050880D01*
X42979102Y-99025519D01*
X42984067Y-98955826D01*
X43025922Y-98899881D01*
X43074478Y-98877837D01*
X43176054Y-98856247D01*
X43245721Y-98861563D01*
G37*
%TD.AperFunction*%
%TA.AperFunction,Conductor*%
G36*
X27382621Y-82070185D02*
G01*
X27428376Y-82122989D01*
X27438320Y-82192147D01*
X27409295Y-82255703D01*
X27364186Y-82288577D01*
X27196692Y-82359939D01*
X27196684Y-82359943D01*
X27196684Y-82359944D01*
X26990832Y-82490117D01*
X26808526Y-82651625D01*
X26808524Y-82651626D01*
X26808522Y-82651629D01*
X26654489Y-82840285D01*
X26654487Y-82840289D01*
X26532715Y-83051203D01*
X26532710Y-83051213D01*
X26446345Y-83278938D01*
X26397626Y-83517574D01*
X26397625Y-83517582D01*
X26387818Y-83760932D01*
X26387818Y-83760933D01*
X26417176Y-84002721D01*
X26484937Y-84236656D01*
X26484938Y-84236659D01*
X26589351Y-84456707D01*
X26727707Y-84657148D01*
X26727708Y-84657149D01*
X26896422Y-84832800D01*
X27091129Y-84979113D01*
X27091131Y-84979114D01*
X27091135Y-84979117D01*
X27192126Y-85032121D01*
X27306792Y-85092303D01*
X27306794Y-85092303D01*
X27306795Y-85092304D01*
X27361958Y-85110720D01*
X27537817Y-85169431D01*
X27778218Y-85208500D01*
X27778221Y-85208500D01*
X29460787Y-85208500D01*
X29460797Y-85208500D01*
X29642768Y-85193810D01*
X29879248Y-85135523D01*
X30017613Y-85076571D01*
X30103307Y-85040060D01*
X30103307Y-85040059D01*
X30103316Y-85040056D01*
X30309168Y-84909883D01*
X30491474Y-84748375D01*
X30645510Y-84559714D01*
X30720035Y-84430631D01*
X30767284Y-84348796D01*
X30767285Y-84348793D01*
X30767289Y-84348787D01*
X30853656Y-84121057D01*
X30902374Y-83882421D01*
X30912181Y-83639061D01*
X30882823Y-83397280D01*
X30882823Y-83397278D01*
X30827938Y-83207794D01*
X30815061Y-83163338D01*
X30710650Y-82943296D01*
X30710649Y-82943295D01*
X30710648Y-82943292D01*
X30582702Y-82757932D01*
X30572293Y-82742852D01*
X30518339Y-82686680D01*
X30403577Y-82567199D01*
X30208870Y-82420886D01*
X30208866Y-82420883D01*
X30208865Y-82420883D01*
X30182046Y-82406807D01*
X29993207Y-82307696D01*
X29993203Y-82307695D01*
X29946545Y-82292118D01*
X29889189Y-82252217D01*
X29862510Y-82187642D01*
X29874979Y-82118894D01*
X29922636Y-82067800D01*
X29985812Y-82050500D01*
X42751000Y-82050500D01*
X42818039Y-82070185D01*
X42863794Y-82122989D01*
X42875000Y-82174500D01*
X42875000Y-84654532D01*
X42855315Y-84721571D01*
X42838681Y-84742213D01*
X42636080Y-84944813D01*
X42623721Y-84954716D01*
X42623894Y-84954925D01*
X42617884Y-84959896D01*
X42571237Y-85009570D01*
X42568532Y-85012361D01*
X42548773Y-85032121D01*
X42548758Y-85032138D01*
X42546217Y-85035413D01*
X42538653Y-85044267D01*
X42508320Y-85076571D01*
X42508312Y-85076581D01*
X42498479Y-85094467D01*
X42487803Y-85110720D01*
X42475286Y-85126857D01*
X42475285Y-85126860D01*
X42457685Y-85167529D01*
X42452548Y-85178015D01*
X42431203Y-85216841D01*
X42431203Y-85216842D01*
X42426125Y-85236620D01*
X42419825Y-85255022D01*
X42411718Y-85273757D01*
X42404788Y-85317509D01*
X42402420Y-85328945D01*
X42391400Y-85371865D01*
X42391400Y-85392284D01*
X42389873Y-85411683D01*
X42386680Y-85431841D01*
X42386680Y-85431842D01*
X42390850Y-85475957D01*
X42391400Y-85487626D01*
X42391400Y-85828393D01*
X42389204Y-85851628D01*
X42387625Y-85859903D01*
X42387625Y-85859906D01*
X42391155Y-85916014D01*
X42391400Y-85923800D01*
X42391400Y-85939862D01*
X42393412Y-85955788D01*
X42394143Y-85963535D01*
X42397675Y-86019650D01*
X42398157Y-86021134D01*
X42400279Y-86027663D01*
X42405370Y-86050437D01*
X42406425Y-86058794D01*
X42406427Y-86058801D01*
X42427121Y-86111068D01*
X42429759Y-86118395D01*
X42447136Y-86171876D01*
X42451650Y-86178988D01*
X42462246Y-86199782D01*
X42465349Y-86207619D01*
X42498397Y-86253107D01*
X42502774Y-86259548D01*
X42532898Y-86307016D01*
X42532899Y-86307017D01*
X42532900Y-86307018D01*
X42539045Y-86312788D01*
X42554479Y-86330296D01*
X42559428Y-86337107D01*
X42602760Y-86372954D01*
X42608582Y-86378088D01*
X42629378Y-86397616D01*
X42664773Y-86457854D01*
X42661982Y-86527668D01*
X42621889Y-86584890D01*
X42570277Y-86609298D01*
X42467213Y-86631205D01*
X42292746Y-86708883D01*
X42138245Y-86821135D01*
X42010459Y-86963057D01*
X41914973Y-87128443D01*
X41914970Y-87128450D01*
X41855959Y-87310068D01*
X41855958Y-87310072D01*
X41835996Y-87500000D01*
X41855958Y-87689928D01*
X41855959Y-87689931D01*
X41914970Y-87871549D01*
X41914973Y-87871556D01*
X42010460Y-88036944D01*
X42138247Y-88178866D01*
X42166805Y-88199614D01*
X42209469Y-88254942D01*
X42215448Y-88324555D01*
X42182843Y-88386351D01*
X42166805Y-88400248D01*
X42138746Y-88420634D01*
X42010959Y-88562557D01*
X41915473Y-88727943D01*
X41915470Y-88727950D01*
X41863210Y-88888791D01*
X41856458Y-88909572D01*
X41836496Y-89099500D01*
X41856458Y-89289428D01*
X41856459Y-89289431D01*
X41904595Y-89437579D01*
X41906590Y-89507420D01*
X41870510Y-89567253D01*
X41807809Y-89598081D01*
X41738394Y-89590116D01*
X41698983Y-89563578D01*
X40294819Y-88159414D01*
X40261334Y-88098091D01*
X40258500Y-88071733D01*
X40258500Y-86732313D01*
X40278185Y-86665274D01*
X40311373Y-86630740D01*
X40437038Y-86542749D01*
X40592749Y-86387038D01*
X40719056Y-86206654D01*
X40812120Y-86007076D01*
X40869115Y-85794371D01*
X40888307Y-85575000D01*
X40869115Y-85355629D01*
X40812120Y-85142924D01*
X40719056Y-84943347D01*
X40719054Y-84943344D01*
X40719053Y-84943342D01*
X40655902Y-84853154D01*
X40592749Y-84762962D01*
X40437038Y-84607251D01*
X40256654Y-84480944D01*
X40241387Y-84473825D01*
X40057081Y-84387882D01*
X40057079Y-84387881D01*
X40057076Y-84387880D01*
X39883986Y-84341500D01*
X39844372Y-84330885D01*
X39844365Y-84330884D01*
X39625002Y-84311693D01*
X39624998Y-84311693D01*
X39405634Y-84330884D01*
X39405627Y-84330885D01*
X39192920Y-84387881D01*
X38993346Y-84480944D01*
X38993342Y-84480946D01*
X38812967Y-84607247D01*
X38812960Y-84607252D01*
X38657252Y-84762960D01*
X38657247Y-84762967D01*
X38530946Y-84943342D01*
X38530944Y-84943346D01*
X38437881Y-85142920D01*
X38380885Y-85355627D01*
X38380884Y-85355634D01*
X38361693Y-85574997D01*
X38361693Y-85575002D01*
X38380884Y-85794365D01*
X38380885Y-85794372D01*
X38393813Y-85842618D01*
X38437880Y-86007076D01*
X38437881Y-86007079D01*
X38437882Y-86007081D01*
X38527841Y-86200000D01*
X38530944Y-86206654D01*
X38657251Y-86387038D01*
X38812962Y-86542749D01*
X38938625Y-86630739D01*
X38982249Y-86685316D01*
X38991500Y-86732313D01*
X38991500Y-88301866D01*
X38989761Y-88317613D01*
X38990032Y-88317639D01*
X38989298Y-88325405D01*
X38989298Y-88325408D01*
X38989298Y-88325409D01*
X38989782Y-88340795D01*
X38991439Y-88393516D01*
X38991500Y-88397412D01*
X38991500Y-88425359D01*
X38992018Y-88429458D01*
X38992934Y-88441098D01*
X38994326Y-88485389D01*
X38994327Y-88485391D01*
X39000022Y-88504995D01*
X39003967Y-88524042D01*
X39006526Y-88544297D01*
X39006527Y-88544300D01*
X39006528Y-88544304D01*
X39022838Y-88585500D01*
X39026621Y-88596549D01*
X39038981Y-88639092D01*
X39049372Y-88656662D01*
X39057932Y-88674135D01*
X39065447Y-88693117D01*
X39091491Y-88728963D01*
X39097905Y-88738727D01*
X39120458Y-88776862D01*
X39120462Y-88776866D01*
X39134889Y-88791293D01*
X39147526Y-88806088D01*
X39159528Y-88822607D01*
X39188632Y-88846684D01*
X39193668Y-88850850D01*
X39202309Y-88858713D01*
X39371157Y-89027561D01*
X39404642Y-89088884D01*
X39399658Y-89158576D01*
X39357786Y-89214509D01*
X39315571Y-89235016D01*
X39211724Y-89262842D01*
X39192920Y-89267881D01*
X38993346Y-89360944D01*
X38993342Y-89360946D01*
X38812967Y-89487247D01*
X38812960Y-89487252D01*
X38657252Y-89642960D01*
X38657247Y-89642967D01*
X38530946Y-89823342D01*
X38530944Y-89823346D01*
X38437881Y-90022920D01*
X38380885Y-90235627D01*
X38380884Y-90235634D01*
X38361693Y-90454997D01*
X38361693Y-90455002D01*
X38380884Y-90674365D01*
X38380885Y-90674372D01*
X38391096Y-90712477D01*
X38437880Y-90887076D01*
X38437881Y-90887079D01*
X38437882Y-90887081D01*
X38493195Y-91005700D01*
X38530944Y-91086654D01*
X38657251Y-91267038D01*
X38812962Y-91422749D01*
X38938625Y-91510739D01*
X38982249Y-91565316D01*
X38991500Y-91612313D01*
X38991500Y-92416366D01*
X38989761Y-92432113D01*
X38990032Y-92432139D01*
X38989298Y-92439905D01*
X38989298Y-92439908D01*
X38989298Y-92439909D01*
X38991399Y-92506745D01*
X38991439Y-92508016D01*
X38991500Y-92511912D01*
X38991500Y-92539859D01*
X38992018Y-92543958D01*
X38992934Y-92555598D01*
X38994326Y-92599889D01*
X38994327Y-92599891D01*
X39000022Y-92619495D01*
X39003967Y-92638542D01*
X39006526Y-92658797D01*
X39006527Y-92658800D01*
X39006528Y-92658804D01*
X39022838Y-92700000D01*
X39026621Y-92711049D01*
X39038981Y-92753592D01*
X39049372Y-92771162D01*
X39057932Y-92788635D01*
X39065447Y-92807617D01*
X39091491Y-92843463D01*
X39097905Y-92853227D01*
X39120458Y-92891362D01*
X39120462Y-92891366D01*
X39134889Y-92905793D01*
X39147526Y-92920588D01*
X39159528Y-92937107D01*
X39167621Y-92943802D01*
X39193668Y-92965350D01*
X39202309Y-92973213D01*
X40705181Y-94476086D01*
X40738666Y-94537409D01*
X40741500Y-94563767D01*
X40741500Y-94720935D01*
X40721815Y-94787974D01*
X40669011Y-94833729D01*
X40599853Y-94843673D01*
X40536297Y-94814648D01*
X40521956Y-94799976D01*
X40517264Y-94794304D01*
X40334192Y-94573008D01*
X40113271Y-94365550D01*
X40113268Y-94365548D01*
X40113262Y-94365543D01*
X39868101Y-94187423D01*
X39868094Y-94187418D01*
X39868090Y-94187416D01*
X39602517Y-94041415D01*
X39602514Y-94041413D01*
X39602509Y-94041411D01*
X39602508Y-94041410D01*
X39320742Y-93929851D01*
X39320739Y-93929850D01*
X39027197Y-93854483D01*
X38726539Y-93816500D01*
X38726530Y-93816500D01*
X38423470Y-93816500D01*
X38423460Y-93816500D01*
X38122802Y-93854483D01*
X37829260Y-93929850D01*
X37829257Y-93929851D01*
X37547491Y-94041410D01*
X37547490Y-94041411D01*
X37281910Y-94187416D01*
X37281898Y-94187423D01*
X37036737Y-94365543D01*
X37036727Y-94365551D01*
X36876687Y-94515839D01*
X36815808Y-94573008D01*
X36787897Y-94606747D01*
X36622626Y-94806524D01*
X36460247Y-95062393D01*
X36460244Y-95062397D01*
X36460242Y-95062402D01*
X36369629Y-95254966D01*
X36331204Y-95336624D01*
X36331203Y-95336625D01*
X36259932Y-95555977D01*
X36237555Y-95624846D01*
X36183886Y-95906189D01*
X36180766Y-95922544D01*
X36180765Y-95922548D01*
X36161738Y-96224994D01*
X36161738Y-96225005D01*
X36180765Y-96527451D01*
X36180766Y-96527455D01*
X36180766Y-96527459D01*
X36180767Y-96527462D01*
X36237555Y-96825154D01*
X36263251Y-96904238D01*
X36331203Y-97113374D01*
X36331204Y-97113375D01*
X36331206Y-97113381D01*
X36460242Y-97387598D01*
X36460246Y-97387605D01*
X36460247Y-97387606D01*
X36622626Y-97643475D01*
X36622629Y-97643479D01*
X36622630Y-97643480D01*
X36815808Y-97876992D01*
X36928573Y-97982885D01*
X37036727Y-98084448D01*
X37036737Y-98084456D01*
X37281898Y-98262576D01*
X37281903Y-98262578D01*
X37281910Y-98262584D01*
X37547483Y-98408585D01*
X37547488Y-98408587D01*
X37547490Y-98408588D01*
X37547491Y-98408589D01*
X37829257Y-98520148D01*
X37829260Y-98520149D01*
X37927107Y-98545271D01*
X38122800Y-98595516D01*
X38236525Y-98609883D01*
X38423460Y-98633499D01*
X38423466Y-98633499D01*
X38423470Y-98633500D01*
X38423472Y-98633500D01*
X38726528Y-98633500D01*
X38726530Y-98633500D01*
X38726535Y-98633499D01*
X38726539Y-98633499D01*
X38806357Y-98623415D01*
X39027200Y-98595516D01*
X39320739Y-98520149D01*
X39340205Y-98512442D01*
X39602508Y-98408589D01*
X39602509Y-98408588D01*
X39602507Y-98408588D01*
X39602517Y-98408585D01*
X39868090Y-98262584D01*
X40113271Y-98084450D01*
X40334192Y-97876992D01*
X40527370Y-97643480D01*
X40663758Y-97428567D01*
X40716298Y-97382513D01*
X40785398Y-97372174D01*
X40849119Y-97400835D01*
X40873991Y-97429913D01*
X40900969Y-97473651D01*
X40900970Y-97473652D01*
X41026348Y-97599030D01*
X41177262Y-97692115D01*
X41345574Y-97747887D01*
X41449455Y-97758500D01*
X41679666Y-97758499D01*
X41746706Y-97778183D01*
X41767348Y-97794818D01*
X42015836Y-98043306D01*
X42049321Y-98104629D01*
X42051475Y-98118018D01*
X42056458Y-98165428D01*
X42056459Y-98165430D01*
X42056459Y-98165432D01*
X42115470Y-98347049D01*
X42115473Y-98347056D01*
X42210960Y-98512444D01*
X42338747Y-98654366D01*
X42493248Y-98766618D01*
X42651824Y-98837220D01*
X42705062Y-98882471D01*
X42725383Y-98949320D01*
X42706338Y-99016543D01*
X42653972Y-99062799D01*
X42601389Y-99074500D01*
X29925741Y-99074500D01*
X29858702Y-99054815D01*
X29812947Y-99002011D01*
X29803003Y-98932853D01*
X29832028Y-98869297D01*
X29877137Y-98836423D01*
X30103307Y-98740060D01*
X30103307Y-98740059D01*
X30103316Y-98740056D01*
X30309168Y-98609883D01*
X30491474Y-98448375D01*
X30645510Y-98259714D01*
X30735049Y-98104629D01*
X30767284Y-98048796D01*
X30767285Y-98048793D01*
X30767289Y-98048787D01*
X30853656Y-97821057D01*
X30902374Y-97582421D01*
X30912181Y-97339061D01*
X30884778Y-97113381D01*
X30882823Y-97097278D01*
X30835517Y-96933962D01*
X30815061Y-96863338D01*
X30710650Y-96643296D01*
X30710649Y-96643295D01*
X30710648Y-96643292D01*
X30612315Y-96500834D01*
X30572293Y-96442852D01*
X30494016Y-96361357D01*
X30403577Y-96267199D01*
X30208870Y-96120886D01*
X30208866Y-96120883D01*
X30208865Y-96120883D01*
X30171661Y-96101357D01*
X29993207Y-96007696D01*
X29993203Y-96007695D01*
X29762182Y-95930568D01*
X29521782Y-95891500D01*
X29521779Y-95891500D01*
X27839203Y-95891500D01*
X27839193Y-95891500D01*
X27657232Y-95906189D01*
X27420749Y-95964477D01*
X27196692Y-96059939D01*
X27196684Y-96059943D01*
X27196684Y-96059944D01*
X26990832Y-96190117D01*
X26808526Y-96351625D01*
X26808524Y-96351626D01*
X26808522Y-96351629D01*
X26654489Y-96540285D01*
X26654487Y-96540289D01*
X26532715Y-96751203D01*
X26532710Y-96751213D01*
X26446345Y-96978938D01*
X26397626Y-97217574D01*
X26397625Y-97217582D01*
X26387818Y-97460932D01*
X26387818Y-97460933D01*
X26417176Y-97702721D01*
X26468579Y-97880181D01*
X26484939Y-97936662D01*
X26488069Y-97943258D01*
X26589351Y-98156707D01*
X26727707Y-98357148D01*
X26727708Y-98357149D01*
X26896422Y-98532800D01*
X27091129Y-98679113D01*
X27091131Y-98679114D01*
X27091135Y-98679117D01*
X27166124Y-98718474D01*
X27306792Y-98792303D01*
X27306794Y-98792303D01*
X27306795Y-98792304D01*
X27352673Y-98807620D01*
X27428339Y-98832882D01*
X27485695Y-98872782D01*
X27512374Y-98937358D01*
X27499905Y-99006106D01*
X27452248Y-99057200D01*
X27389072Y-99074500D01*
X22949500Y-99074500D01*
X22882461Y-99054815D01*
X22836706Y-99002011D01*
X22825500Y-98950500D01*
X22825500Y-91610806D01*
X26341500Y-91610806D01*
X26356189Y-91792767D01*
X26414477Y-92029250D01*
X26509939Y-92253307D01*
X26509942Y-92253312D01*
X26509944Y-92253316D01*
X26640117Y-92459168D01*
X26801625Y-92641474D01*
X26801629Y-92641477D01*
X26990285Y-92795510D01*
X26990289Y-92795512D01*
X27201203Y-92917284D01*
X27201213Y-92917289D01*
X27428943Y-93003656D01*
X27667579Y-93052374D01*
X27740587Y-93055316D01*
X27910932Y-93062181D01*
X27910933Y-93062181D01*
X27910934Y-93062180D01*
X27910939Y-93062181D01*
X28118179Y-93037017D01*
X28152721Y-93032823D01*
X28253423Y-93003654D01*
X28386662Y-92965061D01*
X28606704Y-92860650D01*
X28807148Y-92722293D01*
X28982802Y-92553575D01*
X29129117Y-92358865D01*
X29242304Y-92143205D01*
X29319431Y-91912182D01*
X29329536Y-91850001D01*
X30186502Y-91850001D01*
X30206456Y-92078081D01*
X30206457Y-92078089D01*
X30265714Y-92299238D01*
X30265718Y-92299249D01*
X30362475Y-92506745D01*
X30362477Y-92506749D01*
X30493802Y-92694300D01*
X30655700Y-92856198D01*
X30843251Y-92987523D01*
X30913050Y-93020070D01*
X30948322Y-93044769D01*
X31455599Y-93552046D01*
X31374852Y-93564835D01*
X31261955Y-93622359D01*
X31172359Y-93711955D01*
X31114835Y-93824852D01*
X31102046Y-93905598D01*
X30420974Y-93224526D01*
X30420973Y-93224526D01*
X30369868Y-93297512D01*
X30369866Y-93297516D01*
X30273734Y-93503673D01*
X30273730Y-93503682D01*
X30214860Y-93723389D01*
X30214858Y-93723400D01*
X30195034Y-93949997D01*
X30195034Y-93950002D01*
X30214858Y-94176599D01*
X30214860Y-94176610D01*
X30273730Y-94396317D01*
X30273735Y-94396331D01*
X30369863Y-94602478D01*
X30420974Y-94675472D01*
X31102046Y-93994400D01*
X31114835Y-94075148D01*
X31172359Y-94188045D01*
X31261955Y-94277641D01*
X31374852Y-94335165D01*
X31455599Y-94347953D01*
X30774526Y-95029025D01*
X30847513Y-95080132D01*
X30847521Y-95080136D01*
X31053668Y-95176264D01*
X31053682Y-95176269D01*
X31273389Y-95235139D01*
X31273400Y-95235141D01*
X31499998Y-95254966D01*
X31500002Y-95254966D01*
X31726599Y-95235141D01*
X31726610Y-95235139D01*
X31946317Y-95176269D01*
X31946331Y-95176264D01*
X32152478Y-95080136D01*
X32225471Y-95029024D01*
X31544400Y-94347953D01*
X31625148Y-94335165D01*
X31738045Y-94277641D01*
X31827641Y-94188045D01*
X31885165Y-94075148D01*
X31897953Y-93994400D01*
X32579024Y-94675471D01*
X32630136Y-94602478D01*
X32726264Y-94396331D01*
X32726269Y-94396317D01*
X32775825Y-94211370D01*
X32812190Y-94151709D01*
X32875037Y-94121180D01*
X32944412Y-94129475D01*
X32998290Y-94173960D01*
X33015375Y-94211369D01*
X33065714Y-94399238D01*
X33065718Y-94399249D01*
X33142434Y-94563767D01*
X33162477Y-94606749D01*
X33293802Y-94794300D01*
X33455700Y-94956198D01*
X33643251Y-95087523D01*
X33676086Y-95102834D01*
X33850750Y-95184281D01*
X33850752Y-95184281D01*
X33850757Y-95184284D01*
X34071913Y-95243543D01*
X34234832Y-95257796D01*
X34299998Y-95263498D01*
X34300000Y-95263498D01*
X34300002Y-95263498D01*
X34357021Y-95258509D01*
X34528087Y-95243543D01*
X34749243Y-95184284D01*
X34956749Y-95087523D01*
X35144300Y-94956198D01*
X35306198Y-94794300D01*
X35437523Y-94606749D01*
X35534284Y-94399243D01*
X35593543Y-94178087D01*
X35613498Y-93950000D01*
X35593543Y-93721913D01*
X35534284Y-93500757D01*
X35437523Y-93293251D01*
X35306198Y-93105700D01*
X35144300Y-92943802D01*
X34956749Y-92812477D01*
X34946327Y-92807617D01*
X34749249Y-92715718D01*
X34749238Y-92715714D01*
X34528089Y-92656457D01*
X34528081Y-92656456D01*
X34300002Y-92636502D01*
X34299998Y-92636502D01*
X34071918Y-92656456D01*
X34071910Y-92656457D01*
X33850761Y-92715714D01*
X33850750Y-92715718D01*
X33643254Y-92812475D01*
X33643252Y-92812476D01*
X33592246Y-92848191D01*
X33455700Y-92943802D01*
X33455698Y-92943803D01*
X33455695Y-92943806D01*
X33293806Y-93105695D01*
X33293803Y-93105698D01*
X33293802Y-93105700D01*
X33214277Y-93219273D01*
X33162476Y-93293252D01*
X33162475Y-93293254D01*
X33065718Y-93500750D01*
X33065714Y-93500762D01*
X33015375Y-93688630D01*
X32979010Y-93748290D01*
X32916163Y-93778819D01*
X32846787Y-93770524D01*
X32792909Y-93726039D01*
X32775825Y-93688629D01*
X32726269Y-93503682D01*
X32726264Y-93503668D01*
X32630136Y-93297521D01*
X32630132Y-93297513D01*
X32579025Y-93224526D01*
X31897953Y-93905598D01*
X31885165Y-93824852D01*
X31827641Y-93711955D01*
X31738045Y-93622359D01*
X31625148Y-93564835D01*
X31544401Y-93552046D01*
X32051674Y-93044771D01*
X32086951Y-93020070D01*
X32156749Y-92987523D01*
X32344300Y-92856198D01*
X32506198Y-92694300D01*
X32637523Y-92506749D01*
X32734284Y-92299243D01*
X32793543Y-92078087D01*
X32813498Y-91850000D01*
X32793543Y-91621913D01*
X32734284Y-91400757D01*
X32637523Y-91193251D01*
X32506198Y-91005700D01*
X32344300Y-90843802D01*
X32258998Y-90784073D01*
X32215375Y-90729497D01*
X32208183Y-90659999D01*
X32239705Y-90597644D01*
X32299935Y-90562231D01*
X32330124Y-90558500D01*
X32348638Y-90558500D01*
X32348654Y-90558499D01*
X32375692Y-90555591D01*
X32409201Y-90551989D01*
X32546204Y-90500889D01*
X32663261Y-90413261D01*
X32750889Y-90296204D01*
X32801989Y-90159201D01*
X32805591Y-90125692D01*
X32808499Y-90098654D01*
X32808500Y-90098637D01*
X32808500Y-88401362D01*
X32808499Y-88401345D01*
X32805157Y-88370270D01*
X32801989Y-88340799D01*
X32796247Y-88325405D01*
X32776801Y-88273267D01*
X32750889Y-88203796D01*
X32663261Y-88086739D01*
X32653173Y-88079187D01*
X32613911Y-88049795D01*
X32572040Y-87993861D01*
X32567056Y-87924170D01*
X32586648Y-87879405D01*
X32637523Y-87806749D01*
X32734284Y-87599243D01*
X32780225Y-87427788D01*
X32816590Y-87368129D01*
X32879437Y-87337600D01*
X32948813Y-87345895D01*
X33002690Y-87390380D01*
X33019774Y-87427787D01*
X33024314Y-87444729D01*
X33065714Y-87599238D01*
X33065718Y-87599249D01*
X33108004Y-87689931D01*
X33162477Y-87806749D01*
X33293802Y-87994300D01*
X33455700Y-88156198D01*
X33643251Y-88287523D01*
X33726707Y-88326439D01*
X33850750Y-88384281D01*
X33850752Y-88384281D01*
X33850757Y-88384284D01*
X34071913Y-88443543D01*
X34234832Y-88457796D01*
X34299998Y-88463498D01*
X34300000Y-88463498D01*
X34300002Y-88463498D01*
X34357021Y-88458509D01*
X34528087Y-88443543D01*
X34749243Y-88384284D01*
X34956749Y-88287523D01*
X35144300Y-88156198D01*
X35306198Y-87994300D01*
X35437523Y-87806749D01*
X35534284Y-87599243D01*
X35593543Y-87378087D01*
X35613498Y-87150000D01*
X35593543Y-86921913D01*
X35534284Y-86700757D01*
X35437523Y-86493251D01*
X35306198Y-86305700D01*
X35144300Y-86143802D01*
X34956749Y-86012477D01*
X34956745Y-86012475D01*
X34749249Y-85915718D01*
X34749238Y-85915714D01*
X34528089Y-85856457D01*
X34528081Y-85856456D01*
X34300002Y-85836502D01*
X34299998Y-85836502D01*
X34071918Y-85856456D01*
X34071910Y-85856457D01*
X33850761Y-85915714D01*
X33850750Y-85915718D01*
X33643254Y-86012475D01*
X33643252Y-86012476D01*
X33621563Y-86027663D01*
X33455700Y-86143802D01*
X33455698Y-86143803D01*
X33455695Y-86143806D01*
X33293806Y-86305695D01*
X33293803Y-86305698D01*
X33293802Y-86305700D01*
X33229443Y-86397614D01*
X33162476Y-86493252D01*
X33162475Y-86493254D01*
X33065718Y-86700750D01*
X33065714Y-86700761D01*
X33019775Y-86872210D01*
X32983410Y-86931870D01*
X32920563Y-86962399D01*
X32851187Y-86954104D01*
X32797309Y-86909619D01*
X32780225Y-86872210D01*
X32734285Y-86700761D01*
X32734281Y-86700750D01*
X32653572Y-86527668D01*
X32637523Y-86493251D01*
X32506198Y-86305700D01*
X32344300Y-86143802D01*
X32156749Y-86012477D01*
X32156745Y-86012475D01*
X31949249Y-85915718D01*
X31949238Y-85915714D01*
X31728089Y-85856457D01*
X31728081Y-85856456D01*
X31500002Y-85836502D01*
X31499998Y-85836502D01*
X31271918Y-85856456D01*
X31271910Y-85856457D01*
X31050761Y-85915714D01*
X31050750Y-85915718D01*
X30843254Y-86012475D01*
X30843252Y-86012476D01*
X30821563Y-86027663D01*
X30655700Y-86143802D01*
X30655698Y-86143803D01*
X30655695Y-86143806D01*
X30493806Y-86305695D01*
X30493803Y-86305698D01*
X30493802Y-86305700D01*
X30429443Y-86397614D01*
X30362476Y-86493252D01*
X30362475Y-86493254D01*
X30265718Y-86700750D01*
X30265714Y-86700761D01*
X30206457Y-86921910D01*
X30206456Y-86921918D01*
X30186502Y-87149998D01*
X30186502Y-87150001D01*
X30206456Y-87378081D01*
X30206457Y-87378089D01*
X30265714Y-87599238D01*
X30265718Y-87599249D01*
X30308004Y-87689931D01*
X30362477Y-87806749D01*
X30413352Y-87879407D01*
X30435679Y-87945611D01*
X30418669Y-88013379D01*
X30386089Y-88049795D01*
X30336740Y-88086738D01*
X30249111Y-88203795D01*
X30198011Y-88340795D01*
X30198011Y-88340797D01*
X30191500Y-88401345D01*
X30191500Y-90098654D01*
X30198011Y-90159202D01*
X30198011Y-90159204D01*
X30246000Y-90287863D01*
X30249111Y-90296204D01*
X30336739Y-90413261D01*
X30453796Y-90500889D01*
X30590799Y-90551989D01*
X30618050Y-90554918D01*
X30651345Y-90558499D01*
X30651362Y-90558500D01*
X30669876Y-90558500D01*
X30736915Y-90578185D01*
X30782670Y-90630989D01*
X30792614Y-90700147D01*
X30763589Y-90763703D01*
X30741004Y-90784071D01*
X30655700Y-90843802D01*
X30655698Y-90843803D01*
X30655695Y-90843806D01*
X30493806Y-91005695D01*
X30362476Y-91193252D01*
X30362475Y-91193254D01*
X30265718Y-91400750D01*
X30265714Y-91400761D01*
X30206457Y-91621910D01*
X30206456Y-91621918D01*
X30186502Y-91849998D01*
X30186502Y-91850001D01*
X29329536Y-91850001D01*
X29358500Y-91671779D01*
X29358500Y-89489203D01*
X29343810Y-89307232D01*
X29285523Y-89070752D01*
X29266432Y-89025944D01*
X29190060Y-88846692D01*
X29190058Y-88846689D01*
X29190056Y-88846684D01*
X29059883Y-88640832D01*
X28898375Y-88458526D01*
X28857749Y-88425356D01*
X28709714Y-88304489D01*
X28709710Y-88304487D01*
X28498796Y-88182715D01*
X28498786Y-88182710D01*
X28271061Y-88096345D01*
X28271058Y-88096344D01*
X28271057Y-88096344D01*
X28223999Y-88086737D01*
X28032425Y-88047626D01*
X28032417Y-88047625D01*
X27789067Y-88037818D01*
X27789066Y-88037818D01*
X27547278Y-88067176D01*
X27313343Y-88134937D01*
X27313340Y-88134938D01*
X27093292Y-88239351D01*
X26892851Y-88377707D01*
X26892850Y-88377708D01*
X26717199Y-88546422D01*
X26570886Y-88741129D01*
X26570880Y-88741140D01*
X26457696Y-88956792D01*
X26457695Y-88956796D01*
X26380568Y-89187817D01*
X26380568Y-89187818D01*
X26341500Y-89428218D01*
X26341500Y-91610806D01*
X22825500Y-91610806D01*
X22825500Y-82174500D01*
X22845185Y-82107461D01*
X22897989Y-82061706D01*
X22949500Y-82050500D01*
X27315582Y-82050500D01*
X27382621Y-82070185D01*
G37*
%TD.AperFunction*%
%TA.AperFunction,Conductor*%
G36*
X42422760Y-89948280D02*
G01*
X42467712Y-89968294D01*
X42568422Y-89989700D01*
X42629903Y-90022892D01*
X42663680Y-90084055D01*
X42659028Y-90153769D01*
X42630322Y-90198671D01*
X42619100Y-90209893D01*
X42604308Y-90222527D01*
X42587797Y-90234523D01*
X42587794Y-90234526D01*
X42576020Y-90248758D01*
X42518119Y-90287863D01*
X42448267Y-90289456D01*
X42392799Y-90257394D01*
X42284647Y-90149242D01*
X42251162Y-90087919D01*
X42256146Y-90018227D01*
X42298018Y-89962294D01*
X42363482Y-89937877D01*
X42422760Y-89948280D01*
G37*
%TD.AperFunction*%
%TD*%
M02*
