%TF.GenerationSoftware,KiCad,Pcbnew,7.0.10*%
%TF.CreationDate,2024-06-09T02:47:37+01:00*%
%TF.ProjectId,Electron-PS2Slim,456c6563-7472-46f6-9e2d-505332536c69,rev?*%
%TF.SameCoordinates,Original*%
%TF.FileFunction,Soldermask,Top*%
%TF.FilePolarity,Negative*%
%FSLAX46Y46*%
G04 Gerber Fmt 4.6, Leading zero omitted, Abs format (unit mm)*
G04 Created by KiCad (PCBNEW 7.0.10) date 2024-06-09 02:47:37*
%MOMM*%
%LPD*%
G01*
G04 APERTURE LIST*
G04 Aperture macros list*
%AMRoundRect*
0 Rectangle with rounded corners*
0 $1 Rounding radius*
0 $2 $3 $4 $5 $6 $7 $8 $9 X,Y pos of 4 corners*
0 Add a 4 corners polygon primitive as box body*
4,1,4,$2,$3,$4,$5,$6,$7,$8,$9,$2,$3,0*
0 Add four circle primitives for the rounded corners*
1,1,$1+$1,$2,$3*
1,1,$1+$1,$4,$5*
1,1,$1+$1,$6,$7*
1,1,$1+$1,$8,$9*
0 Add four rect primitives between the rounded corners*
20,1,$1+$1,$2,$3,$4,$5,0*
20,1,$1+$1,$4,$5,$6,$7,0*
20,1,$1+$1,$6,$7,$8,$9,0*
20,1,$1+$1,$8,$9,$2,$3,0*%
%AMFreePoly0*
4,1,9,3.862500,-0.866500,0.737500,-0.866500,0.737500,-0.450000,-0.737500,-0.450000,-0.737500,0.450000,0.737500,0.450000,0.737500,0.866500,3.862500,0.866500,3.862500,-0.866500,3.862500,-0.866500,$1*%
G04 Aperture macros list end*
%ADD10R,1.200000X0.900000*%
%ADD11R,1.300000X0.900000*%
%ADD12FreePoly0,180.000000*%
%ADD13C,3.800000*%
%ADD14RoundRect,0.250000X-0.250000X-0.475000X0.250000X-0.475000X0.250000X0.475000X-0.250000X0.475000X0*%
%ADD15RoundRect,0.250000X0.450000X-0.262500X0.450000X0.262500X-0.450000X0.262500X-0.450000X-0.262500X0*%
%ADD16RoundRect,0.250000X-0.375000X-0.625000X0.375000X-0.625000X0.375000X0.625000X-0.375000X0.625000X0*%
%ADD17R,1.500000X0.550000*%
%ADD18R,0.550000X1.500000*%
%ADD19RoundRect,0.250000X-0.475000X0.250000X-0.475000X-0.250000X0.475000X-0.250000X0.475000X0.250000X0*%
%ADD20RoundRect,0.250000X-0.450000X0.262500X-0.450000X-0.262500X0.450000X-0.262500X0.450000X0.262500X0*%
%ADD21R,1.600000X0.550000*%
%ADD22R,0.550000X1.600000*%
%ADD23R,1.700000X1.700000*%
%ADD24O,1.700000X1.700000*%
%ADD25R,1.600000X1.600000*%
%ADD26C,1.600000*%
%ADD27O,3.500000X2.000000*%
%ADD28O,2.000000X4.000000*%
%ADD29C,1.500000*%
G04 APERTURE END LIST*
D10*
%TO.C,D6*%
X83275000Y-106875000D03*
X83275000Y-103575000D03*
%TD*%
D11*
%TO.C,Q1*%
X56025000Y-100587500D03*
D12*
X55937500Y-99087500D03*
D11*
X56025000Y-97587500D03*
%TD*%
D10*
%TO.C,D7*%
X85375000Y-106875000D03*
X85375000Y-103575000D03*
%TD*%
D13*
%TO.C,H9*%
X38575000Y-96225000D03*
%TD*%
D14*
%TO.C,C802*%
X55150000Y-93650000D03*
X57050000Y-93650000D03*
%TD*%
D15*
%TO.C,R18*%
X50625000Y-104250000D03*
X50625000Y-102425000D03*
%TD*%
D10*
%TO.C,D9*%
X89625000Y-106875000D03*
X89625000Y-103575000D03*
%TD*%
D16*
%TO.C,D17*%
X58535000Y-106287500D03*
X61335000Y-106287500D03*
%TD*%
D10*
%TO.C,D8*%
X87500000Y-106875000D03*
X87500000Y-103575000D03*
%TD*%
D17*
%TO.C,IC803*%
X73500000Y-98425000D03*
X73500000Y-97625000D03*
X73500000Y-96825000D03*
X73500000Y-96025000D03*
X73500000Y-95225000D03*
X73500000Y-94425000D03*
X73500000Y-93625000D03*
X73500000Y-92825000D03*
X73500000Y-92025000D03*
X73500000Y-91225000D03*
X73500000Y-90425000D03*
D18*
X71800000Y-88725000D03*
X71000000Y-88725000D03*
X70200000Y-88725000D03*
X69400000Y-88725000D03*
X68600000Y-88725000D03*
X67800000Y-88725000D03*
X67000000Y-88725000D03*
X66200000Y-88725000D03*
X65400000Y-88725000D03*
X64600000Y-88725000D03*
X63800000Y-88725000D03*
D17*
X62100000Y-90425000D03*
X62100000Y-91225000D03*
X62100000Y-92025000D03*
X62100000Y-92825000D03*
X62100000Y-93625000D03*
X62100000Y-94425000D03*
X62100000Y-95225000D03*
X62100000Y-96025000D03*
X62100000Y-96825000D03*
X62100000Y-97625000D03*
X62100000Y-98425000D03*
D18*
X63800000Y-100125000D03*
X64600000Y-100125000D03*
X65400000Y-100125000D03*
X66200000Y-100125000D03*
X67000000Y-100125000D03*
X67800000Y-100125000D03*
X68600000Y-100125000D03*
X69400000Y-100125000D03*
X70200000Y-100125000D03*
X71000000Y-100125000D03*
X71800000Y-100125000D03*
%TD*%
D19*
%TO.C,C806*%
X59350000Y-98925000D03*
X59350000Y-100825000D03*
%TD*%
D15*
%TO.C,R3*%
X66050000Y-106700000D03*
X66050000Y-104875000D03*
%TD*%
%TO.C,R4*%
X68200000Y-106700000D03*
X68200000Y-104875000D03*
%TD*%
D20*
%TO.C,R17*%
X56025000Y-102425000D03*
X56025000Y-104250000D03*
%TD*%
D10*
%TO.C,D14*%
X100200000Y-106875000D03*
X100200000Y-103575000D03*
%TD*%
D19*
%TO.C,C807*%
X44450000Y-98300000D03*
X44450000Y-100200000D03*
%TD*%
D10*
%TO.C,D3*%
X76925000Y-106875000D03*
X76925000Y-103575000D03*
%TD*%
D19*
%TO.C,C801*%
X41975000Y-94850000D03*
X41975000Y-96750000D03*
%TD*%
D10*
%TO.C,D5*%
X81150000Y-106875000D03*
X81150000Y-103575000D03*
%TD*%
D16*
%TO.C,D16*%
X53225000Y-106287500D03*
X56025000Y-106287500D03*
%TD*%
D21*
%TO.C,IC800*%
X44150000Y-85900000D03*
X44150000Y-86700000D03*
X44150000Y-87500000D03*
X44150000Y-88300000D03*
X44150000Y-89100000D03*
X44150000Y-89900000D03*
X44150000Y-90700000D03*
X44150000Y-91500000D03*
D22*
X45600000Y-92950000D03*
X46400000Y-92950000D03*
X47200000Y-92950000D03*
X48000000Y-92950000D03*
X48800000Y-92950000D03*
X49600000Y-92950000D03*
X50400000Y-92950000D03*
X51200000Y-92950000D03*
D21*
X52650000Y-91500000D03*
X52650000Y-90700000D03*
X52650000Y-89900000D03*
X52650000Y-89100000D03*
X52650000Y-88300000D03*
X52650000Y-87500000D03*
X52650000Y-86700000D03*
X52650000Y-85900000D03*
D22*
X51200000Y-84450000D03*
X50400000Y-84450000D03*
X49600000Y-84450000D03*
X48800000Y-84450000D03*
X48000000Y-84450000D03*
X47200000Y-84450000D03*
X46400000Y-84450000D03*
X45600000Y-84450000D03*
%TD*%
D19*
%TO.C,C800*%
X44025000Y-94850000D03*
X44025000Y-96750000D03*
%TD*%
D10*
%TO.C,D12*%
X96000000Y-106875000D03*
X96000000Y-103575000D03*
%TD*%
D23*
%TO.C,CP1*%
X48755000Y-113650000D03*
D24*
X51295000Y-113650000D03*
X53835000Y-113650000D03*
X56375000Y-113650000D03*
X58915000Y-113650000D03*
X61455000Y-113650000D03*
X63995000Y-113650000D03*
X66535000Y-113650000D03*
X69075000Y-113650000D03*
X71615000Y-113650000D03*
X74155000Y-113650000D03*
X76695000Y-113650000D03*
X79235000Y-113650000D03*
X81775000Y-113650000D03*
X84315000Y-113650000D03*
X86855000Y-113650000D03*
X89395000Y-113650000D03*
X91935000Y-113650000D03*
X94475000Y-113650000D03*
X97015000Y-113650000D03*
X99555000Y-113650000D03*
X102095000Y-113650000D03*
%TD*%
D20*
%TO.C,R804*%
X59350000Y-102425000D03*
X59350000Y-104250000D03*
%TD*%
D15*
%TO.C,R16*%
X54050000Y-104250000D03*
X54050000Y-102425000D03*
%TD*%
%TO.C,R5*%
X70350000Y-106700000D03*
X70350000Y-104875000D03*
%TD*%
%TO.C,R2*%
X63900000Y-106700000D03*
X63900000Y-104875000D03*
%TD*%
D10*
%TO.C,D4*%
X79050000Y-106875000D03*
X79050000Y-103575000D03*
%TD*%
%TO.C,D13*%
X98100000Y-106875000D03*
X98100000Y-103575000D03*
%TD*%
%TO.C,D10*%
X91750000Y-106875000D03*
X91750000Y-103575000D03*
%TD*%
D23*
%TO.C,CP2*%
X48755000Y-109550000D03*
D24*
X51295000Y-109550000D03*
X53835000Y-109550000D03*
X56375000Y-109550000D03*
X58915000Y-109550000D03*
X61455000Y-109550000D03*
X63995000Y-109550000D03*
X66535000Y-109550000D03*
X69075000Y-109550000D03*
X71615000Y-109550000D03*
X74155000Y-109550000D03*
X76695000Y-109550000D03*
X79235000Y-109550000D03*
X81775000Y-109550000D03*
X84315000Y-109550000D03*
X86855000Y-109550000D03*
X89395000Y-109550000D03*
X91935000Y-109550000D03*
X94475000Y-109550000D03*
X97015000Y-109550000D03*
X99555000Y-109550000D03*
X102095000Y-109550000D03*
%TD*%
D16*
%TO.C,D15*%
X47810000Y-106287500D03*
X50610000Y-106287500D03*
%TD*%
D10*
%TO.C,D11*%
X93875000Y-106875000D03*
X93875000Y-103575000D03*
%TD*%
D15*
%TO.C,R19*%
X61325000Y-104250000D03*
X61325000Y-102425000D03*
%TD*%
D23*
%TO.C,J800*%
X56200000Y-85700000D03*
D24*
X58740000Y-85700000D03*
X56200000Y-88240000D03*
X58740000Y-88240000D03*
X56200000Y-90780000D03*
X58740000Y-90780000D03*
%TD*%
D10*
%TO.C,D2*%
X74800000Y-106875000D03*
X74800000Y-103575000D03*
%TD*%
%TO.C,D1*%
X72675000Y-106875000D03*
X72675000Y-103575000D03*
%TD*%
D25*
%TO.C,J804*%
X31500000Y-89250000D03*
D26*
X31500000Y-91850000D03*
X31500000Y-87150000D03*
X31500000Y-93950000D03*
X34300000Y-87150000D03*
X34300000Y-93950000D03*
D27*
X28650000Y-97400000D03*
D28*
X27850000Y-90550000D03*
D27*
X28650000Y-83700000D03*
%TD*%
D29*
%TO.C,Y800*%
X39625000Y-85575000D03*
X39625000Y-90455000D03*
%TD*%
M02*
