M48
; DRILL file {KiCad 7.0.10} date Sun Jun  9 02:47:35 2024
; FORMAT={-:-/ absolute / inch / decimal}
; #@! TF.CreationDate,2024-06-09T02:47:35+01:00
; #@! TF.GenerationSoftware,Kicad,Pcbnew,7.0.10
; #@! TF.FileFunction,Plated,1,2,PTH
FMAT,2
INCH
; #@! TA.AperFunction,Plated,PTH,ViaDrill
T1C0.0157
; #@! TA.AperFunction,Plated,PTH,ComponentDrill
T2C0.0315
; #@! TA.AperFunction,Plated,PTH,ComponentDrill
T3C0.0394
; #@! TA.AperFunction,Plated,PTH,ComponentDrill
T4C0.0866
%
G90
G05
T1
X1.6831Y-3.4449
X1.6831Y-3.5079
X1.6909Y-3.8573
X1.7347Y-3.3466
X1.7953Y-3.7749
X1.8548Y-3.4134
X1.8578Y-3.5913
X1.8842Y-3.7156
X1.9376Y-3.7148
X2.0165Y-3.4393
X2.0168Y-3.6033
X2.0168Y-3.5196
X2.0502Y-3.6741
X2.1299Y-3.5571
X2.1353Y-3.7277
X2.2606Y-3.2743
X2.2808Y-3.9902
X2.2817Y-3.9508
X2.3214Y-3.3078
X2.4094Y-3.4429
X2.4649Y-3.4971
X2.4725Y-3.972
X2.5192Y-4.2536
X2.5303Y-3.8876
X2.5319Y-3.7722
X2.5691Y-3.6834
X2.5902Y-3.8886
X2.6095Y-3.7712
X2.6255Y-3.547
X2.6457Y-3.4124
X2.7008Y-3.996
X2.7185Y-3.438
X2.7213Y-3.7132
X2.7607Y-3.6457
X2.7756Y-3.8475
X2.7762Y-3.9964
X2.7996Y-3.6857
X2.8063Y-3.623
X2.8156Y-4.0177
X2.8207Y-3.8876
X2.8258Y-3.438
X2.867Y-3.9695
X2.8794Y-4.0095
X2.9981Y-3.9979
X3.2396Y-4.115
X3.3076Y-4.1193
T2
X1.2402Y-3.4311
X1.2402Y-3.5138
X1.2402Y-3.6161
X1.2402Y-3.6988
X1.3504Y-3.4311
X1.3504Y-3.6988
X1.56Y-3.3691
X1.56Y-3.5612
T3
X1.9195Y-4.313
X1.9195Y-4.4744
X2.0195Y-4.313
X2.0195Y-4.4744
X2.1195Y-4.313
X2.1195Y-4.4744
X2.2126Y-3.374
X2.2126Y-3.474
X2.2126Y-3.574
X2.2195Y-4.313
X2.2195Y-4.4744
X2.3126Y-3.374
X2.3126Y-3.474
X2.3126Y-3.574
X2.3195Y-4.313
X2.3195Y-4.4744
X2.4195Y-4.313
X2.4195Y-4.4744
X2.5195Y-4.313
X2.5195Y-4.4744
X2.6195Y-4.313
X2.6195Y-4.4744
X2.7195Y-4.313
X2.7195Y-4.4744
X2.8195Y-4.313
X2.8195Y-4.4744
X2.9195Y-4.313
X2.9195Y-4.4744
X3.0195Y-4.313
X3.0195Y-4.4744
X3.1195Y-4.313
X3.1195Y-4.4744
X3.2195Y-4.313
X3.2195Y-4.4744
X3.3195Y-4.313
X3.3195Y-4.4744
X3.4195Y-4.313
X3.4195Y-4.4744
X3.5195Y-4.313
X3.5195Y-4.4744
X3.6195Y-4.313
X3.6195Y-4.4744
X3.7195Y-4.313
X3.7195Y-4.4744
X3.8195Y-4.313
X3.8195Y-4.4744
X3.9195Y-4.313
X3.9195Y-4.4744
X4.0195Y-4.313
X4.0195Y-4.4744
T4
X1.5187Y-3.7884
T3
G00X1.0965Y-3.6043
M15
G01X1.0965Y-3.5256
M16
G05
G00X1.0984Y-3.2953
M15
G01X1.1575Y-3.2953
M16
G05
G00X1.0984Y-3.8346
M15
G01X1.1575Y-3.8346
M16
G05
M30
