%TF.GenerationSoftware,KiCad,Pcbnew,7.0.10*%
%TF.CreationDate,2024-06-09T02:47:37+01:00*%
%TF.ProjectId,Electron-PS2Slim,456c6563-7472-46f6-9e2d-505332536c69,rev?*%
%TF.SameCoordinates,Original*%
%TF.FileFunction,Copper,L2,Bot*%
%TF.FilePolarity,Positive*%
%FSLAX46Y46*%
G04 Gerber Fmt 4.6, Leading zero omitted, Abs format (unit mm)*
G04 Created by KiCad (PCBNEW 7.0.10) date 2024-06-09 02:47:37*
%MOMM*%
%LPD*%
G01*
G04 APERTURE LIST*
%TA.AperFunction,ComponentPad*%
%ADD10C,3.800000*%
%TD*%
%TA.AperFunction,ComponentPad*%
%ADD11R,1.700000X1.700000*%
%TD*%
%TA.AperFunction,ComponentPad*%
%ADD12O,1.700000X1.700000*%
%TD*%
%TA.AperFunction,ComponentPad*%
%ADD13R,1.600000X1.600000*%
%TD*%
%TA.AperFunction,ComponentPad*%
%ADD14C,1.600000*%
%TD*%
%TA.AperFunction,ComponentPad*%
%ADD15O,3.500000X2.000000*%
%TD*%
%TA.AperFunction,ComponentPad*%
%ADD16O,2.000000X4.000000*%
%TD*%
%TA.AperFunction,ComponentPad*%
%ADD17C,1.500000*%
%TD*%
%TA.AperFunction,ViaPad*%
%ADD18C,0.800000*%
%TD*%
%TA.AperFunction,Conductor*%
%ADD19C,0.500000*%
%TD*%
%TA.AperFunction,Conductor*%
%ADD20C,0.400000*%
%TD*%
%TA.AperFunction,Conductor*%
%ADD21C,0.250000*%
%TD*%
G04 APERTURE END LIST*
D10*
%TO.P,H9,1,1*%
%TO.N,GND*%
X38575000Y-96225000D03*
%TD*%
D11*
%TO.P,CP1,1,Pin_1*%
%TO.N,!RST*%
X48755000Y-113650000D03*
D12*
%TO.P,CP1,2,Pin_2*%
%TO.N,CAPSLOCK*%
X51295000Y-113650000D03*
%TO.P,CP1,3,Pin_3*%
%TO.N,GND*%
X53835000Y-113650000D03*
%TO.P,CP1,4,Pin_4*%
%TO.N,+5V*%
X56375000Y-113650000D03*
%TO.P,CP1,5,Pin_5*%
%TO.N,/ROW0*%
X58915000Y-113650000D03*
%TO.P,CP1,6,Pin_6*%
%TO.N,/ROW1*%
X61455000Y-113650000D03*
%TO.P,CP1,7,Pin_7*%
%TO.N,/ROW2*%
X63995000Y-113650000D03*
%TO.P,CP1,8,Pin_8*%
%TO.N,/ROW3*%
X66535000Y-113650000D03*
%TO.P,CP1,9,Pin_9*%
%TO.N,/A13*%
X69075000Y-113650000D03*
%TO.P,CP1,10,Pin_10*%
%TO.N,/A12*%
X71615000Y-113650000D03*
%TO.P,CP1,11,Pin_11*%
%TO.N,/A11*%
X74155000Y-113650000D03*
%TO.P,CP1,12,Pin_12*%
%TO.N,/A10*%
X76695000Y-113650000D03*
%TO.P,CP1,13,Pin_13*%
%TO.N,/A9*%
X79235000Y-113650000D03*
%TO.P,CP1,14,Pin_14*%
%TO.N,/A8*%
X81775000Y-113650000D03*
%TO.P,CP1,15,Pin_15*%
%TO.N,/A7*%
X84315000Y-113650000D03*
%TO.P,CP1,16,Pin_16*%
%TO.N,/A6*%
X86855000Y-113650000D03*
%TO.P,CP1,17,Pin_17*%
%TO.N,/A5*%
X89395000Y-113650000D03*
%TO.P,CP1,18,Pin_18*%
%TO.N,/A0*%
X91935000Y-113650000D03*
%TO.P,CP1,19,Pin_19*%
%TO.N,/A1*%
X94475000Y-113650000D03*
%TO.P,CP1,20,Pin_20*%
%TO.N,/A2*%
X97015000Y-113650000D03*
%TO.P,CP1,21,Pin_21*%
%TO.N,/A3*%
X99555000Y-113650000D03*
%TO.P,CP1,22,Pin_22*%
%TO.N,/A4*%
X102095000Y-113650000D03*
%TD*%
D11*
%TO.P,CP2,1,Pin_1*%
%TO.N,!RST*%
X48755000Y-109550000D03*
D12*
%TO.P,CP2,2,Pin_2*%
%TO.N,CAPSLOCK*%
X51295000Y-109550000D03*
%TO.P,CP2,3,Pin_3*%
%TO.N,GND*%
X53835000Y-109550000D03*
%TO.P,CP2,4,Pin_4*%
%TO.N,+5V*%
X56375000Y-109550000D03*
%TO.P,CP2,5,Pin_5*%
%TO.N,/ROW0*%
X58915000Y-109550000D03*
%TO.P,CP2,6,Pin_6*%
%TO.N,/ROW1*%
X61455000Y-109550000D03*
%TO.P,CP2,7,Pin_7*%
%TO.N,/ROW2*%
X63995000Y-109550000D03*
%TO.P,CP2,8,Pin_8*%
%TO.N,/ROW3*%
X66535000Y-109550000D03*
%TO.P,CP2,9,Pin_9*%
%TO.N,/A13*%
X69075000Y-109550000D03*
%TO.P,CP2,10,Pin_10*%
%TO.N,/A12*%
X71615000Y-109550000D03*
%TO.P,CP2,11,Pin_11*%
%TO.N,/A11*%
X74155000Y-109550000D03*
%TO.P,CP2,12,Pin_12*%
%TO.N,/A10*%
X76695000Y-109550000D03*
%TO.P,CP2,13,Pin_13*%
%TO.N,/A9*%
X79235000Y-109550000D03*
%TO.P,CP2,14,Pin_14*%
%TO.N,/A8*%
X81775000Y-109550000D03*
%TO.P,CP2,15,Pin_15*%
%TO.N,/A7*%
X84315000Y-109550000D03*
%TO.P,CP2,16,Pin_16*%
%TO.N,/A6*%
X86855000Y-109550000D03*
%TO.P,CP2,17,Pin_17*%
%TO.N,/A5*%
X89395000Y-109550000D03*
%TO.P,CP2,18,Pin_18*%
%TO.N,/A0*%
X91935000Y-109550000D03*
%TO.P,CP2,19,Pin_19*%
%TO.N,/A1*%
X94475000Y-109550000D03*
%TO.P,CP2,20,Pin_20*%
%TO.N,/A2*%
X97015000Y-109550000D03*
%TO.P,CP2,21,Pin_21*%
%TO.N,/A3*%
X99555000Y-109550000D03*
%TO.P,CP2,22,Pin_22*%
%TO.N,/A4*%
X102095000Y-109550000D03*
%TD*%
D11*
%TO.P,J800,1,Pin_1*%
%TO.N,ADMISO*%
X56200000Y-85700000D03*
D12*
%TO.P,J800,2,Pin_2*%
%TO.N,+5V*%
X58740000Y-85700000D03*
%TO.P,J800,3,Pin_3*%
%TO.N,ADSCK*%
X56200000Y-88240000D03*
%TO.P,J800,4,Pin_4*%
%TO.N,ADMOSI*%
X58740000Y-88240000D03*
%TO.P,J800,5,Pin_5*%
%TO.N,ADRESET*%
X56200000Y-90780000D03*
%TO.P,J800,6,Pin_6*%
%TO.N,GND*%
X58740000Y-90780000D03*
%TD*%
D13*
%TO.P,J804,1*%
%TO.N,ADMISO*%
X31500000Y-89250000D03*
D14*
%TO.P,J804,2*%
%TO.N,unconnected-(J804-Pad2)*%
X31500000Y-91850000D03*
%TO.P,J804,3*%
%TO.N,GND*%
X31500000Y-87150000D03*
%TO.P,J804,4*%
%TO.N,+5V*%
X31500000Y-93950000D03*
%TO.P,J804,5*%
%TO.N,PS2-CLK*%
X34300000Y-87150000D03*
%TO.P,J804,6*%
%TO.N,unconnected-(J804-Pad6)*%
X34300000Y-93950000D03*
D15*
%TO.P,J804,7*%
%TO.N,GND*%
X28650000Y-97400000D03*
D16*
X27850000Y-90550000D03*
D15*
X28650000Y-83700000D03*
%TD*%
D17*
%TO.P,Y800,1,1*%
%TO.N,Net-(IC800-XTAL1{slash}PB6)*%
X39625000Y-85575000D03*
%TO.P,Y800,2,2*%
%TO.N,Net-(IC800-XTAL2{slash}PB7)*%
X39625000Y-90455000D03*
%TD*%
D18*
%TO.N,GND*%
X69050000Y-87325000D03*
X42750000Y-89099500D03*
X42749500Y-87500000D03*
X42950000Y-97975500D03*
X71775000Y-87325000D03*
%TO.N,PS2-CLK*%
X44062500Y-85003900D03*
%TO.N,Net-(IC800-AREF)*%
X54235800Y-94684800D03*
X51227400Y-89397500D03*
%TO.N,/ROW0*%
X62800500Y-100889300D03*
%TO.N,AY2*%
X68600000Y-101499000D03*
X45600000Y-95882700D03*
%TO.N,/ROW1*%
X64270800Y-98744200D03*
X63988500Y-108041800D03*
%TO.N,/ROW2*%
X65791600Y-98770100D03*
%TO.N,AX0*%
X51226100Y-91525000D03*
X70515100Y-101509400D03*
%TO.N,AX1*%
X49214500Y-94355300D03*
X66686900Y-90094000D03*
%TO.N,AX2*%
X67200000Y-86675000D03*
X47858000Y-94375200D03*
%TO.N,AY0*%
X47189200Y-91219800D03*
X58962700Y-84018300D03*
%TO.N,/COL0*%
X71515300Y-102048900D03*
X66282300Y-95788600D03*
%TO.N,/COL1*%
X64309700Y-95814200D03*
X73136300Y-101841600D03*
%TO.N,/COL3*%
X71110600Y-93615900D03*
X76152599Y-101547401D03*
%TO.N,/COL4*%
X65253900Y-93559000D03*
X72822800Y-100824200D03*
%TO.N,/COL5*%
X70121900Y-92600100D03*
X82286800Y-104520400D03*
%TO.N,BREAK*%
X57956400Y-100349900D03*
X54098800Y-90350200D03*
%TO.N,/COL12*%
X71280200Y-92025000D03*
X84012800Y-104629300D03*
%TO.N,MTSTROBE*%
X47112900Y-86700000D03*
X57419300Y-83167700D03*
%TO.N,ADMOSI*%
X62608800Y-88827500D03*
X71645100Y-98744900D03*
%TO.N,ADMISO*%
X52075800Y-93322600D03*
%TO.N,ADSCK*%
X70500700Y-97727200D03*
%TO.N,ADRESET*%
X57931100Y-101350100D03*
X51219300Y-87357000D03*
%TO.N,MTDATA*%
X69121000Y-94314100D03*
X61200000Y-87450000D03*
%TD*%
D19*
%TO.N,GND*%
X103700000Y-99325000D02*
X79750000Y-99325000D01*
D20*
X42749500Y-89099000D02*
X42750000Y-89099500D01*
X42950000Y-98675000D02*
X42800000Y-98825000D01*
D19*
X79675000Y-99250000D02*
X79675000Y-82300000D01*
D20*
X27850000Y-87125000D02*
X27850000Y-84500000D01*
D19*
X103700000Y-115400000D02*
X103700000Y-99325000D01*
D20*
X77850000Y-82250000D02*
X77900000Y-82300000D01*
X38575000Y-96225000D02*
X38575000Y-98825000D01*
X71775000Y-87325000D02*
X76850000Y-82250000D01*
D19*
X28650000Y-98450000D02*
X28650000Y-97400000D01*
X43250000Y-98825000D02*
X43250000Y-115400000D01*
X29025000Y-98825000D02*
X28650000Y-98450000D01*
D20*
X69525000Y-86850000D02*
X69050000Y-87325000D01*
D19*
X53625000Y-115400000D02*
X53835000Y-115190000D01*
X42800000Y-98825000D02*
X43250000Y-98825000D01*
X38575000Y-98825000D02*
X29025000Y-98825000D01*
D20*
X69525000Y-85075000D02*
X71775000Y-87325000D01*
X27850000Y-90550000D02*
X27850000Y-96600000D01*
X30100000Y-82250000D02*
X42600000Y-82250000D01*
X42600000Y-87350500D02*
X42749500Y-87500000D01*
D19*
X53835000Y-109550000D02*
X53835000Y-113650000D01*
D20*
X27875000Y-87150000D02*
X27850000Y-87125000D01*
D19*
X77900000Y-82300000D02*
X40925000Y-82300000D01*
D20*
X42749500Y-87500000D02*
X42749500Y-89099000D01*
X60200000Y-89320000D02*
X60200000Y-82250000D01*
X42950000Y-97975500D02*
X42950000Y-98675000D01*
D19*
X79675000Y-82300000D02*
X77900000Y-82300000D01*
D20*
X76850000Y-82250000D02*
X77850000Y-82250000D01*
D19*
X53625000Y-115400000D02*
X103700000Y-115400000D01*
D20*
X60200000Y-82250000D02*
X66700000Y-82250000D01*
X31500000Y-87150000D02*
X27875000Y-87150000D01*
D19*
X79750000Y-99325000D02*
X79675000Y-99250000D01*
D20*
X66700000Y-82250000D02*
X69525000Y-85075000D01*
X42600000Y-82250000D02*
X60200000Y-82250000D01*
D19*
X38575000Y-98825000D02*
X42800000Y-98825000D01*
D20*
X28650000Y-83700000D02*
X30100000Y-82250000D01*
X27850000Y-90550000D02*
X27850000Y-87125000D01*
X58740000Y-90780000D02*
X60200000Y-89320000D01*
X27850000Y-84500000D02*
X28650000Y-83700000D01*
X69525000Y-85075000D02*
X69525000Y-86850000D01*
D19*
X53835000Y-115190000D02*
X53835000Y-113650000D01*
D20*
X27850000Y-96600000D02*
X28650000Y-97400000D01*
D19*
X43250000Y-115400000D02*
X53625000Y-115400000D01*
D20*
X42600000Y-82250000D02*
X42600000Y-87350500D01*
D21*
%TO.N,CAPSLOCK*%
X51295000Y-109550000D02*
X51295000Y-113650000D01*
%TO.N,/A13*%
X69075000Y-109550000D02*
X69075000Y-113650000D01*
%TO.N,/A12*%
X71615000Y-109550000D02*
X71615000Y-113650000D01*
%TO.N,/A11*%
X74155000Y-109550000D02*
X74155000Y-113650000D01*
%TO.N,/A10*%
X76695000Y-109550000D02*
X76695000Y-113650000D01*
%TO.N,/A9*%
X79235000Y-109550000D02*
X79235000Y-113650000D01*
%TO.N,PS2-CLK*%
X44062500Y-88850700D02*
X43081000Y-89832200D01*
X39704200Y-87150000D02*
X34300000Y-87150000D01*
X42386400Y-89832200D02*
X39704200Y-87150000D01*
X44062500Y-85003900D02*
X44062500Y-88850700D01*
X43081000Y-89832200D02*
X42386400Y-89832200D01*
%TO.N,Net-(IC800-AREF)*%
X54235800Y-92405900D02*
X51227400Y-89397500D01*
X54235800Y-94684800D02*
X54235800Y-92405900D01*
%TO.N,/ROW0*%
X58915000Y-109550000D02*
X58915000Y-113650000D01*
X58915000Y-109550000D02*
X58915000Y-108374900D01*
X58915000Y-108374900D02*
X62800500Y-104489400D01*
X62800500Y-104489400D02*
X62800500Y-100889300D01*
%TO.N,AY2*%
X61950900Y-100011200D02*
X63986000Y-97976100D01*
X61950900Y-100999300D02*
X61950900Y-100011200D01*
X53674900Y-103957600D02*
X58992600Y-103957600D01*
X66716700Y-99615700D02*
X68600000Y-101499000D01*
X58992600Y-103957600D02*
X61950900Y-100999300D01*
X45600000Y-95882700D02*
X53674900Y-103957600D01*
X66028900Y-97976100D02*
X66716700Y-98663900D01*
X63986000Y-97976100D02*
X66028900Y-97976100D01*
X66716700Y-98663900D02*
X66716700Y-99615700D01*
%TO.N,/ROW1*%
X64270800Y-105609900D02*
X64270800Y-98744200D01*
X62862900Y-106967000D02*
X62913700Y-106967000D01*
X61455000Y-109550000D02*
X61455000Y-108374900D01*
X62913700Y-106967000D02*
X64270800Y-105609900D01*
X62913700Y-106967000D02*
X63988500Y-108041800D01*
X61455000Y-108374900D02*
X62862900Y-106967000D01*
X61455000Y-113650000D02*
X61455000Y-109550000D01*
%TO.N,/ROW2*%
X65170100Y-99391600D02*
X65791600Y-98770100D01*
X63995000Y-109550000D02*
X63995000Y-113650000D01*
X65170100Y-109550000D02*
X65170100Y-99391600D01*
X63995000Y-109550000D02*
X65170100Y-109550000D01*
%TO.N,AX0*%
X51303700Y-91525000D02*
X52831700Y-93053000D01*
X60150500Y-100816200D02*
X60150500Y-99810300D01*
X63417700Y-96543100D02*
X66507900Y-96543100D01*
X68067000Y-98228600D02*
X70515100Y-100676700D01*
X58408500Y-102558200D02*
X60150500Y-100816200D01*
X51226100Y-91525000D02*
X51303700Y-91525000D01*
X68067000Y-98102200D02*
X68067000Y-98228600D01*
X66507900Y-96543100D02*
X68067000Y-98102200D01*
X70515100Y-100676700D02*
X70515100Y-101509400D01*
X57343900Y-102558200D02*
X58408500Y-102558200D01*
X60150500Y-99810300D02*
X63417700Y-96543100D01*
X52831700Y-93053000D02*
X52831700Y-98046000D01*
X52831700Y-98046000D02*
X57343900Y-102558200D01*
%TO.N,/A8*%
X81775000Y-109550000D02*
X81775000Y-113650000D01*
%TO.N,/ROW3*%
X66535000Y-109550000D02*
X66535000Y-113650000D01*
%TO.N,AX1*%
X73861400Y-98029000D02*
X66686900Y-90854500D01*
X60746300Y-100863600D02*
X60746300Y-99864000D01*
X66686900Y-90854500D02*
X66686900Y-90094000D01*
X70765400Y-102801500D02*
X73253200Y-102801500D01*
X67616900Y-98415100D02*
X69790000Y-100588200D01*
X69790000Y-101826100D02*
X70765400Y-102801500D01*
X66347300Y-97020700D02*
X67616900Y-98290300D01*
X73861400Y-102193300D02*
X73861400Y-98029000D01*
X69790000Y-100588200D02*
X69790000Y-101826100D01*
X49214500Y-94355300D02*
X49214500Y-95065500D01*
X57157400Y-103008400D02*
X58601500Y-103008400D01*
X73253200Y-102801500D02*
X73861400Y-102193300D01*
X67616900Y-98290300D02*
X67616900Y-98415100D01*
X60746300Y-99864000D02*
X63589600Y-97020700D01*
X49214500Y-95065500D02*
X57157400Y-103008400D01*
X63589600Y-97020700D02*
X66347300Y-97020700D01*
X58601500Y-103008400D02*
X60746300Y-100863600D01*
%TO.N,AX2*%
X74323500Y-102398000D02*
X73450300Y-103271200D01*
X69339900Y-100774700D02*
X67166800Y-98601600D01*
X56941400Y-103458600D02*
X47858000Y-94375200D01*
X63757800Y-97515400D02*
X61421400Y-99851800D01*
X74323500Y-97854400D02*
X74323500Y-102398000D01*
X67166800Y-98476900D02*
X66205300Y-97515400D01*
X70598400Y-103271200D02*
X69339900Y-102012700D01*
X67200000Y-86675000D02*
X67540500Y-87015500D01*
X67540500Y-87015500D02*
X67540500Y-91071400D01*
X73450300Y-103271200D02*
X70598400Y-103271200D01*
X67166800Y-98601600D02*
X67166800Y-98476900D01*
X61421400Y-100825100D02*
X58787900Y-103458600D01*
X69339900Y-102012700D02*
X69339900Y-100774700D01*
X58787900Y-103458600D02*
X56941400Y-103458600D01*
X66205300Y-97515400D02*
X63757800Y-97515400D01*
X67540500Y-91071400D02*
X74323500Y-97854400D01*
X61421400Y-99851800D02*
X61421400Y-100825100D01*
%TO.N,AY0*%
X52800400Y-84018300D02*
X58962700Y-84018300D01*
X47189200Y-91219800D02*
X47189200Y-89629500D01*
X47189200Y-89629500D02*
X52800400Y-84018300D01*
%TO.N,/A7*%
X84315000Y-109550000D02*
X84315000Y-113650000D01*
%TO.N,/COL0*%
X68517100Y-98042100D02*
X68517100Y-97915700D01*
X71515300Y-102048900D02*
X71515300Y-101040300D01*
X66390000Y-95788600D02*
X66282300Y-95788600D01*
X68517100Y-97915700D02*
X66390000Y-95788600D01*
X71515300Y-101040300D02*
X68517100Y-98042100D01*
%TO.N,/A6*%
X86855000Y-109550000D02*
X86855000Y-113650000D01*
%TO.N,/A5*%
X89395000Y-109550000D02*
X89395000Y-113650000D01*
%TO.N,/A0*%
X91935000Y-109550000D02*
X91935000Y-113650000D01*
%TO.N,/A1*%
X94475000Y-109550000D02*
X94475000Y-113650000D01*
%TO.N,/A2*%
X97015000Y-109550000D02*
X97015000Y-113650000D01*
%TO.N,/A3*%
X99555000Y-109550000D02*
X99555000Y-113650000D01*
%TO.N,/A4*%
X102095000Y-109550000D02*
X102095000Y-113650000D01*
%TO.N,/COL1*%
X73136300Y-101841600D02*
X73136300Y-101841500D01*
X72097700Y-101124400D02*
X72097700Y-100986100D01*
X73136300Y-101841500D02*
X72814800Y-101841500D01*
X65060600Y-95063300D02*
X64309700Y-95814200D01*
X72814800Y-101841500D02*
X72097700Y-101124400D01*
X68967200Y-97412500D02*
X66618000Y-95063300D01*
X68967200Y-97855600D02*
X68967200Y-97412500D01*
X66618000Y-95063300D02*
X65060600Y-95063300D01*
X72097700Y-100986100D02*
X68967200Y-97855600D01*
%TO.N,!RST*%
X48755000Y-109550000D02*
X48755000Y-113650000D01*
%TO.N,/COL3*%
X76152599Y-101547401D02*
X76152599Y-98657899D01*
X76152599Y-98657899D02*
X71110600Y-93615900D01*
%TO.N,/COL4*%
X69418200Y-97670100D02*
X72572300Y-100824200D01*
X72572300Y-100824200D02*
X72822800Y-100824200D01*
X65253900Y-93559000D02*
X65750300Y-93559000D01*
X69418200Y-97226900D02*
X69418200Y-97670100D01*
X65750300Y-93559000D02*
X69418200Y-97226900D01*
%TO.N,/COL5*%
X70412500Y-92890700D02*
X71418100Y-92890700D01*
X82286800Y-103759400D02*
X82286800Y-104520400D01*
X71418100Y-92890700D02*
X82286800Y-103759400D01*
X70121900Y-92600100D02*
X70412500Y-92890700D01*
%TO.N,BREAK*%
X57561100Y-102077700D02*
X55797000Y-100313600D01*
X55797000Y-100313600D02*
X55797000Y-92404400D01*
X55797000Y-92404400D02*
X54098800Y-90706200D01*
X58229200Y-102077700D02*
X57561100Y-102077700D01*
X54098800Y-90706200D02*
X54098800Y-90350200D01*
X57956400Y-100349900D02*
X58698700Y-101092200D01*
X58698700Y-101608200D02*
X58229200Y-102077700D01*
X58698700Y-101092200D02*
X58698700Y-101608200D01*
%TO.N,/COL12*%
X84012800Y-104629300D02*
X71408500Y-92025000D01*
X71408500Y-92025000D02*
X71280200Y-92025000D01*
%TO.N,MTSTROBE*%
X50645200Y-83167700D02*
X47112900Y-86700000D01*
X57419300Y-83167700D02*
X50645200Y-83167700D01*
%TO.N,ADMOSI*%
X69511900Y-95730600D02*
X62608800Y-88827500D01*
X71645100Y-97791600D02*
X69584100Y-95730600D01*
X69584100Y-95730600D02*
X69511900Y-95730600D01*
X71645100Y-98744900D02*
X71645100Y-97791600D01*
%TO.N,ADMISO*%
X50490000Y-86981600D02*
X51771600Y-85700000D01*
X35353000Y-91977900D02*
X32625100Y-89250000D01*
X50394400Y-91977900D02*
X35353000Y-91977900D01*
X50490000Y-91882300D02*
X51930300Y-93322600D01*
X51771600Y-85700000D02*
X56200000Y-85700000D01*
X31500000Y-89250000D02*
X32625100Y-89250000D01*
X50490000Y-91882300D02*
X50490000Y-86981600D01*
X51930300Y-93322600D02*
X52075800Y-93322600D01*
X50490000Y-91882300D02*
X50394400Y-91977900D01*
%TO.N,ADSCK*%
X65004300Y-92106400D02*
X70500700Y-97602800D01*
X56200000Y-88240000D02*
X57375100Y-89415100D01*
X58404600Y-92106400D02*
X65004300Y-92106400D01*
X57375100Y-89415100D02*
X57375100Y-91076900D01*
X57375100Y-91076900D02*
X58404600Y-92106400D01*
X70500700Y-97602800D02*
X70500700Y-97727200D01*
%TO.N,ADRESET*%
X56200000Y-90780000D02*
X56200000Y-91955100D01*
X55024900Y-90780000D02*
X55024900Y-90250800D01*
X55024900Y-90250800D02*
X52131100Y-87357000D01*
X57931100Y-101350100D02*
X56571300Y-99990300D01*
X56200000Y-90780000D02*
X55024900Y-90780000D01*
X56571300Y-99990300D02*
X56571300Y-92326400D01*
X52131100Y-87357000D02*
X51219300Y-87357000D01*
X56571300Y-92326400D02*
X56200000Y-91955100D01*
%TO.N,MTDATA*%
X61200000Y-87450000D02*
X62256900Y-87450000D01*
X62256900Y-87450000D02*
X69121000Y-94314100D01*
%TD*%
%TA.AperFunction,Conductor*%
%TO.N,GND*%
G36*
X27401966Y-82070185D02*
G01*
X27447721Y-82122989D01*
X27457665Y-82192147D01*
X27428640Y-82255703D01*
X27384737Y-82288056D01*
X27183632Y-82376267D01*
X26975521Y-82512232D01*
X26792635Y-82680592D01*
X26792626Y-82680602D01*
X26639948Y-82876762D01*
X26639942Y-82876771D01*
X26521635Y-83095385D01*
X26521630Y-83095396D01*
X26440916Y-83330507D01*
X26420976Y-83449999D01*
X26420978Y-83450000D01*
X27466314Y-83450000D01*
X27440507Y-83490156D01*
X27400000Y-83628111D01*
X27400000Y-83771889D01*
X27440507Y-83909844D01*
X27466314Y-83950000D01*
X26420977Y-83950000D01*
X26440916Y-84069492D01*
X26521630Y-84304603D01*
X26521635Y-84304614D01*
X26639942Y-84523228D01*
X26639948Y-84523237D01*
X26792626Y-84719397D01*
X26792635Y-84719407D01*
X26975522Y-84887767D01*
X26975521Y-84887767D01*
X27183632Y-85023732D01*
X27411282Y-85123587D01*
X27652261Y-85184612D01*
X27652269Y-85184614D01*
X27837945Y-85199999D01*
X27837961Y-85200000D01*
X28400000Y-85200000D01*
X28400000Y-84200000D01*
X28900000Y-84200000D01*
X28900000Y-85200000D01*
X29462039Y-85200000D01*
X29462054Y-85199999D01*
X29647730Y-85184614D01*
X29647738Y-85184612D01*
X29888717Y-85123587D01*
X30116367Y-85023732D01*
X30324478Y-84887767D01*
X30507364Y-84719407D01*
X30507373Y-84719397D01*
X30660051Y-84523237D01*
X30660057Y-84523228D01*
X30778364Y-84304614D01*
X30778369Y-84304603D01*
X30859083Y-84069492D01*
X30879023Y-83950000D01*
X29833686Y-83950000D01*
X29859493Y-83909844D01*
X29900000Y-83771889D01*
X29900000Y-83628111D01*
X29859493Y-83490156D01*
X29833686Y-83450000D01*
X30879022Y-83450000D01*
X30879023Y-83449999D01*
X30859083Y-83330507D01*
X30778369Y-83095396D01*
X30778364Y-83095385D01*
X30660057Y-82876771D01*
X30660051Y-82876762D01*
X30507373Y-82680602D01*
X30507364Y-82680592D01*
X30324477Y-82512232D01*
X30324478Y-82512232D01*
X30116367Y-82376267D01*
X29915263Y-82288056D01*
X29861777Y-82243100D01*
X29841087Y-82176364D01*
X29859761Y-82109037D01*
X29911871Y-82062493D01*
X29965073Y-82050500D01*
X42751000Y-82050500D01*
X42818039Y-82070185D01*
X42863794Y-82122989D01*
X42875000Y-82174500D01*
X42875000Y-89074700D01*
X42855315Y-89141739D01*
X42802511Y-89187494D01*
X42751000Y-89198700D01*
X42700166Y-89198700D01*
X42633127Y-89179015D01*
X42612485Y-89162381D01*
X40280279Y-86830174D01*
X40246794Y-86768851D01*
X40251778Y-86699159D01*
X40293650Y-86643226D01*
X40296779Y-86640959D01*
X40437038Y-86542749D01*
X40592749Y-86387038D01*
X40719056Y-86206654D01*
X40812120Y-86007076D01*
X40869115Y-85794371D01*
X40888307Y-85575000D01*
X40869115Y-85355629D01*
X40812120Y-85142924D01*
X40719056Y-84943347D01*
X40719054Y-84943344D01*
X40719053Y-84943342D01*
X40655902Y-84853154D01*
X40592749Y-84762962D01*
X40437038Y-84607251D01*
X40256654Y-84480944D01*
X40256650Y-84480942D01*
X40057081Y-84387882D01*
X40057079Y-84387881D01*
X40057076Y-84387880D01*
X39905777Y-84347339D01*
X39844372Y-84330885D01*
X39844365Y-84330884D01*
X39625002Y-84311693D01*
X39624998Y-84311693D01*
X39405634Y-84330884D01*
X39405627Y-84330885D01*
X39192920Y-84387881D01*
X38993346Y-84480944D01*
X38993342Y-84480946D01*
X38812967Y-84607247D01*
X38812960Y-84607252D01*
X38657252Y-84762960D01*
X38657247Y-84762967D01*
X38530946Y-84943342D01*
X38530944Y-84943346D01*
X38437881Y-85142920D01*
X38380885Y-85355627D01*
X38380884Y-85355634D01*
X38361693Y-85574997D01*
X38361693Y-85575002D01*
X38380633Y-85791500D01*
X38380885Y-85794371D01*
X38437880Y-86007076D01*
X38437881Y-86007079D01*
X38437882Y-86007081D01*
X38530942Y-86206650D01*
X38530943Y-86206652D01*
X38611274Y-86321376D01*
X38633601Y-86387582D01*
X38616591Y-86455350D01*
X38565643Y-86503163D01*
X38509699Y-86516500D01*
X35518352Y-86516500D01*
X35451313Y-86496815D01*
X35416779Y-86463626D01*
X35306198Y-86305700D01*
X35144300Y-86143802D01*
X34956749Y-86012477D01*
X34956745Y-86012475D01*
X34749249Y-85915718D01*
X34749238Y-85915714D01*
X34528089Y-85856457D01*
X34528081Y-85856456D01*
X34300002Y-85836502D01*
X34299998Y-85836502D01*
X34071918Y-85856456D01*
X34071910Y-85856457D01*
X33850761Y-85915714D01*
X33850750Y-85915718D01*
X33643254Y-86012475D01*
X33643252Y-86012476D01*
X33572856Y-86061767D01*
X33455700Y-86143802D01*
X33455698Y-86143803D01*
X33455695Y-86143806D01*
X33293806Y-86305695D01*
X33293803Y-86305698D01*
X33293802Y-86305700D01*
X33211767Y-86422856D01*
X33162476Y-86493252D01*
X33162475Y-86493254D01*
X33065718Y-86700750D01*
X33065714Y-86700762D01*
X33015375Y-86888630D01*
X32979010Y-86948290D01*
X32916163Y-86978819D01*
X32846787Y-86970524D01*
X32792909Y-86926039D01*
X32775825Y-86888629D01*
X32726269Y-86703682D01*
X32726264Y-86703668D01*
X32630136Y-86497521D01*
X32630132Y-86497513D01*
X32579025Y-86424526D01*
X31897953Y-87105597D01*
X31885165Y-87024852D01*
X31827641Y-86911955D01*
X31738045Y-86822359D01*
X31625148Y-86764835D01*
X31544401Y-86752046D01*
X32225472Y-86070974D01*
X32152478Y-86019863D01*
X31946331Y-85923735D01*
X31946317Y-85923730D01*
X31726610Y-85864860D01*
X31726599Y-85864858D01*
X31500002Y-85845034D01*
X31499998Y-85845034D01*
X31273400Y-85864858D01*
X31273389Y-85864860D01*
X31053682Y-85923730D01*
X31053673Y-85923734D01*
X30847516Y-86019866D01*
X30847512Y-86019868D01*
X30774526Y-86070973D01*
X30774526Y-86070974D01*
X31455599Y-86752046D01*
X31374852Y-86764835D01*
X31261955Y-86822359D01*
X31172359Y-86911955D01*
X31114835Y-87024852D01*
X31102046Y-87105598D01*
X30420974Y-86424526D01*
X30420973Y-86424526D01*
X30369868Y-86497512D01*
X30369866Y-86497516D01*
X30273734Y-86703673D01*
X30273730Y-86703682D01*
X30214860Y-86923389D01*
X30214858Y-86923400D01*
X30195034Y-87149997D01*
X30195034Y-87150002D01*
X30214858Y-87376599D01*
X30214860Y-87376610D01*
X30273730Y-87596317D01*
X30273734Y-87596326D01*
X30369865Y-87802482D01*
X30420160Y-87874309D01*
X30442487Y-87940515D01*
X30425477Y-88008283D01*
X30392897Y-88044699D01*
X30336739Y-88086738D01*
X30249111Y-88203795D01*
X30198011Y-88340795D01*
X30198011Y-88340797D01*
X30191500Y-88401345D01*
X30191500Y-90098654D01*
X30198011Y-90159202D01*
X30198011Y-90159204D01*
X30242452Y-90278351D01*
X30249111Y-90296204D01*
X30336739Y-90413261D01*
X30453796Y-90500889D01*
X30590799Y-90551989D01*
X30618050Y-90554918D01*
X30651345Y-90558499D01*
X30651362Y-90558500D01*
X30669876Y-90558500D01*
X30736915Y-90578185D01*
X30782670Y-90630989D01*
X30792614Y-90700147D01*
X30763589Y-90763703D01*
X30741004Y-90784071D01*
X30655700Y-90843802D01*
X30655698Y-90843803D01*
X30655695Y-90843806D01*
X30493806Y-91005695D01*
X30362476Y-91193252D01*
X30362475Y-91193254D01*
X30265718Y-91400750D01*
X30265714Y-91400761D01*
X30206457Y-91621910D01*
X30206456Y-91621918D01*
X30186502Y-91849998D01*
X30186502Y-91850001D01*
X30206456Y-92078081D01*
X30206457Y-92078089D01*
X30265714Y-92299238D01*
X30265718Y-92299249D01*
X30339076Y-92456566D01*
X30362477Y-92506749D01*
X30493802Y-92694300D01*
X30493806Y-92694304D01*
X30611821Y-92812319D01*
X30645306Y-92873642D01*
X30640322Y-92943334D01*
X30611821Y-92987681D01*
X30493806Y-93105695D01*
X30493803Y-93105698D01*
X30493802Y-93105700D01*
X30411767Y-93222856D01*
X30362476Y-93293252D01*
X30362475Y-93293254D01*
X30265718Y-93500750D01*
X30265714Y-93500761D01*
X30206457Y-93721910D01*
X30206456Y-93721918D01*
X30186502Y-93949998D01*
X30186502Y-93950001D01*
X30206456Y-94178081D01*
X30206457Y-94178089D01*
X30265714Y-94399238D01*
X30265718Y-94399249D01*
X30310308Y-94494872D01*
X30362477Y-94606749D01*
X30493802Y-94794300D01*
X30655700Y-94956198D01*
X30843251Y-95087523D01*
X30955714Y-95139965D01*
X31050750Y-95184281D01*
X31050752Y-95184281D01*
X31050757Y-95184284D01*
X31271913Y-95243543D01*
X31434832Y-95257796D01*
X31499998Y-95263498D01*
X31500000Y-95263498D01*
X31500002Y-95263498D01*
X31557021Y-95258509D01*
X31728087Y-95243543D01*
X31949243Y-95184284D01*
X32156749Y-95087523D01*
X32344300Y-94956198D01*
X32506198Y-94794300D01*
X32637523Y-94606749D01*
X32734284Y-94399243D01*
X32780225Y-94227788D01*
X32816590Y-94168129D01*
X32879437Y-94137600D01*
X32948813Y-94145895D01*
X33002690Y-94190380D01*
X33019775Y-94227789D01*
X33065714Y-94399238D01*
X33065718Y-94399249D01*
X33110308Y-94494872D01*
X33162477Y-94606749D01*
X33293802Y-94794300D01*
X33455700Y-94956198D01*
X33643251Y-95087523D01*
X33755714Y-95139965D01*
X33850750Y-95184281D01*
X33850752Y-95184281D01*
X33850757Y-95184284D01*
X34071913Y-95243543D01*
X34234832Y-95257796D01*
X34299998Y-95263498D01*
X34300000Y-95263498D01*
X34300002Y-95263498D01*
X34357021Y-95258509D01*
X34528087Y-95243543D01*
X34749243Y-95184284D01*
X34956749Y-95087523D01*
X35144300Y-94956198D01*
X35306198Y-94794300D01*
X35437523Y-94606749D01*
X35534284Y-94399243D01*
X35593543Y-94178087D01*
X35613498Y-93950000D01*
X35593543Y-93721913D01*
X35534284Y-93500757D01*
X35437523Y-93293251D01*
X35306198Y-93105700D01*
X35144300Y-92943802D01*
X34956749Y-92812477D01*
X34956410Y-92812319D01*
X34749249Y-92715718D01*
X34749238Y-92715714D01*
X34528089Y-92656457D01*
X34528081Y-92656456D01*
X34300002Y-92636502D01*
X34299998Y-92636502D01*
X34071918Y-92656456D01*
X34071910Y-92656457D01*
X33850761Y-92715714D01*
X33850750Y-92715718D01*
X33643254Y-92812475D01*
X33643252Y-92812476D01*
X33643251Y-92812477D01*
X33455700Y-92943802D01*
X33455698Y-92943803D01*
X33455695Y-92943806D01*
X33293806Y-93105695D01*
X33293803Y-93105698D01*
X33293802Y-93105700D01*
X33211767Y-93222856D01*
X33162476Y-93293252D01*
X33162475Y-93293254D01*
X33065718Y-93500750D01*
X33065714Y-93500761D01*
X33019775Y-93672210D01*
X32983410Y-93731870D01*
X32920563Y-93762399D01*
X32851187Y-93754104D01*
X32797309Y-93709619D01*
X32780225Y-93672210D01*
X32734285Y-93500761D01*
X32734281Y-93500750D01*
X32637524Y-93293254D01*
X32637523Y-93293252D01*
X32637523Y-93293251D01*
X32506198Y-93105700D01*
X32388179Y-92987681D01*
X32354694Y-92926358D01*
X32359678Y-92856666D01*
X32388179Y-92812319D01*
X32427063Y-92773435D01*
X32506198Y-92694300D01*
X32637523Y-92506749D01*
X32734284Y-92299243D01*
X32793543Y-92078087D01*
X32813498Y-91850000D01*
X32793543Y-91621913D01*
X32734284Y-91400757D01*
X32708004Y-91344400D01*
X32677974Y-91280000D01*
X32637523Y-91193251D01*
X32506198Y-91005700D01*
X32344300Y-90843802D01*
X32258998Y-90784073D01*
X32215375Y-90729497D01*
X32208183Y-90659999D01*
X32239705Y-90597644D01*
X32299935Y-90562231D01*
X32330124Y-90558500D01*
X32348638Y-90558500D01*
X32348654Y-90558499D01*
X32375692Y-90555591D01*
X32409201Y-90551989D01*
X32546204Y-90500889D01*
X32663261Y-90413261D01*
X32675624Y-90396745D01*
X32731553Y-90354875D01*
X32801245Y-90349889D01*
X32862566Y-90383370D01*
X32862571Y-90383375D01*
X34845910Y-92366714D01*
X34855816Y-92379078D01*
X34856026Y-92378905D01*
X34860997Y-92384913D01*
X34861000Y-92384918D01*
X34910701Y-92431590D01*
X34913465Y-92434269D01*
X34933230Y-92454034D01*
X34936504Y-92456573D01*
X34945370Y-92464147D01*
X34977678Y-92494486D01*
X34995567Y-92504320D01*
X35011833Y-92515004D01*
X35027959Y-92527513D01*
X35068616Y-92545107D01*
X35079107Y-92550246D01*
X35117940Y-92571595D01*
X35137718Y-92576673D01*
X35156119Y-92582973D01*
X35174855Y-92591081D01*
X35218630Y-92598013D01*
X35230045Y-92600378D01*
X35272970Y-92611400D01*
X35293384Y-92611400D01*
X35312783Y-92612927D01*
X35332943Y-92616120D01*
X35377057Y-92611950D01*
X35388726Y-92611400D01*
X42751000Y-92611400D01*
X42818039Y-92631085D01*
X42863794Y-92683889D01*
X42875000Y-92735400D01*
X42875000Y-95100000D01*
X44803731Y-95100000D01*
X44870770Y-95119685D01*
X44916525Y-95172489D01*
X44926469Y-95241647D01*
X44897444Y-95305203D01*
X44895881Y-95306972D01*
X44860959Y-95345757D01*
X44765473Y-95511143D01*
X44765470Y-95511150D01*
X44727842Y-95626959D01*
X44706458Y-95692772D01*
X44686496Y-95882700D01*
X44706458Y-96072628D01*
X44706459Y-96072631D01*
X44765470Y-96254249D01*
X44765473Y-96254256D01*
X44860960Y-96419644D01*
X44988747Y-96561566D01*
X45143248Y-96673818D01*
X45317712Y-96751494D01*
X45504513Y-96791200D01*
X45561234Y-96791200D01*
X45628273Y-96810885D01*
X45648914Y-96827518D01*
X49411510Y-100590115D01*
X53167812Y-104346417D01*
X53177716Y-104358778D01*
X53177926Y-104358605D01*
X53182897Y-104364613D01*
X53182900Y-104364618D01*
X53232585Y-104411275D01*
X53235349Y-104413954D01*
X53255123Y-104433729D01*
X53255127Y-104433732D01*
X53255130Y-104433735D01*
X53258412Y-104436281D01*
X53267272Y-104443849D01*
X53299579Y-104474186D01*
X53299581Y-104474187D01*
X53317462Y-104484017D01*
X53333729Y-104494702D01*
X53349860Y-104507215D01*
X53370057Y-104515954D01*
X53390525Y-104524810D01*
X53401004Y-104529944D01*
X53439840Y-104551295D01*
X53459616Y-104556372D01*
X53478023Y-104562674D01*
X53496755Y-104570781D01*
X53540530Y-104577713D01*
X53551945Y-104580078D01*
X53594870Y-104591100D01*
X53615284Y-104591100D01*
X53634683Y-104592627D01*
X53654843Y-104595820D01*
X53698957Y-104591650D01*
X53710626Y-104591100D01*
X58908966Y-104591100D01*
X58924713Y-104592838D01*
X58924739Y-104592568D01*
X58932505Y-104593301D01*
X58932509Y-104593302D01*
X59000617Y-104591160D01*
X59004513Y-104591100D01*
X59032458Y-104591100D01*
X59032460Y-104591099D01*
X59033862Y-104590922D01*
X59036549Y-104590583D01*
X59048208Y-104589664D01*
X59092489Y-104588273D01*
X59112081Y-104582580D01*
X59131138Y-104578632D01*
X59151397Y-104576074D01*
X59192606Y-104559757D01*
X59203643Y-104555979D01*
X59246193Y-104543618D01*
X59263765Y-104533225D01*
X59281232Y-104524668D01*
X59300217Y-104517152D01*
X59336061Y-104491108D01*
X59345830Y-104484692D01*
X59383962Y-104462142D01*
X59395720Y-104450382D01*
X59457041Y-104416894D01*
X59526733Y-104421875D01*
X59582669Y-104463743D01*
X59607090Y-104529206D01*
X59607404Y-104537305D01*
X59620687Y-106721187D01*
X59601410Y-106788345D01*
X59584370Y-106809622D01*
X58526179Y-107867814D01*
X58513820Y-107877718D01*
X58513993Y-107877927D01*
X58507982Y-107882900D01*
X58461338Y-107932569D01*
X58458633Y-107935360D01*
X58438873Y-107955121D01*
X58438858Y-107955138D01*
X58436317Y-107958413D01*
X58428753Y-107967267D01*
X58398420Y-107999571D01*
X58398412Y-107999581D01*
X58388579Y-108017467D01*
X58377903Y-108033720D01*
X58365386Y-108049857D01*
X58365385Y-108049860D01*
X58347785Y-108090529D01*
X58342648Y-108101015D01*
X58321303Y-108139841D01*
X58321303Y-108139842D01*
X58316225Y-108159620D01*
X58309925Y-108178022D01*
X58301818Y-108196757D01*
X58294888Y-108240509D01*
X58292520Y-108251945D01*
X58279560Y-108302425D01*
X58276671Y-108301683D01*
X58254323Y-108352919D01*
X58218254Y-108382385D01*
X58169425Y-108408810D01*
X58169420Y-108408813D01*
X57991761Y-108547092D01*
X57991756Y-108547097D01*
X57839284Y-108712723D01*
X57839276Y-108712734D01*
X57748808Y-108851206D01*
X57695662Y-108896562D01*
X57626431Y-108905986D01*
X57563095Y-108876484D01*
X57541192Y-108851206D01*
X57450723Y-108712734D01*
X57450715Y-108712723D01*
X57298243Y-108547097D01*
X57298238Y-108547092D01*
X57178371Y-108453795D01*
X57120576Y-108408811D01*
X57120575Y-108408810D01*
X57120572Y-108408808D01*
X56922580Y-108301661D01*
X56922577Y-108301659D01*
X56922574Y-108301658D01*
X56922571Y-108301657D01*
X56922569Y-108301656D01*
X56709637Y-108228556D01*
X56487569Y-108191500D01*
X56262431Y-108191500D01*
X56040362Y-108228556D01*
X55827430Y-108301656D01*
X55827419Y-108301661D01*
X55629427Y-108408808D01*
X55629422Y-108408812D01*
X55451761Y-108547092D01*
X55451756Y-108547097D01*
X55299284Y-108712723D01*
X55299276Y-108712734D01*
X55205251Y-108856650D01*
X55152105Y-108902007D01*
X55082873Y-108911430D01*
X55019538Y-108881928D01*
X54999868Y-108859951D01*
X54873113Y-108678926D01*
X54873108Y-108678920D01*
X54706082Y-108511894D01*
X54512578Y-108376399D01*
X54298492Y-108276570D01*
X54298486Y-108276567D01*
X54085000Y-108219364D01*
X54085000Y-109114498D01*
X53977315Y-109065320D01*
X53870763Y-109050000D01*
X53799237Y-109050000D01*
X53692685Y-109065320D01*
X53585000Y-109114498D01*
X53585000Y-108219364D01*
X53584999Y-108219364D01*
X53371513Y-108276567D01*
X53371507Y-108276570D01*
X53157422Y-108376399D01*
X53157420Y-108376400D01*
X52963926Y-108511886D01*
X52963920Y-108511891D01*
X52796891Y-108678920D01*
X52796890Y-108678922D01*
X52670131Y-108859952D01*
X52615554Y-108903577D01*
X52546055Y-108910769D01*
X52483701Y-108879247D01*
X52464752Y-108856656D01*
X52370722Y-108712732D01*
X52370715Y-108712725D01*
X52370715Y-108712723D01*
X52218243Y-108547097D01*
X52218238Y-108547092D01*
X52098371Y-108453795D01*
X52040576Y-108408811D01*
X52040575Y-108408810D01*
X52040572Y-108408808D01*
X51842580Y-108301661D01*
X51842577Y-108301659D01*
X51842574Y-108301658D01*
X51842571Y-108301657D01*
X51842569Y-108301656D01*
X51629637Y-108228556D01*
X51407569Y-108191500D01*
X51182431Y-108191500D01*
X50960362Y-108228556D01*
X50747430Y-108301656D01*
X50747419Y-108301661D01*
X50549427Y-108408808D01*
X50549422Y-108408812D01*
X50371761Y-108547092D01*
X50308548Y-108615760D01*
X50248661Y-108651750D01*
X50178823Y-108649649D01*
X50121207Y-108610124D01*
X50101138Y-108575110D01*
X50055889Y-108453796D01*
X50022214Y-108408812D01*
X49968261Y-108336739D01*
X49851204Y-108249111D01*
X49843638Y-108246289D01*
X49714203Y-108198011D01*
X49653654Y-108191500D01*
X49653638Y-108191500D01*
X47856362Y-108191500D01*
X47856345Y-108191500D01*
X47795797Y-108198011D01*
X47795795Y-108198011D01*
X47658795Y-108249111D01*
X47541739Y-108336739D01*
X47454111Y-108453795D01*
X47403011Y-108590795D01*
X47403011Y-108590797D01*
X47396500Y-108651345D01*
X47396500Y-110448654D01*
X47403011Y-110509202D01*
X47403011Y-110509204D01*
X47454111Y-110646204D01*
X47541739Y-110763261D01*
X47658796Y-110850889D01*
X47795799Y-110901989D01*
X47823050Y-110904918D01*
X47856345Y-110908499D01*
X47856362Y-110908500D01*
X47997500Y-110908500D01*
X48064539Y-110928185D01*
X48110294Y-110980989D01*
X48121500Y-111032500D01*
X48121500Y-112167500D01*
X48101815Y-112234539D01*
X48049011Y-112280294D01*
X47997500Y-112291500D01*
X47856345Y-112291500D01*
X47795797Y-112298011D01*
X47795795Y-112298011D01*
X47658795Y-112349111D01*
X47541739Y-112436739D01*
X47454111Y-112553795D01*
X47403011Y-112690795D01*
X47403011Y-112690797D01*
X47396500Y-112751345D01*
X47396500Y-114548654D01*
X47403011Y-114609202D01*
X47403011Y-114609204D01*
X47454111Y-114746204D01*
X47541739Y-114863261D01*
X47658796Y-114950889D01*
X47795799Y-115001989D01*
X47823050Y-115004918D01*
X47856345Y-115008499D01*
X47856362Y-115008500D01*
X49653638Y-115008500D01*
X49653654Y-115008499D01*
X49680692Y-115005591D01*
X49714201Y-115001989D01*
X49851204Y-114950889D01*
X49968261Y-114863261D01*
X50055889Y-114746204D01*
X50101138Y-114624887D01*
X50143009Y-114568956D01*
X50208474Y-114544539D01*
X50276746Y-114559391D01*
X50308545Y-114584236D01*
X50371760Y-114652906D01*
X50549424Y-114791189D01*
X50549425Y-114791189D01*
X50549427Y-114791191D01*
X50609314Y-114823600D01*
X50747426Y-114898342D01*
X50960365Y-114971444D01*
X51182431Y-115008500D01*
X51407569Y-115008500D01*
X51629635Y-114971444D01*
X51842574Y-114898342D01*
X52040576Y-114791189D01*
X52218240Y-114652906D01*
X52339594Y-114521082D01*
X52370715Y-114487276D01*
X52370715Y-114487275D01*
X52370722Y-114487268D01*
X52464749Y-114343347D01*
X52517894Y-114297994D01*
X52587125Y-114288570D01*
X52650461Y-114318072D01*
X52670130Y-114340048D01*
X52796890Y-114521078D01*
X52963917Y-114688105D01*
X53157421Y-114823600D01*
X53371507Y-114923429D01*
X53371516Y-114923433D01*
X53585000Y-114980634D01*
X53585000Y-114085501D01*
X53692685Y-114134680D01*
X53799237Y-114150000D01*
X53870763Y-114150000D01*
X53977315Y-114134680D01*
X54085000Y-114085501D01*
X54085000Y-114980633D01*
X54298483Y-114923433D01*
X54298492Y-114923429D01*
X54512578Y-114823600D01*
X54706082Y-114688105D01*
X54873105Y-114521082D01*
X54999868Y-114340048D01*
X55054445Y-114296423D01*
X55123944Y-114289231D01*
X55186298Y-114320753D01*
X55205251Y-114343350D01*
X55299276Y-114487265D01*
X55299284Y-114487276D01*
X55425968Y-114624889D01*
X55451760Y-114652906D01*
X55629424Y-114791189D01*
X55629425Y-114791189D01*
X55629427Y-114791191D01*
X55689314Y-114823600D01*
X55827426Y-114898342D01*
X56040365Y-114971444D01*
X56262431Y-115008500D01*
X56487569Y-115008500D01*
X56709635Y-114971444D01*
X56922574Y-114898342D01*
X57120576Y-114791189D01*
X57298240Y-114652906D01*
X57419594Y-114521082D01*
X57450715Y-114487276D01*
X57450715Y-114487275D01*
X57450722Y-114487268D01*
X57541193Y-114348790D01*
X57594338Y-114303437D01*
X57663569Y-114294013D01*
X57726905Y-114323515D01*
X57748804Y-114348787D01*
X57839278Y-114487268D01*
X57839283Y-114487273D01*
X57839284Y-114487276D01*
X57965968Y-114624889D01*
X57991760Y-114652906D01*
X58169424Y-114791189D01*
X58169425Y-114791189D01*
X58169427Y-114791191D01*
X58229314Y-114823600D01*
X58367426Y-114898342D01*
X58580365Y-114971444D01*
X58802431Y-115008500D01*
X59027569Y-115008500D01*
X59249635Y-114971444D01*
X59462574Y-114898342D01*
X59487985Y-114884589D01*
X59556313Y-114869994D01*
X59621686Y-114894656D01*
X59663347Y-114950746D01*
X59671002Y-114992890D01*
X59674238Y-115524746D01*
X59654961Y-115591904D01*
X59602437Y-115637979D01*
X59550240Y-115649500D01*
X43124500Y-115649500D01*
X43057461Y-115629815D01*
X43011706Y-115577011D01*
X43000500Y-115525500D01*
X43000500Y-99099759D01*
X43000528Y-99099616D01*
X43000524Y-99099616D01*
X43000539Y-99075002D01*
X43000541Y-99075000D01*
X43000462Y-99074808D01*
X43000384Y-99074618D01*
X43000380Y-99074614D01*
X43000194Y-99074538D01*
X43000002Y-99074459D01*
X42975446Y-99074459D01*
X42975240Y-99074500D01*
X29892677Y-99074500D01*
X29825638Y-99054815D01*
X29779883Y-99002011D01*
X29769939Y-98932853D01*
X29798964Y-98869297D01*
X29857742Y-98831523D01*
X29862237Y-98830294D01*
X29888716Y-98823588D01*
X30116367Y-98723732D01*
X30324478Y-98587767D01*
X30507364Y-98419407D01*
X30507373Y-98419397D01*
X30660051Y-98223237D01*
X30660057Y-98223228D01*
X30778364Y-98004614D01*
X30778369Y-98004603D01*
X30859083Y-97769492D01*
X30879023Y-97650000D01*
X29833686Y-97650000D01*
X29859493Y-97609844D01*
X29900000Y-97471889D01*
X29900000Y-97328111D01*
X29859493Y-97190156D01*
X29833686Y-97150000D01*
X30879022Y-97150000D01*
X30879023Y-97149999D01*
X30859083Y-97030507D01*
X30778369Y-96795396D01*
X30778364Y-96795385D01*
X30660057Y-96576771D01*
X30660051Y-96576762D01*
X30507373Y-96380602D01*
X30507364Y-96380592D01*
X30338352Y-96225005D01*
X36170255Y-96225005D01*
X36189215Y-96526383D01*
X36189216Y-96526390D01*
X36245805Y-96823040D01*
X36339125Y-97110247D01*
X36339127Y-97110252D01*
X36467704Y-97383491D01*
X36467707Y-97383497D01*
X36629516Y-97638469D01*
X36710311Y-97736133D01*
X37639210Y-96807234D01*
X37739894Y-96948624D01*
X37891932Y-97093592D01*
X37994222Y-97159329D01*
X37061564Y-98091987D01*
X37061565Y-98091989D01*
X37286461Y-98255385D01*
X37286479Y-98255397D01*
X37551109Y-98400878D01*
X37551117Y-98400882D01*
X37831889Y-98512047D01*
X37831892Y-98512048D01*
X38124399Y-98587150D01*
X38423995Y-98624999D01*
X38424007Y-98625000D01*
X38725993Y-98625000D01*
X38726004Y-98624999D01*
X39025600Y-98587150D01*
X39318107Y-98512048D01*
X39318110Y-98512047D01*
X39598882Y-98400882D01*
X39598890Y-98400878D01*
X39863520Y-98255397D01*
X39863530Y-98255390D01*
X40088433Y-98091987D01*
X40088434Y-98091987D01*
X39158307Y-97161859D01*
X39172410Y-97154589D01*
X39337540Y-97024729D01*
X39475110Y-96865965D01*
X39509665Y-96806112D01*
X40439687Y-97736134D01*
X40520486Y-97638464D01*
X40682292Y-97383497D01*
X40682295Y-97383491D01*
X40810872Y-97110252D01*
X40810874Y-97110247D01*
X40904194Y-96823040D01*
X40960783Y-96526390D01*
X40960784Y-96526383D01*
X40979745Y-96225005D01*
X40979745Y-96224994D01*
X40960784Y-95923616D01*
X40960783Y-95923609D01*
X40904194Y-95626959D01*
X40810874Y-95339752D01*
X40810872Y-95339747D01*
X40682295Y-95066508D01*
X40682292Y-95066502D01*
X40520483Y-94811530D01*
X40439686Y-94713864D01*
X39510787Y-95642763D01*
X39410106Y-95501376D01*
X39258068Y-95356408D01*
X39155776Y-95290669D01*
X40088434Y-94358011D01*
X40088433Y-94358009D01*
X39863538Y-94194614D01*
X39863520Y-94194602D01*
X39598890Y-94049121D01*
X39598882Y-94049117D01*
X39318110Y-93937952D01*
X39318107Y-93937951D01*
X39025600Y-93862849D01*
X38726004Y-93825000D01*
X38423995Y-93825000D01*
X38124399Y-93862849D01*
X37831892Y-93937951D01*
X37831889Y-93937952D01*
X37551117Y-94049117D01*
X37551109Y-94049121D01*
X37286476Y-94194604D01*
X37286471Y-94194607D01*
X37061565Y-94358010D01*
X37061564Y-94358011D01*
X37991693Y-95288140D01*
X37977590Y-95295411D01*
X37812460Y-95425271D01*
X37674890Y-95584035D01*
X37640334Y-95643887D01*
X36710311Y-94713864D01*
X36629520Y-94811525D01*
X36629518Y-94811528D01*
X36467707Y-95066502D01*
X36467704Y-95066508D01*
X36339127Y-95339747D01*
X36339125Y-95339752D01*
X36245805Y-95626959D01*
X36189216Y-95923609D01*
X36189215Y-95923616D01*
X36170255Y-96224994D01*
X36170255Y-96225005D01*
X30338352Y-96225005D01*
X30324477Y-96212232D01*
X30324478Y-96212232D01*
X30116367Y-96076267D01*
X29888717Y-95976412D01*
X29647738Y-95915387D01*
X29647730Y-95915385D01*
X29462054Y-95900000D01*
X28900000Y-95900000D01*
X28900000Y-96900000D01*
X28400000Y-96900000D01*
X28400000Y-95900000D01*
X27837945Y-95900000D01*
X27652269Y-95915385D01*
X27652261Y-95915387D01*
X27411282Y-95976412D01*
X27183632Y-96076267D01*
X26975521Y-96212232D01*
X26792635Y-96380592D01*
X26792626Y-96380602D01*
X26639948Y-96576762D01*
X26639942Y-96576771D01*
X26521635Y-96795385D01*
X26521630Y-96795396D01*
X26440916Y-97030507D01*
X26420976Y-97149999D01*
X26420978Y-97150000D01*
X27466314Y-97150000D01*
X27440507Y-97190156D01*
X27400000Y-97328111D01*
X27400000Y-97471889D01*
X27440507Y-97609844D01*
X27466314Y-97650000D01*
X26420977Y-97650000D01*
X26440916Y-97769492D01*
X26521630Y-98004603D01*
X26521635Y-98004614D01*
X26639942Y-98223228D01*
X26639948Y-98223237D01*
X26792626Y-98419397D01*
X26792635Y-98419407D01*
X26975522Y-98587767D01*
X26975521Y-98587767D01*
X27183632Y-98723732D01*
X27411284Y-98823588D01*
X27411283Y-98823588D01*
X27437763Y-98830294D01*
X27497919Y-98865834D01*
X27529311Y-98928254D01*
X27521973Y-98997737D01*
X27478234Y-99052223D01*
X27411982Y-99074412D01*
X27407323Y-99074500D01*
X22949500Y-99074500D01*
X22882461Y-99054815D01*
X22836706Y-99002011D01*
X22825500Y-98950500D01*
X22825500Y-91612054D01*
X26350000Y-91612054D01*
X26365385Y-91797730D01*
X26365387Y-91797738D01*
X26426412Y-92038717D01*
X26526267Y-92266367D01*
X26662232Y-92474478D01*
X26830592Y-92657364D01*
X26830602Y-92657373D01*
X27026762Y-92810051D01*
X27026771Y-92810057D01*
X27245385Y-92928364D01*
X27245396Y-92928369D01*
X27480507Y-93009083D01*
X27599999Y-93029023D01*
X27600000Y-93029022D01*
X27600000Y-91983686D01*
X27640156Y-92009493D01*
X27778111Y-92050000D01*
X27921889Y-92050000D01*
X28059844Y-92009493D01*
X28100000Y-91983686D01*
X28100000Y-93029023D01*
X28219492Y-93009083D01*
X28454603Y-92928369D01*
X28454614Y-92928364D01*
X28673228Y-92810057D01*
X28673237Y-92810051D01*
X28869397Y-92657373D01*
X28869407Y-92657364D01*
X29037767Y-92474478D01*
X29173732Y-92266367D01*
X29273587Y-92038717D01*
X29334612Y-91797738D01*
X29334614Y-91797730D01*
X29349999Y-91612054D01*
X29350000Y-91612039D01*
X29350000Y-90800000D01*
X28350000Y-90800000D01*
X28350000Y-90300000D01*
X29350000Y-90300000D01*
X29350000Y-89487961D01*
X29349999Y-89487945D01*
X29334614Y-89302269D01*
X29334612Y-89302261D01*
X29273587Y-89061282D01*
X29173732Y-88833632D01*
X29037767Y-88625521D01*
X28869407Y-88442635D01*
X28869397Y-88442626D01*
X28673237Y-88289948D01*
X28673228Y-88289942D01*
X28454614Y-88171635D01*
X28454603Y-88171630D01*
X28219492Y-88090916D01*
X28100000Y-88070976D01*
X28100000Y-89116313D01*
X28059844Y-89090507D01*
X27921889Y-89050000D01*
X27778111Y-89050000D01*
X27640156Y-89090507D01*
X27600000Y-89116313D01*
X27600000Y-88070976D01*
X27599999Y-88070976D01*
X27480507Y-88090916D01*
X27245396Y-88171630D01*
X27245385Y-88171635D01*
X27026771Y-88289942D01*
X27026762Y-88289948D01*
X26830602Y-88442626D01*
X26830592Y-88442635D01*
X26662232Y-88625521D01*
X26526267Y-88833632D01*
X26426412Y-89061282D01*
X26365387Y-89302261D01*
X26365385Y-89302269D01*
X26350000Y-89487945D01*
X26350000Y-90300000D01*
X27350000Y-90300000D01*
X27350000Y-90800000D01*
X26350000Y-90800000D01*
X26350000Y-91612054D01*
X22825500Y-91612054D01*
X22825500Y-82174500D01*
X22845185Y-82107461D01*
X22897989Y-82061706D01*
X22949500Y-82050500D01*
X27334927Y-82050500D01*
X27401966Y-82070185D01*
G37*
%TD.AperFunction*%
%TA.AperFunction,Conductor*%
G36*
X54085000Y-110880633D02*
G01*
X54298483Y-110823433D01*
X54298492Y-110823429D01*
X54512578Y-110723600D01*
X54706082Y-110588105D01*
X54873105Y-110421082D01*
X54999868Y-110240048D01*
X55054445Y-110196423D01*
X55123944Y-110189231D01*
X55186298Y-110220753D01*
X55205251Y-110243350D01*
X55299276Y-110387265D01*
X55299284Y-110387276D01*
X55425968Y-110524889D01*
X55451760Y-110552906D01*
X55629424Y-110691189D01*
X55629425Y-110691189D01*
X55629427Y-110691191D01*
X55676516Y-110716674D01*
X55827426Y-110798342D01*
X56040365Y-110871444D01*
X56262431Y-110908500D01*
X56487569Y-110908500D01*
X56709635Y-110871444D01*
X56922574Y-110798342D01*
X57120576Y-110691189D01*
X57298240Y-110552906D01*
X57419594Y-110421082D01*
X57450715Y-110387276D01*
X57450715Y-110387275D01*
X57450722Y-110387268D01*
X57541193Y-110248790D01*
X57594338Y-110203437D01*
X57663569Y-110194013D01*
X57726905Y-110223515D01*
X57748804Y-110248787D01*
X57839278Y-110387268D01*
X57839283Y-110387273D01*
X57839284Y-110387276D01*
X57965968Y-110524889D01*
X57991760Y-110552906D01*
X58169424Y-110691189D01*
X58169426Y-110691190D01*
X58169433Y-110691195D01*
X58216516Y-110716674D01*
X58266107Y-110765892D01*
X58281500Y-110825729D01*
X58281500Y-112374269D01*
X58261815Y-112441308D01*
X58216520Y-112483323D01*
X58169422Y-112508811D01*
X58169422Y-112508812D01*
X57991761Y-112647092D01*
X57991756Y-112647097D01*
X57839284Y-112812723D01*
X57839276Y-112812734D01*
X57748808Y-112951206D01*
X57695662Y-112996562D01*
X57626431Y-113005986D01*
X57563095Y-112976484D01*
X57541192Y-112951206D01*
X57450723Y-112812734D01*
X57450715Y-112812723D01*
X57298243Y-112647097D01*
X57298238Y-112647092D01*
X57120577Y-112508812D01*
X57120572Y-112508808D01*
X56922580Y-112401661D01*
X56922577Y-112401659D01*
X56922574Y-112401658D01*
X56922571Y-112401657D01*
X56922569Y-112401656D01*
X56709637Y-112328556D01*
X56487569Y-112291500D01*
X56262431Y-112291500D01*
X56040362Y-112328556D01*
X55827430Y-112401656D01*
X55827419Y-112401661D01*
X55629427Y-112508808D01*
X55629422Y-112508812D01*
X55451761Y-112647092D01*
X55451756Y-112647097D01*
X55299284Y-112812723D01*
X55299276Y-112812734D01*
X55205251Y-112956650D01*
X55152105Y-113002007D01*
X55082873Y-113011430D01*
X55019538Y-112981928D01*
X54999868Y-112959951D01*
X54873113Y-112778926D01*
X54873108Y-112778920D01*
X54706082Y-112611894D01*
X54512578Y-112476399D01*
X54298492Y-112376570D01*
X54298486Y-112376567D01*
X54085000Y-112319364D01*
X54085000Y-113214498D01*
X53977315Y-113165320D01*
X53870763Y-113150000D01*
X53799237Y-113150000D01*
X53692685Y-113165320D01*
X53585000Y-113214498D01*
X53585000Y-112319364D01*
X53584999Y-112319364D01*
X53371513Y-112376567D01*
X53371507Y-112376570D01*
X53157422Y-112476399D01*
X53157420Y-112476400D01*
X52963926Y-112611886D01*
X52963920Y-112611891D01*
X52796891Y-112778920D01*
X52796890Y-112778922D01*
X52670131Y-112959952D01*
X52615554Y-113003577D01*
X52546055Y-113010769D01*
X52483701Y-112979247D01*
X52464752Y-112956656D01*
X52370722Y-112812732D01*
X52370715Y-112812725D01*
X52370715Y-112812723D01*
X52218243Y-112647097D01*
X52218238Y-112647092D01*
X52040577Y-112508812D01*
X52040577Y-112508811D01*
X51993480Y-112483323D01*
X51943891Y-112434102D01*
X51928500Y-112374269D01*
X51928500Y-110825729D01*
X51948185Y-110758690D01*
X51993484Y-110716674D01*
X52040566Y-110691195D01*
X52040572Y-110691191D01*
X52040576Y-110691189D01*
X52218240Y-110552906D01*
X52339594Y-110421082D01*
X52370715Y-110387276D01*
X52370715Y-110387275D01*
X52370722Y-110387268D01*
X52464749Y-110243347D01*
X52517894Y-110197994D01*
X52587125Y-110188570D01*
X52650461Y-110218072D01*
X52670130Y-110240048D01*
X52796890Y-110421078D01*
X52963917Y-110588105D01*
X53157421Y-110723600D01*
X53371507Y-110823429D01*
X53371516Y-110823433D01*
X53585000Y-110880634D01*
X53585000Y-109985501D01*
X53692685Y-110034680D01*
X53799237Y-110050000D01*
X53870763Y-110050000D01*
X53977315Y-110034680D01*
X54085000Y-109985501D01*
X54085000Y-110880633D01*
G37*
%TD.AperFunction*%
%TD*%
M02*
