%TF.GenerationSoftware,KiCad,Pcbnew,7.0.10*%
%TF.CreationDate,2024-06-09T02:47:37+01:00*%
%TF.ProjectId,Electron-PS2Slim,456c6563-7472-46f6-9e2d-505332536c69,rev?*%
%TF.SameCoordinates,Original*%
%TF.FileFunction,Legend,Bot*%
%TF.FilePolarity,Positive*%
%FSLAX46Y46*%
G04 Gerber Fmt 4.6, Leading zero omitted, Abs format (unit mm)*
G04 Created by KiCad (PCBNEW 7.0.10) date 2024-06-09 02:47:37*
%MOMM*%
%LPD*%
G01*
G04 APERTURE LIST*
%ADD10C,0.150000*%
%ADD11C,0.120000*%
G04 APERTURE END LIST*
D10*
X102752277Y-106718219D02*
X102180849Y-106718219D01*
X102466563Y-107718219D02*
X102466563Y-106718219D01*
X101847515Y-107718219D02*
X101847515Y-106718219D01*
X101418944Y-107718219D02*
X101418944Y-107194409D01*
X101418944Y-107194409D02*
X101466563Y-107099171D01*
X101466563Y-107099171D02*
X101561801Y-107051552D01*
X101561801Y-107051552D02*
X101704658Y-107051552D01*
X101704658Y-107051552D02*
X101799896Y-107099171D01*
X101799896Y-107099171D02*
X101847515Y-107146790D01*
X100514182Y-107718219D02*
X100514182Y-107194409D01*
X100514182Y-107194409D02*
X100561801Y-107099171D01*
X100561801Y-107099171D02*
X100657039Y-107051552D01*
X100657039Y-107051552D02*
X100847515Y-107051552D01*
X100847515Y-107051552D02*
X100942753Y-107099171D01*
X100514182Y-107670600D02*
X100609420Y-107718219D01*
X100609420Y-107718219D02*
X100847515Y-107718219D01*
X100847515Y-107718219D02*
X100942753Y-107670600D01*
X100942753Y-107670600D02*
X100990372Y-107575361D01*
X100990372Y-107575361D02*
X100990372Y-107480123D01*
X100990372Y-107480123D02*
X100942753Y-107384885D01*
X100942753Y-107384885D02*
X100847515Y-107337266D01*
X100847515Y-107337266D02*
X100609420Y-107337266D01*
X100609420Y-107337266D02*
X100514182Y-107289647D01*
X100037991Y-107051552D02*
X100037991Y-107718219D01*
X100037991Y-107146790D02*
X99990372Y-107099171D01*
X99990372Y-107099171D02*
X99895134Y-107051552D01*
X99895134Y-107051552D02*
X99752277Y-107051552D01*
X99752277Y-107051552D02*
X99657039Y-107099171D01*
X99657039Y-107099171D02*
X99609420Y-107194409D01*
X99609420Y-107194409D02*
X99609420Y-107718219D01*
X99133229Y-107718219D02*
X99133229Y-106718219D01*
X99037991Y-107337266D02*
X98752277Y-107718219D01*
X98752277Y-107051552D02*
X99133229Y-107432504D01*
X98371324Y-107670600D02*
X98276086Y-107718219D01*
X98276086Y-107718219D02*
X98085610Y-107718219D01*
X98085610Y-107718219D02*
X97990372Y-107670600D01*
X97990372Y-107670600D02*
X97942753Y-107575361D01*
X97942753Y-107575361D02*
X97942753Y-107527742D01*
X97942753Y-107527742D02*
X97990372Y-107432504D01*
X97990372Y-107432504D02*
X98085610Y-107384885D01*
X98085610Y-107384885D02*
X98228467Y-107384885D01*
X98228467Y-107384885D02*
X98323705Y-107337266D01*
X98323705Y-107337266D02*
X98371324Y-107242028D01*
X98371324Y-107242028D02*
X98371324Y-107194409D01*
X98371324Y-107194409D02*
X98323705Y-107099171D01*
X98323705Y-107099171D02*
X98228467Y-107051552D01*
X98228467Y-107051552D02*
X98085610Y-107051552D01*
X98085610Y-107051552D02*
X97990372Y-107099171D01*
X96895133Y-107051552D02*
X96514181Y-107051552D01*
X96752276Y-106718219D02*
X96752276Y-107575361D01*
X96752276Y-107575361D02*
X96704657Y-107670600D01*
X96704657Y-107670600D02*
X96609419Y-107718219D01*
X96609419Y-107718219D02*
X96514181Y-107718219D01*
X96037990Y-107718219D02*
X96133228Y-107670600D01*
X96133228Y-107670600D02*
X96180847Y-107622980D01*
X96180847Y-107622980D02*
X96228466Y-107527742D01*
X96228466Y-107527742D02*
X96228466Y-107242028D01*
X96228466Y-107242028D02*
X96180847Y-107146790D01*
X96180847Y-107146790D02*
X96133228Y-107099171D01*
X96133228Y-107099171D02*
X96037990Y-107051552D01*
X96037990Y-107051552D02*
X95895133Y-107051552D01*
X95895133Y-107051552D02*
X95799895Y-107099171D01*
X95799895Y-107099171D02*
X95752276Y-107146790D01*
X95752276Y-107146790D02*
X95704657Y-107242028D01*
X95704657Y-107242028D02*
X95704657Y-107527742D01*
X95704657Y-107527742D02*
X95752276Y-107622980D01*
X95752276Y-107622980D02*
X95799895Y-107670600D01*
X95799895Y-107670600D02*
X95895133Y-107718219D01*
X95895133Y-107718219D02*
X96037990Y-107718219D01*
X93942752Y-107718219D02*
X94276085Y-107242028D01*
X94514180Y-107718219D02*
X94514180Y-106718219D01*
X94514180Y-106718219D02*
X94133228Y-106718219D01*
X94133228Y-106718219D02*
X94037990Y-106765838D01*
X94037990Y-106765838D02*
X93990371Y-106813457D01*
X93990371Y-106813457D02*
X93942752Y-106908695D01*
X93942752Y-106908695D02*
X93942752Y-107051552D01*
X93942752Y-107051552D02*
X93990371Y-107146790D01*
X93990371Y-107146790D02*
X94037990Y-107194409D01*
X94037990Y-107194409D02*
X94133228Y-107242028D01*
X94133228Y-107242028D02*
X94514180Y-107242028D01*
X93371323Y-107718219D02*
X93466561Y-107670600D01*
X93466561Y-107670600D02*
X93514180Y-107622980D01*
X93514180Y-107622980D02*
X93561799Y-107527742D01*
X93561799Y-107527742D02*
X93561799Y-107242028D01*
X93561799Y-107242028D02*
X93514180Y-107146790D01*
X93514180Y-107146790D02*
X93466561Y-107099171D01*
X93466561Y-107099171D02*
X93371323Y-107051552D01*
X93371323Y-107051552D02*
X93228466Y-107051552D01*
X93228466Y-107051552D02*
X93133228Y-107099171D01*
X93133228Y-107099171D02*
X93085609Y-107146790D01*
X93085609Y-107146790D02*
X93037990Y-107242028D01*
X93037990Y-107242028D02*
X93037990Y-107527742D01*
X93037990Y-107527742D02*
X93085609Y-107622980D01*
X93085609Y-107622980D02*
X93133228Y-107670600D01*
X93133228Y-107670600D02*
X93228466Y-107718219D01*
X93228466Y-107718219D02*
X93371323Y-107718219D01*
X92609418Y-107718219D02*
X92609418Y-106718219D01*
X92609418Y-107099171D02*
X92514180Y-107051552D01*
X92514180Y-107051552D02*
X92323704Y-107051552D01*
X92323704Y-107051552D02*
X92228466Y-107099171D01*
X92228466Y-107099171D02*
X92180847Y-107146790D01*
X92180847Y-107146790D02*
X92133228Y-107242028D01*
X92133228Y-107242028D02*
X92133228Y-107527742D01*
X92133228Y-107527742D02*
X92180847Y-107622980D01*
X92180847Y-107622980D02*
X92228466Y-107670600D01*
X92228466Y-107670600D02*
X92323704Y-107718219D01*
X92323704Y-107718219D02*
X92514180Y-107718219D01*
X92514180Y-107718219D02*
X92609418Y-107670600D01*
X90990370Y-106718219D02*
X90990370Y-106908695D01*
X90609418Y-106718219D02*
X90609418Y-106908695D01*
X90180846Y-107718219D02*
X90180846Y-106718219D01*
X90180846Y-106718219D02*
X89799894Y-106718219D01*
X89799894Y-106718219D02*
X89704656Y-106765838D01*
X89704656Y-106765838D02*
X89657037Y-106813457D01*
X89657037Y-106813457D02*
X89609418Y-106908695D01*
X89609418Y-106908695D02*
X89609418Y-107051552D01*
X89609418Y-107051552D02*
X89657037Y-107146790D01*
X89657037Y-107146790D02*
X89704656Y-107194409D01*
X89704656Y-107194409D02*
X89799894Y-107242028D01*
X89799894Y-107242028D02*
X90180846Y-107242028D01*
X88799894Y-107670600D02*
X88895132Y-107718219D01*
X88895132Y-107718219D02*
X89085608Y-107718219D01*
X89085608Y-107718219D02*
X89180846Y-107670600D01*
X89180846Y-107670600D02*
X89228465Y-107575361D01*
X89228465Y-107575361D02*
X89228465Y-107194409D01*
X89228465Y-107194409D02*
X89180846Y-107099171D01*
X89180846Y-107099171D02*
X89085608Y-107051552D01*
X89085608Y-107051552D02*
X88895132Y-107051552D01*
X88895132Y-107051552D02*
X88799894Y-107099171D01*
X88799894Y-107099171D02*
X88752275Y-107194409D01*
X88752275Y-107194409D02*
X88752275Y-107289647D01*
X88752275Y-107289647D02*
X89228465Y-107384885D01*
X87942751Y-107670600D02*
X88037989Y-107718219D01*
X88037989Y-107718219D02*
X88228465Y-107718219D01*
X88228465Y-107718219D02*
X88323703Y-107670600D01*
X88323703Y-107670600D02*
X88371322Y-107575361D01*
X88371322Y-107575361D02*
X88371322Y-107194409D01*
X88371322Y-107194409D02*
X88323703Y-107099171D01*
X88323703Y-107099171D02*
X88228465Y-107051552D01*
X88228465Y-107051552D02*
X88037989Y-107051552D01*
X88037989Y-107051552D02*
X87942751Y-107099171D01*
X87942751Y-107099171D02*
X87895132Y-107194409D01*
X87895132Y-107194409D02*
X87895132Y-107289647D01*
X87895132Y-107289647D02*
X88371322Y-107384885D01*
X87466560Y-107051552D02*
X87466560Y-108051552D01*
X87466560Y-107099171D02*
X87371322Y-107051552D01*
X87371322Y-107051552D02*
X87180846Y-107051552D01*
X87180846Y-107051552D02*
X87085608Y-107099171D01*
X87085608Y-107099171D02*
X87037989Y-107146790D01*
X87037989Y-107146790D02*
X86990370Y-107242028D01*
X86990370Y-107242028D02*
X86990370Y-107527742D01*
X86990370Y-107527742D02*
X87037989Y-107622980D01*
X87037989Y-107622980D02*
X87085608Y-107670600D01*
X87085608Y-107670600D02*
X87180846Y-107718219D01*
X87180846Y-107718219D02*
X87371322Y-107718219D01*
X87371322Y-107718219D02*
X87466560Y-107670600D01*
X86418941Y-107718219D02*
X86514179Y-107670600D01*
X86514179Y-107670600D02*
X86561798Y-107622980D01*
X86561798Y-107622980D02*
X86609417Y-107527742D01*
X86609417Y-107527742D02*
X86609417Y-107242028D01*
X86609417Y-107242028D02*
X86561798Y-107146790D01*
X86561798Y-107146790D02*
X86514179Y-107099171D01*
X86514179Y-107099171D02*
X86418941Y-107051552D01*
X86418941Y-107051552D02*
X86276084Y-107051552D01*
X86276084Y-107051552D02*
X86180846Y-107099171D01*
X86180846Y-107099171D02*
X86133227Y-107146790D01*
X86133227Y-107146790D02*
X86085608Y-107242028D01*
X86085608Y-107242028D02*
X86085608Y-107527742D01*
X86085608Y-107527742D02*
X86133227Y-107622980D01*
X86133227Y-107622980D02*
X86180846Y-107670600D01*
X86180846Y-107670600D02*
X86276084Y-107718219D01*
X86276084Y-107718219D02*
X86418941Y-107718219D01*
X85704655Y-106718219D02*
X85704655Y-106908695D01*
X85323703Y-106718219D02*
X85323703Y-106908695D01*
X84276083Y-106718219D02*
X83704655Y-106718219D01*
X83990369Y-107718219D02*
X83990369Y-106718219D01*
X82942750Y-107718219D02*
X82942750Y-107194409D01*
X82942750Y-107194409D02*
X82990369Y-107099171D01*
X82990369Y-107099171D02*
X83085607Y-107051552D01*
X83085607Y-107051552D02*
X83276083Y-107051552D01*
X83276083Y-107051552D02*
X83371321Y-107099171D01*
X82942750Y-107670600D02*
X83037988Y-107718219D01*
X83037988Y-107718219D02*
X83276083Y-107718219D01*
X83276083Y-107718219D02*
X83371321Y-107670600D01*
X83371321Y-107670600D02*
X83418940Y-107575361D01*
X83418940Y-107575361D02*
X83418940Y-107480123D01*
X83418940Y-107480123D02*
X83371321Y-107384885D01*
X83371321Y-107384885D02*
X83276083Y-107337266D01*
X83276083Y-107337266D02*
X83037988Y-107337266D01*
X83037988Y-107337266D02*
X82942750Y-107289647D01*
X82561797Y-107051552D02*
X82323702Y-107718219D01*
X82085607Y-107051552D02*
X82323702Y-107718219D01*
X82323702Y-107718219D02*
X82418940Y-107956314D01*
X82418940Y-107956314D02*
X82466559Y-108003933D01*
X82466559Y-108003933D02*
X82561797Y-108051552D01*
X81561797Y-107718219D02*
X81657035Y-107670600D01*
X81657035Y-107670600D02*
X81704654Y-107575361D01*
X81704654Y-107575361D02*
X81704654Y-106718219D01*
X81037987Y-107718219D02*
X81133225Y-107670600D01*
X81133225Y-107670600D02*
X81180844Y-107622980D01*
X81180844Y-107622980D02*
X81228463Y-107527742D01*
X81228463Y-107527742D02*
X81228463Y-107242028D01*
X81228463Y-107242028D02*
X81180844Y-107146790D01*
X81180844Y-107146790D02*
X81133225Y-107099171D01*
X81133225Y-107099171D02*
X81037987Y-107051552D01*
X81037987Y-107051552D02*
X80895130Y-107051552D01*
X80895130Y-107051552D02*
X80799892Y-107099171D01*
X80799892Y-107099171D02*
X80752273Y-107146790D01*
X80752273Y-107146790D02*
X80704654Y-107242028D01*
X80704654Y-107242028D02*
X80704654Y-107527742D01*
X80704654Y-107527742D02*
X80752273Y-107622980D01*
X80752273Y-107622980D02*
X80799892Y-107670600D01*
X80799892Y-107670600D02*
X80895130Y-107718219D01*
X80895130Y-107718219D02*
X81037987Y-107718219D01*
X80276082Y-107718219D02*
X80276082Y-107051552D01*
X80276082Y-107242028D02*
X80228463Y-107146790D01*
X80228463Y-107146790D02*
X80180844Y-107099171D01*
X80180844Y-107099171D02*
X80085606Y-107051552D01*
X80085606Y-107051552D02*
X79990368Y-107051552D01*
X79609415Y-107670600D02*
X79609415Y-107718219D01*
X79609415Y-107718219D02*
X79657034Y-107813457D01*
X79657034Y-107813457D02*
X79704653Y-107861076D01*
X77847511Y-107622980D02*
X77895130Y-107670600D01*
X77895130Y-107670600D02*
X78037987Y-107718219D01*
X78037987Y-107718219D02*
X78133225Y-107718219D01*
X78133225Y-107718219D02*
X78276082Y-107670600D01*
X78276082Y-107670600D02*
X78371320Y-107575361D01*
X78371320Y-107575361D02*
X78418939Y-107480123D01*
X78418939Y-107480123D02*
X78466558Y-107289647D01*
X78466558Y-107289647D02*
X78466558Y-107146790D01*
X78466558Y-107146790D02*
X78418939Y-106956314D01*
X78418939Y-106956314D02*
X78371320Y-106861076D01*
X78371320Y-106861076D02*
X78276082Y-106765838D01*
X78276082Y-106765838D02*
X78133225Y-106718219D01*
X78133225Y-106718219D02*
X78037987Y-106718219D01*
X78037987Y-106718219D02*
X77895130Y-106765838D01*
X77895130Y-106765838D02*
X77847511Y-106813457D01*
X77418939Y-107718219D02*
X77418939Y-106718219D01*
X76990368Y-107718219D02*
X76990368Y-107194409D01*
X76990368Y-107194409D02*
X77037987Y-107099171D01*
X77037987Y-107099171D02*
X77133225Y-107051552D01*
X77133225Y-107051552D02*
X77276082Y-107051552D01*
X77276082Y-107051552D02*
X77371320Y-107099171D01*
X77371320Y-107099171D02*
X77418939Y-107146790D01*
X76514177Y-107718219D02*
X76514177Y-107051552D01*
X76514177Y-107242028D02*
X76466558Y-107146790D01*
X76466558Y-107146790D02*
X76418939Y-107099171D01*
X76418939Y-107099171D02*
X76323701Y-107051552D01*
X76323701Y-107051552D02*
X76228463Y-107051552D01*
X75895129Y-107718219D02*
X75895129Y-107051552D01*
X75895129Y-106718219D02*
X75942748Y-106765838D01*
X75942748Y-106765838D02*
X75895129Y-106813457D01*
X75895129Y-106813457D02*
X75847510Y-106765838D01*
X75847510Y-106765838D02*
X75895129Y-106718219D01*
X75895129Y-106718219D02*
X75895129Y-106813457D01*
X75466558Y-107670600D02*
X75371320Y-107718219D01*
X75371320Y-107718219D02*
X75180844Y-107718219D01*
X75180844Y-107718219D02*
X75085606Y-107670600D01*
X75085606Y-107670600D02*
X75037987Y-107575361D01*
X75037987Y-107575361D02*
X75037987Y-107527742D01*
X75037987Y-107527742D02*
X75085606Y-107432504D01*
X75085606Y-107432504D02*
X75180844Y-107384885D01*
X75180844Y-107384885D02*
X75323701Y-107384885D01*
X75323701Y-107384885D02*
X75418939Y-107337266D01*
X75418939Y-107337266D02*
X75466558Y-107242028D01*
X75466558Y-107242028D02*
X75466558Y-107194409D01*
X75466558Y-107194409D02*
X75418939Y-107099171D01*
X75418939Y-107099171D02*
X75323701Y-107051552D01*
X75323701Y-107051552D02*
X75180844Y-107051552D01*
X75180844Y-107051552D02*
X75085606Y-107099171D01*
X74657034Y-107670600D02*
X74561796Y-107718219D01*
X74561796Y-107718219D02*
X74371320Y-107718219D01*
X74371320Y-107718219D02*
X74276082Y-107670600D01*
X74276082Y-107670600D02*
X74228463Y-107575361D01*
X74228463Y-107575361D02*
X74228463Y-107527742D01*
X74228463Y-107527742D02*
X74276082Y-107432504D01*
X74276082Y-107432504D02*
X74371320Y-107384885D01*
X74371320Y-107384885D02*
X74514177Y-107384885D01*
X74514177Y-107384885D02*
X74609415Y-107337266D01*
X74609415Y-107337266D02*
X74657034Y-107242028D01*
X74657034Y-107242028D02*
X74657034Y-107194409D01*
X74657034Y-107194409D02*
X74609415Y-107099171D01*
X74609415Y-107099171D02*
X74514177Y-107051552D01*
X74514177Y-107051552D02*
X74371320Y-107051552D01*
X74371320Y-107051552D02*
X74276082Y-107099171D01*
X73895129Y-107051552D02*
X73657034Y-107718219D01*
X73418939Y-107051552D02*
X73657034Y-107718219D01*
X73657034Y-107718219D02*
X73752272Y-107956314D01*
X73752272Y-107956314D02*
X73799891Y-108003933D01*
X73799891Y-108003933D02*
X73895129Y-108051552D01*
X71847510Y-107718219D02*
X71847510Y-107194409D01*
X71847510Y-107194409D02*
X71895129Y-107099171D01*
X71895129Y-107099171D02*
X71990367Y-107051552D01*
X71990367Y-107051552D02*
X72180843Y-107051552D01*
X72180843Y-107051552D02*
X72276081Y-107099171D01*
X71847510Y-107670600D02*
X71942748Y-107718219D01*
X71942748Y-107718219D02*
X72180843Y-107718219D01*
X72180843Y-107718219D02*
X72276081Y-107670600D01*
X72276081Y-107670600D02*
X72323700Y-107575361D01*
X72323700Y-107575361D02*
X72323700Y-107480123D01*
X72323700Y-107480123D02*
X72276081Y-107384885D01*
X72276081Y-107384885D02*
X72180843Y-107337266D01*
X72180843Y-107337266D02*
X71942748Y-107337266D01*
X71942748Y-107337266D02*
X71847510Y-107289647D01*
X71371319Y-107051552D02*
X71371319Y-107718219D01*
X71371319Y-107146790D02*
X71323700Y-107099171D01*
X71323700Y-107099171D02*
X71228462Y-107051552D01*
X71228462Y-107051552D02*
X71085605Y-107051552D01*
X71085605Y-107051552D02*
X70990367Y-107099171D01*
X70990367Y-107099171D02*
X70942748Y-107194409D01*
X70942748Y-107194409D02*
X70942748Y-107718219D01*
X70037986Y-107718219D02*
X70037986Y-106718219D01*
X70037986Y-107670600D02*
X70133224Y-107718219D01*
X70133224Y-107718219D02*
X70323700Y-107718219D01*
X70323700Y-107718219D02*
X70418938Y-107670600D01*
X70418938Y-107670600D02*
X70466557Y-107622980D01*
X70466557Y-107622980D02*
X70514176Y-107527742D01*
X70514176Y-107527742D02*
X70514176Y-107242028D01*
X70514176Y-107242028D02*
X70466557Y-107146790D01*
X70466557Y-107146790D02*
X70418938Y-107099171D01*
X70418938Y-107099171D02*
X70323700Y-107051552D01*
X70323700Y-107051552D02*
X70133224Y-107051552D01*
X70133224Y-107051552D02*
X70037986Y-107099171D01*
X68942747Y-106718219D02*
X68371319Y-106718219D01*
X68657033Y-107718219D02*
X68657033Y-106718219D01*
X68037985Y-107718219D02*
X68037985Y-106718219D01*
X67609414Y-107718219D02*
X67609414Y-107194409D01*
X67609414Y-107194409D02*
X67657033Y-107099171D01*
X67657033Y-107099171D02*
X67752271Y-107051552D01*
X67752271Y-107051552D02*
X67895128Y-107051552D01*
X67895128Y-107051552D02*
X67990366Y-107099171D01*
X67990366Y-107099171D02*
X68037985Y-107146790D01*
X66752271Y-107670600D02*
X66847509Y-107718219D01*
X66847509Y-107718219D02*
X67037985Y-107718219D01*
X67037985Y-107718219D02*
X67133223Y-107670600D01*
X67133223Y-107670600D02*
X67180842Y-107575361D01*
X67180842Y-107575361D02*
X67180842Y-107194409D01*
X67180842Y-107194409D02*
X67133223Y-107099171D01*
X67133223Y-107099171D02*
X67037985Y-107051552D01*
X67037985Y-107051552D02*
X66847509Y-107051552D01*
X66847509Y-107051552D02*
X66752271Y-107099171D01*
X66752271Y-107099171D02*
X66704652Y-107194409D01*
X66704652Y-107194409D02*
X66704652Y-107289647D01*
X66704652Y-107289647D02*
X67180842Y-107384885D01*
X65180842Y-107194409D02*
X65037985Y-107242028D01*
X65037985Y-107242028D02*
X64990366Y-107289647D01*
X64990366Y-107289647D02*
X64942747Y-107384885D01*
X64942747Y-107384885D02*
X64942747Y-107527742D01*
X64942747Y-107527742D02*
X64990366Y-107622980D01*
X64990366Y-107622980D02*
X65037985Y-107670600D01*
X65037985Y-107670600D02*
X65133223Y-107718219D01*
X65133223Y-107718219D02*
X65514175Y-107718219D01*
X65514175Y-107718219D02*
X65514175Y-106718219D01*
X65514175Y-106718219D02*
X65180842Y-106718219D01*
X65180842Y-106718219D02*
X65085604Y-106765838D01*
X65085604Y-106765838D02*
X65037985Y-106813457D01*
X65037985Y-106813457D02*
X64990366Y-106908695D01*
X64990366Y-106908695D02*
X64990366Y-107003933D01*
X64990366Y-107003933D02*
X65037985Y-107099171D01*
X65037985Y-107099171D02*
X65085604Y-107146790D01*
X65085604Y-107146790D02*
X65180842Y-107194409D01*
X65180842Y-107194409D02*
X65514175Y-107194409D01*
X64371318Y-107718219D02*
X64466556Y-107670600D01*
X64466556Y-107670600D02*
X64514175Y-107622980D01*
X64514175Y-107622980D02*
X64561794Y-107527742D01*
X64561794Y-107527742D02*
X64561794Y-107242028D01*
X64561794Y-107242028D02*
X64514175Y-107146790D01*
X64514175Y-107146790D02*
X64466556Y-107099171D01*
X64466556Y-107099171D02*
X64371318Y-107051552D01*
X64371318Y-107051552D02*
X64228461Y-107051552D01*
X64228461Y-107051552D02*
X64133223Y-107099171D01*
X64133223Y-107099171D02*
X64085604Y-107146790D01*
X64085604Y-107146790D02*
X64037985Y-107242028D01*
X64037985Y-107242028D02*
X64037985Y-107527742D01*
X64037985Y-107527742D02*
X64085604Y-107622980D01*
X64085604Y-107622980D02*
X64133223Y-107670600D01*
X64133223Y-107670600D02*
X64228461Y-107718219D01*
X64228461Y-107718219D02*
X64371318Y-107718219D01*
X63180842Y-107718219D02*
X63180842Y-107194409D01*
X63180842Y-107194409D02*
X63228461Y-107099171D01*
X63228461Y-107099171D02*
X63323699Y-107051552D01*
X63323699Y-107051552D02*
X63514175Y-107051552D01*
X63514175Y-107051552D02*
X63609413Y-107099171D01*
X63180842Y-107670600D02*
X63276080Y-107718219D01*
X63276080Y-107718219D02*
X63514175Y-107718219D01*
X63514175Y-107718219D02*
X63609413Y-107670600D01*
X63609413Y-107670600D02*
X63657032Y-107575361D01*
X63657032Y-107575361D02*
X63657032Y-107480123D01*
X63657032Y-107480123D02*
X63609413Y-107384885D01*
X63609413Y-107384885D02*
X63514175Y-107337266D01*
X63514175Y-107337266D02*
X63276080Y-107337266D01*
X63276080Y-107337266D02*
X63180842Y-107289647D01*
X62704651Y-107718219D02*
X62704651Y-107051552D01*
X62704651Y-107242028D02*
X62657032Y-107146790D01*
X62657032Y-107146790D02*
X62609413Y-107099171D01*
X62609413Y-107099171D02*
X62514175Y-107051552D01*
X62514175Y-107051552D02*
X62418937Y-107051552D01*
X61657032Y-107718219D02*
X61657032Y-106718219D01*
X61657032Y-107670600D02*
X61752270Y-107718219D01*
X61752270Y-107718219D02*
X61942746Y-107718219D01*
X61942746Y-107718219D02*
X62037984Y-107670600D01*
X62037984Y-107670600D02*
X62085603Y-107622980D01*
X62085603Y-107622980D02*
X62133222Y-107527742D01*
X62133222Y-107527742D02*
X62133222Y-107242028D01*
X62133222Y-107242028D02*
X62085603Y-107146790D01*
X62085603Y-107146790D02*
X62037984Y-107099171D01*
X62037984Y-107099171D02*
X61942746Y-107051552D01*
X61942746Y-107051552D02*
X61752270Y-107051552D01*
X61752270Y-107051552D02*
X61657032Y-107099171D01*
X60085603Y-107194409D02*
X60418936Y-107194409D01*
X60418936Y-107718219D02*
X60418936Y-106718219D01*
X60418936Y-106718219D02*
X59942746Y-106718219D01*
X59418936Y-107718219D02*
X59514174Y-107670600D01*
X59514174Y-107670600D02*
X59561793Y-107622980D01*
X59561793Y-107622980D02*
X59609412Y-107527742D01*
X59609412Y-107527742D02*
X59609412Y-107242028D01*
X59609412Y-107242028D02*
X59561793Y-107146790D01*
X59561793Y-107146790D02*
X59514174Y-107099171D01*
X59514174Y-107099171D02*
X59418936Y-107051552D01*
X59418936Y-107051552D02*
X59276079Y-107051552D01*
X59276079Y-107051552D02*
X59180841Y-107099171D01*
X59180841Y-107099171D02*
X59133222Y-107146790D01*
X59133222Y-107146790D02*
X59085603Y-107242028D01*
X59085603Y-107242028D02*
X59085603Y-107527742D01*
X59085603Y-107527742D02*
X59133222Y-107622980D01*
X59133222Y-107622980D02*
X59180841Y-107670600D01*
X59180841Y-107670600D02*
X59276079Y-107718219D01*
X59276079Y-107718219D02*
X59418936Y-107718219D01*
X58514174Y-107718219D02*
X58609412Y-107670600D01*
X58609412Y-107670600D02*
X58657031Y-107575361D01*
X58657031Y-107575361D02*
X58657031Y-106718219D01*
X58133221Y-107718219D02*
X58133221Y-106718219D01*
X58037983Y-107337266D02*
X57752269Y-107718219D01*
X57752269Y-107051552D02*
X58133221Y-107432504D01*
X56704649Y-106718219D02*
X56133221Y-106718219D01*
X56418935Y-107718219D02*
X56418935Y-106718219D01*
X55418935Y-107670600D02*
X55514173Y-107718219D01*
X55514173Y-107718219D02*
X55704649Y-107718219D01*
X55704649Y-107718219D02*
X55799887Y-107670600D01*
X55799887Y-107670600D02*
X55847506Y-107575361D01*
X55847506Y-107575361D02*
X55847506Y-107194409D01*
X55847506Y-107194409D02*
X55799887Y-107099171D01*
X55799887Y-107099171D02*
X55704649Y-107051552D01*
X55704649Y-107051552D02*
X55514173Y-107051552D01*
X55514173Y-107051552D02*
X55418935Y-107099171D01*
X55418935Y-107099171D02*
X55371316Y-107194409D01*
X55371316Y-107194409D02*
X55371316Y-107289647D01*
X55371316Y-107289647D02*
X55847506Y-107384885D01*
X54514173Y-107718219D02*
X54514173Y-107194409D01*
X54514173Y-107194409D02*
X54561792Y-107099171D01*
X54561792Y-107099171D02*
X54657030Y-107051552D01*
X54657030Y-107051552D02*
X54847506Y-107051552D01*
X54847506Y-107051552D02*
X54942744Y-107099171D01*
X54514173Y-107670600D02*
X54609411Y-107718219D01*
X54609411Y-107718219D02*
X54847506Y-107718219D01*
X54847506Y-107718219D02*
X54942744Y-107670600D01*
X54942744Y-107670600D02*
X54990363Y-107575361D01*
X54990363Y-107575361D02*
X54990363Y-107480123D01*
X54990363Y-107480123D02*
X54942744Y-107384885D01*
X54942744Y-107384885D02*
X54847506Y-107337266D01*
X54847506Y-107337266D02*
X54609411Y-107337266D01*
X54609411Y-107337266D02*
X54514173Y-107289647D01*
X54037982Y-107718219D02*
X54037982Y-107051552D01*
X54037982Y-107146790D02*
X53990363Y-107099171D01*
X53990363Y-107099171D02*
X53895125Y-107051552D01*
X53895125Y-107051552D02*
X53752268Y-107051552D01*
X53752268Y-107051552D02*
X53657030Y-107099171D01*
X53657030Y-107099171D02*
X53609411Y-107194409D01*
X53609411Y-107194409D02*
X53609411Y-107718219D01*
X53609411Y-107194409D02*
X53561792Y-107099171D01*
X53561792Y-107099171D02*
X53466554Y-107051552D01*
X53466554Y-107051552D02*
X53323697Y-107051552D01*
X53323697Y-107051552D02*
X53228458Y-107099171D01*
X53228458Y-107099171D02*
X53180839Y-107194409D01*
X53180839Y-107194409D02*
X53180839Y-107718219D01*
X52704649Y-107622980D02*
X52657030Y-107670600D01*
X52657030Y-107670600D02*
X52704649Y-107718219D01*
X52704649Y-107718219D02*
X52752268Y-107670600D01*
X52752268Y-107670600D02*
X52704649Y-107622980D01*
X52704649Y-107622980D02*
X52704649Y-107718219D01*
%TO.C,G2*%
G36*
X77202069Y-87132533D02*
G01*
X77202069Y-87238721D01*
X77095881Y-87238721D01*
X76989694Y-87238721D01*
X76989694Y-87132533D01*
X76989694Y-87026346D01*
X77095881Y-87026346D01*
X77202069Y-87026346D01*
X77202069Y-87132533D01*
G37*
G36*
X76539460Y-88457751D02*
G01*
X76539460Y-88563938D01*
X76433273Y-88563938D01*
X76327085Y-88563938D01*
X76327085Y-88457751D01*
X76327085Y-88351564D01*
X76433273Y-88351564D01*
X76539460Y-88351564D01*
X76539460Y-88457751D01*
G37*
G36*
X76760329Y-86469925D02*
G01*
X76760329Y-86576112D01*
X76543707Y-86576112D01*
X76327085Y-86576112D01*
X76327085Y-86469925D01*
X76327085Y-86363737D01*
X76543707Y-86363737D01*
X76760329Y-86363737D01*
X76760329Y-86469925D01*
G37*
G36*
X76318590Y-89120360D02*
G01*
X76318590Y-89226547D01*
X76212403Y-89226547D01*
X76106216Y-89226547D01*
X76106216Y-89120360D01*
X76106216Y-89014172D01*
X76212403Y-89014172D01*
X76318590Y-89014172D01*
X76318590Y-89120360D01*
G37*
G36*
X76097721Y-87574273D02*
G01*
X76097721Y-87680460D01*
X75991533Y-87680460D01*
X75885346Y-87680460D01*
X75885346Y-87574273D01*
X75885346Y-87468085D01*
X75991533Y-87468085D01*
X76097721Y-87468085D01*
X76097721Y-87574273D01*
G37*
G36*
X76097721Y-88457751D02*
G01*
X76097721Y-88563938D01*
X75881099Y-88563938D01*
X75664477Y-88563938D01*
X75664477Y-88457751D01*
X75664477Y-88351564D01*
X75881099Y-88351564D01*
X76097721Y-88351564D01*
X76097721Y-88457751D01*
G37*
G36*
X75435112Y-87353403D02*
G01*
X75435112Y-87459590D01*
X75328925Y-87459590D01*
X75222737Y-87459590D01*
X75222737Y-87353403D01*
X75222737Y-87247216D01*
X75328925Y-87247216D01*
X75435112Y-87247216D01*
X75435112Y-87353403D01*
G37*
G36*
X74993373Y-90003838D02*
G01*
X74993373Y-90110025D01*
X74887186Y-90110025D01*
X74780998Y-90110025D01*
X74780998Y-90003838D01*
X74780998Y-89897650D01*
X74887186Y-89897650D01*
X74993373Y-89897650D01*
X74993373Y-90003838D01*
G37*
G36*
X73889025Y-84923838D02*
G01*
X73889025Y-85030025D01*
X73782838Y-85030025D01*
X73676651Y-85030025D01*
X73676651Y-84923838D01*
X73676651Y-84817650D01*
X73782838Y-84817650D01*
X73889025Y-84817650D01*
X73889025Y-84923838D01*
G37*
G36*
X73668156Y-90445577D02*
G01*
X73668156Y-90551764D01*
X73561968Y-90551764D01*
X73455781Y-90551764D01*
X73455781Y-90445577D01*
X73455781Y-90339390D01*
X73561968Y-90339390D01*
X73668156Y-90339390D01*
X73668156Y-90445577D01*
G37*
G36*
X74330764Y-89562099D02*
G01*
X74330764Y-89668286D01*
X73893273Y-89668286D01*
X73455781Y-89668286D01*
X73455781Y-89562099D01*
X73455781Y-89455911D01*
X73893273Y-89455911D01*
X74330764Y-89455911D01*
X74330764Y-89562099D01*
G37*
G36*
X73668156Y-86469925D02*
G01*
X73668156Y-86576112D01*
X73561968Y-86576112D01*
X73455781Y-86576112D01*
X73455781Y-86469925D01*
X73455781Y-86363737D01*
X73561968Y-86363737D01*
X73668156Y-86363737D01*
X73668156Y-86469925D01*
G37*
G36*
X73668156Y-84702968D02*
G01*
X73668156Y-84809156D01*
X73561968Y-84809156D01*
X73455781Y-84809156D01*
X73455781Y-84702968D01*
X73455781Y-84596781D01*
X73561968Y-84596781D01*
X73668156Y-84596781D01*
X73668156Y-84702968D01*
G37*
G36*
X73447286Y-84923838D02*
G01*
X73447286Y-85030025D01*
X73341099Y-85030025D01*
X73234911Y-85030025D01*
X73234911Y-84923838D01*
X73234911Y-84817650D01*
X73341099Y-84817650D01*
X73447286Y-84817650D01*
X73447286Y-84923838D01*
G37*
G36*
X73447286Y-84482099D02*
G01*
X73447286Y-84588286D01*
X73341099Y-84588286D01*
X73234911Y-84588286D01*
X73234911Y-84482099D01*
X73234911Y-84375911D01*
X73341099Y-84375911D01*
X73447286Y-84375911D01*
X73447286Y-84482099D01*
G37*
G36*
X73226416Y-90887316D02*
G01*
X73226416Y-90993503D01*
X73120229Y-90993503D01*
X73014042Y-90993503D01*
X73014042Y-90887316D01*
X73014042Y-90781129D01*
X73120229Y-90781129D01*
X73226416Y-90781129D01*
X73226416Y-90887316D01*
G37*
G36*
X73226416Y-85586446D02*
G01*
X73226416Y-85692634D01*
X73120229Y-85692634D01*
X73014042Y-85692634D01*
X73014042Y-85586446D01*
X73014042Y-85480259D01*
X73120229Y-85480259D01*
X73226416Y-85480259D01*
X73226416Y-85586446D01*
G37*
G36*
X73226416Y-85144707D02*
G01*
X73226416Y-85250895D01*
X73120229Y-85250895D01*
X73014042Y-85250895D01*
X73014042Y-85144707D01*
X73014042Y-85038520D01*
X73120229Y-85038520D01*
X73226416Y-85038520D01*
X73226416Y-85144707D01*
G37*
G36*
X73005547Y-89562099D02*
G01*
X73005547Y-89668286D01*
X72899360Y-89668286D01*
X72793172Y-89668286D01*
X72793172Y-89562099D01*
X72793172Y-89455911D01*
X72899360Y-89455911D01*
X73005547Y-89455911D01*
X73005547Y-89562099D01*
G37*
G36*
X73005547Y-86359490D02*
G01*
X73005547Y-86576112D01*
X72899360Y-86576112D01*
X72793172Y-86576112D01*
X72793172Y-86359490D01*
X72793172Y-86142868D01*
X72899360Y-86142868D01*
X73005547Y-86142868D01*
X73005547Y-86359490D01*
G37*
G36*
X73005547Y-85807316D02*
G01*
X73005547Y-85913503D01*
X72899360Y-85913503D01*
X72793172Y-85913503D01*
X72793172Y-85807316D01*
X72793172Y-85701129D01*
X72899360Y-85701129D01*
X73005547Y-85701129D01*
X73005547Y-85807316D01*
G37*
G36*
X72784677Y-85586446D02*
G01*
X72784677Y-85692634D01*
X72678490Y-85692634D01*
X72572303Y-85692634D01*
X72572303Y-85586446D01*
X72572303Y-85480259D01*
X72678490Y-85480259D01*
X72784677Y-85480259D01*
X72784677Y-85586446D01*
G37*
G36*
X72563808Y-84702968D02*
G01*
X72563808Y-84809156D01*
X72457620Y-84809156D01*
X72351433Y-84809156D01*
X72351433Y-84702968D01*
X72351433Y-84596781D01*
X72457620Y-84596781D01*
X72563808Y-84596781D01*
X72563808Y-84702968D01*
G37*
G36*
X72342938Y-90445577D02*
G01*
X72342938Y-90551764D01*
X72236751Y-90551764D01*
X72130564Y-90551764D01*
X72130564Y-90445577D01*
X72130564Y-90339390D01*
X72236751Y-90339390D01*
X72342938Y-90339390D01*
X72342938Y-90445577D01*
G37*
G36*
X72342938Y-87353403D02*
G01*
X72342938Y-87459590D01*
X72236751Y-87459590D01*
X72130564Y-87459590D01*
X72130564Y-87353403D01*
X72130564Y-87247216D01*
X72236751Y-87247216D01*
X72342938Y-87247216D01*
X72342938Y-87353403D01*
G37*
G36*
X72563808Y-86911664D02*
G01*
X72563808Y-87017851D01*
X72347186Y-87017851D01*
X72130564Y-87017851D01*
X72130564Y-86911664D01*
X72130564Y-86805477D01*
X72347186Y-86805477D01*
X72563808Y-86805477D01*
X72563808Y-86911664D01*
G37*
G36*
X72342938Y-85586446D02*
G01*
X72342938Y-85692634D01*
X72236751Y-85692634D01*
X72130564Y-85692634D01*
X72130564Y-85586446D01*
X72130564Y-85480259D01*
X72236751Y-85480259D01*
X72342938Y-85480259D01*
X72342938Y-85586446D01*
G37*
G36*
X72342938Y-84482099D02*
G01*
X72342938Y-84588286D01*
X72236751Y-84588286D01*
X72130564Y-84588286D01*
X72130564Y-84482099D01*
X72130564Y-84375911D01*
X72236751Y-84375911D01*
X72342938Y-84375911D01*
X72342938Y-84482099D01*
G37*
G36*
X72122069Y-86249055D02*
G01*
X72122069Y-86355242D01*
X72015881Y-86355242D01*
X71909694Y-86355242D01*
X71909694Y-86249055D01*
X71909694Y-86142868D01*
X72015881Y-86142868D01*
X72122069Y-86142868D01*
X72122069Y-86249055D01*
G37*
G36*
X71901199Y-88457751D02*
G01*
X71901199Y-88563938D01*
X71795012Y-88563938D01*
X71688824Y-88563938D01*
X71688824Y-88457751D01*
X71688824Y-88351564D01*
X71795012Y-88351564D01*
X71901199Y-88351564D01*
X71901199Y-88457751D01*
G37*
G36*
X71901199Y-88016012D02*
G01*
X71901199Y-88122199D01*
X71795012Y-88122199D01*
X71688824Y-88122199D01*
X71688824Y-88016012D01*
X71688824Y-87909824D01*
X71795012Y-87909824D01*
X71901199Y-87909824D01*
X71901199Y-88016012D01*
G37*
G36*
X71680329Y-87795142D02*
G01*
X71680329Y-87901329D01*
X71574142Y-87901329D01*
X71467955Y-87901329D01*
X71467955Y-87795142D01*
X71467955Y-87688955D01*
X71574142Y-87688955D01*
X71680329Y-87688955D01*
X71680329Y-87795142D01*
G37*
G36*
X71459460Y-87353403D02*
G01*
X71459460Y-87459590D01*
X71353273Y-87459590D01*
X71247085Y-87459590D01*
X71247085Y-87353403D01*
X71247085Y-87247216D01*
X71353273Y-87247216D01*
X71459460Y-87247216D01*
X71459460Y-87353403D01*
G37*
G36*
X71238590Y-88457751D02*
G01*
X71238590Y-88563938D01*
X71132403Y-88563938D01*
X71026216Y-88563938D01*
X71026216Y-88457751D01*
X71026216Y-88351564D01*
X71132403Y-88351564D01*
X71238590Y-88351564D01*
X71238590Y-88457751D01*
G37*
G36*
X71017721Y-90445577D02*
G01*
X71017721Y-90551764D01*
X70911533Y-90551764D01*
X70805346Y-90551764D01*
X70805346Y-90445577D01*
X70805346Y-90339390D01*
X70911533Y-90339390D01*
X71017721Y-90339390D01*
X71017721Y-90445577D01*
G37*
G36*
X70796851Y-90666446D02*
G01*
X70796851Y-90772634D01*
X70690664Y-90772634D01*
X70584477Y-90772634D01*
X70584477Y-90666446D01*
X70584477Y-90560259D01*
X70690664Y-90560259D01*
X70796851Y-90560259D01*
X70796851Y-90666446D01*
G37*
G36*
X70575982Y-88457751D02*
G01*
X70575982Y-88563938D01*
X70469794Y-88563938D01*
X70363607Y-88563938D01*
X70363607Y-88457751D01*
X70363607Y-88351564D01*
X70469794Y-88351564D01*
X70575982Y-88351564D01*
X70575982Y-88457751D01*
G37*
G36*
X70796851Y-86249055D02*
G01*
X70796851Y-86355242D01*
X70580229Y-86355242D01*
X70363607Y-86355242D01*
X70363607Y-86249055D01*
X70363607Y-86142868D01*
X70580229Y-86142868D01*
X70796851Y-86142868D01*
X70796851Y-86249055D01*
G37*
G36*
X76760329Y-87022099D02*
G01*
X76760329Y-87238721D01*
X76654142Y-87238721D01*
X76547955Y-87238721D01*
X76547955Y-87128286D01*
X76547955Y-87017851D01*
X76437520Y-87017851D01*
X76327085Y-87017851D01*
X76327085Y-86911664D01*
X76327085Y-86805477D01*
X76543707Y-86805477D01*
X76760329Y-86805477D01*
X76760329Y-87022099D01*
G37*
G36*
X75435112Y-90556012D02*
G01*
X75435112Y-90772634D01*
X75328925Y-90772634D01*
X75222737Y-90772634D01*
X75222737Y-90662199D01*
X75222737Y-90551764D01*
X75112303Y-90551764D01*
X75001868Y-90551764D01*
X75001868Y-90445577D01*
X75001868Y-90339390D01*
X75218490Y-90339390D01*
X75435112Y-90339390D01*
X75435112Y-90556012D01*
G37*
G36*
X74772503Y-90335142D02*
G01*
X74772503Y-90551764D01*
X74555881Y-90551764D01*
X74339259Y-90551764D01*
X74339259Y-90445577D01*
X74339259Y-90339390D01*
X74449694Y-90339390D01*
X74560129Y-90339390D01*
X74560129Y-90228955D01*
X74560129Y-90118520D01*
X74666316Y-90118520D01*
X74772503Y-90118520D01*
X74772503Y-90335142D01*
G37*
G36*
X73447286Y-86138620D02*
G01*
X73447286Y-86355242D01*
X73341099Y-86355242D01*
X73234911Y-86355242D01*
X73234911Y-86244808D01*
X73234911Y-86134373D01*
X73124477Y-86134373D01*
X73014042Y-86134373D01*
X73014042Y-86028186D01*
X73014042Y-85921998D01*
X73230664Y-85921998D01*
X73447286Y-85921998D01*
X73447286Y-86138620D01*
G37*
G36*
X74551634Y-90003838D02*
G01*
X74551634Y-90110025D01*
X74330764Y-90110025D01*
X74109895Y-90110025D01*
X74109895Y-90220460D01*
X74109895Y-90330895D01*
X73893273Y-90330895D01*
X73676651Y-90330895D01*
X73676651Y-90224707D01*
X73676651Y-90118520D01*
X73787085Y-90118520D01*
X73897520Y-90118520D01*
X73897520Y-90008085D01*
X73897520Y-89897650D01*
X74224577Y-89897650D01*
X74551634Y-89897650D01*
X74551634Y-90003838D01*
G37*
G36*
X70796851Y-89782968D02*
G01*
X70796851Y-90110025D01*
X70690664Y-90110025D01*
X70584477Y-90110025D01*
X70584477Y-89999590D01*
X70584477Y-89889156D01*
X70474042Y-89889156D01*
X70363607Y-89889156D01*
X70363607Y-89782968D01*
X70363607Y-89676781D01*
X70474042Y-89676781D01*
X70584477Y-89676781D01*
X70584477Y-89566346D01*
X70584477Y-89455911D01*
X70690664Y-89455911D01*
X70796851Y-89455911D01*
X70796851Y-89782968D01*
G37*
G36*
X77210564Y-90662199D02*
G01*
X77210564Y-91214373D01*
X76658390Y-91214373D01*
X76106216Y-91214373D01*
X76106216Y-90993503D01*
X76327085Y-90993503D01*
X76658390Y-90993503D01*
X76989694Y-90993503D01*
X76989694Y-90662199D01*
X76989694Y-90330895D01*
X76658390Y-90330895D01*
X76327085Y-90330895D01*
X76327085Y-90662199D01*
X76327085Y-90993503D01*
X76106216Y-90993503D01*
X76106216Y-90662199D01*
X76106216Y-90110025D01*
X76658390Y-90110025D01*
X77210564Y-90110025D01*
X77210564Y-90330895D01*
X77210564Y-90662199D01*
G37*
G36*
X77210564Y-84919590D02*
G01*
X77210564Y-85471764D01*
X76658390Y-85471764D01*
X76106216Y-85471764D01*
X76106216Y-85250895D01*
X76327085Y-85250895D01*
X76658390Y-85250895D01*
X76989694Y-85250895D01*
X76989694Y-84919590D01*
X76989694Y-84588286D01*
X76658390Y-84588286D01*
X76327085Y-84588286D01*
X76327085Y-84919590D01*
X76327085Y-85250895D01*
X76106216Y-85250895D01*
X76106216Y-84919590D01*
X76106216Y-84367416D01*
X76658390Y-84367416D01*
X77210564Y-84367416D01*
X77210564Y-84588286D01*
X77210564Y-84919590D01*
G37*
G36*
X71901199Y-90003838D02*
G01*
X71901199Y-90330895D01*
X71574142Y-90330895D01*
X71247085Y-90330895D01*
X71247085Y-90118520D01*
X71459460Y-90118520D01*
X71574142Y-90118520D01*
X71688824Y-90118520D01*
X71688824Y-90003838D01*
X71688824Y-89889156D01*
X71574142Y-89889156D01*
X71459460Y-89889156D01*
X71459460Y-90003838D01*
X71459460Y-90118520D01*
X71247085Y-90118520D01*
X71247085Y-90003838D01*
X71247085Y-89676781D01*
X71574142Y-89676781D01*
X71901199Y-89676781D01*
X71901199Y-89889156D01*
X71901199Y-90003838D01*
G37*
G36*
X71467955Y-84919590D02*
G01*
X71467955Y-85471764D01*
X70915781Y-85471764D01*
X70363607Y-85471764D01*
X70363607Y-85250895D01*
X70584477Y-85250895D01*
X70915781Y-85250895D01*
X71247085Y-85250895D01*
X71247085Y-84919590D01*
X71247085Y-84588286D01*
X70915781Y-84588286D01*
X70584477Y-84588286D01*
X70584477Y-84919590D01*
X70584477Y-85250895D01*
X70363607Y-85250895D01*
X70363607Y-84919590D01*
X70363607Y-84367416D01*
X70915781Y-84367416D01*
X71467955Y-84367416D01*
X71467955Y-84588286D01*
X71467955Y-84919590D01*
G37*
G36*
X72563808Y-85811564D02*
G01*
X72563808Y-85921998D01*
X72674243Y-85921998D01*
X72784677Y-85921998D01*
X72784677Y-86028186D01*
X72784677Y-86134373D01*
X72674243Y-86134373D01*
X72563808Y-86134373D01*
X72563808Y-86355242D01*
X72563808Y-86576112D01*
X72347186Y-86576112D01*
X72130564Y-86576112D01*
X72130564Y-86469925D01*
X72130564Y-86363737D01*
X72240998Y-86363737D01*
X72351433Y-86363737D01*
X72351433Y-86032433D01*
X72351433Y-85701129D01*
X72457620Y-85701129D01*
X72563808Y-85701129D01*
X72563808Y-85811564D01*
G37*
G36*
X74185800Y-87644356D02*
G01*
X74178155Y-87666736D01*
X74169982Y-87690458D01*
X74165287Y-87703821D01*
X74164898Y-87704562D01*
X74157318Y-87708425D01*
X74139561Y-87711229D01*
X74109926Y-87713089D01*
X74066713Y-87714121D01*
X74008222Y-87714440D01*
X73962391Y-87714125D01*
X73919445Y-87713164D01*
X73885453Y-87711676D01*
X73863093Y-87709779D01*
X73855045Y-87707594D01*
X73857270Y-87697701D01*
X73863682Y-87676153D01*
X73872815Y-87648129D01*
X73890585Y-87595510D01*
X74046505Y-87595510D01*
X74202424Y-87595510D01*
X74185800Y-87644356D01*
G37*
G36*
X71017721Y-87799390D02*
G01*
X71017721Y-87909824D01*
X71238590Y-87909824D01*
X71459460Y-87909824D01*
X71459460Y-88016012D01*
X71459460Y-88122199D01*
X71238590Y-88122199D01*
X71017721Y-88122199D01*
X71017721Y-88232634D01*
X71017721Y-88343069D01*
X70911533Y-88343069D01*
X70805346Y-88343069D01*
X70805346Y-88232634D01*
X70805346Y-88122199D01*
X70584477Y-88122199D01*
X70363607Y-88122199D01*
X70363607Y-88016012D01*
X70363607Y-87909824D01*
X70474042Y-87909824D01*
X70584477Y-87909824D01*
X70584477Y-87799390D01*
X70584477Y-87688955D01*
X70801099Y-87688955D01*
X71017721Y-87688955D01*
X71017721Y-87799390D01*
G37*
G36*
X73880269Y-88006841D02*
G01*
X73921588Y-88008636D01*
X73964954Y-88010858D01*
X73999764Y-88013024D01*
X74023210Y-88014954D01*
X74032484Y-88016472D01*
X74032928Y-88017523D01*
X74031596Y-88030386D01*
X74026053Y-88053403D01*
X74017551Y-88081869D01*
X74007338Y-88111079D01*
X74006432Y-88113419D01*
X74003080Y-88119779D01*
X73997282Y-88124348D01*
X73986614Y-88127422D01*
X73968651Y-88129298D01*
X73940971Y-88130271D01*
X73901149Y-88130638D01*
X73846760Y-88130694D01*
X73800983Y-88130429D01*
X73758039Y-88129620D01*
X73724048Y-88128365D01*
X73701689Y-88126767D01*
X73693641Y-88124925D01*
X73693673Y-88124487D01*
X73696616Y-88112599D01*
X73703397Y-88089602D01*
X73712686Y-88060022D01*
X73731732Y-88000887D01*
X73880269Y-88006841D01*
G37*
G36*
X77202069Y-88236881D02*
G01*
X77202069Y-88343069D01*
X77091634Y-88343069D01*
X76981199Y-88343069D01*
X76981199Y-88457751D01*
X76981199Y-88572433D01*
X77091634Y-88572433D01*
X77202069Y-88572433D01*
X77202069Y-88678620D01*
X77202069Y-88784808D01*
X76981199Y-88784808D01*
X76760329Y-88784808D01*
X76760329Y-89005677D01*
X76760329Y-89226547D01*
X76654142Y-89226547D01*
X76547955Y-89226547D01*
X76547955Y-89116112D01*
X76547955Y-89005677D01*
X76437520Y-89005677D01*
X76327085Y-89005677D01*
X76327085Y-88899490D01*
X76327085Y-88793303D01*
X76437520Y-88793303D01*
X76547955Y-88793303D01*
X76547955Y-88682868D01*
X76547955Y-88572433D01*
X76658390Y-88572433D01*
X76768824Y-88572433D01*
X76768824Y-88351564D01*
X76768824Y-88130694D01*
X76985447Y-88130694D01*
X77202069Y-88130694D01*
X77202069Y-88236881D01*
G37*
G36*
X72784677Y-89897650D02*
G01*
X72784677Y-90118520D01*
X72899360Y-90118520D01*
X73014042Y-90118520D01*
X73014042Y-89897650D01*
X73014042Y-89676781D01*
X73120229Y-89676781D01*
X73226416Y-89676781D01*
X73226416Y-89787216D01*
X73226416Y-89897650D01*
X73447286Y-89897650D01*
X73668156Y-89897650D01*
X73668156Y-90003838D01*
X73668156Y-90110025D01*
X73557721Y-90110025D01*
X73447286Y-90110025D01*
X73447286Y-90220460D01*
X73447286Y-90330895D01*
X73226416Y-90330895D01*
X73005547Y-90330895D01*
X73005547Y-90551764D01*
X73005547Y-90772634D01*
X72895112Y-90772634D01*
X72784677Y-90772634D01*
X72784677Y-90993503D01*
X72784677Y-91214373D01*
X72347186Y-91214373D01*
X71909694Y-91214373D01*
X71909694Y-91108186D01*
X71909694Y-91001998D01*
X72020129Y-91001998D01*
X72130564Y-91001998D01*
X72130564Y-90891564D01*
X72130564Y-90781129D01*
X72240998Y-90781129D01*
X72351433Y-90781129D01*
X72351433Y-90670694D01*
X72351433Y-90560259D01*
X72572303Y-90560259D01*
X72793172Y-90560259D01*
X72793172Y-90445577D01*
X72793172Y-90330895D01*
X72572303Y-90330895D01*
X72351433Y-90330895D01*
X72351433Y-90224707D01*
X72351433Y-90118520D01*
X72461868Y-90118520D01*
X72572303Y-90118520D01*
X72572303Y-90003838D01*
X72572303Y-89889156D01*
X72461868Y-89889156D01*
X72351433Y-89889156D01*
X72351433Y-89782968D01*
X72351433Y-89676781D01*
X72568055Y-89676781D01*
X72784677Y-89676781D01*
X72784677Y-89897650D01*
G37*
G36*
X74780998Y-87688955D02*
G01*
X74887186Y-87688955D01*
X74993373Y-87688955D01*
X74993373Y-88016012D01*
X74993373Y-88343069D01*
X74887186Y-88343069D01*
X74780998Y-88343069D01*
X74780998Y-88457751D01*
X74780998Y-88572433D01*
X74891433Y-88572433D01*
X75001868Y-88572433D01*
X75001868Y-88461998D01*
X75001868Y-88351564D01*
X75108055Y-88351564D01*
X75214243Y-88351564D01*
X75214243Y-88461998D01*
X75214243Y-88572433D01*
X75435112Y-88572433D01*
X75655982Y-88572433D01*
X75655982Y-88678620D01*
X75655982Y-88784808D01*
X75545547Y-88784808D01*
X75435112Y-88784808D01*
X75435112Y-88899490D01*
X75435112Y-89014172D01*
X75549794Y-89014172D01*
X75664477Y-89014172D01*
X75664477Y-88903737D01*
X75664477Y-88793303D01*
X75881099Y-88793303D01*
X76097721Y-88793303D01*
X76097721Y-88899490D01*
X76097721Y-89005677D01*
X75987286Y-89005677D01*
X75876851Y-89005677D01*
X75876851Y-89120360D01*
X75876851Y-89235042D01*
X75987286Y-89235042D01*
X76097721Y-89235042D01*
X76097721Y-89341229D01*
X76097721Y-89447416D01*
X75881099Y-89447416D01*
X75664477Y-89447416D01*
X75664477Y-89336982D01*
X75664477Y-89226547D01*
X75443607Y-89226547D01*
X75222737Y-89226547D01*
X75222737Y-89116112D01*
X75222737Y-89005677D01*
X75108055Y-89005677D01*
X74993373Y-89005677D01*
X74993373Y-89336982D01*
X74993373Y-89668286D01*
X74776751Y-89668286D01*
X74560129Y-89668286D01*
X74560129Y-89562099D01*
X74560129Y-89455911D01*
X74670564Y-89455911D01*
X74780998Y-89455911D01*
X74780998Y-89341229D01*
X74780998Y-89226547D01*
X74670564Y-89226547D01*
X74560129Y-89226547D01*
X74560129Y-89116112D01*
X74560129Y-89005677D01*
X74449948Y-89005677D01*
X74339767Y-89005677D01*
X74337389Y-88897366D01*
X74335012Y-88789055D01*
X74222453Y-88786685D01*
X74109895Y-88784315D01*
X74109895Y-89005431D01*
X74109895Y-89226547D01*
X73782838Y-89226547D01*
X73455781Y-89226547D01*
X73455781Y-89120360D01*
X73455781Y-89014172D01*
X73566462Y-89014172D01*
X73677144Y-89014172D01*
X73674773Y-88901614D01*
X73672403Y-88789055D01*
X73559845Y-88786685D01*
X73447286Y-88784315D01*
X73447286Y-88894996D01*
X73447286Y-89005677D01*
X72895112Y-89005677D01*
X72342938Y-89005677D01*
X72342938Y-89336982D01*
X72342938Y-89668286D01*
X72236751Y-89668286D01*
X72130564Y-89668286D01*
X72130564Y-89447416D01*
X72130564Y-89226547D01*
X72015881Y-89226547D01*
X71901199Y-89226547D01*
X71901199Y-89336982D01*
X71901199Y-89447416D01*
X71463707Y-89447416D01*
X71026216Y-89447416D01*
X71026216Y-89235042D01*
X71238590Y-89235042D01*
X71353273Y-89235042D01*
X71467955Y-89235042D01*
X71467955Y-89120360D01*
X71467955Y-89005677D01*
X71353273Y-89005677D01*
X71238590Y-89005677D01*
X71238590Y-89120360D01*
X71238590Y-89235042D01*
X71026216Y-89235042D01*
X71026216Y-89226547D01*
X71026216Y-89005677D01*
X70694911Y-89005677D01*
X70363607Y-89005677D01*
X70363607Y-88899490D01*
X70363607Y-88793303D01*
X70474042Y-88793303D01*
X70584477Y-88793303D01*
X70584477Y-88682868D01*
X70584477Y-88572433D01*
X70690664Y-88572433D01*
X70796851Y-88572433D01*
X70796851Y-88682868D01*
X70796851Y-88793303D01*
X71349025Y-88793303D01*
X71901199Y-88793303D01*
X71901199Y-88903737D01*
X71901199Y-89005677D01*
X71901199Y-89014172D01*
X72015881Y-89014172D01*
X72130564Y-89014172D01*
X72130564Y-88899490D01*
X72130564Y-88784808D01*
X72020129Y-88784808D01*
X71909694Y-88784808D01*
X71909694Y-88678620D01*
X71909694Y-88572433D01*
X72126316Y-88572433D01*
X72342938Y-88572433D01*
X72342938Y-88682868D01*
X72342938Y-88793303D01*
X72457620Y-88793303D01*
X72572303Y-88793303D01*
X72572303Y-88682868D01*
X72572303Y-88572433D01*
X72682984Y-88572433D01*
X72793665Y-88572433D01*
X72791295Y-88459875D01*
X72788925Y-88347316D01*
X72349309Y-88345116D01*
X71909694Y-88342916D01*
X71909694Y-88236805D01*
X71909694Y-88130694D01*
X72130564Y-88130694D01*
X72351433Y-88130694D01*
X72563808Y-88130694D01*
X72678737Y-88130694D01*
X72793665Y-88130694D01*
X72791295Y-88018135D01*
X72790364Y-87973934D01*
X72960152Y-87973934D01*
X72960785Y-87975464D01*
X72967215Y-87984375D01*
X72978897Y-87991213D01*
X72997784Y-87996235D01*
X73025832Y-87999696D01*
X73064997Y-88001852D01*
X73117232Y-88002957D01*
X73184495Y-88003269D01*
X73201755Y-88003279D01*
X73252933Y-88003434D01*
X73297059Y-88003752D01*
X73331650Y-88004204D01*
X73354221Y-88004761D01*
X73362286Y-88005393D01*
X73361208Y-88009007D01*
X73355591Y-88026468D01*
X73345830Y-88056354D01*
X73332664Y-88096411D01*
X73321351Y-88130694D01*
X73316833Y-88144386D01*
X73299076Y-88198026D01*
X73279119Y-88258864D01*
X73262898Y-88310514D01*
X73251810Y-88349718D01*
X73245562Y-88378317D01*
X73243858Y-88398156D01*
X73246406Y-88411077D01*
X73252910Y-88418924D01*
X73263076Y-88423540D01*
X73269257Y-88424321D01*
X73291525Y-88425448D01*
X73327597Y-88426493D01*
X73375552Y-88427446D01*
X73433463Y-88428301D01*
X73499409Y-88429051D01*
X73571466Y-88429688D01*
X73647709Y-88430205D01*
X73726216Y-88430595D01*
X73805061Y-88430850D01*
X73882323Y-88430963D01*
X73956076Y-88430927D01*
X74024398Y-88430734D01*
X74085364Y-88430377D01*
X74137051Y-88429849D01*
X74177536Y-88429143D01*
X74204894Y-88428251D01*
X74217202Y-88427166D01*
X74220299Y-88426238D01*
X74241009Y-88417223D01*
X74259777Y-88402788D01*
X74277700Y-88381113D01*
X74295876Y-88350376D01*
X74315404Y-88308758D01*
X74337381Y-88254439D01*
X74362905Y-88185597D01*
X74378265Y-88142510D01*
X74398525Y-88082841D01*
X74412729Y-88035612D01*
X74421181Y-87998806D01*
X74424185Y-87970407D01*
X74422044Y-87948399D01*
X74415061Y-87930765D01*
X74403539Y-87915487D01*
X74382869Y-87893184D01*
X74414562Y-87884650D01*
X74416448Y-87884112D01*
X74444368Y-87871097D01*
X74468011Y-87852619D01*
X74477376Y-87837747D01*
X74490950Y-87808867D01*
X74507326Y-87769295D01*
X74525506Y-87721918D01*
X74544491Y-87669624D01*
X74563285Y-87615301D01*
X74580889Y-87561836D01*
X74596306Y-87512117D01*
X74608537Y-87469033D01*
X74616586Y-87435470D01*
X74619454Y-87414317D01*
X74618754Y-87402245D01*
X74607059Y-87360033D01*
X74583558Y-87322098D01*
X74551629Y-87294412D01*
X74547617Y-87292135D01*
X74541685Y-87289333D01*
X74534277Y-87286892D01*
X74524283Y-87284781D01*
X74510595Y-87282971D01*
X74492106Y-87281434D01*
X74467707Y-87280141D01*
X74436290Y-87279061D01*
X74396748Y-87278167D01*
X74347972Y-87277428D01*
X74288854Y-87276816D01*
X74218286Y-87276302D01*
X74135161Y-87275857D01*
X74038369Y-87275451D01*
X73926804Y-87275055D01*
X73799357Y-87274641D01*
X73076814Y-87272333D01*
X73058488Y-87291840D01*
X73056544Y-87294280D01*
X73046440Y-87312455D01*
X73032994Y-87341980D01*
X73017651Y-87379039D01*
X73001857Y-87419817D01*
X72987057Y-87460495D01*
X72974695Y-87497260D01*
X72966219Y-87526293D01*
X72963072Y-87543779D01*
X72966404Y-87556122D01*
X72978605Y-87572954D01*
X72978954Y-87573263D01*
X72985554Y-87577308D01*
X72996293Y-87580624D01*
X73013007Y-87583343D01*
X73037531Y-87585597D01*
X73071701Y-87587520D01*
X73117353Y-87589245D01*
X73176322Y-87590904D01*
X73250445Y-87592631D01*
X73275499Y-87593206D01*
X73337534Y-87594867D01*
X73392932Y-87596685D01*
X73439623Y-87598569D01*
X73475536Y-87600430D01*
X73498602Y-87602179D01*
X73506751Y-87603725D01*
X73504502Y-87613042D01*
X73498093Y-87634060D01*
X73488981Y-87661820D01*
X73471211Y-87714440D01*
X73274483Y-87714710D01*
X73231012Y-87714792D01*
X73175070Y-87715184D01*
X73132549Y-87716281D01*
X73101266Y-87718518D01*
X73079038Y-87722330D01*
X73063683Y-87728151D01*
X73053017Y-87736416D01*
X73044857Y-87747562D01*
X73037021Y-87762021D01*
X73023108Y-87791134D01*
X73007591Y-87827421D01*
X72992337Y-87866193D01*
X72978657Y-87903840D01*
X72967860Y-87936753D01*
X72961255Y-87961321D01*
X72960152Y-87973934D01*
X72790364Y-87973934D01*
X72788925Y-87905577D01*
X72676366Y-87903207D01*
X72563808Y-87900836D01*
X72563808Y-88015765D01*
X72563808Y-88130694D01*
X72351433Y-88130694D01*
X72351433Y-88016012D01*
X72351433Y-87901329D01*
X72130564Y-87901329D01*
X71909694Y-87901329D01*
X71909694Y-87795142D01*
X71909694Y-87688955D01*
X72351680Y-87688955D01*
X72793665Y-87688955D01*
X72791295Y-87576396D01*
X72788925Y-87463838D01*
X72680614Y-87461460D01*
X72572303Y-87459083D01*
X72572303Y-87242714D01*
X72572303Y-87026346D01*
X72682737Y-87026346D01*
X72793172Y-87026346D01*
X72793172Y-86911664D01*
X72793172Y-86796982D01*
X72903607Y-86796982D01*
X73014042Y-86796982D01*
X73014042Y-86690794D01*
X73014042Y-86584607D01*
X73230664Y-86584607D01*
X73447286Y-86584607D01*
X73447286Y-86690794D01*
X73447286Y-86796982D01*
X73672403Y-86796982D01*
X73897520Y-86796982D01*
X73897520Y-86465677D01*
X73897520Y-86134373D01*
X73787085Y-86134373D01*
X73676651Y-86134373D01*
X73676651Y-85917751D01*
X73676651Y-85701129D01*
X73782838Y-85701129D01*
X73889025Y-85701129D01*
X73889025Y-85811564D01*
X73889025Y-85921998D01*
X74109895Y-85921998D01*
X74330764Y-85921998D01*
X74330764Y-86032433D01*
X74330764Y-86142868D01*
X74441199Y-86142868D01*
X74551634Y-86142868D01*
X74551634Y-86249055D01*
X74551634Y-86355242D01*
X74441199Y-86355242D01*
X74330764Y-86355242D01*
X74330764Y-86469925D01*
X74330764Y-86584607D01*
X74445447Y-86584607D01*
X74560129Y-86584607D01*
X74560129Y-86474172D01*
X74560129Y-86363737D01*
X74670564Y-86363737D01*
X74780998Y-86363737D01*
X74780998Y-86253303D01*
X74780998Y-86142868D01*
X74887186Y-86142868D01*
X74993373Y-86142868D01*
X74993373Y-86253303D01*
X74993373Y-86363737D01*
X75103808Y-86363737D01*
X75214243Y-86363737D01*
X75214243Y-86469925D01*
X75214243Y-86576112D01*
X74992027Y-86576112D01*
X74769811Y-86576112D01*
X74775405Y-86743130D01*
X74775992Y-86762818D01*
X74777152Y-86814876D01*
X74778211Y-86879790D01*
X74779139Y-86954769D01*
X74779911Y-87037024D01*
X74780496Y-87123765D01*
X74780868Y-87212205D01*
X74780998Y-87299552D01*
X74780998Y-87414317D01*
X74780998Y-87688955D01*
G37*
G36*
X77762737Y-87782400D02*
G01*
X77762737Y-89676781D01*
X77762737Y-89889156D01*
X77762737Y-91766547D01*
X73761600Y-91766547D01*
X69760463Y-91766547D01*
X69760463Y-90560259D01*
X70134243Y-90560259D01*
X70244677Y-90560259D01*
X70355112Y-90560259D01*
X70355112Y-90670694D01*
X70355112Y-90781129D01*
X70465547Y-90781129D01*
X70575982Y-90781129D01*
X70575982Y-90997751D01*
X70575982Y-91214373D01*
X70465547Y-91214373D01*
X70355112Y-91214373D01*
X70355112Y-91329055D01*
X70355112Y-91443737D01*
X70469794Y-91443737D01*
X70584477Y-91443737D01*
X70584477Y-91333303D01*
X70584477Y-91222868D01*
X70805346Y-91222868D01*
X71026216Y-91222868D01*
X71026216Y-91108186D01*
X71026216Y-90993503D01*
X70915781Y-90993503D01*
X70805346Y-90993503D01*
X70805346Y-90887316D01*
X70805346Y-90781129D01*
X71026216Y-90781129D01*
X71247085Y-90781129D01*
X71247085Y-90670694D01*
X71247085Y-90560259D01*
X71463707Y-90560259D01*
X71680329Y-90560259D01*
X71680329Y-90666446D01*
X71680329Y-90772634D01*
X71569895Y-90772634D01*
X71459460Y-90772634D01*
X71459460Y-90883069D01*
X71459460Y-90993503D01*
X71349025Y-90993503D01*
X71238590Y-90993503D01*
X71238590Y-91108186D01*
X71238590Y-91222868D01*
X71353273Y-91222868D01*
X71467955Y-91222868D01*
X71467955Y-91112433D01*
X71467955Y-91001998D01*
X71574142Y-91001998D01*
X71680329Y-91001998D01*
X71680329Y-91222868D01*
X71680329Y-91443737D01*
X72347186Y-91443737D01*
X73014042Y-91443737D01*
X73014042Y-91333303D01*
X73014042Y-91222868D01*
X73120229Y-91222868D01*
X73226416Y-91222868D01*
X73226416Y-91333303D01*
X73226416Y-91443737D01*
X73341099Y-91443737D01*
X73455781Y-91443737D01*
X73455781Y-91329055D01*
X73455781Y-91214373D01*
X73345346Y-91214373D01*
X73234911Y-91214373D01*
X73234911Y-91108186D01*
X73234911Y-91001998D01*
X73345346Y-91001998D01*
X73455781Y-91001998D01*
X73455781Y-90891564D01*
X73455781Y-90781129D01*
X73561968Y-90781129D01*
X73668156Y-90781129D01*
X73668156Y-90891564D01*
X73668156Y-91001998D01*
X73778590Y-91001998D01*
X73889025Y-91001998D01*
X73889025Y-91108186D01*
X73889025Y-91214373D01*
X73778590Y-91214373D01*
X73668156Y-91214373D01*
X73668156Y-91329055D01*
X73668156Y-91443737D01*
X73893273Y-91443737D01*
X74118390Y-91443737D01*
X74551634Y-91443737D01*
X74776751Y-91443737D01*
X75001868Y-91443737D01*
X75001868Y-91329055D01*
X75001868Y-91214373D01*
X74776751Y-91214373D01*
X74551634Y-91214373D01*
X74551634Y-91329055D01*
X74551634Y-91443737D01*
X74118390Y-91443737D01*
X74118390Y-91112433D01*
X74118390Y-90781129D01*
X74224577Y-90781129D01*
X74330764Y-90781129D01*
X74330764Y-90891564D01*
X74330764Y-91001998D01*
X74445447Y-91001998D01*
X74560129Y-91001998D01*
X74560129Y-90891564D01*
X74560129Y-90781129D01*
X74776751Y-90781129D01*
X74993373Y-90781129D01*
X74993373Y-90891564D01*
X74993373Y-91001998D01*
X75103808Y-91001998D01*
X75214243Y-91001998D01*
X75214243Y-91214373D01*
X75214243Y-91222868D01*
X75214243Y-91443737D01*
X75328925Y-91443737D01*
X75443607Y-91443737D01*
X75443607Y-91435242D01*
X75885346Y-91435242D01*
X76658390Y-91435242D01*
X77431433Y-91435242D01*
X77431433Y-90662199D01*
X77431433Y-89889156D01*
X76658390Y-89889156D01*
X75885346Y-89889156D01*
X75885346Y-90662199D01*
X75885346Y-91435242D01*
X75443607Y-91435242D01*
X75443607Y-91222868D01*
X75443607Y-91001998D01*
X75554042Y-91001998D01*
X75664477Y-91001998D01*
X75664477Y-90666446D01*
X75664477Y-90330895D01*
X75554042Y-90330895D01*
X75443607Y-90330895D01*
X75443607Y-90220460D01*
X75443607Y-90110025D01*
X75333172Y-90110025D01*
X75222737Y-90110025D01*
X75222737Y-89782968D01*
X75222737Y-89455911D01*
X75328925Y-89455911D01*
X75435112Y-89455911D01*
X75435112Y-89676781D01*
X75435112Y-89897650D01*
X75549794Y-89897650D01*
X75664477Y-89897650D01*
X75664477Y-89787216D01*
X75664477Y-89676781D01*
X75995781Y-89676781D01*
X76327085Y-89676781D01*
X76327085Y-89566346D01*
X76327085Y-89455911D01*
X76433273Y-89455911D01*
X76539460Y-89455911D01*
X76539460Y-89566346D01*
X76539460Y-89676781D01*
X76654142Y-89676781D01*
X76768824Y-89676781D01*
X76768824Y-89566346D01*
X76768824Y-89455911D01*
X76879259Y-89455911D01*
X76989694Y-89455911D01*
X76989694Y-89235042D01*
X76989694Y-89014172D01*
X77095881Y-89014172D01*
X77202069Y-89014172D01*
X77202069Y-89345477D01*
X77202069Y-89676781D01*
X77316751Y-89676781D01*
X77431433Y-89676781D01*
X77431433Y-88678620D01*
X77431433Y-87680460D01*
X76985447Y-87680460D01*
X76539460Y-87680460D01*
X76539460Y-87795142D01*
X76539460Y-87909824D01*
X76649895Y-87909824D01*
X76760329Y-87909824D01*
X76760329Y-88016012D01*
X76760329Y-88122199D01*
X76212403Y-88122199D01*
X75664477Y-88122199D01*
X75664477Y-88011764D01*
X75664477Y-87901329D01*
X75554042Y-87901329D01*
X75443607Y-87901329D01*
X75443607Y-87795142D01*
X75443607Y-87688955D01*
X75660229Y-87688955D01*
X75876851Y-87688955D01*
X75876851Y-87799390D01*
X75876851Y-87909824D01*
X76101968Y-87909824D01*
X76327085Y-87909824D01*
X76327085Y-87578520D01*
X76327085Y-87247216D01*
X76433273Y-87247216D01*
X76539460Y-87247216D01*
X76539460Y-87357650D01*
X76539460Y-87468085D01*
X76654142Y-87468085D01*
X76768824Y-87468085D01*
X76768824Y-87357650D01*
X76768824Y-87247216D01*
X76875012Y-87247216D01*
X76981199Y-87247216D01*
X76981199Y-87357650D01*
X76981199Y-87468085D01*
X77206316Y-87468085D01*
X77431433Y-87468085D01*
X77431433Y-87022099D01*
X77431433Y-86576112D01*
X77320998Y-86576112D01*
X77210564Y-86576112D01*
X77210564Y-86355242D01*
X77210564Y-86134373D01*
X77100129Y-86134373D01*
X76989694Y-86134373D01*
X76989694Y-86023938D01*
X76989694Y-85913503D01*
X76654142Y-85913503D01*
X76318590Y-85913503D01*
X76318590Y-86023938D01*
X76318590Y-86134373D01*
X76212403Y-86134373D01*
X76106216Y-86134373D01*
X76106216Y-86023938D01*
X76106216Y-85913503D01*
X75991533Y-85913503D01*
X75876851Y-85913503D01*
X75876851Y-86028186D01*
X75876851Y-86142868D01*
X75987286Y-86142868D01*
X76097721Y-86142868D01*
X76097721Y-86249055D01*
X76097721Y-86355242D01*
X75987286Y-86355242D01*
X75876851Y-86355242D01*
X75876851Y-86469925D01*
X75876851Y-86584607D01*
X75987286Y-86584607D01*
X76097721Y-86584607D01*
X76097721Y-86690794D01*
X76097721Y-86796982D01*
X75987286Y-86796982D01*
X75876851Y-86796982D01*
X75876851Y-86911664D01*
X75876851Y-87026346D01*
X76097721Y-87026346D01*
X76318590Y-87026346D01*
X76318590Y-87132533D01*
X76318590Y-87238721D01*
X75881099Y-87238721D01*
X75443607Y-87238721D01*
X75443607Y-87132533D01*
X75443607Y-87026346D01*
X75554042Y-87026346D01*
X75664477Y-87026346D01*
X75664477Y-86911664D01*
X75664477Y-86796982D01*
X75549794Y-86796982D01*
X75435112Y-86796982D01*
X75435112Y-86907416D01*
X75435112Y-87017851D01*
X75218490Y-87017851D01*
X75001868Y-87017851D01*
X75001868Y-86911664D01*
X75001868Y-86805477D01*
X75112303Y-86805477D01*
X75222737Y-86805477D01*
X75222737Y-86695042D01*
X75222737Y-86584607D01*
X75443607Y-86584607D01*
X75664477Y-86584607D01*
X75664477Y-86469925D01*
X75664477Y-86355242D01*
X75443607Y-86355242D01*
X75222737Y-86355242D01*
X75222737Y-86244808D01*
X75222737Y-86142868D01*
X75435112Y-86142868D01*
X75549794Y-86142868D01*
X75664477Y-86142868D01*
X75664477Y-85696881D01*
X75664477Y-85250895D01*
X75885346Y-85250895D01*
X75885346Y-85692634D01*
X76658390Y-85692634D01*
X77431433Y-85692634D01*
X77431433Y-84919590D01*
X77431433Y-84146547D01*
X76658390Y-84146547D01*
X75885346Y-84146547D01*
X75885346Y-84919590D01*
X75885346Y-85250895D01*
X75664477Y-85250895D01*
X75549794Y-85250895D01*
X75435112Y-85250895D01*
X75435112Y-85696881D01*
X75435112Y-86142868D01*
X75222737Y-86142868D01*
X75222737Y-86134373D01*
X75112303Y-86134373D01*
X75001868Y-86134373D01*
X75001868Y-86028186D01*
X75001868Y-85921998D01*
X75112303Y-85921998D01*
X75222737Y-85921998D01*
X75222737Y-85480259D01*
X75222737Y-85038520D01*
X75333172Y-85038520D01*
X75443607Y-85038520D01*
X75443607Y-84928085D01*
X75443607Y-84817650D01*
X75554042Y-84817650D01*
X75664477Y-84817650D01*
X75664477Y-84482099D01*
X75664477Y-84146547D01*
X75549794Y-84146547D01*
X75435112Y-84146547D01*
X75435112Y-84367416D01*
X75435112Y-84588286D01*
X75103808Y-84588286D01*
X74772503Y-84588286D01*
X74772503Y-84702968D01*
X74772503Y-84817650D01*
X74993373Y-84817650D01*
X75214243Y-84817650D01*
X75214243Y-84923838D01*
X75214243Y-85030025D01*
X74993373Y-85030025D01*
X74772503Y-85030025D01*
X74772503Y-85144707D01*
X74772503Y-85259390D01*
X74882938Y-85259390D01*
X74993373Y-85259390D01*
X74993373Y-85586446D01*
X74993373Y-85913503D01*
X74776751Y-85913503D01*
X74560129Y-85913503D01*
X74560129Y-85807316D01*
X74560129Y-85701129D01*
X74670564Y-85701129D01*
X74780998Y-85701129D01*
X74780998Y-85586446D01*
X74780998Y-85471764D01*
X74666316Y-85471764D01*
X74551634Y-85471764D01*
X74551634Y-85582199D01*
X74551634Y-85692634D01*
X74445447Y-85692634D01*
X74339259Y-85692634D01*
X74339259Y-85582199D01*
X74339259Y-85471764D01*
X74224577Y-85471764D01*
X74109895Y-85471764D01*
X74109895Y-85582199D01*
X74109895Y-85692634D01*
X74003707Y-85692634D01*
X73897520Y-85692634D01*
X73897520Y-85582199D01*
X73897520Y-85471764D01*
X73782838Y-85471764D01*
X73668156Y-85471764D01*
X73668156Y-85582199D01*
X73668156Y-85692634D01*
X73561968Y-85692634D01*
X73455781Y-85692634D01*
X73455781Y-85476012D01*
X73455781Y-85259390D01*
X73676651Y-85259390D01*
X73897520Y-85259390D01*
X73897520Y-85148955D01*
X73897520Y-85038520D01*
X74003707Y-85038520D01*
X74109895Y-85038520D01*
X74109895Y-85148955D01*
X74109895Y-85259390D01*
X74335012Y-85259390D01*
X74560129Y-85259390D01*
X74560129Y-85144707D01*
X74560129Y-85030025D01*
X74449694Y-85030025D01*
X74339259Y-85030025D01*
X74339259Y-84809156D01*
X74339259Y-84588286D01*
X74007955Y-84588286D01*
X73676651Y-84588286D01*
X73676651Y-84482099D01*
X73676651Y-84375911D01*
X73787085Y-84375911D01*
X73897520Y-84375911D01*
X73897520Y-84261229D01*
X73897520Y-84146547D01*
X74109895Y-84146547D01*
X74109895Y-84261229D01*
X74109895Y-84375911D01*
X74335012Y-84375911D01*
X74560129Y-84375911D01*
X74560129Y-84261229D01*
X74560129Y-84146547D01*
X74993373Y-84146547D01*
X74993373Y-84261229D01*
X74993373Y-84375911D01*
X75108055Y-84375911D01*
X75222737Y-84375911D01*
X75222737Y-84261229D01*
X75222737Y-84146547D01*
X75108055Y-84146547D01*
X74993373Y-84146547D01*
X74560129Y-84146547D01*
X74335012Y-84146547D01*
X74109895Y-84146547D01*
X73897520Y-84146547D01*
X73561968Y-84146547D01*
X73226416Y-84146547D01*
X73226416Y-84256982D01*
X73226416Y-84367416D01*
X73120229Y-84367416D01*
X73014042Y-84367416D01*
X73014042Y-84256982D01*
X73014042Y-84146547D01*
X72899360Y-84146547D01*
X72784677Y-84146547D01*
X72784677Y-84261229D01*
X72784677Y-84375911D01*
X72895112Y-84375911D01*
X73005547Y-84375911D01*
X73005547Y-84486346D01*
X73005547Y-84596781D01*
X73115982Y-84596781D01*
X73226416Y-84596781D01*
X73226416Y-84702968D01*
X73226416Y-84809156D01*
X73115982Y-84809156D01*
X73005547Y-84809156D01*
X73005547Y-84919590D01*
X73005547Y-85030025D01*
X72788925Y-85030025D01*
X72572303Y-85030025D01*
X72572303Y-84923838D01*
X72572303Y-84817650D01*
X72682737Y-84817650D01*
X72793172Y-84817650D01*
X72793172Y-84702968D01*
X72793172Y-84588286D01*
X72682737Y-84588286D01*
X72572303Y-84588286D01*
X72572303Y-84477851D01*
X72572303Y-84367416D01*
X72461868Y-84367416D01*
X72351433Y-84367416D01*
X72351433Y-84256982D01*
X72351433Y-84146547D01*
X72126316Y-84146547D01*
X71901199Y-84146547D01*
X71901199Y-84592533D01*
X71901199Y-85038520D01*
X72232503Y-85038520D01*
X72563808Y-85038520D01*
X72563808Y-85144707D01*
X72563808Y-85250895D01*
X72232503Y-85250895D01*
X71901199Y-85250895D01*
X71901199Y-85476012D01*
X71901199Y-85701129D01*
X72011634Y-85701129D01*
X72122069Y-85701129D01*
X72122069Y-85807316D01*
X72122069Y-85913503D01*
X71680329Y-85913503D01*
X71238590Y-85913503D01*
X71238590Y-86028186D01*
X71238590Y-86142868D01*
X71349025Y-86142868D01*
X71459460Y-86142868D01*
X71459460Y-86249055D01*
X71459460Y-86355242D01*
X71349025Y-86355242D01*
X71238590Y-86355242D01*
X71238590Y-86469925D01*
X71238590Y-86584607D01*
X71463707Y-86584607D01*
X71688824Y-86584607D01*
X71688824Y-86474172D01*
X71688824Y-86363737D01*
X71795012Y-86363737D01*
X71901199Y-86363737D01*
X71901199Y-86580360D01*
X71901199Y-86796982D01*
X71790764Y-86796982D01*
X71680329Y-86796982D01*
X71680329Y-86907416D01*
X71680329Y-87017851D01*
X71574142Y-87017851D01*
X71467955Y-87017851D01*
X71467955Y-86907416D01*
X71467955Y-86796982D01*
X71353273Y-86796982D01*
X71238590Y-86796982D01*
X71238590Y-87017851D01*
X71238590Y-87238721D01*
X71132403Y-87238721D01*
X71026216Y-87238721D01*
X71026216Y-87128286D01*
X71026216Y-87017851D01*
X70911533Y-87017851D01*
X70796851Y-87017851D01*
X70796851Y-87238721D01*
X70796851Y-87459590D01*
X70690664Y-87459590D01*
X70584477Y-87459590D01*
X70584477Y-87349156D01*
X70584477Y-87238721D01*
X70474042Y-87238721D01*
X70363607Y-87238721D01*
X70363607Y-87132533D01*
X70363607Y-87026346D01*
X70474042Y-87026346D01*
X70584477Y-87026346D01*
X70584477Y-86915911D01*
X70584477Y-86805477D01*
X70694911Y-86805477D01*
X70805346Y-86805477D01*
X70805346Y-86695042D01*
X70805346Y-86584607D01*
X70915781Y-86584607D01*
X71026216Y-86584607D01*
X71026216Y-86359490D01*
X71026216Y-86134373D01*
X70915781Y-86134373D01*
X70805346Y-86134373D01*
X70805346Y-86023938D01*
X70805346Y-85913503D01*
X70469794Y-85913503D01*
X70134243Y-85913503D01*
X70134243Y-86138620D01*
X70134243Y-86363737D01*
X70244677Y-86363737D01*
X70355112Y-86363737D01*
X70355112Y-86469925D01*
X70355112Y-86576112D01*
X70244677Y-86576112D01*
X70134243Y-86576112D01*
X70134243Y-86690794D01*
X70134243Y-86805477D01*
X70244677Y-86805477D01*
X70355112Y-86805477D01*
X70355112Y-86911664D01*
X70355112Y-87017851D01*
X70244677Y-87017851D01*
X70134243Y-87017851D01*
X70134243Y-87132533D01*
X70134243Y-87247216D01*
X70244677Y-87247216D01*
X70355112Y-87247216D01*
X70355112Y-87463838D01*
X70355112Y-87680460D01*
X70244677Y-87680460D01*
X70134243Y-87680460D01*
X70134243Y-87905577D01*
X70134243Y-88130694D01*
X70244677Y-88130694D01*
X70355112Y-88130694D01*
X70355112Y-88236881D01*
X70355112Y-88343069D01*
X70244677Y-88343069D01*
X70134243Y-88343069D01*
X70134243Y-88457751D01*
X70134243Y-88572433D01*
X70244677Y-88572433D01*
X70355112Y-88572433D01*
X70355112Y-88678620D01*
X70355112Y-88784808D01*
X70244677Y-88784808D01*
X70134243Y-88784808D01*
X70134243Y-88899490D01*
X70134243Y-89014172D01*
X70244677Y-89014172D01*
X70355112Y-89014172D01*
X70355112Y-89120360D01*
X70355112Y-89226547D01*
X70244677Y-89226547D01*
X70134243Y-89226547D01*
X70134243Y-89562099D01*
X70134243Y-89897650D01*
X70244677Y-89897650D01*
X70355112Y-89897650D01*
X70355112Y-90003838D01*
X70355112Y-90110025D01*
X70244677Y-90110025D01*
X70134243Y-90110025D01*
X70134243Y-90335142D01*
X70134243Y-90560259D01*
X69760463Y-90560259D01*
X69760463Y-87782400D01*
X69760463Y-84146547D01*
X70142737Y-84146547D01*
X70142737Y-84919590D01*
X70142737Y-85692634D01*
X70915781Y-85692634D01*
X71688824Y-85692634D01*
X71688824Y-84919590D01*
X71688824Y-84146547D01*
X70915781Y-84146547D01*
X70142737Y-84146547D01*
X69760463Y-84146547D01*
X69760463Y-83798253D01*
X73761600Y-83798253D01*
X77762737Y-83798253D01*
X77762737Y-84146547D01*
X77762737Y-87782400D01*
G37*
D11*
%TO.C,J804*%
X22900000Y-98650000D02*
X22900000Y-82450000D01*
X35900000Y-98650000D02*
X22900000Y-98650000D01*
X35900000Y-98650000D02*
X35900000Y-82450000D01*
X35900000Y-82450000D02*
X22900000Y-82450000D01*
%TO.C,Y800*%
X42150000Y-84890000D02*
X42150000Y-91140000D01*
X37100000Y-84890000D02*
X37100000Y-91140000D01*
X42150000Y-84890000D02*
G75*
G03*
X37100000Y-84890000I-2525000J0D01*
G01*
X37100000Y-91140000D02*
G75*
G03*
X42150000Y-91140000I2525000J0D01*
G01*
%TD*%
M02*
