%TF.GenerationSoftware,KiCad,Pcbnew,7.0.11*%
%TF.CreationDate,2024-06-27T03:27:32+01:00*%
%TF.ProjectId,Electron-PS2USB,456c6563-7472-46f6-9e2d-505332555342,rev?*%
%TF.SameCoordinates,Original*%
%TF.FileFunction,Drillmap*%
%TF.FilePolarity,Positive*%
%FSLAX45Y45*%
G04 Gerber Fmt 4.5, Leading zero omitted, Abs format (unit mm)*
G04 Created by KiCad (PCBNEW 7.0.11) date 2024-06-27 03:27:32*
%MOMM*%
%LPD*%
G01*
G04 APERTURE LIST*
%ADD10C,0.100000*%
%ADD11C,0.200000*%
G04 APERTURE END LIST*
D10*
X13105000Y-9685020D02*
X12075000Y-9685020D01*
X12075000Y-11610020D01*
X4657500Y-11610020D01*
X4656914Y-10765000D01*
X6076913Y-10765000D01*
X6077500Y-7942500D01*
X7414413Y-7942500D01*
X7415000Y-5805000D01*
X9631914Y-5802500D01*
X13105000Y-5802500D01*
X13105000Y-9685020D01*
D11*
D10*
X5503000Y-11115750D02*
X5543000Y-11155750D01*
X5543000Y-11115750D02*
X5503000Y-11155750D01*
X6083040Y-11181540D02*
X6123040Y-11221540D01*
X6123040Y-11181540D02*
X6083040Y-11221540D01*
X6341520Y-10608810D02*
X6381520Y-10648810D01*
X6381520Y-10608810D02*
X6341520Y-10648810D01*
X11063290Y-6705790D02*
X11103290Y-6745790D01*
X11103290Y-6705790D02*
X11063290Y-6745790D01*
X11309730Y-7090440D02*
X11349730Y-7130440D01*
X11349730Y-7090440D02*
X11309730Y-7130440D01*
X11324700Y-9268300D02*
X11364700Y-9308300D01*
X11364700Y-9268300D02*
X11324700Y-9308300D01*
X6233000Y-9960000D02*
G75*
G03*
X6163000Y-9960000I-35000J0D01*
G01*
X6163000Y-9960000D02*
G75*
G03*
X6233000Y-9960000I35000J0D01*
G01*
X6233000Y-10175000D02*
G75*
G03*
X6163000Y-10175000I-35000J0D01*
G01*
X6163000Y-10175000D02*
G75*
G03*
X6233000Y-10175000I35000J0D01*
G01*
X6233000Y-10390000D02*
G75*
G03*
X6163000Y-10390000I-35000J0D01*
G01*
X6163000Y-10390000D02*
G75*
G03*
X6233000Y-10390000I35000J0D01*
G01*
X6233000Y-10605000D02*
G75*
G03*
X6163000Y-10605000I-35000J0D01*
G01*
X6163000Y-10605000D02*
G75*
G03*
X6233000Y-10605000I35000J0D01*
G01*
X6995000Y-9960000D02*
G75*
G03*
X6925000Y-9960000I-35000J0D01*
G01*
X6925000Y-9960000D02*
G75*
G03*
X6995000Y-9960000I35000J0D01*
G01*
X6995000Y-10175000D02*
G75*
G03*
X6925000Y-10175000I-35000J0D01*
G01*
X6925000Y-10175000D02*
G75*
G03*
X6995000Y-10175000I35000J0D01*
G01*
X6995000Y-10390000D02*
G75*
G03*
X6925000Y-10390000I-35000J0D01*
G01*
X6925000Y-10390000D02*
G75*
G03*
X6995000Y-10390000I35000J0D01*
G01*
X6995000Y-10605000D02*
G75*
G03*
X6925000Y-10605000I-35000J0D01*
G01*
X6925000Y-10605000D02*
G75*
G03*
X6995000Y-10605000I35000J0D01*
G01*
X10241500Y-10110000D02*
G75*
G03*
X10171500Y-10110000I-35000J0D01*
G01*
X10171500Y-10110000D02*
G75*
G03*
X10241500Y-10110000I35000J0D01*
G01*
X10241500Y-10327500D02*
G75*
G03*
X10171500Y-10327500I-35000J0D01*
G01*
X10171500Y-10327500D02*
G75*
G03*
X10241500Y-10327500I35000J0D01*
G01*
X10856500Y-9890000D02*
G75*
G03*
X10786500Y-9890000I-35000J0D01*
G01*
X10786500Y-9890000D02*
G75*
G03*
X10856500Y-9890000I35000J0D01*
G01*
X10929000Y-10650000D02*
G75*
G03*
X10859000Y-10650000I-35000J0D01*
G01*
X10859000Y-10650000D02*
G75*
G03*
X10929000Y-10650000I35000J0D01*
G01*
X10929000Y-10865000D02*
G75*
G03*
X10859000Y-10865000I-35000J0D01*
G01*
X10859000Y-10865000D02*
G75*
G03*
X10929000Y-10865000I35000J0D01*
G01*
X11003500Y-10110000D02*
G75*
G03*
X10933500Y-10110000I-35000J0D01*
G01*
X10933500Y-10110000D02*
G75*
G03*
X11003500Y-10110000I35000J0D01*
G01*
X11003500Y-10327500D02*
G75*
G03*
X10933500Y-10327500I-35000J0D01*
G01*
X10933500Y-10327500D02*
G75*
G03*
X11003500Y-10327500I35000J0D01*
G01*
X11618500Y-9890000D02*
G75*
G03*
X11548500Y-9890000I-35000J0D01*
G01*
X11548500Y-9890000D02*
G75*
G03*
X11618500Y-9890000I35000J0D01*
G01*
X11691000Y-10650000D02*
G75*
G03*
X11621000Y-10650000I-35000J0D01*
G01*
X11621000Y-10650000D02*
G75*
G03*
X11691000Y-10650000I35000J0D01*
G01*
X11691000Y-10865000D02*
G75*
G03*
X11621000Y-10865000I-35000J0D01*
G01*
X11621000Y-10865000D02*
G75*
G03*
X11691000Y-10865000I35000J0D01*
G01*
X7227500Y-9864500D02*
X7227500Y-9939500D01*
X7190000Y-9902000D02*
X7265000Y-9902000D01*
X7227500Y-10626500D02*
X7227500Y-10701500D01*
X7190000Y-10664000D02*
X7265000Y-10664000D01*
X7440000Y-9864500D02*
X7440000Y-9939500D01*
X7402500Y-9902000D02*
X7477500Y-9902000D01*
X7440000Y-10626500D02*
X7440000Y-10701500D01*
X7402500Y-10664000D02*
X7477500Y-10664000D01*
X7652500Y-9864500D02*
X7652500Y-9939500D01*
X7615000Y-9902000D02*
X7690000Y-9902000D01*
X7652500Y-10626500D02*
X7652500Y-10701500D01*
X7615000Y-10664000D02*
X7690000Y-10664000D01*
X7865000Y-9864500D02*
X7865000Y-9939500D01*
X7827500Y-9902000D02*
X7902500Y-9902000D01*
X7865000Y-10626500D02*
X7865000Y-10701500D01*
X7827500Y-10664000D02*
X7902500Y-10664000D01*
X8075000Y-9864500D02*
X8075000Y-9939500D01*
X8037500Y-9902000D02*
X8112500Y-9902000D01*
X8075000Y-10626500D02*
X8075000Y-10701500D01*
X8037500Y-10664000D02*
X8112500Y-10664000D01*
X8287500Y-9864500D02*
X8287500Y-9939500D01*
X8250000Y-9902000D02*
X8325000Y-9902000D01*
X8287500Y-10626500D02*
X8287500Y-10701500D01*
X8250000Y-10664000D02*
X8325000Y-10664000D01*
X8497500Y-9864500D02*
X8497500Y-9939500D01*
X8460000Y-9902000D02*
X8535000Y-9902000D01*
X8497500Y-10626500D02*
X8497500Y-10701500D01*
X8460000Y-10664000D02*
X8535000Y-10664000D01*
X8710000Y-9864500D02*
X8710000Y-9939500D01*
X8672500Y-9902000D02*
X8747500Y-9902000D01*
X8710000Y-10626500D02*
X8710000Y-10701500D01*
X8672500Y-10664000D02*
X8747500Y-10664000D01*
X8922500Y-9864500D02*
X8922500Y-9939500D01*
X8885000Y-9902000D02*
X8960000Y-9902000D01*
X8922500Y-10626500D02*
X8922500Y-10701500D01*
X8885000Y-10664000D02*
X8960000Y-10664000D01*
X9135000Y-9864500D02*
X9135000Y-9939500D01*
X9097500Y-9902000D02*
X9172500Y-9902000D01*
X9135000Y-10626500D02*
X9135000Y-10701500D01*
X9097500Y-10664000D02*
X9172500Y-10664000D01*
X9347500Y-9864500D02*
X9347500Y-9939500D01*
X9310000Y-9902000D02*
X9385000Y-9902000D01*
X9347500Y-10626500D02*
X9347500Y-10701500D01*
X9310000Y-10664000D02*
X9385000Y-10664000D01*
X9560000Y-9864500D02*
X9560000Y-9939500D01*
X9522500Y-9902000D02*
X9597500Y-9902000D01*
X9560000Y-10626500D02*
X9560000Y-10701500D01*
X9522500Y-10664000D02*
X9597500Y-10664000D01*
X9770000Y-9864500D02*
X9770000Y-9939500D01*
X9732500Y-9902000D02*
X9807500Y-9902000D01*
X9770000Y-10626500D02*
X9770000Y-10701500D01*
X9732500Y-10664000D02*
X9807500Y-10664000D01*
X9980000Y-9864500D02*
X9980000Y-9939500D01*
X9942500Y-9902000D02*
X10017500Y-9902000D01*
X9980000Y-10626500D02*
X9980000Y-10701500D01*
X9942500Y-10664000D02*
X10017500Y-10664000D01*
X6425784Y-8645785D02*
X6425784Y-8589216D01*
X6369215Y-8589216D01*
X6369215Y-8645785D01*
X6425784Y-8645785D01*
X6425784Y-9145785D02*
X6425784Y-9089216D01*
X6369215Y-9089216D01*
X6369215Y-9145785D01*
X6425784Y-9145785D01*
X6720784Y-8126784D02*
X6720784Y-8070215D01*
X6664215Y-8070215D01*
X6664215Y-8126784D01*
X6720784Y-8126784D01*
X6720784Y-9650785D02*
X6720784Y-9594216D01*
X6664215Y-9594216D01*
X6664215Y-9650785D01*
X6720784Y-9650785D01*
X6974784Y-8126784D02*
X6974784Y-8070215D01*
X6918215Y-8070215D01*
X6918215Y-8126784D01*
X6974784Y-8126784D01*
X6974784Y-9650785D02*
X6974784Y-9594216D01*
X6918215Y-9594216D01*
X6918215Y-9650785D01*
X6974784Y-9650785D01*
X7228784Y-8126784D02*
X7228784Y-8070215D01*
X7172215Y-8070215D01*
X7172215Y-8126784D01*
X7228784Y-8126784D01*
X7228784Y-9650785D02*
X7228784Y-9594216D01*
X7172215Y-9594216D01*
X7172215Y-9650785D01*
X7228784Y-9650785D01*
X7482784Y-8126784D02*
X7482784Y-8070215D01*
X7426215Y-8070215D01*
X7426215Y-8126784D01*
X7482784Y-8126784D01*
X7482784Y-9650785D02*
X7482784Y-9594216D01*
X7426215Y-9594216D01*
X7426215Y-9650785D01*
X7482784Y-9650785D01*
X7680784Y-7490784D02*
X7680784Y-7434215D01*
X7624215Y-7434215D01*
X7624215Y-7490784D01*
X7680784Y-7490784D01*
X7736784Y-8126784D02*
X7736784Y-8070215D01*
X7680215Y-8070215D01*
X7680215Y-8126784D01*
X7736784Y-8126784D01*
X7736784Y-9650785D02*
X7736784Y-9594216D01*
X7680215Y-9594216D01*
X7680215Y-9650785D01*
X7736784Y-9650785D01*
X7880784Y-7490784D02*
X7880784Y-7434215D01*
X7824215Y-7434215D01*
X7824215Y-7490784D01*
X7880784Y-7490784D01*
X7990784Y-8126784D02*
X7990784Y-8070215D01*
X7934215Y-8070215D01*
X7934215Y-8126784D01*
X7990784Y-8126784D01*
X7990784Y-9650785D02*
X7990784Y-9594216D01*
X7934215Y-9594216D01*
X7934215Y-9650785D01*
X7990784Y-9650785D01*
X8244784Y-8126784D02*
X8244784Y-8070215D01*
X8188215Y-8070215D01*
X8188215Y-8126784D01*
X8244784Y-8126784D01*
X8244784Y-9650785D02*
X8244784Y-9594216D01*
X8188215Y-9594216D01*
X8188215Y-9650785D01*
X8244784Y-9650785D01*
X8498785Y-8126784D02*
X8498785Y-8070215D01*
X8442216Y-8070215D01*
X8442216Y-8126784D01*
X8498785Y-8126784D01*
X8498785Y-9650785D02*
X8498785Y-9594216D01*
X8442216Y-9594216D01*
X8442216Y-9650785D01*
X8498785Y-9650785D01*
X8752785Y-8126784D02*
X8752785Y-8070215D01*
X8696216Y-8070215D01*
X8696216Y-8126784D01*
X8752785Y-8126784D01*
X8752785Y-9650785D02*
X8752785Y-9594216D01*
X8696216Y-9594216D01*
X8696216Y-9650785D01*
X8752785Y-9650785D01*
X9006785Y-8126784D02*
X9006785Y-8070215D01*
X8950216Y-8070215D01*
X8950216Y-8126784D01*
X9006785Y-8126784D01*
X9006785Y-9650785D02*
X9006785Y-9594216D01*
X8950216Y-9594216D01*
X8950216Y-9650785D01*
X9006785Y-9650785D01*
X9260785Y-8126784D02*
X9260785Y-8070215D01*
X9204216Y-8070215D01*
X9204216Y-8126784D01*
X9260785Y-8126784D01*
X9260785Y-9650785D02*
X9260785Y-9594216D01*
X9204216Y-9594216D01*
X9204216Y-9650785D01*
X9260785Y-9650785D01*
X9514785Y-8126784D02*
X9514785Y-8070215D01*
X9458216Y-8070215D01*
X9458216Y-8126784D01*
X9514785Y-8126784D01*
X9514785Y-9650785D02*
X9514785Y-9594216D01*
X9458216Y-9594216D01*
X9458216Y-9650785D01*
X9514785Y-9650785D01*
X9677385Y-5989284D02*
X9677385Y-5932715D01*
X9620816Y-5932715D01*
X9620816Y-5989284D01*
X9677385Y-5989284D01*
X9677385Y-7513284D02*
X9677385Y-7456715D01*
X9620816Y-7456715D01*
X9620816Y-7513284D01*
X9677385Y-7513284D01*
X9768785Y-8126784D02*
X9768785Y-8070215D01*
X9712216Y-8070215D01*
X9712216Y-8126784D01*
X9768785Y-8126784D01*
X9768785Y-9650785D02*
X9768785Y-9594216D01*
X9712216Y-9594216D01*
X9712216Y-9650785D01*
X9768785Y-9650785D01*
X9931385Y-5989284D02*
X9931385Y-5932715D01*
X9874816Y-5932715D01*
X9874816Y-5989284D01*
X9931385Y-5989284D01*
X9931385Y-7513284D02*
X9931385Y-7456715D01*
X9874816Y-7456715D01*
X9874816Y-7513284D01*
X9931385Y-7513284D01*
X10022785Y-8126784D02*
X10022785Y-8070215D01*
X9966216Y-8070215D01*
X9966216Y-8126784D01*
X10022785Y-8126784D01*
X10022785Y-9650785D02*
X10022785Y-9594216D01*
X9966216Y-9594216D01*
X9966216Y-9650785D01*
X10022785Y-9650785D01*
X10185385Y-5989284D02*
X10185385Y-5932715D01*
X10128816Y-5932715D01*
X10128816Y-5989284D01*
X10185385Y-5989284D01*
X10185385Y-7513284D02*
X10185385Y-7456715D01*
X10128816Y-7456715D01*
X10128816Y-7513284D01*
X10185385Y-7513284D01*
X10276785Y-8126784D02*
X10276785Y-8070215D01*
X10220216Y-8070215D01*
X10220216Y-8126784D01*
X10276785Y-8126784D01*
X10276785Y-9650785D02*
X10276785Y-9594216D01*
X10220216Y-9594216D01*
X10220216Y-9650785D01*
X10276785Y-9650785D01*
X10439385Y-5989284D02*
X10439385Y-5932715D01*
X10382816Y-5932715D01*
X10382816Y-5989284D01*
X10439385Y-5989284D01*
X10439385Y-7513284D02*
X10439385Y-7456715D01*
X10382816Y-7456715D01*
X10382816Y-7513284D01*
X10439385Y-7513284D01*
X10530785Y-8126784D02*
X10530785Y-8070215D01*
X10474216Y-8070215D01*
X10474216Y-8126784D01*
X10530785Y-8126784D01*
X10530785Y-9650785D02*
X10530785Y-9594216D01*
X10474216Y-9594216D01*
X10474216Y-9650785D01*
X10530785Y-9650785D01*
X10693385Y-5989284D02*
X10693385Y-5932715D01*
X10636816Y-5932715D01*
X10636816Y-5989284D01*
X10693385Y-5989284D01*
X10693385Y-7513284D02*
X10693385Y-7456715D01*
X10636816Y-7456715D01*
X10636816Y-7513284D01*
X10693385Y-7513284D01*
X10784785Y-8126784D02*
X10784785Y-8070215D01*
X10728216Y-8070215D01*
X10728216Y-8126784D01*
X10784785Y-8126784D01*
X10784785Y-9650785D02*
X10784785Y-9594216D01*
X10728216Y-9594216D01*
X10728216Y-9650785D01*
X10784785Y-9650785D01*
X10947385Y-5989284D02*
X10947385Y-5932715D01*
X10890816Y-5932715D01*
X10890816Y-5989284D01*
X10947385Y-5989284D01*
X10947385Y-7513284D02*
X10947385Y-7456715D01*
X10890816Y-7456715D01*
X10890816Y-7513284D01*
X10947385Y-7513284D01*
X11038785Y-8126784D02*
X11038785Y-8070215D01*
X10982216Y-8070215D01*
X10982216Y-8126784D01*
X11038785Y-8126784D01*
X11038785Y-9650785D02*
X11038785Y-9594216D01*
X10982216Y-9594216D01*
X10982216Y-9650785D01*
X11038785Y-9650785D01*
X11201384Y-5989284D02*
X11201384Y-5932715D01*
X11144816Y-5932715D01*
X11144816Y-5989284D01*
X11201384Y-5989284D01*
X11201384Y-7513284D02*
X11201384Y-7456715D01*
X11144816Y-7456715D01*
X11144816Y-7513284D01*
X11201384Y-7513284D01*
X11202784Y-10305785D02*
X11202784Y-10249216D01*
X11146216Y-10249216D01*
X11146216Y-10305785D01*
X11202784Y-10305785D01*
X11292784Y-8126784D02*
X11292784Y-8070215D01*
X11236215Y-8070215D01*
X11236215Y-8126784D01*
X11292784Y-8126784D01*
X11292784Y-9650785D02*
X11292784Y-9594216D01*
X11236215Y-9594216D01*
X11236215Y-9650785D01*
X11292784Y-9650785D01*
X11456784Y-10305785D02*
X11456784Y-10249216D01*
X11400215Y-10249216D01*
X11400215Y-10305785D01*
X11456784Y-10305785D01*
X11546784Y-8126784D02*
X11546784Y-8070215D01*
X11490215Y-8070215D01*
X11490215Y-8126784D01*
X11546784Y-8126784D01*
X11546784Y-9650785D02*
X11546784Y-9594216D01*
X11490215Y-9594216D01*
X11490215Y-9650785D01*
X11546784Y-9650785D01*
X11710784Y-10305785D02*
X11710784Y-10249216D01*
X11654215Y-10249216D01*
X11654215Y-10305785D01*
X11710784Y-10305785D01*
X11940784Y-8480785D02*
X11940784Y-8424216D01*
X11884215Y-8424216D01*
X11884215Y-8480785D01*
X11940784Y-8480785D01*
X11940784Y-9160785D02*
X11940784Y-9104216D01*
X11884215Y-9104216D01*
X11884215Y-9160785D01*
X11940784Y-9160785D01*
X12220784Y-8480785D02*
X12220784Y-8424216D01*
X12164215Y-8424216D01*
X12164215Y-8480785D01*
X12220784Y-8480785D01*
X12220784Y-8690785D02*
X12220784Y-8634216D01*
X12164215Y-8634216D01*
X12164215Y-8690785D01*
X12220784Y-8690785D01*
X12220784Y-8950785D02*
X12220784Y-8894216D01*
X12164215Y-8894216D01*
X12164215Y-8950785D01*
X12220784Y-8950785D01*
X12220784Y-9160785D02*
X12220784Y-9104216D01*
X12164215Y-9104216D01*
X12164215Y-9160785D01*
X12220784Y-9160785D01*
X10571000Y-11255000D02*
X10616000Y-11210000D01*
X10571000Y-11165000D01*
X10526000Y-11210000D01*
X10571000Y-11255000D01*
X10825000Y-11255000D02*
X10870000Y-11210000D01*
X10825000Y-11165000D01*
X10780000Y-11210000D01*
X10825000Y-11255000D01*
X11112500Y-11255000D02*
X11157500Y-11210000D01*
X11112500Y-11165000D01*
X11067500Y-11210000D01*
X11112500Y-11255000D01*
X11366500Y-11255000D02*
X11411500Y-11210000D01*
X11366500Y-11165000D01*
X11321500Y-11210000D01*
X11366500Y-11255000D01*
X11643500Y-11255000D02*
X11688500Y-11210000D01*
X11643500Y-11165000D01*
X11598500Y-11210000D01*
X11643500Y-11255000D01*
X11897500Y-11255000D02*
X11942500Y-11210000D01*
X11897500Y-11165000D01*
X11852500Y-11210000D01*
X11897500Y-11255000D01*
X4825500Y-10905000D02*
X4925500Y-11005000D01*
X4925500Y-10905000D02*
X4825500Y-11005000D01*
X4925500Y-10955000D02*
G75*
G03*
X4825500Y-10955000I-50000J0D01*
G01*
X4825500Y-10955000D02*
G75*
G03*
X4925500Y-10955000I50000J0D01*
G01*
X4825500Y-11315000D02*
X4925500Y-11415000D01*
X4925500Y-11315000D02*
X4825500Y-11415000D01*
X4925500Y-11365000D02*
G75*
G03*
X4825500Y-11365000I-50000J0D01*
G01*
X4825500Y-11365000D02*
G75*
G03*
X4925500Y-11365000I50000J0D01*
G01*
X5079500Y-10905000D02*
X5179500Y-11005000D01*
X5179500Y-10905000D02*
X5079500Y-11005000D01*
X5179500Y-10955000D02*
G75*
G03*
X5079500Y-10955000I-50000J0D01*
G01*
X5079500Y-10955000D02*
G75*
G03*
X5179500Y-10955000I50000J0D01*
G01*
X5079500Y-11315000D02*
X5179500Y-11415000D01*
X5179500Y-11315000D02*
X5079500Y-11415000D01*
X5179500Y-11365000D02*
G75*
G03*
X5079500Y-11365000I-50000J0D01*
G01*
X5079500Y-11365000D02*
G75*
G03*
X5179500Y-11365000I50000J0D01*
G01*
X5333500Y-10905000D02*
X5433500Y-11005000D01*
X5433500Y-10905000D02*
X5333500Y-11005000D01*
X5433500Y-10955000D02*
G75*
G03*
X5333500Y-10955000I-50000J0D01*
G01*
X5333500Y-10955000D02*
G75*
G03*
X5433500Y-10955000I50000J0D01*
G01*
X5333500Y-11315000D02*
X5433500Y-11415000D01*
X5433500Y-11315000D02*
X5333500Y-11415000D01*
X5433500Y-11365000D02*
G75*
G03*
X5333500Y-11365000I-50000J0D01*
G01*
X5333500Y-11365000D02*
G75*
G03*
X5433500Y-11365000I50000J0D01*
G01*
X5587500Y-10905000D02*
X5687500Y-11005000D01*
X5687500Y-10905000D02*
X5587500Y-11005000D01*
X5687500Y-10955000D02*
G75*
G03*
X5587500Y-10955000I-50000J0D01*
G01*
X5587500Y-10955000D02*
G75*
G03*
X5687500Y-10955000I50000J0D01*
G01*
X5587500Y-11315000D02*
X5687500Y-11415000D01*
X5687500Y-11315000D02*
X5587500Y-11415000D01*
X5687500Y-11365000D02*
G75*
G03*
X5587500Y-11365000I-50000J0D01*
G01*
X5587500Y-11365000D02*
G75*
G03*
X5687500Y-11365000I50000J0D01*
G01*
X5841500Y-10905000D02*
X5941500Y-11005000D01*
X5941500Y-10905000D02*
X5841500Y-11005000D01*
X5941500Y-10955000D02*
G75*
G03*
X5841500Y-10955000I-50000J0D01*
G01*
X5841500Y-10955000D02*
G75*
G03*
X5941500Y-10955000I50000J0D01*
G01*
X5841500Y-11315000D02*
X5941500Y-11415000D01*
X5941500Y-11315000D02*
X5841500Y-11415000D01*
X5941500Y-11365000D02*
G75*
G03*
X5841500Y-11365000I-50000J0D01*
G01*
X5841500Y-11365000D02*
G75*
G03*
X5941500Y-11365000I50000J0D01*
G01*
X6095500Y-10905000D02*
X6195500Y-11005000D01*
X6195500Y-10905000D02*
X6095500Y-11005000D01*
X6195500Y-10955000D02*
G75*
G03*
X6095500Y-10955000I-50000J0D01*
G01*
X6095500Y-10955000D02*
G75*
G03*
X6195500Y-10955000I50000J0D01*
G01*
X6095500Y-11315000D02*
X6195500Y-11415000D01*
X6195500Y-11315000D02*
X6095500Y-11415000D01*
X6195500Y-11365000D02*
G75*
G03*
X6095500Y-11365000I-50000J0D01*
G01*
X6095500Y-11365000D02*
G75*
G03*
X6195500Y-11365000I50000J0D01*
G01*
X6349500Y-10905000D02*
X6449500Y-11005000D01*
X6449500Y-10905000D02*
X6349500Y-11005000D01*
X6449500Y-10955000D02*
G75*
G03*
X6349500Y-10955000I-50000J0D01*
G01*
X6349500Y-10955000D02*
G75*
G03*
X6449500Y-10955000I50000J0D01*
G01*
X6349500Y-11315000D02*
X6449500Y-11415000D01*
X6449500Y-11315000D02*
X6349500Y-11415000D01*
X6449500Y-11365000D02*
G75*
G03*
X6349500Y-11365000I-50000J0D01*
G01*
X6349500Y-11365000D02*
G75*
G03*
X6449500Y-11365000I50000J0D01*
G01*
X6603500Y-10905000D02*
X6703500Y-11005000D01*
X6703500Y-10905000D02*
X6603500Y-11005000D01*
X6703500Y-10955000D02*
G75*
G03*
X6603500Y-10955000I-50000J0D01*
G01*
X6603500Y-10955000D02*
G75*
G03*
X6703500Y-10955000I50000J0D01*
G01*
X6603500Y-11315000D02*
X6703500Y-11415000D01*
X6703500Y-11315000D02*
X6603500Y-11415000D01*
X6703500Y-11365000D02*
G75*
G03*
X6603500Y-11365000I-50000J0D01*
G01*
X6603500Y-11365000D02*
G75*
G03*
X6703500Y-11365000I50000J0D01*
G01*
X6857500Y-10905000D02*
X6957500Y-11005000D01*
X6957500Y-10905000D02*
X6857500Y-11005000D01*
X6957500Y-10955000D02*
G75*
G03*
X6857500Y-10955000I-50000J0D01*
G01*
X6857500Y-10955000D02*
G75*
G03*
X6957500Y-10955000I50000J0D01*
G01*
X6857500Y-11315000D02*
X6957500Y-11415000D01*
X6957500Y-11315000D02*
X6857500Y-11415000D01*
X6957500Y-11365000D02*
G75*
G03*
X6857500Y-11365000I-50000J0D01*
G01*
X6857500Y-11365000D02*
G75*
G03*
X6957500Y-11365000I50000J0D01*
G01*
X7111500Y-10905000D02*
X7211500Y-11005000D01*
X7211500Y-10905000D02*
X7111500Y-11005000D01*
X7211500Y-10955000D02*
G75*
G03*
X7111500Y-10955000I-50000J0D01*
G01*
X7111500Y-10955000D02*
G75*
G03*
X7211500Y-10955000I50000J0D01*
G01*
X7111500Y-11315000D02*
X7211500Y-11415000D01*
X7211500Y-11315000D02*
X7111500Y-11415000D01*
X7211500Y-11365000D02*
G75*
G03*
X7111500Y-11365000I-50000J0D01*
G01*
X7111500Y-11365000D02*
G75*
G03*
X7211500Y-11365000I50000J0D01*
G01*
X7365500Y-10905000D02*
X7465500Y-11005000D01*
X7465500Y-10905000D02*
X7365500Y-11005000D01*
X7465500Y-10955000D02*
G75*
G03*
X7365500Y-10955000I-50000J0D01*
G01*
X7365500Y-10955000D02*
G75*
G03*
X7465500Y-10955000I50000J0D01*
G01*
X7365500Y-11315000D02*
X7465500Y-11415000D01*
X7465500Y-11315000D02*
X7365500Y-11415000D01*
X7465500Y-11365000D02*
G75*
G03*
X7365500Y-11365000I-50000J0D01*
G01*
X7365500Y-11365000D02*
G75*
G03*
X7465500Y-11365000I50000J0D01*
G01*
X7619500Y-10905000D02*
X7719500Y-11005000D01*
X7719500Y-10905000D02*
X7619500Y-11005000D01*
X7719500Y-10955000D02*
G75*
G03*
X7619500Y-10955000I-50000J0D01*
G01*
X7619500Y-10955000D02*
G75*
G03*
X7719500Y-10955000I50000J0D01*
G01*
X7619500Y-11315000D02*
X7719500Y-11415000D01*
X7719500Y-11315000D02*
X7619500Y-11415000D01*
X7719500Y-11365000D02*
G75*
G03*
X7619500Y-11365000I-50000J0D01*
G01*
X7619500Y-11365000D02*
G75*
G03*
X7719500Y-11365000I50000J0D01*
G01*
X7873500Y-10905000D02*
X7973500Y-11005000D01*
X7973500Y-10905000D02*
X7873500Y-11005000D01*
X7973500Y-10955000D02*
G75*
G03*
X7873500Y-10955000I-50000J0D01*
G01*
X7873500Y-10955000D02*
G75*
G03*
X7973500Y-10955000I50000J0D01*
G01*
X7873500Y-11315000D02*
X7973500Y-11415000D01*
X7973500Y-11315000D02*
X7873500Y-11415000D01*
X7973500Y-11365000D02*
G75*
G03*
X7873500Y-11365000I-50000J0D01*
G01*
X7873500Y-11365000D02*
G75*
G03*
X7973500Y-11365000I50000J0D01*
G01*
X8127500Y-10905000D02*
X8227500Y-11005000D01*
X8227500Y-10905000D02*
X8127500Y-11005000D01*
X8227500Y-10955000D02*
G75*
G03*
X8127500Y-10955000I-50000J0D01*
G01*
X8127500Y-10955000D02*
G75*
G03*
X8227500Y-10955000I50000J0D01*
G01*
X8127500Y-11315000D02*
X8227500Y-11415000D01*
X8227500Y-11315000D02*
X8127500Y-11415000D01*
X8227500Y-11365000D02*
G75*
G03*
X8127500Y-11365000I-50000J0D01*
G01*
X8127500Y-11365000D02*
G75*
G03*
X8227500Y-11365000I50000J0D01*
G01*
X8381500Y-10905000D02*
X8481500Y-11005000D01*
X8481500Y-10905000D02*
X8381500Y-11005000D01*
X8481500Y-10955000D02*
G75*
G03*
X8381500Y-10955000I-50000J0D01*
G01*
X8381500Y-10955000D02*
G75*
G03*
X8481500Y-10955000I50000J0D01*
G01*
X8381500Y-11315000D02*
X8481500Y-11415000D01*
X8481500Y-11315000D02*
X8381500Y-11415000D01*
X8481500Y-11365000D02*
G75*
G03*
X8381500Y-11365000I-50000J0D01*
G01*
X8381500Y-11365000D02*
G75*
G03*
X8481500Y-11365000I50000J0D01*
G01*
X8420000Y-6180000D02*
X8520000Y-6280000D01*
X8520000Y-6180000D02*
X8420000Y-6280000D01*
X8520000Y-6230000D02*
G75*
G03*
X8420000Y-6230000I-50000J0D01*
G01*
X8420000Y-6230000D02*
G75*
G03*
X8520000Y-6230000I50000J0D01*
G01*
X8420000Y-7704000D02*
X8520000Y-7804000D01*
X8520000Y-7704000D02*
X8420000Y-7804000D01*
X8520000Y-7754000D02*
G75*
G03*
X8420000Y-7754000I-50000J0D01*
G01*
X8420000Y-7754000D02*
G75*
G03*
X8520000Y-7754000I50000J0D01*
G01*
X8635500Y-10905000D02*
X8735500Y-11005000D01*
X8735500Y-10905000D02*
X8635500Y-11005000D01*
X8735500Y-10955000D02*
G75*
G03*
X8635500Y-10955000I-50000J0D01*
G01*
X8635500Y-10955000D02*
G75*
G03*
X8735500Y-10955000I50000J0D01*
G01*
X8635500Y-11315000D02*
X8735500Y-11415000D01*
X8735500Y-11315000D02*
X8635500Y-11415000D01*
X8735500Y-11365000D02*
G75*
G03*
X8635500Y-11365000I-50000J0D01*
G01*
X8635500Y-11365000D02*
G75*
G03*
X8735500Y-11365000I50000J0D01*
G01*
X8674000Y-6180000D02*
X8774000Y-6280000D01*
X8774000Y-6180000D02*
X8674000Y-6280000D01*
X8774000Y-6230000D02*
G75*
G03*
X8674000Y-6230000I-50000J0D01*
G01*
X8674000Y-6230000D02*
G75*
G03*
X8774000Y-6230000I50000J0D01*
G01*
X8674000Y-7704000D02*
X8774000Y-7804000D01*
X8774000Y-7704000D02*
X8674000Y-7804000D01*
X8774000Y-7754000D02*
G75*
G03*
X8674000Y-7754000I-50000J0D01*
G01*
X8674000Y-7754000D02*
G75*
G03*
X8774000Y-7754000I50000J0D01*
G01*
X8889500Y-10905000D02*
X8989500Y-11005000D01*
X8989500Y-10905000D02*
X8889500Y-11005000D01*
X8989500Y-10955000D02*
G75*
G03*
X8889500Y-10955000I-50000J0D01*
G01*
X8889500Y-10955000D02*
G75*
G03*
X8989500Y-10955000I50000J0D01*
G01*
X8889500Y-11315000D02*
X8989500Y-11415000D01*
X8989500Y-11315000D02*
X8889500Y-11415000D01*
X8989500Y-11365000D02*
G75*
G03*
X8889500Y-11365000I-50000J0D01*
G01*
X8889500Y-11365000D02*
G75*
G03*
X8989500Y-11365000I50000J0D01*
G01*
X8928000Y-6180000D02*
X9028000Y-6280000D01*
X9028000Y-6180000D02*
X8928000Y-6280000D01*
X9028000Y-6230000D02*
G75*
G03*
X8928000Y-6230000I-50000J0D01*
G01*
X8928000Y-6230000D02*
G75*
G03*
X9028000Y-6230000I50000J0D01*
G01*
X8928000Y-7704000D02*
X9028000Y-7804000D01*
X9028000Y-7704000D02*
X8928000Y-7804000D01*
X9028000Y-7754000D02*
G75*
G03*
X8928000Y-7754000I-50000J0D01*
G01*
X8928000Y-7754000D02*
G75*
G03*
X9028000Y-7754000I50000J0D01*
G01*
X9143500Y-10905000D02*
X9243500Y-11005000D01*
X9243500Y-10905000D02*
X9143500Y-11005000D01*
X9243500Y-10955000D02*
G75*
G03*
X9143500Y-10955000I-50000J0D01*
G01*
X9143500Y-10955000D02*
G75*
G03*
X9243500Y-10955000I50000J0D01*
G01*
X9143500Y-11315000D02*
X9243500Y-11415000D01*
X9243500Y-11315000D02*
X9143500Y-11415000D01*
X9243500Y-11365000D02*
G75*
G03*
X9143500Y-11365000I-50000J0D01*
G01*
X9143500Y-11365000D02*
G75*
G03*
X9243500Y-11365000I50000J0D01*
G01*
X9182000Y-6180000D02*
X9282000Y-6280000D01*
X9282000Y-6180000D02*
X9182000Y-6280000D01*
X9282000Y-6230000D02*
G75*
G03*
X9182000Y-6230000I-50000J0D01*
G01*
X9182000Y-6230000D02*
G75*
G03*
X9282000Y-6230000I50000J0D01*
G01*
X9182000Y-7704000D02*
X9282000Y-7804000D01*
X9282000Y-7704000D02*
X9182000Y-7804000D01*
X9282000Y-7754000D02*
G75*
G03*
X9182000Y-7754000I-50000J0D01*
G01*
X9182000Y-7754000D02*
G75*
G03*
X9282000Y-7754000I50000J0D01*
G01*
X9397500Y-10905000D02*
X9497500Y-11005000D01*
X9497500Y-10905000D02*
X9397500Y-11005000D01*
X9497500Y-10955000D02*
G75*
G03*
X9397500Y-10955000I-50000J0D01*
G01*
X9397500Y-10955000D02*
G75*
G03*
X9497500Y-10955000I50000J0D01*
G01*
X9397500Y-11315000D02*
X9497500Y-11415000D01*
X9497500Y-11315000D02*
X9397500Y-11415000D01*
X9497500Y-11365000D02*
G75*
G03*
X9397500Y-11365000I-50000J0D01*
G01*
X9397500Y-11365000D02*
G75*
G03*
X9497500Y-11365000I50000J0D01*
G01*
X9436000Y-6180000D02*
X9536000Y-6280000D01*
X9536000Y-6180000D02*
X9436000Y-6280000D01*
X9536000Y-6230000D02*
G75*
G03*
X9436000Y-6230000I-50000J0D01*
G01*
X9436000Y-6230000D02*
G75*
G03*
X9536000Y-6230000I50000J0D01*
G01*
X9436000Y-7704000D02*
X9536000Y-7804000D01*
X9536000Y-7704000D02*
X9436000Y-7804000D01*
X9536000Y-7754000D02*
G75*
G03*
X9436000Y-7754000I-50000J0D01*
G01*
X9436000Y-7754000D02*
G75*
G03*
X9536000Y-7754000I50000J0D01*
G01*
X9651500Y-10905000D02*
X9751500Y-11005000D01*
X9751500Y-10905000D02*
X9651500Y-11005000D01*
X9751500Y-10955000D02*
G75*
G03*
X9651500Y-10955000I-50000J0D01*
G01*
X9651500Y-10955000D02*
G75*
G03*
X9751500Y-10955000I50000J0D01*
G01*
X9651500Y-11315000D02*
X9751500Y-11415000D01*
X9751500Y-11315000D02*
X9651500Y-11415000D01*
X9751500Y-11365000D02*
G75*
G03*
X9651500Y-11365000I-50000J0D01*
G01*
X9651500Y-11365000D02*
G75*
G03*
X9751500Y-11365000I50000J0D01*
G01*
X9690000Y-6180000D02*
X9790000Y-6280000D01*
X9790000Y-6180000D02*
X9690000Y-6280000D01*
X9790000Y-6230000D02*
G75*
G03*
X9690000Y-6230000I-50000J0D01*
G01*
X9690000Y-6230000D02*
G75*
G03*
X9790000Y-6230000I50000J0D01*
G01*
X9690000Y-7704000D02*
X9790000Y-7804000D01*
X9790000Y-7704000D02*
X9690000Y-7804000D01*
X9790000Y-7754000D02*
G75*
G03*
X9690000Y-7754000I-50000J0D01*
G01*
X9690000Y-7754000D02*
G75*
G03*
X9790000Y-7754000I50000J0D01*
G01*
X9905500Y-10905000D02*
X10005500Y-11005000D01*
X10005500Y-10905000D02*
X9905500Y-11005000D01*
X10005500Y-10955000D02*
G75*
G03*
X9905500Y-10955000I-50000J0D01*
G01*
X9905500Y-10955000D02*
G75*
G03*
X10005500Y-10955000I50000J0D01*
G01*
X9905500Y-11315000D02*
X10005500Y-11415000D01*
X10005500Y-11315000D02*
X9905500Y-11415000D01*
X10005500Y-11365000D02*
G75*
G03*
X9905500Y-11365000I-50000J0D01*
G01*
X9905500Y-11365000D02*
G75*
G03*
X10005500Y-11365000I50000J0D01*
G01*
X9944000Y-6180000D02*
X10044000Y-6280000D01*
X10044000Y-6180000D02*
X9944000Y-6280000D01*
X10044000Y-6230000D02*
G75*
G03*
X9944000Y-6230000I-50000J0D01*
G01*
X9944000Y-6230000D02*
G75*
G03*
X10044000Y-6230000I50000J0D01*
G01*
X9944000Y-7704000D02*
X10044000Y-7804000D01*
X10044000Y-7704000D02*
X9944000Y-7804000D01*
X10044000Y-7754000D02*
G75*
G03*
X9944000Y-7754000I-50000J0D01*
G01*
X9944000Y-7754000D02*
G75*
G03*
X10044000Y-7754000I50000J0D01*
G01*
X10159500Y-10905000D02*
X10259500Y-11005000D01*
X10259500Y-10905000D02*
X10159500Y-11005000D01*
X10259500Y-10955000D02*
G75*
G03*
X10159500Y-10955000I-50000J0D01*
G01*
X10159500Y-10955000D02*
G75*
G03*
X10259500Y-10955000I50000J0D01*
G01*
X10159500Y-11315000D02*
X10259500Y-11415000D01*
X10259500Y-11315000D02*
X10159500Y-11415000D01*
X10259500Y-11365000D02*
G75*
G03*
X10159500Y-11365000I-50000J0D01*
G01*
X10159500Y-11365000D02*
G75*
G03*
X10259500Y-11365000I50000J0D01*
G01*
X10198000Y-6180000D02*
X10298000Y-6280000D01*
X10298000Y-6180000D02*
X10198000Y-6280000D01*
X10298000Y-6230000D02*
G75*
G03*
X10198000Y-6230000I-50000J0D01*
G01*
X10198000Y-6230000D02*
G75*
G03*
X10298000Y-6230000I50000J0D01*
G01*
X10198000Y-7704000D02*
X10298000Y-7804000D01*
X10298000Y-7704000D02*
X10198000Y-7804000D01*
X10298000Y-7754000D02*
G75*
G03*
X10198000Y-7754000I-50000J0D01*
G01*
X10198000Y-7754000D02*
G75*
G03*
X10298000Y-7754000I50000J0D01*
G01*
X10452000Y-6180000D02*
X10552000Y-6280000D01*
X10552000Y-6180000D02*
X10452000Y-6280000D01*
X10552000Y-6230000D02*
G75*
G03*
X10452000Y-6230000I-50000J0D01*
G01*
X10452000Y-6230000D02*
G75*
G03*
X10552000Y-6230000I50000J0D01*
G01*
X10452000Y-7704000D02*
X10552000Y-7804000D01*
X10552000Y-7704000D02*
X10452000Y-7804000D01*
X10552000Y-7754000D02*
G75*
G03*
X10452000Y-7754000I-50000J0D01*
G01*
X10452000Y-7754000D02*
G75*
G03*
X10552000Y-7754000I50000J0D01*
G01*
X10706000Y-6180000D02*
X10806000Y-6280000D01*
X10806000Y-6180000D02*
X10706000Y-6280000D01*
X10806000Y-6230000D02*
G75*
G03*
X10706000Y-6230000I-50000J0D01*
G01*
X10706000Y-6230000D02*
G75*
G03*
X10806000Y-6230000I50000J0D01*
G01*
X10706000Y-7704000D02*
X10806000Y-7804000D01*
X10806000Y-7704000D02*
X10706000Y-7804000D01*
X10806000Y-7754000D02*
G75*
G03*
X10706000Y-7754000I-50000J0D01*
G01*
X10706000Y-7754000D02*
G75*
G03*
X10806000Y-7754000I50000J0D01*
G01*
X10960000Y-6180000D02*
X11060000Y-6280000D01*
X11060000Y-6180000D02*
X10960000Y-6280000D01*
X11060000Y-6230000D02*
G75*
G03*
X10960000Y-6230000I-50000J0D01*
G01*
X10960000Y-6230000D02*
G75*
G03*
X11060000Y-6230000I50000J0D01*
G01*
X10960000Y-7704000D02*
X11060000Y-7804000D01*
X11060000Y-7704000D02*
X10960000Y-7804000D01*
X11060000Y-7754000D02*
G75*
G03*
X10960000Y-7754000I-50000J0D01*
G01*
X10960000Y-7754000D02*
G75*
G03*
X11060000Y-7754000I50000J0D01*
G01*
X11214000Y-6180000D02*
X11314000Y-6280000D01*
X11314000Y-6180000D02*
X11214000Y-6280000D01*
X11314000Y-6230000D02*
G75*
G03*
X11214000Y-6230000I-50000J0D01*
G01*
X11214000Y-6230000D02*
G75*
G03*
X11314000Y-6230000I50000J0D01*
G01*
X11214000Y-7704000D02*
X11314000Y-7804000D01*
X11314000Y-7704000D02*
X11214000Y-7804000D01*
X11314000Y-7754000D02*
G75*
G03*
X11214000Y-7754000I-50000J0D01*
G01*
X11214000Y-7754000D02*
G75*
G03*
X11314000Y-7754000I50000J0D01*
G01*
X11468000Y-6180000D02*
X11568000Y-6280000D01*
X11568000Y-6180000D02*
X11468000Y-6280000D01*
X11568000Y-6230000D02*
G75*
G03*
X11468000Y-6230000I-50000J0D01*
G01*
X11468000Y-6230000D02*
G75*
G03*
X11568000Y-6230000I50000J0D01*
G01*
X11468000Y-7704000D02*
X11568000Y-7804000D01*
X11568000Y-7704000D02*
X11468000Y-7804000D01*
X11568000Y-7754000D02*
G75*
G03*
X11468000Y-7754000I-50000J0D01*
G01*
X11468000Y-7754000D02*
G75*
G03*
X11568000Y-7754000I50000J0D01*
G01*
X11722000Y-6180000D02*
X11822000Y-6280000D01*
X11822000Y-6180000D02*
X11722000Y-6280000D01*
X11822000Y-6230000D02*
G75*
G03*
X11722000Y-6230000I-50000J0D01*
G01*
X11722000Y-6230000D02*
G75*
G03*
X11822000Y-6230000I50000J0D01*
G01*
X11722000Y-7704000D02*
X11822000Y-7804000D01*
X11822000Y-7704000D02*
X11722000Y-7804000D01*
X11822000Y-7754000D02*
G75*
G03*
X11722000Y-7754000I-50000J0D01*
G01*
X11722000Y-7754000D02*
G75*
G03*
X11822000Y-7754000I50000J0D01*
G01*
X11976000Y-6180000D02*
X12076000Y-6280000D01*
X12076000Y-6180000D02*
X11976000Y-6280000D01*
X12076000Y-6230000D02*
G75*
G03*
X11976000Y-6230000I-50000J0D01*
G01*
X11976000Y-6230000D02*
G75*
G03*
X12076000Y-6230000I50000J0D01*
G01*
X11976000Y-7704000D02*
X12076000Y-7804000D01*
X12076000Y-7704000D02*
X11976000Y-7804000D01*
X12076000Y-7754000D02*
G75*
G03*
X11976000Y-7754000I-50000J0D01*
G01*
X11976000Y-7754000D02*
G75*
G03*
X12076000Y-7754000I50000J0D01*
G01*
X12427500Y-8057500D02*
X12527500Y-8157500D01*
X12527500Y-8057500D02*
X12427500Y-8157500D01*
X12527500Y-8107500D02*
G75*
G03*
X12427500Y-8107500I-50000J0D01*
G01*
X12427500Y-8107500D02*
G75*
G03*
X12527500Y-8107500I50000J0D01*
G01*
X12402500Y-8157500D02*
X12552500Y-8157500D01*
X12552500Y-8157500D02*
G75*
G03*
X12552500Y-8057500I0J50000D01*
G01*
X12552500Y-8057500D02*
X12402500Y-8057500D01*
X12402500Y-8057500D02*
G75*
G03*
X12402500Y-8157500I0J-50000D01*
G01*
X12427500Y-9427500D02*
X12527500Y-9527500D01*
X12527500Y-9427500D02*
X12427500Y-9527500D01*
X12527500Y-9477500D02*
G75*
G03*
X12427500Y-9477500I-50000J0D01*
G01*
X12427500Y-9477500D02*
G75*
G03*
X12527500Y-9477500I50000J0D01*
G01*
X12402500Y-9527500D02*
X12552500Y-9527500D01*
X12552500Y-9527500D02*
G75*
G03*
X12552500Y-9427500I0J50000D01*
G01*
X12552500Y-9427500D02*
X12402500Y-9427500D01*
X12402500Y-9427500D02*
G75*
G03*
X12402500Y-9527500I0J-50000D01*
G01*
X12507500Y-8742500D02*
X12607500Y-8842500D01*
X12607500Y-8742500D02*
X12507500Y-8842500D01*
X12607500Y-8792500D02*
G75*
G03*
X12507500Y-8792500I-50000J0D01*
G01*
X12507500Y-8792500D02*
G75*
G03*
X12607500Y-8792500I50000J0D01*
G01*
X12607500Y-8892500D02*
X12607500Y-8692500D01*
X12607500Y-8692500D02*
G75*
G03*
X12507500Y-8692500I-50000J0D01*
G01*
X12507500Y-8692500D02*
X12507500Y-8892500D01*
X12507500Y-8892500D02*
G75*
G03*
X12607500Y-8892500I50000J0D01*
G01*
D11*
X4912690Y-11926504D02*
X4912690Y-11726504D01*
X4912690Y-11726504D02*
X4960309Y-11726504D01*
X4960309Y-11726504D02*
X4988881Y-11736028D01*
X4988881Y-11736028D02*
X5007928Y-11755076D01*
X5007928Y-11755076D02*
X5017452Y-11774123D01*
X5017452Y-11774123D02*
X5026976Y-11812218D01*
X5026976Y-11812218D02*
X5026976Y-11840790D01*
X5026976Y-11840790D02*
X5017452Y-11878885D01*
X5017452Y-11878885D02*
X5007928Y-11897933D01*
X5007928Y-11897933D02*
X4988881Y-11916980D01*
X4988881Y-11916980D02*
X4960309Y-11926504D01*
X4960309Y-11926504D02*
X4912690Y-11926504D01*
X5112690Y-11926504D02*
X5112690Y-11793171D01*
X5112690Y-11831266D02*
X5122214Y-11812218D01*
X5122214Y-11812218D02*
X5131738Y-11802695D01*
X5131738Y-11802695D02*
X5150786Y-11793171D01*
X5150786Y-11793171D02*
X5169833Y-11793171D01*
X5236500Y-11926504D02*
X5236500Y-11793171D01*
X5236500Y-11726504D02*
X5226976Y-11736028D01*
X5226976Y-11736028D02*
X5236500Y-11745552D01*
X5236500Y-11745552D02*
X5246024Y-11736028D01*
X5246024Y-11736028D02*
X5236500Y-11726504D01*
X5236500Y-11726504D02*
X5236500Y-11745552D01*
X5360309Y-11926504D02*
X5341262Y-11916980D01*
X5341262Y-11916980D02*
X5331738Y-11897933D01*
X5331738Y-11897933D02*
X5331738Y-11726504D01*
X5465071Y-11926504D02*
X5446024Y-11916980D01*
X5446024Y-11916980D02*
X5436500Y-11897933D01*
X5436500Y-11897933D02*
X5436500Y-11726504D01*
X5693643Y-11926504D02*
X5693643Y-11726504D01*
X5693643Y-11726504D02*
X5760309Y-11869361D01*
X5760309Y-11869361D02*
X5826976Y-11726504D01*
X5826976Y-11726504D02*
X5826976Y-11926504D01*
X6007928Y-11926504D02*
X6007928Y-11821742D01*
X6007928Y-11821742D02*
X5998405Y-11802695D01*
X5998405Y-11802695D02*
X5979357Y-11793171D01*
X5979357Y-11793171D02*
X5941262Y-11793171D01*
X5941262Y-11793171D02*
X5922214Y-11802695D01*
X6007928Y-11916980D02*
X5988881Y-11926504D01*
X5988881Y-11926504D02*
X5941262Y-11926504D01*
X5941262Y-11926504D02*
X5922214Y-11916980D01*
X5922214Y-11916980D02*
X5912690Y-11897933D01*
X5912690Y-11897933D02*
X5912690Y-11878885D01*
X5912690Y-11878885D02*
X5922214Y-11859837D01*
X5922214Y-11859837D02*
X5941262Y-11850314D01*
X5941262Y-11850314D02*
X5988881Y-11850314D01*
X5988881Y-11850314D02*
X6007928Y-11840790D01*
X6103166Y-11793171D02*
X6103166Y-11993171D01*
X6103166Y-11802695D02*
X6122214Y-11793171D01*
X6122214Y-11793171D02*
X6160309Y-11793171D01*
X6160309Y-11793171D02*
X6179357Y-11802695D01*
X6179357Y-11802695D02*
X6188881Y-11812218D01*
X6188881Y-11812218D02*
X6198405Y-11831266D01*
X6198405Y-11831266D02*
X6198405Y-11888409D01*
X6198405Y-11888409D02*
X6188881Y-11907456D01*
X6188881Y-11907456D02*
X6179357Y-11916980D01*
X6179357Y-11916980D02*
X6160309Y-11926504D01*
X6160309Y-11926504D02*
X6122214Y-11926504D01*
X6122214Y-11926504D02*
X6103166Y-11916980D01*
X6284119Y-11907456D02*
X6293643Y-11916980D01*
X6293643Y-11916980D02*
X6284119Y-11926504D01*
X6284119Y-11926504D02*
X6274595Y-11916980D01*
X6274595Y-11916980D02*
X6284119Y-11907456D01*
X6284119Y-11907456D02*
X6284119Y-11926504D01*
X6284119Y-11802695D02*
X6293643Y-11812218D01*
X6293643Y-11812218D02*
X6284119Y-11821742D01*
X6284119Y-11821742D02*
X6274595Y-11812218D01*
X6274595Y-11812218D02*
X6284119Y-11802695D01*
X6284119Y-11802695D02*
X6284119Y-11821742D01*
D10*
X4611914Y-12235020D02*
X4651914Y-12275020D01*
X4651914Y-12235020D02*
X4611914Y-12275020D01*
D11*
X4950786Y-12146504D02*
X4969833Y-12146504D01*
X4969833Y-12146504D02*
X4988881Y-12156028D01*
X4988881Y-12156028D02*
X4998405Y-12165552D01*
X4998405Y-12165552D02*
X5007928Y-12184599D01*
X5007928Y-12184599D02*
X5017452Y-12222695D01*
X5017452Y-12222695D02*
X5017452Y-12270314D01*
X5017452Y-12270314D02*
X5007928Y-12308409D01*
X5007928Y-12308409D02*
X4998405Y-12327456D01*
X4998405Y-12327456D02*
X4988881Y-12336980D01*
X4988881Y-12336980D02*
X4969833Y-12346504D01*
X4969833Y-12346504D02*
X4950786Y-12346504D01*
X4950786Y-12346504D02*
X4931738Y-12336980D01*
X4931738Y-12336980D02*
X4922214Y-12327456D01*
X4922214Y-12327456D02*
X4912690Y-12308409D01*
X4912690Y-12308409D02*
X4903167Y-12270314D01*
X4903167Y-12270314D02*
X4903167Y-12222695D01*
X4903167Y-12222695D02*
X4912690Y-12184599D01*
X4912690Y-12184599D02*
X4922214Y-12165552D01*
X4922214Y-12165552D02*
X4931738Y-12156028D01*
X4931738Y-12156028D02*
X4950786Y-12146504D01*
X5103167Y-12327456D02*
X5112690Y-12336980D01*
X5112690Y-12336980D02*
X5103167Y-12346504D01*
X5103167Y-12346504D02*
X5093643Y-12336980D01*
X5093643Y-12336980D02*
X5103167Y-12327456D01*
X5103167Y-12327456D02*
X5103167Y-12346504D01*
X5284119Y-12213171D02*
X5284119Y-12346504D01*
X5236500Y-12136980D02*
X5188881Y-12279837D01*
X5188881Y-12279837D02*
X5312690Y-12279837D01*
X5426976Y-12146504D02*
X5446024Y-12146504D01*
X5446024Y-12146504D02*
X5465071Y-12156028D01*
X5465071Y-12156028D02*
X5474595Y-12165552D01*
X5474595Y-12165552D02*
X5484119Y-12184599D01*
X5484119Y-12184599D02*
X5493643Y-12222695D01*
X5493643Y-12222695D02*
X5493643Y-12270314D01*
X5493643Y-12270314D02*
X5484119Y-12308409D01*
X5484119Y-12308409D02*
X5474595Y-12327456D01*
X5474595Y-12327456D02*
X5465071Y-12336980D01*
X5465071Y-12336980D02*
X5446024Y-12346504D01*
X5446024Y-12346504D02*
X5426976Y-12346504D01*
X5426976Y-12346504D02*
X5407928Y-12336980D01*
X5407928Y-12336980D02*
X5398405Y-12327456D01*
X5398405Y-12327456D02*
X5388881Y-12308409D01*
X5388881Y-12308409D02*
X5379357Y-12270314D01*
X5379357Y-12270314D02*
X5379357Y-12222695D01*
X5379357Y-12222695D02*
X5388881Y-12184599D01*
X5388881Y-12184599D02*
X5398405Y-12165552D01*
X5398405Y-12165552D02*
X5407928Y-12156028D01*
X5407928Y-12156028D02*
X5426976Y-12146504D01*
X5617452Y-12146504D02*
X5636500Y-12146504D01*
X5636500Y-12146504D02*
X5655547Y-12156028D01*
X5655547Y-12156028D02*
X5665071Y-12165552D01*
X5665071Y-12165552D02*
X5674595Y-12184599D01*
X5674595Y-12184599D02*
X5684119Y-12222695D01*
X5684119Y-12222695D02*
X5684119Y-12270314D01*
X5684119Y-12270314D02*
X5674595Y-12308409D01*
X5674595Y-12308409D02*
X5665071Y-12327456D01*
X5665071Y-12327456D02*
X5655547Y-12336980D01*
X5655547Y-12336980D02*
X5636500Y-12346504D01*
X5636500Y-12346504D02*
X5617452Y-12346504D01*
X5617452Y-12346504D02*
X5598405Y-12336980D01*
X5598405Y-12336980D02*
X5588881Y-12327456D01*
X5588881Y-12327456D02*
X5579357Y-12308409D01*
X5579357Y-12308409D02*
X5569833Y-12270314D01*
X5569833Y-12270314D02*
X5569833Y-12222695D01*
X5569833Y-12222695D02*
X5579357Y-12184599D01*
X5579357Y-12184599D02*
X5588881Y-12165552D01*
X5588881Y-12165552D02*
X5598405Y-12156028D01*
X5598405Y-12156028D02*
X5617452Y-12146504D01*
X5769833Y-12346504D02*
X5769833Y-12213171D01*
X5769833Y-12232218D02*
X5779357Y-12222695D01*
X5779357Y-12222695D02*
X5798405Y-12213171D01*
X5798405Y-12213171D02*
X5826976Y-12213171D01*
X5826976Y-12213171D02*
X5846024Y-12222695D01*
X5846024Y-12222695D02*
X5855547Y-12241742D01*
X5855547Y-12241742D02*
X5855547Y-12346504D01*
X5855547Y-12241742D02*
X5865071Y-12222695D01*
X5865071Y-12222695D02*
X5884119Y-12213171D01*
X5884119Y-12213171D02*
X5912690Y-12213171D01*
X5912690Y-12213171D02*
X5931738Y-12222695D01*
X5931738Y-12222695D02*
X5941262Y-12241742D01*
X5941262Y-12241742D02*
X5941262Y-12346504D01*
X6036500Y-12346504D02*
X6036500Y-12213171D01*
X6036500Y-12232218D02*
X6046024Y-12222695D01*
X6046024Y-12222695D02*
X6065071Y-12213171D01*
X6065071Y-12213171D02*
X6093643Y-12213171D01*
X6093643Y-12213171D02*
X6112690Y-12222695D01*
X6112690Y-12222695D02*
X6122214Y-12241742D01*
X6122214Y-12241742D02*
X6122214Y-12346504D01*
X6122214Y-12241742D02*
X6131738Y-12222695D01*
X6131738Y-12222695D02*
X6150786Y-12213171D01*
X6150786Y-12213171D02*
X6179357Y-12213171D01*
X6179357Y-12213171D02*
X6198405Y-12222695D01*
X6198405Y-12222695D02*
X6207928Y-12241742D01*
X6207928Y-12241742D02*
X6207928Y-12346504D01*
X6598405Y-12136980D02*
X6426976Y-12394123D01*
X6855548Y-12146504D02*
X6874595Y-12146504D01*
X6874595Y-12146504D02*
X6893643Y-12156028D01*
X6893643Y-12156028D02*
X6903167Y-12165552D01*
X6903167Y-12165552D02*
X6912690Y-12184599D01*
X6912690Y-12184599D02*
X6922214Y-12222695D01*
X6922214Y-12222695D02*
X6922214Y-12270314D01*
X6922214Y-12270314D02*
X6912690Y-12308409D01*
X6912690Y-12308409D02*
X6903167Y-12327456D01*
X6903167Y-12327456D02*
X6893643Y-12336980D01*
X6893643Y-12336980D02*
X6874595Y-12346504D01*
X6874595Y-12346504D02*
X6855548Y-12346504D01*
X6855548Y-12346504D02*
X6836500Y-12336980D01*
X6836500Y-12336980D02*
X6826976Y-12327456D01*
X6826976Y-12327456D02*
X6817452Y-12308409D01*
X6817452Y-12308409D02*
X6807929Y-12270314D01*
X6807929Y-12270314D02*
X6807929Y-12222695D01*
X6807929Y-12222695D02*
X6817452Y-12184599D01*
X6817452Y-12184599D02*
X6826976Y-12165552D01*
X6826976Y-12165552D02*
X6836500Y-12156028D01*
X6836500Y-12156028D02*
X6855548Y-12146504D01*
X7007929Y-12327456D02*
X7017452Y-12336980D01*
X7017452Y-12336980D02*
X7007929Y-12346504D01*
X7007929Y-12346504D02*
X6998405Y-12336980D01*
X6998405Y-12336980D02*
X7007929Y-12327456D01*
X7007929Y-12327456D02*
X7007929Y-12346504D01*
X7141262Y-12146504D02*
X7160310Y-12146504D01*
X7160310Y-12146504D02*
X7179357Y-12156028D01*
X7179357Y-12156028D02*
X7188881Y-12165552D01*
X7188881Y-12165552D02*
X7198405Y-12184599D01*
X7198405Y-12184599D02*
X7207929Y-12222695D01*
X7207929Y-12222695D02*
X7207929Y-12270314D01*
X7207929Y-12270314D02*
X7198405Y-12308409D01*
X7198405Y-12308409D02*
X7188881Y-12327456D01*
X7188881Y-12327456D02*
X7179357Y-12336980D01*
X7179357Y-12336980D02*
X7160310Y-12346504D01*
X7160310Y-12346504D02*
X7141262Y-12346504D01*
X7141262Y-12346504D02*
X7122214Y-12336980D01*
X7122214Y-12336980D02*
X7112690Y-12327456D01*
X7112690Y-12327456D02*
X7103167Y-12308409D01*
X7103167Y-12308409D02*
X7093643Y-12270314D01*
X7093643Y-12270314D02*
X7093643Y-12222695D01*
X7093643Y-12222695D02*
X7103167Y-12184599D01*
X7103167Y-12184599D02*
X7112690Y-12165552D01*
X7112690Y-12165552D02*
X7122214Y-12156028D01*
X7122214Y-12156028D02*
X7141262Y-12146504D01*
X7398405Y-12346504D02*
X7284119Y-12346504D01*
X7341262Y-12346504D02*
X7341262Y-12146504D01*
X7341262Y-12146504D02*
X7322214Y-12175076D01*
X7322214Y-12175076D02*
X7303167Y-12194123D01*
X7303167Y-12194123D02*
X7284119Y-12203647D01*
X7579357Y-12146504D02*
X7484119Y-12146504D01*
X7484119Y-12146504D02*
X7474595Y-12241742D01*
X7474595Y-12241742D02*
X7484119Y-12232218D01*
X7484119Y-12232218D02*
X7503167Y-12222695D01*
X7503167Y-12222695D02*
X7550786Y-12222695D01*
X7550786Y-12222695D02*
X7569833Y-12232218D01*
X7569833Y-12232218D02*
X7579357Y-12241742D01*
X7579357Y-12241742D02*
X7588881Y-12260790D01*
X7588881Y-12260790D02*
X7588881Y-12308409D01*
X7588881Y-12308409D02*
X7579357Y-12327456D01*
X7579357Y-12327456D02*
X7569833Y-12336980D01*
X7569833Y-12336980D02*
X7550786Y-12346504D01*
X7550786Y-12346504D02*
X7503167Y-12346504D01*
X7503167Y-12346504D02*
X7484119Y-12336980D01*
X7484119Y-12336980D02*
X7474595Y-12327456D01*
X7655548Y-12146504D02*
X7788881Y-12146504D01*
X7788881Y-12146504D02*
X7703167Y-12346504D01*
X7855548Y-12146504D02*
X7855548Y-12184599D01*
X7931738Y-12146504D02*
X7931738Y-12184599D01*
X8226976Y-12422695D02*
X8217452Y-12413171D01*
X8217452Y-12413171D02*
X8198405Y-12384599D01*
X8198405Y-12384599D02*
X8188881Y-12365552D01*
X8188881Y-12365552D02*
X8179357Y-12336980D01*
X8179357Y-12336980D02*
X8169833Y-12289361D01*
X8169833Y-12289361D02*
X8169833Y-12251266D01*
X8169833Y-12251266D02*
X8179357Y-12203647D01*
X8179357Y-12203647D02*
X8188881Y-12175076D01*
X8188881Y-12175076D02*
X8198405Y-12156028D01*
X8198405Y-12156028D02*
X8217452Y-12127456D01*
X8217452Y-12127456D02*
X8226976Y-12117933D01*
X8388881Y-12146504D02*
X8350786Y-12146504D01*
X8350786Y-12146504D02*
X8331738Y-12156028D01*
X8331738Y-12156028D02*
X8322214Y-12165552D01*
X8322214Y-12165552D02*
X8303167Y-12194123D01*
X8303167Y-12194123D02*
X8293643Y-12232218D01*
X8293643Y-12232218D02*
X8293643Y-12308409D01*
X8293643Y-12308409D02*
X8303167Y-12327456D01*
X8303167Y-12327456D02*
X8312691Y-12336980D01*
X8312691Y-12336980D02*
X8331738Y-12346504D01*
X8331738Y-12346504D02*
X8369833Y-12346504D01*
X8369833Y-12346504D02*
X8388881Y-12336980D01*
X8388881Y-12336980D02*
X8398405Y-12327456D01*
X8398405Y-12327456D02*
X8407929Y-12308409D01*
X8407929Y-12308409D02*
X8407929Y-12260790D01*
X8407929Y-12260790D02*
X8398405Y-12241742D01*
X8398405Y-12241742D02*
X8388881Y-12232218D01*
X8388881Y-12232218D02*
X8369833Y-12222695D01*
X8369833Y-12222695D02*
X8331738Y-12222695D01*
X8331738Y-12222695D02*
X8312691Y-12232218D01*
X8312691Y-12232218D02*
X8303167Y-12241742D01*
X8303167Y-12241742D02*
X8293643Y-12260790D01*
X8646024Y-12346504D02*
X8646024Y-12146504D01*
X8731738Y-12346504D02*
X8731738Y-12241742D01*
X8731738Y-12241742D02*
X8722215Y-12222695D01*
X8722215Y-12222695D02*
X8703167Y-12213171D01*
X8703167Y-12213171D02*
X8674595Y-12213171D01*
X8674595Y-12213171D02*
X8655548Y-12222695D01*
X8655548Y-12222695D02*
X8646024Y-12232218D01*
X8855548Y-12346504D02*
X8836500Y-12336980D01*
X8836500Y-12336980D02*
X8826976Y-12327456D01*
X8826976Y-12327456D02*
X8817453Y-12308409D01*
X8817453Y-12308409D02*
X8817453Y-12251266D01*
X8817453Y-12251266D02*
X8826976Y-12232218D01*
X8826976Y-12232218D02*
X8836500Y-12222695D01*
X8836500Y-12222695D02*
X8855548Y-12213171D01*
X8855548Y-12213171D02*
X8884119Y-12213171D01*
X8884119Y-12213171D02*
X8903167Y-12222695D01*
X8903167Y-12222695D02*
X8912691Y-12232218D01*
X8912691Y-12232218D02*
X8922215Y-12251266D01*
X8922215Y-12251266D02*
X8922215Y-12308409D01*
X8922215Y-12308409D02*
X8912691Y-12327456D01*
X8912691Y-12327456D02*
X8903167Y-12336980D01*
X8903167Y-12336980D02*
X8884119Y-12346504D01*
X8884119Y-12346504D02*
X8855548Y-12346504D01*
X9036500Y-12346504D02*
X9017453Y-12336980D01*
X9017453Y-12336980D02*
X9007929Y-12317933D01*
X9007929Y-12317933D02*
X9007929Y-12146504D01*
X9188881Y-12336980D02*
X9169834Y-12346504D01*
X9169834Y-12346504D02*
X9131738Y-12346504D01*
X9131738Y-12346504D02*
X9112691Y-12336980D01*
X9112691Y-12336980D02*
X9103167Y-12317933D01*
X9103167Y-12317933D02*
X9103167Y-12241742D01*
X9103167Y-12241742D02*
X9112691Y-12222695D01*
X9112691Y-12222695D02*
X9131738Y-12213171D01*
X9131738Y-12213171D02*
X9169834Y-12213171D01*
X9169834Y-12213171D02*
X9188881Y-12222695D01*
X9188881Y-12222695D02*
X9198405Y-12241742D01*
X9198405Y-12241742D02*
X9198405Y-12260790D01*
X9198405Y-12260790D02*
X9103167Y-12279837D01*
X9274596Y-12336980D02*
X9293643Y-12346504D01*
X9293643Y-12346504D02*
X9331738Y-12346504D01*
X9331738Y-12346504D02*
X9350786Y-12336980D01*
X9350786Y-12336980D02*
X9360310Y-12317933D01*
X9360310Y-12317933D02*
X9360310Y-12308409D01*
X9360310Y-12308409D02*
X9350786Y-12289361D01*
X9350786Y-12289361D02*
X9331738Y-12279837D01*
X9331738Y-12279837D02*
X9303167Y-12279837D01*
X9303167Y-12279837D02*
X9284119Y-12270314D01*
X9284119Y-12270314D02*
X9274596Y-12251266D01*
X9274596Y-12251266D02*
X9274596Y-12241742D01*
X9274596Y-12241742D02*
X9284119Y-12222695D01*
X9284119Y-12222695D02*
X9303167Y-12213171D01*
X9303167Y-12213171D02*
X9331738Y-12213171D01*
X9331738Y-12213171D02*
X9350786Y-12222695D01*
X9426977Y-12422695D02*
X9436500Y-12413171D01*
X9436500Y-12413171D02*
X9455548Y-12384599D01*
X9455548Y-12384599D02*
X9465072Y-12365552D01*
X9465072Y-12365552D02*
X9474596Y-12336980D01*
X9474596Y-12336980D02*
X9484119Y-12289361D01*
X9484119Y-12289361D02*
X9484119Y-12251266D01*
X9484119Y-12251266D02*
X9474596Y-12203647D01*
X9474596Y-12203647D02*
X9465072Y-12175076D01*
X9465072Y-12175076D02*
X9455548Y-12156028D01*
X9455548Y-12156028D02*
X9436500Y-12127456D01*
X9436500Y-12127456D02*
X9426977Y-12117933D01*
D10*
X4651914Y-12519020D02*
G75*
G03*
X4581914Y-12519020I-35000J0D01*
G01*
X4581914Y-12519020D02*
G75*
G03*
X4651914Y-12519020I35000J0D01*
G01*
D11*
X4950786Y-12410504D02*
X4969833Y-12410504D01*
X4969833Y-12410504D02*
X4988881Y-12420028D01*
X4988881Y-12420028D02*
X4998405Y-12429552D01*
X4998405Y-12429552D02*
X5007928Y-12448599D01*
X5007928Y-12448599D02*
X5017452Y-12486695D01*
X5017452Y-12486695D02*
X5017452Y-12534314D01*
X5017452Y-12534314D02*
X5007928Y-12572409D01*
X5007928Y-12572409D02*
X4998405Y-12591456D01*
X4998405Y-12591456D02*
X4988881Y-12600980D01*
X4988881Y-12600980D02*
X4969833Y-12610504D01*
X4969833Y-12610504D02*
X4950786Y-12610504D01*
X4950786Y-12610504D02*
X4931738Y-12600980D01*
X4931738Y-12600980D02*
X4922214Y-12591456D01*
X4922214Y-12591456D02*
X4912690Y-12572409D01*
X4912690Y-12572409D02*
X4903167Y-12534314D01*
X4903167Y-12534314D02*
X4903167Y-12486695D01*
X4903167Y-12486695D02*
X4912690Y-12448599D01*
X4912690Y-12448599D02*
X4922214Y-12429552D01*
X4922214Y-12429552D02*
X4931738Y-12420028D01*
X4931738Y-12420028D02*
X4950786Y-12410504D01*
X5103167Y-12591456D02*
X5112690Y-12600980D01*
X5112690Y-12600980D02*
X5103167Y-12610504D01*
X5103167Y-12610504D02*
X5093643Y-12600980D01*
X5093643Y-12600980D02*
X5103167Y-12591456D01*
X5103167Y-12591456D02*
X5103167Y-12610504D01*
X5179357Y-12410504D02*
X5312690Y-12410504D01*
X5312690Y-12410504D02*
X5226976Y-12610504D01*
X5426976Y-12410504D02*
X5446024Y-12410504D01*
X5446024Y-12410504D02*
X5465071Y-12420028D01*
X5465071Y-12420028D02*
X5474595Y-12429552D01*
X5474595Y-12429552D02*
X5484119Y-12448599D01*
X5484119Y-12448599D02*
X5493643Y-12486695D01*
X5493643Y-12486695D02*
X5493643Y-12534314D01*
X5493643Y-12534314D02*
X5484119Y-12572409D01*
X5484119Y-12572409D02*
X5474595Y-12591456D01*
X5474595Y-12591456D02*
X5465071Y-12600980D01*
X5465071Y-12600980D02*
X5446024Y-12610504D01*
X5446024Y-12610504D02*
X5426976Y-12610504D01*
X5426976Y-12610504D02*
X5407928Y-12600980D01*
X5407928Y-12600980D02*
X5398405Y-12591456D01*
X5398405Y-12591456D02*
X5388881Y-12572409D01*
X5388881Y-12572409D02*
X5379357Y-12534314D01*
X5379357Y-12534314D02*
X5379357Y-12486695D01*
X5379357Y-12486695D02*
X5388881Y-12448599D01*
X5388881Y-12448599D02*
X5398405Y-12429552D01*
X5398405Y-12429552D02*
X5407928Y-12420028D01*
X5407928Y-12420028D02*
X5426976Y-12410504D01*
X5617452Y-12410504D02*
X5636500Y-12410504D01*
X5636500Y-12410504D02*
X5655547Y-12420028D01*
X5655547Y-12420028D02*
X5665071Y-12429552D01*
X5665071Y-12429552D02*
X5674595Y-12448599D01*
X5674595Y-12448599D02*
X5684119Y-12486695D01*
X5684119Y-12486695D02*
X5684119Y-12534314D01*
X5684119Y-12534314D02*
X5674595Y-12572409D01*
X5674595Y-12572409D02*
X5665071Y-12591456D01*
X5665071Y-12591456D02*
X5655547Y-12600980D01*
X5655547Y-12600980D02*
X5636500Y-12610504D01*
X5636500Y-12610504D02*
X5617452Y-12610504D01*
X5617452Y-12610504D02*
X5598405Y-12600980D01*
X5598405Y-12600980D02*
X5588881Y-12591456D01*
X5588881Y-12591456D02*
X5579357Y-12572409D01*
X5579357Y-12572409D02*
X5569833Y-12534314D01*
X5569833Y-12534314D02*
X5569833Y-12486695D01*
X5569833Y-12486695D02*
X5579357Y-12448599D01*
X5579357Y-12448599D02*
X5588881Y-12429552D01*
X5588881Y-12429552D02*
X5598405Y-12420028D01*
X5598405Y-12420028D02*
X5617452Y-12410504D01*
X5769833Y-12610504D02*
X5769833Y-12477171D01*
X5769833Y-12496218D02*
X5779357Y-12486695D01*
X5779357Y-12486695D02*
X5798405Y-12477171D01*
X5798405Y-12477171D02*
X5826976Y-12477171D01*
X5826976Y-12477171D02*
X5846024Y-12486695D01*
X5846024Y-12486695D02*
X5855547Y-12505742D01*
X5855547Y-12505742D02*
X5855547Y-12610504D01*
X5855547Y-12505742D02*
X5865071Y-12486695D01*
X5865071Y-12486695D02*
X5884119Y-12477171D01*
X5884119Y-12477171D02*
X5912690Y-12477171D01*
X5912690Y-12477171D02*
X5931738Y-12486695D01*
X5931738Y-12486695D02*
X5941262Y-12505742D01*
X5941262Y-12505742D02*
X5941262Y-12610504D01*
X6036500Y-12610504D02*
X6036500Y-12477171D01*
X6036500Y-12496218D02*
X6046024Y-12486695D01*
X6046024Y-12486695D02*
X6065071Y-12477171D01*
X6065071Y-12477171D02*
X6093643Y-12477171D01*
X6093643Y-12477171D02*
X6112690Y-12486695D01*
X6112690Y-12486695D02*
X6122214Y-12505742D01*
X6122214Y-12505742D02*
X6122214Y-12610504D01*
X6122214Y-12505742D02*
X6131738Y-12486695D01*
X6131738Y-12486695D02*
X6150786Y-12477171D01*
X6150786Y-12477171D02*
X6179357Y-12477171D01*
X6179357Y-12477171D02*
X6198405Y-12486695D01*
X6198405Y-12486695D02*
X6207928Y-12505742D01*
X6207928Y-12505742D02*
X6207928Y-12610504D01*
X6598405Y-12400980D02*
X6426976Y-12658123D01*
X6855548Y-12410504D02*
X6874595Y-12410504D01*
X6874595Y-12410504D02*
X6893643Y-12420028D01*
X6893643Y-12420028D02*
X6903167Y-12429552D01*
X6903167Y-12429552D02*
X6912690Y-12448599D01*
X6912690Y-12448599D02*
X6922214Y-12486695D01*
X6922214Y-12486695D02*
X6922214Y-12534314D01*
X6922214Y-12534314D02*
X6912690Y-12572409D01*
X6912690Y-12572409D02*
X6903167Y-12591456D01*
X6903167Y-12591456D02*
X6893643Y-12600980D01*
X6893643Y-12600980D02*
X6874595Y-12610504D01*
X6874595Y-12610504D02*
X6855548Y-12610504D01*
X6855548Y-12610504D02*
X6836500Y-12600980D01*
X6836500Y-12600980D02*
X6826976Y-12591456D01*
X6826976Y-12591456D02*
X6817452Y-12572409D01*
X6817452Y-12572409D02*
X6807929Y-12534314D01*
X6807929Y-12534314D02*
X6807929Y-12486695D01*
X6807929Y-12486695D02*
X6817452Y-12448599D01*
X6817452Y-12448599D02*
X6826976Y-12429552D01*
X6826976Y-12429552D02*
X6836500Y-12420028D01*
X6836500Y-12420028D02*
X6855548Y-12410504D01*
X7007929Y-12591456D02*
X7017452Y-12600980D01*
X7017452Y-12600980D02*
X7007929Y-12610504D01*
X7007929Y-12610504D02*
X6998405Y-12600980D01*
X6998405Y-12600980D02*
X7007929Y-12591456D01*
X7007929Y-12591456D02*
X7007929Y-12610504D01*
X7141262Y-12410504D02*
X7160310Y-12410504D01*
X7160310Y-12410504D02*
X7179357Y-12420028D01*
X7179357Y-12420028D02*
X7188881Y-12429552D01*
X7188881Y-12429552D02*
X7198405Y-12448599D01*
X7198405Y-12448599D02*
X7207929Y-12486695D01*
X7207929Y-12486695D02*
X7207929Y-12534314D01*
X7207929Y-12534314D02*
X7198405Y-12572409D01*
X7198405Y-12572409D02*
X7188881Y-12591456D01*
X7188881Y-12591456D02*
X7179357Y-12600980D01*
X7179357Y-12600980D02*
X7160310Y-12610504D01*
X7160310Y-12610504D02*
X7141262Y-12610504D01*
X7141262Y-12610504D02*
X7122214Y-12600980D01*
X7122214Y-12600980D02*
X7112690Y-12591456D01*
X7112690Y-12591456D02*
X7103167Y-12572409D01*
X7103167Y-12572409D02*
X7093643Y-12534314D01*
X7093643Y-12534314D02*
X7093643Y-12486695D01*
X7093643Y-12486695D02*
X7103167Y-12448599D01*
X7103167Y-12448599D02*
X7112690Y-12429552D01*
X7112690Y-12429552D02*
X7122214Y-12420028D01*
X7122214Y-12420028D02*
X7141262Y-12410504D01*
X7284119Y-12429552D02*
X7293643Y-12420028D01*
X7293643Y-12420028D02*
X7312690Y-12410504D01*
X7312690Y-12410504D02*
X7360310Y-12410504D01*
X7360310Y-12410504D02*
X7379357Y-12420028D01*
X7379357Y-12420028D02*
X7388881Y-12429552D01*
X7388881Y-12429552D02*
X7398405Y-12448599D01*
X7398405Y-12448599D02*
X7398405Y-12467647D01*
X7398405Y-12467647D02*
X7388881Y-12496218D01*
X7388881Y-12496218D02*
X7274595Y-12610504D01*
X7274595Y-12610504D02*
X7398405Y-12610504D01*
X7465071Y-12410504D02*
X7598405Y-12410504D01*
X7598405Y-12410504D02*
X7512690Y-12610504D01*
X7760310Y-12410504D02*
X7722214Y-12410504D01*
X7722214Y-12410504D02*
X7703167Y-12420028D01*
X7703167Y-12420028D02*
X7693643Y-12429552D01*
X7693643Y-12429552D02*
X7674595Y-12458123D01*
X7674595Y-12458123D02*
X7665071Y-12496218D01*
X7665071Y-12496218D02*
X7665071Y-12572409D01*
X7665071Y-12572409D02*
X7674595Y-12591456D01*
X7674595Y-12591456D02*
X7684119Y-12600980D01*
X7684119Y-12600980D02*
X7703167Y-12610504D01*
X7703167Y-12610504D02*
X7741262Y-12610504D01*
X7741262Y-12610504D02*
X7760310Y-12600980D01*
X7760310Y-12600980D02*
X7769833Y-12591456D01*
X7769833Y-12591456D02*
X7779357Y-12572409D01*
X7779357Y-12572409D02*
X7779357Y-12524790D01*
X7779357Y-12524790D02*
X7769833Y-12505742D01*
X7769833Y-12505742D02*
X7760310Y-12496218D01*
X7760310Y-12496218D02*
X7741262Y-12486695D01*
X7741262Y-12486695D02*
X7703167Y-12486695D01*
X7703167Y-12486695D02*
X7684119Y-12496218D01*
X7684119Y-12496218D02*
X7674595Y-12505742D01*
X7674595Y-12505742D02*
X7665071Y-12524790D01*
X7855548Y-12410504D02*
X7855548Y-12448599D01*
X7931738Y-12410504D02*
X7931738Y-12448599D01*
X8226976Y-12686695D02*
X8217452Y-12677171D01*
X8217452Y-12677171D02*
X8198405Y-12648599D01*
X8198405Y-12648599D02*
X8188881Y-12629552D01*
X8188881Y-12629552D02*
X8179357Y-12600980D01*
X8179357Y-12600980D02*
X8169833Y-12553361D01*
X8169833Y-12553361D02*
X8169833Y-12515266D01*
X8169833Y-12515266D02*
X8179357Y-12467647D01*
X8179357Y-12467647D02*
X8188881Y-12439076D01*
X8188881Y-12439076D02*
X8198405Y-12420028D01*
X8198405Y-12420028D02*
X8217452Y-12391456D01*
X8217452Y-12391456D02*
X8226976Y-12381933D01*
X8407929Y-12610504D02*
X8293643Y-12610504D01*
X8350786Y-12610504D02*
X8350786Y-12410504D01*
X8350786Y-12410504D02*
X8331738Y-12439076D01*
X8331738Y-12439076D02*
X8312691Y-12458123D01*
X8312691Y-12458123D02*
X8293643Y-12467647D01*
X8522214Y-12496218D02*
X8503167Y-12486695D01*
X8503167Y-12486695D02*
X8493643Y-12477171D01*
X8493643Y-12477171D02*
X8484119Y-12458123D01*
X8484119Y-12458123D02*
X8484119Y-12448599D01*
X8484119Y-12448599D02*
X8493643Y-12429552D01*
X8493643Y-12429552D02*
X8503167Y-12420028D01*
X8503167Y-12420028D02*
X8522214Y-12410504D01*
X8522214Y-12410504D02*
X8560310Y-12410504D01*
X8560310Y-12410504D02*
X8579357Y-12420028D01*
X8579357Y-12420028D02*
X8588881Y-12429552D01*
X8588881Y-12429552D02*
X8598405Y-12448599D01*
X8598405Y-12448599D02*
X8598405Y-12458123D01*
X8598405Y-12458123D02*
X8588881Y-12477171D01*
X8588881Y-12477171D02*
X8579357Y-12486695D01*
X8579357Y-12486695D02*
X8560310Y-12496218D01*
X8560310Y-12496218D02*
X8522214Y-12496218D01*
X8522214Y-12496218D02*
X8503167Y-12505742D01*
X8503167Y-12505742D02*
X8493643Y-12515266D01*
X8493643Y-12515266D02*
X8484119Y-12534314D01*
X8484119Y-12534314D02*
X8484119Y-12572409D01*
X8484119Y-12572409D02*
X8493643Y-12591456D01*
X8493643Y-12591456D02*
X8503167Y-12600980D01*
X8503167Y-12600980D02*
X8522214Y-12610504D01*
X8522214Y-12610504D02*
X8560310Y-12610504D01*
X8560310Y-12610504D02*
X8579357Y-12600980D01*
X8579357Y-12600980D02*
X8588881Y-12591456D01*
X8588881Y-12591456D02*
X8598405Y-12572409D01*
X8598405Y-12572409D02*
X8598405Y-12534314D01*
X8598405Y-12534314D02*
X8588881Y-12515266D01*
X8588881Y-12515266D02*
X8579357Y-12505742D01*
X8579357Y-12505742D02*
X8560310Y-12496218D01*
X8836500Y-12610504D02*
X8836500Y-12410504D01*
X8922215Y-12610504D02*
X8922215Y-12505742D01*
X8922215Y-12505742D02*
X8912691Y-12486695D01*
X8912691Y-12486695D02*
X8893643Y-12477171D01*
X8893643Y-12477171D02*
X8865072Y-12477171D01*
X8865072Y-12477171D02*
X8846024Y-12486695D01*
X8846024Y-12486695D02*
X8836500Y-12496218D01*
X9046024Y-12610504D02*
X9026976Y-12600980D01*
X9026976Y-12600980D02*
X9017453Y-12591456D01*
X9017453Y-12591456D02*
X9007929Y-12572409D01*
X9007929Y-12572409D02*
X9007929Y-12515266D01*
X9007929Y-12515266D02*
X9017453Y-12496218D01*
X9017453Y-12496218D02*
X9026976Y-12486695D01*
X9026976Y-12486695D02*
X9046024Y-12477171D01*
X9046024Y-12477171D02*
X9074596Y-12477171D01*
X9074596Y-12477171D02*
X9093643Y-12486695D01*
X9093643Y-12486695D02*
X9103167Y-12496218D01*
X9103167Y-12496218D02*
X9112691Y-12515266D01*
X9112691Y-12515266D02*
X9112691Y-12572409D01*
X9112691Y-12572409D02*
X9103167Y-12591456D01*
X9103167Y-12591456D02*
X9093643Y-12600980D01*
X9093643Y-12600980D02*
X9074596Y-12610504D01*
X9074596Y-12610504D02*
X9046024Y-12610504D01*
X9226976Y-12610504D02*
X9207929Y-12600980D01*
X9207929Y-12600980D02*
X9198405Y-12581933D01*
X9198405Y-12581933D02*
X9198405Y-12410504D01*
X9379357Y-12600980D02*
X9360310Y-12610504D01*
X9360310Y-12610504D02*
X9322215Y-12610504D01*
X9322215Y-12610504D02*
X9303167Y-12600980D01*
X9303167Y-12600980D02*
X9293643Y-12581933D01*
X9293643Y-12581933D02*
X9293643Y-12505742D01*
X9293643Y-12505742D02*
X9303167Y-12486695D01*
X9303167Y-12486695D02*
X9322215Y-12477171D01*
X9322215Y-12477171D02*
X9360310Y-12477171D01*
X9360310Y-12477171D02*
X9379357Y-12486695D01*
X9379357Y-12486695D02*
X9388881Y-12505742D01*
X9388881Y-12505742D02*
X9388881Y-12524790D01*
X9388881Y-12524790D02*
X9293643Y-12543837D01*
X9465072Y-12600980D02*
X9484119Y-12610504D01*
X9484119Y-12610504D02*
X9522215Y-12610504D01*
X9522215Y-12610504D02*
X9541262Y-12600980D01*
X9541262Y-12600980D02*
X9550786Y-12581933D01*
X9550786Y-12581933D02*
X9550786Y-12572409D01*
X9550786Y-12572409D02*
X9541262Y-12553361D01*
X9541262Y-12553361D02*
X9522215Y-12543837D01*
X9522215Y-12543837D02*
X9493643Y-12543837D01*
X9493643Y-12543837D02*
X9474596Y-12534314D01*
X9474596Y-12534314D02*
X9465072Y-12515266D01*
X9465072Y-12515266D02*
X9465072Y-12505742D01*
X9465072Y-12505742D02*
X9474596Y-12486695D01*
X9474596Y-12486695D02*
X9493643Y-12477171D01*
X9493643Y-12477171D02*
X9522215Y-12477171D01*
X9522215Y-12477171D02*
X9541262Y-12486695D01*
X9617453Y-12686695D02*
X9626977Y-12677171D01*
X9626977Y-12677171D02*
X9646024Y-12648599D01*
X9646024Y-12648599D02*
X9655548Y-12629552D01*
X9655548Y-12629552D02*
X9665072Y-12600980D01*
X9665072Y-12600980D02*
X9674596Y-12553361D01*
X9674596Y-12553361D02*
X9674596Y-12515266D01*
X9674596Y-12515266D02*
X9665072Y-12467647D01*
X9665072Y-12467647D02*
X9655548Y-12439076D01*
X9655548Y-12439076D02*
X9646024Y-12420028D01*
X9646024Y-12420028D02*
X9626977Y-12391456D01*
X9626977Y-12391456D02*
X9617453Y-12381933D01*
D10*
X4614414Y-12745520D02*
X4614414Y-12820520D01*
X4576914Y-12783020D02*
X4651914Y-12783020D01*
D11*
X4950786Y-12674504D02*
X4969833Y-12674504D01*
X4969833Y-12674504D02*
X4988881Y-12684028D01*
X4988881Y-12684028D02*
X4998405Y-12693552D01*
X4998405Y-12693552D02*
X5007928Y-12712599D01*
X5007928Y-12712599D02*
X5017452Y-12750695D01*
X5017452Y-12750695D02*
X5017452Y-12798314D01*
X5017452Y-12798314D02*
X5007928Y-12836409D01*
X5007928Y-12836409D02*
X4998405Y-12855456D01*
X4998405Y-12855456D02*
X4988881Y-12864980D01*
X4988881Y-12864980D02*
X4969833Y-12874504D01*
X4969833Y-12874504D02*
X4950786Y-12874504D01*
X4950786Y-12874504D02*
X4931738Y-12864980D01*
X4931738Y-12864980D02*
X4922214Y-12855456D01*
X4922214Y-12855456D02*
X4912690Y-12836409D01*
X4912690Y-12836409D02*
X4903167Y-12798314D01*
X4903167Y-12798314D02*
X4903167Y-12750695D01*
X4903167Y-12750695D02*
X4912690Y-12712599D01*
X4912690Y-12712599D02*
X4922214Y-12693552D01*
X4922214Y-12693552D02*
X4931738Y-12684028D01*
X4931738Y-12684028D02*
X4950786Y-12674504D01*
X5103167Y-12855456D02*
X5112690Y-12864980D01*
X5112690Y-12864980D02*
X5103167Y-12874504D01*
X5103167Y-12874504D02*
X5093643Y-12864980D01*
X5093643Y-12864980D02*
X5103167Y-12855456D01*
X5103167Y-12855456D02*
X5103167Y-12874504D01*
X5179357Y-12674504D02*
X5312690Y-12674504D01*
X5312690Y-12674504D02*
X5226976Y-12874504D01*
X5484119Y-12674504D02*
X5388881Y-12674504D01*
X5388881Y-12674504D02*
X5379357Y-12769742D01*
X5379357Y-12769742D02*
X5388881Y-12760218D01*
X5388881Y-12760218D02*
X5407928Y-12750695D01*
X5407928Y-12750695D02*
X5455548Y-12750695D01*
X5455548Y-12750695D02*
X5474595Y-12760218D01*
X5474595Y-12760218D02*
X5484119Y-12769742D01*
X5484119Y-12769742D02*
X5493643Y-12788790D01*
X5493643Y-12788790D02*
X5493643Y-12836409D01*
X5493643Y-12836409D02*
X5484119Y-12855456D01*
X5484119Y-12855456D02*
X5474595Y-12864980D01*
X5474595Y-12864980D02*
X5455548Y-12874504D01*
X5455548Y-12874504D02*
X5407928Y-12874504D01*
X5407928Y-12874504D02*
X5388881Y-12864980D01*
X5388881Y-12864980D02*
X5379357Y-12855456D01*
X5617452Y-12674504D02*
X5636500Y-12674504D01*
X5636500Y-12674504D02*
X5655547Y-12684028D01*
X5655547Y-12684028D02*
X5665071Y-12693552D01*
X5665071Y-12693552D02*
X5674595Y-12712599D01*
X5674595Y-12712599D02*
X5684119Y-12750695D01*
X5684119Y-12750695D02*
X5684119Y-12798314D01*
X5684119Y-12798314D02*
X5674595Y-12836409D01*
X5674595Y-12836409D02*
X5665071Y-12855456D01*
X5665071Y-12855456D02*
X5655547Y-12864980D01*
X5655547Y-12864980D02*
X5636500Y-12874504D01*
X5636500Y-12874504D02*
X5617452Y-12874504D01*
X5617452Y-12874504D02*
X5598405Y-12864980D01*
X5598405Y-12864980D02*
X5588881Y-12855456D01*
X5588881Y-12855456D02*
X5579357Y-12836409D01*
X5579357Y-12836409D02*
X5569833Y-12798314D01*
X5569833Y-12798314D02*
X5569833Y-12750695D01*
X5569833Y-12750695D02*
X5579357Y-12712599D01*
X5579357Y-12712599D02*
X5588881Y-12693552D01*
X5588881Y-12693552D02*
X5598405Y-12684028D01*
X5598405Y-12684028D02*
X5617452Y-12674504D01*
X5769833Y-12874504D02*
X5769833Y-12741171D01*
X5769833Y-12760218D02*
X5779357Y-12750695D01*
X5779357Y-12750695D02*
X5798405Y-12741171D01*
X5798405Y-12741171D02*
X5826976Y-12741171D01*
X5826976Y-12741171D02*
X5846024Y-12750695D01*
X5846024Y-12750695D02*
X5855547Y-12769742D01*
X5855547Y-12769742D02*
X5855547Y-12874504D01*
X5855547Y-12769742D02*
X5865071Y-12750695D01*
X5865071Y-12750695D02*
X5884119Y-12741171D01*
X5884119Y-12741171D02*
X5912690Y-12741171D01*
X5912690Y-12741171D02*
X5931738Y-12750695D01*
X5931738Y-12750695D02*
X5941262Y-12769742D01*
X5941262Y-12769742D02*
X5941262Y-12874504D01*
X6036500Y-12874504D02*
X6036500Y-12741171D01*
X6036500Y-12760218D02*
X6046024Y-12750695D01*
X6046024Y-12750695D02*
X6065071Y-12741171D01*
X6065071Y-12741171D02*
X6093643Y-12741171D01*
X6093643Y-12741171D02*
X6112690Y-12750695D01*
X6112690Y-12750695D02*
X6122214Y-12769742D01*
X6122214Y-12769742D02*
X6122214Y-12874504D01*
X6122214Y-12769742D02*
X6131738Y-12750695D01*
X6131738Y-12750695D02*
X6150786Y-12741171D01*
X6150786Y-12741171D02*
X6179357Y-12741171D01*
X6179357Y-12741171D02*
X6198405Y-12750695D01*
X6198405Y-12750695D02*
X6207928Y-12769742D01*
X6207928Y-12769742D02*
X6207928Y-12874504D01*
X6598405Y-12664980D02*
X6426976Y-12922123D01*
X6855548Y-12674504D02*
X6874595Y-12674504D01*
X6874595Y-12674504D02*
X6893643Y-12684028D01*
X6893643Y-12684028D02*
X6903167Y-12693552D01*
X6903167Y-12693552D02*
X6912690Y-12712599D01*
X6912690Y-12712599D02*
X6922214Y-12750695D01*
X6922214Y-12750695D02*
X6922214Y-12798314D01*
X6922214Y-12798314D02*
X6912690Y-12836409D01*
X6912690Y-12836409D02*
X6903167Y-12855456D01*
X6903167Y-12855456D02*
X6893643Y-12864980D01*
X6893643Y-12864980D02*
X6874595Y-12874504D01*
X6874595Y-12874504D02*
X6855548Y-12874504D01*
X6855548Y-12874504D02*
X6836500Y-12864980D01*
X6836500Y-12864980D02*
X6826976Y-12855456D01*
X6826976Y-12855456D02*
X6817452Y-12836409D01*
X6817452Y-12836409D02*
X6807929Y-12798314D01*
X6807929Y-12798314D02*
X6807929Y-12750695D01*
X6807929Y-12750695D02*
X6817452Y-12712599D01*
X6817452Y-12712599D02*
X6826976Y-12693552D01*
X6826976Y-12693552D02*
X6836500Y-12684028D01*
X6836500Y-12684028D02*
X6855548Y-12674504D01*
X7007929Y-12855456D02*
X7017452Y-12864980D01*
X7017452Y-12864980D02*
X7007929Y-12874504D01*
X7007929Y-12874504D02*
X6998405Y-12864980D01*
X6998405Y-12864980D02*
X7007929Y-12855456D01*
X7007929Y-12855456D02*
X7007929Y-12874504D01*
X7141262Y-12674504D02*
X7160310Y-12674504D01*
X7160310Y-12674504D02*
X7179357Y-12684028D01*
X7179357Y-12684028D02*
X7188881Y-12693552D01*
X7188881Y-12693552D02*
X7198405Y-12712599D01*
X7198405Y-12712599D02*
X7207929Y-12750695D01*
X7207929Y-12750695D02*
X7207929Y-12798314D01*
X7207929Y-12798314D02*
X7198405Y-12836409D01*
X7198405Y-12836409D02*
X7188881Y-12855456D01*
X7188881Y-12855456D02*
X7179357Y-12864980D01*
X7179357Y-12864980D02*
X7160310Y-12874504D01*
X7160310Y-12874504D02*
X7141262Y-12874504D01*
X7141262Y-12874504D02*
X7122214Y-12864980D01*
X7122214Y-12864980D02*
X7112690Y-12855456D01*
X7112690Y-12855456D02*
X7103167Y-12836409D01*
X7103167Y-12836409D02*
X7093643Y-12798314D01*
X7093643Y-12798314D02*
X7093643Y-12750695D01*
X7093643Y-12750695D02*
X7103167Y-12712599D01*
X7103167Y-12712599D02*
X7112690Y-12693552D01*
X7112690Y-12693552D02*
X7122214Y-12684028D01*
X7122214Y-12684028D02*
X7141262Y-12674504D01*
X7284119Y-12693552D02*
X7293643Y-12684028D01*
X7293643Y-12684028D02*
X7312690Y-12674504D01*
X7312690Y-12674504D02*
X7360310Y-12674504D01*
X7360310Y-12674504D02*
X7379357Y-12684028D01*
X7379357Y-12684028D02*
X7388881Y-12693552D01*
X7388881Y-12693552D02*
X7398405Y-12712599D01*
X7398405Y-12712599D02*
X7398405Y-12731647D01*
X7398405Y-12731647D02*
X7388881Y-12760218D01*
X7388881Y-12760218D02*
X7274595Y-12874504D01*
X7274595Y-12874504D02*
X7398405Y-12874504D01*
X7493643Y-12874504D02*
X7531738Y-12874504D01*
X7531738Y-12874504D02*
X7550786Y-12864980D01*
X7550786Y-12864980D02*
X7560310Y-12855456D01*
X7560310Y-12855456D02*
X7579357Y-12826885D01*
X7579357Y-12826885D02*
X7588881Y-12788790D01*
X7588881Y-12788790D02*
X7588881Y-12712599D01*
X7588881Y-12712599D02*
X7579357Y-12693552D01*
X7579357Y-12693552D02*
X7569833Y-12684028D01*
X7569833Y-12684028D02*
X7550786Y-12674504D01*
X7550786Y-12674504D02*
X7512690Y-12674504D01*
X7512690Y-12674504D02*
X7493643Y-12684028D01*
X7493643Y-12684028D02*
X7484119Y-12693552D01*
X7484119Y-12693552D02*
X7474595Y-12712599D01*
X7474595Y-12712599D02*
X7474595Y-12760218D01*
X7474595Y-12760218D02*
X7484119Y-12779266D01*
X7484119Y-12779266D02*
X7493643Y-12788790D01*
X7493643Y-12788790D02*
X7512690Y-12798314D01*
X7512690Y-12798314D02*
X7550786Y-12798314D01*
X7550786Y-12798314D02*
X7569833Y-12788790D01*
X7569833Y-12788790D02*
X7579357Y-12779266D01*
X7579357Y-12779266D02*
X7588881Y-12760218D01*
X7769833Y-12674504D02*
X7674595Y-12674504D01*
X7674595Y-12674504D02*
X7665071Y-12769742D01*
X7665071Y-12769742D02*
X7674595Y-12760218D01*
X7674595Y-12760218D02*
X7693643Y-12750695D01*
X7693643Y-12750695D02*
X7741262Y-12750695D01*
X7741262Y-12750695D02*
X7760310Y-12760218D01*
X7760310Y-12760218D02*
X7769833Y-12769742D01*
X7769833Y-12769742D02*
X7779357Y-12788790D01*
X7779357Y-12788790D02*
X7779357Y-12836409D01*
X7779357Y-12836409D02*
X7769833Y-12855456D01*
X7769833Y-12855456D02*
X7760310Y-12864980D01*
X7760310Y-12864980D02*
X7741262Y-12874504D01*
X7741262Y-12874504D02*
X7693643Y-12874504D01*
X7693643Y-12874504D02*
X7674595Y-12864980D01*
X7674595Y-12864980D02*
X7665071Y-12855456D01*
X7855548Y-12674504D02*
X7855548Y-12712599D01*
X7931738Y-12674504D02*
X7931738Y-12712599D01*
X8226976Y-12950695D02*
X8217452Y-12941171D01*
X8217452Y-12941171D02*
X8198405Y-12912599D01*
X8198405Y-12912599D02*
X8188881Y-12893552D01*
X8188881Y-12893552D02*
X8179357Y-12864980D01*
X8179357Y-12864980D02*
X8169833Y-12817361D01*
X8169833Y-12817361D02*
X8169833Y-12779266D01*
X8169833Y-12779266D02*
X8179357Y-12731647D01*
X8179357Y-12731647D02*
X8188881Y-12703076D01*
X8188881Y-12703076D02*
X8198405Y-12684028D01*
X8198405Y-12684028D02*
X8217452Y-12655456D01*
X8217452Y-12655456D02*
X8226976Y-12645933D01*
X8293643Y-12693552D02*
X8303167Y-12684028D01*
X8303167Y-12684028D02*
X8322214Y-12674504D01*
X8322214Y-12674504D02*
X8369833Y-12674504D01*
X8369833Y-12674504D02*
X8388881Y-12684028D01*
X8388881Y-12684028D02*
X8398405Y-12693552D01*
X8398405Y-12693552D02*
X8407929Y-12712599D01*
X8407929Y-12712599D02*
X8407929Y-12731647D01*
X8407929Y-12731647D02*
X8398405Y-12760218D01*
X8398405Y-12760218D02*
X8284119Y-12874504D01*
X8284119Y-12874504D02*
X8407929Y-12874504D01*
X8522214Y-12760218D02*
X8503167Y-12750695D01*
X8503167Y-12750695D02*
X8493643Y-12741171D01*
X8493643Y-12741171D02*
X8484119Y-12722123D01*
X8484119Y-12722123D02*
X8484119Y-12712599D01*
X8484119Y-12712599D02*
X8493643Y-12693552D01*
X8493643Y-12693552D02*
X8503167Y-12684028D01*
X8503167Y-12684028D02*
X8522214Y-12674504D01*
X8522214Y-12674504D02*
X8560310Y-12674504D01*
X8560310Y-12674504D02*
X8579357Y-12684028D01*
X8579357Y-12684028D02*
X8588881Y-12693552D01*
X8588881Y-12693552D02*
X8598405Y-12712599D01*
X8598405Y-12712599D02*
X8598405Y-12722123D01*
X8598405Y-12722123D02*
X8588881Y-12741171D01*
X8588881Y-12741171D02*
X8579357Y-12750695D01*
X8579357Y-12750695D02*
X8560310Y-12760218D01*
X8560310Y-12760218D02*
X8522214Y-12760218D01*
X8522214Y-12760218D02*
X8503167Y-12769742D01*
X8503167Y-12769742D02*
X8493643Y-12779266D01*
X8493643Y-12779266D02*
X8484119Y-12798314D01*
X8484119Y-12798314D02*
X8484119Y-12836409D01*
X8484119Y-12836409D02*
X8493643Y-12855456D01*
X8493643Y-12855456D02*
X8503167Y-12864980D01*
X8503167Y-12864980D02*
X8522214Y-12874504D01*
X8522214Y-12874504D02*
X8560310Y-12874504D01*
X8560310Y-12874504D02*
X8579357Y-12864980D01*
X8579357Y-12864980D02*
X8588881Y-12855456D01*
X8588881Y-12855456D02*
X8598405Y-12836409D01*
X8598405Y-12836409D02*
X8598405Y-12798314D01*
X8598405Y-12798314D02*
X8588881Y-12779266D01*
X8588881Y-12779266D02*
X8579357Y-12769742D01*
X8579357Y-12769742D02*
X8560310Y-12760218D01*
X8836500Y-12874504D02*
X8836500Y-12674504D01*
X8922215Y-12874504D02*
X8922215Y-12769742D01*
X8922215Y-12769742D02*
X8912691Y-12750695D01*
X8912691Y-12750695D02*
X8893643Y-12741171D01*
X8893643Y-12741171D02*
X8865072Y-12741171D01*
X8865072Y-12741171D02*
X8846024Y-12750695D01*
X8846024Y-12750695D02*
X8836500Y-12760218D01*
X9046024Y-12874504D02*
X9026976Y-12864980D01*
X9026976Y-12864980D02*
X9017453Y-12855456D01*
X9017453Y-12855456D02*
X9007929Y-12836409D01*
X9007929Y-12836409D02*
X9007929Y-12779266D01*
X9007929Y-12779266D02*
X9017453Y-12760218D01*
X9017453Y-12760218D02*
X9026976Y-12750695D01*
X9026976Y-12750695D02*
X9046024Y-12741171D01*
X9046024Y-12741171D02*
X9074596Y-12741171D01*
X9074596Y-12741171D02*
X9093643Y-12750695D01*
X9093643Y-12750695D02*
X9103167Y-12760218D01*
X9103167Y-12760218D02*
X9112691Y-12779266D01*
X9112691Y-12779266D02*
X9112691Y-12836409D01*
X9112691Y-12836409D02*
X9103167Y-12855456D01*
X9103167Y-12855456D02*
X9093643Y-12864980D01*
X9093643Y-12864980D02*
X9074596Y-12874504D01*
X9074596Y-12874504D02*
X9046024Y-12874504D01*
X9226976Y-12874504D02*
X9207929Y-12864980D01*
X9207929Y-12864980D02*
X9198405Y-12845933D01*
X9198405Y-12845933D02*
X9198405Y-12674504D01*
X9379357Y-12864980D02*
X9360310Y-12874504D01*
X9360310Y-12874504D02*
X9322215Y-12874504D01*
X9322215Y-12874504D02*
X9303167Y-12864980D01*
X9303167Y-12864980D02*
X9293643Y-12845933D01*
X9293643Y-12845933D02*
X9293643Y-12769742D01*
X9293643Y-12769742D02*
X9303167Y-12750695D01*
X9303167Y-12750695D02*
X9322215Y-12741171D01*
X9322215Y-12741171D02*
X9360310Y-12741171D01*
X9360310Y-12741171D02*
X9379357Y-12750695D01*
X9379357Y-12750695D02*
X9388881Y-12769742D01*
X9388881Y-12769742D02*
X9388881Y-12788790D01*
X9388881Y-12788790D02*
X9293643Y-12807837D01*
X9465072Y-12864980D02*
X9484119Y-12874504D01*
X9484119Y-12874504D02*
X9522215Y-12874504D01*
X9522215Y-12874504D02*
X9541262Y-12864980D01*
X9541262Y-12864980D02*
X9550786Y-12845933D01*
X9550786Y-12845933D02*
X9550786Y-12836409D01*
X9550786Y-12836409D02*
X9541262Y-12817361D01*
X9541262Y-12817361D02*
X9522215Y-12807837D01*
X9522215Y-12807837D02*
X9493643Y-12807837D01*
X9493643Y-12807837D02*
X9474596Y-12798314D01*
X9474596Y-12798314D02*
X9465072Y-12779266D01*
X9465072Y-12779266D02*
X9465072Y-12769742D01*
X9465072Y-12769742D02*
X9474596Y-12750695D01*
X9474596Y-12750695D02*
X9493643Y-12741171D01*
X9493643Y-12741171D02*
X9522215Y-12741171D01*
X9522215Y-12741171D02*
X9541262Y-12750695D01*
X9617453Y-12950695D02*
X9626977Y-12941171D01*
X9626977Y-12941171D02*
X9646024Y-12912599D01*
X9646024Y-12912599D02*
X9655548Y-12893552D01*
X9655548Y-12893552D02*
X9665072Y-12864980D01*
X9665072Y-12864980D02*
X9674596Y-12817361D01*
X9674596Y-12817361D02*
X9674596Y-12779266D01*
X9674596Y-12779266D02*
X9665072Y-12731647D01*
X9665072Y-12731647D02*
X9655548Y-12703076D01*
X9655548Y-12703076D02*
X9646024Y-12684028D01*
X9646024Y-12684028D02*
X9626977Y-12655456D01*
X9626977Y-12655456D02*
X9617453Y-12645933D01*
D10*
X4640198Y-13075305D02*
X4640198Y-13018736D01*
X4583629Y-13018736D01*
X4583629Y-13075305D01*
X4640198Y-13075305D01*
D11*
X4950786Y-12938504D02*
X4969833Y-12938504D01*
X4969833Y-12938504D02*
X4988881Y-12948028D01*
X4988881Y-12948028D02*
X4998405Y-12957552D01*
X4998405Y-12957552D02*
X5007928Y-12976599D01*
X5007928Y-12976599D02*
X5017452Y-13014695D01*
X5017452Y-13014695D02*
X5017452Y-13062314D01*
X5017452Y-13062314D02*
X5007928Y-13100409D01*
X5007928Y-13100409D02*
X4998405Y-13119456D01*
X4998405Y-13119456D02*
X4988881Y-13128980D01*
X4988881Y-13128980D02*
X4969833Y-13138504D01*
X4969833Y-13138504D02*
X4950786Y-13138504D01*
X4950786Y-13138504D02*
X4931738Y-13128980D01*
X4931738Y-13128980D02*
X4922214Y-13119456D01*
X4922214Y-13119456D02*
X4912690Y-13100409D01*
X4912690Y-13100409D02*
X4903167Y-13062314D01*
X4903167Y-13062314D02*
X4903167Y-13014695D01*
X4903167Y-13014695D02*
X4912690Y-12976599D01*
X4912690Y-12976599D02*
X4922214Y-12957552D01*
X4922214Y-12957552D02*
X4931738Y-12948028D01*
X4931738Y-12948028D02*
X4950786Y-12938504D01*
X5103167Y-13119456D02*
X5112690Y-13128980D01*
X5112690Y-13128980D02*
X5103167Y-13138504D01*
X5103167Y-13138504D02*
X5093643Y-13128980D01*
X5093643Y-13128980D02*
X5103167Y-13119456D01*
X5103167Y-13119456D02*
X5103167Y-13138504D01*
X5226976Y-13024218D02*
X5207928Y-13014695D01*
X5207928Y-13014695D02*
X5198405Y-13005171D01*
X5198405Y-13005171D02*
X5188881Y-12986123D01*
X5188881Y-12986123D02*
X5188881Y-12976599D01*
X5188881Y-12976599D02*
X5198405Y-12957552D01*
X5198405Y-12957552D02*
X5207928Y-12948028D01*
X5207928Y-12948028D02*
X5226976Y-12938504D01*
X5226976Y-12938504D02*
X5265071Y-12938504D01*
X5265071Y-12938504D02*
X5284119Y-12948028D01*
X5284119Y-12948028D02*
X5293643Y-12957552D01*
X5293643Y-12957552D02*
X5303167Y-12976599D01*
X5303167Y-12976599D02*
X5303167Y-12986123D01*
X5303167Y-12986123D02*
X5293643Y-13005171D01*
X5293643Y-13005171D02*
X5284119Y-13014695D01*
X5284119Y-13014695D02*
X5265071Y-13024218D01*
X5265071Y-13024218D02*
X5226976Y-13024218D01*
X5226976Y-13024218D02*
X5207928Y-13033742D01*
X5207928Y-13033742D02*
X5198405Y-13043266D01*
X5198405Y-13043266D02*
X5188881Y-13062314D01*
X5188881Y-13062314D02*
X5188881Y-13100409D01*
X5188881Y-13100409D02*
X5198405Y-13119456D01*
X5198405Y-13119456D02*
X5207928Y-13128980D01*
X5207928Y-13128980D02*
X5226976Y-13138504D01*
X5226976Y-13138504D02*
X5265071Y-13138504D01*
X5265071Y-13138504D02*
X5284119Y-13128980D01*
X5284119Y-13128980D02*
X5293643Y-13119456D01*
X5293643Y-13119456D02*
X5303167Y-13100409D01*
X5303167Y-13100409D02*
X5303167Y-13062314D01*
X5303167Y-13062314D02*
X5293643Y-13043266D01*
X5293643Y-13043266D02*
X5284119Y-13033742D01*
X5284119Y-13033742D02*
X5265071Y-13024218D01*
X5426976Y-12938504D02*
X5446024Y-12938504D01*
X5446024Y-12938504D02*
X5465071Y-12948028D01*
X5465071Y-12948028D02*
X5474595Y-12957552D01*
X5474595Y-12957552D02*
X5484119Y-12976599D01*
X5484119Y-12976599D02*
X5493643Y-13014695D01*
X5493643Y-13014695D02*
X5493643Y-13062314D01*
X5493643Y-13062314D02*
X5484119Y-13100409D01*
X5484119Y-13100409D02*
X5474595Y-13119456D01*
X5474595Y-13119456D02*
X5465071Y-13128980D01*
X5465071Y-13128980D02*
X5446024Y-13138504D01*
X5446024Y-13138504D02*
X5426976Y-13138504D01*
X5426976Y-13138504D02*
X5407928Y-13128980D01*
X5407928Y-13128980D02*
X5398405Y-13119456D01*
X5398405Y-13119456D02*
X5388881Y-13100409D01*
X5388881Y-13100409D02*
X5379357Y-13062314D01*
X5379357Y-13062314D02*
X5379357Y-13014695D01*
X5379357Y-13014695D02*
X5388881Y-12976599D01*
X5388881Y-12976599D02*
X5398405Y-12957552D01*
X5398405Y-12957552D02*
X5407928Y-12948028D01*
X5407928Y-12948028D02*
X5426976Y-12938504D01*
X5617452Y-12938504D02*
X5636500Y-12938504D01*
X5636500Y-12938504D02*
X5655547Y-12948028D01*
X5655547Y-12948028D02*
X5665071Y-12957552D01*
X5665071Y-12957552D02*
X5674595Y-12976599D01*
X5674595Y-12976599D02*
X5684119Y-13014695D01*
X5684119Y-13014695D02*
X5684119Y-13062314D01*
X5684119Y-13062314D02*
X5674595Y-13100409D01*
X5674595Y-13100409D02*
X5665071Y-13119456D01*
X5665071Y-13119456D02*
X5655547Y-13128980D01*
X5655547Y-13128980D02*
X5636500Y-13138504D01*
X5636500Y-13138504D02*
X5617452Y-13138504D01*
X5617452Y-13138504D02*
X5598405Y-13128980D01*
X5598405Y-13128980D02*
X5588881Y-13119456D01*
X5588881Y-13119456D02*
X5579357Y-13100409D01*
X5579357Y-13100409D02*
X5569833Y-13062314D01*
X5569833Y-13062314D02*
X5569833Y-13014695D01*
X5569833Y-13014695D02*
X5579357Y-12976599D01*
X5579357Y-12976599D02*
X5588881Y-12957552D01*
X5588881Y-12957552D02*
X5598405Y-12948028D01*
X5598405Y-12948028D02*
X5617452Y-12938504D01*
X5769833Y-13138504D02*
X5769833Y-13005171D01*
X5769833Y-13024218D02*
X5779357Y-13014695D01*
X5779357Y-13014695D02*
X5798405Y-13005171D01*
X5798405Y-13005171D02*
X5826976Y-13005171D01*
X5826976Y-13005171D02*
X5846024Y-13014695D01*
X5846024Y-13014695D02*
X5855547Y-13033742D01*
X5855547Y-13033742D02*
X5855547Y-13138504D01*
X5855547Y-13033742D02*
X5865071Y-13014695D01*
X5865071Y-13014695D02*
X5884119Y-13005171D01*
X5884119Y-13005171D02*
X5912690Y-13005171D01*
X5912690Y-13005171D02*
X5931738Y-13014695D01*
X5931738Y-13014695D02*
X5941262Y-13033742D01*
X5941262Y-13033742D02*
X5941262Y-13138504D01*
X6036500Y-13138504D02*
X6036500Y-13005171D01*
X6036500Y-13024218D02*
X6046024Y-13014695D01*
X6046024Y-13014695D02*
X6065071Y-13005171D01*
X6065071Y-13005171D02*
X6093643Y-13005171D01*
X6093643Y-13005171D02*
X6112690Y-13014695D01*
X6112690Y-13014695D02*
X6122214Y-13033742D01*
X6122214Y-13033742D02*
X6122214Y-13138504D01*
X6122214Y-13033742D02*
X6131738Y-13014695D01*
X6131738Y-13014695D02*
X6150786Y-13005171D01*
X6150786Y-13005171D02*
X6179357Y-13005171D01*
X6179357Y-13005171D02*
X6198405Y-13014695D01*
X6198405Y-13014695D02*
X6207928Y-13033742D01*
X6207928Y-13033742D02*
X6207928Y-13138504D01*
X6598405Y-12928980D02*
X6426976Y-13186123D01*
X6855548Y-12938504D02*
X6874595Y-12938504D01*
X6874595Y-12938504D02*
X6893643Y-12948028D01*
X6893643Y-12948028D02*
X6903167Y-12957552D01*
X6903167Y-12957552D02*
X6912690Y-12976599D01*
X6912690Y-12976599D02*
X6922214Y-13014695D01*
X6922214Y-13014695D02*
X6922214Y-13062314D01*
X6922214Y-13062314D02*
X6912690Y-13100409D01*
X6912690Y-13100409D02*
X6903167Y-13119456D01*
X6903167Y-13119456D02*
X6893643Y-13128980D01*
X6893643Y-13128980D02*
X6874595Y-13138504D01*
X6874595Y-13138504D02*
X6855548Y-13138504D01*
X6855548Y-13138504D02*
X6836500Y-13128980D01*
X6836500Y-13128980D02*
X6826976Y-13119456D01*
X6826976Y-13119456D02*
X6817452Y-13100409D01*
X6817452Y-13100409D02*
X6807929Y-13062314D01*
X6807929Y-13062314D02*
X6807929Y-13014695D01*
X6807929Y-13014695D02*
X6817452Y-12976599D01*
X6817452Y-12976599D02*
X6826976Y-12957552D01*
X6826976Y-12957552D02*
X6836500Y-12948028D01*
X6836500Y-12948028D02*
X6855548Y-12938504D01*
X7007929Y-13119456D02*
X7017452Y-13128980D01*
X7017452Y-13128980D02*
X7007929Y-13138504D01*
X7007929Y-13138504D02*
X6998405Y-13128980D01*
X6998405Y-13128980D02*
X7007929Y-13119456D01*
X7007929Y-13119456D02*
X7007929Y-13138504D01*
X7141262Y-12938504D02*
X7160310Y-12938504D01*
X7160310Y-12938504D02*
X7179357Y-12948028D01*
X7179357Y-12948028D02*
X7188881Y-12957552D01*
X7188881Y-12957552D02*
X7198405Y-12976599D01*
X7198405Y-12976599D02*
X7207929Y-13014695D01*
X7207929Y-13014695D02*
X7207929Y-13062314D01*
X7207929Y-13062314D02*
X7198405Y-13100409D01*
X7198405Y-13100409D02*
X7188881Y-13119456D01*
X7188881Y-13119456D02*
X7179357Y-13128980D01*
X7179357Y-13128980D02*
X7160310Y-13138504D01*
X7160310Y-13138504D02*
X7141262Y-13138504D01*
X7141262Y-13138504D02*
X7122214Y-13128980D01*
X7122214Y-13128980D02*
X7112690Y-13119456D01*
X7112690Y-13119456D02*
X7103167Y-13100409D01*
X7103167Y-13100409D02*
X7093643Y-13062314D01*
X7093643Y-13062314D02*
X7093643Y-13014695D01*
X7093643Y-13014695D02*
X7103167Y-12976599D01*
X7103167Y-12976599D02*
X7112690Y-12957552D01*
X7112690Y-12957552D02*
X7122214Y-12948028D01*
X7122214Y-12948028D02*
X7141262Y-12938504D01*
X7274595Y-12938504D02*
X7398405Y-12938504D01*
X7398405Y-12938504D02*
X7331738Y-13014695D01*
X7331738Y-13014695D02*
X7360310Y-13014695D01*
X7360310Y-13014695D02*
X7379357Y-13024218D01*
X7379357Y-13024218D02*
X7388881Y-13033742D01*
X7388881Y-13033742D02*
X7398405Y-13052790D01*
X7398405Y-13052790D02*
X7398405Y-13100409D01*
X7398405Y-13100409D02*
X7388881Y-13119456D01*
X7388881Y-13119456D02*
X7379357Y-13128980D01*
X7379357Y-13128980D02*
X7360310Y-13138504D01*
X7360310Y-13138504D02*
X7303167Y-13138504D01*
X7303167Y-13138504D02*
X7284119Y-13128980D01*
X7284119Y-13128980D02*
X7274595Y-13119456D01*
X7588881Y-13138504D02*
X7474595Y-13138504D01*
X7531738Y-13138504D02*
X7531738Y-12938504D01*
X7531738Y-12938504D02*
X7512690Y-12967076D01*
X7512690Y-12967076D02*
X7493643Y-12986123D01*
X7493643Y-12986123D02*
X7474595Y-12995647D01*
X7769833Y-12938504D02*
X7674595Y-12938504D01*
X7674595Y-12938504D02*
X7665071Y-13033742D01*
X7665071Y-13033742D02*
X7674595Y-13024218D01*
X7674595Y-13024218D02*
X7693643Y-13014695D01*
X7693643Y-13014695D02*
X7741262Y-13014695D01*
X7741262Y-13014695D02*
X7760310Y-13024218D01*
X7760310Y-13024218D02*
X7769833Y-13033742D01*
X7769833Y-13033742D02*
X7779357Y-13052790D01*
X7779357Y-13052790D02*
X7779357Y-13100409D01*
X7779357Y-13100409D02*
X7769833Y-13119456D01*
X7769833Y-13119456D02*
X7760310Y-13128980D01*
X7760310Y-13128980D02*
X7741262Y-13138504D01*
X7741262Y-13138504D02*
X7693643Y-13138504D01*
X7693643Y-13138504D02*
X7674595Y-13128980D01*
X7674595Y-13128980D02*
X7665071Y-13119456D01*
X7855548Y-12938504D02*
X7855548Y-12976599D01*
X7931738Y-12938504D02*
X7931738Y-12976599D01*
X8226976Y-13214695D02*
X8217452Y-13205171D01*
X8217452Y-13205171D02*
X8198405Y-13176599D01*
X8198405Y-13176599D02*
X8188881Y-13157552D01*
X8188881Y-13157552D02*
X8179357Y-13128980D01*
X8179357Y-13128980D02*
X8169833Y-13081361D01*
X8169833Y-13081361D02*
X8169833Y-13043266D01*
X8169833Y-13043266D02*
X8179357Y-12995647D01*
X8179357Y-12995647D02*
X8188881Y-12967076D01*
X8188881Y-12967076D02*
X8198405Y-12948028D01*
X8198405Y-12948028D02*
X8217452Y-12919456D01*
X8217452Y-12919456D02*
X8226976Y-12909933D01*
X8388881Y-12938504D02*
X8350786Y-12938504D01*
X8350786Y-12938504D02*
X8331738Y-12948028D01*
X8331738Y-12948028D02*
X8322214Y-12957552D01*
X8322214Y-12957552D02*
X8303167Y-12986123D01*
X8303167Y-12986123D02*
X8293643Y-13024218D01*
X8293643Y-13024218D02*
X8293643Y-13100409D01*
X8293643Y-13100409D02*
X8303167Y-13119456D01*
X8303167Y-13119456D02*
X8312691Y-13128980D01*
X8312691Y-13128980D02*
X8331738Y-13138504D01*
X8331738Y-13138504D02*
X8369833Y-13138504D01*
X8369833Y-13138504D02*
X8388881Y-13128980D01*
X8388881Y-13128980D02*
X8398405Y-13119456D01*
X8398405Y-13119456D02*
X8407929Y-13100409D01*
X8407929Y-13100409D02*
X8407929Y-13052790D01*
X8407929Y-13052790D02*
X8398405Y-13033742D01*
X8398405Y-13033742D02*
X8388881Y-13024218D01*
X8388881Y-13024218D02*
X8369833Y-13014695D01*
X8369833Y-13014695D02*
X8331738Y-13014695D01*
X8331738Y-13014695D02*
X8312691Y-13024218D01*
X8312691Y-13024218D02*
X8303167Y-13033742D01*
X8303167Y-13033742D02*
X8293643Y-13052790D01*
X8474595Y-12938504D02*
X8607929Y-12938504D01*
X8607929Y-12938504D02*
X8522214Y-13138504D01*
X8836500Y-13138504D02*
X8836500Y-12938504D01*
X8922215Y-13138504D02*
X8922215Y-13033742D01*
X8922215Y-13033742D02*
X8912691Y-13014695D01*
X8912691Y-13014695D02*
X8893643Y-13005171D01*
X8893643Y-13005171D02*
X8865072Y-13005171D01*
X8865072Y-13005171D02*
X8846024Y-13014695D01*
X8846024Y-13014695D02*
X8836500Y-13024218D01*
X9046024Y-13138504D02*
X9026976Y-13128980D01*
X9026976Y-13128980D02*
X9017453Y-13119456D01*
X9017453Y-13119456D02*
X9007929Y-13100409D01*
X9007929Y-13100409D02*
X9007929Y-13043266D01*
X9007929Y-13043266D02*
X9017453Y-13024218D01*
X9017453Y-13024218D02*
X9026976Y-13014695D01*
X9026976Y-13014695D02*
X9046024Y-13005171D01*
X9046024Y-13005171D02*
X9074596Y-13005171D01*
X9074596Y-13005171D02*
X9093643Y-13014695D01*
X9093643Y-13014695D02*
X9103167Y-13024218D01*
X9103167Y-13024218D02*
X9112691Y-13043266D01*
X9112691Y-13043266D02*
X9112691Y-13100409D01*
X9112691Y-13100409D02*
X9103167Y-13119456D01*
X9103167Y-13119456D02*
X9093643Y-13128980D01*
X9093643Y-13128980D02*
X9074596Y-13138504D01*
X9074596Y-13138504D02*
X9046024Y-13138504D01*
X9226976Y-13138504D02*
X9207929Y-13128980D01*
X9207929Y-13128980D02*
X9198405Y-13109933D01*
X9198405Y-13109933D02*
X9198405Y-12938504D01*
X9379357Y-13128980D02*
X9360310Y-13138504D01*
X9360310Y-13138504D02*
X9322215Y-13138504D01*
X9322215Y-13138504D02*
X9303167Y-13128980D01*
X9303167Y-13128980D02*
X9293643Y-13109933D01*
X9293643Y-13109933D02*
X9293643Y-13033742D01*
X9293643Y-13033742D02*
X9303167Y-13014695D01*
X9303167Y-13014695D02*
X9322215Y-13005171D01*
X9322215Y-13005171D02*
X9360310Y-13005171D01*
X9360310Y-13005171D02*
X9379357Y-13014695D01*
X9379357Y-13014695D02*
X9388881Y-13033742D01*
X9388881Y-13033742D02*
X9388881Y-13052790D01*
X9388881Y-13052790D02*
X9293643Y-13071837D01*
X9465072Y-13128980D02*
X9484119Y-13138504D01*
X9484119Y-13138504D02*
X9522215Y-13138504D01*
X9522215Y-13138504D02*
X9541262Y-13128980D01*
X9541262Y-13128980D02*
X9550786Y-13109933D01*
X9550786Y-13109933D02*
X9550786Y-13100409D01*
X9550786Y-13100409D02*
X9541262Y-13081361D01*
X9541262Y-13081361D02*
X9522215Y-13071837D01*
X9522215Y-13071837D02*
X9493643Y-13071837D01*
X9493643Y-13071837D02*
X9474596Y-13062314D01*
X9474596Y-13062314D02*
X9465072Y-13043266D01*
X9465072Y-13043266D02*
X9465072Y-13033742D01*
X9465072Y-13033742D02*
X9474596Y-13014695D01*
X9474596Y-13014695D02*
X9493643Y-13005171D01*
X9493643Y-13005171D02*
X9522215Y-13005171D01*
X9522215Y-13005171D02*
X9541262Y-13014695D01*
X9617453Y-13214695D02*
X9626977Y-13205171D01*
X9626977Y-13205171D02*
X9646024Y-13176599D01*
X9646024Y-13176599D02*
X9655548Y-13157552D01*
X9655548Y-13157552D02*
X9665072Y-13128980D01*
X9665072Y-13128980D02*
X9674596Y-13081361D01*
X9674596Y-13081361D02*
X9674596Y-13043266D01*
X9674596Y-13043266D02*
X9665072Y-12995647D01*
X9665072Y-12995647D02*
X9655548Y-12967076D01*
X9655548Y-12967076D02*
X9646024Y-12948028D01*
X9646024Y-12948028D02*
X9626977Y-12919456D01*
X9626977Y-12919456D02*
X9617453Y-12909933D01*
D10*
X4606914Y-13356020D02*
X4651914Y-13311020D01*
X4606914Y-13266020D01*
X4561914Y-13311020D01*
X4606914Y-13356020D01*
D11*
X4950786Y-13202504D02*
X4969833Y-13202504D01*
X4969833Y-13202504D02*
X4988881Y-13212028D01*
X4988881Y-13212028D02*
X4998405Y-13221552D01*
X4998405Y-13221552D02*
X5007928Y-13240599D01*
X5007928Y-13240599D02*
X5017452Y-13278695D01*
X5017452Y-13278695D02*
X5017452Y-13326314D01*
X5017452Y-13326314D02*
X5007928Y-13364409D01*
X5007928Y-13364409D02*
X4998405Y-13383456D01*
X4998405Y-13383456D02*
X4988881Y-13392980D01*
X4988881Y-13392980D02*
X4969833Y-13402504D01*
X4969833Y-13402504D02*
X4950786Y-13402504D01*
X4950786Y-13402504D02*
X4931738Y-13392980D01*
X4931738Y-13392980D02*
X4922214Y-13383456D01*
X4922214Y-13383456D02*
X4912690Y-13364409D01*
X4912690Y-13364409D02*
X4903167Y-13326314D01*
X4903167Y-13326314D02*
X4903167Y-13278695D01*
X4903167Y-13278695D02*
X4912690Y-13240599D01*
X4912690Y-13240599D02*
X4922214Y-13221552D01*
X4922214Y-13221552D02*
X4931738Y-13212028D01*
X4931738Y-13212028D02*
X4950786Y-13202504D01*
X5103167Y-13383456D02*
X5112690Y-13392980D01*
X5112690Y-13392980D02*
X5103167Y-13402504D01*
X5103167Y-13402504D02*
X5093643Y-13392980D01*
X5093643Y-13392980D02*
X5103167Y-13383456D01*
X5103167Y-13383456D02*
X5103167Y-13402504D01*
X5207928Y-13402504D02*
X5246024Y-13402504D01*
X5246024Y-13402504D02*
X5265071Y-13392980D01*
X5265071Y-13392980D02*
X5274595Y-13383456D01*
X5274595Y-13383456D02*
X5293643Y-13354885D01*
X5293643Y-13354885D02*
X5303167Y-13316790D01*
X5303167Y-13316790D02*
X5303167Y-13240599D01*
X5303167Y-13240599D02*
X5293643Y-13221552D01*
X5293643Y-13221552D02*
X5284119Y-13212028D01*
X5284119Y-13212028D02*
X5265071Y-13202504D01*
X5265071Y-13202504D02*
X5226976Y-13202504D01*
X5226976Y-13202504D02*
X5207928Y-13212028D01*
X5207928Y-13212028D02*
X5198405Y-13221552D01*
X5198405Y-13221552D02*
X5188881Y-13240599D01*
X5188881Y-13240599D02*
X5188881Y-13288218D01*
X5188881Y-13288218D02*
X5198405Y-13307266D01*
X5198405Y-13307266D02*
X5207928Y-13316790D01*
X5207928Y-13316790D02*
X5226976Y-13326314D01*
X5226976Y-13326314D02*
X5265071Y-13326314D01*
X5265071Y-13326314D02*
X5284119Y-13316790D01*
X5284119Y-13316790D02*
X5293643Y-13307266D01*
X5293643Y-13307266D02*
X5303167Y-13288218D01*
X5426976Y-13202504D02*
X5446024Y-13202504D01*
X5446024Y-13202504D02*
X5465071Y-13212028D01*
X5465071Y-13212028D02*
X5474595Y-13221552D01*
X5474595Y-13221552D02*
X5484119Y-13240599D01*
X5484119Y-13240599D02*
X5493643Y-13278695D01*
X5493643Y-13278695D02*
X5493643Y-13326314D01*
X5493643Y-13326314D02*
X5484119Y-13364409D01*
X5484119Y-13364409D02*
X5474595Y-13383456D01*
X5474595Y-13383456D02*
X5465071Y-13392980D01*
X5465071Y-13392980D02*
X5446024Y-13402504D01*
X5446024Y-13402504D02*
X5426976Y-13402504D01*
X5426976Y-13402504D02*
X5407928Y-13392980D01*
X5407928Y-13392980D02*
X5398405Y-13383456D01*
X5398405Y-13383456D02*
X5388881Y-13364409D01*
X5388881Y-13364409D02*
X5379357Y-13326314D01*
X5379357Y-13326314D02*
X5379357Y-13278695D01*
X5379357Y-13278695D02*
X5388881Y-13240599D01*
X5388881Y-13240599D02*
X5398405Y-13221552D01*
X5398405Y-13221552D02*
X5407928Y-13212028D01*
X5407928Y-13212028D02*
X5426976Y-13202504D01*
X5617452Y-13202504D02*
X5636500Y-13202504D01*
X5636500Y-13202504D02*
X5655547Y-13212028D01*
X5655547Y-13212028D02*
X5665071Y-13221552D01*
X5665071Y-13221552D02*
X5674595Y-13240599D01*
X5674595Y-13240599D02*
X5684119Y-13278695D01*
X5684119Y-13278695D02*
X5684119Y-13326314D01*
X5684119Y-13326314D02*
X5674595Y-13364409D01*
X5674595Y-13364409D02*
X5665071Y-13383456D01*
X5665071Y-13383456D02*
X5655547Y-13392980D01*
X5655547Y-13392980D02*
X5636500Y-13402504D01*
X5636500Y-13402504D02*
X5617452Y-13402504D01*
X5617452Y-13402504D02*
X5598405Y-13392980D01*
X5598405Y-13392980D02*
X5588881Y-13383456D01*
X5588881Y-13383456D02*
X5579357Y-13364409D01*
X5579357Y-13364409D02*
X5569833Y-13326314D01*
X5569833Y-13326314D02*
X5569833Y-13278695D01*
X5569833Y-13278695D02*
X5579357Y-13240599D01*
X5579357Y-13240599D02*
X5588881Y-13221552D01*
X5588881Y-13221552D02*
X5598405Y-13212028D01*
X5598405Y-13212028D02*
X5617452Y-13202504D01*
X5769833Y-13402504D02*
X5769833Y-13269171D01*
X5769833Y-13288218D02*
X5779357Y-13278695D01*
X5779357Y-13278695D02*
X5798405Y-13269171D01*
X5798405Y-13269171D02*
X5826976Y-13269171D01*
X5826976Y-13269171D02*
X5846024Y-13278695D01*
X5846024Y-13278695D02*
X5855547Y-13297742D01*
X5855547Y-13297742D02*
X5855547Y-13402504D01*
X5855547Y-13297742D02*
X5865071Y-13278695D01*
X5865071Y-13278695D02*
X5884119Y-13269171D01*
X5884119Y-13269171D02*
X5912690Y-13269171D01*
X5912690Y-13269171D02*
X5931738Y-13278695D01*
X5931738Y-13278695D02*
X5941262Y-13297742D01*
X5941262Y-13297742D02*
X5941262Y-13402504D01*
X6036500Y-13402504D02*
X6036500Y-13269171D01*
X6036500Y-13288218D02*
X6046024Y-13278695D01*
X6046024Y-13278695D02*
X6065071Y-13269171D01*
X6065071Y-13269171D02*
X6093643Y-13269171D01*
X6093643Y-13269171D02*
X6112690Y-13278695D01*
X6112690Y-13278695D02*
X6122214Y-13297742D01*
X6122214Y-13297742D02*
X6122214Y-13402504D01*
X6122214Y-13297742D02*
X6131738Y-13278695D01*
X6131738Y-13278695D02*
X6150786Y-13269171D01*
X6150786Y-13269171D02*
X6179357Y-13269171D01*
X6179357Y-13269171D02*
X6198405Y-13278695D01*
X6198405Y-13278695D02*
X6207928Y-13297742D01*
X6207928Y-13297742D02*
X6207928Y-13402504D01*
X6598405Y-13192980D02*
X6426976Y-13450123D01*
X6855548Y-13202504D02*
X6874595Y-13202504D01*
X6874595Y-13202504D02*
X6893643Y-13212028D01*
X6893643Y-13212028D02*
X6903167Y-13221552D01*
X6903167Y-13221552D02*
X6912690Y-13240599D01*
X6912690Y-13240599D02*
X6922214Y-13278695D01*
X6922214Y-13278695D02*
X6922214Y-13326314D01*
X6922214Y-13326314D02*
X6912690Y-13364409D01*
X6912690Y-13364409D02*
X6903167Y-13383456D01*
X6903167Y-13383456D02*
X6893643Y-13392980D01*
X6893643Y-13392980D02*
X6874595Y-13402504D01*
X6874595Y-13402504D02*
X6855548Y-13402504D01*
X6855548Y-13402504D02*
X6836500Y-13392980D01*
X6836500Y-13392980D02*
X6826976Y-13383456D01*
X6826976Y-13383456D02*
X6817452Y-13364409D01*
X6817452Y-13364409D02*
X6807929Y-13326314D01*
X6807929Y-13326314D02*
X6807929Y-13278695D01*
X6807929Y-13278695D02*
X6817452Y-13240599D01*
X6817452Y-13240599D02*
X6826976Y-13221552D01*
X6826976Y-13221552D02*
X6836500Y-13212028D01*
X6836500Y-13212028D02*
X6855548Y-13202504D01*
X7007929Y-13383456D02*
X7017452Y-13392980D01*
X7017452Y-13392980D02*
X7007929Y-13402504D01*
X7007929Y-13402504D02*
X6998405Y-13392980D01*
X6998405Y-13392980D02*
X7007929Y-13383456D01*
X7007929Y-13383456D02*
X7007929Y-13402504D01*
X7141262Y-13202504D02*
X7160310Y-13202504D01*
X7160310Y-13202504D02*
X7179357Y-13212028D01*
X7179357Y-13212028D02*
X7188881Y-13221552D01*
X7188881Y-13221552D02*
X7198405Y-13240599D01*
X7198405Y-13240599D02*
X7207929Y-13278695D01*
X7207929Y-13278695D02*
X7207929Y-13326314D01*
X7207929Y-13326314D02*
X7198405Y-13364409D01*
X7198405Y-13364409D02*
X7188881Y-13383456D01*
X7188881Y-13383456D02*
X7179357Y-13392980D01*
X7179357Y-13392980D02*
X7160310Y-13402504D01*
X7160310Y-13402504D02*
X7141262Y-13402504D01*
X7141262Y-13402504D02*
X7122214Y-13392980D01*
X7122214Y-13392980D02*
X7112690Y-13383456D01*
X7112690Y-13383456D02*
X7103167Y-13364409D01*
X7103167Y-13364409D02*
X7093643Y-13326314D01*
X7093643Y-13326314D02*
X7093643Y-13278695D01*
X7093643Y-13278695D02*
X7103167Y-13240599D01*
X7103167Y-13240599D02*
X7112690Y-13221552D01*
X7112690Y-13221552D02*
X7122214Y-13212028D01*
X7122214Y-13212028D02*
X7141262Y-13202504D01*
X7274595Y-13202504D02*
X7398405Y-13202504D01*
X7398405Y-13202504D02*
X7331738Y-13278695D01*
X7331738Y-13278695D02*
X7360310Y-13278695D01*
X7360310Y-13278695D02*
X7379357Y-13288218D01*
X7379357Y-13288218D02*
X7388881Y-13297742D01*
X7388881Y-13297742D02*
X7398405Y-13316790D01*
X7398405Y-13316790D02*
X7398405Y-13364409D01*
X7398405Y-13364409D02*
X7388881Y-13383456D01*
X7388881Y-13383456D02*
X7379357Y-13392980D01*
X7379357Y-13392980D02*
X7360310Y-13402504D01*
X7360310Y-13402504D02*
X7303167Y-13402504D01*
X7303167Y-13402504D02*
X7284119Y-13392980D01*
X7284119Y-13392980D02*
X7274595Y-13383456D01*
X7579357Y-13202504D02*
X7484119Y-13202504D01*
X7484119Y-13202504D02*
X7474595Y-13297742D01*
X7474595Y-13297742D02*
X7484119Y-13288218D01*
X7484119Y-13288218D02*
X7503167Y-13278695D01*
X7503167Y-13278695D02*
X7550786Y-13278695D01*
X7550786Y-13278695D02*
X7569833Y-13288218D01*
X7569833Y-13288218D02*
X7579357Y-13297742D01*
X7579357Y-13297742D02*
X7588881Y-13316790D01*
X7588881Y-13316790D02*
X7588881Y-13364409D01*
X7588881Y-13364409D02*
X7579357Y-13383456D01*
X7579357Y-13383456D02*
X7569833Y-13392980D01*
X7569833Y-13392980D02*
X7550786Y-13402504D01*
X7550786Y-13402504D02*
X7503167Y-13402504D01*
X7503167Y-13402504D02*
X7484119Y-13392980D01*
X7484119Y-13392980D02*
X7474595Y-13383456D01*
X7760310Y-13269171D02*
X7760310Y-13402504D01*
X7712690Y-13192980D02*
X7665071Y-13335837D01*
X7665071Y-13335837D02*
X7788881Y-13335837D01*
X7855548Y-13202504D02*
X7855548Y-13240599D01*
X7931738Y-13202504D02*
X7931738Y-13240599D01*
X8226976Y-13478695D02*
X8217452Y-13469171D01*
X8217452Y-13469171D02*
X8198405Y-13440599D01*
X8198405Y-13440599D02*
X8188881Y-13421552D01*
X8188881Y-13421552D02*
X8179357Y-13392980D01*
X8179357Y-13392980D02*
X8169833Y-13345361D01*
X8169833Y-13345361D02*
X8169833Y-13307266D01*
X8169833Y-13307266D02*
X8179357Y-13259647D01*
X8179357Y-13259647D02*
X8188881Y-13231076D01*
X8188881Y-13231076D02*
X8198405Y-13212028D01*
X8198405Y-13212028D02*
X8217452Y-13183456D01*
X8217452Y-13183456D02*
X8226976Y-13173933D01*
X8388881Y-13202504D02*
X8350786Y-13202504D01*
X8350786Y-13202504D02*
X8331738Y-13212028D01*
X8331738Y-13212028D02*
X8322214Y-13221552D01*
X8322214Y-13221552D02*
X8303167Y-13250123D01*
X8303167Y-13250123D02*
X8293643Y-13288218D01*
X8293643Y-13288218D02*
X8293643Y-13364409D01*
X8293643Y-13364409D02*
X8303167Y-13383456D01*
X8303167Y-13383456D02*
X8312691Y-13392980D01*
X8312691Y-13392980D02*
X8331738Y-13402504D01*
X8331738Y-13402504D02*
X8369833Y-13402504D01*
X8369833Y-13402504D02*
X8388881Y-13392980D01*
X8388881Y-13392980D02*
X8398405Y-13383456D01*
X8398405Y-13383456D02*
X8407929Y-13364409D01*
X8407929Y-13364409D02*
X8407929Y-13316790D01*
X8407929Y-13316790D02*
X8398405Y-13297742D01*
X8398405Y-13297742D02*
X8388881Y-13288218D01*
X8388881Y-13288218D02*
X8369833Y-13278695D01*
X8369833Y-13278695D02*
X8331738Y-13278695D01*
X8331738Y-13278695D02*
X8312691Y-13288218D01*
X8312691Y-13288218D02*
X8303167Y-13297742D01*
X8303167Y-13297742D02*
X8293643Y-13316790D01*
X8646024Y-13402504D02*
X8646024Y-13202504D01*
X8731738Y-13402504D02*
X8731738Y-13297742D01*
X8731738Y-13297742D02*
X8722215Y-13278695D01*
X8722215Y-13278695D02*
X8703167Y-13269171D01*
X8703167Y-13269171D02*
X8674595Y-13269171D01*
X8674595Y-13269171D02*
X8655548Y-13278695D01*
X8655548Y-13278695D02*
X8646024Y-13288218D01*
X8855548Y-13402504D02*
X8836500Y-13392980D01*
X8836500Y-13392980D02*
X8826976Y-13383456D01*
X8826976Y-13383456D02*
X8817453Y-13364409D01*
X8817453Y-13364409D02*
X8817453Y-13307266D01*
X8817453Y-13307266D02*
X8826976Y-13288218D01*
X8826976Y-13288218D02*
X8836500Y-13278695D01*
X8836500Y-13278695D02*
X8855548Y-13269171D01*
X8855548Y-13269171D02*
X8884119Y-13269171D01*
X8884119Y-13269171D02*
X8903167Y-13278695D01*
X8903167Y-13278695D02*
X8912691Y-13288218D01*
X8912691Y-13288218D02*
X8922215Y-13307266D01*
X8922215Y-13307266D02*
X8922215Y-13364409D01*
X8922215Y-13364409D02*
X8912691Y-13383456D01*
X8912691Y-13383456D02*
X8903167Y-13392980D01*
X8903167Y-13392980D02*
X8884119Y-13402504D01*
X8884119Y-13402504D02*
X8855548Y-13402504D01*
X9036500Y-13402504D02*
X9017453Y-13392980D01*
X9017453Y-13392980D02*
X9007929Y-13373933D01*
X9007929Y-13373933D02*
X9007929Y-13202504D01*
X9188881Y-13392980D02*
X9169834Y-13402504D01*
X9169834Y-13402504D02*
X9131738Y-13402504D01*
X9131738Y-13402504D02*
X9112691Y-13392980D01*
X9112691Y-13392980D02*
X9103167Y-13373933D01*
X9103167Y-13373933D02*
X9103167Y-13297742D01*
X9103167Y-13297742D02*
X9112691Y-13278695D01*
X9112691Y-13278695D02*
X9131738Y-13269171D01*
X9131738Y-13269171D02*
X9169834Y-13269171D01*
X9169834Y-13269171D02*
X9188881Y-13278695D01*
X9188881Y-13278695D02*
X9198405Y-13297742D01*
X9198405Y-13297742D02*
X9198405Y-13316790D01*
X9198405Y-13316790D02*
X9103167Y-13335837D01*
X9274596Y-13392980D02*
X9293643Y-13402504D01*
X9293643Y-13402504D02*
X9331738Y-13402504D01*
X9331738Y-13402504D02*
X9350786Y-13392980D01*
X9350786Y-13392980D02*
X9360310Y-13373933D01*
X9360310Y-13373933D02*
X9360310Y-13364409D01*
X9360310Y-13364409D02*
X9350786Y-13345361D01*
X9350786Y-13345361D02*
X9331738Y-13335837D01*
X9331738Y-13335837D02*
X9303167Y-13335837D01*
X9303167Y-13335837D02*
X9284119Y-13326314D01*
X9284119Y-13326314D02*
X9274596Y-13307266D01*
X9274596Y-13307266D02*
X9274596Y-13297742D01*
X9274596Y-13297742D02*
X9284119Y-13278695D01*
X9284119Y-13278695D02*
X9303167Y-13269171D01*
X9303167Y-13269171D02*
X9331738Y-13269171D01*
X9331738Y-13269171D02*
X9350786Y-13278695D01*
X9426977Y-13478695D02*
X9436500Y-13469171D01*
X9436500Y-13469171D02*
X9455548Y-13440599D01*
X9455548Y-13440599D02*
X9465072Y-13421552D01*
X9465072Y-13421552D02*
X9474596Y-13392980D01*
X9474596Y-13392980D02*
X9484119Y-13345361D01*
X9484119Y-13345361D02*
X9484119Y-13307266D01*
X9484119Y-13307266D02*
X9474596Y-13259647D01*
X9474596Y-13259647D02*
X9465072Y-13231076D01*
X9465072Y-13231076D02*
X9455548Y-13212028D01*
X9455548Y-13212028D02*
X9436500Y-13183456D01*
X9436500Y-13183456D02*
X9426977Y-13173933D01*
D10*
X4551914Y-13525020D02*
X4651914Y-13625020D01*
X4651914Y-13525020D02*
X4551914Y-13625020D01*
X4651914Y-13575020D02*
G75*
G03*
X4551914Y-13575020I-50000J0D01*
G01*
X4551914Y-13575020D02*
G75*
G03*
X4651914Y-13575020I50000J0D01*
G01*
D11*
X5017452Y-13666504D02*
X4903167Y-13666504D01*
X4960309Y-13666504D02*
X4960309Y-13466504D01*
X4960309Y-13466504D02*
X4941262Y-13495076D01*
X4941262Y-13495076D02*
X4922214Y-13514123D01*
X4922214Y-13514123D02*
X4903167Y-13523647D01*
X5103167Y-13647456D02*
X5112690Y-13656980D01*
X5112690Y-13656980D02*
X5103167Y-13666504D01*
X5103167Y-13666504D02*
X5093643Y-13656980D01*
X5093643Y-13656980D02*
X5103167Y-13647456D01*
X5103167Y-13647456D02*
X5103167Y-13666504D01*
X5236500Y-13466504D02*
X5255548Y-13466504D01*
X5255548Y-13466504D02*
X5274595Y-13476028D01*
X5274595Y-13476028D02*
X5284119Y-13485552D01*
X5284119Y-13485552D02*
X5293643Y-13504599D01*
X5293643Y-13504599D02*
X5303167Y-13542695D01*
X5303167Y-13542695D02*
X5303167Y-13590314D01*
X5303167Y-13590314D02*
X5293643Y-13628409D01*
X5293643Y-13628409D02*
X5284119Y-13647456D01*
X5284119Y-13647456D02*
X5274595Y-13656980D01*
X5274595Y-13656980D02*
X5255548Y-13666504D01*
X5255548Y-13666504D02*
X5236500Y-13666504D01*
X5236500Y-13666504D02*
X5217452Y-13656980D01*
X5217452Y-13656980D02*
X5207928Y-13647456D01*
X5207928Y-13647456D02*
X5198405Y-13628409D01*
X5198405Y-13628409D02*
X5188881Y-13590314D01*
X5188881Y-13590314D02*
X5188881Y-13542695D01*
X5188881Y-13542695D02*
X5198405Y-13504599D01*
X5198405Y-13504599D02*
X5207928Y-13485552D01*
X5207928Y-13485552D02*
X5217452Y-13476028D01*
X5217452Y-13476028D02*
X5236500Y-13466504D01*
X5426976Y-13466504D02*
X5446024Y-13466504D01*
X5446024Y-13466504D02*
X5465071Y-13476028D01*
X5465071Y-13476028D02*
X5474595Y-13485552D01*
X5474595Y-13485552D02*
X5484119Y-13504599D01*
X5484119Y-13504599D02*
X5493643Y-13542695D01*
X5493643Y-13542695D02*
X5493643Y-13590314D01*
X5493643Y-13590314D02*
X5484119Y-13628409D01*
X5484119Y-13628409D02*
X5474595Y-13647456D01*
X5474595Y-13647456D02*
X5465071Y-13656980D01*
X5465071Y-13656980D02*
X5446024Y-13666504D01*
X5446024Y-13666504D02*
X5426976Y-13666504D01*
X5426976Y-13666504D02*
X5407928Y-13656980D01*
X5407928Y-13656980D02*
X5398405Y-13647456D01*
X5398405Y-13647456D02*
X5388881Y-13628409D01*
X5388881Y-13628409D02*
X5379357Y-13590314D01*
X5379357Y-13590314D02*
X5379357Y-13542695D01*
X5379357Y-13542695D02*
X5388881Y-13504599D01*
X5388881Y-13504599D02*
X5398405Y-13485552D01*
X5398405Y-13485552D02*
X5407928Y-13476028D01*
X5407928Y-13476028D02*
X5426976Y-13466504D01*
X5617452Y-13466504D02*
X5636500Y-13466504D01*
X5636500Y-13466504D02*
X5655547Y-13476028D01*
X5655547Y-13476028D02*
X5665071Y-13485552D01*
X5665071Y-13485552D02*
X5674595Y-13504599D01*
X5674595Y-13504599D02*
X5684119Y-13542695D01*
X5684119Y-13542695D02*
X5684119Y-13590314D01*
X5684119Y-13590314D02*
X5674595Y-13628409D01*
X5674595Y-13628409D02*
X5665071Y-13647456D01*
X5665071Y-13647456D02*
X5655547Y-13656980D01*
X5655547Y-13656980D02*
X5636500Y-13666504D01*
X5636500Y-13666504D02*
X5617452Y-13666504D01*
X5617452Y-13666504D02*
X5598405Y-13656980D01*
X5598405Y-13656980D02*
X5588881Y-13647456D01*
X5588881Y-13647456D02*
X5579357Y-13628409D01*
X5579357Y-13628409D02*
X5569833Y-13590314D01*
X5569833Y-13590314D02*
X5569833Y-13542695D01*
X5569833Y-13542695D02*
X5579357Y-13504599D01*
X5579357Y-13504599D02*
X5588881Y-13485552D01*
X5588881Y-13485552D02*
X5598405Y-13476028D01*
X5598405Y-13476028D02*
X5617452Y-13466504D01*
X5769833Y-13666504D02*
X5769833Y-13533171D01*
X5769833Y-13552218D02*
X5779357Y-13542695D01*
X5779357Y-13542695D02*
X5798405Y-13533171D01*
X5798405Y-13533171D02*
X5826976Y-13533171D01*
X5826976Y-13533171D02*
X5846024Y-13542695D01*
X5846024Y-13542695D02*
X5855547Y-13561742D01*
X5855547Y-13561742D02*
X5855547Y-13666504D01*
X5855547Y-13561742D02*
X5865071Y-13542695D01*
X5865071Y-13542695D02*
X5884119Y-13533171D01*
X5884119Y-13533171D02*
X5912690Y-13533171D01*
X5912690Y-13533171D02*
X5931738Y-13542695D01*
X5931738Y-13542695D02*
X5941262Y-13561742D01*
X5941262Y-13561742D02*
X5941262Y-13666504D01*
X6036500Y-13666504D02*
X6036500Y-13533171D01*
X6036500Y-13552218D02*
X6046024Y-13542695D01*
X6046024Y-13542695D02*
X6065071Y-13533171D01*
X6065071Y-13533171D02*
X6093643Y-13533171D01*
X6093643Y-13533171D02*
X6112690Y-13542695D01*
X6112690Y-13542695D02*
X6122214Y-13561742D01*
X6122214Y-13561742D02*
X6122214Y-13666504D01*
X6122214Y-13561742D02*
X6131738Y-13542695D01*
X6131738Y-13542695D02*
X6150786Y-13533171D01*
X6150786Y-13533171D02*
X6179357Y-13533171D01*
X6179357Y-13533171D02*
X6198405Y-13542695D01*
X6198405Y-13542695D02*
X6207928Y-13561742D01*
X6207928Y-13561742D02*
X6207928Y-13666504D01*
X6598405Y-13456980D02*
X6426976Y-13714123D01*
X6855548Y-13466504D02*
X6874595Y-13466504D01*
X6874595Y-13466504D02*
X6893643Y-13476028D01*
X6893643Y-13476028D02*
X6903167Y-13485552D01*
X6903167Y-13485552D02*
X6912690Y-13504599D01*
X6912690Y-13504599D02*
X6922214Y-13542695D01*
X6922214Y-13542695D02*
X6922214Y-13590314D01*
X6922214Y-13590314D02*
X6912690Y-13628409D01*
X6912690Y-13628409D02*
X6903167Y-13647456D01*
X6903167Y-13647456D02*
X6893643Y-13656980D01*
X6893643Y-13656980D02*
X6874595Y-13666504D01*
X6874595Y-13666504D02*
X6855548Y-13666504D01*
X6855548Y-13666504D02*
X6836500Y-13656980D01*
X6836500Y-13656980D02*
X6826976Y-13647456D01*
X6826976Y-13647456D02*
X6817452Y-13628409D01*
X6817452Y-13628409D02*
X6807929Y-13590314D01*
X6807929Y-13590314D02*
X6807929Y-13542695D01*
X6807929Y-13542695D02*
X6817452Y-13504599D01*
X6817452Y-13504599D02*
X6826976Y-13485552D01*
X6826976Y-13485552D02*
X6836500Y-13476028D01*
X6836500Y-13476028D02*
X6855548Y-13466504D01*
X7007929Y-13647456D02*
X7017452Y-13656980D01*
X7017452Y-13656980D02*
X7007929Y-13666504D01*
X7007929Y-13666504D02*
X6998405Y-13656980D01*
X6998405Y-13656980D02*
X7007929Y-13647456D01*
X7007929Y-13647456D02*
X7007929Y-13666504D01*
X7141262Y-13466504D02*
X7160310Y-13466504D01*
X7160310Y-13466504D02*
X7179357Y-13476028D01*
X7179357Y-13476028D02*
X7188881Y-13485552D01*
X7188881Y-13485552D02*
X7198405Y-13504599D01*
X7198405Y-13504599D02*
X7207929Y-13542695D01*
X7207929Y-13542695D02*
X7207929Y-13590314D01*
X7207929Y-13590314D02*
X7198405Y-13628409D01*
X7198405Y-13628409D02*
X7188881Y-13647456D01*
X7188881Y-13647456D02*
X7179357Y-13656980D01*
X7179357Y-13656980D02*
X7160310Y-13666504D01*
X7160310Y-13666504D02*
X7141262Y-13666504D01*
X7141262Y-13666504D02*
X7122214Y-13656980D01*
X7122214Y-13656980D02*
X7112690Y-13647456D01*
X7112690Y-13647456D02*
X7103167Y-13628409D01*
X7103167Y-13628409D02*
X7093643Y-13590314D01*
X7093643Y-13590314D02*
X7093643Y-13542695D01*
X7093643Y-13542695D02*
X7103167Y-13504599D01*
X7103167Y-13504599D02*
X7112690Y-13485552D01*
X7112690Y-13485552D02*
X7122214Y-13476028D01*
X7122214Y-13476028D02*
X7141262Y-13466504D01*
X7274595Y-13466504D02*
X7398405Y-13466504D01*
X7398405Y-13466504D02*
X7331738Y-13542695D01*
X7331738Y-13542695D02*
X7360310Y-13542695D01*
X7360310Y-13542695D02*
X7379357Y-13552218D01*
X7379357Y-13552218D02*
X7388881Y-13561742D01*
X7388881Y-13561742D02*
X7398405Y-13580790D01*
X7398405Y-13580790D02*
X7398405Y-13628409D01*
X7398405Y-13628409D02*
X7388881Y-13647456D01*
X7388881Y-13647456D02*
X7379357Y-13656980D01*
X7379357Y-13656980D02*
X7360310Y-13666504D01*
X7360310Y-13666504D02*
X7303167Y-13666504D01*
X7303167Y-13666504D02*
X7284119Y-13656980D01*
X7284119Y-13656980D02*
X7274595Y-13647456D01*
X7493643Y-13666504D02*
X7531738Y-13666504D01*
X7531738Y-13666504D02*
X7550786Y-13656980D01*
X7550786Y-13656980D02*
X7560310Y-13647456D01*
X7560310Y-13647456D02*
X7579357Y-13618885D01*
X7579357Y-13618885D02*
X7588881Y-13580790D01*
X7588881Y-13580790D02*
X7588881Y-13504599D01*
X7588881Y-13504599D02*
X7579357Y-13485552D01*
X7579357Y-13485552D02*
X7569833Y-13476028D01*
X7569833Y-13476028D02*
X7550786Y-13466504D01*
X7550786Y-13466504D02*
X7512690Y-13466504D01*
X7512690Y-13466504D02*
X7493643Y-13476028D01*
X7493643Y-13476028D02*
X7484119Y-13485552D01*
X7484119Y-13485552D02*
X7474595Y-13504599D01*
X7474595Y-13504599D02*
X7474595Y-13552218D01*
X7474595Y-13552218D02*
X7484119Y-13571266D01*
X7484119Y-13571266D02*
X7493643Y-13580790D01*
X7493643Y-13580790D02*
X7512690Y-13590314D01*
X7512690Y-13590314D02*
X7550786Y-13590314D01*
X7550786Y-13590314D02*
X7569833Y-13580790D01*
X7569833Y-13580790D02*
X7579357Y-13571266D01*
X7579357Y-13571266D02*
X7588881Y-13552218D01*
X7760310Y-13533171D02*
X7760310Y-13666504D01*
X7712690Y-13456980D02*
X7665071Y-13599837D01*
X7665071Y-13599837D02*
X7788881Y-13599837D01*
X7855548Y-13466504D02*
X7855548Y-13504599D01*
X7931738Y-13466504D02*
X7931738Y-13504599D01*
X8226976Y-13742695D02*
X8217452Y-13733171D01*
X8217452Y-13733171D02*
X8198405Y-13704599D01*
X8198405Y-13704599D02*
X8188881Y-13685552D01*
X8188881Y-13685552D02*
X8179357Y-13656980D01*
X8179357Y-13656980D02*
X8169833Y-13609361D01*
X8169833Y-13609361D02*
X8169833Y-13571266D01*
X8169833Y-13571266D02*
X8179357Y-13523647D01*
X8179357Y-13523647D02*
X8188881Y-13495076D01*
X8188881Y-13495076D02*
X8198405Y-13476028D01*
X8198405Y-13476028D02*
X8217452Y-13447456D01*
X8217452Y-13447456D02*
X8226976Y-13437933D01*
X8284119Y-13466504D02*
X8417453Y-13466504D01*
X8417453Y-13466504D02*
X8331738Y-13666504D01*
X8579357Y-13533171D02*
X8579357Y-13666504D01*
X8531738Y-13456980D02*
X8484119Y-13599837D01*
X8484119Y-13599837D02*
X8607929Y-13599837D01*
X8836500Y-13666504D02*
X8836500Y-13466504D01*
X8922215Y-13666504D02*
X8922215Y-13561742D01*
X8922215Y-13561742D02*
X8912691Y-13542695D01*
X8912691Y-13542695D02*
X8893643Y-13533171D01*
X8893643Y-13533171D02*
X8865072Y-13533171D01*
X8865072Y-13533171D02*
X8846024Y-13542695D01*
X8846024Y-13542695D02*
X8836500Y-13552218D01*
X9046024Y-13666504D02*
X9026976Y-13656980D01*
X9026976Y-13656980D02*
X9017453Y-13647456D01*
X9017453Y-13647456D02*
X9007929Y-13628409D01*
X9007929Y-13628409D02*
X9007929Y-13571266D01*
X9007929Y-13571266D02*
X9017453Y-13552218D01*
X9017453Y-13552218D02*
X9026976Y-13542695D01*
X9026976Y-13542695D02*
X9046024Y-13533171D01*
X9046024Y-13533171D02*
X9074596Y-13533171D01*
X9074596Y-13533171D02*
X9093643Y-13542695D01*
X9093643Y-13542695D02*
X9103167Y-13552218D01*
X9103167Y-13552218D02*
X9112691Y-13571266D01*
X9112691Y-13571266D02*
X9112691Y-13628409D01*
X9112691Y-13628409D02*
X9103167Y-13647456D01*
X9103167Y-13647456D02*
X9093643Y-13656980D01*
X9093643Y-13656980D02*
X9074596Y-13666504D01*
X9074596Y-13666504D02*
X9046024Y-13666504D01*
X9226976Y-13666504D02*
X9207929Y-13656980D01*
X9207929Y-13656980D02*
X9198405Y-13637933D01*
X9198405Y-13637933D02*
X9198405Y-13466504D01*
X9379357Y-13656980D02*
X9360310Y-13666504D01*
X9360310Y-13666504D02*
X9322215Y-13666504D01*
X9322215Y-13666504D02*
X9303167Y-13656980D01*
X9303167Y-13656980D02*
X9293643Y-13637933D01*
X9293643Y-13637933D02*
X9293643Y-13561742D01*
X9293643Y-13561742D02*
X9303167Y-13542695D01*
X9303167Y-13542695D02*
X9322215Y-13533171D01*
X9322215Y-13533171D02*
X9360310Y-13533171D01*
X9360310Y-13533171D02*
X9379357Y-13542695D01*
X9379357Y-13542695D02*
X9388881Y-13561742D01*
X9388881Y-13561742D02*
X9388881Y-13580790D01*
X9388881Y-13580790D02*
X9293643Y-13599837D01*
X9465072Y-13656980D02*
X9484119Y-13666504D01*
X9484119Y-13666504D02*
X9522215Y-13666504D01*
X9522215Y-13666504D02*
X9541262Y-13656980D01*
X9541262Y-13656980D02*
X9550786Y-13637933D01*
X9550786Y-13637933D02*
X9550786Y-13628409D01*
X9550786Y-13628409D02*
X9541262Y-13609361D01*
X9541262Y-13609361D02*
X9522215Y-13599837D01*
X9522215Y-13599837D02*
X9493643Y-13599837D01*
X9493643Y-13599837D02*
X9474596Y-13590314D01*
X9474596Y-13590314D02*
X9465072Y-13571266D01*
X9465072Y-13571266D02*
X9465072Y-13561742D01*
X9465072Y-13561742D02*
X9474596Y-13542695D01*
X9474596Y-13542695D02*
X9493643Y-13533171D01*
X9493643Y-13533171D02*
X9522215Y-13533171D01*
X9522215Y-13533171D02*
X9541262Y-13542695D01*
X9788881Y-13590314D02*
X9941262Y-13590314D01*
X9865072Y-13666504D02*
X9865072Y-13514123D01*
X10169834Y-13466504D02*
X10293643Y-13466504D01*
X10293643Y-13466504D02*
X10226977Y-13542695D01*
X10226977Y-13542695D02*
X10255548Y-13542695D01*
X10255548Y-13542695D02*
X10274596Y-13552218D01*
X10274596Y-13552218D02*
X10284119Y-13561742D01*
X10284119Y-13561742D02*
X10293643Y-13580790D01*
X10293643Y-13580790D02*
X10293643Y-13628409D01*
X10293643Y-13628409D02*
X10284119Y-13647456D01*
X10284119Y-13647456D02*
X10274596Y-13656980D01*
X10274596Y-13656980D02*
X10255548Y-13666504D01*
X10255548Y-13666504D02*
X10198405Y-13666504D01*
X10198405Y-13666504D02*
X10179358Y-13656980D01*
X10179358Y-13656980D02*
X10169834Y-13647456D01*
X10522215Y-13656980D02*
X10541262Y-13666504D01*
X10541262Y-13666504D02*
X10579358Y-13666504D01*
X10579358Y-13666504D02*
X10598405Y-13656980D01*
X10598405Y-13656980D02*
X10607929Y-13637933D01*
X10607929Y-13637933D02*
X10607929Y-13628409D01*
X10607929Y-13628409D02*
X10598405Y-13609361D01*
X10598405Y-13609361D02*
X10579358Y-13599837D01*
X10579358Y-13599837D02*
X10550786Y-13599837D01*
X10550786Y-13599837D02*
X10531739Y-13590314D01*
X10531739Y-13590314D02*
X10522215Y-13571266D01*
X10522215Y-13571266D02*
X10522215Y-13561742D01*
X10522215Y-13561742D02*
X10531739Y-13542695D01*
X10531739Y-13542695D02*
X10550786Y-13533171D01*
X10550786Y-13533171D02*
X10579358Y-13533171D01*
X10579358Y-13533171D02*
X10598405Y-13542695D01*
X10722215Y-13666504D02*
X10703167Y-13656980D01*
X10703167Y-13656980D02*
X10693643Y-13637933D01*
X10693643Y-13637933D02*
X10693643Y-13466504D01*
X10826977Y-13666504D02*
X10807929Y-13656980D01*
X10807929Y-13656980D02*
X10798405Y-13647456D01*
X10798405Y-13647456D02*
X10788881Y-13628409D01*
X10788881Y-13628409D02*
X10788881Y-13571266D01*
X10788881Y-13571266D02*
X10798405Y-13552218D01*
X10798405Y-13552218D02*
X10807929Y-13542695D01*
X10807929Y-13542695D02*
X10826977Y-13533171D01*
X10826977Y-13533171D02*
X10855548Y-13533171D01*
X10855548Y-13533171D02*
X10874596Y-13542695D01*
X10874596Y-13542695D02*
X10884120Y-13552218D01*
X10884120Y-13552218D02*
X10893643Y-13571266D01*
X10893643Y-13571266D02*
X10893643Y-13628409D01*
X10893643Y-13628409D02*
X10884120Y-13647456D01*
X10884120Y-13647456D02*
X10874596Y-13656980D01*
X10874596Y-13656980D02*
X10855548Y-13666504D01*
X10855548Y-13666504D02*
X10826977Y-13666504D01*
X10950786Y-13533171D02*
X11026977Y-13533171D01*
X10979358Y-13466504D02*
X10979358Y-13637933D01*
X10979358Y-13637933D02*
X10988881Y-13656980D01*
X10988881Y-13656980D02*
X11007929Y-13666504D01*
X11007929Y-13666504D02*
X11026977Y-13666504D01*
X11084120Y-13656980D02*
X11103167Y-13666504D01*
X11103167Y-13666504D02*
X11141262Y-13666504D01*
X11141262Y-13666504D02*
X11160310Y-13656980D01*
X11160310Y-13656980D02*
X11169834Y-13637933D01*
X11169834Y-13637933D02*
X11169834Y-13628409D01*
X11169834Y-13628409D02*
X11160310Y-13609361D01*
X11160310Y-13609361D02*
X11141262Y-13599837D01*
X11141262Y-13599837D02*
X11112691Y-13599837D01*
X11112691Y-13599837D02*
X11093643Y-13590314D01*
X11093643Y-13590314D02*
X11084120Y-13571266D01*
X11084120Y-13571266D02*
X11084120Y-13561742D01*
X11084120Y-13561742D02*
X11093643Y-13542695D01*
X11093643Y-13542695D02*
X11112691Y-13533171D01*
X11112691Y-13533171D02*
X11141262Y-13533171D01*
X11141262Y-13533171D02*
X11160310Y-13542695D01*
X11236500Y-13742695D02*
X11246024Y-13733171D01*
X11246024Y-13733171D02*
X11265072Y-13704599D01*
X11265072Y-13704599D02*
X11274596Y-13685552D01*
X11274596Y-13685552D02*
X11284119Y-13656980D01*
X11284119Y-13656980D02*
X11293643Y-13609361D01*
X11293643Y-13609361D02*
X11293643Y-13571266D01*
X11293643Y-13571266D02*
X11284119Y-13523647D01*
X11284119Y-13523647D02*
X11274596Y-13495076D01*
X11274596Y-13495076D02*
X11265072Y-13476028D01*
X11265072Y-13476028D02*
X11246024Y-13447456D01*
X11246024Y-13447456D02*
X11236500Y-13437933D01*
M02*
