%TF.GenerationSoftware,KiCad,Pcbnew,7.0.11*%
%TF.CreationDate,2024-06-27T03:27:34+01:00*%
%TF.ProjectId,Electron-PS2USB,456c6563-7472-46f6-9e2d-505332555342,rev?*%
%TF.SameCoordinates,Original*%
%TF.FileFunction,Soldermask,Top*%
%TF.FilePolarity,Negative*%
%FSLAX46Y46*%
G04 Gerber Fmt 4.6, Leading zero omitted, Abs format (unit mm)*
G04 Created by KiCad (PCBNEW 7.0.11) date 2024-06-27 03:27:34*
%MOMM*%
%LPD*%
G01*
G04 APERTURE LIST*
%ADD10R,1.500000X1.500000*%
%ADD11O,1.500000X1.500000*%
%ADD12C,1.500000*%
%ADD13C,1.780000*%
%ADD14R,1.600000X1.600000*%
%ADD15O,1.600000X1.600000*%
%ADD16C,1.400000*%
%ADD17O,1.400000X1.400000*%
%ADD18R,1.800000X1.800000*%
%ADD19C,1.800000*%
%ADD20C,1.600000*%
%ADD21O,3.500000X2.000000*%
%ADD22O,2.000000X4.000000*%
%ADD23R,1.700000X1.700000*%
%ADD24O,1.700000X1.700000*%
G04 APERTURE END LIST*
D10*
%TO.C,D6*%
X82875000Y-106640000D03*
D11*
X82875000Y-99020000D03*
%TD*%
D10*
%TO.C,Q1*%
X111745000Y-102775000D03*
D12*
X114285000Y-102775000D03*
X116825000Y-102775000D03*
%TD*%
D13*
%TO.C,U2*%
X82160000Y-77540000D03*
X122800000Y-77540000D03*
X82160000Y-62300000D03*
X122800000Y-62300000D03*
D14*
X84700000Y-77540000D03*
D15*
X87240000Y-77540000D03*
X89780000Y-77540000D03*
X92320000Y-77540000D03*
X94860000Y-77540000D03*
X97400000Y-77540000D03*
X99940000Y-77540000D03*
X102480000Y-77540000D03*
X105020000Y-77540000D03*
X107560000Y-77540000D03*
X110100000Y-77540000D03*
X112640000Y-77540000D03*
X115180000Y-77540000D03*
X117720000Y-77540000D03*
X120260000Y-77540000D03*
X120260000Y-62300000D03*
X117720000Y-62300000D03*
X115180000Y-62300000D03*
X112640000Y-62300000D03*
X110100000Y-62300000D03*
X107560000Y-62300000D03*
X105020000Y-62300000D03*
X102480000Y-62300000D03*
X99940000Y-62300000D03*
X97400000Y-62300000D03*
X94860000Y-62300000D03*
X92320000Y-62300000D03*
X89780000Y-62300000D03*
X87240000Y-62300000D03*
X84700000Y-62300000D03*
%TD*%
D10*
%TO.C,D7*%
X84975000Y-106640000D03*
D11*
X84975000Y-99020000D03*
%TD*%
D14*
%TO.C,U1*%
X66925000Y-96225000D03*
D15*
X69465000Y-96225000D03*
X72005000Y-96225000D03*
X74545000Y-96225000D03*
X77085000Y-96225000D03*
X79625000Y-96225000D03*
X82165000Y-96225000D03*
X84705000Y-96225000D03*
X87245000Y-96225000D03*
X89785000Y-96225000D03*
X92325000Y-96225000D03*
X94865000Y-96225000D03*
X97405000Y-96225000D03*
X99945000Y-96225000D03*
X102485000Y-96225000D03*
X105025000Y-96225000D03*
X107565000Y-96225000D03*
X110105000Y-96225000D03*
X112645000Y-96225000D03*
X115185000Y-96225000D03*
X115185000Y-80985000D03*
X112645000Y-80985000D03*
X110105000Y-80985000D03*
X107565000Y-80985000D03*
X105025000Y-80985000D03*
X102485000Y-80985000D03*
X99945000Y-80985000D03*
X97405000Y-80985000D03*
X94865000Y-80985000D03*
X92325000Y-80985000D03*
X89785000Y-80985000D03*
X87245000Y-80985000D03*
X84705000Y-80985000D03*
X82165000Y-80985000D03*
X79625000Y-80985000D03*
X77085000Y-80985000D03*
X74545000Y-80985000D03*
X72005000Y-80985000D03*
X69465000Y-80985000D03*
X66925000Y-80985000D03*
%TD*%
D16*
%TO.C,R18*%
X116560000Y-108650000D03*
D17*
X108940000Y-108650000D03*
%TD*%
D10*
%TO.C,D9*%
X89225000Y-106640000D03*
D11*
X89225000Y-99020000D03*
%TD*%
D18*
%TO.C,D17*%
X116435000Y-112100000D03*
D19*
X118975000Y-112100000D03*
%TD*%
D10*
%TO.C,D8*%
X87100000Y-106640000D03*
D11*
X87100000Y-99020000D03*
%TD*%
D16*
%TO.C,R3*%
X69600000Y-103900000D03*
D17*
X61980000Y-103900000D03*
%TD*%
D16*
%TO.C,R4*%
X69600000Y-101750000D03*
D17*
X61980000Y-101750000D03*
%TD*%
D14*
%TO.C,J3*%
X121925000Y-86625000D03*
D20*
X121925000Y-89225000D03*
X121925000Y-84525000D03*
X121925000Y-91325000D03*
X119125000Y-84525000D03*
X119125000Y-91325000D03*
D21*
X124775000Y-94775000D03*
D22*
X125575000Y-87925000D03*
D21*
X124775000Y-81075000D03*
%TD*%
D16*
%TO.C,R17*%
X102065000Y-103275000D03*
D17*
X109685000Y-103275000D03*
%TD*%
D10*
%TO.C,D14*%
X99800000Y-106640000D03*
D11*
X99800000Y-99020000D03*
%TD*%
D10*
%TO.C,D3*%
X76525000Y-106640000D03*
D11*
X76525000Y-99020000D03*
%TD*%
D10*
%TO.C,D5*%
X80750000Y-106640000D03*
D11*
X80750000Y-99020000D03*
%TD*%
D18*
%TO.C,D16*%
X111125000Y-112100000D03*
D19*
X113665000Y-112100000D03*
%TD*%
D10*
%TO.C,D12*%
X95600000Y-106640000D03*
D11*
X95600000Y-99020000D03*
%TD*%
D23*
%TO.C,CP1*%
X48755000Y-113650000D03*
D24*
X51295000Y-113650000D03*
X53835000Y-113650000D03*
X56375000Y-113650000D03*
X58915000Y-113650000D03*
X61455000Y-113650000D03*
X63995000Y-113650000D03*
X66535000Y-113650000D03*
X69075000Y-113650000D03*
X71615000Y-113650000D03*
X74155000Y-113650000D03*
X76695000Y-113650000D03*
X79235000Y-113650000D03*
X81775000Y-113650000D03*
X84315000Y-113650000D03*
X86855000Y-113650000D03*
X89395000Y-113650000D03*
X91935000Y-113650000D03*
X94475000Y-113650000D03*
X97015000Y-113650000D03*
X99555000Y-113650000D03*
X102095000Y-113650000D03*
%TD*%
D16*
%TO.C,R16*%
X109685000Y-101100000D03*
D17*
X102065000Y-101100000D03*
%TD*%
D16*
%TO.C,R5*%
X69600000Y-99600000D03*
D17*
X61980000Y-99600000D03*
%TD*%
D16*
%TO.C,R2*%
X69600000Y-106050000D03*
D17*
X61980000Y-106050000D03*
%TD*%
D10*
%TO.C,D4*%
X78650000Y-106640000D03*
D11*
X78650000Y-99020000D03*
%TD*%
D14*
%TO.C,U7*%
X96491000Y-74850000D03*
D15*
X99031000Y-74850000D03*
X101571000Y-74850000D03*
X104111000Y-74850000D03*
X106651000Y-74850000D03*
X109191000Y-74850000D03*
X111731000Y-74850000D03*
X111731000Y-59610000D03*
X109191000Y-59610000D03*
X106651000Y-59610000D03*
X104111000Y-59610000D03*
X101571000Y-59610000D03*
X99031000Y-59610000D03*
X96491000Y-59610000D03*
%TD*%
D10*
%TO.C,D13*%
X97700000Y-106640000D03*
D11*
X97700000Y-99020000D03*
%TD*%
D14*
%TO.C,C2*%
X76525000Y-74625000D03*
D20*
X78525000Y-74625000D03*
%TD*%
%TO.C,C1*%
X63975000Y-91175000D03*
X63975000Y-86175000D03*
%TD*%
D10*
%TO.C,D10*%
X91350000Y-106640000D03*
D11*
X91350000Y-99020000D03*
%TD*%
D23*
%TO.C,CP2*%
X48755000Y-109550000D03*
D24*
X51295000Y-109550000D03*
X53835000Y-109550000D03*
X56375000Y-109550000D03*
X58915000Y-109550000D03*
X61455000Y-109550000D03*
X63995000Y-109550000D03*
X66535000Y-109550000D03*
X69075000Y-109550000D03*
X71615000Y-109550000D03*
X74155000Y-109550000D03*
X76695000Y-109550000D03*
X79235000Y-109550000D03*
X81775000Y-109550000D03*
X84315000Y-109550000D03*
X86855000Y-109550000D03*
X89395000Y-109550000D03*
X91935000Y-109550000D03*
X94475000Y-109550000D03*
X97015000Y-109550000D03*
X99555000Y-109550000D03*
X102095000Y-109550000D03*
%TD*%
D18*
%TO.C,D15*%
X105710000Y-112100000D03*
D19*
X108250000Y-112100000D03*
%TD*%
D10*
%TO.C,D11*%
X93475000Y-106640000D03*
D11*
X93475000Y-99020000D03*
%TD*%
D16*
%TO.C,R19*%
X116560000Y-106500000D03*
D17*
X108940000Y-106500000D03*
%TD*%
D16*
%TO.C,R15*%
X108215000Y-98900000D03*
D17*
X115835000Y-98900000D03*
%TD*%
D10*
%TO.C,D2*%
X74400000Y-106640000D03*
D11*
X74400000Y-99020000D03*
%TD*%
D10*
%TO.C,D1*%
X72275000Y-106640000D03*
D11*
X72275000Y-99020000D03*
%TD*%
M02*
