%TF.GenerationSoftware,KiCad,Pcbnew,7.0.11*%
%TF.CreationDate,2024-06-27T03:27:34+01:00*%
%TF.ProjectId,Electron-PS2USB,456c6563-7472-46f6-9e2d-505332555342,rev?*%
%TF.SameCoordinates,Original*%
%TF.FileFunction,Copper,L1,Top*%
%TF.FilePolarity,Positive*%
%FSLAX46Y46*%
G04 Gerber Fmt 4.6, Leading zero omitted, Abs format (unit mm)*
G04 Created by KiCad (PCBNEW 7.0.11) date 2024-06-27 03:27:34*
%MOMM*%
%LPD*%
G01*
G04 APERTURE LIST*
%TA.AperFunction,ComponentPad*%
%ADD10R,1.500000X1.500000*%
%TD*%
%TA.AperFunction,ComponentPad*%
%ADD11O,1.500000X1.500000*%
%TD*%
%TA.AperFunction,ComponentPad*%
%ADD12C,1.500000*%
%TD*%
%TA.AperFunction,ComponentPad*%
%ADD13R,1.600000X1.600000*%
%TD*%
%TA.AperFunction,ComponentPad*%
%ADD14O,1.600000X1.600000*%
%TD*%
%TA.AperFunction,ComponentPad*%
%ADD15C,1.400000*%
%TD*%
%TA.AperFunction,ComponentPad*%
%ADD16O,1.400000X1.400000*%
%TD*%
%TA.AperFunction,ComponentPad*%
%ADD17R,1.800000X1.800000*%
%TD*%
%TA.AperFunction,ComponentPad*%
%ADD18C,1.800000*%
%TD*%
%TA.AperFunction,ComponentPad*%
%ADD19C,1.600000*%
%TD*%
%TA.AperFunction,ComponentPad*%
%ADD20O,3.500000X2.000000*%
%TD*%
%TA.AperFunction,ComponentPad*%
%ADD21O,2.000000X4.000000*%
%TD*%
%TA.AperFunction,ComponentPad*%
%ADD22R,1.700000X1.700000*%
%TD*%
%TA.AperFunction,ComponentPad*%
%ADD23O,1.700000X1.700000*%
%TD*%
%TA.AperFunction,ViaPad*%
%ADD24C,0.800000*%
%TD*%
%TA.AperFunction,Conductor*%
%ADD25C,0.250000*%
%TD*%
%TA.AperFunction,Conductor*%
%ADD26C,1.000000*%
%TD*%
%TA.AperFunction,Conductor*%
%ADD27C,0.500000*%
%TD*%
G04 APERTURE END LIST*
D10*
%TO.P,D6,1,K*%
%TO.N,/A8*%
X82875000Y-106640000D03*
D11*
%TO.P,D6,2,A*%
%TO.N,COL5*%
X82875000Y-99020000D03*
%TD*%
D10*
%TO.P,Q1,1,C*%
%TO.N,!RST*%
X111745000Y-102775000D03*
D12*
%TO.P,Q1,2,B*%
%TO.N,Net-(Q1-B)*%
X114285000Y-102775000D03*
%TO.P,Q1,3,E*%
%TO.N,GND*%
X116825000Y-102775000D03*
%TD*%
D13*
%TO.P,U2,1,Pin_1*%
%TO.N,unconnected-(U2-Pin_1-Pad1)*%
X84700000Y-77540000D03*
D14*
%TO.P,U2,2,Pin_2*%
%TO.N,unconnected-(U2-Pin_2-Pad2)*%
X87240000Y-77540000D03*
%TO.P,U2,3,Pin_3*%
%TO.N,unconnected-(U2-Pin_3-Pad3)*%
X89780000Y-77540000D03*
%TO.P,U2,4,Pin_4*%
%TO.N,GND*%
X92320000Y-77540000D03*
%TO.P,U2,5,Pin_5*%
%TO.N,DATA*%
X94860000Y-77540000D03*
%TO.P,U2,6,Pin_6*%
%TO.N,PS2-CLK*%
X97400000Y-77540000D03*
%TO.P,U2,7,Pin_7*%
%TO.N,STROBE*%
X99940000Y-77540000D03*
%TO.P,U2,8,Pin_8*%
%TO.N,AY2*%
X102480000Y-77540000D03*
%TO.P,U2,9,Pin_9*%
%TO.N,AY1*%
X105020000Y-77540000D03*
%TO.P,U2,10,Pin_10*%
%TO.N,AY0*%
X107560000Y-77540000D03*
%TO.P,U2,11,Pin_11*%
%TO.N,AX2*%
X110100000Y-77540000D03*
%TO.P,U2,12,Pin_12*%
%TO.N,AX1*%
X112640000Y-77540000D03*
%TO.P,U2,13,Pin_13*%
%TO.N,AX0*%
X115180000Y-77540000D03*
%TO.P,U2,14,Pin_14*%
%TO.N,AX3*%
X117720000Y-77540000D03*
%TO.P,U2,15,Pin_15*%
%TO.N,PS2-DATA*%
X120260000Y-77540000D03*
%TO.P,U2,16,Pin_16*%
%TO.N,RESET*%
X120260000Y-62300000D03*
%TO.P,U2,17,Pin_17*%
%TO.N,unconnected-(U2-Pin_17-Pad17)*%
X117720000Y-62300000D03*
%TO.P,U2,18,Pin_18*%
%TO.N,unconnected-(U2-Pin_18-Pad18)*%
X115180000Y-62300000D03*
%TO.P,U2,19,Pin_19*%
%TO.N,BREAK*%
X112640000Y-62300000D03*
%TO.P,U2,20,Pin_20*%
%TO.N,unconnected-(U2-Pin_20-Pad20)*%
X110100000Y-62300000D03*
%TO.P,U2,21,Pin_21*%
%TO.N,unconnected-(U2-Pin_21-Pad21)*%
X107560000Y-62300000D03*
%TO.P,U2,22,Pin_22*%
%TO.N,unconnected-(U2-Pin_22-Pad22)*%
X105020000Y-62300000D03*
%TO.P,U2,23,Pin_23*%
%TO.N,unconnected-(U2-Pin_23-Pad23)*%
X102480000Y-62300000D03*
%TO.P,U2,24,Pin_24*%
%TO.N,unconnected-(U2-Pin_24-Pad24)*%
X99940000Y-62300000D03*
%TO.P,U2,25,Pin_25*%
%TO.N,unconnected-(U2-Pin_25-Pad25)*%
X97400000Y-62300000D03*
%TO.P,U2,26,Pin_26*%
%TO.N,unconnected-(U2-Pin_26-Pad26)*%
X94860000Y-62300000D03*
%TO.P,U2,27,Pin_27*%
%TO.N,+5V*%
X92320000Y-62300000D03*
%TO.P,U2,28,Pin_28*%
%TO.N,unconnected-(U2-Pin_28-Pad28)*%
X89780000Y-62300000D03*
%TO.P,U2,29,Pin_29*%
%TO.N,GND*%
X87240000Y-62300000D03*
%TO.P,U2,30,Pin_30*%
%TO.N,unconnected-(U2-Pin_30-Pad30)*%
X84700000Y-62300000D03*
%TD*%
D10*
%TO.P,D7,1,K*%
%TO.N,/A7*%
X84975000Y-106640000D03*
D11*
%TO.P,D7,2,A*%
%TO.N,COL6*%
X84975000Y-99020000D03*
%TD*%
D13*
%TO.P,U1,1,Pin_1*%
%TO.N,ROW3*%
X66925000Y-96225000D03*
D14*
%TO.P,U1,2,Pin_2*%
%TO.N,AY2*%
X69465000Y-96225000D03*
%TO.P,U1,3,Pin_3*%
%TO.N,RESET*%
X72005000Y-96225000D03*
%TO.P,U1,4,Pin_4*%
%TO.N,AX3*%
X74545000Y-96225000D03*
%TO.P,U1,5,Pin_5*%
%TO.N,AX0*%
X77085000Y-96225000D03*
%TO.P,U1,6,Pin_6*%
%TO.N,FLOAT*%
X79625000Y-96225000D03*
%TO.P,U1,7,Pin_7*%
X82165000Y-96225000D03*
%TO.P,U1,8,Pin_8*%
%TO.N,COL6*%
X84705000Y-96225000D03*
%TO.P,U1,9,Pin_9*%
%TO.N,COL7*%
X87245000Y-96225000D03*
%TO.P,U1,10,Pin_10*%
%TO.N,COL8*%
X89785000Y-96225000D03*
%TO.P,U1,11,Pin_11*%
%TO.N,COL9*%
X92325000Y-96225000D03*
%TO.P,U1,12,Pin_12*%
%TO.N,COL10*%
X94865000Y-96225000D03*
%TO.P,U1,13,Pin_13*%
%TO.N,COL11*%
X97405000Y-96225000D03*
%TO.P,U1,14,Pin_14*%
%TO.N,unconnected-(U1-Pin_14-Pad14)*%
X99945000Y-96225000D03*
%TO.P,U1,15,Pin_15*%
%TO.N,unconnected-(U1-Pin_15-Pad15)*%
X102485000Y-96225000D03*
%TO.P,U1,16,Pin_16*%
%TO.N,GND*%
X105025000Y-96225000D03*
%TO.P,U1,17,Pin_17*%
%TO.N,unconnected-(U1-Pin_17-Pad17)*%
X107565000Y-96225000D03*
%TO.P,U1,18,Pin_18*%
%TO.N,STROBE*%
X110105000Y-96225000D03*
%TO.P,U1,19,Pin_19*%
%TO.N,FLOAT*%
X112645000Y-96225000D03*
%TO.P,U1,20,Pin_20*%
%TO.N,GND*%
X115185000Y-96225000D03*
%TO.P,U1,21,Pin_21*%
%TO.N,unconnected-(U1-Pin_21-Pad21)*%
X115185000Y-80985000D03*
%TO.P,U1,22,Pin_22*%
%TO.N,AX1*%
X112645000Y-80985000D03*
%TO.P,U1,23,Pin_23*%
%TO.N,AX2*%
X110105000Y-80985000D03*
%TO.P,U1,24,Pin_24*%
%TO.N,AY0*%
X107565000Y-80985000D03*
%TO.P,U1,25,Pin_25*%
%TO.N,AY1*%
X105025000Y-80985000D03*
%TO.P,U1,26,Pin_26*%
%TO.N,COL13*%
X102485000Y-80985000D03*
%TO.P,U1,27,Pin_27*%
%TO.N,COL12*%
X99945000Y-80985000D03*
%TO.P,U1,28,Pin_28*%
%TO.N,COL5*%
X97405000Y-80985000D03*
%TO.P,U1,29,Pin_29*%
%TO.N,COL4*%
X94865000Y-80985000D03*
%TO.P,U1,30,Pin_30*%
%TO.N,COL3*%
X92325000Y-80985000D03*
%TO.P,U1,31,Pin_31*%
%TO.N,COL2*%
X89785000Y-80985000D03*
%TO.P,U1,32,Pin_32*%
%TO.N,COL1*%
X87245000Y-80985000D03*
%TO.P,U1,33,Pin_33*%
%TO.N,COL0*%
X84705000Y-80985000D03*
%TO.P,U1,34,Pin_34*%
%TO.N,unconnected-(U1-Pin_34-Pad34)*%
X82165000Y-80985000D03*
%TO.P,U1,35,Pin_35*%
%TO.N,ROW0*%
X79625000Y-80985000D03*
%TO.P,U1,36,Pin_36*%
%TO.N,+5V*%
X77085000Y-80985000D03*
%TO.P,U1,37,Pin_37*%
%TO.N,ROW1*%
X74545000Y-80985000D03*
%TO.P,U1,38,Pin_38*%
%TO.N,DATA*%
X72005000Y-80985000D03*
%TO.P,U1,39,Pin_39*%
%TO.N,ROW2*%
X69465000Y-80985000D03*
%TO.P,U1,40,Pin_40*%
%TO.N,+5V*%
X66925000Y-80985000D03*
%TD*%
D15*
%TO.P,R18,1*%
%TO.N,+5V*%
X116560000Y-108650000D03*
D16*
%TO.P,R18,2*%
%TO.N,Net-(D15-A)*%
X108940000Y-108650000D03*
%TD*%
D10*
%TO.P,D9,1,K*%
%TO.N,/A5*%
X89225000Y-106640000D03*
D11*
%TO.P,D9,2,A*%
%TO.N,COL8*%
X89225000Y-99020000D03*
%TD*%
D17*
%TO.P,D17,1,K*%
%TO.N,CAPSLOCK*%
X116435000Y-112100000D03*
D18*
%TO.P,D17,2,A*%
%TO.N,Net-(D17-A)*%
X118975000Y-112100000D03*
%TD*%
D10*
%TO.P,D8,1,K*%
%TO.N,/A6*%
X87100000Y-106640000D03*
D11*
%TO.P,D8,2,A*%
%TO.N,COL7*%
X87100000Y-99020000D03*
%TD*%
D15*
%TO.P,R3,1*%
%TO.N,ROW1*%
X69600000Y-103900000D03*
D16*
%TO.P,R3,2*%
%TO.N,+5V*%
X61980000Y-103900000D03*
%TD*%
D15*
%TO.P,R4,1*%
%TO.N,ROW2*%
X69600000Y-101750000D03*
D16*
%TO.P,R4,2*%
%TO.N,+5V*%
X61980000Y-101750000D03*
%TD*%
D13*
%TO.P,J3,1*%
%TO.N,PS2-DATA*%
X121925000Y-86625000D03*
D19*
%TO.P,J3,2*%
%TO.N,unconnected-(J3-Pad2)*%
X121925000Y-89225000D03*
%TO.P,J3,3*%
%TO.N,GND*%
X121925000Y-84525000D03*
%TO.P,J3,4*%
%TO.N,+5V*%
X121925000Y-91325000D03*
%TO.P,J3,5*%
%TO.N,PS2-CLK*%
X119125000Y-84525000D03*
%TO.P,J3,6*%
%TO.N,unconnected-(J3-Pad6)*%
X119125000Y-91325000D03*
D20*
%TO.P,J3,7*%
%TO.N,GND*%
X124775000Y-94775000D03*
D21*
X125575000Y-87925000D03*
D20*
X124775000Y-81075000D03*
%TD*%
D15*
%TO.P,R17,1*%
%TO.N,Net-(Q1-B)*%
X102065000Y-103275000D03*
D16*
%TO.P,R17,2*%
%TO.N,Net-(D16-A)*%
X109685000Y-103275000D03*
%TD*%
D10*
%TO.P,D14,1,K*%
%TO.N,/A4*%
X99800000Y-106640000D03*
D11*
%TO.P,D14,2,A*%
%TO.N,COL13*%
X99800000Y-99020000D03*
%TD*%
D10*
%TO.P,D3,1,K*%
%TO.N,/A11*%
X76525000Y-106640000D03*
D11*
%TO.P,D3,2,A*%
%TO.N,COL2*%
X76525000Y-99020000D03*
%TD*%
D10*
%TO.P,D5,1,K*%
%TO.N,/A9*%
X80750000Y-106640000D03*
D11*
%TO.P,D5,2,A*%
%TO.N,COL4*%
X80750000Y-99020000D03*
%TD*%
D17*
%TO.P,D16,1,K*%
%TO.N,GND*%
X111125000Y-112100000D03*
D18*
%TO.P,D16,2,A*%
%TO.N,Net-(D16-A)*%
X113665000Y-112100000D03*
%TD*%
D10*
%TO.P,D12,1,K*%
%TO.N,/A2*%
X95600000Y-106640000D03*
D11*
%TO.P,D12,2,A*%
%TO.N,COL11*%
X95600000Y-99020000D03*
%TD*%
D22*
%TO.P,CP1,1,Pin_1*%
%TO.N,!RST*%
X48755000Y-113650000D03*
D23*
%TO.P,CP1,2,Pin_2*%
%TO.N,CAPSLOCK*%
X51295000Y-113650000D03*
%TO.P,CP1,3,Pin_3*%
%TO.N,GND*%
X53835000Y-113650000D03*
%TO.P,CP1,4,Pin_4*%
%TO.N,+5V*%
X56375000Y-113650000D03*
%TO.P,CP1,5,Pin_5*%
%TO.N,ROW0*%
X58915000Y-113650000D03*
%TO.P,CP1,6,Pin_6*%
%TO.N,ROW1*%
X61455000Y-113650000D03*
%TO.P,CP1,7,Pin_7*%
%TO.N,ROW2*%
X63995000Y-113650000D03*
%TO.P,CP1,8,Pin_8*%
%TO.N,ROW3*%
X66535000Y-113650000D03*
%TO.P,CP1,9,Pin_9*%
%TO.N,/A13*%
X69075000Y-113650000D03*
%TO.P,CP1,10,Pin_10*%
%TO.N,/A12*%
X71615000Y-113650000D03*
%TO.P,CP1,11,Pin_11*%
%TO.N,/A11*%
X74155000Y-113650000D03*
%TO.P,CP1,12,Pin_12*%
%TO.N,/A10*%
X76695000Y-113650000D03*
%TO.P,CP1,13,Pin_13*%
%TO.N,/A9*%
X79235000Y-113650000D03*
%TO.P,CP1,14,Pin_14*%
%TO.N,/A8*%
X81775000Y-113650000D03*
%TO.P,CP1,15,Pin_15*%
%TO.N,/A7*%
X84315000Y-113650000D03*
%TO.P,CP1,16,Pin_16*%
%TO.N,/A6*%
X86855000Y-113650000D03*
%TO.P,CP1,17,Pin_17*%
%TO.N,/A5*%
X89395000Y-113650000D03*
%TO.P,CP1,18,Pin_18*%
%TO.N,/A0*%
X91935000Y-113650000D03*
%TO.P,CP1,19,Pin_19*%
%TO.N,/A1*%
X94475000Y-113650000D03*
%TO.P,CP1,20,Pin_20*%
%TO.N,/A2*%
X97015000Y-113650000D03*
%TO.P,CP1,21,Pin_21*%
%TO.N,/A3*%
X99555000Y-113650000D03*
%TO.P,CP1,22,Pin_22*%
%TO.N,/A4*%
X102095000Y-113650000D03*
%TD*%
D15*
%TO.P,R16,1*%
%TO.N,Net-(D16-A)*%
X109685000Y-101100000D03*
D16*
%TO.P,R16,2*%
%TO.N,BREAK*%
X102065000Y-101100000D03*
%TD*%
D15*
%TO.P,R5,1*%
%TO.N,ROW3*%
X69600000Y-99600000D03*
D16*
%TO.P,R5,2*%
%TO.N,+5V*%
X61980000Y-99600000D03*
%TD*%
D15*
%TO.P,R2,1*%
%TO.N,ROW0*%
X69600000Y-106050000D03*
D16*
%TO.P,R2,2*%
%TO.N,+5V*%
X61980000Y-106050000D03*
%TD*%
D10*
%TO.P,D4,1,K*%
%TO.N,/A10*%
X78650000Y-106640000D03*
D11*
%TO.P,D4,2,A*%
%TO.N,COL3*%
X78650000Y-99020000D03*
%TD*%
D13*
%TO.P,U7,1,Pin_1*%
%TO.N,DATA*%
X96491000Y-74850000D03*
D14*
%TO.P,U7,2,Pin_2*%
%TO.N,BREAK*%
X99031000Y-74850000D03*
%TO.P,U7,3,Pin_3*%
%TO.N,STROBE*%
X101571000Y-74850000D03*
%TO.P,U7,4,Pin_4*%
%TO.N,AY2*%
X104111000Y-74850000D03*
%TO.P,U7,5,Pin_5*%
%TO.N,AY1*%
X106651000Y-74850000D03*
%TO.P,U7,6,Pin_6*%
%TO.N,AY0*%
X109191000Y-74850000D03*
%TO.P,U7,7,Pin_7*%
%TO.N,AX2*%
X111731000Y-74850000D03*
%TO.P,U7,8,Pin_8*%
%TO.N,AX1*%
X111731000Y-59610000D03*
%TO.P,U7,9,Pin_9*%
%TO.N,AX0*%
X109191000Y-59610000D03*
%TO.P,U7,10,Pin_10*%
%TO.N,AX3*%
X106651000Y-59610000D03*
%TO.P,U7,11,Pin_11*%
%TO.N,RESET*%
X104111000Y-59610000D03*
%TO.P,U7,12,Pin_12*%
%TO.N,unconnected-(U7-Pin_12-Pad12)*%
X101571000Y-59610000D03*
%TO.P,U7,13,Pin_13*%
%TO.N,GND*%
X99031000Y-59610000D03*
%TO.P,U7,14,Pin_14*%
%TO.N,+5V*%
X96491000Y-59610000D03*
%TD*%
D10*
%TO.P,D13,1,K*%
%TO.N,/A3*%
X97700000Y-106640000D03*
D11*
%TO.P,D13,2,A*%
%TO.N,COL12*%
X97700000Y-99020000D03*
%TD*%
D13*
%TO.P,C2,1*%
%TO.N,+5V*%
X76525000Y-74625000D03*
D19*
%TO.P,C2,2*%
%TO.N,GND*%
X78525000Y-74625000D03*
%TD*%
%TO.P,C1,1*%
%TO.N,GND*%
X63975000Y-91175000D03*
%TO.P,C1,2*%
%TO.N,+5V*%
X63975000Y-86175000D03*
%TD*%
D10*
%TO.P,D10,1,K*%
%TO.N,/A0*%
X91350000Y-106640000D03*
D11*
%TO.P,D10,2,A*%
%TO.N,COL9*%
X91350000Y-99020000D03*
%TD*%
D22*
%TO.P,CP2,1,Pin_1*%
%TO.N,!RST*%
X48755000Y-109550000D03*
D23*
%TO.P,CP2,2,Pin_2*%
%TO.N,CAPSLOCK*%
X51295000Y-109550000D03*
%TO.P,CP2,3,Pin_3*%
%TO.N,GND*%
X53835000Y-109550000D03*
%TO.P,CP2,4,Pin_4*%
%TO.N,+5V*%
X56375000Y-109550000D03*
%TO.P,CP2,5,Pin_5*%
%TO.N,ROW0*%
X58915000Y-109550000D03*
%TO.P,CP2,6,Pin_6*%
%TO.N,ROW1*%
X61455000Y-109550000D03*
%TO.P,CP2,7,Pin_7*%
%TO.N,ROW2*%
X63995000Y-109550000D03*
%TO.P,CP2,8,Pin_8*%
%TO.N,ROW3*%
X66535000Y-109550000D03*
%TO.P,CP2,9,Pin_9*%
%TO.N,/A13*%
X69075000Y-109550000D03*
%TO.P,CP2,10,Pin_10*%
%TO.N,/A12*%
X71615000Y-109550000D03*
%TO.P,CP2,11,Pin_11*%
%TO.N,/A11*%
X74155000Y-109550000D03*
%TO.P,CP2,12,Pin_12*%
%TO.N,/A10*%
X76695000Y-109550000D03*
%TO.P,CP2,13,Pin_13*%
%TO.N,/A9*%
X79235000Y-109550000D03*
%TO.P,CP2,14,Pin_14*%
%TO.N,/A8*%
X81775000Y-109550000D03*
%TO.P,CP2,15,Pin_15*%
%TO.N,/A7*%
X84315000Y-109550000D03*
%TO.P,CP2,16,Pin_16*%
%TO.N,/A6*%
X86855000Y-109550000D03*
%TO.P,CP2,17,Pin_17*%
%TO.N,/A5*%
X89395000Y-109550000D03*
%TO.P,CP2,18,Pin_18*%
%TO.N,/A0*%
X91935000Y-109550000D03*
%TO.P,CP2,19,Pin_19*%
%TO.N,/A1*%
X94475000Y-109550000D03*
%TO.P,CP2,20,Pin_20*%
%TO.N,/A2*%
X97015000Y-109550000D03*
%TO.P,CP2,21,Pin_21*%
%TO.N,/A3*%
X99555000Y-109550000D03*
%TO.P,CP2,22,Pin_22*%
%TO.N,/A4*%
X102095000Y-109550000D03*
%TD*%
D17*
%TO.P,D15,1,K*%
%TO.N,GND*%
X105710000Y-112100000D03*
D18*
%TO.P,D15,2,A*%
%TO.N,Net-(D15-A)*%
X108250000Y-112100000D03*
%TD*%
D10*
%TO.P,D11,1,K*%
%TO.N,/A1*%
X93475000Y-106640000D03*
D11*
%TO.P,D11,2,A*%
%TO.N,COL10*%
X93475000Y-99020000D03*
%TD*%
D15*
%TO.P,R19,1*%
%TO.N,+5V*%
X116560000Y-106500000D03*
D16*
%TO.P,R19,2*%
%TO.N,Net-(D17-A)*%
X108940000Y-106500000D03*
%TD*%
D15*
%TO.P,R15,1*%
%TO.N,FLOAT*%
X108215000Y-98900000D03*
D16*
%TO.P,R15,2*%
%TO.N,GND*%
X115835000Y-98900000D03*
%TD*%
D10*
%TO.P,D2,1,K*%
%TO.N,/A12*%
X74400000Y-106640000D03*
D11*
%TO.P,D2,2,A*%
%TO.N,COL1*%
X74400000Y-99020000D03*
%TD*%
D10*
%TO.P,D1,1,K*%
%TO.N,/A13*%
X72275000Y-106640000D03*
D11*
%TO.P,D1,2,A*%
%TO.N,COL0*%
X72275000Y-99020000D03*
%TD*%
D24*
%TO.N,CAPSLOCK*%
X55230000Y-111357500D03*
X61030400Y-112015400D03*
%TO.N,AX0*%
X113297300Y-71104400D03*
%TO.N,STROBE*%
X113447000Y-92883000D03*
%TO.N,AX1*%
X110832900Y-67257900D03*
%TO.N,!RST*%
X63615200Y-106288100D03*
%TD*%
D25*
%TO.N,GND*%
X78290500Y-74859500D02*
X78290500Y-81373100D01*
X78525000Y-74625000D02*
X78290500Y-74859500D01*
X78290500Y-81373100D02*
X68488600Y-91175000D01*
X68488600Y-91175000D02*
X63975000Y-91175000D01*
D26*
%TO.N,+5V*%
X76525000Y-80425000D02*
X77085000Y-80985000D01*
D27*
X123175000Y-90075000D02*
X121925000Y-91325000D01*
X96491000Y-59610000D02*
X95010000Y-59610000D01*
D26*
X75585000Y-82485000D02*
X68425000Y-82485000D01*
X76525000Y-74625000D02*
X76525000Y-64325000D01*
D27*
X119025000Y-104035000D02*
X119025000Y-94225000D01*
X119025000Y-94225000D02*
X121925000Y-91325000D01*
D26*
X76525000Y-74625000D02*
X76525000Y-80425000D01*
D27*
X128175000Y-82274400D02*
X123175000Y-87274400D01*
D26*
X66925000Y-83225000D02*
X63975000Y-86175000D01*
D27*
X96491000Y-59610000D02*
X97826000Y-58275000D01*
X119125000Y-115850000D02*
X56900000Y-115850000D01*
D26*
X80190000Y-60660000D02*
X90680000Y-60660000D01*
D27*
X97826000Y-58275000D02*
X126375000Y-58275000D01*
X95010000Y-59610000D02*
X92320000Y-62300000D01*
D26*
X90680000Y-60660000D02*
X92320000Y-62300000D01*
D27*
X56900000Y-115850000D02*
X56375000Y-115325000D01*
X116560000Y-108650000D02*
X117550000Y-108650000D01*
X117550000Y-108650000D02*
X120325000Y-111425000D01*
X116560000Y-106500000D02*
X119025000Y-104035000D01*
X128175000Y-60075000D02*
X128175000Y-82274400D01*
D26*
X61980000Y-106050000D02*
X61980000Y-103900000D01*
X77085000Y-80985000D02*
X75585000Y-82485000D01*
X61980000Y-103900000D02*
X61980000Y-101750000D01*
D27*
X120325000Y-114650000D02*
X119125000Y-115850000D01*
D26*
X68425000Y-82485000D02*
X66925000Y-80985000D01*
D27*
X56375000Y-113650000D02*
X56375000Y-109550000D01*
X126375000Y-58275000D02*
X128175000Y-60075000D01*
X57675000Y-108250000D02*
X60675000Y-108250000D01*
D26*
X61980000Y-88170000D02*
X63975000Y-86175000D01*
D27*
X116560000Y-106500000D02*
X116560000Y-108650000D01*
X61980000Y-106945000D02*
X61980000Y-106050000D01*
X56375000Y-115325000D02*
X56375000Y-113650000D01*
X60675000Y-108250000D02*
X61980000Y-106945000D01*
D26*
X66925000Y-80985000D02*
X66925000Y-83225000D01*
X76525000Y-64325000D02*
X80190000Y-60660000D01*
X61980000Y-101750000D02*
X61980000Y-99600000D01*
X61980000Y-99600000D02*
X61980000Y-88170000D01*
D27*
X120325000Y-111425000D02*
X120325000Y-114650000D01*
X56375000Y-109550000D02*
X57675000Y-108250000D01*
X123175000Y-87274400D02*
X123175000Y-90075000D01*
D25*
%TO.N,CAPSLOCK*%
X61030400Y-112015400D02*
X61488200Y-112015400D01*
X115209900Y-112329700D02*
X115209900Y-112100000D01*
X54664800Y-110792300D02*
X55230000Y-111357500D01*
X51295000Y-113650000D02*
X51295000Y-112474900D01*
X112671400Y-114868200D02*
X115209900Y-112329700D01*
X52955200Y-110792300D02*
X54664800Y-110792300D01*
X52470100Y-110284800D02*
X52955200Y-110769900D01*
X116435000Y-112100000D02*
X115209900Y-112100000D01*
X52955200Y-110792300D02*
X52955200Y-110814700D01*
X62725000Y-114137100D02*
X63456100Y-114868200D01*
X51295000Y-109550000D02*
X52470100Y-109550000D01*
X52955200Y-110814700D02*
X51295000Y-112474900D01*
X63456100Y-114868200D02*
X112671400Y-114868200D01*
X52955200Y-110769900D02*
X52955200Y-110792300D01*
X52470100Y-109550000D02*
X52470100Y-110284800D01*
X61488200Y-112015400D02*
X62725000Y-113252200D01*
X62725000Y-113252200D02*
X62725000Y-114137100D01*
%TO.N,ROW0*%
X69600000Y-106050000D02*
X65825800Y-106050000D01*
X62630200Y-110038900D02*
X61378800Y-111290300D01*
X60090100Y-111715100D02*
X59905000Y-111715100D01*
X58915000Y-109550000D02*
X58915000Y-110725100D01*
X58915000Y-113650000D02*
X60090100Y-113650000D01*
X60090100Y-111715100D02*
X60090100Y-113650000D01*
X60514900Y-111290300D02*
X60090100Y-111715100D01*
X65825800Y-106050000D02*
X62630200Y-109245600D01*
X59905000Y-111715100D02*
X58915000Y-110725100D01*
X62630200Y-109245600D02*
X62630200Y-110038900D01*
X61378800Y-111290300D02*
X60514900Y-111290300D01*
%TO.N,ROW1*%
X61455000Y-109550000D02*
X67105000Y-103900000D01*
X67105000Y-103900000D02*
X69600000Y-103900000D01*
%TO.N,ROW2*%
X65170100Y-109550000D02*
X65170100Y-109182700D01*
X68764300Y-108374900D02*
X70654500Y-106484700D01*
X70654500Y-102804500D02*
X69600000Y-101750000D01*
X65170100Y-109182700D02*
X65977900Y-108374900D01*
X70654500Y-106484700D02*
X70654500Y-102804500D01*
X63995000Y-109550000D02*
X65170100Y-109550000D01*
X65977900Y-108374900D02*
X68764300Y-108374900D01*
%TO.N,/A12*%
X74400000Y-106640000D02*
X74400000Y-107715100D01*
X71615000Y-109550000D02*
X72790100Y-109550000D01*
X74281200Y-107715100D02*
X74400000Y-107715100D01*
X72790100Y-109550000D02*
X72790100Y-109206200D01*
X72790100Y-109206200D02*
X74281200Y-107715100D01*
X71615000Y-113650000D02*
X71615000Y-109550000D01*
%TO.N,COL6*%
X84705000Y-96225000D02*
X84705000Y-97350100D01*
X84975000Y-99020000D02*
X84975000Y-97620100D01*
X84975000Y-97620100D02*
X84705000Y-97350100D01*
%TO.N,PS2-CLK*%
X100016900Y-79265000D02*
X98525100Y-77773200D01*
X112564300Y-79265000D02*
X100016900Y-79265000D01*
X119125000Y-84525000D02*
X117068400Y-84525000D01*
X117068400Y-84525000D02*
X113915000Y-81371600D01*
X113915000Y-81371600D02*
X113915000Y-80615700D01*
X97400000Y-77540000D02*
X98525100Y-77540000D01*
X98525100Y-77773200D02*
X98525100Y-77540000D01*
X113915000Y-80615700D02*
X112564300Y-79265000D01*
%TO.N,FLOAT*%
X88515000Y-96623900D02*
X89621400Y-97730300D01*
X87717400Y-95099900D02*
X88515000Y-95897500D01*
X89621400Y-97730300D02*
X107045300Y-97730300D01*
X83290100Y-96225000D02*
X83290100Y-96003400D01*
X79625000Y-96225000D02*
X82165000Y-96225000D01*
X83290100Y-96003400D02*
X84193600Y-95099900D01*
X84193600Y-95099900D02*
X87717400Y-95099900D01*
X107045300Y-97730300D02*
X108215000Y-98900000D01*
X88515000Y-95897500D02*
X88515000Y-96623900D01*
X82165000Y-96225000D02*
X83290100Y-96225000D01*
%TO.N,AY2*%
X70590100Y-96225000D02*
X70590100Y-95943700D01*
X91055000Y-80601300D02*
X92541100Y-79115200D01*
X91055000Y-81342800D02*
X91055000Y-80601300D01*
X96130000Y-77141600D02*
X96857800Y-76413800D01*
X102480000Y-77540000D02*
X101354900Y-77540000D01*
X80910100Y-85623700D02*
X86774100Y-85623700D01*
X69465000Y-96225000D02*
X70590100Y-96225000D01*
X101354900Y-77306900D02*
X101354900Y-77540000D01*
X92541100Y-79115200D02*
X94883400Y-79115200D01*
X70590100Y-95943700D02*
X80910100Y-85623700D01*
X100461800Y-76413800D02*
X101354900Y-77306900D01*
X96857800Y-76413800D02*
X100461800Y-76413800D01*
X94883400Y-79115200D02*
X96130000Y-77868600D01*
X96130000Y-77868600D02*
X96130000Y-77141600D01*
X86774100Y-85623700D02*
X91055000Y-81342800D01*
%TO.N,RESET*%
X85830200Y-77347100D02*
X98477700Y-64699600D01*
X101210000Y-62689800D02*
X101210000Y-61967500D01*
X68335400Y-95728600D02*
X81198200Y-82865800D01*
X98477700Y-64699600D02*
X99200200Y-64699600D01*
X84451900Y-82865800D02*
X85830200Y-81487500D01*
X72005000Y-96225000D02*
X70868300Y-97361700D01*
X70868300Y-97361700D02*
X68986800Y-97361700D01*
X99200200Y-64699600D02*
X101210000Y-62689800D01*
X68335400Y-96710300D02*
X68335400Y-95728600D01*
X81198200Y-82865800D02*
X84451900Y-82865800D01*
X68986800Y-97361700D02*
X68335400Y-96710300D01*
X104111000Y-59610000D02*
X102985900Y-59610000D01*
X102985900Y-60191600D02*
X102985900Y-59610000D01*
X85830200Y-81487500D02*
X85830200Y-77347100D01*
X101210000Y-61967500D02*
X102985900Y-60191600D01*
%TO.N,AX3*%
X107776100Y-59891400D02*
X108619800Y-60735100D01*
X117720000Y-77540000D02*
X117720000Y-78665100D01*
X107776100Y-59610000D02*
X107776100Y-59891400D01*
X106651000Y-59610000D02*
X107776100Y-59610000D01*
X119177700Y-86073900D02*
X120306600Y-84945000D01*
X114026500Y-62046100D02*
X114026500Y-72721400D01*
X75670100Y-95943700D02*
X85539900Y-86073900D01*
X108619800Y-60735100D02*
X112715500Y-60735100D01*
X114026500Y-72721400D02*
X117720000Y-76414900D01*
X75670100Y-96225000D02*
X75670100Y-95943700D01*
X120306600Y-81251700D02*
X117720000Y-78665100D01*
X112715500Y-60735100D02*
X114026500Y-62046100D01*
X120306600Y-84945000D02*
X120306600Y-81251700D01*
X85539900Y-86073900D02*
X119177700Y-86073900D01*
X74545000Y-96225000D02*
X75670100Y-96225000D01*
X117720000Y-77540000D02*
X117720000Y-76414900D01*
%TO.N,AX0*%
X113297300Y-74532200D02*
X113297300Y-71104400D01*
X115180000Y-77540000D02*
X115180000Y-76414900D01*
X115180000Y-76414900D02*
X113297300Y-74532200D01*
%TO.N,STROBE*%
X110105000Y-95099900D02*
X111230100Y-95099900D01*
X111230100Y-95099900D02*
X113447000Y-92883000D01*
X110105000Y-96225000D02*
X110105000Y-95099900D01*
%TO.N,AX1*%
X112640000Y-77540000D02*
X112640000Y-76414900D01*
X110554000Y-67536800D02*
X110832900Y-67257900D01*
X111655500Y-76414900D02*
X110554000Y-75313400D01*
X110554000Y-75313400D02*
X110554000Y-67536800D01*
X112640000Y-76414900D02*
X111655500Y-76414900D01*
%TO.N,DATA*%
X94860000Y-76414900D02*
X95365900Y-75909000D01*
X96491000Y-74850000D02*
X95365900Y-74850000D01*
X94860000Y-77540000D02*
X94860000Y-76414900D01*
X95365900Y-75909000D02*
X95365900Y-74850000D01*
%TO.N,Net-(D16-A)*%
X107882000Y-106103100D02*
X107882000Y-106904500D01*
X108552500Y-107575000D02*
X109370500Y-107575000D01*
X109685000Y-104300100D02*
X107882000Y-106103100D01*
X109685000Y-103275000D02*
X109685000Y-104300100D01*
X107882000Y-106904500D02*
X108552500Y-107575000D01*
X109370500Y-107575000D02*
X113665000Y-111869500D01*
X113665000Y-111869500D02*
X113665000Y-112100000D01*
%TO.N,Net-(D17-A)*%
X118975000Y-112100000D02*
X117309300Y-110434300D01*
X108940000Y-106500000D02*
X109965100Y-106500000D01*
X117309300Y-110434300D02*
X113899400Y-110434300D01*
X113899400Y-110434300D02*
X109965100Y-106500000D01*
%TO.N,!RST*%
X75331300Y-100675000D02*
X69145900Y-100675000D01*
X111745000Y-102775000D02*
X110669900Y-102775000D01*
X63615200Y-106205700D02*
X63615200Y-106288100D01*
X110082400Y-102187500D02*
X76843800Y-102187500D01*
X110669900Y-102775000D02*
X110082400Y-102187500D01*
X76843800Y-102187500D02*
X75331300Y-100675000D01*
X69145900Y-100675000D02*
X63615200Y-106205700D01*
%TO.N,BREAK*%
X111514900Y-62300000D02*
X111514900Y-62498600D01*
X112640000Y-62300000D02*
X111514900Y-62300000D01*
X99031000Y-74850000D02*
X100156100Y-74850000D01*
X100156100Y-73857400D02*
X100156100Y-74850000D01*
X111514900Y-62498600D02*
X100156100Y-73857400D01*
%TD*%
M02*
