%TF.GenerationSoftware,KiCad,Pcbnew,7.0.11*%
%TF.CreationDate,2024-06-27T03:27:34+01:00*%
%TF.ProjectId,Electron-PS2USB,456c6563-7472-46f6-9e2d-505332555342,rev?*%
%TF.SameCoordinates,Original*%
%TF.FileFunction,Legend,Top*%
%TF.FilePolarity,Positive*%
%FSLAX46Y46*%
G04 Gerber Fmt 4.6, Leading zero omitted, Abs format (unit mm)*
G04 Created by KiCad (PCBNEW 7.0.11) date 2024-06-27 03:27:34*
%MOMM*%
%LPD*%
G01*
G04 APERTURE LIST*
%ADD10C,0.150000*%
%ADD11C,0.108000*%
%ADD12C,0.129000*%
%ADD13C,0.120000*%
%ADD14C,0.100000*%
G04 APERTURE END LIST*
D10*
X67686779Y-83741009D02*
X68020112Y-83741009D01*
X68162969Y-84264819D02*
X67686779Y-84264819D01*
X67686779Y-84264819D02*
X67686779Y-83264819D01*
X67686779Y-83264819D02*
X68162969Y-83264819D01*
X68734398Y-84264819D02*
X68639160Y-84217200D01*
X68639160Y-84217200D02*
X68591541Y-84121961D01*
X68591541Y-84121961D02*
X68591541Y-83264819D01*
X69496303Y-84217200D02*
X69401065Y-84264819D01*
X69401065Y-84264819D02*
X69210589Y-84264819D01*
X69210589Y-84264819D02*
X69115351Y-84217200D01*
X69115351Y-84217200D02*
X69067732Y-84121961D01*
X69067732Y-84121961D02*
X69067732Y-83741009D01*
X69067732Y-83741009D02*
X69115351Y-83645771D01*
X69115351Y-83645771D02*
X69210589Y-83598152D01*
X69210589Y-83598152D02*
X69401065Y-83598152D01*
X69401065Y-83598152D02*
X69496303Y-83645771D01*
X69496303Y-83645771D02*
X69543922Y-83741009D01*
X69543922Y-83741009D02*
X69543922Y-83836247D01*
X69543922Y-83836247D02*
X69067732Y-83931485D01*
X70401065Y-84217200D02*
X70305827Y-84264819D01*
X70305827Y-84264819D02*
X70115351Y-84264819D01*
X70115351Y-84264819D02*
X70020113Y-84217200D01*
X70020113Y-84217200D02*
X69972494Y-84169580D01*
X69972494Y-84169580D02*
X69924875Y-84074342D01*
X69924875Y-84074342D02*
X69924875Y-83788628D01*
X69924875Y-83788628D02*
X69972494Y-83693390D01*
X69972494Y-83693390D02*
X70020113Y-83645771D01*
X70020113Y-83645771D02*
X70115351Y-83598152D01*
X70115351Y-83598152D02*
X70305827Y-83598152D01*
X70305827Y-83598152D02*
X70401065Y-83645771D01*
X70686780Y-83598152D02*
X71067732Y-83598152D01*
X70829637Y-83264819D02*
X70829637Y-84121961D01*
X70829637Y-84121961D02*
X70877256Y-84217200D01*
X70877256Y-84217200D02*
X70972494Y-84264819D01*
X70972494Y-84264819D02*
X71067732Y-84264819D01*
X71401066Y-84264819D02*
X71401066Y-83598152D01*
X71401066Y-83788628D02*
X71448685Y-83693390D01*
X71448685Y-83693390D02*
X71496304Y-83645771D01*
X71496304Y-83645771D02*
X71591542Y-83598152D01*
X71591542Y-83598152D02*
X71686780Y-83598152D01*
X72162971Y-84264819D02*
X72067733Y-84217200D01*
X72067733Y-84217200D02*
X72020114Y-84169580D01*
X72020114Y-84169580D02*
X71972495Y-84074342D01*
X71972495Y-84074342D02*
X71972495Y-83788628D01*
X71972495Y-83788628D02*
X72020114Y-83693390D01*
X72020114Y-83693390D02*
X72067733Y-83645771D01*
X72067733Y-83645771D02*
X72162971Y-83598152D01*
X72162971Y-83598152D02*
X72305828Y-83598152D01*
X72305828Y-83598152D02*
X72401066Y-83645771D01*
X72401066Y-83645771D02*
X72448685Y-83693390D01*
X72448685Y-83693390D02*
X72496304Y-83788628D01*
X72496304Y-83788628D02*
X72496304Y-84074342D01*
X72496304Y-84074342D02*
X72448685Y-84169580D01*
X72448685Y-84169580D02*
X72401066Y-84217200D01*
X72401066Y-84217200D02*
X72305828Y-84264819D01*
X72305828Y-84264819D02*
X72162971Y-84264819D01*
X72924876Y-83598152D02*
X72924876Y-84264819D01*
X72924876Y-83693390D02*
X72972495Y-83645771D01*
X72972495Y-83645771D02*
X73067733Y-83598152D01*
X73067733Y-83598152D02*
X73210590Y-83598152D01*
X73210590Y-83598152D02*
X73305828Y-83645771D01*
X73305828Y-83645771D02*
X73353447Y-83741009D01*
X73353447Y-83741009D02*
X73353447Y-84264819D01*
X74591543Y-84264819D02*
X74591543Y-83264819D01*
X74591543Y-83264819D02*
X74972495Y-83264819D01*
X74972495Y-83264819D02*
X75067733Y-83312438D01*
X75067733Y-83312438D02*
X75115352Y-83360057D01*
X75115352Y-83360057D02*
X75162971Y-83455295D01*
X75162971Y-83455295D02*
X75162971Y-83598152D01*
X75162971Y-83598152D02*
X75115352Y-83693390D01*
X75115352Y-83693390D02*
X75067733Y-83741009D01*
X75067733Y-83741009D02*
X74972495Y-83788628D01*
X74972495Y-83788628D02*
X74591543Y-83788628D01*
X75543924Y-84217200D02*
X75686781Y-84264819D01*
X75686781Y-84264819D02*
X75924876Y-84264819D01*
X75924876Y-84264819D02*
X76020114Y-84217200D01*
X76020114Y-84217200D02*
X76067733Y-84169580D01*
X76067733Y-84169580D02*
X76115352Y-84074342D01*
X76115352Y-84074342D02*
X76115352Y-83979104D01*
X76115352Y-83979104D02*
X76067733Y-83883866D01*
X76067733Y-83883866D02*
X76020114Y-83836247D01*
X76020114Y-83836247D02*
X75924876Y-83788628D01*
X75924876Y-83788628D02*
X75734400Y-83741009D01*
X75734400Y-83741009D02*
X75639162Y-83693390D01*
X75639162Y-83693390D02*
X75591543Y-83645771D01*
X75591543Y-83645771D02*
X75543924Y-83550533D01*
X75543924Y-83550533D02*
X75543924Y-83455295D01*
X75543924Y-83455295D02*
X75591543Y-83360057D01*
X75591543Y-83360057D02*
X75639162Y-83312438D01*
X75639162Y-83312438D02*
X75734400Y-83264819D01*
X75734400Y-83264819D02*
X75972495Y-83264819D01*
X75972495Y-83264819D02*
X76115352Y-83312438D01*
X77258209Y-83217200D02*
X76401067Y-84502914D01*
X77543924Y-83360057D02*
X77591543Y-83312438D01*
X77591543Y-83312438D02*
X77686781Y-83264819D01*
X77686781Y-83264819D02*
X77924876Y-83264819D01*
X77924876Y-83264819D02*
X78020114Y-83312438D01*
X78020114Y-83312438D02*
X78067733Y-83360057D01*
X78067733Y-83360057D02*
X78115352Y-83455295D01*
X78115352Y-83455295D02*
X78115352Y-83550533D01*
X78115352Y-83550533D02*
X78067733Y-83693390D01*
X78067733Y-83693390D02*
X77496305Y-84264819D01*
X77496305Y-84264819D02*
X78115352Y-84264819D01*
X79305829Y-83264819D02*
X79305829Y-84074342D01*
X79305829Y-84074342D02*
X79353448Y-84169580D01*
X79353448Y-84169580D02*
X79401067Y-84217200D01*
X79401067Y-84217200D02*
X79496305Y-84264819D01*
X79496305Y-84264819D02*
X79686781Y-84264819D01*
X79686781Y-84264819D02*
X79782019Y-84217200D01*
X79782019Y-84217200D02*
X79829638Y-84169580D01*
X79829638Y-84169580D02*
X79877257Y-84074342D01*
X79877257Y-84074342D02*
X79877257Y-83264819D01*
X80305829Y-84217200D02*
X80448686Y-84264819D01*
X80448686Y-84264819D02*
X80686781Y-84264819D01*
X80686781Y-84264819D02*
X80782019Y-84217200D01*
X80782019Y-84217200D02*
X80829638Y-84169580D01*
X80829638Y-84169580D02*
X80877257Y-84074342D01*
X80877257Y-84074342D02*
X80877257Y-83979104D01*
X80877257Y-83979104D02*
X80829638Y-83883866D01*
X80829638Y-83883866D02*
X80782019Y-83836247D01*
X80782019Y-83836247D02*
X80686781Y-83788628D01*
X80686781Y-83788628D02*
X80496305Y-83741009D01*
X80496305Y-83741009D02*
X80401067Y-83693390D01*
X80401067Y-83693390D02*
X80353448Y-83645771D01*
X80353448Y-83645771D02*
X80305829Y-83550533D01*
X80305829Y-83550533D02*
X80305829Y-83455295D01*
X80305829Y-83455295D02*
X80353448Y-83360057D01*
X80353448Y-83360057D02*
X80401067Y-83312438D01*
X80401067Y-83312438D02*
X80496305Y-83264819D01*
X80496305Y-83264819D02*
X80734400Y-83264819D01*
X80734400Y-83264819D02*
X80877257Y-83312438D01*
X81639162Y-83741009D02*
X81782019Y-83788628D01*
X81782019Y-83788628D02*
X81829638Y-83836247D01*
X81829638Y-83836247D02*
X81877257Y-83931485D01*
X81877257Y-83931485D02*
X81877257Y-84074342D01*
X81877257Y-84074342D02*
X81829638Y-84169580D01*
X81829638Y-84169580D02*
X81782019Y-84217200D01*
X81782019Y-84217200D02*
X81686781Y-84264819D01*
X81686781Y-84264819D02*
X81305829Y-84264819D01*
X81305829Y-84264819D02*
X81305829Y-83264819D01*
X81305829Y-83264819D02*
X81639162Y-83264819D01*
X81639162Y-83264819D02*
X81734400Y-83312438D01*
X81734400Y-83312438D02*
X81782019Y-83360057D01*
X81782019Y-83360057D02*
X81829638Y-83455295D01*
X81829638Y-83455295D02*
X81829638Y-83550533D01*
X81829638Y-83550533D02*
X81782019Y-83645771D01*
X81782019Y-83645771D02*
X81734400Y-83693390D01*
X81734400Y-83693390D02*
X81639162Y-83741009D01*
X81639162Y-83741009D02*
X81305829Y-83741009D01*
X67686779Y-85874819D02*
X67686779Y-84874819D01*
X67686779Y-84874819D02*
X68067731Y-84874819D01*
X68067731Y-84874819D02*
X68162969Y-84922438D01*
X68162969Y-84922438D02*
X68210588Y-84970057D01*
X68210588Y-84970057D02*
X68258207Y-85065295D01*
X68258207Y-85065295D02*
X68258207Y-85208152D01*
X68258207Y-85208152D02*
X68210588Y-85303390D01*
X68210588Y-85303390D02*
X68162969Y-85351009D01*
X68162969Y-85351009D02*
X68067731Y-85398628D01*
X68067731Y-85398628D02*
X67686779Y-85398628D01*
X68686779Y-85874819D02*
X68686779Y-85208152D01*
X68686779Y-85398628D02*
X68734398Y-85303390D01*
X68734398Y-85303390D02*
X68782017Y-85255771D01*
X68782017Y-85255771D02*
X68877255Y-85208152D01*
X68877255Y-85208152D02*
X68972493Y-85208152D01*
X69448684Y-85874819D02*
X69353446Y-85827200D01*
X69353446Y-85827200D02*
X69305827Y-85779580D01*
X69305827Y-85779580D02*
X69258208Y-85684342D01*
X69258208Y-85684342D02*
X69258208Y-85398628D01*
X69258208Y-85398628D02*
X69305827Y-85303390D01*
X69305827Y-85303390D02*
X69353446Y-85255771D01*
X69353446Y-85255771D02*
X69448684Y-85208152D01*
X69448684Y-85208152D02*
X69591541Y-85208152D01*
X69591541Y-85208152D02*
X69686779Y-85255771D01*
X69686779Y-85255771D02*
X69734398Y-85303390D01*
X69734398Y-85303390D02*
X69782017Y-85398628D01*
X69782017Y-85398628D02*
X69782017Y-85684342D01*
X69782017Y-85684342D02*
X69734398Y-85779580D01*
X69734398Y-85779580D02*
X69686779Y-85827200D01*
X69686779Y-85827200D02*
X69591541Y-85874819D01*
X69591541Y-85874819D02*
X69448684Y-85874819D01*
X70067732Y-85208152D02*
X70448684Y-85208152D01*
X70210589Y-84874819D02*
X70210589Y-85731961D01*
X70210589Y-85731961D02*
X70258208Y-85827200D01*
X70258208Y-85827200D02*
X70353446Y-85874819D01*
X70353446Y-85874819D02*
X70448684Y-85874819D01*
X70924875Y-85874819D02*
X70829637Y-85827200D01*
X70829637Y-85827200D02*
X70782018Y-85779580D01*
X70782018Y-85779580D02*
X70734399Y-85684342D01*
X70734399Y-85684342D02*
X70734399Y-85398628D01*
X70734399Y-85398628D02*
X70782018Y-85303390D01*
X70782018Y-85303390D02*
X70829637Y-85255771D01*
X70829637Y-85255771D02*
X70924875Y-85208152D01*
X70924875Y-85208152D02*
X71067732Y-85208152D01*
X71067732Y-85208152D02*
X71162970Y-85255771D01*
X71162970Y-85255771D02*
X71210589Y-85303390D01*
X71210589Y-85303390D02*
X71258208Y-85398628D01*
X71258208Y-85398628D02*
X71258208Y-85684342D01*
X71258208Y-85684342D02*
X71210589Y-85779580D01*
X71210589Y-85779580D02*
X71162970Y-85827200D01*
X71162970Y-85827200D02*
X71067732Y-85874819D01*
X71067732Y-85874819D02*
X70924875Y-85874819D01*
X71543923Y-85208152D02*
X71924875Y-85208152D01*
X71686780Y-84874819D02*
X71686780Y-85731961D01*
X71686780Y-85731961D02*
X71734399Y-85827200D01*
X71734399Y-85827200D02*
X71829637Y-85874819D01*
X71829637Y-85874819D02*
X71924875Y-85874819D01*
X72162971Y-85208152D02*
X72401066Y-85874819D01*
X72639161Y-85208152D02*
X72401066Y-85874819D01*
X72401066Y-85874819D02*
X72305828Y-86112914D01*
X72305828Y-86112914D02*
X72258209Y-86160533D01*
X72258209Y-86160533D02*
X72162971Y-86208152D01*
X73020114Y-85208152D02*
X73020114Y-86208152D01*
X73020114Y-85255771D02*
X73115352Y-85208152D01*
X73115352Y-85208152D02*
X73305828Y-85208152D01*
X73305828Y-85208152D02*
X73401066Y-85255771D01*
X73401066Y-85255771D02*
X73448685Y-85303390D01*
X73448685Y-85303390D02*
X73496304Y-85398628D01*
X73496304Y-85398628D02*
X73496304Y-85684342D01*
X73496304Y-85684342D02*
X73448685Y-85779580D01*
X73448685Y-85779580D02*
X73401066Y-85827200D01*
X73401066Y-85827200D02*
X73305828Y-85874819D01*
X73305828Y-85874819D02*
X73115352Y-85874819D01*
X73115352Y-85874819D02*
X73020114Y-85827200D01*
X74305828Y-85827200D02*
X74210590Y-85874819D01*
X74210590Y-85874819D02*
X74020114Y-85874819D01*
X74020114Y-85874819D02*
X73924876Y-85827200D01*
X73924876Y-85827200D02*
X73877257Y-85731961D01*
X73877257Y-85731961D02*
X73877257Y-85351009D01*
X73877257Y-85351009D02*
X73924876Y-85255771D01*
X73924876Y-85255771D02*
X74020114Y-85208152D01*
X74020114Y-85208152D02*
X74210590Y-85208152D01*
X74210590Y-85208152D02*
X74305828Y-85255771D01*
X74305828Y-85255771D02*
X74353447Y-85351009D01*
X74353447Y-85351009D02*
X74353447Y-85446247D01*
X74353447Y-85446247D02*
X73877257Y-85541485D01*
X75448686Y-85208152D02*
X75686781Y-85874819D01*
X75686781Y-85874819D02*
X75924876Y-85208152D01*
X76496305Y-84874819D02*
X76591543Y-84874819D01*
X76591543Y-84874819D02*
X76686781Y-84922438D01*
X76686781Y-84922438D02*
X76734400Y-84970057D01*
X76734400Y-84970057D02*
X76782019Y-85065295D01*
X76782019Y-85065295D02*
X76829638Y-85255771D01*
X76829638Y-85255771D02*
X76829638Y-85493866D01*
X76829638Y-85493866D02*
X76782019Y-85684342D01*
X76782019Y-85684342D02*
X76734400Y-85779580D01*
X76734400Y-85779580D02*
X76686781Y-85827200D01*
X76686781Y-85827200D02*
X76591543Y-85874819D01*
X76591543Y-85874819D02*
X76496305Y-85874819D01*
X76496305Y-85874819D02*
X76401067Y-85827200D01*
X76401067Y-85827200D02*
X76353448Y-85779580D01*
X76353448Y-85779580D02*
X76305829Y-85684342D01*
X76305829Y-85684342D02*
X76258210Y-85493866D01*
X76258210Y-85493866D02*
X76258210Y-85255771D01*
X76258210Y-85255771D02*
X76305829Y-85065295D01*
X76305829Y-85065295D02*
X76353448Y-84970057D01*
X76353448Y-84970057D02*
X76401067Y-84922438D01*
X76401067Y-84922438D02*
X76496305Y-84874819D01*
X67543922Y-86484819D02*
X68115350Y-86484819D01*
X67829636Y-87484819D02*
X67829636Y-86484819D01*
X68448684Y-87484819D02*
X68448684Y-86484819D01*
X68877255Y-87484819D02*
X68877255Y-86961009D01*
X68877255Y-86961009D02*
X68829636Y-86865771D01*
X68829636Y-86865771D02*
X68734398Y-86818152D01*
X68734398Y-86818152D02*
X68591541Y-86818152D01*
X68591541Y-86818152D02*
X68496303Y-86865771D01*
X68496303Y-86865771D02*
X68448684Y-86913390D01*
X69734398Y-87437200D02*
X69639160Y-87484819D01*
X69639160Y-87484819D02*
X69448684Y-87484819D01*
X69448684Y-87484819D02*
X69353446Y-87437200D01*
X69353446Y-87437200D02*
X69305827Y-87341961D01*
X69305827Y-87341961D02*
X69305827Y-86961009D01*
X69305827Y-86961009D02*
X69353446Y-86865771D01*
X69353446Y-86865771D02*
X69448684Y-86818152D01*
X69448684Y-86818152D02*
X69639160Y-86818152D01*
X69639160Y-86818152D02*
X69734398Y-86865771D01*
X69734398Y-86865771D02*
X69782017Y-86961009D01*
X69782017Y-86961009D02*
X69782017Y-87056247D01*
X69782017Y-87056247D02*
X69305827Y-87151485D01*
X71305827Y-86961009D02*
X71448684Y-87008628D01*
X71448684Y-87008628D02*
X71496303Y-87056247D01*
X71496303Y-87056247D02*
X71543922Y-87151485D01*
X71543922Y-87151485D02*
X71543922Y-87294342D01*
X71543922Y-87294342D02*
X71496303Y-87389580D01*
X71496303Y-87389580D02*
X71448684Y-87437200D01*
X71448684Y-87437200D02*
X71353446Y-87484819D01*
X71353446Y-87484819D02*
X70972494Y-87484819D01*
X70972494Y-87484819D02*
X70972494Y-86484819D01*
X70972494Y-86484819D02*
X71305827Y-86484819D01*
X71305827Y-86484819D02*
X71401065Y-86532438D01*
X71401065Y-86532438D02*
X71448684Y-86580057D01*
X71448684Y-86580057D02*
X71496303Y-86675295D01*
X71496303Y-86675295D02*
X71496303Y-86770533D01*
X71496303Y-86770533D02*
X71448684Y-86865771D01*
X71448684Y-86865771D02*
X71401065Y-86913390D01*
X71401065Y-86913390D02*
X71305827Y-86961009D01*
X71305827Y-86961009D02*
X70972494Y-86961009D01*
X72115351Y-87484819D02*
X72020113Y-87437200D01*
X72020113Y-87437200D02*
X71972494Y-87389580D01*
X71972494Y-87389580D02*
X71924875Y-87294342D01*
X71924875Y-87294342D02*
X71924875Y-87008628D01*
X71924875Y-87008628D02*
X71972494Y-86913390D01*
X71972494Y-86913390D02*
X72020113Y-86865771D01*
X72020113Y-86865771D02*
X72115351Y-86818152D01*
X72115351Y-86818152D02*
X72258208Y-86818152D01*
X72258208Y-86818152D02*
X72353446Y-86865771D01*
X72353446Y-86865771D02*
X72401065Y-86913390D01*
X72401065Y-86913390D02*
X72448684Y-87008628D01*
X72448684Y-87008628D02*
X72448684Y-87294342D01*
X72448684Y-87294342D02*
X72401065Y-87389580D01*
X72401065Y-87389580D02*
X72353446Y-87437200D01*
X72353446Y-87437200D02*
X72258208Y-87484819D01*
X72258208Y-87484819D02*
X72115351Y-87484819D01*
X73305827Y-87484819D02*
X73305827Y-86961009D01*
X73305827Y-86961009D02*
X73258208Y-86865771D01*
X73258208Y-86865771D02*
X73162970Y-86818152D01*
X73162970Y-86818152D02*
X72972494Y-86818152D01*
X72972494Y-86818152D02*
X72877256Y-86865771D01*
X73305827Y-87437200D02*
X73210589Y-87484819D01*
X73210589Y-87484819D02*
X72972494Y-87484819D01*
X72972494Y-87484819D02*
X72877256Y-87437200D01*
X72877256Y-87437200D02*
X72829637Y-87341961D01*
X72829637Y-87341961D02*
X72829637Y-87246723D01*
X72829637Y-87246723D02*
X72877256Y-87151485D01*
X72877256Y-87151485D02*
X72972494Y-87103866D01*
X72972494Y-87103866D02*
X73210589Y-87103866D01*
X73210589Y-87103866D02*
X73305827Y-87056247D01*
X73782018Y-87484819D02*
X73782018Y-86818152D01*
X73782018Y-87008628D02*
X73829637Y-86913390D01*
X73829637Y-86913390D02*
X73877256Y-86865771D01*
X73877256Y-86865771D02*
X73972494Y-86818152D01*
X73972494Y-86818152D02*
X74067732Y-86818152D01*
X74829637Y-87484819D02*
X74829637Y-86484819D01*
X74829637Y-87437200D02*
X74734399Y-87484819D01*
X74734399Y-87484819D02*
X74543923Y-87484819D01*
X74543923Y-87484819D02*
X74448685Y-87437200D01*
X74448685Y-87437200D02*
X74401066Y-87389580D01*
X74401066Y-87389580D02*
X74353447Y-87294342D01*
X74353447Y-87294342D02*
X74353447Y-87008628D01*
X74353447Y-87008628D02*
X74401066Y-86913390D01*
X74401066Y-86913390D02*
X74448685Y-86865771D01*
X74448685Y-86865771D02*
X74543923Y-86818152D01*
X74543923Y-86818152D02*
X74734399Y-86818152D01*
X74734399Y-86818152D02*
X74829637Y-86865771D01*
X76401066Y-86961009D02*
X76067733Y-86961009D01*
X76067733Y-87484819D02*
X76067733Y-86484819D01*
X76067733Y-86484819D02*
X76543923Y-86484819D01*
X77067733Y-87484819D02*
X76972495Y-87437200D01*
X76972495Y-87437200D02*
X76924876Y-87389580D01*
X76924876Y-87389580D02*
X76877257Y-87294342D01*
X76877257Y-87294342D02*
X76877257Y-87008628D01*
X76877257Y-87008628D02*
X76924876Y-86913390D01*
X76924876Y-86913390D02*
X76972495Y-86865771D01*
X76972495Y-86865771D02*
X77067733Y-86818152D01*
X77067733Y-86818152D02*
X77210590Y-86818152D01*
X77210590Y-86818152D02*
X77305828Y-86865771D01*
X77305828Y-86865771D02*
X77353447Y-86913390D01*
X77353447Y-86913390D02*
X77401066Y-87008628D01*
X77401066Y-87008628D02*
X77401066Y-87294342D01*
X77401066Y-87294342D02*
X77353447Y-87389580D01*
X77353447Y-87389580D02*
X77305828Y-87437200D01*
X77305828Y-87437200D02*
X77210590Y-87484819D01*
X77210590Y-87484819D02*
X77067733Y-87484819D01*
X77972495Y-87484819D02*
X77877257Y-87437200D01*
X77877257Y-87437200D02*
X77829638Y-87341961D01*
X77829638Y-87341961D02*
X77829638Y-86484819D01*
X78353448Y-87484819D02*
X78353448Y-86484819D01*
X78448686Y-87103866D02*
X78734400Y-87484819D01*
X78734400Y-86818152D02*
X78353448Y-87199104D01*
X79877258Y-86580057D02*
X79924877Y-86532438D01*
X79924877Y-86532438D02*
X80020115Y-86484819D01*
X80020115Y-86484819D02*
X80258210Y-86484819D01*
X80258210Y-86484819D02*
X80353448Y-86532438D01*
X80353448Y-86532438D02*
X80401067Y-86580057D01*
X80401067Y-86580057D02*
X80448686Y-86675295D01*
X80448686Y-86675295D02*
X80448686Y-86770533D01*
X80448686Y-86770533D02*
X80401067Y-86913390D01*
X80401067Y-86913390D02*
X79829639Y-87484819D01*
X79829639Y-87484819D02*
X80448686Y-87484819D01*
X81067734Y-86484819D02*
X81162972Y-86484819D01*
X81162972Y-86484819D02*
X81258210Y-86532438D01*
X81258210Y-86532438D02*
X81305829Y-86580057D01*
X81305829Y-86580057D02*
X81353448Y-86675295D01*
X81353448Y-86675295D02*
X81401067Y-86865771D01*
X81401067Y-86865771D02*
X81401067Y-87103866D01*
X81401067Y-87103866D02*
X81353448Y-87294342D01*
X81353448Y-87294342D02*
X81305829Y-87389580D01*
X81305829Y-87389580D02*
X81258210Y-87437200D01*
X81258210Y-87437200D02*
X81162972Y-87484819D01*
X81162972Y-87484819D02*
X81067734Y-87484819D01*
X81067734Y-87484819D02*
X80972496Y-87437200D01*
X80972496Y-87437200D02*
X80924877Y-87389580D01*
X80924877Y-87389580D02*
X80877258Y-87294342D01*
X80877258Y-87294342D02*
X80829639Y-87103866D01*
X80829639Y-87103866D02*
X80829639Y-86865771D01*
X80829639Y-86865771D02*
X80877258Y-86675295D01*
X80877258Y-86675295D02*
X80924877Y-86580057D01*
X80924877Y-86580057D02*
X80972496Y-86532438D01*
X80972496Y-86532438D02*
X81067734Y-86484819D01*
X81782020Y-86580057D02*
X81829639Y-86532438D01*
X81829639Y-86532438D02*
X81924877Y-86484819D01*
X81924877Y-86484819D02*
X82162972Y-86484819D01*
X82162972Y-86484819D02*
X82258210Y-86532438D01*
X82258210Y-86532438D02*
X82305829Y-86580057D01*
X82305829Y-86580057D02*
X82353448Y-86675295D01*
X82353448Y-86675295D02*
X82353448Y-86770533D01*
X82353448Y-86770533D02*
X82305829Y-86913390D01*
X82305829Y-86913390D02*
X81734401Y-87484819D01*
X81734401Y-87484819D02*
X82353448Y-87484819D01*
X82686782Y-86484819D02*
X83305829Y-86484819D01*
X83305829Y-86484819D02*
X82972496Y-86865771D01*
X82972496Y-86865771D02*
X83115353Y-86865771D01*
X83115353Y-86865771D02*
X83210591Y-86913390D01*
X83210591Y-86913390D02*
X83258210Y-86961009D01*
X83258210Y-86961009D02*
X83305829Y-87056247D01*
X83305829Y-87056247D02*
X83305829Y-87294342D01*
X83305829Y-87294342D02*
X83258210Y-87389580D01*
X83258210Y-87389580D02*
X83210591Y-87437200D01*
X83210591Y-87437200D02*
X83115353Y-87484819D01*
X83115353Y-87484819D02*
X82829639Y-87484819D01*
X82829639Y-87484819D02*
X82734401Y-87437200D01*
X82734401Y-87437200D02*
X82686782Y-87389580D01*
X68305826Y-88618628D02*
X68258207Y-88571009D01*
X68258207Y-88571009D02*
X68162969Y-88523390D01*
X68162969Y-88523390D02*
X68067731Y-88523390D01*
X68067731Y-88523390D02*
X67972493Y-88571009D01*
X67972493Y-88571009D02*
X67924874Y-88618628D01*
X67924874Y-88618628D02*
X67877255Y-88713866D01*
X67877255Y-88713866D02*
X67877255Y-88809104D01*
X67877255Y-88809104D02*
X67924874Y-88904342D01*
X67924874Y-88904342D02*
X67972493Y-88951961D01*
X67972493Y-88951961D02*
X68067731Y-88999580D01*
X68067731Y-88999580D02*
X68162969Y-88999580D01*
X68162969Y-88999580D02*
X68258207Y-88951961D01*
X68258207Y-88951961D02*
X68305826Y-88904342D01*
X68305826Y-88523390D02*
X68305826Y-88904342D01*
X68305826Y-88904342D02*
X68353445Y-88951961D01*
X68353445Y-88951961D02*
X68401064Y-88951961D01*
X68401064Y-88951961D02*
X68496303Y-88904342D01*
X68496303Y-88904342D02*
X68543922Y-88809104D01*
X68543922Y-88809104D02*
X68543922Y-88571009D01*
X68543922Y-88571009D02*
X68448684Y-88428152D01*
X68448684Y-88428152D02*
X68305826Y-88332914D01*
X68305826Y-88332914D02*
X68115350Y-88285295D01*
X68115350Y-88285295D02*
X67924874Y-88332914D01*
X67924874Y-88332914D02*
X67782017Y-88428152D01*
X67782017Y-88428152D02*
X67686779Y-88571009D01*
X67686779Y-88571009D02*
X67639160Y-88761485D01*
X67639160Y-88761485D02*
X67686779Y-88951961D01*
X67686779Y-88951961D02*
X67782017Y-89094819D01*
X67782017Y-89094819D02*
X67924874Y-89190057D01*
X67924874Y-89190057D02*
X68115350Y-89237676D01*
X68115350Y-89237676D02*
X68305826Y-89190057D01*
X68305826Y-89190057D02*
X68448684Y-89094819D01*
X69401064Y-88428152D02*
X69401064Y-89237676D01*
X69401064Y-89237676D02*
X69353445Y-89332914D01*
X69353445Y-89332914D02*
X69305826Y-89380533D01*
X69305826Y-89380533D02*
X69210588Y-89428152D01*
X69210588Y-89428152D02*
X69067731Y-89428152D01*
X69067731Y-89428152D02*
X68972493Y-89380533D01*
X69401064Y-89047200D02*
X69305826Y-89094819D01*
X69305826Y-89094819D02*
X69115350Y-89094819D01*
X69115350Y-89094819D02*
X69020112Y-89047200D01*
X69020112Y-89047200D02*
X68972493Y-88999580D01*
X68972493Y-88999580D02*
X68924874Y-88904342D01*
X68924874Y-88904342D02*
X68924874Y-88618628D01*
X68924874Y-88618628D02*
X68972493Y-88523390D01*
X68972493Y-88523390D02*
X69020112Y-88475771D01*
X69020112Y-88475771D02*
X69115350Y-88428152D01*
X69115350Y-88428152D02*
X69305826Y-88428152D01*
X69305826Y-88428152D02*
X69401064Y-88475771D01*
X69877255Y-89094819D02*
X69877255Y-88428152D01*
X69877255Y-88618628D02*
X69924874Y-88523390D01*
X69924874Y-88523390D02*
X69972493Y-88475771D01*
X69972493Y-88475771D02*
X70067731Y-88428152D01*
X70067731Y-88428152D02*
X70162969Y-88428152D01*
X70924874Y-89094819D02*
X70924874Y-88571009D01*
X70924874Y-88571009D02*
X70877255Y-88475771D01*
X70877255Y-88475771D02*
X70782017Y-88428152D01*
X70782017Y-88428152D02*
X70591541Y-88428152D01*
X70591541Y-88428152D02*
X70496303Y-88475771D01*
X70924874Y-89047200D02*
X70829636Y-89094819D01*
X70829636Y-89094819D02*
X70591541Y-89094819D01*
X70591541Y-89094819D02*
X70496303Y-89047200D01*
X70496303Y-89047200D02*
X70448684Y-88951961D01*
X70448684Y-88951961D02*
X70448684Y-88856723D01*
X70448684Y-88856723D02*
X70496303Y-88761485D01*
X70496303Y-88761485D02*
X70591541Y-88713866D01*
X70591541Y-88713866D02*
X70829636Y-88713866D01*
X70829636Y-88713866D02*
X70924874Y-88666247D01*
X71401065Y-88428152D02*
X71401065Y-89094819D01*
X71401065Y-88523390D02*
X71448684Y-88475771D01*
X71448684Y-88475771D02*
X71543922Y-88428152D01*
X71543922Y-88428152D02*
X71686779Y-88428152D01*
X71686779Y-88428152D02*
X71782017Y-88475771D01*
X71782017Y-88475771D02*
X71829636Y-88571009D01*
X71829636Y-88571009D02*
X71829636Y-89094819D01*
X72734398Y-89094819D02*
X72734398Y-88094819D01*
X72734398Y-89047200D02*
X72639160Y-89094819D01*
X72639160Y-89094819D02*
X72448684Y-89094819D01*
X72448684Y-89094819D02*
X72353446Y-89047200D01*
X72353446Y-89047200D02*
X72305827Y-88999580D01*
X72305827Y-88999580D02*
X72258208Y-88904342D01*
X72258208Y-88904342D02*
X72258208Y-88618628D01*
X72258208Y-88618628D02*
X72305827Y-88523390D01*
X72305827Y-88523390D02*
X72353446Y-88475771D01*
X72353446Y-88475771D02*
X72448684Y-88428152D01*
X72448684Y-88428152D02*
X72639160Y-88428152D01*
X72639160Y-88428152D02*
X72734398Y-88475771D01*
X73353446Y-89094819D02*
X73258208Y-89047200D01*
X73258208Y-89047200D02*
X73210589Y-88999580D01*
X73210589Y-88999580D02*
X73162970Y-88904342D01*
X73162970Y-88904342D02*
X73162970Y-88618628D01*
X73162970Y-88618628D02*
X73210589Y-88523390D01*
X73210589Y-88523390D02*
X73258208Y-88475771D01*
X73258208Y-88475771D02*
X73353446Y-88428152D01*
X73353446Y-88428152D02*
X73496303Y-88428152D01*
X73496303Y-88428152D02*
X73591541Y-88475771D01*
X73591541Y-88475771D02*
X73639160Y-88523390D01*
X73639160Y-88523390D02*
X73686779Y-88618628D01*
X73686779Y-88618628D02*
X73686779Y-88904342D01*
X73686779Y-88904342D02*
X73639160Y-88999580D01*
X73639160Y-88999580D02*
X73591541Y-89047200D01*
X73591541Y-89047200D02*
X73496303Y-89094819D01*
X73496303Y-89094819D02*
X73353446Y-89094819D01*
X74258208Y-89094819D02*
X74162970Y-89047200D01*
X74162970Y-89047200D02*
X74115351Y-88951961D01*
X74115351Y-88951961D02*
X74115351Y-88094819D01*
X75067732Y-89094819D02*
X75067732Y-88094819D01*
X75067732Y-89047200D02*
X74972494Y-89094819D01*
X74972494Y-89094819D02*
X74782018Y-89094819D01*
X74782018Y-89094819D02*
X74686780Y-89047200D01*
X74686780Y-89047200D02*
X74639161Y-88999580D01*
X74639161Y-88999580D02*
X74591542Y-88904342D01*
X74591542Y-88904342D02*
X74591542Y-88618628D01*
X74591542Y-88618628D02*
X74639161Y-88523390D01*
X74639161Y-88523390D02*
X74686780Y-88475771D01*
X74686780Y-88475771D02*
X74782018Y-88428152D01*
X74782018Y-88428152D02*
X74972494Y-88428152D01*
X74972494Y-88428152D02*
X75067732Y-88475771D01*
X75543923Y-89094819D02*
X75543923Y-88428152D01*
X75543923Y-88094819D02*
X75496304Y-88142438D01*
X75496304Y-88142438D02*
X75543923Y-88190057D01*
X75543923Y-88190057D02*
X75591542Y-88142438D01*
X75591542Y-88142438D02*
X75543923Y-88094819D01*
X75543923Y-88094819D02*
X75543923Y-88190057D01*
X76448684Y-89094819D02*
X76448684Y-88571009D01*
X76448684Y-88571009D02*
X76401065Y-88475771D01*
X76401065Y-88475771D02*
X76305827Y-88428152D01*
X76305827Y-88428152D02*
X76115351Y-88428152D01*
X76115351Y-88428152D02*
X76020113Y-88475771D01*
X76448684Y-89047200D02*
X76353446Y-89094819D01*
X76353446Y-89094819D02*
X76115351Y-89094819D01*
X76115351Y-89094819D02*
X76020113Y-89047200D01*
X76020113Y-89047200D02*
X75972494Y-88951961D01*
X75972494Y-88951961D02*
X75972494Y-88856723D01*
X75972494Y-88856723D02*
X76020113Y-88761485D01*
X76020113Y-88761485D02*
X76115351Y-88713866D01*
X76115351Y-88713866D02*
X76353446Y-88713866D01*
X76353446Y-88713866D02*
X76448684Y-88666247D01*
X76924875Y-88428152D02*
X76924875Y-89094819D01*
X76924875Y-88523390D02*
X76972494Y-88475771D01*
X76972494Y-88475771D02*
X77067732Y-88428152D01*
X77067732Y-88428152D02*
X77210589Y-88428152D01*
X77210589Y-88428152D02*
X77305827Y-88475771D01*
X77305827Y-88475771D02*
X77353446Y-88571009D01*
X77353446Y-88571009D02*
X77353446Y-89094819D01*
X78782018Y-88094819D02*
X78877256Y-88094819D01*
X78877256Y-88094819D02*
X78972494Y-88142438D01*
X78972494Y-88142438D02*
X79020113Y-88190057D01*
X79020113Y-88190057D02*
X79067732Y-88285295D01*
X79067732Y-88285295D02*
X79115351Y-88475771D01*
X79115351Y-88475771D02*
X79115351Y-88713866D01*
X79115351Y-88713866D02*
X79067732Y-88904342D01*
X79067732Y-88904342D02*
X79020113Y-88999580D01*
X79020113Y-88999580D02*
X78972494Y-89047200D01*
X78972494Y-89047200D02*
X78877256Y-89094819D01*
X78877256Y-89094819D02*
X78782018Y-89094819D01*
X78782018Y-89094819D02*
X78686780Y-89047200D01*
X78686780Y-89047200D02*
X78639161Y-88999580D01*
X78639161Y-88999580D02*
X78591542Y-88904342D01*
X78591542Y-88904342D02*
X78543923Y-88713866D01*
X78543923Y-88713866D02*
X78543923Y-88475771D01*
X78543923Y-88475771D02*
X78591542Y-88285295D01*
X78591542Y-88285295D02*
X78639161Y-88190057D01*
X78639161Y-88190057D02*
X78686780Y-88142438D01*
X78686780Y-88142438D02*
X78782018Y-88094819D01*
X79972494Y-88094819D02*
X79782018Y-88094819D01*
X79782018Y-88094819D02*
X79686780Y-88142438D01*
X79686780Y-88142438D02*
X79639161Y-88190057D01*
X79639161Y-88190057D02*
X79543923Y-88332914D01*
X79543923Y-88332914D02*
X79496304Y-88523390D01*
X79496304Y-88523390D02*
X79496304Y-88904342D01*
X79496304Y-88904342D02*
X79543923Y-88999580D01*
X79543923Y-88999580D02*
X79591542Y-89047200D01*
X79591542Y-89047200D02*
X79686780Y-89094819D01*
X79686780Y-89094819D02*
X79877256Y-89094819D01*
X79877256Y-89094819D02*
X79972494Y-89047200D01*
X79972494Y-89047200D02*
X80020113Y-88999580D01*
X80020113Y-88999580D02*
X80067732Y-88904342D01*
X80067732Y-88904342D02*
X80067732Y-88666247D01*
X80067732Y-88666247D02*
X80020113Y-88571009D01*
X80020113Y-88571009D02*
X79972494Y-88523390D01*
X79972494Y-88523390D02*
X79877256Y-88475771D01*
X79877256Y-88475771D02*
X79686780Y-88475771D01*
X79686780Y-88475771D02*
X79591542Y-88523390D01*
X79591542Y-88523390D02*
X79543923Y-88571009D01*
X79543923Y-88571009D02*
X79496304Y-88666247D01*
X81210589Y-88047200D02*
X80353447Y-89332914D01*
X81496304Y-88190057D02*
X81543923Y-88142438D01*
X81543923Y-88142438D02*
X81639161Y-88094819D01*
X81639161Y-88094819D02*
X81877256Y-88094819D01*
X81877256Y-88094819D02*
X81972494Y-88142438D01*
X81972494Y-88142438D02*
X82020113Y-88190057D01*
X82020113Y-88190057D02*
X82067732Y-88285295D01*
X82067732Y-88285295D02*
X82067732Y-88380533D01*
X82067732Y-88380533D02*
X82020113Y-88523390D01*
X82020113Y-88523390D02*
X81448685Y-89094819D01*
X81448685Y-89094819D02*
X82067732Y-89094819D01*
X82686780Y-88094819D02*
X82782018Y-88094819D01*
X82782018Y-88094819D02*
X82877256Y-88142438D01*
X82877256Y-88142438D02*
X82924875Y-88190057D01*
X82924875Y-88190057D02*
X82972494Y-88285295D01*
X82972494Y-88285295D02*
X83020113Y-88475771D01*
X83020113Y-88475771D02*
X83020113Y-88713866D01*
X83020113Y-88713866D02*
X82972494Y-88904342D01*
X82972494Y-88904342D02*
X82924875Y-88999580D01*
X82924875Y-88999580D02*
X82877256Y-89047200D01*
X82877256Y-89047200D02*
X82782018Y-89094819D01*
X82782018Y-89094819D02*
X82686780Y-89094819D01*
X82686780Y-89094819D02*
X82591542Y-89047200D01*
X82591542Y-89047200D02*
X82543923Y-88999580D01*
X82543923Y-88999580D02*
X82496304Y-88904342D01*
X82496304Y-88904342D02*
X82448685Y-88713866D01*
X82448685Y-88713866D02*
X82448685Y-88475771D01*
X82448685Y-88475771D02*
X82496304Y-88285295D01*
X82496304Y-88285295D02*
X82543923Y-88190057D01*
X82543923Y-88190057D02*
X82591542Y-88142438D01*
X82591542Y-88142438D02*
X82686780Y-88094819D01*
X83401066Y-88190057D02*
X83448685Y-88142438D01*
X83448685Y-88142438D02*
X83543923Y-88094819D01*
X83543923Y-88094819D02*
X83782018Y-88094819D01*
X83782018Y-88094819D02*
X83877256Y-88142438D01*
X83877256Y-88142438D02*
X83924875Y-88190057D01*
X83924875Y-88190057D02*
X83972494Y-88285295D01*
X83972494Y-88285295D02*
X83972494Y-88380533D01*
X83972494Y-88380533D02*
X83924875Y-88523390D01*
X83924875Y-88523390D02*
X83353447Y-89094819D01*
X83353447Y-89094819D02*
X83972494Y-89094819D01*
X84305828Y-88094819D02*
X84924875Y-88094819D01*
X84924875Y-88094819D02*
X84591542Y-88475771D01*
X84591542Y-88475771D02*
X84734399Y-88475771D01*
X84734399Y-88475771D02*
X84829637Y-88523390D01*
X84829637Y-88523390D02*
X84877256Y-88571009D01*
X84877256Y-88571009D02*
X84924875Y-88666247D01*
X84924875Y-88666247D02*
X84924875Y-88904342D01*
X84924875Y-88904342D02*
X84877256Y-88999580D01*
X84877256Y-88999580D02*
X84829637Y-89047200D01*
X84829637Y-89047200D02*
X84734399Y-89094819D01*
X84734399Y-89094819D02*
X84448685Y-89094819D01*
X84448685Y-89094819D02*
X84353447Y-89047200D01*
X84353447Y-89047200D02*
X84305828Y-88999580D01*
X79074819Y-70681904D02*
X79884342Y-70681904D01*
X79884342Y-70681904D02*
X79979580Y-70634285D01*
X79979580Y-70634285D02*
X80027200Y-70586666D01*
X80027200Y-70586666D02*
X80074819Y-70491428D01*
X80074819Y-70491428D02*
X80074819Y-70300952D01*
X80074819Y-70300952D02*
X80027200Y-70205714D01*
X80027200Y-70205714D02*
X79979580Y-70158095D01*
X79979580Y-70158095D02*
X79884342Y-70110476D01*
X79884342Y-70110476D02*
X79074819Y-70110476D01*
X79170057Y-69681904D02*
X79122438Y-69634285D01*
X79122438Y-69634285D02*
X79074819Y-69539047D01*
X79074819Y-69539047D02*
X79074819Y-69300952D01*
X79074819Y-69300952D02*
X79122438Y-69205714D01*
X79122438Y-69205714D02*
X79170057Y-69158095D01*
X79170057Y-69158095D02*
X79265295Y-69110476D01*
X79265295Y-69110476D02*
X79360533Y-69110476D01*
X79360533Y-69110476D02*
X79503390Y-69158095D01*
X79503390Y-69158095D02*
X80074819Y-69729523D01*
X80074819Y-69729523D02*
X80074819Y-69110476D01*
X83505952Y-76029819D02*
X83505952Y-75029819D01*
X83505952Y-75029819D02*
X84077380Y-76029819D01*
X84077380Y-76029819D02*
X84077380Y-75029819D01*
X84505952Y-75744104D02*
X84982142Y-75744104D01*
X84410714Y-76029819D02*
X84744047Y-75029819D01*
X84744047Y-75029819D02*
X85077380Y-76029819D01*
X85410714Y-76029819D02*
X85410714Y-75029819D01*
X85410714Y-75029819D02*
X85982142Y-76029819D01*
X85982142Y-76029819D02*
X85982142Y-75029819D01*
X86648809Y-75029819D02*
X86839285Y-75029819D01*
X86839285Y-75029819D02*
X86934523Y-75077438D01*
X86934523Y-75077438D02*
X87029761Y-75172676D01*
X87029761Y-75172676D02*
X87077380Y-75363152D01*
X87077380Y-75363152D02*
X87077380Y-75696485D01*
X87077380Y-75696485D02*
X87029761Y-75886961D01*
X87029761Y-75886961D02*
X86934523Y-75982200D01*
X86934523Y-75982200D02*
X86839285Y-76029819D01*
X86839285Y-76029819D02*
X86648809Y-76029819D01*
X86648809Y-76029819D02*
X86553571Y-75982200D01*
X86553571Y-75982200D02*
X86458333Y-75886961D01*
X86458333Y-75886961D02*
X86410714Y-75696485D01*
X86410714Y-75696485D02*
X86410714Y-75363152D01*
X86410714Y-75363152D02*
X86458333Y-75172676D01*
X86458333Y-75172676D02*
X86553571Y-75077438D01*
X86553571Y-75077438D02*
X86648809Y-75029819D01*
X88220238Y-75982200D02*
X88363095Y-76029819D01*
X88363095Y-76029819D02*
X88601190Y-76029819D01*
X88601190Y-76029819D02*
X88696428Y-75982200D01*
X88696428Y-75982200D02*
X88744047Y-75934580D01*
X88744047Y-75934580D02*
X88791666Y-75839342D01*
X88791666Y-75839342D02*
X88791666Y-75744104D01*
X88791666Y-75744104D02*
X88744047Y-75648866D01*
X88744047Y-75648866D02*
X88696428Y-75601247D01*
X88696428Y-75601247D02*
X88601190Y-75553628D01*
X88601190Y-75553628D02*
X88410714Y-75506009D01*
X88410714Y-75506009D02*
X88315476Y-75458390D01*
X88315476Y-75458390D02*
X88267857Y-75410771D01*
X88267857Y-75410771D02*
X88220238Y-75315533D01*
X88220238Y-75315533D02*
X88220238Y-75220295D01*
X88220238Y-75220295D02*
X88267857Y-75125057D01*
X88267857Y-75125057D02*
X88315476Y-75077438D01*
X88315476Y-75077438D02*
X88410714Y-75029819D01*
X88410714Y-75029819D02*
X88648809Y-75029819D01*
X88648809Y-75029819D02*
X88791666Y-75077438D01*
X89363095Y-76029819D02*
X89267857Y-75982200D01*
X89267857Y-75982200D02*
X89220238Y-75934580D01*
X89220238Y-75934580D02*
X89172619Y-75839342D01*
X89172619Y-75839342D02*
X89172619Y-75553628D01*
X89172619Y-75553628D02*
X89220238Y-75458390D01*
X89220238Y-75458390D02*
X89267857Y-75410771D01*
X89267857Y-75410771D02*
X89363095Y-75363152D01*
X89363095Y-75363152D02*
X89505952Y-75363152D01*
X89505952Y-75363152D02*
X89601190Y-75410771D01*
X89601190Y-75410771D02*
X89648809Y-75458390D01*
X89648809Y-75458390D02*
X89696428Y-75553628D01*
X89696428Y-75553628D02*
X89696428Y-75839342D01*
X89696428Y-75839342D02*
X89648809Y-75934580D01*
X89648809Y-75934580D02*
X89601190Y-75982200D01*
X89601190Y-75982200D02*
X89505952Y-76029819D01*
X89505952Y-76029819D02*
X89363095Y-76029819D01*
X90553571Y-75982200D02*
X90458333Y-76029819D01*
X90458333Y-76029819D02*
X90267857Y-76029819D01*
X90267857Y-76029819D02*
X90172619Y-75982200D01*
X90172619Y-75982200D02*
X90125000Y-75934580D01*
X90125000Y-75934580D02*
X90077381Y-75839342D01*
X90077381Y-75839342D02*
X90077381Y-75553628D01*
X90077381Y-75553628D02*
X90125000Y-75458390D01*
X90125000Y-75458390D02*
X90172619Y-75410771D01*
X90172619Y-75410771D02*
X90267857Y-75363152D01*
X90267857Y-75363152D02*
X90458333Y-75363152D01*
X90458333Y-75363152D02*
X90553571Y-75410771D01*
X90982143Y-76029819D02*
X90982143Y-75029819D01*
X91077381Y-75648866D02*
X91363095Y-76029819D01*
X91363095Y-75363152D02*
X90982143Y-75744104D01*
X92172619Y-75982200D02*
X92077381Y-76029819D01*
X92077381Y-76029819D02*
X91886905Y-76029819D01*
X91886905Y-76029819D02*
X91791667Y-75982200D01*
X91791667Y-75982200D02*
X91744048Y-75886961D01*
X91744048Y-75886961D02*
X91744048Y-75506009D01*
X91744048Y-75506009D02*
X91791667Y-75410771D01*
X91791667Y-75410771D02*
X91886905Y-75363152D01*
X91886905Y-75363152D02*
X92077381Y-75363152D01*
X92077381Y-75363152D02*
X92172619Y-75410771D01*
X92172619Y-75410771D02*
X92220238Y-75506009D01*
X92220238Y-75506009D02*
X92220238Y-75601247D01*
X92220238Y-75601247D02*
X91744048Y-75696485D01*
X92505953Y-75363152D02*
X92886905Y-75363152D01*
X92648810Y-75029819D02*
X92648810Y-75886961D01*
X92648810Y-75886961D02*
X92696429Y-75982200D01*
X92696429Y-75982200D02*
X92791667Y-76029819D01*
X92791667Y-76029819D02*
X92886905Y-76029819D01*
X104848809Y-94554819D02*
X104848809Y-93554819D01*
X104848809Y-93554819D02*
X105182142Y-94269104D01*
X105182142Y-94269104D02*
X105515475Y-93554819D01*
X105515475Y-93554819D02*
X105515475Y-94554819D01*
X105848809Y-93554819D02*
X106420237Y-93554819D01*
X106134523Y-94554819D02*
X106134523Y-93554819D01*
X106896428Y-93983390D02*
X106801190Y-93935771D01*
X106801190Y-93935771D02*
X106753571Y-93888152D01*
X106753571Y-93888152D02*
X106705952Y-93792914D01*
X106705952Y-93792914D02*
X106705952Y-93745295D01*
X106705952Y-93745295D02*
X106753571Y-93650057D01*
X106753571Y-93650057D02*
X106801190Y-93602438D01*
X106801190Y-93602438D02*
X106896428Y-93554819D01*
X106896428Y-93554819D02*
X107086904Y-93554819D01*
X107086904Y-93554819D02*
X107182142Y-93602438D01*
X107182142Y-93602438D02*
X107229761Y-93650057D01*
X107229761Y-93650057D02*
X107277380Y-93745295D01*
X107277380Y-93745295D02*
X107277380Y-93792914D01*
X107277380Y-93792914D02*
X107229761Y-93888152D01*
X107229761Y-93888152D02*
X107182142Y-93935771D01*
X107182142Y-93935771D02*
X107086904Y-93983390D01*
X107086904Y-93983390D02*
X106896428Y-93983390D01*
X106896428Y-93983390D02*
X106801190Y-94031009D01*
X106801190Y-94031009D02*
X106753571Y-94078628D01*
X106753571Y-94078628D02*
X106705952Y-94173866D01*
X106705952Y-94173866D02*
X106705952Y-94364342D01*
X106705952Y-94364342D02*
X106753571Y-94459580D01*
X106753571Y-94459580D02*
X106801190Y-94507200D01*
X106801190Y-94507200D02*
X106896428Y-94554819D01*
X106896428Y-94554819D02*
X107086904Y-94554819D01*
X107086904Y-94554819D02*
X107182142Y-94507200D01*
X107182142Y-94507200D02*
X107229761Y-94459580D01*
X107229761Y-94459580D02*
X107277380Y-94364342D01*
X107277380Y-94364342D02*
X107277380Y-94173866D01*
X107277380Y-94173866D02*
X107229761Y-94078628D01*
X107229761Y-94078628D02*
X107182142Y-94031009D01*
X107182142Y-94031009D02*
X107086904Y-93983390D01*
X107848809Y-93983390D02*
X107753571Y-93935771D01*
X107753571Y-93935771D02*
X107705952Y-93888152D01*
X107705952Y-93888152D02*
X107658333Y-93792914D01*
X107658333Y-93792914D02*
X107658333Y-93745295D01*
X107658333Y-93745295D02*
X107705952Y-93650057D01*
X107705952Y-93650057D02*
X107753571Y-93602438D01*
X107753571Y-93602438D02*
X107848809Y-93554819D01*
X107848809Y-93554819D02*
X108039285Y-93554819D01*
X108039285Y-93554819D02*
X108134523Y-93602438D01*
X108134523Y-93602438D02*
X108182142Y-93650057D01*
X108182142Y-93650057D02*
X108229761Y-93745295D01*
X108229761Y-93745295D02*
X108229761Y-93792914D01*
X108229761Y-93792914D02*
X108182142Y-93888152D01*
X108182142Y-93888152D02*
X108134523Y-93935771D01*
X108134523Y-93935771D02*
X108039285Y-93983390D01*
X108039285Y-93983390D02*
X107848809Y-93983390D01*
X107848809Y-93983390D02*
X107753571Y-94031009D01*
X107753571Y-94031009D02*
X107705952Y-94078628D01*
X107705952Y-94078628D02*
X107658333Y-94173866D01*
X107658333Y-94173866D02*
X107658333Y-94364342D01*
X107658333Y-94364342D02*
X107705952Y-94459580D01*
X107705952Y-94459580D02*
X107753571Y-94507200D01*
X107753571Y-94507200D02*
X107848809Y-94554819D01*
X107848809Y-94554819D02*
X108039285Y-94554819D01*
X108039285Y-94554819D02*
X108134523Y-94507200D01*
X108134523Y-94507200D02*
X108182142Y-94459580D01*
X108182142Y-94459580D02*
X108229761Y-94364342D01*
X108229761Y-94364342D02*
X108229761Y-94173866D01*
X108229761Y-94173866D02*
X108182142Y-94078628D01*
X108182142Y-94078628D02*
X108134523Y-94031009D01*
X108134523Y-94031009D02*
X108039285Y-93983390D01*
X109182142Y-94554819D02*
X108610714Y-94554819D01*
X108896428Y-94554819D02*
X108896428Y-93554819D01*
X108896428Y-93554819D02*
X108801190Y-93697676D01*
X108801190Y-93697676D02*
X108705952Y-93792914D01*
X108705952Y-93792914D02*
X108610714Y-93840533D01*
X110039285Y-93554819D02*
X109848809Y-93554819D01*
X109848809Y-93554819D02*
X109753571Y-93602438D01*
X109753571Y-93602438D02*
X109705952Y-93650057D01*
X109705952Y-93650057D02*
X109610714Y-93792914D01*
X109610714Y-93792914D02*
X109563095Y-93983390D01*
X109563095Y-93983390D02*
X109563095Y-94364342D01*
X109563095Y-94364342D02*
X109610714Y-94459580D01*
X109610714Y-94459580D02*
X109658333Y-94507200D01*
X109658333Y-94507200D02*
X109753571Y-94554819D01*
X109753571Y-94554819D02*
X109944047Y-94554819D01*
X109944047Y-94554819D02*
X110039285Y-94507200D01*
X110039285Y-94507200D02*
X110086904Y-94459580D01*
X110086904Y-94459580D02*
X110134523Y-94364342D01*
X110134523Y-94364342D02*
X110134523Y-94126247D01*
X110134523Y-94126247D02*
X110086904Y-94031009D01*
X110086904Y-94031009D02*
X110039285Y-93983390D01*
X110039285Y-93983390D02*
X109944047Y-93935771D01*
X109944047Y-93935771D02*
X109753571Y-93935771D01*
X109753571Y-93935771D02*
X109658333Y-93983390D01*
X109658333Y-93983390D02*
X109610714Y-94031009D01*
X109610714Y-94031009D02*
X109563095Y-94126247D01*
X111277381Y-94507200D02*
X111420238Y-94554819D01*
X111420238Y-94554819D02*
X111658333Y-94554819D01*
X111658333Y-94554819D02*
X111753571Y-94507200D01*
X111753571Y-94507200D02*
X111801190Y-94459580D01*
X111801190Y-94459580D02*
X111848809Y-94364342D01*
X111848809Y-94364342D02*
X111848809Y-94269104D01*
X111848809Y-94269104D02*
X111801190Y-94173866D01*
X111801190Y-94173866D02*
X111753571Y-94126247D01*
X111753571Y-94126247D02*
X111658333Y-94078628D01*
X111658333Y-94078628D02*
X111467857Y-94031009D01*
X111467857Y-94031009D02*
X111372619Y-93983390D01*
X111372619Y-93983390D02*
X111325000Y-93935771D01*
X111325000Y-93935771D02*
X111277381Y-93840533D01*
X111277381Y-93840533D02*
X111277381Y-93745295D01*
X111277381Y-93745295D02*
X111325000Y-93650057D01*
X111325000Y-93650057D02*
X111372619Y-93602438D01*
X111372619Y-93602438D02*
X111467857Y-93554819D01*
X111467857Y-93554819D02*
X111705952Y-93554819D01*
X111705952Y-93554819D02*
X111848809Y-93602438D01*
X112420238Y-94554819D02*
X112325000Y-94507200D01*
X112325000Y-94507200D02*
X112277381Y-94459580D01*
X112277381Y-94459580D02*
X112229762Y-94364342D01*
X112229762Y-94364342D02*
X112229762Y-94078628D01*
X112229762Y-94078628D02*
X112277381Y-93983390D01*
X112277381Y-93983390D02*
X112325000Y-93935771D01*
X112325000Y-93935771D02*
X112420238Y-93888152D01*
X112420238Y-93888152D02*
X112563095Y-93888152D01*
X112563095Y-93888152D02*
X112658333Y-93935771D01*
X112658333Y-93935771D02*
X112705952Y-93983390D01*
X112705952Y-93983390D02*
X112753571Y-94078628D01*
X112753571Y-94078628D02*
X112753571Y-94364342D01*
X112753571Y-94364342D02*
X112705952Y-94459580D01*
X112705952Y-94459580D02*
X112658333Y-94507200D01*
X112658333Y-94507200D02*
X112563095Y-94554819D01*
X112563095Y-94554819D02*
X112420238Y-94554819D01*
X113610714Y-94507200D02*
X113515476Y-94554819D01*
X113515476Y-94554819D02*
X113325000Y-94554819D01*
X113325000Y-94554819D02*
X113229762Y-94507200D01*
X113229762Y-94507200D02*
X113182143Y-94459580D01*
X113182143Y-94459580D02*
X113134524Y-94364342D01*
X113134524Y-94364342D02*
X113134524Y-94078628D01*
X113134524Y-94078628D02*
X113182143Y-93983390D01*
X113182143Y-93983390D02*
X113229762Y-93935771D01*
X113229762Y-93935771D02*
X113325000Y-93888152D01*
X113325000Y-93888152D02*
X113515476Y-93888152D01*
X113515476Y-93888152D02*
X113610714Y-93935771D01*
X114039286Y-94554819D02*
X114039286Y-93554819D01*
X114134524Y-94173866D02*
X114420238Y-94554819D01*
X114420238Y-93888152D02*
X114039286Y-94269104D01*
X115229762Y-94507200D02*
X115134524Y-94554819D01*
X115134524Y-94554819D02*
X114944048Y-94554819D01*
X114944048Y-94554819D02*
X114848810Y-94507200D01*
X114848810Y-94507200D02*
X114801191Y-94411961D01*
X114801191Y-94411961D02*
X114801191Y-94031009D01*
X114801191Y-94031009D02*
X114848810Y-93935771D01*
X114848810Y-93935771D02*
X114944048Y-93888152D01*
X114944048Y-93888152D02*
X115134524Y-93888152D01*
X115134524Y-93888152D02*
X115229762Y-93935771D01*
X115229762Y-93935771D02*
X115277381Y-94031009D01*
X115277381Y-94031009D02*
X115277381Y-94126247D01*
X115277381Y-94126247D02*
X114801191Y-94221485D01*
X115563096Y-93888152D02*
X115944048Y-93888152D01*
X115705953Y-93554819D02*
X115705953Y-94411961D01*
X115705953Y-94411961D02*
X115753572Y-94507200D01*
X115753572Y-94507200D02*
X115848810Y-94554819D01*
X115848810Y-94554819D02*
X115944048Y-94554819D01*
D11*
X112287143Y-108977469D02*
X112047143Y-108634612D01*
X111875714Y-108977469D02*
X111875714Y-108257469D01*
X111875714Y-108257469D02*
X112150000Y-108257469D01*
X112150000Y-108257469D02*
X112218571Y-108291755D01*
X112218571Y-108291755D02*
X112252857Y-108326041D01*
X112252857Y-108326041D02*
X112287143Y-108394612D01*
X112287143Y-108394612D02*
X112287143Y-108497469D01*
X112287143Y-108497469D02*
X112252857Y-108566041D01*
X112252857Y-108566041D02*
X112218571Y-108600326D01*
X112218571Y-108600326D02*
X112150000Y-108634612D01*
X112150000Y-108634612D02*
X111875714Y-108634612D01*
X112972857Y-108977469D02*
X112561428Y-108977469D01*
X112767143Y-108977469D02*
X112767143Y-108257469D01*
X112767143Y-108257469D02*
X112698571Y-108360326D01*
X112698571Y-108360326D02*
X112630000Y-108428898D01*
X112630000Y-108428898D02*
X112561428Y-108463184D01*
X113384285Y-108566041D02*
X113315714Y-108531755D01*
X113315714Y-108531755D02*
X113281428Y-108497469D01*
X113281428Y-108497469D02*
X113247142Y-108428898D01*
X113247142Y-108428898D02*
X113247142Y-108394612D01*
X113247142Y-108394612D02*
X113281428Y-108326041D01*
X113281428Y-108326041D02*
X113315714Y-108291755D01*
X113315714Y-108291755D02*
X113384285Y-108257469D01*
X113384285Y-108257469D02*
X113521428Y-108257469D01*
X113521428Y-108257469D02*
X113590000Y-108291755D01*
X113590000Y-108291755D02*
X113624285Y-108326041D01*
X113624285Y-108326041D02*
X113658571Y-108394612D01*
X113658571Y-108394612D02*
X113658571Y-108428898D01*
X113658571Y-108428898D02*
X113624285Y-108497469D01*
X113624285Y-108497469D02*
X113590000Y-108531755D01*
X113590000Y-108531755D02*
X113521428Y-108566041D01*
X113521428Y-108566041D02*
X113384285Y-108566041D01*
X113384285Y-108566041D02*
X113315714Y-108600326D01*
X113315714Y-108600326D02*
X113281428Y-108634612D01*
X113281428Y-108634612D02*
X113247142Y-108703184D01*
X113247142Y-108703184D02*
X113247142Y-108840326D01*
X113247142Y-108840326D02*
X113281428Y-108908898D01*
X113281428Y-108908898D02*
X113315714Y-108943184D01*
X113315714Y-108943184D02*
X113384285Y-108977469D01*
X113384285Y-108977469D02*
X113521428Y-108977469D01*
X113521428Y-108977469D02*
X113590000Y-108943184D01*
X113590000Y-108943184D02*
X113624285Y-108908898D01*
X113624285Y-108908898D02*
X113658571Y-108840326D01*
X113658571Y-108840326D02*
X113658571Y-108703184D01*
X113658571Y-108703184D02*
X113624285Y-108634612D01*
X113624285Y-108634612D02*
X113590000Y-108600326D01*
X113590000Y-108600326D02*
X113521428Y-108566041D01*
D10*
X116609761Y-115419580D02*
X116562142Y-115467200D01*
X116562142Y-115467200D02*
X116419285Y-115514819D01*
X116419285Y-115514819D02*
X116324047Y-115514819D01*
X116324047Y-115514819D02*
X116181190Y-115467200D01*
X116181190Y-115467200D02*
X116085952Y-115371961D01*
X116085952Y-115371961D02*
X116038333Y-115276723D01*
X116038333Y-115276723D02*
X115990714Y-115086247D01*
X115990714Y-115086247D02*
X115990714Y-114943390D01*
X115990714Y-114943390D02*
X116038333Y-114752914D01*
X116038333Y-114752914D02*
X116085952Y-114657676D01*
X116085952Y-114657676D02*
X116181190Y-114562438D01*
X116181190Y-114562438D02*
X116324047Y-114514819D01*
X116324047Y-114514819D02*
X116419285Y-114514819D01*
X116419285Y-114514819D02*
X116562142Y-114562438D01*
X116562142Y-114562438D02*
X116609761Y-114610057D01*
X116990714Y-115229104D02*
X117466904Y-115229104D01*
X116895476Y-115514819D02*
X117228809Y-114514819D01*
X117228809Y-114514819D02*
X117562142Y-115514819D01*
X117895476Y-115514819D02*
X117895476Y-114514819D01*
X117895476Y-114514819D02*
X118276428Y-114514819D01*
X118276428Y-114514819D02*
X118371666Y-114562438D01*
X118371666Y-114562438D02*
X118419285Y-114610057D01*
X118419285Y-114610057D02*
X118466904Y-114705295D01*
X118466904Y-114705295D02*
X118466904Y-114848152D01*
X118466904Y-114848152D02*
X118419285Y-114943390D01*
X118419285Y-114943390D02*
X118371666Y-114991009D01*
X118371666Y-114991009D02*
X118276428Y-115038628D01*
X118276428Y-115038628D02*
X117895476Y-115038628D01*
X118847857Y-115467200D02*
X118990714Y-115514819D01*
X118990714Y-115514819D02*
X119228809Y-115514819D01*
X119228809Y-115514819D02*
X119324047Y-115467200D01*
X119324047Y-115467200D02*
X119371666Y-115419580D01*
X119371666Y-115419580D02*
X119419285Y-115324342D01*
X119419285Y-115324342D02*
X119419285Y-115229104D01*
X119419285Y-115229104D02*
X119371666Y-115133866D01*
X119371666Y-115133866D02*
X119324047Y-115086247D01*
X119324047Y-115086247D02*
X119228809Y-115038628D01*
X119228809Y-115038628D02*
X119038333Y-114991009D01*
X119038333Y-114991009D02*
X118943095Y-114943390D01*
X118943095Y-114943390D02*
X118895476Y-114895771D01*
X118895476Y-114895771D02*
X118847857Y-114800533D01*
X118847857Y-114800533D02*
X118847857Y-114705295D01*
X118847857Y-114705295D02*
X118895476Y-114610057D01*
X118895476Y-114610057D02*
X118943095Y-114562438D01*
X118943095Y-114562438D02*
X119038333Y-114514819D01*
X119038333Y-114514819D02*
X119276428Y-114514819D01*
X119276428Y-114514819D02*
X119419285Y-114562438D01*
D11*
X65670000Y-104227469D02*
X65430000Y-103884612D01*
X65258571Y-104227469D02*
X65258571Y-103507469D01*
X65258571Y-103507469D02*
X65532857Y-103507469D01*
X65532857Y-103507469D02*
X65601428Y-103541755D01*
X65601428Y-103541755D02*
X65635714Y-103576041D01*
X65635714Y-103576041D02*
X65670000Y-103644612D01*
X65670000Y-103644612D02*
X65670000Y-103747469D01*
X65670000Y-103747469D02*
X65635714Y-103816041D01*
X65635714Y-103816041D02*
X65601428Y-103850326D01*
X65601428Y-103850326D02*
X65532857Y-103884612D01*
X65532857Y-103884612D02*
X65258571Y-103884612D01*
X65910000Y-103507469D02*
X66355714Y-103507469D01*
X66355714Y-103507469D02*
X66115714Y-103781755D01*
X66115714Y-103781755D02*
X66218571Y-103781755D01*
X66218571Y-103781755D02*
X66287143Y-103816041D01*
X66287143Y-103816041D02*
X66321428Y-103850326D01*
X66321428Y-103850326D02*
X66355714Y-103918898D01*
X66355714Y-103918898D02*
X66355714Y-104090326D01*
X66355714Y-104090326D02*
X66321428Y-104158898D01*
X66321428Y-104158898D02*
X66287143Y-104193184D01*
X66287143Y-104193184D02*
X66218571Y-104227469D01*
X66218571Y-104227469D02*
X66012857Y-104227469D01*
X66012857Y-104227469D02*
X65944285Y-104193184D01*
X65944285Y-104193184D02*
X65910000Y-104158898D01*
X65670000Y-102077469D02*
X65430000Y-101734612D01*
X65258571Y-102077469D02*
X65258571Y-101357469D01*
X65258571Y-101357469D02*
X65532857Y-101357469D01*
X65532857Y-101357469D02*
X65601428Y-101391755D01*
X65601428Y-101391755D02*
X65635714Y-101426041D01*
X65635714Y-101426041D02*
X65670000Y-101494612D01*
X65670000Y-101494612D02*
X65670000Y-101597469D01*
X65670000Y-101597469D02*
X65635714Y-101666041D01*
X65635714Y-101666041D02*
X65601428Y-101700326D01*
X65601428Y-101700326D02*
X65532857Y-101734612D01*
X65532857Y-101734612D02*
X65258571Y-101734612D01*
X66287143Y-101597469D02*
X66287143Y-102077469D01*
X66115714Y-101323184D02*
X65944285Y-101837469D01*
X65944285Y-101837469D02*
X66390000Y-101837469D01*
D10*
X115029819Y-88228333D02*
X115744104Y-88228333D01*
X115744104Y-88228333D02*
X115886961Y-88275952D01*
X115886961Y-88275952D02*
X115982200Y-88371190D01*
X115982200Y-88371190D02*
X116029819Y-88514047D01*
X116029819Y-88514047D02*
X116029819Y-88609285D01*
X115029819Y-87847380D02*
X115029819Y-87228333D01*
X115029819Y-87228333D02*
X115410771Y-87561666D01*
X115410771Y-87561666D02*
X115410771Y-87418809D01*
X115410771Y-87418809D02*
X115458390Y-87323571D01*
X115458390Y-87323571D02*
X115506009Y-87275952D01*
X115506009Y-87275952D02*
X115601247Y-87228333D01*
X115601247Y-87228333D02*
X115839342Y-87228333D01*
X115839342Y-87228333D02*
X115934580Y-87275952D01*
X115934580Y-87275952D02*
X115982200Y-87323571D01*
X115982200Y-87323571D02*
X116029819Y-87418809D01*
X116029819Y-87418809D02*
X116029819Y-87704523D01*
X116029819Y-87704523D02*
X115982200Y-87799761D01*
X115982200Y-87799761D02*
X115934580Y-87847380D01*
D11*
X105412143Y-103602469D02*
X105172143Y-103259612D01*
X105000714Y-103602469D02*
X105000714Y-102882469D01*
X105000714Y-102882469D02*
X105275000Y-102882469D01*
X105275000Y-102882469D02*
X105343571Y-102916755D01*
X105343571Y-102916755D02*
X105377857Y-102951041D01*
X105377857Y-102951041D02*
X105412143Y-103019612D01*
X105412143Y-103019612D02*
X105412143Y-103122469D01*
X105412143Y-103122469D02*
X105377857Y-103191041D01*
X105377857Y-103191041D02*
X105343571Y-103225326D01*
X105343571Y-103225326D02*
X105275000Y-103259612D01*
X105275000Y-103259612D02*
X105000714Y-103259612D01*
X106097857Y-103602469D02*
X105686428Y-103602469D01*
X105892143Y-103602469D02*
X105892143Y-102882469D01*
X105892143Y-102882469D02*
X105823571Y-102985326D01*
X105823571Y-102985326D02*
X105755000Y-103053898D01*
X105755000Y-103053898D02*
X105686428Y-103088184D01*
X106337857Y-102882469D02*
X106817857Y-102882469D01*
X106817857Y-102882469D02*
X106509285Y-103602469D01*
D10*
X110942618Y-115514819D02*
X110609285Y-115038628D01*
X110371190Y-115514819D02*
X110371190Y-114514819D01*
X110371190Y-114514819D02*
X110752142Y-114514819D01*
X110752142Y-114514819D02*
X110847380Y-114562438D01*
X110847380Y-114562438D02*
X110894999Y-114610057D01*
X110894999Y-114610057D02*
X110942618Y-114705295D01*
X110942618Y-114705295D02*
X110942618Y-114848152D01*
X110942618Y-114848152D02*
X110894999Y-114943390D01*
X110894999Y-114943390D02*
X110847380Y-114991009D01*
X110847380Y-114991009D02*
X110752142Y-115038628D01*
X110752142Y-115038628D02*
X110371190Y-115038628D01*
X111371190Y-114991009D02*
X111704523Y-114991009D01*
X111847380Y-115514819D02*
X111371190Y-115514819D01*
X111371190Y-115514819D02*
X111371190Y-114514819D01*
X111371190Y-114514819D02*
X111847380Y-114514819D01*
X112228333Y-115467200D02*
X112371190Y-115514819D01*
X112371190Y-115514819D02*
X112609285Y-115514819D01*
X112609285Y-115514819D02*
X112704523Y-115467200D01*
X112704523Y-115467200D02*
X112752142Y-115419580D01*
X112752142Y-115419580D02*
X112799761Y-115324342D01*
X112799761Y-115324342D02*
X112799761Y-115229104D01*
X112799761Y-115229104D02*
X112752142Y-115133866D01*
X112752142Y-115133866D02*
X112704523Y-115086247D01*
X112704523Y-115086247D02*
X112609285Y-115038628D01*
X112609285Y-115038628D02*
X112418809Y-114991009D01*
X112418809Y-114991009D02*
X112323571Y-114943390D01*
X112323571Y-114943390D02*
X112275952Y-114895771D01*
X112275952Y-114895771D02*
X112228333Y-114800533D01*
X112228333Y-114800533D02*
X112228333Y-114705295D01*
X112228333Y-114705295D02*
X112275952Y-114610057D01*
X112275952Y-114610057D02*
X112323571Y-114562438D01*
X112323571Y-114562438D02*
X112418809Y-114514819D01*
X112418809Y-114514819D02*
X112656904Y-114514819D01*
X112656904Y-114514819D02*
X112799761Y-114562438D01*
X113228333Y-114991009D02*
X113561666Y-114991009D01*
X113704523Y-115514819D02*
X113228333Y-115514819D01*
X113228333Y-115514819D02*
X113228333Y-114514819D01*
X113228333Y-114514819D02*
X113704523Y-114514819D01*
X113990238Y-114514819D02*
X114561666Y-114514819D01*
X114275952Y-115514819D02*
X114275952Y-114514819D01*
D11*
X105412143Y-101427469D02*
X105172143Y-101084612D01*
X105000714Y-101427469D02*
X105000714Y-100707469D01*
X105000714Y-100707469D02*
X105275000Y-100707469D01*
X105275000Y-100707469D02*
X105343571Y-100741755D01*
X105343571Y-100741755D02*
X105377857Y-100776041D01*
X105377857Y-100776041D02*
X105412143Y-100844612D01*
X105412143Y-100844612D02*
X105412143Y-100947469D01*
X105412143Y-100947469D02*
X105377857Y-101016041D01*
X105377857Y-101016041D02*
X105343571Y-101050326D01*
X105343571Y-101050326D02*
X105275000Y-101084612D01*
X105275000Y-101084612D02*
X105000714Y-101084612D01*
X106097857Y-101427469D02*
X105686428Y-101427469D01*
X105892143Y-101427469D02*
X105892143Y-100707469D01*
X105892143Y-100707469D02*
X105823571Y-100810326D01*
X105823571Y-100810326D02*
X105755000Y-100878898D01*
X105755000Y-100878898D02*
X105686428Y-100913184D01*
X106715000Y-100707469D02*
X106577857Y-100707469D01*
X106577857Y-100707469D02*
X106509285Y-100741755D01*
X106509285Y-100741755D02*
X106475000Y-100776041D01*
X106475000Y-100776041D02*
X106406428Y-100878898D01*
X106406428Y-100878898D02*
X106372142Y-101016041D01*
X106372142Y-101016041D02*
X106372142Y-101290326D01*
X106372142Y-101290326D02*
X106406428Y-101358898D01*
X106406428Y-101358898D02*
X106440714Y-101393184D01*
X106440714Y-101393184D02*
X106509285Y-101427469D01*
X106509285Y-101427469D02*
X106646428Y-101427469D01*
X106646428Y-101427469D02*
X106715000Y-101393184D01*
X106715000Y-101393184D02*
X106749285Y-101358898D01*
X106749285Y-101358898D02*
X106783571Y-101290326D01*
X106783571Y-101290326D02*
X106783571Y-101118898D01*
X106783571Y-101118898D02*
X106749285Y-101050326D01*
X106749285Y-101050326D02*
X106715000Y-101016041D01*
X106715000Y-101016041D02*
X106646428Y-100981755D01*
X106646428Y-100981755D02*
X106509285Y-100981755D01*
X106509285Y-100981755D02*
X106440714Y-101016041D01*
X106440714Y-101016041D02*
X106406428Y-101050326D01*
X106406428Y-101050326D02*
X106372142Y-101118898D01*
X65670000Y-99927469D02*
X65430000Y-99584612D01*
X65258571Y-99927469D02*
X65258571Y-99207469D01*
X65258571Y-99207469D02*
X65532857Y-99207469D01*
X65532857Y-99207469D02*
X65601428Y-99241755D01*
X65601428Y-99241755D02*
X65635714Y-99276041D01*
X65635714Y-99276041D02*
X65670000Y-99344612D01*
X65670000Y-99344612D02*
X65670000Y-99447469D01*
X65670000Y-99447469D02*
X65635714Y-99516041D01*
X65635714Y-99516041D02*
X65601428Y-99550326D01*
X65601428Y-99550326D02*
X65532857Y-99584612D01*
X65532857Y-99584612D02*
X65258571Y-99584612D01*
X66321428Y-99207469D02*
X65978571Y-99207469D01*
X65978571Y-99207469D02*
X65944285Y-99550326D01*
X65944285Y-99550326D02*
X65978571Y-99516041D01*
X65978571Y-99516041D02*
X66047143Y-99481755D01*
X66047143Y-99481755D02*
X66218571Y-99481755D01*
X66218571Y-99481755D02*
X66287143Y-99516041D01*
X66287143Y-99516041D02*
X66321428Y-99550326D01*
X66321428Y-99550326D02*
X66355714Y-99618898D01*
X66355714Y-99618898D02*
X66355714Y-99790326D01*
X66355714Y-99790326D02*
X66321428Y-99858898D01*
X66321428Y-99858898D02*
X66287143Y-99893184D01*
X66287143Y-99893184D02*
X66218571Y-99927469D01*
X66218571Y-99927469D02*
X66047143Y-99927469D01*
X66047143Y-99927469D02*
X65978571Y-99893184D01*
X65978571Y-99893184D02*
X65944285Y-99858898D01*
X65670000Y-106377469D02*
X65430000Y-106034612D01*
X65258571Y-106377469D02*
X65258571Y-105657469D01*
X65258571Y-105657469D02*
X65532857Y-105657469D01*
X65532857Y-105657469D02*
X65601428Y-105691755D01*
X65601428Y-105691755D02*
X65635714Y-105726041D01*
X65635714Y-105726041D02*
X65670000Y-105794612D01*
X65670000Y-105794612D02*
X65670000Y-105897469D01*
X65670000Y-105897469D02*
X65635714Y-105966041D01*
X65635714Y-105966041D02*
X65601428Y-106000326D01*
X65601428Y-106000326D02*
X65532857Y-106034612D01*
X65532857Y-106034612D02*
X65258571Y-106034612D01*
X65944285Y-105726041D02*
X65978571Y-105691755D01*
X65978571Y-105691755D02*
X66047143Y-105657469D01*
X66047143Y-105657469D02*
X66218571Y-105657469D01*
X66218571Y-105657469D02*
X66287143Y-105691755D01*
X66287143Y-105691755D02*
X66321428Y-105726041D01*
X66321428Y-105726041D02*
X66355714Y-105794612D01*
X66355714Y-105794612D02*
X66355714Y-105863184D01*
X66355714Y-105863184D02*
X66321428Y-105966041D01*
X66321428Y-105966041D02*
X65910000Y-106377469D01*
X65910000Y-106377469D02*
X66355714Y-106377469D01*
D10*
X103844047Y-72429819D02*
X104510713Y-73429819D01*
X104510713Y-72429819D02*
X103844047Y-73429819D01*
X104844047Y-73144104D02*
X105320237Y-73144104D01*
X104748809Y-73429819D02*
X105082142Y-72429819D01*
X105082142Y-72429819D02*
X105415475Y-73429819D01*
X105748809Y-73429819D02*
X105748809Y-72429819D01*
X106415475Y-72429819D02*
X106605951Y-72429819D01*
X106605951Y-72429819D02*
X106701189Y-72477438D01*
X106701189Y-72477438D02*
X106796427Y-72572676D01*
X106796427Y-72572676D02*
X106844046Y-72763152D01*
X106844046Y-72763152D02*
X106844046Y-73096485D01*
X106844046Y-73096485D02*
X106796427Y-73286961D01*
X106796427Y-73286961D02*
X106701189Y-73382200D01*
X106701189Y-73382200D02*
X106605951Y-73429819D01*
X106605951Y-73429819D02*
X106415475Y-73429819D01*
X106415475Y-73429819D02*
X106320237Y-73382200D01*
X106320237Y-73382200D02*
X106224999Y-73286961D01*
X106224999Y-73286961D02*
X106177380Y-73096485D01*
X106177380Y-73096485D02*
X106177380Y-72763152D01*
X106177380Y-72763152D02*
X106224999Y-72572676D01*
X106224999Y-72572676D02*
X106320237Y-72477438D01*
X106320237Y-72477438D02*
X106415475Y-72429819D01*
X107986904Y-73382200D02*
X108129761Y-73429819D01*
X108129761Y-73429819D02*
X108367856Y-73429819D01*
X108367856Y-73429819D02*
X108463094Y-73382200D01*
X108463094Y-73382200D02*
X108510713Y-73334580D01*
X108510713Y-73334580D02*
X108558332Y-73239342D01*
X108558332Y-73239342D02*
X108558332Y-73144104D01*
X108558332Y-73144104D02*
X108510713Y-73048866D01*
X108510713Y-73048866D02*
X108463094Y-73001247D01*
X108463094Y-73001247D02*
X108367856Y-72953628D01*
X108367856Y-72953628D02*
X108177380Y-72906009D01*
X108177380Y-72906009D02*
X108082142Y-72858390D01*
X108082142Y-72858390D02*
X108034523Y-72810771D01*
X108034523Y-72810771D02*
X107986904Y-72715533D01*
X107986904Y-72715533D02*
X107986904Y-72620295D01*
X107986904Y-72620295D02*
X108034523Y-72525057D01*
X108034523Y-72525057D02*
X108082142Y-72477438D01*
X108082142Y-72477438D02*
X108177380Y-72429819D01*
X108177380Y-72429819D02*
X108415475Y-72429819D01*
X108415475Y-72429819D02*
X108558332Y-72477438D01*
X109129761Y-73429819D02*
X109034523Y-73382200D01*
X109034523Y-73382200D02*
X108986904Y-73334580D01*
X108986904Y-73334580D02*
X108939285Y-73239342D01*
X108939285Y-73239342D02*
X108939285Y-72953628D01*
X108939285Y-72953628D02*
X108986904Y-72858390D01*
X108986904Y-72858390D02*
X109034523Y-72810771D01*
X109034523Y-72810771D02*
X109129761Y-72763152D01*
X109129761Y-72763152D02*
X109272618Y-72763152D01*
X109272618Y-72763152D02*
X109367856Y-72810771D01*
X109367856Y-72810771D02*
X109415475Y-72858390D01*
X109415475Y-72858390D02*
X109463094Y-72953628D01*
X109463094Y-72953628D02*
X109463094Y-73239342D01*
X109463094Y-73239342D02*
X109415475Y-73334580D01*
X109415475Y-73334580D02*
X109367856Y-73382200D01*
X109367856Y-73382200D02*
X109272618Y-73429819D01*
X109272618Y-73429819D02*
X109129761Y-73429819D01*
X110320237Y-73382200D02*
X110224999Y-73429819D01*
X110224999Y-73429819D02*
X110034523Y-73429819D01*
X110034523Y-73429819D02*
X109939285Y-73382200D01*
X109939285Y-73382200D02*
X109891666Y-73334580D01*
X109891666Y-73334580D02*
X109844047Y-73239342D01*
X109844047Y-73239342D02*
X109844047Y-72953628D01*
X109844047Y-72953628D02*
X109891666Y-72858390D01*
X109891666Y-72858390D02*
X109939285Y-72810771D01*
X109939285Y-72810771D02*
X110034523Y-72763152D01*
X110034523Y-72763152D02*
X110224999Y-72763152D01*
X110224999Y-72763152D02*
X110320237Y-72810771D01*
X110748809Y-73429819D02*
X110748809Y-72429819D01*
X110844047Y-73048866D02*
X111129761Y-73429819D01*
X111129761Y-72763152D02*
X110748809Y-73144104D01*
X111939285Y-73382200D02*
X111844047Y-73429819D01*
X111844047Y-73429819D02*
X111653571Y-73429819D01*
X111653571Y-73429819D02*
X111558333Y-73382200D01*
X111558333Y-73382200D02*
X111510714Y-73286961D01*
X111510714Y-73286961D02*
X111510714Y-72906009D01*
X111510714Y-72906009D02*
X111558333Y-72810771D01*
X111558333Y-72810771D02*
X111653571Y-72763152D01*
X111653571Y-72763152D02*
X111844047Y-72763152D01*
X111844047Y-72763152D02*
X111939285Y-72810771D01*
X111939285Y-72810771D02*
X111986904Y-72906009D01*
X111986904Y-72906009D02*
X111986904Y-73001247D01*
X111986904Y-73001247D02*
X111510714Y-73096485D01*
X112272619Y-72763152D02*
X112653571Y-72763152D01*
X112415476Y-72429819D02*
X112415476Y-73286961D01*
X112415476Y-73286961D02*
X112463095Y-73382200D01*
X112463095Y-73382200D02*
X112558333Y-73429819D01*
X112558333Y-73429819D02*
X112653571Y-73429819D01*
X77358333Y-71234580D02*
X77310714Y-71282200D01*
X77310714Y-71282200D02*
X77167857Y-71329819D01*
X77167857Y-71329819D02*
X77072619Y-71329819D01*
X77072619Y-71329819D02*
X76929762Y-71282200D01*
X76929762Y-71282200D02*
X76834524Y-71186961D01*
X76834524Y-71186961D02*
X76786905Y-71091723D01*
X76786905Y-71091723D02*
X76739286Y-70901247D01*
X76739286Y-70901247D02*
X76739286Y-70758390D01*
X76739286Y-70758390D02*
X76786905Y-70567914D01*
X76786905Y-70567914D02*
X76834524Y-70472676D01*
X76834524Y-70472676D02*
X76929762Y-70377438D01*
X76929762Y-70377438D02*
X77072619Y-70329819D01*
X77072619Y-70329819D02*
X77167857Y-70329819D01*
X77167857Y-70329819D02*
X77310714Y-70377438D01*
X77310714Y-70377438D02*
X77358333Y-70425057D01*
X77739286Y-70425057D02*
X77786905Y-70377438D01*
X77786905Y-70377438D02*
X77882143Y-70329819D01*
X77882143Y-70329819D02*
X78120238Y-70329819D01*
X78120238Y-70329819D02*
X78215476Y-70377438D01*
X78215476Y-70377438D02*
X78263095Y-70425057D01*
X78263095Y-70425057D02*
X78310714Y-70520295D01*
X78310714Y-70520295D02*
X78310714Y-70615533D01*
X78310714Y-70615533D02*
X78263095Y-70758390D01*
X78263095Y-70758390D02*
X77691667Y-71329819D01*
X77691667Y-71329819D02*
X78310714Y-71329819D01*
D12*
X64284240Y-88818333D02*
X64325193Y-88859285D01*
X64325193Y-88859285D02*
X64366145Y-88982143D01*
X64366145Y-88982143D02*
X64366145Y-89064047D01*
X64366145Y-89064047D02*
X64325193Y-89186904D01*
X64325193Y-89186904D02*
X64243288Y-89268809D01*
X64243288Y-89268809D02*
X64161383Y-89309762D01*
X64161383Y-89309762D02*
X63997573Y-89350714D01*
X63997573Y-89350714D02*
X63874716Y-89350714D01*
X63874716Y-89350714D02*
X63710907Y-89309762D01*
X63710907Y-89309762D02*
X63629002Y-89268809D01*
X63629002Y-89268809D02*
X63547097Y-89186904D01*
X63547097Y-89186904D02*
X63506145Y-89064047D01*
X63506145Y-89064047D02*
X63506145Y-88982143D01*
X63506145Y-88982143D02*
X63547097Y-88859285D01*
X63547097Y-88859285D02*
X63588050Y-88818333D01*
X64366145Y-87999285D02*
X64366145Y-88490714D01*
X64366145Y-88245000D02*
X63506145Y-88245000D01*
X63506145Y-88245000D02*
X63629002Y-88326904D01*
X63629002Y-88326904D02*
X63710907Y-88408809D01*
X63710907Y-88408809D02*
X63751859Y-88490714D01*
D10*
X104670476Y-115514819D02*
X104670476Y-114514819D01*
X104670476Y-114514819D02*
X105051428Y-114514819D01*
X105051428Y-114514819D02*
X105146666Y-114562438D01*
X105146666Y-114562438D02*
X105194285Y-114610057D01*
X105194285Y-114610057D02*
X105241904Y-114705295D01*
X105241904Y-114705295D02*
X105241904Y-114848152D01*
X105241904Y-114848152D02*
X105194285Y-114943390D01*
X105194285Y-114943390D02*
X105146666Y-114991009D01*
X105146666Y-114991009D02*
X105051428Y-115038628D01*
X105051428Y-115038628D02*
X104670476Y-115038628D01*
X105860952Y-114514819D02*
X106051428Y-114514819D01*
X106051428Y-114514819D02*
X106146666Y-114562438D01*
X106146666Y-114562438D02*
X106241904Y-114657676D01*
X106241904Y-114657676D02*
X106289523Y-114848152D01*
X106289523Y-114848152D02*
X106289523Y-115181485D01*
X106289523Y-115181485D02*
X106241904Y-115371961D01*
X106241904Y-115371961D02*
X106146666Y-115467200D01*
X106146666Y-115467200D02*
X106051428Y-115514819D01*
X106051428Y-115514819D02*
X105860952Y-115514819D01*
X105860952Y-115514819D02*
X105765714Y-115467200D01*
X105765714Y-115467200D02*
X105670476Y-115371961D01*
X105670476Y-115371961D02*
X105622857Y-115181485D01*
X105622857Y-115181485D02*
X105622857Y-114848152D01*
X105622857Y-114848152D02*
X105670476Y-114657676D01*
X105670476Y-114657676D02*
X105765714Y-114562438D01*
X105765714Y-114562438D02*
X105860952Y-114514819D01*
X106622857Y-114514819D02*
X106860952Y-115514819D01*
X106860952Y-115514819D02*
X107051428Y-114800533D01*
X107051428Y-114800533D02*
X107241904Y-115514819D01*
X107241904Y-115514819D02*
X107480000Y-114514819D01*
X107860952Y-114991009D02*
X108194285Y-114991009D01*
X108337142Y-115514819D02*
X107860952Y-115514819D01*
X107860952Y-115514819D02*
X107860952Y-114514819D01*
X107860952Y-114514819D02*
X108337142Y-114514819D01*
X109337142Y-115514819D02*
X109003809Y-115038628D01*
X108765714Y-115514819D02*
X108765714Y-114514819D01*
X108765714Y-114514819D02*
X109146666Y-114514819D01*
X109146666Y-114514819D02*
X109241904Y-114562438D01*
X109241904Y-114562438D02*
X109289523Y-114610057D01*
X109289523Y-114610057D02*
X109337142Y-114705295D01*
X109337142Y-114705295D02*
X109337142Y-114848152D01*
X109337142Y-114848152D02*
X109289523Y-114943390D01*
X109289523Y-114943390D02*
X109241904Y-114991009D01*
X109241904Y-114991009D02*
X109146666Y-115038628D01*
X109146666Y-115038628D02*
X108765714Y-115038628D01*
D11*
X112287143Y-106827469D02*
X112047143Y-106484612D01*
X111875714Y-106827469D02*
X111875714Y-106107469D01*
X111875714Y-106107469D02*
X112150000Y-106107469D01*
X112150000Y-106107469D02*
X112218571Y-106141755D01*
X112218571Y-106141755D02*
X112252857Y-106176041D01*
X112252857Y-106176041D02*
X112287143Y-106244612D01*
X112287143Y-106244612D02*
X112287143Y-106347469D01*
X112287143Y-106347469D02*
X112252857Y-106416041D01*
X112252857Y-106416041D02*
X112218571Y-106450326D01*
X112218571Y-106450326D02*
X112150000Y-106484612D01*
X112150000Y-106484612D02*
X111875714Y-106484612D01*
X112972857Y-106827469D02*
X112561428Y-106827469D01*
X112767143Y-106827469D02*
X112767143Y-106107469D01*
X112767143Y-106107469D02*
X112698571Y-106210326D01*
X112698571Y-106210326D02*
X112630000Y-106278898D01*
X112630000Y-106278898D02*
X112561428Y-106313184D01*
X113315714Y-106827469D02*
X113452857Y-106827469D01*
X113452857Y-106827469D02*
X113521428Y-106793184D01*
X113521428Y-106793184D02*
X113555714Y-106758898D01*
X113555714Y-106758898D02*
X113624285Y-106656041D01*
X113624285Y-106656041D02*
X113658571Y-106518898D01*
X113658571Y-106518898D02*
X113658571Y-106244612D01*
X113658571Y-106244612D02*
X113624285Y-106176041D01*
X113624285Y-106176041D02*
X113590000Y-106141755D01*
X113590000Y-106141755D02*
X113521428Y-106107469D01*
X113521428Y-106107469D02*
X113384285Y-106107469D01*
X113384285Y-106107469D02*
X113315714Y-106141755D01*
X113315714Y-106141755D02*
X113281428Y-106176041D01*
X113281428Y-106176041D02*
X113247142Y-106244612D01*
X113247142Y-106244612D02*
X113247142Y-106416041D01*
X113247142Y-106416041D02*
X113281428Y-106484612D01*
X113281428Y-106484612D02*
X113315714Y-106518898D01*
X113315714Y-106518898D02*
X113384285Y-106553184D01*
X113384285Y-106553184D02*
X113521428Y-106553184D01*
X113521428Y-106553184D02*
X113590000Y-106518898D01*
X113590000Y-106518898D02*
X113624285Y-106484612D01*
X113624285Y-106484612D02*
X113658571Y-106416041D01*
X111562143Y-99227469D02*
X111322143Y-98884612D01*
X111150714Y-99227469D02*
X111150714Y-98507469D01*
X111150714Y-98507469D02*
X111425000Y-98507469D01*
X111425000Y-98507469D02*
X111493571Y-98541755D01*
X111493571Y-98541755D02*
X111527857Y-98576041D01*
X111527857Y-98576041D02*
X111562143Y-98644612D01*
X111562143Y-98644612D02*
X111562143Y-98747469D01*
X111562143Y-98747469D02*
X111527857Y-98816041D01*
X111527857Y-98816041D02*
X111493571Y-98850326D01*
X111493571Y-98850326D02*
X111425000Y-98884612D01*
X111425000Y-98884612D02*
X111150714Y-98884612D01*
X112247857Y-99227469D02*
X111836428Y-99227469D01*
X112042143Y-99227469D02*
X112042143Y-98507469D01*
X112042143Y-98507469D02*
X111973571Y-98610326D01*
X111973571Y-98610326D02*
X111905000Y-98678898D01*
X111905000Y-98678898D02*
X111836428Y-98713184D01*
X112899285Y-98507469D02*
X112556428Y-98507469D01*
X112556428Y-98507469D02*
X112522142Y-98850326D01*
X112522142Y-98850326D02*
X112556428Y-98816041D01*
X112556428Y-98816041D02*
X112625000Y-98781755D01*
X112625000Y-98781755D02*
X112796428Y-98781755D01*
X112796428Y-98781755D02*
X112865000Y-98816041D01*
X112865000Y-98816041D02*
X112899285Y-98850326D01*
X112899285Y-98850326D02*
X112933571Y-98918898D01*
X112933571Y-98918898D02*
X112933571Y-99090326D01*
X112933571Y-99090326D02*
X112899285Y-99158898D01*
X112899285Y-99158898D02*
X112865000Y-99193184D01*
X112865000Y-99193184D02*
X112796428Y-99227469D01*
X112796428Y-99227469D02*
X112625000Y-99227469D01*
X112625000Y-99227469D02*
X112556428Y-99193184D01*
X112556428Y-99193184D02*
X112522142Y-99158898D01*
D13*
%TO.C,D6*%
X82875000Y-105650000D02*
X82875000Y-104470000D01*
X81955000Y-104470000D02*
X83795000Y-104470000D01*
X83795000Y-104470000D02*
X83795000Y-101190000D01*
X81955000Y-104014000D02*
X83795000Y-104014000D01*
X81955000Y-103894000D02*
X83795000Y-103894000D01*
X81955000Y-103774000D02*
X83795000Y-103774000D01*
X81955000Y-101190000D02*
X81955000Y-104470000D01*
X83795000Y-101190000D02*
X81955000Y-101190000D01*
X82875000Y-100010000D02*
X82875000Y-101190000D01*
%TO.C,Q1*%
X112485000Y-104625000D02*
X116085000Y-104625000D01*
X114285000Y-100175001D02*
G75*
G03*
X111928601Y-101676193I0J-2599999D01*
G01*
X111960817Y-103897795D02*
G75*
G03*
X112485001Y-104624999I2324183J1122795D01*
G01*
X116641400Y-101676193D02*
G75*
G03*
X114285000Y-100175000I-2356400J-1098807D01*
G01*
X116084999Y-104624999D02*
G75*
G03*
X116609183Y-103897795I-1799999J1849999D01*
G01*
%TO.C,U2*%
X80760000Y-78940000D02*
X83430000Y-78940000D01*
X85970000Y-78940000D02*
X124200000Y-78940000D01*
X124200000Y-78940000D02*
X124200000Y-60900000D01*
X83430000Y-76270000D02*
X83430000Y-78940000D01*
X85970000Y-76270000D02*
X85970000Y-78940000D01*
X85970000Y-76270000D02*
X83430000Y-76270000D01*
X85970000Y-76270000D02*
X121530000Y-76270000D01*
X121530000Y-76270000D02*
X121530000Y-78940000D01*
D14*
X116450000Y-73730000D02*
X116450000Y-66110000D01*
X126610000Y-73730000D02*
X116450000Y-73730000D01*
X116450000Y-66110000D02*
X126610000Y-66110000D01*
X126610000Y-66110000D02*
X126610000Y-73730000D01*
D13*
X83430000Y-63570000D02*
X121530000Y-63570000D01*
X83430000Y-63570000D02*
X83430000Y-60900000D01*
X121530000Y-63570000D02*
X121530000Y-60900000D01*
X80760000Y-60900000D02*
X80760000Y-78940000D01*
X124200000Y-60900000D02*
X80760000Y-60900000D01*
%TO.C,D7*%
X84975000Y-105650000D02*
X84975000Y-104470000D01*
X84055000Y-104470000D02*
X85895000Y-104470000D01*
X85895000Y-104470000D02*
X85895000Y-101190000D01*
X84055000Y-104014000D02*
X85895000Y-104014000D01*
X84055000Y-103894000D02*
X85895000Y-103894000D01*
X84055000Y-103774000D02*
X85895000Y-103774000D01*
X84055000Y-101190000D02*
X84055000Y-104470000D01*
X85895000Y-101190000D02*
X84055000Y-101190000D01*
X84975000Y-100010000D02*
X84975000Y-101190000D01*
%TO.C,U1*%
X65535000Y-97555000D02*
X116575000Y-97555000D01*
X116575000Y-97555000D02*
X116575000Y-79655000D01*
X65595000Y-95065000D02*
X116515000Y-95065000D01*
X116515000Y-95065000D02*
X116515000Y-82145000D01*
X65595000Y-89605000D02*
X65595000Y-95065000D01*
X65595000Y-82145000D02*
X65595000Y-87605000D01*
X116515000Y-82145000D02*
X65595000Y-82145000D01*
X65535000Y-79655000D02*
X65535000Y-97555000D01*
X116575000Y-79655000D02*
X65535000Y-79655000D01*
X65595000Y-89605000D02*
G75*
G03*
X65595000Y-87605000I0J1000000D01*
G01*
%TO.C,R18*%
X115620000Y-108650000D02*
X114670000Y-108650000D01*
X114670000Y-109570000D02*
X114670000Y-107730000D01*
X114670000Y-107730000D02*
X110830000Y-107730000D01*
X110830000Y-109570000D02*
X114670000Y-109570000D01*
X110830000Y-107730000D02*
X110830000Y-109570000D01*
X109880000Y-108650000D02*
X110830000Y-108650000D01*
%TO.C,D9*%
X89225000Y-105650000D02*
X89225000Y-104470000D01*
X88305000Y-104470000D02*
X90145000Y-104470000D01*
X90145000Y-104470000D02*
X90145000Y-101190000D01*
X88305000Y-104014000D02*
X90145000Y-104014000D01*
X88305000Y-103894000D02*
X90145000Y-103894000D01*
X88305000Y-103774000D02*
X90145000Y-103774000D01*
X88305000Y-101190000D02*
X88305000Y-104470000D01*
X90145000Y-101190000D02*
X88305000Y-101190000D01*
X89225000Y-100010000D02*
X89225000Y-101190000D01*
%TO.C,D17*%
X116145000Y-110864000D02*
X116145000Y-111020000D01*
X116145000Y-113180000D02*
X116145000Y-113336000D01*
X119377334Y-111021392D02*
G75*
G03*
X116145001Y-110864485I-1672334J-1078608D01*
G01*
X118746129Y-111020164D02*
G75*
G03*
X116664040Y-111020001I-1041129J-1079836D01*
G01*
X116664040Y-113179999D02*
G75*
G03*
X118746129Y-113179836I1040960J1079999D01*
G01*
X116145001Y-113335515D02*
G75*
G03*
X119377334Y-113178608I1559999J1235515D01*
G01*
%TO.C,D8*%
X87100000Y-105650000D02*
X87100000Y-104470000D01*
X86180000Y-104470000D02*
X88020000Y-104470000D01*
X88020000Y-104470000D02*
X88020000Y-101190000D01*
X86180000Y-104014000D02*
X88020000Y-104014000D01*
X86180000Y-103894000D02*
X88020000Y-103894000D01*
X86180000Y-103774000D02*
X88020000Y-103774000D01*
X86180000Y-101190000D02*
X86180000Y-104470000D01*
X88020000Y-101190000D02*
X86180000Y-101190000D01*
X87100000Y-100010000D02*
X87100000Y-101190000D01*
%TO.C,R3*%
X68660000Y-103900000D02*
X67710000Y-103900000D01*
X67710000Y-104820000D02*
X67710000Y-102980000D01*
X67710000Y-102980000D02*
X63870000Y-102980000D01*
X63870000Y-104820000D02*
X67710000Y-104820000D01*
X63870000Y-102980000D02*
X63870000Y-104820000D01*
X62920000Y-103900000D02*
X63870000Y-103900000D01*
%TO.C,R4*%
X68660000Y-101750000D02*
X67710000Y-101750000D01*
X67710000Y-102670000D02*
X67710000Y-100830000D01*
X67710000Y-100830000D02*
X63870000Y-100830000D01*
X63870000Y-102670000D02*
X67710000Y-102670000D01*
X63870000Y-100830000D02*
X63870000Y-102670000D01*
X62920000Y-101750000D02*
X63870000Y-101750000D01*
%TO.C,J3*%
X117525000Y-96025000D02*
X130525000Y-96025000D01*
X117525000Y-96025000D02*
X117525000Y-79825000D01*
X130525000Y-96025000D02*
X130525000Y-79825000D01*
X117525000Y-79825000D02*
X130525000Y-79825000D01*
%TO.C,R17*%
X103005000Y-103275000D02*
X103955000Y-103275000D01*
X103955000Y-102355000D02*
X103955000Y-104195000D01*
X103955000Y-104195000D02*
X107795000Y-104195000D01*
X107795000Y-102355000D02*
X103955000Y-102355000D01*
X107795000Y-104195000D02*
X107795000Y-102355000D01*
X108745000Y-103275000D02*
X107795000Y-103275000D01*
%TO.C,D14*%
X99800000Y-105650000D02*
X99800000Y-104470000D01*
X98880000Y-104470000D02*
X100720000Y-104470000D01*
X100720000Y-104470000D02*
X100720000Y-101190000D01*
X98880000Y-104014000D02*
X100720000Y-104014000D01*
X98880000Y-103894000D02*
X100720000Y-103894000D01*
X98880000Y-103774000D02*
X100720000Y-103774000D01*
X98880000Y-101190000D02*
X98880000Y-104470000D01*
X100720000Y-101190000D02*
X98880000Y-101190000D01*
X99800000Y-100010000D02*
X99800000Y-101190000D01*
%TO.C,D3*%
X76525000Y-105650000D02*
X76525000Y-104470000D01*
X75605000Y-104470000D02*
X77445000Y-104470000D01*
X77445000Y-104470000D02*
X77445000Y-101190000D01*
X75605000Y-104014000D02*
X77445000Y-104014000D01*
X75605000Y-103894000D02*
X77445000Y-103894000D01*
X75605000Y-103774000D02*
X77445000Y-103774000D01*
X75605000Y-101190000D02*
X75605000Y-104470000D01*
X77445000Y-101190000D02*
X75605000Y-101190000D01*
X76525000Y-100010000D02*
X76525000Y-101190000D01*
%TO.C,D5*%
X80750000Y-105650000D02*
X80750000Y-104470000D01*
X79830000Y-104470000D02*
X81670000Y-104470000D01*
X81670000Y-104470000D02*
X81670000Y-101190000D01*
X79830000Y-104014000D02*
X81670000Y-104014000D01*
X79830000Y-103894000D02*
X81670000Y-103894000D01*
X79830000Y-103774000D02*
X81670000Y-103774000D01*
X79830000Y-101190000D02*
X79830000Y-104470000D01*
X81670000Y-101190000D02*
X79830000Y-101190000D01*
X80750000Y-100010000D02*
X80750000Y-101190000D01*
%TO.C,D16*%
X110835000Y-110864000D02*
X110835000Y-111020000D01*
X110835000Y-113180000D02*
X110835000Y-113336000D01*
X114067334Y-111021392D02*
G75*
G03*
X110835001Y-110864485I-1672334J-1078608D01*
G01*
X113436129Y-111020164D02*
G75*
G03*
X111354040Y-111020001I-1041129J-1079836D01*
G01*
X111354040Y-113179999D02*
G75*
G03*
X113436129Y-113179836I1040960J1079999D01*
G01*
X110835001Y-113335515D02*
G75*
G03*
X114067334Y-113178608I1559999J1235515D01*
G01*
%TO.C,D12*%
X95600000Y-105650000D02*
X95600000Y-104470000D01*
X94680000Y-104470000D02*
X96520000Y-104470000D01*
X96520000Y-104470000D02*
X96520000Y-101190000D01*
X94680000Y-104014000D02*
X96520000Y-104014000D01*
X94680000Y-103894000D02*
X96520000Y-103894000D01*
X94680000Y-103774000D02*
X96520000Y-103774000D01*
X94680000Y-101190000D02*
X94680000Y-104470000D01*
X96520000Y-101190000D02*
X94680000Y-101190000D01*
X95600000Y-100010000D02*
X95600000Y-101190000D01*
%TO.C,CP1*%
X47425000Y-114980000D02*
X47425000Y-113650000D01*
X48755000Y-114980000D02*
X47425000Y-114980000D01*
X50025000Y-114980000D02*
X103425000Y-114980000D01*
X50025000Y-114980000D02*
X50025000Y-112320000D01*
X103425000Y-114980000D02*
X103425000Y-112320000D01*
X50025000Y-112320000D02*
X103425000Y-112320000D01*
%TO.C,R16*%
X108745000Y-101100000D02*
X107795000Y-101100000D01*
X107795000Y-102020000D02*
X107795000Y-100180000D01*
X107795000Y-100180000D02*
X103955000Y-100180000D01*
X103955000Y-102020000D02*
X107795000Y-102020000D01*
X103955000Y-100180000D02*
X103955000Y-102020000D01*
X103005000Y-101100000D02*
X103955000Y-101100000D01*
%TO.C,R5*%
X68660000Y-99600000D02*
X67710000Y-99600000D01*
X67710000Y-100520000D02*
X67710000Y-98680000D01*
X67710000Y-98680000D02*
X63870000Y-98680000D01*
X63870000Y-100520000D02*
X67710000Y-100520000D01*
X63870000Y-98680000D02*
X63870000Y-100520000D01*
X62920000Y-99600000D02*
X63870000Y-99600000D01*
%TO.C,R2*%
X68660000Y-106050000D02*
X67710000Y-106050000D01*
X67710000Y-106970000D02*
X67710000Y-105130000D01*
X67710000Y-105130000D02*
X63870000Y-105130000D01*
X63870000Y-106970000D02*
X67710000Y-106970000D01*
X63870000Y-105130000D02*
X63870000Y-106970000D01*
X62920000Y-106050000D02*
X63870000Y-106050000D01*
%TO.C,D4*%
X78650000Y-105650000D02*
X78650000Y-104470000D01*
X77730000Y-104470000D02*
X79570000Y-104470000D01*
X79570000Y-104470000D02*
X79570000Y-101190000D01*
X77730000Y-104014000D02*
X79570000Y-104014000D01*
X77730000Y-103894000D02*
X79570000Y-103894000D01*
X77730000Y-103774000D02*
X79570000Y-103774000D01*
X77730000Y-101190000D02*
X77730000Y-104470000D01*
X79570000Y-101190000D02*
X77730000Y-101190000D01*
X78650000Y-100010000D02*
X78650000Y-101190000D01*
%TO.C,U7*%
X95161000Y-73690000D02*
X113001000Y-73690000D01*
X113001000Y-73690000D02*
X113001000Y-60770000D01*
X99031000Y-72310000D02*
X99031000Y-62150000D01*
X111985000Y-72310000D02*
X99031000Y-72310000D01*
X95161000Y-69770000D02*
X95161000Y-73690000D01*
X98269000Y-69770000D02*
X95161000Y-69770000D01*
X95161000Y-64690000D02*
X98269000Y-64690000D01*
X98269000Y-64690000D02*
X98269000Y-69770000D01*
X99031000Y-62150000D02*
X111985000Y-62150000D01*
X111985000Y-62150000D02*
X111985000Y-72310000D01*
X95161000Y-60770000D02*
X95161000Y-64690000D01*
X113001000Y-60770000D02*
X95161000Y-60770000D01*
%TO.C,D13*%
X97700000Y-105650000D02*
X97700000Y-104470000D01*
X96780000Y-104470000D02*
X98620000Y-104470000D01*
X98620000Y-104470000D02*
X98620000Y-101190000D01*
X96780000Y-104014000D02*
X98620000Y-104014000D01*
X96780000Y-103894000D02*
X98620000Y-103894000D01*
X96780000Y-103774000D02*
X98620000Y-103774000D01*
X96780000Y-101190000D02*
X96780000Y-104470000D01*
X98620000Y-101190000D02*
X96780000Y-101190000D01*
X97700000Y-100010000D02*
X97700000Y-101190000D01*
%TO.C,C2*%
X74720225Y-73150000D02*
X75220225Y-73150000D01*
X74970225Y-72900000D02*
X74970225Y-73400000D01*
X77525000Y-72045000D02*
X77525000Y-73585000D01*
X77525000Y-75665000D02*
X77525000Y-77205000D01*
X77565000Y-72045000D02*
X77565000Y-73585000D01*
X77565000Y-75665000D02*
X77565000Y-77205000D01*
X77605000Y-72046000D02*
X77605000Y-73585000D01*
X77605000Y-75665000D02*
X77605000Y-77204000D01*
X77645000Y-72047000D02*
X77645000Y-73585000D01*
X77645000Y-75665000D02*
X77645000Y-77203000D01*
X77685000Y-72049000D02*
X77685000Y-73585000D01*
X77685000Y-75665000D02*
X77685000Y-77201000D01*
X77725000Y-72052000D02*
X77725000Y-73585000D01*
X77725000Y-75665000D02*
X77725000Y-77198000D01*
X77765000Y-72056000D02*
X77765000Y-73585000D01*
X77765000Y-75665000D02*
X77765000Y-77194000D01*
X77805000Y-72060000D02*
X77805000Y-73585000D01*
X77805000Y-75665000D02*
X77805000Y-77190000D01*
X77845000Y-72064000D02*
X77845000Y-73585000D01*
X77845000Y-75665000D02*
X77845000Y-77186000D01*
X77885000Y-72069000D02*
X77885000Y-73585000D01*
X77885000Y-75665000D02*
X77885000Y-77181000D01*
X77925000Y-72075000D02*
X77925000Y-73585000D01*
X77925000Y-75665000D02*
X77925000Y-77175000D01*
X77965000Y-72082000D02*
X77965000Y-73585000D01*
X77965000Y-75665000D02*
X77965000Y-77168000D01*
X78005000Y-72089000D02*
X78005000Y-73585000D01*
X78005000Y-75665000D02*
X78005000Y-77161000D01*
X78045000Y-72097000D02*
X78045000Y-73585000D01*
X78045000Y-75665000D02*
X78045000Y-77153000D01*
X78085000Y-72105000D02*
X78085000Y-73585000D01*
X78085000Y-75665000D02*
X78085000Y-77145000D01*
X78125000Y-72114000D02*
X78125000Y-73585000D01*
X78125000Y-75665000D02*
X78125000Y-77136000D01*
X78165000Y-72124000D02*
X78165000Y-73585000D01*
X78165000Y-75665000D02*
X78165000Y-77126000D01*
X78205000Y-72134000D02*
X78205000Y-73585000D01*
X78205000Y-75665000D02*
X78205000Y-77116000D01*
X78246000Y-72145000D02*
X78246000Y-73585000D01*
X78246000Y-75665000D02*
X78246000Y-77105000D01*
X78286000Y-72157000D02*
X78286000Y-73585000D01*
X78286000Y-75665000D02*
X78286000Y-77093000D01*
X78326000Y-72170000D02*
X78326000Y-73585000D01*
X78326000Y-75665000D02*
X78326000Y-77080000D01*
X78366000Y-72183000D02*
X78366000Y-73585000D01*
X78366000Y-75665000D02*
X78366000Y-77067000D01*
X78406000Y-72197000D02*
X78406000Y-73585000D01*
X78406000Y-75665000D02*
X78406000Y-77053000D01*
X78446000Y-72211000D02*
X78446000Y-73585000D01*
X78446000Y-75665000D02*
X78446000Y-77039000D01*
X78486000Y-72227000D02*
X78486000Y-73585000D01*
X78486000Y-75665000D02*
X78486000Y-77023000D01*
X78526000Y-72243000D02*
X78526000Y-73585000D01*
X78526000Y-75665000D02*
X78526000Y-77007000D01*
X78566000Y-72260000D02*
X78566000Y-73585000D01*
X78566000Y-75665000D02*
X78566000Y-76990000D01*
X78606000Y-72277000D02*
X78606000Y-73585000D01*
X78606000Y-75665000D02*
X78606000Y-76973000D01*
X78646000Y-72296000D02*
X78646000Y-73585000D01*
X78646000Y-75665000D02*
X78646000Y-76954000D01*
X78686000Y-72315000D02*
X78686000Y-73585000D01*
X78686000Y-75665000D02*
X78686000Y-76935000D01*
X78726000Y-72335000D02*
X78726000Y-73585000D01*
X78726000Y-75665000D02*
X78726000Y-76915000D01*
X78766000Y-72357000D02*
X78766000Y-73585000D01*
X78766000Y-75665000D02*
X78766000Y-76893000D01*
X78806000Y-72378000D02*
X78806000Y-73585000D01*
X78806000Y-75665000D02*
X78806000Y-76872000D01*
X78846000Y-72401000D02*
X78846000Y-73585000D01*
X78846000Y-75665000D02*
X78846000Y-76849000D01*
X78886000Y-72425000D02*
X78886000Y-73585000D01*
X78886000Y-75665000D02*
X78886000Y-76825000D01*
X78926000Y-72450000D02*
X78926000Y-73585000D01*
X78926000Y-75665000D02*
X78926000Y-76800000D01*
X78966000Y-72476000D02*
X78966000Y-73585000D01*
X78966000Y-75665000D02*
X78966000Y-76774000D01*
X79006000Y-72503000D02*
X79006000Y-73585000D01*
X79006000Y-75665000D02*
X79006000Y-76747000D01*
X79046000Y-72530000D02*
X79046000Y-73585000D01*
X79046000Y-75665000D02*
X79046000Y-76720000D01*
X79086000Y-72560000D02*
X79086000Y-73585000D01*
X79086000Y-75665000D02*
X79086000Y-76690000D01*
X79126000Y-72590000D02*
X79126000Y-73585000D01*
X79126000Y-75665000D02*
X79126000Y-76660000D01*
X79166000Y-72621000D02*
X79166000Y-73585000D01*
X79166000Y-75665000D02*
X79166000Y-76629000D01*
X79206000Y-72654000D02*
X79206000Y-73585000D01*
X79206000Y-75665000D02*
X79206000Y-76596000D01*
X79246000Y-72688000D02*
X79246000Y-73585000D01*
X79246000Y-75665000D02*
X79246000Y-76562000D01*
X79286000Y-72724000D02*
X79286000Y-73585000D01*
X79286000Y-75665000D02*
X79286000Y-76526000D01*
X79326000Y-72761000D02*
X79326000Y-73585000D01*
X79326000Y-75665000D02*
X79326000Y-76489000D01*
X79366000Y-72799000D02*
X79366000Y-73585000D01*
X79366000Y-75665000D02*
X79366000Y-76451000D01*
X79406000Y-72840000D02*
X79406000Y-73585000D01*
X79406000Y-75665000D02*
X79406000Y-76410000D01*
X79446000Y-72882000D02*
X79446000Y-73585000D01*
X79446000Y-75665000D02*
X79446000Y-76368000D01*
X79486000Y-72926000D02*
X79486000Y-73585000D01*
X79486000Y-75665000D02*
X79486000Y-76324000D01*
X79526000Y-72972000D02*
X79526000Y-73585000D01*
X79526000Y-75665000D02*
X79526000Y-76278000D01*
X79566000Y-73020000D02*
X79566000Y-76230000D01*
X79606000Y-73071000D02*
X79606000Y-76179000D01*
X79646000Y-73125000D02*
X79646000Y-76125000D01*
X79686000Y-73182000D02*
X79686000Y-76068000D01*
X79726000Y-73242000D02*
X79726000Y-76008000D01*
X79766000Y-73306000D02*
X79766000Y-75944000D01*
X79806000Y-73374000D02*
X79806000Y-75876000D01*
X79846000Y-73447000D02*
X79846000Y-75803000D01*
X79886000Y-73527000D02*
X79886000Y-75723000D01*
X79926000Y-73614000D02*
X79926000Y-75636000D01*
X79966000Y-73710000D02*
X79966000Y-75540000D01*
X80006000Y-73820000D02*
X80006000Y-75430000D01*
X80046000Y-73948000D02*
X80046000Y-75302000D01*
X80086000Y-74107000D02*
X80086000Y-75143000D01*
X80126000Y-74341000D02*
X80126000Y-74909000D01*
X80145000Y-74625000D02*
G75*
G03*
X74905000Y-74625000I-2620000J0D01*
G01*
X74905000Y-74625000D02*
G75*
G03*
X80145000Y-74625000I2620000J0D01*
G01*
%TO.C,C1*%
X62905000Y-90945000D02*
X62920000Y-90945000D01*
X62905000Y-90945000D02*
X62905000Y-86405000D01*
X65030000Y-90945000D02*
X65045000Y-90945000D01*
X65045000Y-90945000D02*
X65045000Y-86405000D01*
X62905000Y-86405000D02*
X62920000Y-86405000D01*
X65030000Y-86405000D02*
X65045000Y-86405000D01*
%TO.C,D10*%
X91350000Y-105650000D02*
X91350000Y-104470000D01*
X90430000Y-104470000D02*
X92270000Y-104470000D01*
X92270000Y-104470000D02*
X92270000Y-101190000D01*
X90430000Y-104014000D02*
X92270000Y-104014000D01*
X90430000Y-103894000D02*
X92270000Y-103894000D01*
X90430000Y-103774000D02*
X92270000Y-103774000D01*
X90430000Y-101190000D02*
X90430000Y-104470000D01*
X92270000Y-101190000D02*
X90430000Y-101190000D01*
X91350000Y-100010000D02*
X91350000Y-101190000D01*
%TO.C,CP2*%
X47425000Y-110880000D02*
X47425000Y-109550000D01*
X48755000Y-110880000D02*
X47425000Y-110880000D01*
X50025000Y-110880000D02*
X103425000Y-110880000D01*
X50025000Y-110880000D02*
X50025000Y-108220000D01*
X103425000Y-110880000D02*
X103425000Y-108220000D01*
X50025000Y-108220000D02*
X103425000Y-108220000D01*
%TO.C,D15*%
X105420000Y-110864000D02*
X105420000Y-111020000D01*
X105420000Y-113180000D02*
X105420000Y-113336000D01*
X108652334Y-111021392D02*
G75*
G03*
X105420001Y-110864485I-1672334J-1078608D01*
G01*
X108021129Y-111020164D02*
G75*
G03*
X105939040Y-111020001I-1041129J-1079836D01*
G01*
X105939040Y-113179999D02*
G75*
G03*
X108021129Y-113179836I1040960J1079999D01*
G01*
X105420001Y-113335515D02*
G75*
G03*
X108652334Y-113178608I1559999J1235515D01*
G01*
%TO.C,D11*%
X93475000Y-105650000D02*
X93475000Y-104470000D01*
X92555000Y-104470000D02*
X94395000Y-104470000D01*
X94395000Y-104470000D02*
X94395000Y-101190000D01*
X92555000Y-104014000D02*
X94395000Y-104014000D01*
X92555000Y-103894000D02*
X94395000Y-103894000D01*
X92555000Y-103774000D02*
X94395000Y-103774000D01*
X92555000Y-101190000D02*
X92555000Y-104470000D01*
X94395000Y-101190000D02*
X92555000Y-101190000D01*
X93475000Y-100010000D02*
X93475000Y-101190000D01*
%TO.C,R19*%
X115620000Y-106500000D02*
X114670000Y-106500000D01*
X114670000Y-107420000D02*
X114670000Y-105580000D01*
X114670000Y-105580000D02*
X110830000Y-105580000D01*
X110830000Y-107420000D02*
X114670000Y-107420000D01*
X110830000Y-105580000D02*
X110830000Y-107420000D01*
X109880000Y-106500000D02*
X110830000Y-106500000D01*
%TO.C,R15*%
X109155000Y-98900000D02*
X110105000Y-98900000D01*
X110105000Y-97980000D02*
X110105000Y-99820000D01*
X110105000Y-99820000D02*
X113945000Y-99820000D01*
X113945000Y-97980000D02*
X110105000Y-97980000D01*
X113945000Y-99820000D02*
X113945000Y-97980000D01*
X114895000Y-98900000D02*
X113945000Y-98900000D01*
%TO.C,D2*%
X74400000Y-105650000D02*
X74400000Y-104470000D01*
X73480000Y-104470000D02*
X75320000Y-104470000D01*
X75320000Y-104470000D02*
X75320000Y-101190000D01*
X73480000Y-104014000D02*
X75320000Y-104014000D01*
X73480000Y-103894000D02*
X75320000Y-103894000D01*
X73480000Y-103774000D02*
X75320000Y-103774000D01*
X73480000Y-101190000D02*
X73480000Y-104470000D01*
X75320000Y-101190000D02*
X73480000Y-101190000D01*
X74400000Y-100010000D02*
X74400000Y-101190000D01*
%TO.C,D1*%
X72275000Y-105650000D02*
X72275000Y-104470000D01*
X71355000Y-104470000D02*
X73195000Y-104470000D01*
X73195000Y-104470000D02*
X73195000Y-101190000D01*
X71355000Y-104014000D02*
X73195000Y-104014000D01*
X71355000Y-103894000D02*
X73195000Y-103894000D01*
X71355000Y-103774000D02*
X73195000Y-103774000D01*
X71355000Y-101190000D02*
X71355000Y-104470000D01*
X73195000Y-101190000D02*
X71355000Y-101190000D01*
X72275000Y-100010000D02*
X72275000Y-101190000D01*
%TD*%
M02*
