M48
; DRILL file {KiCad 7.0.11} date Thu Jun 27 03:27:32 2024
; FORMAT={-:-/ absolute / inch / decimal}
; #@! TF.CreationDate,2024-06-27T03:27:32+01:00
; #@! TF.GenerationSoftware,Kicad,Pcbnew,7.0.11
; #@! TF.FileFunction,Plated,1,2,PTH
FMAT,2
INCH
; #@! TA.AperFunction,Plated,PTH,ViaDrill
T1C0.0157
; #@! TA.AperFunction,Plated,PTH,ComponentDrill
T2C0.0276
; #@! TA.AperFunction,Plated,PTH,ComponentDrill
T3C0.0295
; #@! TA.AperFunction,Plated,PTH,ComponentDrill
T4C0.0315
; #@! TA.AperFunction,Plated,PTH,ComponentDrill
T5C0.0354
; #@! TA.AperFunction,Plated,PTH,ComponentDrill
T6C0.0394
%
G90
G05
T1
X2.1744Y-4.3842
X2.4028Y-4.4101
X2.5045Y-4.1846
X4.3635Y-2.6479
X4.4605Y-2.7994
X4.4664Y-3.6568
T2
X2.4402Y-3.9213
X2.4402Y-4.0059
X2.4402Y-4.0906
X2.4402Y-4.1752
X2.7402Y-3.9213
X2.7402Y-4.0059
X2.7402Y-4.0906
X2.7402Y-4.1752
X4.0183Y-3.9803
X4.0183Y-4.0659
X4.2604Y-3.8937
X4.289Y-4.1929
X4.289Y-4.2776
X4.3183Y-3.9803
X4.3183Y-4.0659
X4.5604Y-3.8937
X4.589Y-4.1929
X4.589Y-4.2776
T3
X2.8455Y-3.8984
X2.8455Y-4.1984
X2.9291Y-3.8984
X2.9291Y-4.1984
X3.0128Y-3.8984
X3.0128Y-4.1984
X3.0965Y-3.8984
X3.0965Y-4.1984
X3.1791Y-3.8984
X3.1791Y-4.1984
X3.2628Y-3.8984
X3.2628Y-4.1984
X3.3455Y-3.8984
X3.3455Y-4.1984
X3.4291Y-3.8984
X3.4291Y-4.1984
X3.5128Y-3.8984
X3.5128Y-4.1984
X3.5965Y-3.8984
X3.5965Y-4.1984
X3.6801Y-3.8984
X3.6801Y-4.1984
X3.7638Y-3.8984
X3.7638Y-4.1984
X3.8465Y-3.8984
X3.8465Y-4.1984
X3.9291Y-3.8984
X3.9291Y-4.1984
T4
X2.5187Y-3.3927
X2.5187Y-3.5896
X2.6348Y-3.1884
X2.6348Y-3.7884
X2.7348Y-3.1884
X2.7348Y-3.7884
X2.8348Y-3.1884
X2.8348Y-3.7884
X2.9348Y-3.1884
X2.9348Y-3.7884
X3.0128Y-2.938
X3.0348Y-3.1884
X3.0348Y-3.7884
X3.0915Y-2.938
X3.1348Y-3.1884
X3.1348Y-3.7884
X3.2348Y-3.1884
X3.2348Y-3.7884
X3.3348Y-3.1884
X3.3348Y-3.7884
X3.4348Y-3.1884
X3.4348Y-3.7884
X3.5348Y-3.1884
X3.5348Y-3.7884
X3.6348Y-3.1884
X3.6348Y-3.7884
X3.7348Y-3.1884
X3.7348Y-3.7884
X3.7989Y-2.3469
X3.7989Y-2.9469
X3.8348Y-3.1884
X3.8348Y-3.7884
X3.8989Y-2.3469
X3.8989Y-2.9469
X3.9348Y-3.1884
X3.9348Y-3.7884
X3.9989Y-2.3469
X3.9989Y-2.9469
X4.0348Y-3.1884
X4.0348Y-3.7884
X4.0989Y-2.3469
X4.0989Y-2.9469
X4.1348Y-3.1884
X4.1348Y-3.7884
X4.1989Y-2.3469
X4.1989Y-2.9469
X4.2348Y-3.1884
X4.2348Y-3.7884
X4.2989Y-2.3469
X4.2989Y-2.9469
X4.3348Y-3.1884
X4.3348Y-3.7884
X4.3989Y-2.3469
X4.3989Y-2.9469
X4.3994Y-4.0463
X4.4348Y-3.1884
X4.4348Y-3.7884
X4.4994Y-4.0463
X4.5348Y-3.1884
X4.5348Y-3.7884
X4.5994Y-4.0463
X4.69Y-3.3278
X4.69Y-3.5955
X4.8002Y-3.3278
X4.8002Y-3.4104
X4.8002Y-3.5128
X4.8002Y-3.5955
T5
X4.1618Y-4.4134
X4.2618Y-4.4134
X4.375Y-4.4134
X4.475Y-4.4134
X4.5841Y-4.4134
X4.6841Y-4.4134
T6
X1.9195Y-4.313
X1.9195Y-4.4744
X2.0195Y-4.313
X2.0195Y-4.4744
X2.1195Y-4.313
X2.1195Y-4.4744
X2.2195Y-4.313
X2.2195Y-4.4744
X2.3195Y-4.313
X2.3195Y-4.4744
X2.4195Y-4.313
X2.4195Y-4.4744
X2.5195Y-4.313
X2.5195Y-4.4744
X2.6195Y-4.313
X2.6195Y-4.4744
X2.7195Y-4.313
X2.7195Y-4.4744
X2.8195Y-4.313
X2.8195Y-4.4744
X2.9195Y-4.313
X2.9195Y-4.4744
X3.0195Y-4.313
X3.0195Y-4.4744
X3.1195Y-4.313
X3.1195Y-4.4744
X3.2195Y-4.313
X3.2195Y-4.4744
X3.3195Y-4.313
X3.3195Y-4.4744
X3.3346Y-2.4528
X3.3346Y-3.0528
X3.4195Y-4.313
X3.4195Y-4.4744
X3.4346Y-2.4528
X3.4346Y-3.0528
X3.5195Y-4.313
X3.5195Y-4.4744
X3.5346Y-2.4528
X3.5346Y-3.0528
X3.6195Y-4.313
X3.6195Y-4.4744
X3.6346Y-2.4528
X3.6346Y-3.0528
X3.7195Y-4.313
X3.7195Y-4.4744
X3.7346Y-2.4528
X3.7346Y-3.0528
X3.8195Y-4.313
X3.8195Y-4.4744
X3.8346Y-2.4528
X3.8346Y-3.0528
X3.9195Y-4.313
X3.9195Y-4.4744
X3.9346Y-2.4528
X3.9346Y-3.0528
X4.0195Y-4.313
X4.0195Y-4.4744
X4.0346Y-2.4528
X4.0346Y-3.0528
X4.1346Y-2.4528
X4.1346Y-3.0528
X4.2346Y-2.4528
X4.2346Y-3.0528
X4.3346Y-2.4528
X4.3346Y-3.0528
X4.4346Y-2.4528
X4.4346Y-3.0528
X4.5346Y-2.4528
X4.5346Y-3.0528
X4.6346Y-2.4528
X4.6346Y-3.0528
X4.7346Y-2.4528
X4.7346Y-3.0528
T6
G00X4.8829Y-3.1919
M15
G01X4.9419Y-3.1919
M16
G05
G00X4.8829Y-3.7313
M15
G01X4.9419Y-3.7313
M16
G05
G00X4.9439Y-3.501
M15
G01X4.9439Y-3.4222
M16
G05
M30
