%TF.GenerationSoftware,KiCad,Pcbnew,8.0.1*%
%TF.CreationDate,2024-06-09T23:46:04+01:00*%
%TF.ProjectId,BBC-PS2,4242432d-5053-4322-9e6b-696361645f70,rev?*%
%TF.SameCoordinates,Original*%
%TF.FileFunction,Legend,Top*%
%TF.FilePolarity,Positive*%
%FSLAX46Y46*%
G04 Gerber Fmt 4.6, Leading zero omitted, Abs format (unit mm)*
G04 Created by KiCad (PCBNEW 8.0.1) date 2024-06-09 23:46:04*
%MOMM*%
%LPD*%
G01*
G04 APERTURE LIST*
%ADD10C,0.150000*%
%ADD11C,0.120000*%
G04 APERTURE END LIST*
D10*
X154446065Y-110120238D02*
X154493684Y-109977381D01*
X154493684Y-109977381D02*
X154541303Y-109929762D01*
X154541303Y-109929762D02*
X154636541Y-109882143D01*
X154636541Y-109882143D02*
X154779398Y-109882143D01*
X154779398Y-109882143D02*
X154874636Y-109929762D01*
X154874636Y-109929762D02*
X154922256Y-109977381D01*
X154922256Y-109977381D02*
X154969875Y-110072619D01*
X154969875Y-110072619D02*
X154969875Y-110453571D01*
X154969875Y-110453571D02*
X153969875Y-110453571D01*
X153969875Y-110453571D02*
X153969875Y-110120238D01*
X153969875Y-110120238D02*
X154017494Y-110025000D01*
X154017494Y-110025000D02*
X154065113Y-109977381D01*
X154065113Y-109977381D02*
X154160351Y-109929762D01*
X154160351Y-109929762D02*
X154255589Y-109929762D01*
X154255589Y-109929762D02*
X154350827Y-109977381D01*
X154350827Y-109977381D02*
X154398446Y-110025000D01*
X154398446Y-110025000D02*
X154446065Y-110120238D01*
X154446065Y-110120238D02*
X154446065Y-110453571D01*
X154446065Y-109120238D02*
X154493684Y-108977381D01*
X154493684Y-108977381D02*
X154541303Y-108929762D01*
X154541303Y-108929762D02*
X154636541Y-108882143D01*
X154636541Y-108882143D02*
X154779398Y-108882143D01*
X154779398Y-108882143D02*
X154874636Y-108929762D01*
X154874636Y-108929762D02*
X154922256Y-108977381D01*
X154922256Y-108977381D02*
X154969875Y-109072619D01*
X154969875Y-109072619D02*
X154969875Y-109453571D01*
X154969875Y-109453571D02*
X153969875Y-109453571D01*
X153969875Y-109453571D02*
X153969875Y-109120238D01*
X153969875Y-109120238D02*
X154017494Y-109025000D01*
X154017494Y-109025000D02*
X154065113Y-108977381D01*
X154065113Y-108977381D02*
X154160351Y-108929762D01*
X154160351Y-108929762D02*
X154255589Y-108929762D01*
X154255589Y-108929762D02*
X154350827Y-108977381D01*
X154350827Y-108977381D02*
X154398446Y-109025000D01*
X154398446Y-109025000D02*
X154446065Y-109120238D01*
X154446065Y-109120238D02*
X154446065Y-109453571D01*
X154874636Y-107882143D02*
X154922256Y-107929762D01*
X154922256Y-107929762D02*
X154969875Y-108072619D01*
X154969875Y-108072619D02*
X154969875Y-108167857D01*
X154969875Y-108167857D02*
X154922256Y-108310714D01*
X154922256Y-108310714D02*
X154827017Y-108405952D01*
X154827017Y-108405952D02*
X154731779Y-108453571D01*
X154731779Y-108453571D02*
X154541303Y-108501190D01*
X154541303Y-108501190D02*
X154398446Y-108501190D01*
X154398446Y-108501190D02*
X154207970Y-108453571D01*
X154207970Y-108453571D02*
X154112732Y-108405952D01*
X154112732Y-108405952D02*
X154017494Y-108310714D01*
X154017494Y-108310714D02*
X153969875Y-108167857D01*
X153969875Y-108167857D02*
X153969875Y-108072619D01*
X153969875Y-108072619D02*
X154017494Y-107929762D01*
X154017494Y-107929762D02*
X154065113Y-107882143D01*
X154969875Y-106691666D02*
X153969875Y-106691666D01*
X153969875Y-106691666D02*
X154684160Y-106358333D01*
X154684160Y-106358333D02*
X153969875Y-106025000D01*
X153969875Y-106025000D02*
X154969875Y-106025000D01*
X154969875Y-105405952D02*
X154922256Y-105501190D01*
X154922256Y-105501190D02*
X154874636Y-105548809D01*
X154874636Y-105548809D02*
X154779398Y-105596428D01*
X154779398Y-105596428D02*
X154493684Y-105596428D01*
X154493684Y-105596428D02*
X154398446Y-105548809D01*
X154398446Y-105548809D02*
X154350827Y-105501190D01*
X154350827Y-105501190D02*
X154303208Y-105405952D01*
X154303208Y-105405952D02*
X154303208Y-105263095D01*
X154303208Y-105263095D02*
X154350827Y-105167857D01*
X154350827Y-105167857D02*
X154398446Y-105120238D01*
X154398446Y-105120238D02*
X154493684Y-105072619D01*
X154493684Y-105072619D02*
X154779398Y-105072619D01*
X154779398Y-105072619D02*
X154874636Y-105120238D01*
X154874636Y-105120238D02*
X154922256Y-105167857D01*
X154922256Y-105167857D02*
X154969875Y-105263095D01*
X154969875Y-105263095D02*
X154969875Y-105405952D01*
X154969875Y-104215476D02*
X153969875Y-104215476D01*
X154922256Y-104215476D02*
X154969875Y-104310714D01*
X154969875Y-104310714D02*
X154969875Y-104501190D01*
X154969875Y-104501190D02*
X154922256Y-104596428D01*
X154922256Y-104596428D02*
X154874636Y-104644047D01*
X154874636Y-104644047D02*
X154779398Y-104691666D01*
X154779398Y-104691666D02*
X154493684Y-104691666D01*
X154493684Y-104691666D02*
X154398446Y-104644047D01*
X154398446Y-104644047D02*
X154350827Y-104596428D01*
X154350827Y-104596428D02*
X154303208Y-104501190D01*
X154303208Y-104501190D02*
X154303208Y-104310714D01*
X154303208Y-104310714D02*
X154350827Y-104215476D01*
X154922256Y-103358333D02*
X154969875Y-103453571D01*
X154969875Y-103453571D02*
X154969875Y-103644047D01*
X154969875Y-103644047D02*
X154922256Y-103739285D01*
X154922256Y-103739285D02*
X154827017Y-103786904D01*
X154827017Y-103786904D02*
X154446065Y-103786904D01*
X154446065Y-103786904D02*
X154350827Y-103739285D01*
X154350827Y-103739285D02*
X154303208Y-103644047D01*
X154303208Y-103644047D02*
X154303208Y-103453571D01*
X154303208Y-103453571D02*
X154350827Y-103358333D01*
X154350827Y-103358333D02*
X154446065Y-103310714D01*
X154446065Y-103310714D02*
X154541303Y-103310714D01*
X154541303Y-103310714D02*
X154636541Y-103786904D01*
X154969875Y-102739285D02*
X154922256Y-102834523D01*
X154922256Y-102834523D02*
X154827017Y-102882142D01*
X154827017Y-102882142D02*
X153969875Y-102882142D01*
X154446065Y-101263094D02*
X154493684Y-101120237D01*
X154493684Y-101120237D02*
X154541303Y-101072618D01*
X154541303Y-101072618D02*
X154636541Y-101024999D01*
X154636541Y-101024999D02*
X154779398Y-101024999D01*
X154779398Y-101024999D02*
X154874636Y-101072618D01*
X154874636Y-101072618D02*
X154922256Y-101120237D01*
X154922256Y-101120237D02*
X154969875Y-101215475D01*
X154969875Y-101215475D02*
X154969875Y-101596427D01*
X154969875Y-101596427D02*
X153969875Y-101596427D01*
X153969875Y-101596427D02*
X153969875Y-101263094D01*
X153969875Y-101263094D02*
X154017494Y-101167856D01*
X154017494Y-101167856D02*
X154065113Y-101120237D01*
X154065113Y-101120237D02*
X154160351Y-101072618D01*
X154160351Y-101072618D02*
X154255589Y-101072618D01*
X154255589Y-101072618D02*
X154350827Y-101120237D01*
X154350827Y-101120237D02*
X154398446Y-101167856D01*
X154398446Y-101167856D02*
X154446065Y-101263094D01*
X154446065Y-101263094D02*
X154446065Y-101596427D01*
X154969875Y-99834522D02*
X153969875Y-99834522D01*
X153969875Y-99834522D02*
X153969875Y-99453570D01*
X153969875Y-99453570D02*
X154017494Y-99358332D01*
X154017494Y-99358332D02*
X154065113Y-99310713D01*
X154065113Y-99310713D02*
X154160351Y-99263094D01*
X154160351Y-99263094D02*
X154303208Y-99263094D01*
X154303208Y-99263094D02*
X154398446Y-99310713D01*
X154398446Y-99310713D02*
X154446065Y-99358332D01*
X154446065Y-99358332D02*
X154493684Y-99453570D01*
X154493684Y-99453570D02*
X154493684Y-99834522D01*
X154922256Y-98882141D02*
X154969875Y-98739284D01*
X154969875Y-98739284D02*
X154969875Y-98501189D01*
X154969875Y-98501189D02*
X154922256Y-98405951D01*
X154922256Y-98405951D02*
X154874636Y-98358332D01*
X154874636Y-98358332D02*
X154779398Y-98310713D01*
X154779398Y-98310713D02*
X154684160Y-98310713D01*
X154684160Y-98310713D02*
X154588922Y-98358332D01*
X154588922Y-98358332D02*
X154541303Y-98405951D01*
X154541303Y-98405951D02*
X154493684Y-98501189D01*
X154493684Y-98501189D02*
X154446065Y-98691665D01*
X154446065Y-98691665D02*
X154398446Y-98786903D01*
X154398446Y-98786903D02*
X154350827Y-98834522D01*
X154350827Y-98834522D02*
X154255589Y-98882141D01*
X154255589Y-98882141D02*
X154160351Y-98882141D01*
X154160351Y-98882141D02*
X154065113Y-98834522D01*
X154065113Y-98834522D02*
X154017494Y-98786903D01*
X154017494Y-98786903D02*
X153969875Y-98691665D01*
X153969875Y-98691665D02*
X153969875Y-98453570D01*
X153969875Y-98453570D02*
X154017494Y-98310713D01*
X153922256Y-97167856D02*
X155207970Y-98024998D01*
X154065113Y-96882141D02*
X154017494Y-96834522D01*
X154017494Y-96834522D02*
X153969875Y-96739284D01*
X153969875Y-96739284D02*
X153969875Y-96501189D01*
X153969875Y-96501189D02*
X154017494Y-96405951D01*
X154017494Y-96405951D02*
X154065113Y-96358332D01*
X154065113Y-96358332D02*
X154160351Y-96310713D01*
X154160351Y-96310713D02*
X154255589Y-96310713D01*
X154255589Y-96310713D02*
X154398446Y-96358332D01*
X154398446Y-96358332D02*
X154969875Y-96929760D01*
X154969875Y-96929760D02*
X154969875Y-96310713D01*
X154969875Y-94310712D02*
X154969875Y-94358332D01*
X154969875Y-94358332D02*
X154922256Y-94453570D01*
X154922256Y-94453570D02*
X154779398Y-94596427D01*
X154779398Y-94596427D02*
X154493684Y-94834522D01*
X154493684Y-94834522D02*
X154350827Y-94929760D01*
X154350827Y-94929760D02*
X154207970Y-94977379D01*
X154207970Y-94977379D02*
X154112732Y-94977379D01*
X154112732Y-94977379D02*
X154017494Y-94929760D01*
X154017494Y-94929760D02*
X153969875Y-94834522D01*
X153969875Y-94834522D02*
X153969875Y-94786903D01*
X153969875Y-94786903D02*
X154017494Y-94691665D01*
X154017494Y-94691665D02*
X154112732Y-94644046D01*
X154112732Y-94644046D02*
X154160351Y-94644046D01*
X154160351Y-94644046D02*
X154255589Y-94691665D01*
X154255589Y-94691665D02*
X154303208Y-94739284D01*
X154303208Y-94739284D02*
X154493684Y-95024998D01*
X154493684Y-95024998D02*
X154541303Y-95072617D01*
X154541303Y-95072617D02*
X154636541Y-95120236D01*
X154636541Y-95120236D02*
X154779398Y-95120236D01*
X154779398Y-95120236D02*
X154874636Y-95072617D01*
X154874636Y-95072617D02*
X154922256Y-95024998D01*
X154922256Y-95024998D02*
X154969875Y-94929760D01*
X154969875Y-94929760D02*
X154969875Y-94786903D01*
X154969875Y-94786903D02*
X154922256Y-94691665D01*
X154922256Y-94691665D02*
X154874636Y-94644046D01*
X154874636Y-94644046D02*
X154684160Y-94501189D01*
X154684160Y-94501189D02*
X154541303Y-94453570D01*
X154541303Y-94453570D02*
X154446065Y-94453570D01*
X153969875Y-93120236D02*
X154779398Y-93120236D01*
X154779398Y-93120236D02*
X154874636Y-93072617D01*
X154874636Y-93072617D02*
X154922256Y-93024998D01*
X154922256Y-93024998D02*
X154969875Y-92929760D01*
X154969875Y-92929760D02*
X154969875Y-92739284D01*
X154969875Y-92739284D02*
X154922256Y-92644046D01*
X154922256Y-92644046D02*
X154874636Y-92596427D01*
X154874636Y-92596427D02*
X154779398Y-92548808D01*
X154779398Y-92548808D02*
X153969875Y-92548808D01*
X154922256Y-92120236D02*
X154969875Y-91977379D01*
X154969875Y-91977379D02*
X154969875Y-91739284D01*
X154969875Y-91739284D02*
X154922256Y-91644046D01*
X154922256Y-91644046D02*
X154874636Y-91596427D01*
X154874636Y-91596427D02*
X154779398Y-91548808D01*
X154779398Y-91548808D02*
X154684160Y-91548808D01*
X154684160Y-91548808D02*
X154588922Y-91596427D01*
X154588922Y-91596427D02*
X154541303Y-91644046D01*
X154541303Y-91644046D02*
X154493684Y-91739284D01*
X154493684Y-91739284D02*
X154446065Y-91929760D01*
X154446065Y-91929760D02*
X154398446Y-92024998D01*
X154398446Y-92024998D02*
X154350827Y-92072617D01*
X154350827Y-92072617D02*
X154255589Y-92120236D01*
X154255589Y-92120236D02*
X154160351Y-92120236D01*
X154160351Y-92120236D02*
X154065113Y-92072617D01*
X154065113Y-92072617D02*
X154017494Y-92024998D01*
X154017494Y-92024998D02*
X153969875Y-91929760D01*
X153969875Y-91929760D02*
X153969875Y-91691665D01*
X153969875Y-91691665D02*
X154017494Y-91548808D01*
X154446065Y-90786903D02*
X154493684Y-90644046D01*
X154493684Y-90644046D02*
X154541303Y-90596427D01*
X154541303Y-90596427D02*
X154636541Y-90548808D01*
X154636541Y-90548808D02*
X154779398Y-90548808D01*
X154779398Y-90548808D02*
X154874636Y-90596427D01*
X154874636Y-90596427D02*
X154922256Y-90644046D01*
X154922256Y-90644046D02*
X154969875Y-90739284D01*
X154969875Y-90739284D02*
X154969875Y-91120236D01*
X154969875Y-91120236D02*
X153969875Y-91120236D01*
X153969875Y-91120236D02*
X153969875Y-90786903D01*
X153969875Y-90786903D02*
X154017494Y-90691665D01*
X154017494Y-90691665D02*
X154065113Y-90644046D01*
X154065113Y-90644046D02*
X154160351Y-90596427D01*
X154160351Y-90596427D02*
X154255589Y-90596427D01*
X154255589Y-90596427D02*
X154350827Y-90644046D01*
X154350827Y-90644046D02*
X154398446Y-90691665D01*
X154398446Y-90691665D02*
X154446065Y-90786903D01*
X154446065Y-90786903D02*
X154446065Y-91120236D01*
X156579819Y-107644048D02*
X155579819Y-107644048D01*
X156579819Y-107072620D02*
X156008390Y-107501191D01*
X155579819Y-107072620D02*
X156151247Y-107644048D01*
X156532200Y-106263096D02*
X156579819Y-106358334D01*
X156579819Y-106358334D02*
X156579819Y-106548810D01*
X156579819Y-106548810D02*
X156532200Y-106644048D01*
X156532200Y-106644048D02*
X156436961Y-106691667D01*
X156436961Y-106691667D02*
X156056009Y-106691667D01*
X156056009Y-106691667D02*
X155960771Y-106644048D01*
X155960771Y-106644048D02*
X155913152Y-106548810D01*
X155913152Y-106548810D02*
X155913152Y-106358334D01*
X155913152Y-106358334D02*
X155960771Y-106263096D01*
X155960771Y-106263096D02*
X156056009Y-106215477D01*
X156056009Y-106215477D02*
X156151247Y-106215477D01*
X156151247Y-106215477D02*
X156246485Y-106691667D01*
X155913152Y-105882143D02*
X156579819Y-105644048D01*
X155913152Y-105405953D02*
X156579819Y-105644048D01*
X156579819Y-105644048D02*
X156817914Y-105739286D01*
X156817914Y-105739286D02*
X156865533Y-105786905D01*
X156865533Y-105786905D02*
X156913152Y-105882143D01*
X156579819Y-105025000D02*
X155579819Y-105025000D01*
X155960771Y-105025000D02*
X155913152Y-104929762D01*
X155913152Y-104929762D02*
X155913152Y-104739286D01*
X155913152Y-104739286D02*
X155960771Y-104644048D01*
X155960771Y-104644048D02*
X156008390Y-104596429D01*
X156008390Y-104596429D02*
X156103628Y-104548810D01*
X156103628Y-104548810D02*
X156389342Y-104548810D01*
X156389342Y-104548810D02*
X156484580Y-104596429D01*
X156484580Y-104596429D02*
X156532200Y-104644048D01*
X156532200Y-104644048D02*
X156579819Y-104739286D01*
X156579819Y-104739286D02*
X156579819Y-104929762D01*
X156579819Y-104929762D02*
X156532200Y-105025000D01*
X156579819Y-103977381D02*
X156532200Y-104072619D01*
X156532200Y-104072619D02*
X156484580Y-104120238D01*
X156484580Y-104120238D02*
X156389342Y-104167857D01*
X156389342Y-104167857D02*
X156103628Y-104167857D01*
X156103628Y-104167857D02*
X156008390Y-104120238D01*
X156008390Y-104120238D02*
X155960771Y-104072619D01*
X155960771Y-104072619D02*
X155913152Y-103977381D01*
X155913152Y-103977381D02*
X155913152Y-103834524D01*
X155913152Y-103834524D02*
X155960771Y-103739286D01*
X155960771Y-103739286D02*
X156008390Y-103691667D01*
X156008390Y-103691667D02*
X156103628Y-103644048D01*
X156103628Y-103644048D02*
X156389342Y-103644048D01*
X156389342Y-103644048D02*
X156484580Y-103691667D01*
X156484580Y-103691667D02*
X156532200Y-103739286D01*
X156532200Y-103739286D02*
X156579819Y-103834524D01*
X156579819Y-103834524D02*
X156579819Y-103977381D01*
X156579819Y-102786905D02*
X156056009Y-102786905D01*
X156056009Y-102786905D02*
X155960771Y-102834524D01*
X155960771Y-102834524D02*
X155913152Y-102929762D01*
X155913152Y-102929762D02*
X155913152Y-103120238D01*
X155913152Y-103120238D02*
X155960771Y-103215476D01*
X156532200Y-102786905D02*
X156579819Y-102882143D01*
X156579819Y-102882143D02*
X156579819Y-103120238D01*
X156579819Y-103120238D02*
X156532200Y-103215476D01*
X156532200Y-103215476D02*
X156436961Y-103263095D01*
X156436961Y-103263095D02*
X156341723Y-103263095D01*
X156341723Y-103263095D02*
X156246485Y-103215476D01*
X156246485Y-103215476D02*
X156198866Y-103120238D01*
X156198866Y-103120238D02*
X156198866Y-102882143D01*
X156198866Y-102882143D02*
X156151247Y-102786905D01*
X156579819Y-102310714D02*
X155913152Y-102310714D01*
X156103628Y-102310714D02*
X156008390Y-102263095D01*
X156008390Y-102263095D02*
X155960771Y-102215476D01*
X155960771Y-102215476D02*
X155913152Y-102120238D01*
X155913152Y-102120238D02*
X155913152Y-102025000D01*
X156579819Y-101263095D02*
X155579819Y-101263095D01*
X156532200Y-101263095D02*
X156579819Y-101358333D01*
X156579819Y-101358333D02*
X156579819Y-101548809D01*
X156579819Y-101548809D02*
X156532200Y-101644047D01*
X156532200Y-101644047D02*
X156484580Y-101691666D01*
X156484580Y-101691666D02*
X156389342Y-101739285D01*
X156389342Y-101739285D02*
X156103628Y-101739285D01*
X156103628Y-101739285D02*
X156008390Y-101691666D01*
X156008390Y-101691666D02*
X155960771Y-101644047D01*
X155960771Y-101644047D02*
X155913152Y-101548809D01*
X155913152Y-101548809D02*
X155913152Y-101358333D01*
X155913152Y-101358333D02*
X155960771Y-101263095D01*
X156579819Y-100024999D02*
X155579819Y-100024999D01*
X155579819Y-100024999D02*
X155579819Y-99644047D01*
X155579819Y-99644047D02*
X155627438Y-99548809D01*
X155627438Y-99548809D02*
X155675057Y-99501190D01*
X155675057Y-99501190D02*
X155770295Y-99453571D01*
X155770295Y-99453571D02*
X155913152Y-99453571D01*
X155913152Y-99453571D02*
X156008390Y-99501190D01*
X156008390Y-99501190D02*
X156056009Y-99548809D01*
X156056009Y-99548809D02*
X156103628Y-99644047D01*
X156103628Y-99644047D02*
X156103628Y-100024999D01*
X156579819Y-99024999D02*
X155913152Y-99024999D01*
X156103628Y-99024999D02*
X156008390Y-98977380D01*
X156008390Y-98977380D02*
X155960771Y-98929761D01*
X155960771Y-98929761D02*
X155913152Y-98834523D01*
X155913152Y-98834523D02*
X155913152Y-98739285D01*
X156579819Y-98263094D02*
X156532200Y-98358332D01*
X156532200Y-98358332D02*
X156484580Y-98405951D01*
X156484580Y-98405951D02*
X156389342Y-98453570D01*
X156389342Y-98453570D02*
X156103628Y-98453570D01*
X156103628Y-98453570D02*
X156008390Y-98405951D01*
X156008390Y-98405951D02*
X155960771Y-98358332D01*
X155960771Y-98358332D02*
X155913152Y-98263094D01*
X155913152Y-98263094D02*
X155913152Y-98120237D01*
X155913152Y-98120237D02*
X155960771Y-98024999D01*
X155960771Y-98024999D02*
X156008390Y-97977380D01*
X156008390Y-97977380D02*
X156103628Y-97929761D01*
X156103628Y-97929761D02*
X156389342Y-97929761D01*
X156389342Y-97929761D02*
X156484580Y-97977380D01*
X156484580Y-97977380D02*
X156532200Y-98024999D01*
X156532200Y-98024999D02*
X156579819Y-98120237D01*
X156579819Y-98120237D02*
X156579819Y-98263094D01*
X155913152Y-97644046D02*
X155913152Y-97263094D01*
X155579819Y-97501189D02*
X156436961Y-97501189D01*
X156436961Y-97501189D02*
X156532200Y-97453570D01*
X156532200Y-97453570D02*
X156579819Y-97358332D01*
X156579819Y-97358332D02*
X156579819Y-97263094D01*
X156579819Y-96786903D02*
X156532200Y-96882141D01*
X156532200Y-96882141D02*
X156484580Y-96929760D01*
X156484580Y-96929760D02*
X156389342Y-96977379D01*
X156389342Y-96977379D02*
X156103628Y-96977379D01*
X156103628Y-96977379D02*
X156008390Y-96929760D01*
X156008390Y-96929760D02*
X155960771Y-96882141D01*
X155960771Y-96882141D02*
X155913152Y-96786903D01*
X155913152Y-96786903D02*
X155913152Y-96644046D01*
X155913152Y-96644046D02*
X155960771Y-96548808D01*
X155960771Y-96548808D02*
X156008390Y-96501189D01*
X156008390Y-96501189D02*
X156103628Y-96453570D01*
X156103628Y-96453570D02*
X156389342Y-96453570D01*
X156389342Y-96453570D02*
X156484580Y-96501189D01*
X156484580Y-96501189D02*
X156532200Y-96548808D01*
X156532200Y-96548808D02*
X156579819Y-96644046D01*
X156579819Y-96644046D02*
X156579819Y-96786903D01*
X155913152Y-96167855D02*
X155913152Y-95786903D01*
X155579819Y-96024998D02*
X156436961Y-96024998D01*
X156436961Y-96024998D02*
X156532200Y-95977379D01*
X156532200Y-95977379D02*
X156579819Y-95882141D01*
X156579819Y-95882141D02*
X156579819Y-95786903D01*
X155913152Y-95548807D02*
X156579819Y-95310712D01*
X155913152Y-95072617D02*
X156579819Y-95310712D01*
X156579819Y-95310712D02*
X156817914Y-95405950D01*
X156817914Y-95405950D02*
X156865533Y-95453569D01*
X156865533Y-95453569D02*
X156913152Y-95548807D01*
X155913152Y-94691664D02*
X156913152Y-94691664D01*
X155960771Y-94691664D02*
X155913152Y-94596426D01*
X155913152Y-94596426D02*
X155913152Y-94405950D01*
X155913152Y-94405950D02*
X155960771Y-94310712D01*
X155960771Y-94310712D02*
X156008390Y-94263093D01*
X156008390Y-94263093D02*
X156103628Y-94215474D01*
X156103628Y-94215474D02*
X156389342Y-94215474D01*
X156389342Y-94215474D02*
X156484580Y-94263093D01*
X156484580Y-94263093D02*
X156532200Y-94310712D01*
X156532200Y-94310712D02*
X156579819Y-94405950D01*
X156579819Y-94405950D02*
X156579819Y-94596426D01*
X156579819Y-94596426D02*
X156532200Y-94691664D01*
X156532200Y-93405950D02*
X156579819Y-93501188D01*
X156579819Y-93501188D02*
X156579819Y-93691664D01*
X156579819Y-93691664D02*
X156532200Y-93786902D01*
X156532200Y-93786902D02*
X156436961Y-93834521D01*
X156436961Y-93834521D02*
X156056009Y-93834521D01*
X156056009Y-93834521D02*
X155960771Y-93786902D01*
X155960771Y-93786902D02*
X155913152Y-93691664D01*
X155913152Y-93691664D02*
X155913152Y-93501188D01*
X155913152Y-93501188D02*
X155960771Y-93405950D01*
X155960771Y-93405950D02*
X156056009Y-93358331D01*
X156056009Y-93358331D02*
X156151247Y-93358331D01*
X156151247Y-93358331D02*
X156246485Y-93834521D01*
X157523096Y-111167857D02*
X158189763Y-110929762D01*
X158189763Y-110929762D02*
X157523096Y-110691667D01*
X158189763Y-109786905D02*
X158189763Y-110358333D01*
X158189763Y-110072619D02*
X157189763Y-110072619D01*
X157189763Y-110072619D02*
X157332620Y-110167857D01*
X157332620Y-110167857D02*
X157427858Y-110263095D01*
X157427858Y-110263095D02*
X157475477Y-110358333D01*
X158094524Y-109358333D02*
X158142144Y-109310714D01*
X158142144Y-109310714D02*
X158189763Y-109358333D01*
X158189763Y-109358333D02*
X158142144Y-109405952D01*
X158142144Y-109405952D02*
X158094524Y-109358333D01*
X158094524Y-109358333D02*
X158189763Y-109358333D01*
X158189763Y-108358334D02*
X158189763Y-108929762D01*
X158189763Y-108644048D02*
X157189763Y-108644048D01*
X157189763Y-108644048D02*
X157332620Y-108739286D01*
X157332620Y-108739286D02*
X157427858Y-108834524D01*
X157427858Y-108834524D02*
X157475477Y-108929762D01*
X157189763Y-106977381D02*
X157189763Y-106882143D01*
X157189763Y-106882143D02*
X157237382Y-106786905D01*
X157237382Y-106786905D02*
X157285001Y-106739286D01*
X157285001Y-106739286D02*
X157380239Y-106691667D01*
X157380239Y-106691667D02*
X157570715Y-106644048D01*
X157570715Y-106644048D02*
X157808810Y-106644048D01*
X157808810Y-106644048D02*
X157999286Y-106691667D01*
X157999286Y-106691667D02*
X158094524Y-106739286D01*
X158094524Y-106739286D02*
X158142144Y-106786905D01*
X158142144Y-106786905D02*
X158189763Y-106882143D01*
X158189763Y-106882143D02*
X158189763Y-106977381D01*
X158189763Y-106977381D02*
X158142144Y-107072619D01*
X158142144Y-107072619D02*
X158094524Y-107120238D01*
X158094524Y-107120238D02*
X157999286Y-107167857D01*
X157999286Y-107167857D02*
X157808810Y-107215476D01*
X157808810Y-107215476D02*
X157570715Y-107215476D01*
X157570715Y-107215476D02*
X157380239Y-107167857D01*
X157380239Y-107167857D02*
X157285001Y-107120238D01*
X157285001Y-107120238D02*
X157237382Y-107072619D01*
X157237382Y-107072619D02*
X157189763Y-106977381D01*
X157189763Y-105786905D02*
X157189763Y-105977381D01*
X157189763Y-105977381D02*
X157237382Y-106072619D01*
X157237382Y-106072619D02*
X157285001Y-106120238D01*
X157285001Y-106120238D02*
X157427858Y-106215476D01*
X157427858Y-106215476D02*
X157618334Y-106263095D01*
X157618334Y-106263095D02*
X157999286Y-106263095D01*
X157999286Y-106263095D02*
X158094524Y-106215476D01*
X158094524Y-106215476D02*
X158142144Y-106167857D01*
X158142144Y-106167857D02*
X158189763Y-106072619D01*
X158189763Y-106072619D02*
X158189763Y-105882143D01*
X158189763Y-105882143D02*
X158142144Y-105786905D01*
X158142144Y-105786905D02*
X158094524Y-105739286D01*
X158094524Y-105739286D02*
X157999286Y-105691667D01*
X157999286Y-105691667D02*
X157761191Y-105691667D01*
X157761191Y-105691667D02*
X157665953Y-105739286D01*
X157665953Y-105739286D02*
X157618334Y-105786905D01*
X157618334Y-105786905D02*
X157570715Y-105882143D01*
X157570715Y-105882143D02*
X157570715Y-106072619D01*
X157570715Y-106072619D02*
X157618334Y-106167857D01*
X157618334Y-106167857D02*
X157665953Y-106215476D01*
X157665953Y-106215476D02*
X157761191Y-106263095D01*
X157142144Y-104548810D02*
X158427858Y-105405952D01*
X157285001Y-104263095D02*
X157237382Y-104215476D01*
X157237382Y-104215476D02*
X157189763Y-104120238D01*
X157189763Y-104120238D02*
X157189763Y-103882143D01*
X157189763Y-103882143D02*
X157237382Y-103786905D01*
X157237382Y-103786905D02*
X157285001Y-103739286D01*
X157285001Y-103739286D02*
X157380239Y-103691667D01*
X157380239Y-103691667D02*
X157475477Y-103691667D01*
X157475477Y-103691667D02*
X157618334Y-103739286D01*
X157618334Y-103739286D02*
X158189763Y-104310714D01*
X158189763Y-104310714D02*
X158189763Y-103691667D01*
X157189763Y-103072619D02*
X157189763Y-102977381D01*
X157189763Y-102977381D02*
X157237382Y-102882143D01*
X157237382Y-102882143D02*
X157285001Y-102834524D01*
X157285001Y-102834524D02*
X157380239Y-102786905D01*
X157380239Y-102786905D02*
X157570715Y-102739286D01*
X157570715Y-102739286D02*
X157808810Y-102739286D01*
X157808810Y-102739286D02*
X157999286Y-102786905D01*
X157999286Y-102786905D02*
X158094524Y-102834524D01*
X158094524Y-102834524D02*
X158142144Y-102882143D01*
X158142144Y-102882143D02*
X158189763Y-102977381D01*
X158189763Y-102977381D02*
X158189763Y-103072619D01*
X158189763Y-103072619D02*
X158142144Y-103167857D01*
X158142144Y-103167857D02*
X158094524Y-103215476D01*
X158094524Y-103215476D02*
X157999286Y-103263095D01*
X157999286Y-103263095D02*
X157808810Y-103310714D01*
X157808810Y-103310714D02*
X157570715Y-103310714D01*
X157570715Y-103310714D02*
X157380239Y-103263095D01*
X157380239Y-103263095D02*
X157285001Y-103215476D01*
X157285001Y-103215476D02*
X157237382Y-103167857D01*
X157237382Y-103167857D02*
X157189763Y-103072619D01*
X157285001Y-102358333D02*
X157237382Y-102310714D01*
X157237382Y-102310714D02*
X157189763Y-102215476D01*
X157189763Y-102215476D02*
X157189763Y-101977381D01*
X157189763Y-101977381D02*
X157237382Y-101882143D01*
X157237382Y-101882143D02*
X157285001Y-101834524D01*
X157285001Y-101834524D02*
X157380239Y-101786905D01*
X157380239Y-101786905D02*
X157475477Y-101786905D01*
X157475477Y-101786905D02*
X157618334Y-101834524D01*
X157618334Y-101834524D02*
X158189763Y-102405952D01*
X158189763Y-102405952D02*
X158189763Y-101786905D01*
X157523096Y-100929762D02*
X158189763Y-100929762D01*
X157142144Y-101167857D02*
X157856429Y-101405952D01*
X157856429Y-101405952D02*
X157856429Y-100786905D01*
X157713572Y-99025000D02*
X157665953Y-99072619D01*
X157665953Y-99072619D02*
X157618334Y-99167857D01*
X157618334Y-99167857D02*
X157618334Y-99263095D01*
X157618334Y-99263095D02*
X157665953Y-99358333D01*
X157665953Y-99358333D02*
X157713572Y-99405952D01*
X157713572Y-99405952D02*
X157808810Y-99453571D01*
X157808810Y-99453571D02*
X157904048Y-99453571D01*
X157904048Y-99453571D02*
X157999286Y-99405952D01*
X157999286Y-99405952D02*
X158046905Y-99358333D01*
X158046905Y-99358333D02*
X158094524Y-99263095D01*
X158094524Y-99263095D02*
X158094524Y-99167857D01*
X158094524Y-99167857D02*
X158046905Y-99072619D01*
X158046905Y-99072619D02*
X157999286Y-99025000D01*
X157618334Y-99025000D02*
X157999286Y-99025000D01*
X157999286Y-99025000D02*
X158046905Y-98977381D01*
X158046905Y-98977381D02*
X158046905Y-98929762D01*
X158046905Y-98929762D02*
X157999286Y-98834523D01*
X157999286Y-98834523D02*
X157904048Y-98786904D01*
X157904048Y-98786904D02*
X157665953Y-98786904D01*
X157665953Y-98786904D02*
X157523096Y-98882143D01*
X157523096Y-98882143D02*
X157427858Y-99025000D01*
X157427858Y-99025000D02*
X157380239Y-99215476D01*
X157380239Y-99215476D02*
X157427858Y-99405952D01*
X157427858Y-99405952D02*
X157523096Y-99548809D01*
X157523096Y-99548809D02*
X157665953Y-99644047D01*
X157665953Y-99644047D02*
X157856429Y-99691666D01*
X157856429Y-99691666D02*
X158046905Y-99644047D01*
X158046905Y-99644047D02*
X158189763Y-99548809D01*
X158189763Y-99548809D02*
X158285001Y-99405952D01*
X158285001Y-99405952D02*
X158332620Y-99215476D01*
X158332620Y-99215476D02*
X158285001Y-99025000D01*
X158285001Y-99025000D02*
X158189763Y-98882143D01*
X157523096Y-97929762D02*
X158332620Y-97929762D01*
X158332620Y-97929762D02*
X158427858Y-97977381D01*
X158427858Y-97977381D02*
X158475477Y-98025000D01*
X158475477Y-98025000D02*
X158523096Y-98120238D01*
X158523096Y-98120238D02*
X158523096Y-98263095D01*
X158523096Y-98263095D02*
X158475477Y-98358333D01*
X158142144Y-97929762D02*
X158189763Y-98025000D01*
X158189763Y-98025000D02*
X158189763Y-98215476D01*
X158189763Y-98215476D02*
X158142144Y-98310714D01*
X158142144Y-98310714D02*
X158094524Y-98358333D01*
X158094524Y-98358333D02*
X157999286Y-98405952D01*
X157999286Y-98405952D02*
X157713572Y-98405952D01*
X157713572Y-98405952D02*
X157618334Y-98358333D01*
X157618334Y-98358333D02*
X157570715Y-98310714D01*
X157570715Y-98310714D02*
X157523096Y-98215476D01*
X157523096Y-98215476D02*
X157523096Y-98025000D01*
X157523096Y-98025000D02*
X157570715Y-97929762D01*
X158189763Y-97453571D02*
X157523096Y-97453571D01*
X157713572Y-97453571D02*
X157618334Y-97405952D01*
X157618334Y-97405952D02*
X157570715Y-97358333D01*
X157570715Y-97358333D02*
X157523096Y-97263095D01*
X157523096Y-97263095D02*
X157523096Y-97167857D01*
X158189763Y-96405952D02*
X157665953Y-96405952D01*
X157665953Y-96405952D02*
X157570715Y-96453571D01*
X157570715Y-96453571D02*
X157523096Y-96548809D01*
X157523096Y-96548809D02*
X157523096Y-96739285D01*
X157523096Y-96739285D02*
X157570715Y-96834523D01*
X158142144Y-96405952D02*
X158189763Y-96501190D01*
X158189763Y-96501190D02*
X158189763Y-96739285D01*
X158189763Y-96739285D02*
X158142144Y-96834523D01*
X158142144Y-96834523D02*
X158046905Y-96882142D01*
X158046905Y-96882142D02*
X157951667Y-96882142D01*
X157951667Y-96882142D02*
X157856429Y-96834523D01*
X157856429Y-96834523D02*
X157808810Y-96739285D01*
X157808810Y-96739285D02*
X157808810Y-96501190D01*
X157808810Y-96501190D02*
X157761191Y-96405952D01*
X157523096Y-95929761D02*
X158189763Y-95929761D01*
X157618334Y-95929761D02*
X157570715Y-95882142D01*
X157570715Y-95882142D02*
X157523096Y-95786904D01*
X157523096Y-95786904D02*
X157523096Y-95644047D01*
X157523096Y-95644047D02*
X157570715Y-95548809D01*
X157570715Y-95548809D02*
X157665953Y-95501190D01*
X157665953Y-95501190D02*
X158189763Y-95501190D01*
X158189763Y-94596428D02*
X157189763Y-94596428D01*
X158142144Y-94596428D02*
X158189763Y-94691666D01*
X158189763Y-94691666D02*
X158189763Y-94882142D01*
X158189763Y-94882142D02*
X158142144Y-94977380D01*
X158142144Y-94977380D02*
X158094524Y-95024999D01*
X158094524Y-95024999D02*
X157999286Y-95072618D01*
X157999286Y-95072618D02*
X157713572Y-95072618D01*
X157713572Y-95072618D02*
X157618334Y-95024999D01*
X157618334Y-95024999D02*
X157570715Y-94977380D01*
X157570715Y-94977380D02*
X157523096Y-94882142D01*
X157523096Y-94882142D02*
X157523096Y-94691666D01*
X157523096Y-94691666D02*
X157570715Y-94596428D01*
X158189763Y-93977380D02*
X158142144Y-94072618D01*
X158142144Y-94072618D02*
X158094524Y-94120237D01*
X158094524Y-94120237D02*
X157999286Y-94167856D01*
X157999286Y-94167856D02*
X157713572Y-94167856D01*
X157713572Y-94167856D02*
X157618334Y-94120237D01*
X157618334Y-94120237D02*
X157570715Y-94072618D01*
X157570715Y-94072618D02*
X157523096Y-93977380D01*
X157523096Y-93977380D02*
X157523096Y-93834523D01*
X157523096Y-93834523D02*
X157570715Y-93739285D01*
X157570715Y-93739285D02*
X157618334Y-93691666D01*
X157618334Y-93691666D02*
X157713572Y-93644047D01*
X157713572Y-93644047D02*
X157999286Y-93644047D01*
X157999286Y-93644047D02*
X158094524Y-93691666D01*
X158094524Y-93691666D02*
X158142144Y-93739285D01*
X158142144Y-93739285D02*
X158189763Y-93834523D01*
X158189763Y-93834523D02*
X158189763Y-93977380D01*
X158189763Y-93072618D02*
X158142144Y-93167856D01*
X158142144Y-93167856D02*
X158046905Y-93215475D01*
X158046905Y-93215475D02*
X157189763Y-93215475D01*
X158189763Y-92263094D02*
X157189763Y-92263094D01*
X158142144Y-92263094D02*
X158189763Y-92358332D01*
X158189763Y-92358332D02*
X158189763Y-92548808D01*
X158189763Y-92548808D02*
X158142144Y-92644046D01*
X158142144Y-92644046D02*
X158094524Y-92691665D01*
X158094524Y-92691665D02*
X157999286Y-92739284D01*
X157999286Y-92739284D02*
X157713572Y-92739284D01*
X157713572Y-92739284D02*
X157618334Y-92691665D01*
X157618334Y-92691665D02*
X157570715Y-92644046D01*
X157570715Y-92644046D02*
X157523096Y-92548808D01*
X157523096Y-92548808D02*
X157523096Y-92358332D01*
X157523096Y-92358332D02*
X157570715Y-92263094D01*
X158189763Y-91786903D02*
X157523096Y-91786903D01*
X157189763Y-91786903D02*
X157237382Y-91834522D01*
X157237382Y-91834522D02*
X157285001Y-91786903D01*
X157285001Y-91786903D02*
X157237382Y-91739284D01*
X157237382Y-91739284D02*
X157189763Y-91786903D01*
X157189763Y-91786903D02*
X157285001Y-91786903D01*
X158189763Y-90882142D02*
X157665953Y-90882142D01*
X157665953Y-90882142D02*
X157570715Y-90929761D01*
X157570715Y-90929761D02*
X157523096Y-91024999D01*
X157523096Y-91024999D02*
X157523096Y-91215475D01*
X157523096Y-91215475D02*
X157570715Y-91310713D01*
X158142144Y-90882142D02*
X158189763Y-90977380D01*
X158189763Y-90977380D02*
X158189763Y-91215475D01*
X158189763Y-91215475D02*
X158142144Y-91310713D01*
X158142144Y-91310713D02*
X158046905Y-91358332D01*
X158046905Y-91358332D02*
X157951667Y-91358332D01*
X157951667Y-91358332D02*
X157856429Y-91310713D01*
X157856429Y-91310713D02*
X157808810Y-91215475D01*
X157808810Y-91215475D02*
X157808810Y-90977380D01*
X157808810Y-90977380D02*
X157761191Y-90882142D01*
X157523096Y-90405951D02*
X158189763Y-90405951D01*
X157618334Y-90405951D02*
X157570715Y-90358332D01*
X157570715Y-90358332D02*
X157523096Y-90263094D01*
X157523096Y-90263094D02*
X157523096Y-90120237D01*
X157523096Y-90120237D02*
X157570715Y-90024999D01*
X157570715Y-90024999D02*
X157665953Y-89977380D01*
X157665953Y-89977380D02*
X158189763Y-89977380D01*
X147294819Y-52851047D02*
X146294819Y-52851047D01*
X146294819Y-52851047D02*
X147294819Y-52279619D01*
X147294819Y-52279619D02*
X146294819Y-52279619D01*
X147009104Y-51851047D02*
X147009104Y-51374857D01*
X147294819Y-51946285D02*
X146294819Y-51612952D01*
X146294819Y-51612952D02*
X147294819Y-51279619D01*
X147294819Y-50946285D02*
X146294819Y-50946285D01*
X146294819Y-50946285D02*
X147294819Y-50374857D01*
X147294819Y-50374857D02*
X146294819Y-50374857D01*
X146294819Y-49708190D02*
X146294819Y-49517714D01*
X146294819Y-49517714D02*
X146342438Y-49422476D01*
X146342438Y-49422476D02*
X146437676Y-49327238D01*
X146437676Y-49327238D02*
X146628152Y-49279619D01*
X146628152Y-49279619D02*
X146961485Y-49279619D01*
X146961485Y-49279619D02*
X147151961Y-49327238D01*
X147151961Y-49327238D02*
X147247200Y-49422476D01*
X147247200Y-49422476D02*
X147294819Y-49517714D01*
X147294819Y-49517714D02*
X147294819Y-49708190D01*
X147294819Y-49708190D02*
X147247200Y-49803428D01*
X147247200Y-49803428D02*
X147151961Y-49898666D01*
X147151961Y-49898666D02*
X146961485Y-49946285D01*
X146961485Y-49946285D02*
X146628152Y-49946285D01*
X146628152Y-49946285D02*
X146437676Y-49898666D01*
X146437676Y-49898666D02*
X146342438Y-49803428D01*
X146342438Y-49803428D02*
X146294819Y-49708190D01*
X147247200Y-48136761D02*
X147294819Y-47993904D01*
X147294819Y-47993904D02*
X147294819Y-47755809D01*
X147294819Y-47755809D02*
X147247200Y-47660571D01*
X147247200Y-47660571D02*
X147199580Y-47612952D01*
X147199580Y-47612952D02*
X147104342Y-47565333D01*
X147104342Y-47565333D02*
X147009104Y-47565333D01*
X147009104Y-47565333D02*
X146913866Y-47612952D01*
X146913866Y-47612952D02*
X146866247Y-47660571D01*
X146866247Y-47660571D02*
X146818628Y-47755809D01*
X146818628Y-47755809D02*
X146771009Y-47946285D01*
X146771009Y-47946285D02*
X146723390Y-48041523D01*
X146723390Y-48041523D02*
X146675771Y-48089142D01*
X146675771Y-48089142D02*
X146580533Y-48136761D01*
X146580533Y-48136761D02*
X146485295Y-48136761D01*
X146485295Y-48136761D02*
X146390057Y-48089142D01*
X146390057Y-48089142D02*
X146342438Y-48041523D01*
X146342438Y-48041523D02*
X146294819Y-47946285D01*
X146294819Y-47946285D02*
X146294819Y-47708190D01*
X146294819Y-47708190D02*
X146342438Y-47565333D01*
X147294819Y-46993904D02*
X147247200Y-47089142D01*
X147247200Y-47089142D02*
X147199580Y-47136761D01*
X147199580Y-47136761D02*
X147104342Y-47184380D01*
X147104342Y-47184380D02*
X146818628Y-47184380D01*
X146818628Y-47184380D02*
X146723390Y-47136761D01*
X146723390Y-47136761D02*
X146675771Y-47089142D01*
X146675771Y-47089142D02*
X146628152Y-46993904D01*
X146628152Y-46993904D02*
X146628152Y-46851047D01*
X146628152Y-46851047D02*
X146675771Y-46755809D01*
X146675771Y-46755809D02*
X146723390Y-46708190D01*
X146723390Y-46708190D02*
X146818628Y-46660571D01*
X146818628Y-46660571D02*
X147104342Y-46660571D01*
X147104342Y-46660571D02*
X147199580Y-46708190D01*
X147199580Y-46708190D02*
X147247200Y-46755809D01*
X147247200Y-46755809D02*
X147294819Y-46851047D01*
X147294819Y-46851047D02*
X147294819Y-46993904D01*
X147247200Y-45803428D02*
X147294819Y-45898666D01*
X147294819Y-45898666D02*
X147294819Y-46089142D01*
X147294819Y-46089142D02*
X147247200Y-46184380D01*
X147247200Y-46184380D02*
X147199580Y-46231999D01*
X147199580Y-46231999D02*
X147104342Y-46279618D01*
X147104342Y-46279618D02*
X146818628Y-46279618D01*
X146818628Y-46279618D02*
X146723390Y-46231999D01*
X146723390Y-46231999D02*
X146675771Y-46184380D01*
X146675771Y-46184380D02*
X146628152Y-46089142D01*
X146628152Y-46089142D02*
X146628152Y-45898666D01*
X146628152Y-45898666D02*
X146675771Y-45803428D01*
X147294819Y-45374856D02*
X146294819Y-45374856D01*
X146913866Y-45279618D02*
X147294819Y-44993904D01*
X146628152Y-44993904D02*
X147009104Y-45374856D01*
X147247200Y-44184380D02*
X147294819Y-44279618D01*
X147294819Y-44279618D02*
X147294819Y-44470094D01*
X147294819Y-44470094D02*
X147247200Y-44565332D01*
X147247200Y-44565332D02*
X147151961Y-44612951D01*
X147151961Y-44612951D02*
X146771009Y-44612951D01*
X146771009Y-44612951D02*
X146675771Y-44565332D01*
X146675771Y-44565332D02*
X146628152Y-44470094D01*
X146628152Y-44470094D02*
X146628152Y-44279618D01*
X146628152Y-44279618D02*
X146675771Y-44184380D01*
X146675771Y-44184380D02*
X146771009Y-44136761D01*
X146771009Y-44136761D02*
X146866247Y-44136761D01*
X146866247Y-44136761D02*
X146961485Y-44612951D01*
X146628152Y-43851046D02*
X146628152Y-43470094D01*
X146294819Y-43708189D02*
X147151961Y-43708189D01*
X147151961Y-43708189D02*
X147247200Y-43660570D01*
X147247200Y-43660570D02*
X147294819Y-43565332D01*
X147294819Y-43565332D02*
X147294819Y-43470094D01*
X151685666Y-29680819D02*
X151685666Y-30395104D01*
X151685666Y-30395104D02*
X151638047Y-30537961D01*
X151638047Y-30537961D02*
X151542809Y-30633200D01*
X151542809Y-30633200D02*
X151399952Y-30680819D01*
X151399952Y-30680819D02*
X151304714Y-30680819D01*
X152114238Y-29776057D02*
X152161857Y-29728438D01*
X152161857Y-29728438D02*
X152257095Y-29680819D01*
X152257095Y-29680819D02*
X152495190Y-29680819D01*
X152495190Y-29680819D02*
X152590428Y-29728438D01*
X152590428Y-29728438D02*
X152638047Y-29776057D01*
X152638047Y-29776057D02*
X152685666Y-29871295D01*
X152685666Y-29871295D02*
X152685666Y-29966533D01*
X152685666Y-29966533D02*
X152638047Y-30109390D01*
X152638047Y-30109390D02*
X152066619Y-30680819D01*
X152066619Y-30680819D02*
X152685666Y-30680819D01*
X150280905Y-40332819D02*
X150280905Y-39332819D01*
X150280905Y-39332819D02*
X150661857Y-39332819D01*
X150661857Y-39332819D02*
X150757095Y-39380438D01*
X150757095Y-39380438D02*
X150804714Y-39428057D01*
X150804714Y-39428057D02*
X150852333Y-39523295D01*
X150852333Y-39523295D02*
X150852333Y-39666152D01*
X150852333Y-39666152D02*
X150804714Y-39761390D01*
X150804714Y-39761390D02*
X150757095Y-39809009D01*
X150757095Y-39809009D02*
X150661857Y-39856628D01*
X150661857Y-39856628D02*
X150280905Y-39856628D01*
X151233286Y-40285200D02*
X151376143Y-40332819D01*
X151376143Y-40332819D02*
X151614238Y-40332819D01*
X151614238Y-40332819D02*
X151709476Y-40285200D01*
X151709476Y-40285200D02*
X151757095Y-40237580D01*
X151757095Y-40237580D02*
X151804714Y-40142342D01*
X151804714Y-40142342D02*
X151804714Y-40047104D01*
X151804714Y-40047104D02*
X151757095Y-39951866D01*
X151757095Y-39951866D02*
X151709476Y-39904247D01*
X151709476Y-39904247D02*
X151614238Y-39856628D01*
X151614238Y-39856628D02*
X151423762Y-39809009D01*
X151423762Y-39809009D02*
X151328524Y-39761390D01*
X151328524Y-39761390D02*
X151280905Y-39713771D01*
X151280905Y-39713771D02*
X151233286Y-39618533D01*
X151233286Y-39618533D02*
X151233286Y-39523295D01*
X151233286Y-39523295D02*
X151280905Y-39428057D01*
X151280905Y-39428057D02*
X151328524Y-39380438D01*
X151328524Y-39380438D02*
X151423762Y-39332819D01*
X151423762Y-39332819D02*
X151661857Y-39332819D01*
X151661857Y-39332819D02*
X151804714Y-39380438D01*
X152947571Y-39285200D02*
X152090429Y-40570914D01*
X153233286Y-39428057D02*
X153280905Y-39380438D01*
X153280905Y-39380438D02*
X153376143Y-39332819D01*
X153376143Y-39332819D02*
X153614238Y-39332819D01*
X153614238Y-39332819D02*
X153709476Y-39380438D01*
X153709476Y-39380438D02*
X153757095Y-39428057D01*
X153757095Y-39428057D02*
X153804714Y-39523295D01*
X153804714Y-39523295D02*
X153804714Y-39618533D01*
X153804714Y-39618533D02*
X153757095Y-39761390D01*
X153757095Y-39761390D02*
X153185667Y-40332819D01*
X153185667Y-40332819D02*
X153804714Y-40332819D01*
X140388152Y-52206904D02*
X141054819Y-52206904D01*
X140007200Y-52444999D02*
X140721485Y-52683094D01*
X140721485Y-52683094D02*
X140721485Y-52064047D01*
X140054819Y-51778332D02*
X140054819Y-51111666D01*
X140054819Y-51111666D02*
X141054819Y-51540237D01*
X140054819Y-50540237D02*
X140054819Y-50444999D01*
X140054819Y-50444999D02*
X140102438Y-50349761D01*
X140102438Y-50349761D02*
X140150057Y-50302142D01*
X140150057Y-50302142D02*
X140245295Y-50254523D01*
X140245295Y-50254523D02*
X140435771Y-50206904D01*
X140435771Y-50206904D02*
X140673866Y-50206904D01*
X140673866Y-50206904D02*
X140864342Y-50254523D01*
X140864342Y-50254523D02*
X140959580Y-50302142D01*
X140959580Y-50302142D02*
X141007200Y-50349761D01*
X141007200Y-50349761D02*
X141054819Y-50444999D01*
X141054819Y-50444999D02*
X141054819Y-50540237D01*
X141054819Y-50540237D02*
X141007200Y-50635475D01*
X141007200Y-50635475D02*
X140959580Y-50683094D01*
X140959580Y-50683094D02*
X140864342Y-50730713D01*
X140864342Y-50730713D02*
X140673866Y-50778332D01*
X140673866Y-50778332D02*
X140435771Y-50778332D01*
X140435771Y-50778332D02*
X140245295Y-50730713D01*
X140245295Y-50730713D02*
X140150057Y-50683094D01*
X140150057Y-50683094D02*
X140102438Y-50635475D01*
X140102438Y-50635475D02*
X140054819Y-50540237D01*
X141054819Y-49206904D02*
X140578628Y-49540237D01*
X141054819Y-49778332D02*
X140054819Y-49778332D01*
X140054819Y-49778332D02*
X140054819Y-49397380D01*
X140054819Y-49397380D02*
X140102438Y-49302142D01*
X140102438Y-49302142D02*
X140150057Y-49254523D01*
X140150057Y-49254523D02*
X140245295Y-49206904D01*
X140245295Y-49206904D02*
X140388152Y-49206904D01*
X140388152Y-49206904D02*
X140483390Y-49254523D01*
X140483390Y-49254523D02*
X140531009Y-49302142D01*
X140531009Y-49302142D02*
X140578628Y-49397380D01*
X140578628Y-49397380D02*
X140578628Y-49778332D01*
X120118095Y-34363819D02*
X120118095Y-33363819D01*
X120118095Y-33363819D02*
X120451428Y-34078104D01*
X120451428Y-34078104D02*
X120784761Y-33363819D01*
X120784761Y-33363819D02*
X120784761Y-34363819D01*
X121451428Y-33363819D02*
X121641904Y-33363819D01*
X121641904Y-33363819D02*
X121737142Y-33411438D01*
X121737142Y-33411438D02*
X121832380Y-33506676D01*
X121832380Y-33506676D02*
X121879999Y-33697152D01*
X121879999Y-33697152D02*
X121879999Y-34030485D01*
X121879999Y-34030485D02*
X121832380Y-34220961D01*
X121832380Y-34220961D02*
X121737142Y-34316200D01*
X121737142Y-34316200D02*
X121641904Y-34363819D01*
X121641904Y-34363819D02*
X121451428Y-34363819D01*
X121451428Y-34363819D02*
X121356190Y-34316200D01*
X121356190Y-34316200D02*
X121260952Y-34220961D01*
X121260952Y-34220961D02*
X121213333Y-34030485D01*
X121213333Y-34030485D02*
X121213333Y-33697152D01*
X121213333Y-33697152D02*
X121260952Y-33506676D01*
X121260952Y-33506676D02*
X121356190Y-33411438D01*
X121356190Y-33411438D02*
X121451428Y-33363819D01*
X122165714Y-33363819D02*
X122737142Y-33363819D01*
X122451428Y-34363819D02*
X122451428Y-33363819D01*
X123260952Y-33363819D02*
X123451428Y-33363819D01*
X123451428Y-33363819D02*
X123546666Y-33411438D01*
X123546666Y-33411438D02*
X123641904Y-33506676D01*
X123641904Y-33506676D02*
X123689523Y-33697152D01*
X123689523Y-33697152D02*
X123689523Y-34030485D01*
X123689523Y-34030485D02*
X123641904Y-34220961D01*
X123641904Y-34220961D02*
X123546666Y-34316200D01*
X123546666Y-34316200D02*
X123451428Y-34363819D01*
X123451428Y-34363819D02*
X123260952Y-34363819D01*
X123260952Y-34363819D02*
X123165714Y-34316200D01*
X123165714Y-34316200D02*
X123070476Y-34220961D01*
X123070476Y-34220961D02*
X123022857Y-34030485D01*
X123022857Y-34030485D02*
X123022857Y-33697152D01*
X123022857Y-33697152D02*
X123070476Y-33506676D01*
X123070476Y-33506676D02*
X123165714Y-33411438D01*
X123165714Y-33411438D02*
X123260952Y-33363819D01*
X124689523Y-34363819D02*
X124356190Y-33887628D01*
X124118095Y-34363819D02*
X124118095Y-33363819D01*
X124118095Y-33363819D02*
X124499047Y-33363819D01*
X124499047Y-33363819D02*
X124594285Y-33411438D01*
X124594285Y-33411438D02*
X124641904Y-33459057D01*
X124641904Y-33459057D02*
X124689523Y-33554295D01*
X124689523Y-33554295D02*
X124689523Y-33697152D01*
X124689523Y-33697152D02*
X124641904Y-33792390D01*
X124641904Y-33792390D02*
X124594285Y-33840009D01*
X124594285Y-33840009D02*
X124499047Y-33887628D01*
X124499047Y-33887628D02*
X124118095Y-33887628D01*
D11*
X135159524Y-103043855D02*
X135159524Y-102243855D01*
X135159524Y-102243855D02*
X135350000Y-102243855D01*
X135350000Y-102243855D02*
X135464286Y-102281950D01*
X135464286Y-102281950D02*
X135540476Y-102358140D01*
X135540476Y-102358140D02*
X135578571Y-102434331D01*
X135578571Y-102434331D02*
X135616667Y-102586712D01*
X135616667Y-102586712D02*
X135616667Y-102700998D01*
X135616667Y-102700998D02*
X135578571Y-102853379D01*
X135578571Y-102853379D02*
X135540476Y-102929569D01*
X135540476Y-102929569D02*
X135464286Y-103005760D01*
X135464286Y-103005760D02*
X135350000Y-103043855D01*
X135350000Y-103043855D02*
X135159524Y-103043855D01*
X136302381Y-102243855D02*
X136150000Y-102243855D01*
X136150000Y-102243855D02*
X136073809Y-102281950D01*
X136073809Y-102281950D02*
X136035714Y-102320045D01*
X136035714Y-102320045D02*
X135959524Y-102434331D01*
X135959524Y-102434331D02*
X135921428Y-102586712D01*
X135921428Y-102586712D02*
X135921428Y-102891474D01*
X135921428Y-102891474D02*
X135959524Y-102967664D01*
X135959524Y-102967664D02*
X135997619Y-103005760D01*
X135997619Y-103005760D02*
X136073809Y-103043855D01*
X136073809Y-103043855D02*
X136226190Y-103043855D01*
X136226190Y-103043855D02*
X136302381Y-103005760D01*
X136302381Y-103005760D02*
X136340476Y-102967664D01*
X136340476Y-102967664D02*
X136378571Y-102891474D01*
X136378571Y-102891474D02*
X136378571Y-102700998D01*
X136378571Y-102700998D02*
X136340476Y-102624807D01*
X136340476Y-102624807D02*
X136302381Y-102586712D01*
X136302381Y-102586712D02*
X136226190Y-102548617D01*
X136226190Y-102548617D02*
X136073809Y-102548617D01*
X136073809Y-102548617D02*
X135997619Y-102586712D01*
X135997619Y-102586712D02*
X135959524Y-102624807D01*
X135959524Y-102624807D02*
X135921428Y-102700998D01*
D10*
X77588095Y-126663152D02*
X77588095Y-127329819D01*
X77350000Y-126282200D02*
X77111905Y-126996485D01*
X77111905Y-126996485D02*
X77730952Y-126996485D01*
X78016667Y-126329819D02*
X78683333Y-126329819D01*
X78683333Y-126329819D02*
X78254762Y-127329819D01*
X79254762Y-126329819D02*
X79350000Y-126329819D01*
X79350000Y-126329819D02*
X79445238Y-126377438D01*
X79445238Y-126377438D02*
X79492857Y-126425057D01*
X79492857Y-126425057D02*
X79540476Y-126520295D01*
X79540476Y-126520295D02*
X79588095Y-126710771D01*
X79588095Y-126710771D02*
X79588095Y-126948866D01*
X79588095Y-126948866D02*
X79540476Y-127139342D01*
X79540476Y-127139342D02*
X79492857Y-127234580D01*
X79492857Y-127234580D02*
X79445238Y-127282200D01*
X79445238Y-127282200D02*
X79350000Y-127329819D01*
X79350000Y-127329819D02*
X79254762Y-127329819D01*
X79254762Y-127329819D02*
X79159524Y-127282200D01*
X79159524Y-127282200D02*
X79111905Y-127234580D01*
X79111905Y-127234580D02*
X79064286Y-127139342D01*
X79064286Y-127139342D02*
X79016667Y-126948866D01*
X79016667Y-126948866D02*
X79016667Y-126710771D01*
X79016667Y-126710771D02*
X79064286Y-126520295D01*
X79064286Y-126520295D02*
X79111905Y-126425057D01*
X79111905Y-126425057D02*
X79159524Y-126377438D01*
X79159524Y-126377438D02*
X79254762Y-126329819D01*
X80588095Y-127329819D02*
X80254762Y-126853628D01*
X80016667Y-127329819D02*
X80016667Y-126329819D01*
X80016667Y-126329819D02*
X80397619Y-126329819D01*
X80397619Y-126329819D02*
X80492857Y-126377438D01*
X80492857Y-126377438D02*
X80540476Y-126425057D01*
X80540476Y-126425057D02*
X80588095Y-126520295D01*
X80588095Y-126520295D02*
X80588095Y-126663152D01*
X80588095Y-126663152D02*
X80540476Y-126758390D01*
X80540476Y-126758390D02*
X80492857Y-126806009D01*
X80492857Y-126806009D02*
X80397619Y-126853628D01*
X80397619Y-126853628D02*
X80016667Y-126853628D01*
X78635714Y-125204819D02*
X78064286Y-125204819D01*
X78350000Y-125204819D02*
X78350000Y-124204819D01*
X78350000Y-124204819D02*
X78254762Y-124347676D01*
X78254762Y-124347676D02*
X78159524Y-124442914D01*
X78159524Y-124442914D02*
X78064286Y-124490533D01*
X79064286Y-125204819D02*
X79064286Y-124204819D01*
X79635714Y-125204819D02*
X79207143Y-124633390D01*
X79635714Y-124204819D02*
X79064286Y-124776247D01*
D11*
X134778571Y-113203855D02*
X134778571Y-112403855D01*
X134778571Y-112403855D02*
X134969047Y-112403855D01*
X134969047Y-112403855D02*
X135083333Y-112441950D01*
X135083333Y-112441950D02*
X135159523Y-112518140D01*
X135159523Y-112518140D02*
X135197618Y-112594331D01*
X135197618Y-112594331D02*
X135235714Y-112746712D01*
X135235714Y-112746712D02*
X135235714Y-112860998D01*
X135235714Y-112860998D02*
X135197618Y-113013379D01*
X135197618Y-113013379D02*
X135159523Y-113089569D01*
X135159523Y-113089569D02*
X135083333Y-113165760D01*
X135083333Y-113165760D02*
X134969047Y-113203855D01*
X134969047Y-113203855D02*
X134778571Y-113203855D01*
X135997618Y-113203855D02*
X135540475Y-113203855D01*
X135769047Y-113203855D02*
X135769047Y-112403855D01*
X135769047Y-112403855D02*
X135692856Y-112518140D01*
X135692856Y-112518140D02*
X135616666Y-112594331D01*
X135616666Y-112594331D02*
X135540475Y-112632426D01*
X136492857Y-112403855D02*
X136569047Y-112403855D01*
X136569047Y-112403855D02*
X136645238Y-112441950D01*
X136645238Y-112441950D02*
X136683333Y-112480045D01*
X136683333Y-112480045D02*
X136721428Y-112556236D01*
X136721428Y-112556236D02*
X136759523Y-112708617D01*
X136759523Y-112708617D02*
X136759523Y-112899093D01*
X136759523Y-112899093D02*
X136721428Y-113051474D01*
X136721428Y-113051474D02*
X136683333Y-113127664D01*
X136683333Y-113127664D02*
X136645238Y-113165760D01*
X136645238Y-113165760D02*
X136569047Y-113203855D01*
X136569047Y-113203855D02*
X136492857Y-113203855D01*
X136492857Y-113203855D02*
X136416666Y-113165760D01*
X136416666Y-113165760D02*
X136378571Y-113127664D01*
X136378571Y-113127664D02*
X136340476Y-113051474D01*
X136340476Y-113051474D02*
X136302380Y-112899093D01*
X136302380Y-112899093D02*
X136302380Y-112708617D01*
X136302380Y-112708617D02*
X136340476Y-112556236D01*
X136340476Y-112556236D02*
X136378571Y-112480045D01*
X136378571Y-112480045D02*
X136416666Y-112441950D01*
X136416666Y-112441950D02*
X136492857Y-112403855D01*
X135159524Y-95423855D02*
X135159524Y-94623855D01*
X135159524Y-94623855D02*
X135350000Y-94623855D01*
X135350000Y-94623855D02*
X135464286Y-94661950D01*
X135464286Y-94661950D02*
X135540476Y-94738140D01*
X135540476Y-94738140D02*
X135578571Y-94814331D01*
X135578571Y-94814331D02*
X135616667Y-94966712D01*
X135616667Y-94966712D02*
X135616667Y-95080998D01*
X135616667Y-95080998D02*
X135578571Y-95233379D01*
X135578571Y-95233379D02*
X135540476Y-95309569D01*
X135540476Y-95309569D02*
X135464286Y-95385760D01*
X135464286Y-95385760D02*
X135350000Y-95423855D01*
X135350000Y-95423855D02*
X135159524Y-95423855D01*
X135883333Y-94623855D02*
X136378571Y-94623855D01*
X136378571Y-94623855D02*
X136111905Y-94928617D01*
X136111905Y-94928617D02*
X136226190Y-94928617D01*
X136226190Y-94928617D02*
X136302381Y-94966712D01*
X136302381Y-94966712D02*
X136340476Y-95004807D01*
X136340476Y-95004807D02*
X136378571Y-95080998D01*
X136378571Y-95080998D02*
X136378571Y-95271474D01*
X136378571Y-95271474D02*
X136340476Y-95347664D01*
X136340476Y-95347664D02*
X136302381Y-95385760D01*
X136302381Y-95385760D02*
X136226190Y-95423855D01*
X136226190Y-95423855D02*
X135997619Y-95423855D01*
X135997619Y-95423855D02*
X135921428Y-95385760D01*
X135921428Y-95385760D02*
X135883333Y-95347664D01*
D10*
X145720333Y-110435152D02*
X145720333Y-111101819D01*
X145482238Y-110054200D02*
X145244143Y-110768485D01*
X145244143Y-110768485D02*
X145863190Y-110768485D01*
X146148905Y-110101819D02*
X146815571Y-110101819D01*
X146815571Y-110101819D02*
X146387000Y-111101819D01*
X147196524Y-110435152D02*
X147196524Y-111101819D01*
X147196524Y-110530390D02*
X147244143Y-110482771D01*
X147244143Y-110482771D02*
X147339381Y-110435152D01*
X147339381Y-110435152D02*
X147482238Y-110435152D01*
X147482238Y-110435152D02*
X147577476Y-110482771D01*
X147577476Y-110482771D02*
X147625095Y-110578009D01*
X147625095Y-110578009D02*
X147625095Y-111101819D01*
X148434619Y-110578009D02*
X148101286Y-110578009D01*
X148101286Y-111101819D02*
X148101286Y-110101819D01*
X148101286Y-110101819D02*
X148577476Y-110101819D01*
D11*
X135159524Y-105583855D02*
X135159524Y-104783855D01*
X135159524Y-104783855D02*
X135350000Y-104783855D01*
X135350000Y-104783855D02*
X135464286Y-104821950D01*
X135464286Y-104821950D02*
X135540476Y-104898140D01*
X135540476Y-104898140D02*
X135578571Y-104974331D01*
X135578571Y-104974331D02*
X135616667Y-105126712D01*
X135616667Y-105126712D02*
X135616667Y-105240998D01*
X135616667Y-105240998D02*
X135578571Y-105393379D01*
X135578571Y-105393379D02*
X135540476Y-105469569D01*
X135540476Y-105469569D02*
X135464286Y-105545760D01*
X135464286Y-105545760D02*
X135350000Y-105583855D01*
X135350000Y-105583855D02*
X135159524Y-105583855D01*
X135883333Y-104783855D02*
X136416667Y-104783855D01*
X136416667Y-104783855D02*
X136073809Y-105583855D01*
D10*
X85141152Y-123986666D02*
X85807819Y-123986666D01*
X84760200Y-124224761D02*
X85474485Y-124462856D01*
X85474485Y-124462856D02*
X85474485Y-123843809D01*
X84807819Y-123558094D02*
X84807819Y-122891428D01*
X84807819Y-122891428D02*
X85807819Y-123319999D01*
X85141152Y-122510475D02*
X85807819Y-122510475D01*
X85236390Y-122510475D02*
X85188771Y-122462856D01*
X85188771Y-122462856D02*
X85141152Y-122367618D01*
X85141152Y-122367618D02*
X85141152Y-122224761D01*
X85141152Y-122224761D02*
X85188771Y-122129523D01*
X85188771Y-122129523D02*
X85284009Y-122081904D01*
X85284009Y-122081904D02*
X85807819Y-122081904D01*
X85284009Y-121272380D02*
X85284009Y-121605713D01*
X85807819Y-121605713D02*
X84807819Y-121605713D01*
X84807819Y-121605713D02*
X84807819Y-121129523D01*
X153693095Y-53484819D02*
X153693095Y-54294342D01*
X153693095Y-54294342D02*
X153740714Y-54389580D01*
X153740714Y-54389580D02*
X153788333Y-54437200D01*
X153788333Y-54437200D02*
X153883571Y-54484819D01*
X153883571Y-54484819D02*
X154074047Y-54484819D01*
X154074047Y-54484819D02*
X154169285Y-54437200D01*
X154169285Y-54437200D02*
X154216904Y-54389580D01*
X154216904Y-54389580D02*
X154264523Y-54294342D01*
X154264523Y-54294342D02*
X154264523Y-53484819D01*
X154645476Y-53484819D02*
X155312142Y-53484819D01*
X155312142Y-53484819D02*
X154883571Y-54484819D01*
X156708819Y-67598952D02*
X157708819Y-66932286D01*
X156708819Y-66932286D02*
X157708819Y-67598952D01*
X157423104Y-66598952D02*
X157423104Y-66122762D01*
X157708819Y-66694190D02*
X156708819Y-66360857D01*
X156708819Y-66360857D02*
X157708819Y-66027524D01*
X157708819Y-65694190D02*
X156708819Y-65694190D01*
X156708819Y-65027524D02*
X156708819Y-64837048D01*
X156708819Y-64837048D02*
X156756438Y-64741810D01*
X156756438Y-64741810D02*
X156851676Y-64646572D01*
X156851676Y-64646572D02*
X157042152Y-64598953D01*
X157042152Y-64598953D02*
X157375485Y-64598953D01*
X157375485Y-64598953D02*
X157565961Y-64646572D01*
X157565961Y-64646572D02*
X157661200Y-64741810D01*
X157661200Y-64741810D02*
X157708819Y-64837048D01*
X157708819Y-64837048D02*
X157708819Y-65027524D01*
X157708819Y-65027524D02*
X157661200Y-65122762D01*
X157661200Y-65122762D02*
X157565961Y-65218000D01*
X157565961Y-65218000D02*
X157375485Y-65265619D01*
X157375485Y-65265619D02*
X157042152Y-65265619D01*
X157042152Y-65265619D02*
X156851676Y-65218000D01*
X156851676Y-65218000D02*
X156756438Y-65122762D01*
X156756438Y-65122762D02*
X156708819Y-65027524D01*
X157661200Y-63456095D02*
X157708819Y-63313238D01*
X157708819Y-63313238D02*
X157708819Y-63075143D01*
X157708819Y-63075143D02*
X157661200Y-62979905D01*
X157661200Y-62979905D02*
X157613580Y-62932286D01*
X157613580Y-62932286D02*
X157518342Y-62884667D01*
X157518342Y-62884667D02*
X157423104Y-62884667D01*
X157423104Y-62884667D02*
X157327866Y-62932286D01*
X157327866Y-62932286D02*
X157280247Y-62979905D01*
X157280247Y-62979905D02*
X157232628Y-63075143D01*
X157232628Y-63075143D02*
X157185009Y-63265619D01*
X157185009Y-63265619D02*
X157137390Y-63360857D01*
X157137390Y-63360857D02*
X157089771Y-63408476D01*
X157089771Y-63408476D02*
X156994533Y-63456095D01*
X156994533Y-63456095D02*
X156899295Y-63456095D01*
X156899295Y-63456095D02*
X156804057Y-63408476D01*
X156804057Y-63408476D02*
X156756438Y-63360857D01*
X156756438Y-63360857D02*
X156708819Y-63265619D01*
X156708819Y-63265619D02*
X156708819Y-63027524D01*
X156708819Y-63027524D02*
X156756438Y-62884667D01*
X157708819Y-62313238D02*
X157661200Y-62408476D01*
X157661200Y-62408476D02*
X157613580Y-62456095D01*
X157613580Y-62456095D02*
X157518342Y-62503714D01*
X157518342Y-62503714D02*
X157232628Y-62503714D01*
X157232628Y-62503714D02*
X157137390Y-62456095D01*
X157137390Y-62456095D02*
X157089771Y-62408476D01*
X157089771Y-62408476D02*
X157042152Y-62313238D01*
X157042152Y-62313238D02*
X157042152Y-62170381D01*
X157042152Y-62170381D02*
X157089771Y-62075143D01*
X157089771Y-62075143D02*
X157137390Y-62027524D01*
X157137390Y-62027524D02*
X157232628Y-61979905D01*
X157232628Y-61979905D02*
X157518342Y-61979905D01*
X157518342Y-61979905D02*
X157613580Y-62027524D01*
X157613580Y-62027524D02*
X157661200Y-62075143D01*
X157661200Y-62075143D02*
X157708819Y-62170381D01*
X157708819Y-62170381D02*
X157708819Y-62313238D01*
X157661200Y-61122762D02*
X157708819Y-61218000D01*
X157708819Y-61218000D02*
X157708819Y-61408476D01*
X157708819Y-61408476D02*
X157661200Y-61503714D01*
X157661200Y-61503714D02*
X157613580Y-61551333D01*
X157613580Y-61551333D02*
X157518342Y-61598952D01*
X157518342Y-61598952D02*
X157232628Y-61598952D01*
X157232628Y-61598952D02*
X157137390Y-61551333D01*
X157137390Y-61551333D02*
X157089771Y-61503714D01*
X157089771Y-61503714D02*
X157042152Y-61408476D01*
X157042152Y-61408476D02*
X157042152Y-61218000D01*
X157042152Y-61218000D02*
X157089771Y-61122762D01*
X157708819Y-60694190D02*
X156708819Y-60694190D01*
X157327866Y-60598952D02*
X157708819Y-60313238D01*
X157042152Y-60313238D02*
X157423104Y-60694190D01*
X157661200Y-59503714D02*
X157708819Y-59598952D01*
X157708819Y-59598952D02*
X157708819Y-59789428D01*
X157708819Y-59789428D02*
X157661200Y-59884666D01*
X157661200Y-59884666D02*
X157565961Y-59932285D01*
X157565961Y-59932285D02*
X157185009Y-59932285D01*
X157185009Y-59932285D02*
X157089771Y-59884666D01*
X157089771Y-59884666D02*
X157042152Y-59789428D01*
X157042152Y-59789428D02*
X157042152Y-59598952D01*
X157042152Y-59598952D02*
X157089771Y-59503714D01*
X157089771Y-59503714D02*
X157185009Y-59456095D01*
X157185009Y-59456095D02*
X157280247Y-59456095D01*
X157280247Y-59456095D02*
X157375485Y-59932285D01*
X157042152Y-59170380D02*
X157042152Y-58789428D01*
X156708819Y-59027523D02*
X157565961Y-59027523D01*
X157565961Y-59027523D02*
X157661200Y-58979904D01*
X157661200Y-58979904D02*
X157708819Y-58884666D01*
X157708819Y-58884666D02*
X157708819Y-58789428D01*
X141054819Y-70760476D02*
X141054819Y-71331904D01*
X141054819Y-71046190D02*
X140054819Y-71046190D01*
X140054819Y-71046190D02*
X140197676Y-71141428D01*
X140197676Y-71141428D02*
X140292914Y-71236666D01*
X140292914Y-71236666D02*
X140340533Y-71331904D01*
X140054819Y-70141428D02*
X140054819Y-70046190D01*
X140054819Y-70046190D02*
X140102438Y-69950952D01*
X140102438Y-69950952D02*
X140150057Y-69903333D01*
X140150057Y-69903333D02*
X140245295Y-69855714D01*
X140245295Y-69855714D02*
X140435771Y-69808095D01*
X140435771Y-69808095D02*
X140673866Y-69808095D01*
X140673866Y-69808095D02*
X140864342Y-69855714D01*
X140864342Y-69855714D02*
X140959580Y-69903333D01*
X140959580Y-69903333D02*
X141007200Y-69950952D01*
X141007200Y-69950952D02*
X141054819Y-70046190D01*
X141054819Y-70046190D02*
X141054819Y-70141428D01*
X141054819Y-70141428D02*
X141007200Y-70236666D01*
X141007200Y-70236666D02*
X140959580Y-70284285D01*
X140959580Y-70284285D02*
X140864342Y-70331904D01*
X140864342Y-70331904D02*
X140673866Y-70379523D01*
X140673866Y-70379523D02*
X140435771Y-70379523D01*
X140435771Y-70379523D02*
X140245295Y-70331904D01*
X140245295Y-70331904D02*
X140150057Y-70284285D01*
X140150057Y-70284285D02*
X140102438Y-70236666D01*
X140102438Y-70236666D02*
X140054819Y-70141428D01*
X141054819Y-69379523D02*
X140054819Y-69379523D01*
X141054819Y-68808095D02*
X140483390Y-69236666D01*
X140054819Y-68808095D02*
X140626247Y-69379523D01*
X142948152Y-118891666D02*
X143614819Y-118891666D01*
X142567200Y-119129761D02*
X143281485Y-119367856D01*
X143281485Y-119367856D02*
X143281485Y-118748809D01*
X142614819Y-118463094D02*
X142614819Y-117796428D01*
X142614819Y-117796428D02*
X143614819Y-118224999D01*
X142948152Y-117415475D02*
X143614819Y-117415475D01*
X143043390Y-117415475D02*
X142995771Y-117367856D01*
X142995771Y-117367856D02*
X142948152Y-117272618D01*
X142948152Y-117272618D02*
X142948152Y-117129761D01*
X142948152Y-117129761D02*
X142995771Y-117034523D01*
X142995771Y-117034523D02*
X143091009Y-116986904D01*
X143091009Y-116986904D02*
X143614819Y-116986904D01*
X143091009Y-116177380D02*
X143091009Y-116510713D01*
X143614819Y-116510713D02*
X142614819Y-116510713D01*
X142614819Y-116510713D02*
X142614819Y-116034523D01*
X129613819Y-67833190D02*
X128613819Y-67833190D01*
X128613819Y-67833190D02*
X129328104Y-67499857D01*
X129328104Y-67499857D02*
X128613819Y-67166524D01*
X128613819Y-67166524D02*
X129613819Y-67166524D01*
X128613819Y-66833190D02*
X128613819Y-66261762D01*
X129613819Y-66547476D02*
X128613819Y-66547476D01*
X129042390Y-65785571D02*
X128994771Y-65880809D01*
X128994771Y-65880809D02*
X128947152Y-65928428D01*
X128947152Y-65928428D02*
X128851914Y-65976047D01*
X128851914Y-65976047D02*
X128804295Y-65976047D01*
X128804295Y-65976047D02*
X128709057Y-65928428D01*
X128709057Y-65928428D02*
X128661438Y-65880809D01*
X128661438Y-65880809D02*
X128613819Y-65785571D01*
X128613819Y-65785571D02*
X128613819Y-65595095D01*
X128613819Y-65595095D02*
X128661438Y-65499857D01*
X128661438Y-65499857D02*
X128709057Y-65452238D01*
X128709057Y-65452238D02*
X128804295Y-65404619D01*
X128804295Y-65404619D02*
X128851914Y-65404619D01*
X128851914Y-65404619D02*
X128947152Y-65452238D01*
X128947152Y-65452238D02*
X128994771Y-65499857D01*
X128994771Y-65499857D02*
X129042390Y-65595095D01*
X129042390Y-65595095D02*
X129042390Y-65785571D01*
X129042390Y-65785571D02*
X129090009Y-65880809D01*
X129090009Y-65880809D02*
X129137628Y-65928428D01*
X129137628Y-65928428D02*
X129232866Y-65976047D01*
X129232866Y-65976047D02*
X129423342Y-65976047D01*
X129423342Y-65976047D02*
X129518580Y-65928428D01*
X129518580Y-65928428D02*
X129566200Y-65880809D01*
X129566200Y-65880809D02*
X129613819Y-65785571D01*
X129613819Y-65785571D02*
X129613819Y-65595095D01*
X129613819Y-65595095D02*
X129566200Y-65499857D01*
X129566200Y-65499857D02*
X129518580Y-65452238D01*
X129518580Y-65452238D02*
X129423342Y-65404619D01*
X129423342Y-65404619D02*
X129232866Y-65404619D01*
X129232866Y-65404619D02*
X129137628Y-65452238D01*
X129137628Y-65452238D02*
X129090009Y-65499857D01*
X129090009Y-65499857D02*
X129042390Y-65595095D01*
X129042390Y-64833190D02*
X128994771Y-64928428D01*
X128994771Y-64928428D02*
X128947152Y-64976047D01*
X128947152Y-64976047D02*
X128851914Y-65023666D01*
X128851914Y-65023666D02*
X128804295Y-65023666D01*
X128804295Y-65023666D02*
X128709057Y-64976047D01*
X128709057Y-64976047D02*
X128661438Y-64928428D01*
X128661438Y-64928428D02*
X128613819Y-64833190D01*
X128613819Y-64833190D02*
X128613819Y-64642714D01*
X128613819Y-64642714D02*
X128661438Y-64547476D01*
X128661438Y-64547476D02*
X128709057Y-64499857D01*
X128709057Y-64499857D02*
X128804295Y-64452238D01*
X128804295Y-64452238D02*
X128851914Y-64452238D01*
X128851914Y-64452238D02*
X128947152Y-64499857D01*
X128947152Y-64499857D02*
X128994771Y-64547476D01*
X128994771Y-64547476D02*
X129042390Y-64642714D01*
X129042390Y-64642714D02*
X129042390Y-64833190D01*
X129042390Y-64833190D02*
X129090009Y-64928428D01*
X129090009Y-64928428D02*
X129137628Y-64976047D01*
X129137628Y-64976047D02*
X129232866Y-65023666D01*
X129232866Y-65023666D02*
X129423342Y-65023666D01*
X129423342Y-65023666D02*
X129518580Y-64976047D01*
X129518580Y-64976047D02*
X129566200Y-64928428D01*
X129566200Y-64928428D02*
X129613819Y-64833190D01*
X129613819Y-64833190D02*
X129613819Y-64642714D01*
X129613819Y-64642714D02*
X129566200Y-64547476D01*
X129566200Y-64547476D02*
X129518580Y-64499857D01*
X129518580Y-64499857D02*
X129423342Y-64452238D01*
X129423342Y-64452238D02*
X129232866Y-64452238D01*
X129232866Y-64452238D02*
X129137628Y-64499857D01*
X129137628Y-64499857D02*
X129090009Y-64547476D01*
X129090009Y-64547476D02*
X129042390Y-64642714D01*
X129613819Y-63499857D02*
X129613819Y-64071285D01*
X129613819Y-63785571D02*
X128613819Y-63785571D01*
X128613819Y-63785571D02*
X128756676Y-63880809D01*
X128756676Y-63880809D02*
X128851914Y-63976047D01*
X128851914Y-63976047D02*
X128899533Y-64071285D01*
X128613819Y-62642714D02*
X128613819Y-62833190D01*
X128613819Y-62833190D02*
X128661438Y-62928428D01*
X128661438Y-62928428D02*
X128709057Y-62976047D01*
X128709057Y-62976047D02*
X128851914Y-63071285D01*
X128851914Y-63071285D02*
X129042390Y-63118904D01*
X129042390Y-63118904D02*
X129423342Y-63118904D01*
X129423342Y-63118904D02*
X129518580Y-63071285D01*
X129518580Y-63071285D02*
X129566200Y-63023666D01*
X129566200Y-63023666D02*
X129613819Y-62928428D01*
X129613819Y-62928428D02*
X129613819Y-62737952D01*
X129613819Y-62737952D02*
X129566200Y-62642714D01*
X129566200Y-62642714D02*
X129518580Y-62595095D01*
X129518580Y-62595095D02*
X129423342Y-62547476D01*
X129423342Y-62547476D02*
X129185247Y-62547476D01*
X129185247Y-62547476D02*
X129090009Y-62595095D01*
X129090009Y-62595095D02*
X129042390Y-62642714D01*
X129042390Y-62642714D02*
X128994771Y-62737952D01*
X128994771Y-62737952D02*
X128994771Y-62928428D01*
X128994771Y-62928428D02*
X129042390Y-63023666D01*
X129042390Y-63023666D02*
X129090009Y-63071285D01*
X129090009Y-63071285D02*
X129185247Y-63118904D01*
X129566200Y-61404618D02*
X129613819Y-61261761D01*
X129613819Y-61261761D02*
X129613819Y-61023666D01*
X129613819Y-61023666D02*
X129566200Y-60928428D01*
X129566200Y-60928428D02*
X129518580Y-60880809D01*
X129518580Y-60880809D02*
X129423342Y-60833190D01*
X129423342Y-60833190D02*
X129328104Y-60833190D01*
X129328104Y-60833190D02*
X129232866Y-60880809D01*
X129232866Y-60880809D02*
X129185247Y-60928428D01*
X129185247Y-60928428D02*
X129137628Y-61023666D01*
X129137628Y-61023666D02*
X129090009Y-61214142D01*
X129090009Y-61214142D02*
X129042390Y-61309380D01*
X129042390Y-61309380D02*
X128994771Y-61356999D01*
X128994771Y-61356999D02*
X128899533Y-61404618D01*
X128899533Y-61404618D02*
X128804295Y-61404618D01*
X128804295Y-61404618D02*
X128709057Y-61356999D01*
X128709057Y-61356999D02*
X128661438Y-61309380D01*
X128661438Y-61309380D02*
X128613819Y-61214142D01*
X128613819Y-61214142D02*
X128613819Y-60976047D01*
X128613819Y-60976047D02*
X128661438Y-60833190D01*
X129613819Y-60261761D02*
X129566200Y-60356999D01*
X129566200Y-60356999D02*
X129518580Y-60404618D01*
X129518580Y-60404618D02*
X129423342Y-60452237D01*
X129423342Y-60452237D02*
X129137628Y-60452237D01*
X129137628Y-60452237D02*
X129042390Y-60404618D01*
X129042390Y-60404618D02*
X128994771Y-60356999D01*
X128994771Y-60356999D02*
X128947152Y-60261761D01*
X128947152Y-60261761D02*
X128947152Y-60118904D01*
X128947152Y-60118904D02*
X128994771Y-60023666D01*
X128994771Y-60023666D02*
X129042390Y-59976047D01*
X129042390Y-59976047D02*
X129137628Y-59928428D01*
X129137628Y-59928428D02*
X129423342Y-59928428D01*
X129423342Y-59928428D02*
X129518580Y-59976047D01*
X129518580Y-59976047D02*
X129566200Y-60023666D01*
X129566200Y-60023666D02*
X129613819Y-60118904D01*
X129613819Y-60118904D02*
X129613819Y-60261761D01*
X129566200Y-59071285D02*
X129613819Y-59166523D01*
X129613819Y-59166523D02*
X129613819Y-59356999D01*
X129613819Y-59356999D02*
X129566200Y-59452237D01*
X129566200Y-59452237D02*
X129518580Y-59499856D01*
X129518580Y-59499856D02*
X129423342Y-59547475D01*
X129423342Y-59547475D02*
X129137628Y-59547475D01*
X129137628Y-59547475D02*
X129042390Y-59499856D01*
X129042390Y-59499856D02*
X128994771Y-59452237D01*
X128994771Y-59452237D02*
X128947152Y-59356999D01*
X128947152Y-59356999D02*
X128947152Y-59166523D01*
X128947152Y-59166523D02*
X128994771Y-59071285D01*
X129613819Y-58642713D02*
X128613819Y-58642713D01*
X129232866Y-58547475D02*
X129613819Y-58261761D01*
X128947152Y-58261761D02*
X129328104Y-58642713D01*
X129566200Y-57452237D02*
X129613819Y-57547475D01*
X129613819Y-57547475D02*
X129613819Y-57737951D01*
X129613819Y-57737951D02*
X129566200Y-57833189D01*
X129566200Y-57833189D02*
X129470961Y-57880808D01*
X129470961Y-57880808D02*
X129090009Y-57880808D01*
X129090009Y-57880808D02*
X128994771Y-57833189D01*
X128994771Y-57833189D02*
X128947152Y-57737951D01*
X128947152Y-57737951D02*
X128947152Y-57547475D01*
X128947152Y-57547475D02*
X128994771Y-57452237D01*
X128994771Y-57452237D02*
X129090009Y-57404618D01*
X129090009Y-57404618D02*
X129185247Y-57404618D01*
X129185247Y-57404618D02*
X129280485Y-57880808D01*
X128947152Y-57118903D02*
X128947152Y-56737951D01*
X128613819Y-56976046D02*
X129470961Y-56976046D01*
X129470961Y-56976046D02*
X129566200Y-56928427D01*
X129566200Y-56928427D02*
X129613819Y-56833189D01*
X129613819Y-56833189D02*
X129613819Y-56737951D01*
X76887857Y-122921009D02*
X77030714Y-122968628D01*
X77030714Y-122968628D02*
X77078333Y-123016247D01*
X77078333Y-123016247D02*
X77125952Y-123111485D01*
X77125952Y-123111485D02*
X77125952Y-123254342D01*
X77125952Y-123254342D02*
X77078333Y-123349580D01*
X77078333Y-123349580D02*
X77030714Y-123397200D01*
X77030714Y-123397200D02*
X76935476Y-123444819D01*
X76935476Y-123444819D02*
X76554524Y-123444819D01*
X76554524Y-123444819D02*
X76554524Y-122444819D01*
X76554524Y-122444819D02*
X76887857Y-122444819D01*
X76887857Y-122444819D02*
X76983095Y-122492438D01*
X76983095Y-122492438D02*
X77030714Y-122540057D01*
X77030714Y-122540057D02*
X77078333Y-122635295D01*
X77078333Y-122635295D02*
X77078333Y-122730533D01*
X77078333Y-122730533D02*
X77030714Y-122825771D01*
X77030714Y-122825771D02*
X76983095Y-122873390D01*
X76983095Y-122873390D02*
X76887857Y-122921009D01*
X76887857Y-122921009D02*
X76554524Y-122921009D01*
X78125952Y-123349580D02*
X78078333Y-123397200D01*
X78078333Y-123397200D02*
X77935476Y-123444819D01*
X77935476Y-123444819D02*
X77840238Y-123444819D01*
X77840238Y-123444819D02*
X77697381Y-123397200D01*
X77697381Y-123397200D02*
X77602143Y-123301961D01*
X77602143Y-123301961D02*
X77554524Y-123206723D01*
X77554524Y-123206723D02*
X77506905Y-123016247D01*
X77506905Y-123016247D02*
X77506905Y-122873390D01*
X77506905Y-122873390D02*
X77554524Y-122682914D01*
X77554524Y-122682914D02*
X77602143Y-122587676D01*
X77602143Y-122587676D02*
X77697381Y-122492438D01*
X77697381Y-122492438D02*
X77840238Y-122444819D01*
X77840238Y-122444819D02*
X77935476Y-122444819D01*
X77935476Y-122444819D02*
X78078333Y-122492438D01*
X78078333Y-122492438D02*
X78125952Y-122540057D01*
X79030714Y-122444819D02*
X78554524Y-122444819D01*
X78554524Y-122444819D02*
X78506905Y-122921009D01*
X78506905Y-122921009D02*
X78554524Y-122873390D01*
X78554524Y-122873390D02*
X78649762Y-122825771D01*
X78649762Y-122825771D02*
X78887857Y-122825771D01*
X78887857Y-122825771D02*
X78983095Y-122873390D01*
X78983095Y-122873390D02*
X79030714Y-122921009D01*
X79030714Y-122921009D02*
X79078333Y-123016247D01*
X79078333Y-123016247D02*
X79078333Y-123254342D01*
X79078333Y-123254342D02*
X79030714Y-123349580D01*
X79030714Y-123349580D02*
X78983095Y-123397200D01*
X78983095Y-123397200D02*
X78887857Y-123444819D01*
X78887857Y-123444819D02*
X78649762Y-123444819D01*
X78649762Y-123444819D02*
X78554524Y-123397200D01*
X78554524Y-123397200D02*
X78506905Y-123349580D01*
X80030714Y-123444819D02*
X79459286Y-123444819D01*
X79745000Y-123444819D02*
X79745000Y-122444819D01*
X79745000Y-122444819D02*
X79649762Y-122587676D01*
X79649762Y-122587676D02*
X79554524Y-122682914D01*
X79554524Y-122682914D02*
X79459286Y-122730533D01*
X80364048Y-122444819D02*
X81030714Y-122444819D01*
X81030714Y-122444819D02*
X80602143Y-123444819D01*
X126702761Y-34268580D02*
X126655142Y-34316200D01*
X126655142Y-34316200D02*
X126512285Y-34363819D01*
X126512285Y-34363819D02*
X126417047Y-34363819D01*
X126417047Y-34363819D02*
X126274190Y-34316200D01*
X126274190Y-34316200D02*
X126178952Y-34220961D01*
X126178952Y-34220961D02*
X126131333Y-34125723D01*
X126131333Y-34125723D02*
X126083714Y-33935247D01*
X126083714Y-33935247D02*
X126083714Y-33792390D01*
X126083714Y-33792390D02*
X126131333Y-33601914D01*
X126131333Y-33601914D02*
X126178952Y-33506676D01*
X126178952Y-33506676D02*
X126274190Y-33411438D01*
X126274190Y-33411438D02*
X126417047Y-33363819D01*
X126417047Y-33363819D02*
X126512285Y-33363819D01*
X126512285Y-33363819D02*
X126655142Y-33411438D01*
X126655142Y-33411438D02*
X126702761Y-33459057D01*
X127083714Y-34078104D02*
X127559904Y-34078104D01*
X126988476Y-34363819D02*
X127321809Y-33363819D01*
X127321809Y-33363819D02*
X127655142Y-34363819D01*
X127988476Y-34363819D02*
X127988476Y-33363819D01*
X127988476Y-33363819D02*
X128369428Y-33363819D01*
X128369428Y-33363819D02*
X128464666Y-33411438D01*
X128464666Y-33411438D02*
X128512285Y-33459057D01*
X128512285Y-33459057D02*
X128559904Y-33554295D01*
X128559904Y-33554295D02*
X128559904Y-33697152D01*
X128559904Y-33697152D02*
X128512285Y-33792390D01*
X128512285Y-33792390D02*
X128464666Y-33840009D01*
X128464666Y-33840009D02*
X128369428Y-33887628D01*
X128369428Y-33887628D02*
X127988476Y-33887628D01*
X128940857Y-34316200D02*
X129083714Y-34363819D01*
X129083714Y-34363819D02*
X129321809Y-34363819D01*
X129321809Y-34363819D02*
X129417047Y-34316200D01*
X129417047Y-34316200D02*
X129464666Y-34268580D01*
X129464666Y-34268580D02*
X129512285Y-34173342D01*
X129512285Y-34173342D02*
X129512285Y-34078104D01*
X129512285Y-34078104D02*
X129464666Y-33982866D01*
X129464666Y-33982866D02*
X129417047Y-33935247D01*
X129417047Y-33935247D02*
X129321809Y-33887628D01*
X129321809Y-33887628D02*
X129131333Y-33840009D01*
X129131333Y-33840009D02*
X129036095Y-33792390D01*
X129036095Y-33792390D02*
X128988476Y-33744771D01*
X128988476Y-33744771D02*
X128940857Y-33649533D01*
X128940857Y-33649533D02*
X128940857Y-33554295D01*
X128940857Y-33554295D02*
X128988476Y-33459057D01*
X128988476Y-33459057D02*
X129036095Y-33411438D01*
X129036095Y-33411438D02*
X129131333Y-33363819D01*
X129131333Y-33363819D02*
X129369428Y-33363819D01*
X129369428Y-33363819D02*
X129512285Y-33411438D01*
X140388152Y-61756904D02*
X141054819Y-61756904D01*
X140007200Y-61994999D02*
X140721485Y-62233094D01*
X140721485Y-62233094D02*
X140721485Y-61614047D01*
X140054819Y-61328332D02*
X140054819Y-60661666D01*
X140054819Y-60661666D02*
X141054819Y-61090237D01*
X140054819Y-60090237D02*
X140054819Y-59994999D01*
X140054819Y-59994999D02*
X140102438Y-59899761D01*
X140102438Y-59899761D02*
X140150057Y-59852142D01*
X140150057Y-59852142D02*
X140245295Y-59804523D01*
X140245295Y-59804523D02*
X140435771Y-59756904D01*
X140435771Y-59756904D02*
X140673866Y-59756904D01*
X140673866Y-59756904D02*
X140864342Y-59804523D01*
X140864342Y-59804523D02*
X140959580Y-59852142D01*
X140959580Y-59852142D02*
X141007200Y-59899761D01*
X141007200Y-59899761D02*
X141054819Y-59994999D01*
X141054819Y-59994999D02*
X141054819Y-60090237D01*
X141054819Y-60090237D02*
X141007200Y-60185475D01*
X141007200Y-60185475D02*
X140959580Y-60233094D01*
X140959580Y-60233094D02*
X140864342Y-60280713D01*
X140864342Y-60280713D02*
X140673866Y-60328332D01*
X140673866Y-60328332D02*
X140435771Y-60328332D01*
X140435771Y-60328332D02*
X140245295Y-60280713D01*
X140245295Y-60280713D02*
X140150057Y-60233094D01*
X140150057Y-60233094D02*
X140102438Y-60185475D01*
X140102438Y-60185475D02*
X140054819Y-60090237D01*
X141054819Y-58756904D02*
X140578628Y-59090237D01*
X141054819Y-59328332D02*
X140054819Y-59328332D01*
X140054819Y-59328332D02*
X140054819Y-58947380D01*
X140054819Y-58947380D02*
X140102438Y-58852142D01*
X140102438Y-58852142D02*
X140150057Y-58804523D01*
X140150057Y-58804523D02*
X140245295Y-58756904D01*
X140245295Y-58756904D02*
X140388152Y-58756904D01*
X140388152Y-58756904D02*
X140483390Y-58804523D01*
X140483390Y-58804523D02*
X140531009Y-58852142D01*
X140531009Y-58852142D02*
X140578628Y-58947380D01*
X140578628Y-58947380D02*
X140578628Y-59328332D01*
D11*
X135159524Y-90343855D02*
X135159524Y-89543855D01*
X135159524Y-89543855D02*
X135350000Y-89543855D01*
X135350000Y-89543855D02*
X135464286Y-89581950D01*
X135464286Y-89581950D02*
X135540476Y-89658140D01*
X135540476Y-89658140D02*
X135578571Y-89734331D01*
X135578571Y-89734331D02*
X135616667Y-89886712D01*
X135616667Y-89886712D02*
X135616667Y-90000998D01*
X135616667Y-90000998D02*
X135578571Y-90153379D01*
X135578571Y-90153379D02*
X135540476Y-90229569D01*
X135540476Y-90229569D02*
X135464286Y-90305760D01*
X135464286Y-90305760D02*
X135350000Y-90343855D01*
X135350000Y-90343855D02*
X135159524Y-90343855D01*
X136378571Y-90343855D02*
X135921428Y-90343855D01*
X136150000Y-90343855D02*
X136150000Y-89543855D01*
X136150000Y-89543855D02*
X136073809Y-89658140D01*
X136073809Y-89658140D02*
X135997619Y-89734331D01*
X135997619Y-89734331D02*
X135921428Y-89772426D01*
D10*
X136785476Y-33826009D02*
X136928333Y-33873628D01*
X136928333Y-33873628D02*
X136975952Y-33921247D01*
X136975952Y-33921247D02*
X137023571Y-34016485D01*
X137023571Y-34016485D02*
X137023571Y-34159342D01*
X137023571Y-34159342D02*
X136975952Y-34254580D01*
X136975952Y-34254580D02*
X136928333Y-34302200D01*
X136928333Y-34302200D02*
X136833095Y-34349819D01*
X136833095Y-34349819D02*
X136452143Y-34349819D01*
X136452143Y-34349819D02*
X136452143Y-33349819D01*
X136452143Y-33349819D02*
X136785476Y-33349819D01*
X136785476Y-33349819D02*
X136880714Y-33397438D01*
X136880714Y-33397438D02*
X136928333Y-33445057D01*
X136928333Y-33445057D02*
X136975952Y-33540295D01*
X136975952Y-33540295D02*
X136975952Y-33635533D01*
X136975952Y-33635533D02*
X136928333Y-33730771D01*
X136928333Y-33730771D02*
X136880714Y-33778390D01*
X136880714Y-33778390D02*
X136785476Y-33826009D01*
X136785476Y-33826009D02*
X136452143Y-33826009D01*
X138023571Y-34349819D02*
X137690238Y-33873628D01*
X137452143Y-34349819D02*
X137452143Y-33349819D01*
X137452143Y-33349819D02*
X137833095Y-33349819D01*
X137833095Y-33349819D02*
X137928333Y-33397438D01*
X137928333Y-33397438D02*
X137975952Y-33445057D01*
X137975952Y-33445057D02*
X138023571Y-33540295D01*
X138023571Y-33540295D02*
X138023571Y-33683152D01*
X138023571Y-33683152D02*
X137975952Y-33778390D01*
X137975952Y-33778390D02*
X137928333Y-33826009D01*
X137928333Y-33826009D02*
X137833095Y-33873628D01*
X137833095Y-33873628D02*
X137452143Y-33873628D01*
X138452143Y-33826009D02*
X138785476Y-33826009D01*
X138928333Y-34349819D02*
X138452143Y-34349819D01*
X138452143Y-34349819D02*
X138452143Y-33349819D01*
X138452143Y-33349819D02*
X138928333Y-33349819D01*
X139309286Y-34064104D02*
X139785476Y-34064104D01*
X139214048Y-34349819D02*
X139547381Y-33349819D01*
X139547381Y-33349819D02*
X139880714Y-34349819D01*
X140214048Y-34349819D02*
X140214048Y-33349819D01*
X140785476Y-34349819D02*
X140356905Y-33778390D01*
X140785476Y-33349819D02*
X140214048Y-33921247D01*
X146279819Y-100850904D02*
X146279819Y-100184238D01*
X146279819Y-100184238D02*
X147279819Y-100612809D01*
X146613152Y-99374714D02*
X147279819Y-99374714D01*
X146232200Y-99612809D02*
X146946485Y-99850904D01*
X146946485Y-99850904D02*
X146946485Y-99231857D01*
X146613152Y-98422333D02*
X147279819Y-98422333D01*
X146232200Y-98660428D02*
X146946485Y-98898523D01*
X146946485Y-98898523D02*
X146946485Y-98279476D01*
X146279819Y-97422333D02*
X146279819Y-97898523D01*
X146279819Y-97898523D02*
X146756009Y-97946142D01*
X146756009Y-97946142D02*
X146708390Y-97898523D01*
X146708390Y-97898523D02*
X146660771Y-97803285D01*
X146660771Y-97803285D02*
X146660771Y-97565190D01*
X146660771Y-97565190D02*
X146708390Y-97469952D01*
X146708390Y-97469952D02*
X146756009Y-97422333D01*
X146756009Y-97422333D02*
X146851247Y-97374714D01*
X146851247Y-97374714D02*
X147089342Y-97374714D01*
X147089342Y-97374714D02*
X147184580Y-97422333D01*
X147184580Y-97422333D02*
X147232200Y-97469952D01*
X147232200Y-97469952D02*
X147279819Y-97565190D01*
X147279819Y-97565190D02*
X147279819Y-97803285D01*
X147279819Y-97803285D02*
X147232200Y-97898523D01*
X147232200Y-97898523D02*
X147184580Y-97946142D01*
D11*
X135159524Y-97963855D02*
X135159524Y-97163855D01*
X135159524Y-97163855D02*
X135350000Y-97163855D01*
X135350000Y-97163855D02*
X135464286Y-97201950D01*
X135464286Y-97201950D02*
X135540476Y-97278140D01*
X135540476Y-97278140D02*
X135578571Y-97354331D01*
X135578571Y-97354331D02*
X135616667Y-97506712D01*
X135616667Y-97506712D02*
X135616667Y-97620998D01*
X135616667Y-97620998D02*
X135578571Y-97773379D01*
X135578571Y-97773379D02*
X135540476Y-97849569D01*
X135540476Y-97849569D02*
X135464286Y-97925760D01*
X135464286Y-97925760D02*
X135350000Y-97963855D01*
X135350000Y-97963855D02*
X135159524Y-97963855D01*
X136302381Y-97430521D02*
X136302381Y-97963855D01*
X136111905Y-97125760D02*
X135921428Y-97697188D01*
X135921428Y-97697188D02*
X136416667Y-97697188D01*
D10*
X129593152Y-124113666D02*
X130259819Y-124113666D01*
X129212200Y-124351761D02*
X129926485Y-124589856D01*
X129926485Y-124589856D02*
X129926485Y-123970809D01*
X129259819Y-123685094D02*
X129259819Y-123018428D01*
X129259819Y-123018428D02*
X130259819Y-123446999D01*
X129593152Y-122637475D02*
X130259819Y-122637475D01*
X129688390Y-122637475D02*
X129640771Y-122589856D01*
X129640771Y-122589856D02*
X129593152Y-122494618D01*
X129593152Y-122494618D02*
X129593152Y-122351761D01*
X129593152Y-122351761D02*
X129640771Y-122256523D01*
X129640771Y-122256523D02*
X129736009Y-122208904D01*
X129736009Y-122208904D02*
X130259819Y-122208904D01*
X129736009Y-121399380D02*
X129736009Y-121732713D01*
X130259819Y-121732713D02*
X129259819Y-121732713D01*
X129259819Y-121732713D02*
X129259819Y-121256523D01*
X126142200Y-105293332D02*
X126189819Y-105150475D01*
X126189819Y-105150475D02*
X126189819Y-104912380D01*
X126189819Y-104912380D02*
X126142200Y-104817142D01*
X126142200Y-104817142D02*
X126094580Y-104769523D01*
X126094580Y-104769523D02*
X125999342Y-104721904D01*
X125999342Y-104721904D02*
X125904104Y-104721904D01*
X125904104Y-104721904D02*
X125808866Y-104769523D01*
X125808866Y-104769523D02*
X125761247Y-104817142D01*
X125761247Y-104817142D02*
X125713628Y-104912380D01*
X125713628Y-104912380D02*
X125666009Y-105102856D01*
X125666009Y-105102856D02*
X125618390Y-105198094D01*
X125618390Y-105198094D02*
X125570771Y-105245713D01*
X125570771Y-105245713D02*
X125475533Y-105293332D01*
X125475533Y-105293332D02*
X125380295Y-105293332D01*
X125380295Y-105293332D02*
X125285057Y-105245713D01*
X125285057Y-105245713D02*
X125237438Y-105198094D01*
X125237438Y-105198094D02*
X125189819Y-105102856D01*
X125189819Y-105102856D02*
X125189819Y-104864761D01*
X125189819Y-104864761D02*
X125237438Y-104721904D01*
X125189819Y-104388570D02*
X126189819Y-104150475D01*
X126189819Y-104150475D02*
X125475533Y-103959999D01*
X125475533Y-103959999D02*
X126189819Y-103769523D01*
X126189819Y-103769523D02*
X125189819Y-103531428D01*
X126189819Y-102626666D02*
X126189819Y-103198094D01*
X126189819Y-102912380D02*
X125189819Y-102912380D01*
X125189819Y-102912380D02*
X125332676Y-103007618D01*
X125332676Y-103007618D02*
X125427914Y-103102856D01*
X125427914Y-103102856D02*
X125475533Y-103198094D01*
X140388152Y-42646904D02*
X141054819Y-42646904D01*
X140007200Y-42884999D02*
X140721485Y-43123094D01*
X140721485Y-43123094D02*
X140721485Y-42504047D01*
X140054819Y-42218332D02*
X140054819Y-41551666D01*
X140054819Y-41551666D02*
X141054819Y-41980237D01*
X140054819Y-40980237D02*
X140054819Y-40884999D01*
X140054819Y-40884999D02*
X140102438Y-40789761D01*
X140102438Y-40789761D02*
X140150057Y-40742142D01*
X140150057Y-40742142D02*
X140245295Y-40694523D01*
X140245295Y-40694523D02*
X140435771Y-40646904D01*
X140435771Y-40646904D02*
X140673866Y-40646904D01*
X140673866Y-40646904D02*
X140864342Y-40694523D01*
X140864342Y-40694523D02*
X140959580Y-40742142D01*
X140959580Y-40742142D02*
X141007200Y-40789761D01*
X141007200Y-40789761D02*
X141054819Y-40884999D01*
X141054819Y-40884999D02*
X141054819Y-40980237D01*
X141054819Y-40980237D02*
X141007200Y-41075475D01*
X141007200Y-41075475D02*
X140959580Y-41123094D01*
X140959580Y-41123094D02*
X140864342Y-41170713D01*
X140864342Y-41170713D02*
X140673866Y-41218332D01*
X140673866Y-41218332D02*
X140435771Y-41218332D01*
X140435771Y-41218332D02*
X140245295Y-41170713D01*
X140245295Y-41170713D02*
X140150057Y-41123094D01*
X140150057Y-41123094D02*
X140102438Y-41075475D01*
X140102438Y-41075475D02*
X140054819Y-40980237D01*
X141054819Y-39646904D02*
X140578628Y-39980237D01*
X141054819Y-40218332D02*
X140054819Y-40218332D01*
X140054819Y-40218332D02*
X140054819Y-39837380D01*
X140054819Y-39837380D02*
X140102438Y-39742142D01*
X140102438Y-39742142D02*
X140150057Y-39694523D01*
X140150057Y-39694523D02*
X140245295Y-39646904D01*
X140245295Y-39646904D02*
X140388152Y-39646904D01*
X140388152Y-39646904D02*
X140483390Y-39694523D01*
X140483390Y-39694523D02*
X140531009Y-39742142D01*
X140531009Y-39742142D02*
X140578628Y-39837380D01*
X140578628Y-39837380D02*
X140578628Y-40218332D01*
X139598095Y-122075057D02*
X139645714Y-122027438D01*
X139645714Y-122027438D02*
X139740952Y-121979819D01*
X139740952Y-121979819D02*
X139979047Y-121979819D01*
X139979047Y-121979819D02*
X140074285Y-122027438D01*
X140074285Y-122027438D02*
X140121904Y-122075057D01*
X140121904Y-122075057D02*
X140169523Y-122170295D01*
X140169523Y-122170295D02*
X140169523Y-122265533D01*
X140169523Y-122265533D02*
X140121904Y-122408390D01*
X140121904Y-122408390D02*
X139550476Y-122979819D01*
X139550476Y-122979819D02*
X140169523Y-122979819D01*
X140598095Y-122979819D02*
X140598095Y-121979819D01*
X141169523Y-122979819D02*
X140740952Y-122408390D01*
X141169523Y-121979819D02*
X140598095Y-122551247D01*
X141550476Y-122075057D02*
X141598095Y-122027438D01*
X141598095Y-122027438D02*
X141693333Y-121979819D01*
X141693333Y-121979819D02*
X141931428Y-121979819D01*
X141931428Y-121979819D02*
X142026666Y-122027438D01*
X142026666Y-122027438D02*
X142074285Y-122075057D01*
X142074285Y-122075057D02*
X142121904Y-122170295D01*
X142121904Y-122170295D02*
X142121904Y-122265533D01*
X142121904Y-122265533D02*
X142074285Y-122408390D01*
X142074285Y-122408390D02*
X141502857Y-122979819D01*
X141502857Y-122979819D02*
X142121904Y-122979819D01*
X94544952Y-122401819D02*
X95211618Y-122401819D01*
X95211618Y-122401819D02*
X94783047Y-123401819D01*
X96021142Y-122735152D02*
X96021142Y-123401819D01*
X95783047Y-122354200D02*
X95544952Y-123068485D01*
X95544952Y-123068485D02*
X96163999Y-123068485D01*
X97021142Y-123401819D02*
X96544952Y-123401819D01*
X96544952Y-123401819D02*
X96544952Y-122401819D01*
X97306857Y-123354200D02*
X97449714Y-123401819D01*
X97449714Y-123401819D02*
X97687809Y-123401819D01*
X97687809Y-123401819D02*
X97783047Y-123354200D01*
X97783047Y-123354200D02*
X97830666Y-123306580D01*
X97830666Y-123306580D02*
X97878285Y-123211342D01*
X97878285Y-123211342D02*
X97878285Y-123116104D01*
X97878285Y-123116104D02*
X97830666Y-123020866D01*
X97830666Y-123020866D02*
X97783047Y-122973247D01*
X97783047Y-122973247D02*
X97687809Y-122925628D01*
X97687809Y-122925628D02*
X97497333Y-122878009D01*
X97497333Y-122878009D02*
X97402095Y-122830390D01*
X97402095Y-122830390D02*
X97354476Y-122782771D01*
X97354476Y-122782771D02*
X97306857Y-122687533D01*
X97306857Y-122687533D02*
X97306857Y-122592295D01*
X97306857Y-122592295D02*
X97354476Y-122497057D01*
X97354476Y-122497057D02*
X97402095Y-122449438D01*
X97402095Y-122449438D02*
X97497333Y-122401819D01*
X97497333Y-122401819D02*
X97735428Y-122401819D01*
X97735428Y-122401819D02*
X97878285Y-122449438D01*
X98830666Y-123401819D02*
X98259238Y-123401819D01*
X98544952Y-123401819D02*
X98544952Y-122401819D01*
X98544952Y-122401819D02*
X98449714Y-122544676D01*
X98449714Y-122544676D02*
X98354476Y-122639914D01*
X98354476Y-122639914D02*
X98259238Y-122687533D01*
X99687809Y-122401819D02*
X99497333Y-122401819D01*
X99497333Y-122401819D02*
X99402095Y-122449438D01*
X99402095Y-122449438D02*
X99354476Y-122497057D01*
X99354476Y-122497057D02*
X99259238Y-122639914D01*
X99259238Y-122639914D02*
X99211619Y-122830390D01*
X99211619Y-122830390D02*
X99211619Y-123211342D01*
X99211619Y-123211342D02*
X99259238Y-123306580D01*
X99259238Y-123306580D02*
X99306857Y-123354200D01*
X99306857Y-123354200D02*
X99402095Y-123401819D01*
X99402095Y-123401819D02*
X99592571Y-123401819D01*
X99592571Y-123401819D02*
X99687809Y-123354200D01*
X99687809Y-123354200D02*
X99735428Y-123306580D01*
X99735428Y-123306580D02*
X99783047Y-123211342D01*
X99783047Y-123211342D02*
X99783047Y-122973247D01*
X99783047Y-122973247D02*
X99735428Y-122878009D01*
X99735428Y-122878009D02*
X99687809Y-122830390D01*
X99687809Y-122830390D02*
X99592571Y-122782771D01*
X99592571Y-122782771D02*
X99402095Y-122782771D01*
X99402095Y-122782771D02*
X99306857Y-122830390D01*
X99306857Y-122830390D02*
X99259238Y-122878009D01*
X99259238Y-122878009D02*
X99211619Y-122973247D01*
X100116381Y-122401819D02*
X100735428Y-122401819D01*
X100735428Y-122401819D02*
X100402095Y-122782771D01*
X100402095Y-122782771D02*
X100544952Y-122782771D01*
X100544952Y-122782771D02*
X100640190Y-122830390D01*
X100640190Y-122830390D02*
X100687809Y-122878009D01*
X100687809Y-122878009D02*
X100735428Y-122973247D01*
X100735428Y-122973247D02*
X100735428Y-123211342D01*
X100735428Y-123211342D02*
X100687809Y-123306580D01*
X100687809Y-123306580D02*
X100640190Y-123354200D01*
X100640190Y-123354200D02*
X100544952Y-123401819D01*
X100544952Y-123401819D02*
X100259238Y-123401819D01*
X100259238Y-123401819D02*
X100164000Y-123354200D01*
X100164000Y-123354200D02*
X100116381Y-123306580D01*
D11*
X135159524Y-92883855D02*
X135159524Y-92083855D01*
X135159524Y-92083855D02*
X135350000Y-92083855D01*
X135350000Y-92083855D02*
X135464286Y-92121950D01*
X135464286Y-92121950D02*
X135540476Y-92198140D01*
X135540476Y-92198140D02*
X135578571Y-92274331D01*
X135578571Y-92274331D02*
X135616667Y-92426712D01*
X135616667Y-92426712D02*
X135616667Y-92540998D01*
X135616667Y-92540998D02*
X135578571Y-92693379D01*
X135578571Y-92693379D02*
X135540476Y-92769569D01*
X135540476Y-92769569D02*
X135464286Y-92845760D01*
X135464286Y-92845760D02*
X135350000Y-92883855D01*
X135350000Y-92883855D02*
X135159524Y-92883855D01*
X135921428Y-92160045D02*
X135959524Y-92121950D01*
X135959524Y-92121950D02*
X136035714Y-92083855D01*
X136035714Y-92083855D02*
X136226190Y-92083855D01*
X136226190Y-92083855D02*
X136302381Y-92121950D01*
X136302381Y-92121950D02*
X136340476Y-92160045D01*
X136340476Y-92160045D02*
X136378571Y-92236236D01*
X136378571Y-92236236D02*
X136378571Y-92312426D01*
X136378571Y-92312426D02*
X136340476Y-92426712D01*
X136340476Y-92426712D02*
X135883333Y-92883855D01*
X135883333Y-92883855D02*
X136378571Y-92883855D01*
D10*
X151042143Y-117394819D02*
X151708809Y-117394819D01*
X151708809Y-117394819D02*
X151280238Y-118394819D01*
X152518333Y-117728152D02*
X152518333Y-118394819D01*
X152280238Y-117347200D02*
X152042143Y-118061485D01*
X152042143Y-118061485D02*
X152661190Y-118061485D01*
X153518333Y-118394819D02*
X153042143Y-118394819D01*
X153042143Y-118394819D02*
X153042143Y-117394819D01*
X153804048Y-118347200D02*
X153946905Y-118394819D01*
X153946905Y-118394819D02*
X154185000Y-118394819D01*
X154185000Y-118394819D02*
X154280238Y-118347200D01*
X154280238Y-118347200D02*
X154327857Y-118299580D01*
X154327857Y-118299580D02*
X154375476Y-118204342D01*
X154375476Y-118204342D02*
X154375476Y-118109104D01*
X154375476Y-118109104D02*
X154327857Y-118013866D01*
X154327857Y-118013866D02*
X154280238Y-117966247D01*
X154280238Y-117966247D02*
X154185000Y-117918628D01*
X154185000Y-117918628D02*
X153994524Y-117871009D01*
X153994524Y-117871009D02*
X153899286Y-117823390D01*
X153899286Y-117823390D02*
X153851667Y-117775771D01*
X153851667Y-117775771D02*
X153804048Y-117680533D01*
X153804048Y-117680533D02*
X153804048Y-117585295D01*
X153804048Y-117585295D02*
X153851667Y-117490057D01*
X153851667Y-117490057D02*
X153899286Y-117442438D01*
X153899286Y-117442438D02*
X153994524Y-117394819D01*
X153994524Y-117394819D02*
X154232619Y-117394819D01*
X154232619Y-117394819D02*
X154375476Y-117442438D01*
X154708810Y-117394819D02*
X155327857Y-117394819D01*
X155327857Y-117394819D02*
X154994524Y-117775771D01*
X154994524Y-117775771D02*
X155137381Y-117775771D01*
X155137381Y-117775771D02*
X155232619Y-117823390D01*
X155232619Y-117823390D02*
X155280238Y-117871009D01*
X155280238Y-117871009D02*
X155327857Y-117966247D01*
X155327857Y-117966247D02*
X155327857Y-118204342D01*
X155327857Y-118204342D02*
X155280238Y-118299580D01*
X155280238Y-118299580D02*
X155232619Y-118347200D01*
X155232619Y-118347200D02*
X155137381Y-118394819D01*
X155137381Y-118394819D02*
X154851667Y-118394819D01*
X154851667Y-118394819D02*
X154756429Y-118347200D01*
X154756429Y-118347200D02*
X154708810Y-118299580D01*
X155946905Y-117394819D02*
X156042143Y-117394819D01*
X156042143Y-117394819D02*
X156137381Y-117442438D01*
X156137381Y-117442438D02*
X156185000Y-117490057D01*
X156185000Y-117490057D02*
X156232619Y-117585295D01*
X156232619Y-117585295D02*
X156280238Y-117775771D01*
X156280238Y-117775771D02*
X156280238Y-118013866D01*
X156280238Y-118013866D02*
X156232619Y-118204342D01*
X156232619Y-118204342D02*
X156185000Y-118299580D01*
X156185000Y-118299580D02*
X156137381Y-118347200D01*
X156137381Y-118347200D02*
X156042143Y-118394819D01*
X156042143Y-118394819D02*
X155946905Y-118394819D01*
X155946905Y-118394819D02*
X155851667Y-118347200D01*
X155851667Y-118347200D02*
X155804048Y-118299580D01*
X155804048Y-118299580D02*
X155756429Y-118204342D01*
X155756429Y-118204342D02*
X155708810Y-118013866D01*
X155708810Y-118013866D02*
X155708810Y-117775771D01*
X155708810Y-117775771D02*
X155756429Y-117585295D01*
X155756429Y-117585295D02*
X155804048Y-117490057D01*
X155804048Y-117490057D02*
X155851667Y-117442438D01*
X155851667Y-117442438D02*
X155946905Y-117394819D01*
D11*
X135159524Y-108123855D02*
X135159524Y-107323855D01*
X135159524Y-107323855D02*
X135350000Y-107323855D01*
X135350000Y-107323855D02*
X135464286Y-107361950D01*
X135464286Y-107361950D02*
X135540476Y-107438140D01*
X135540476Y-107438140D02*
X135578571Y-107514331D01*
X135578571Y-107514331D02*
X135616667Y-107666712D01*
X135616667Y-107666712D02*
X135616667Y-107780998D01*
X135616667Y-107780998D02*
X135578571Y-107933379D01*
X135578571Y-107933379D02*
X135540476Y-108009569D01*
X135540476Y-108009569D02*
X135464286Y-108085760D01*
X135464286Y-108085760D02*
X135350000Y-108123855D01*
X135350000Y-108123855D02*
X135159524Y-108123855D01*
X136073809Y-107666712D02*
X135997619Y-107628617D01*
X135997619Y-107628617D02*
X135959524Y-107590521D01*
X135959524Y-107590521D02*
X135921428Y-107514331D01*
X135921428Y-107514331D02*
X135921428Y-107476236D01*
X135921428Y-107476236D02*
X135959524Y-107400045D01*
X135959524Y-107400045D02*
X135997619Y-107361950D01*
X135997619Y-107361950D02*
X136073809Y-107323855D01*
X136073809Y-107323855D02*
X136226190Y-107323855D01*
X136226190Y-107323855D02*
X136302381Y-107361950D01*
X136302381Y-107361950D02*
X136340476Y-107400045D01*
X136340476Y-107400045D02*
X136378571Y-107476236D01*
X136378571Y-107476236D02*
X136378571Y-107514331D01*
X136378571Y-107514331D02*
X136340476Y-107590521D01*
X136340476Y-107590521D02*
X136302381Y-107628617D01*
X136302381Y-107628617D02*
X136226190Y-107666712D01*
X136226190Y-107666712D02*
X136073809Y-107666712D01*
X136073809Y-107666712D02*
X135997619Y-107704807D01*
X135997619Y-107704807D02*
X135959524Y-107742902D01*
X135959524Y-107742902D02*
X135921428Y-107819093D01*
X135921428Y-107819093D02*
X135921428Y-107971474D01*
X135921428Y-107971474D02*
X135959524Y-108047664D01*
X135959524Y-108047664D02*
X135997619Y-108085760D01*
X135997619Y-108085760D02*
X136073809Y-108123855D01*
X136073809Y-108123855D02*
X136226190Y-108123855D01*
X136226190Y-108123855D02*
X136302381Y-108085760D01*
X136302381Y-108085760D02*
X136340476Y-108047664D01*
X136340476Y-108047664D02*
X136378571Y-107971474D01*
X136378571Y-107971474D02*
X136378571Y-107819093D01*
X136378571Y-107819093D02*
X136340476Y-107742902D01*
X136340476Y-107742902D02*
X136302381Y-107704807D01*
X136302381Y-107704807D02*
X136226190Y-107666712D01*
D10*
X115499952Y-122401819D02*
X116166618Y-122401819D01*
X116166618Y-122401819D02*
X115738047Y-123401819D01*
X116976142Y-122735152D02*
X116976142Y-123401819D01*
X116738047Y-122354200D02*
X116499952Y-123068485D01*
X116499952Y-123068485D02*
X117118999Y-123068485D01*
X117976142Y-123401819D02*
X117499952Y-123401819D01*
X117499952Y-123401819D02*
X117499952Y-122401819D01*
X118261857Y-123354200D02*
X118404714Y-123401819D01*
X118404714Y-123401819D02*
X118642809Y-123401819D01*
X118642809Y-123401819D02*
X118738047Y-123354200D01*
X118738047Y-123354200D02*
X118785666Y-123306580D01*
X118785666Y-123306580D02*
X118833285Y-123211342D01*
X118833285Y-123211342D02*
X118833285Y-123116104D01*
X118833285Y-123116104D02*
X118785666Y-123020866D01*
X118785666Y-123020866D02*
X118738047Y-122973247D01*
X118738047Y-122973247D02*
X118642809Y-122925628D01*
X118642809Y-122925628D02*
X118452333Y-122878009D01*
X118452333Y-122878009D02*
X118357095Y-122830390D01*
X118357095Y-122830390D02*
X118309476Y-122782771D01*
X118309476Y-122782771D02*
X118261857Y-122687533D01*
X118261857Y-122687533D02*
X118261857Y-122592295D01*
X118261857Y-122592295D02*
X118309476Y-122497057D01*
X118309476Y-122497057D02*
X118357095Y-122449438D01*
X118357095Y-122449438D02*
X118452333Y-122401819D01*
X118452333Y-122401819D02*
X118690428Y-122401819D01*
X118690428Y-122401819D02*
X118833285Y-122449438D01*
X119214238Y-122497057D02*
X119261857Y-122449438D01*
X119261857Y-122449438D02*
X119357095Y-122401819D01*
X119357095Y-122401819D02*
X119595190Y-122401819D01*
X119595190Y-122401819D02*
X119690428Y-122449438D01*
X119690428Y-122449438D02*
X119738047Y-122497057D01*
X119738047Y-122497057D02*
X119785666Y-122592295D01*
X119785666Y-122592295D02*
X119785666Y-122687533D01*
X119785666Y-122687533D02*
X119738047Y-122830390D01*
X119738047Y-122830390D02*
X119166619Y-123401819D01*
X119166619Y-123401819D02*
X119785666Y-123401819D01*
X120690428Y-122401819D02*
X120214238Y-122401819D01*
X120214238Y-122401819D02*
X120166619Y-122878009D01*
X120166619Y-122878009D02*
X120214238Y-122830390D01*
X120214238Y-122830390D02*
X120309476Y-122782771D01*
X120309476Y-122782771D02*
X120547571Y-122782771D01*
X120547571Y-122782771D02*
X120642809Y-122830390D01*
X120642809Y-122830390D02*
X120690428Y-122878009D01*
X120690428Y-122878009D02*
X120738047Y-122973247D01*
X120738047Y-122973247D02*
X120738047Y-123211342D01*
X120738047Y-123211342D02*
X120690428Y-123306580D01*
X120690428Y-123306580D02*
X120642809Y-123354200D01*
X120642809Y-123354200D02*
X120547571Y-123401819D01*
X120547571Y-123401819D02*
X120309476Y-123401819D01*
X120309476Y-123401819D02*
X120214238Y-123354200D01*
X120214238Y-123354200D02*
X120166619Y-123306580D01*
X121690428Y-123401819D02*
X121119000Y-123401819D01*
X121404714Y-123401819D02*
X121404714Y-122401819D01*
X121404714Y-122401819D02*
X121309476Y-122544676D01*
X121309476Y-122544676D02*
X121214238Y-122639914D01*
X121214238Y-122639914D02*
X121119000Y-122687533D01*
D11*
X135159524Y-100503855D02*
X135159524Y-99703855D01*
X135159524Y-99703855D02*
X135350000Y-99703855D01*
X135350000Y-99703855D02*
X135464286Y-99741950D01*
X135464286Y-99741950D02*
X135540476Y-99818140D01*
X135540476Y-99818140D02*
X135578571Y-99894331D01*
X135578571Y-99894331D02*
X135616667Y-100046712D01*
X135616667Y-100046712D02*
X135616667Y-100160998D01*
X135616667Y-100160998D02*
X135578571Y-100313379D01*
X135578571Y-100313379D02*
X135540476Y-100389569D01*
X135540476Y-100389569D02*
X135464286Y-100465760D01*
X135464286Y-100465760D02*
X135350000Y-100503855D01*
X135350000Y-100503855D02*
X135159524Y-100503855D01*
X136340476Y-99703855D02*
X135959524Y-99703855D01*
X135959524Y-99703855D02*
X135921428Y-100084807D01*
X135921428Y-100084807D02*
X135959524Y-100046712D01*
X135959524Y-100046712D02*
X136035714Y-100008617D01*
X136035714Y-100008617D02*
X136226190Y-100008617D01*
X136226190Y-100008617D02*
X136302381Y-100046712D01*
X136302381Y-100046712D02*
X136340476Y-100084807D01*
X136340476Y-100084807D02*
X136378571Y-100160998D01*
X136378571Y-100160998D02*
X136378571Y-100351474D01*
X136378571Y-100351474D02*
X136340476Y-100427664D01*
X136340476Y-100427664D02*
X136302381Y-100465760D01*
X136302381Y-100465760D02*
X136226190Y-100503855D01*
X136226190Y-100503855D02*
X136035714Y-100503855D01*
X136035714Y-100503855D02*
X135959524Y-100465760D01*
X135959524Y-100465760D02*
X135921428Y-100427664D01*
D10*
X131322857Y-34316200D02*
X131465714Y-34363819D01*
X131465714Y-34363819D02*
X131703809Y-34363819D01*
X131703809Y-34363819D02*
X131799047Y-34316200D01*
X131799047Y-34316200D02*
X131846666Y-34268580D01*
X131846666Y-34268580D02*
X131894285Y-34173342D01*
X131894285Y-34173342D02*
X131894285Y-34078104D01*
X131894285Y-34078104D02*
X131846666Y-33982866D01*
X131846666Y-33982866D02*
X131799047Y-33935247D01*
X131799047Y-33935247D02*
X131703809Y-33887628D01*
X131703809Y-33887628D02*
X131513333Y-33840009D01*
X131513333Y-33840009D02*
X131418095Y-33792390D01*
X131418095Y-33792390D02*
X131370476Y-33744771D01*
X131370476Y-33744771D02*
X131322857Y-33649533D01*
X131322857Y-33649533D02*
X131322857Y-33554295D01*
X131322857Y-33554295D02*
X131370476Y-33459057D01*
X131370476Y-33459057D02*
X131418095Y-33411438D01*
X131418095Y-33411438D02*
X131513333Y-33363819D01*
X131513333Y-33363819D02*
X131751428Y-33363819D01*
X131751428Y-33363819D02*
X131894285Y-33411438D01*
X132322857Y-34363819D02*
X132322857Y-33363819D01*
X132322857Y-33840009D02*
X132894285Y-33840009D01*
X132894285Y-34363819D02*
X132894285Y-33363819D01*
X133370476Y-34363819D02*
X133370476Y-33363819D01*
X134179999Y-33840009D02*
X133846666Y-33840009D01*
X133846666Y-34363819D02*
X133846666Y-33363819D01*
X133846666Y-33363819D02*
X134322856Y-33363819D01*
X134560952Y-33363819D02*
X135132380Y-33363819D01*
X134846666Y-34363819D02*
X134846666Y-33363819D01*
D11*
X135159524Y-110663855D02*
X135159524Y-109863855D01*
X135159524Y-109863855D02*
X135350000Y-109863855D01*
X135350000Y-109863855D02*
X135464286Y-109901950D01*
X135464286Y-109901950D02*
X135540476Y-109978140D01*
X135540476Y-109978140D02*
X135578571Y-110054331D01*
X135578571Y-110054331D02*
X135616667Y-110206712D01*
X135616667Y-110206712D02*
X135616667Y-110320998D01*
X135616667Y-110320998D02*
X135578571Y-110473379D01*
X135578571Y-110473379D02*
X135540476Y-110549569D01*
X135540476Y-110549569D02*
X135464286Y-110625760D01*
X135464286Y-110625760D02*
X135350000Y-110663855D01*
X135350000Y-110663855D02*
X135159524Y-110663855D01*
X135997619Y-110663855D02*
X136150000Y-110663855D01*
X136150000Y-110663855D02*
X136226190Y-110625760D01*
X136226190Y-110625760D02*
X136264286Y-110587664D01*
X136264286Y-110587664D02*
X136340476Y-110473379D01*
X136340476Y-110473379D02*
X136378571Y-110320998D01*
X136378571Y-110320998D02*
X136378571Y-110016236D01*
X136378571Y-110016236D02*
X136340476Y-109940045D01*
X136340476Y-109940045D02*
X136302381Y-109901950D01*
X136302381Y-109901950D02*
X136226190Y-109863855D01*
X136226190Y-109863855D02*
X136073809Y-109863855D01*
X136073809Y-109863855D02*
X135997619Y-109901950D01*
X135997619Y-109901950D02*
X135959524Y-109940045D01*
X135959524Y-109940045D02*
X135921428Y-110016236D01*
X135921428Y-110016236D02*
X135921428Y-110206712D01*
X135921428Y-110206712D02*
X135959524Y-110282902D01*
X135959524Y-110282902D02*
X135997619Y-110320998D01*
X135997619Y-110320998D02*
X136073809Y-110359093D01*
X136073809Y-110359093D02*
X136226190Y-110359093D01*
X136226190Y-110359093D02*
X136302381Y-110320998D01*
X136302381Y-110320998D02*
X136340476Y-110282902D01*
X136340476Y-110282902D02*
X136378571Y-110206712D01*
%TO.C,U6*%
X142910000Y-42260000D02*
X142910000Y-44930000D01*
X142910000Y-47470000D02*
X142910000Y-85700000D01*
X142910000Y-85700000D02*
X160950000Y-85700000D01*
X145580000Y-44930000D02*
X142910000Y-44930000D01*
X145580000Y-47470000D02*
X142910000Y-47470000D01*
X145580000Y-47470000D02*
X145580000Y-44930000D01*
X145580000Y-47470000D02*
X145580000Y-83030000D01*
X145580000Y-83030000D02*
X142910000Y-83030000D01*
X158280000Y-44930000D02*
X158280000Y-83030000D01*
X158280000Y-44930000D02*
X160950000Y-44930000D01*
X158280000Y-83030000D02*
X160950000Y-83030000D01*
X160950000Y-42260000D02*
X142910000Y-42260000D01*
X160950000Y-85700000D02*
X160950000Y-42260000D01*
%TO.C,J2*%
X143909000Y-41427000D02*
X143909000Y-28427000D01*
X160109000Y-28427000D02*
X143909000Y-28427000D01*
X160109000Y-41427000D02*
X143909000Y-41427000D01*
X160109000Y-41427000D02*
X160109000Y-28427000D01*
%TO.C,R3*%
X139680000Y-49025000D02*
X139680000Y-52865000D01*
X139680000Y-52865000D02*
X141520000Y-52865000D01*
X140600000Y-48075000D02*
X140600000Y-49025000D01*
X140600000Y-53815000D02*
X140600000Y-52865000D01*
X141520000Y-49025000D02*
X139680000Y-49025000D01*
X141520000Y-52865000D02*
X141520000Y-49025000D01*
%TO.C,D14*%
X123940000Y-29781000D02*
X123940000Y-29625000D01*
X123940000Y-32097000D02*
X123940000Y-31941000D01*
X120707666Y-29782392D02*
G75*
G02*
X123939999Y-29625485I1672334J-1078608D01*
G01*
X121338871Y-29781164D02*
G75*
G02*
X123420960Y-29781001I1041129J-1079836D01*
G01*
X123420960Y-31940999D02*
G75*
G02*
X121338871Y-31940836I-1040960J1079999D01*
G01*
X123939999Y-32096515D02*
G75*
G02*
X120707666Y-31939608I-1559999J1235515D01*
G01*
%TO.C,D6*%
X133280000Y-102680000D02*
X133930000Y-102680000D01*
X133930000Y-101560000D02*
X133930000Y-103800000D01*
X133930000Y-103800000D02*
X138170000Y-103800000D01*
X137330000Y-103800000D02*
X137330000Y-101560000D01*
X137450000Y-103800000D02*
X137450000Y-101560000D01*
X137570000Y-103800000D02*
X137570000Y-101560000D01*
X138170000Y-101560000D02*
X133930000Y-101560000D01*
X138170000Y-103800000D02*
X138170000Y-101560000D01*
X138820000Y-102680000D02*
X138170000Y-102680000D01*
%TO.C,R6*%
X75980000Y-126875000D02*
X76930000Y-126875000D01*
X76930000Y-125955000D02*
X76930000Y-127795000D01*
X76930000Y-127795000D02*
X80770000Y-127795000D01*
X80770000Y-125955000D02*
X76930000Y-125955000D01*
X80770000Y-127795000D02*
X80770000Y-125955000D01*
X81720000Y-126875000D02*
X80770000Y-126875000D01*
%TO.C,R7*%
X75980000Y-124750000D02*
X76930000Y-124750000D01*
X76930000Y-123830000D02*
X76930000Y-125670000D01*
X76930000Y-125670000D02*
X80770000Y-125670000D01*
X80770000Y-123830000D02*
X76930000Y-123830000D01*
X80770000Y-125670000D02*
X80770000Y-123830000D01*
X81720000Y-124750000D02*
X80770000Y-124750000D01*
%TO.C,D10*%
X133280000Y-112840000D02*
X133930000Y-112840000D01*
X133930000Y-111720000D02*
X133930000Y-113960000D01*
X133930000Y-113960000D02*
X138170000Y-113960000D01*
X137330000Y-113960000D02*
X137330000Y-111720000D01*
X137450000Y-113960000D02*
X137450000Y-111720000D01*
X137570000Y-113960000D02*
X137570000Y-111720000D01*
X138170000Y-111720000D02*
X133930000Y-111720000D01*
X138170000Y-113960000D02*
X138170000Y-111720000D01*
X138820000Y-112840000D02*
X138170000Y-112840000D01*
%TO.C,D3*%
X133280000Y-95060000D02*
X133930000Y-95060000D01*
X133930000Y-93940000D02*
X133930000Y-96180000D01*
X133930000Y-96180000D02*
X138170000Y-96180000D01*
X137330000Y-96180000D02*
X137330000Y-93940000D01*
X137450000Y-96180000D02*
X137450000Y-93940000D01*
X137570000Y-96180000D02*
X137570000Y-93940000D01*
X138170000Y-93940000D02*
X133930000Y-93940000D01*
X138170000Y-96180000D02*
X138170000Y-93940000D01*
X138820000Y-95060000D02*
X138170000Y-95060000D01*
%TO.C,C4*%
X144617000Y-109465000D02*
X144617000Y-109450000D01*
X144617000Y-111590000D02*
X144617000Y-111575000D01*
X149157000Y-109450000D02*
X144617000Y-109450000D01*
X149157000Y-109465000D02*
X149157000Y-109450000D01*
X149157000Y-111590000D02*
X144617000Y-111590000D01*
X149157000Y-111590000D02*
X149157000Y-111575000D01*
%TO.C,J1*%
X74128000Y-117177000D02*
X74128000Y-115847000D01*
X75458000Y-117177000D02*
X74128000Y-117177000D01*
X76728000Y-114517000D02*
X117428000Y-114517000D01*
X76728000Y-117177000D02*
X76728000Y-114517000D01*
X76728000Y-117177000D02*
X117428000Y-117177000D01*
X117428000Y-117177000D02*
X117428000Y-114517000D01*
%TO.C,D7*%
X133280000Y-105220000D02*
X133930000Y-105220000D01*
X133930000Y-104100000D02*
X133930000Y-106340000D01*
X133930000Y-106340000D02*
X138170000Y-106340000D01*
X137330000Y-106340000D02*
X137330000Y-104100000D01*
X137450000Y-106340000D02*
X137450000Y-104100000D01*
X137570000Y-106340000D02*
X137570000Y-104100000D01*
X138170000Y-104100000D02*
X133930000Y-104100000D01*
X138170000Y-106340000D02*
X138170000Y-104100000D01*
X138820000Y-105220000D02*
X138170000Y-105220000D01*
%TO.C,C1*%
X84410000Y-120677000D02*
X84410000Y-125217000D01*
X84425000Y-120677000D02*
X84410000Y-120677000D01*
X84425000Y-125217000D02*
X84410000Y-125217000D01*
X86550000Y-120677000D02*
X86535000Y-120677000D01*
X86550000Y-120677000D02*
X86550000Y-125217000D01*
X86550000Y-125217000D02*
X86535000Y-125217000D01*
%TO.C,U7*%
X147995000Y-55030000D02*
X147995000Y-72870000D01*
X147995000Y-72870000D02*
X160915000Y-72870000D01*
X149375000Y-58900000D02*
X159535000Y-58900000D01*
X149375000Y-71854000D02*
X149375000Y-58900000D01*
X151915000Y-55030000D02*
X147995000Y-55030000D01*
X151915000Y-58138000D02*
X151915000Y-55030000D01*
X156995000Y-55030000D02*
X156995000Y-58138000D01*
X156995000Y-58138000D02*
X151915000Y-58138000D01*
X159535000Y-58900000D02*
X159535000Y-71854000D01*
X159535000Y-71854000D02*
X149375000Y-71854000D01*
X160915000Y-55030000D02*
X156995000Y-55030000D01*
X160915000Y-72870000D02*
X160915000Y-55030000D01*
%TO.C,R4*%
X139680000Y-68150000D02*
X139680000Y-71990000D01*
X139680000Y-71990000D02*
X141520000Y-71990000D01*
X140600000Y-67200000D02*
X140600000Y-68150000D01*
X140600000Y-72940000D02*
X140600000Y-71990000D01*
X141520000Y-68150000D02*
X139680000Y-68150000D01*
X141520000Y-71990000D02*
X141520000Y-68150000D01*
%TO.C,C3*%
X142090000Y-115455000D02*
X142090000Y-119995000D01*
X142105000Y-115455000D02*
X142090000Y-115455000D01*
X142105000Y-119995000D02*
X142090000Y-119995000D01*
X144230000Y-115455000D02*
X144215000Y-115455000D01*
X144230000Y-115455000D02*
X144230000Y-119995000D01*
X144230000Y-119995000D02*
X144215000Y-119995000D01*
%TO.C,U5*%
X120204000Y-36842000D02*
X120204000Y-87882000D01*
X120204000Y-87882000D02*
X138104000Y-87882000D01*
X122694000Y-36902000D02*
X122694000Y-87822000D01*
X122694000Y-87822000D02*
X135614000Y-87822000D01*
X128154000Y-36902000D02*
X122694000Y-36902000D01*
X135614000Y-36902000D02*
X130154000Y-36902000D01*
X135614000Y-87822000D02*
X135614000Y-36902000D01*
X138104000Y-36842000D02*
X120204000Y-36842000D01*
X138104000Y-87882000D02*
X138104000Y-36842000D01*
X130154000Y-36902000D02*
G75*
G02*
X128154000Y-36902000I-1000000J0D01*
G01*
%TO.C,Q2*%
X76945000Y-122050000D02*
X80545000Y-122050000D01*
X76388601Y-119101193D02*
G75*
G02*
X78745000Y-117600001I2356399J-1098807D01*
G01*
X76945001Y-122049999D02*
G75*
G02*
X76420817Y-121322795I1799999J1849999D01*
G01*
X78745000Y-117600000D02*
G75*
G02*
X81101400Y-119101193I0J-2600000D01*
G01*
X81069183Y-121322795D02*
G75*
G02*
X80544999Y-122049999I-2324183J1122795D01*
G01*
%TO.C,D13*%
X129358000Y-29781000D02*
X129358000Y-29625000D01*
X129358000Y-32097000D02*
X129358000Y-31941000D01*
X126125666Y-29782392D02*
G75*
G02*
X129357999Y-29625485I1672334J-1078608D01*
G01*
X126756871Y-29781164D02*
G75*
G02*
X128838960Y-29781001I1041129J-1079836D01*
G01*
X128838960Y-31940999D02*
G75*
G02*
X126756871Y-31940836I-1040960J1079999D01*
G01*
X129357999Y-32096515D02*
G75*
G02*
X126125666Y-31939608I-1559999J1235515D01*
G01*
%TO.C,R2*%
X139680000Y-58575000D02*
X139680000Y-62415000D01*
X139680000Y-62415000D02*
X141520000Y-62415000D01*
X140600000Y-57625000D02*
X140600000Y-58575000D01*
X140600000Y-63365000D02*
X140600000Y-62415000D01*
X141520000Y-58575000D02*
X139680000Y-58575000D01*
X141520000Y-62415000D02*
X141520000Y-58575000D01*
%TO.C,D1*%
X133280000Y-89980000D02*
X133930000Y-89980000D01*
X133930000Y-88860000D02*
X133930000Y-91100000D01*
X133930000Y-91100000D02*
X138170000Y-91100000D01*
X137330000Y-91100000D02*
X137330000Y-88860000D01*
X137450000Y-91100000D02*
X137450000Y-88860000D01*
X137570000Y-91100000D02*
X137570000Y-88860000D01*
X138170000Y-88860000D02*
X133930000Y-88860000D01*
X138170000Y-91100000D02*
X138170000Y-88860000D01*
X138820000Y-89980000D02*
X138170000Y-89980000D01*
%TO.C,D15*%
X140155000Y-29781000D02*
X140155000Y-29625000D01*
X140155000Y-32097000D02*
X140155000Y-31941000D01*
X136922666Y-29782392D02*
G75*
G02*
X140154999Y-29625485I1672334J-1078608D01*
G01*
X137553871Y-29781164D02*
G75*
G02*
X139635960Y-29781001I1041129J-1079836D01*
G01*
X139635960Y-31940999D02*
G75*
G02*
X137553871Y-31940836I-1040960J1079999D01*
G01*
X140154999Y-32096515D02*
G75*
G02*
X136922666Y-31939608I-1559999J1235515D01*
G01*
%TO.C,U3*%
X144185000Y-88630000D02*
X144185000Y-109070000D01*
X144185000Y-109070000D02*
X149485000Y-109070000D01*
X145835000Y-88630000D02*
X144185000Y-88630000D01*
X149485000Y-88630000D02*
X147835000Y-88630000D01*
X149485000Y-109070000D02*
X149485000Y-88630000D01*
X147835000Y-88630000D02*
G75*
G02*
X145835000Y-88630000I-1000000J0D01*
G01*
%TO.C,D4*%
X133280000Y-97600000D02*
X133930000Y-97600000D01*
X133930000Y-96480000D02*
X133930000Y-98720000D01*
X133930000Y-98720000D02*
X138170000Y-98720000D01*
X137330000Y-98720000D02*
X137330000Y-96480000D01*
X137450000Y-98720000D02*
X137450000Y-96480000D01*
X137570000Y-98720000D02*
X137570000Y-96480000D01*
X138170000Y-96480000D02*
X133930000Y-96480000D01*
X138170000Y-98720000D02*
X138170000Y-96480000D01*
X138820000Y-97600000D02*
X138170000Y-97600000D01*
%TO.C,C2*%
X128735000Y-120677000D02*
X128735000Y-125217000D01*
X128750000Y-120677000D02*
X128735000Y-120677000D01*
X128750000Y-125217000D02*
X128735000Y-125217000D01*
X130875000Y-120677000D02*
X130860000Y-120677000D01*
X130875000Y-120677000D02*
X130875000Y-125217000D01*
X130875000Y-125217000D02*
X130860000Y-125217000D01*
%TO.C,SW1*%
X123085000Y-93740000D02*
X123085000Y-114180000D01*
X123085000Y-114180000D02*
X128385000Y-114180000D01*
X124735000Y-93740000D02*
X123085000Y-93740000D01*
X128385000Y-93740000D02*
X126735000Y-93740000D01*
X128385000Y-114180000D02*
X128385000Y-93740000D01*
X126735000Y-93740000D02*
G75*
G02*
X124735000Y-93740000I-1000000J0D01*
G01*
%TO.C,R1*%
X139680000Y-39465000D02*
X139680000Y-43305000D01*
X139680000Y-43305000D02*
X141520000Y-43305000D01*
X140600000Y-38515000D02*
X140600000Y-39465000D01*
X140600000Y-44255000D02*
X140600000Y-43305000D01*
X141520000Y-39465000D02*
X139680000Y-39465000D01*
X141520000Y-43305000D02*
X141520000Y-39465000D01*
%TO.C,RN1*%
X139580000Y-123155000D02*
X139580000Y-125955000D01*
X139580000Y-125955000D02*
X162780000Y-125955000D01*
X160070000Y-125955000D02*
X160070000Y-123155000D01*
X162780000Y-123155000D02*
X139580000Y-123155000D01*
X162780000Y-125955000D02*
X162780000Y-123155000D01*
%TO.C,U1*%
X86951000Y-120287000D02*
X86951000Y-121937000D01*
X86951000Y-123937000D02*
X86951000Y-125587000D01*
X86951000Y-125587000D02*
X107391000Y-125587000D01*
X107391000Y-120287000D02*
X86951000Y-120287000D01*
X107391000Y-125587000D02*
X107391000Y-120287000D01*
X86951000Y-121937000D02*
G75*
G02*
X86951000Y-123937000I0J-1000000D01*
G01*
%TO.C,D2*%
X133280000Y-92520000D02*
X133930000Y-92520000D01*
X133930000Y-91400000D02*
X133930000Y-93640000D01*
X133930000Y-93640000D02*
X138170000Y-93640000D01*
X137330000Y-93640000D02*
X137330000Y-91400000D01*
X137450000Y-93640000D02*
X137450000Y-91400000D01*
X137570000Y-93640000D02*
X137570000Y-91400000D01*
X138170000Y-91400000D02*
X133930000Y-91400000D01*
X138170000Y-93640000D02*
X138170000Y-91400000D01*
X138820000Y-92520000D02*
X138170000Y-92520000D01*
%TO.C,J3*%
X74130000Y-113505000D02*
X74130000Y-112175000D01*
X75460000Y-113505000D02*
X74130000Y-113505000D01*
X76730000Y-110845000D02*
X117430000Y-110845000D01*
X76730000Y-113505000D02*
X76730000Y-110845000D01*
X76730000Y-113505000D02*
X117430000Y-113505000D01*
X117430000Y-113505000D02*
X117430000Y-110845000D01*
%TO.C,U4*%
X144730000Y-115290000D02*
X144730000Y-116940000D01*
X144730000Y-118940000D02*
X144730000Y-120590000D01*
X144730000Y-120590000D02*
X162630000Y-120590000D01*
X162630000Y-115290000D02*
X144730000Y-115290000D01*
X162630000Y-120590000D02*
X162630000Y-115290000D01*
X144730000Y-116940000D02*
G75*
G02*
X144730000Y-118940000I0J-1000000D01*
G01*
%TO.C,D8*%
X133280000Y-107760000D02*
X133930000Y-107760000D01*
X133930000Y-106640000D02*
X133930000Y-108880000D01*
X133930000Y-108880000D02*
X138170000Y-108880000D01*
X137330000Y-108880000D02*
X137330000Y-106640000D01*
X137450000Y-108880000D02*
X137450000Y-106640000D01*
X137570000Y-108880000D02*
X137570000Y-106640000D01*
X138170000Y-106640000D02*
X133930000Y-106640000D01*
X138170000Y-108880000D02*
X138170000Y-106640000D01*
X138820000Y-107760000D02*
X138170000Y-107760000D01*
%TO.C,U2*%
X107906000Y-120287000D02*
X107906000Y-121937000D01*
X107906000Y-123937000D02*
X107906000Y-125587000D01*
X107906000Y-125587000D02*
X128346000Y-125587000D01*
X128346000Y-120287000D02*
X107906000Y-120287000D01*
X128346000Y-125587000D02*
X128346000Y-120287000D01*
X107906000Y-121937000D02*
G75*
G02*
X107906000Y-123937000I0J-1000000D01*
G01*
%TO.C,D5*%
X133280000Y-100140000D02*
X133930000Y-100140000D01*
X133930000Y-99020000D02*
X133930000Y-101260000D01*
X133930000Y-101260000D02*
X138170000Y-101260000D01*
X137330000Y-101260000D02*
X137330000Y-99020000D01*
X137450000Y-101260000D02*
X137450000Y-99020000D01*
X137570000Y-101260000D02*
X137570000Y-99020000D01*
X138170000Y-99020000D02*
X133930000Y-99020000D01*
X138170000Y-101260000D02*
X138170000Y-99020000D01*
X138820000Y-100140000D02*
X138170000Y-100140000D01*
%TO.C,D12*%
X134740000Y-29781000D02*
X134740000Y-29625000D01*
X134740000Y-32097000D02*
X134740000Y-31941000D01*
X131507666Y-29782392D02*
G75*
G02*
X134739999Y-29625485I1672334J-1078608D01*
G01*
X132138871Y-29781164D02*
G75*
G02*
X134220960Y-29781001I1041129J-1079836D01*
G01*
X134220960Y-31940999D02*
G75*
G02*
X132138871Y-31940836I-1040960J1079999D01*
G01*
X134739999Y-32096515D02*
G75*
G02*
X131507666Y-31939608I-1559999J1235515D01*
G01*
%TO.C,D9*%
X133280000Y-110300000D02*
X133930000Y-110300000D01*
X133930000Y-109180000D02*
X133930000Y-111420000D01*
X133930000Y-111420000D02*
X138170000Y-111420000D01*
X137330000Y-111420000D02*
X137330000Y-109180000D01*
X137450000Y-111420000D02*
X137450000Y-109180000D01*
X137570000Y-111420000D02*
X137570000Y-109180000D01*
X138170000Y-109180000D02*
X133930000Y-109180000D01*
X138170000Y-111420000D02*
X138170000Y-109180000D01*
X138820000Y-110300000D02*
X138170000Y-110300000D01*
%TD*%
M02*
