%TF.GenerationSoftware,KiCad,Pcbnew,8.0.1*%
%TF.CreationDate,2024-06-09T23:46:05+01:00*%
%TF.ProjectId,BBC-PS2,4242432d-5053-4322-9e6b-696361645f70,rev?*%
%TF.SameCoordinates,Original*%
%TF.FileFunction,Legend,Bot*%
%TF.FilePolarity,Positive*%
%FSLAX46Y46*%
G04 Gerber Fmt 4.6, Leading zero omitted, Abs format (unit mm)*
G04 Created by KiCad (PCBNEW 8.0.1) date 2024-06-09 23:46:05*
%MOMM*%
%LPD*%
G01*
G04 APERTURE LIST*
%ADD10C,0.150000*%
G04 APERTURE END LIST*
D10*
X162229819Y-29744045D02*
X162229819Y-30315473D01*
X163229819Y-30029759D02*
X162229819Y-30029759D01*
X163229819Y-30648807D02*
X162229819Y-30648807D01*
X163229819Y-31077378D02*
X162706009Y-31077378D01*
X162706009Y-31077378D02*
X162610771Y-31029759D01*
X162610771Y-31029759D02*
X162563152Y-30934521D01*
X162563152Y-30934521D02*
X162563152Y-30791664D01*
X162563152Y-30791664D02*
X162610771Y-30696426D01*
X162610771Y-30696426D02*
X162658390Y-30648807D01*
X163229819Y-31982140D02*
X162706009Y-31982140D01*
X162706009Y-31982140D02*
X162610771Y-31934521D01*
X162610771Y-31934521D02*
X162563152Y-31839283D01*
X162563152Y-31839283D02*
X162563152Y-31648807D01*
X162563152Y-31648807D02*
X162610771Y-31553569D01*
X163182200Y-31982140D02*
X163229819Y-31886902D01*
X163229819Y-31886902D02*
X163229819Y-31648807D01*
X163229819Y-31648807D02*
X163182200Y-31553569D01*
X163182200Y-31553569D02*
X163086961Y-31505950D01*
X163086961Y-31505950D02*
X162991723Y-31505950D01*
X162991723Y-31505950D02*
X162896485Y-31553569D01*
X162896485Y-31553569D02*
X162848866Y-31648807D01*
X162848866Y-31648807D02*
X162848866Y-31886902D01*
X162848866Y-31886902D02*
X162801247Y-31982140D01*
X162563152Y-32458331D02*
X163229819Y-32458331D01*
X162658390Y-32458331D02*
X162610771Y-32505950D01*
X162610771Y-32505950D02*
X162563152Y-32601188D01*
X162563152Y-32601188D02*
X162563152Y-32744045D01*
X162563152Y-32744045D02*
X162610771Y-32839283D01*
X162610771Y-32839283D02*
X162706009Y-32886902D01*
X162706009Y-32886902D02*
X163229819Y-32886902D01*
X163229819Y-33363093D02*
X162229819Y-33363093D01*
X162848866Y-33458331D02*
X163229819Y-33744045D01*
X162563152Y-33744045D02*
X162944104Y-33363093D01*
X163182200Y-34124998D02*
X163229819Y-34220236D01*
X163229819Y-34220236D02*
X163229819Y-34410712D01*
X163229819Y-34410712D02*
X163182200Y-34505950D01*
X163182200Y-34505950D02*
X163086961Y-34553569D01*
X163086961Y-34553569D02*
X163039342Y-34553569D01*
X163039342Y-34553569D02*
X162944104Y-34505950D01*
X162944104Y-34505950D02*
X162896485Y-34410712D01*
X162896485Y-34410712D02*
X162896485Y-34267855D01*
X162896485Y-34267855D02*
X162848866Y-34172617D01*
X162848866Y-34172617D02*
X162753628Y-34124998D01*
X162753628Y-34124998D02*
X162706009Y-34124998D01*
X162706009Y-34124998D02*
X162610771Y-34172617D01*
X162610771Y-34172617D02*
X162563152Y-34267855D01*
X162563152Y-34267855D02*
X162563152Y-34410712D01*
X162563152Y-34410712D02*
X162610771Y-34505950D01*
X162563152Y-35601189D02*
X162563152Y-35982141D01*
X162229819Y-35744046D02*
X163086961Y-35744046D01*
X163086961Y-35744046D02*
X163182200Y-35791665D01*
X163182200Y-35791665D02*
X163229819Y-35886903D01*
X163229819Y-35886903D02*
X163229819Y-35982141D01*
X163229819Y-36458332D02*
X163182200Y-36363094D01*
X163182200Y-36363094D02*
X163134580Y-36315475D01*
X163134580Y-36315475D02*
X163039342Y-36267856D01*
X163039342Y-36267856D02*
X162753628Y-36267856D01*
X162753628Y-36267856D02*
X162658390Y-36315475D01*
X162658390Y-36315475D02*
X162610771Y-36363094D01*
X162610771Y-36363094D02*
X162563152Y-36458332D01*
X162563152Y-36458332D02*
X162563152Y-36601189D01*
X162563152Y-36601189D02*
X162610771Y-36696427D01*
X162610771Y-36696427D02*
X162658390Y-36744046D01*
X162658390Y-36744046D02*
X162753628Y-36791665D01*
X162753628Y-36791665D02*
X163039342Y-36791665D01*
X163039342Y-36791665D02*
X163134580Y-36744046D01*
X163134580Y-36744046D02*
X163182200Y-36696427D01*
X163182200Y-36696427D02*
X163229819Y-36601189D01*
X163229819Y-36601189D02*
X163229819Y-36458332D01*
X163229819Y-38553570D02*
X162753628Y-38220237D01*
X163229819Y-37982142D02*
X162229819Y-37982142D01*
X162229819Y-37982142D02*
X162229819Y-38363094D01*
X162229819Y-38363094D02*
X162277438Y-38458332D01*
X162277438Y-38458332D02*
X162325057Y-38505951D01*
X162325057Y-38505951D02*
X162420295Y-38553570D01*
X162420295Y-38553570D02*
X162563152Y-38553570D01*
X162563152Y-38553570D02*
X162658390Y-38505951D01*
X162658390Y-38505951D02*
X162706009Y-38458332D01*
X162706009Y-38458332D02*
X162753628Y-38363094D01*
X162753628Y-38363094D02*
X162753628Y-37982142D01*
X163229819Y-39124999D02*
X163182200Y-39029761D01*
X163182200Y-39029761D02*
X163134580Y-38982142D01*
X163134580Y-38982142D02*
X163039342Y-38934523D01*
X163039342Y-38934523D02*
X162753628Y-38934523D01*
X162753628Y-38934523D02*
X162658390Y-38982142D01*
X162658390Y-38982142D02*
X162610771Y-39029761D01*
X162610771Y-39029761D02*
X162563152Y-39124999D01*
X162563152Y-39124999D02*
X162563152Y-39267856D01*
X162563152Y-39267856D02*
X162610771Y-39363094D01*
X162610771Y-39363094D02*
X162658390Y-39410713D01*
X162658390Y-39410713D02*
X162753628Y-39458332D01*
X162753628Y-39458332D02*
X163039342Y-39458332D01*
X163039342Y-39458332D02*
X163134580Y-39410713D01*
X163134580Y-39410713D02*
X163182200Y-39363094D01*
X163182200Y-39363094D02*
X163229819Y-39267856D01*
X163229819Y-39267856D02*
X163229819Y-39124999D01*
X163229819Y-39886904D02*
X162229819Y-39886904D01*
X162610771Y-39886904D02*
X162563152Y-39982142D01*
X162563152Y-39982142D02*
X162563152Y-40172618D01*
X162563152Y-40172618D02*
X162610771Y-40267856D01*
X162610771Y-40267856D02*
X162658390Y-40315475D01*
X162658390Y-40315475D02*
X162753628Y-40363094D01*
X162753628Y-40363094D02*
X163039342Y-40363094D01*
X163039342Y-40363094D02*
X163134580Y-40315475D01*
X163134580Y-40315475D02*
X163182200Y-40267856D01*
X163182200Y-40267856D02*
X163229819Y-40172618D01*
X163229819Y-40172618D02*
X163229819Y-39982142D01*
X163229819Y-39982142D02*
X163182200Y-39886904D01*
X162229819Y-41505952D02*
X162420295Y-41505952D01*
X162229819Y-41886904D02*
X162420295Y-41886904D01*
X163229819Y-42315476D02*
X162229819Y-42315476D01*
X162229819Y-42315476D02*
X162229819Y-42696428D01*
X162229819Y-42696428D02*
X162277438Y-42791666D01*
X162277438Y-42791666D02*
X162325057Y-42839285D01*
X162325057Y-42839285D02*
X162420295Y-42886904D01*
X162420295Y-42886904D02*
X162563152Y-42886904D01*
X162563152Y-42886904D02*
X162658390Y-42839285D01*
X162658390Y-42839285D02*
X162706009Y-42791666D01*
X162706009Y-42791666D02*
X162753628Y-42696428D01*
X162753628Y-42696428D02*
X162753628Y-42315476D01*
X163182200Y-43696428D02*
X163229819Y-43601190D01*
X163229819Y-43601190D02*
X163229819Y-43410714D01*
X163229819Y-43410714D02*
X163182200Y-43315476D01*
X163182200Y-43315476D02*
X163086961Y-43267857D01*
X163086961Y-43267857D02*
X162706009Y-43267857D01*
X162706009Y-43267857D02*
X162610771Y-43315476D01*
X162610771Y-43315476D02*
X162563152Y-43410714D01*
X162563152Y-43410714D02*
X162563152Y-43601190D01*
X162563152Y-43601190D02*
X162610771Y-43696428D01*
X162610771Y-43696428D02*
X162706009Y-43744047D01*
X162706009Y-43744047D02*
X162801247Y-43744047D01*
X162801247Y-43744047D02*
X162896485Y-43267857D01*
X163182200Y-44553571D02*
X163229819Y-44458333D01*
X163229819Y-44458333D02*
X163229819Y-44267857D01*
X163229819Y-44267857D02*
X163182200Y-44172619D01*
X163182200Y-44172619D02*
X163086961Y-44125000D01*
X163086961Y-44125000D02*
X162706009Y-44125000D01*
X162706009Y-44125000D02*
X162610771Y-44172619D01*
X162610771Y-44172619D02*
X162563152Y-44267857D01*
X162563152Y-44267857D02*
X162563152Y-44458333D01*
X162563152Y-44458333D02*
X162610771Y-44553571D01*
X162610771Y-44553571D02*
X162706009Y-44601190D01*
X162706009Y-44601190D02*
X162801247Y-44601190D01*
X162801247Y-44601190D02*
X162896485Y-44125000D01*
X162563152Y-45029762D02*
X163563152Y-45029762D01*
X162610771Y-45029762D02*
X162563152Y-45125000D01*
X162563152Y-45125000D02*
X162563152Y-45315476D01*
X162563152Y-45315476D02*
X162610771Y-45410714D01*
X162610771Y-45410714D02*
X162658390Y-45458333D01*
X162658390Y-45458333D02*
X162753628Y-45505952D01*
X162753628Y-45505952D02*
X163039342Y-45505952D01*
X163039342Y-45505952D02*
X163134580Y-45458333D01*
X163134580Y-45458333D02*
X163182200Y-45410714D01*
X163182200Y-45410714D02*
X163229819Y-45315476D01*
X163229819Y-45315476D02*
X163229819Y-45125000D01*
X163229819Y-45125000D02*
X163182200Y-45029762D01*
X163229819Y-46077381D02*
X163182200Y-45982143D01*
X163182200Y-45982143D02*
X163134580Y-45934524D01*
X163134580Y-45934524D02*
X163039342Y-45886905D01*
X163039342Y-45886905D02*
X162753628Y-45886905D01*
X162753628Y-45886905D02*
X162658390Y-45934524D01*
X162658390Y-45934524D02*
X162610771Y-45982143D01*
X162610771Y-45982143D02*
X162563152Y-46077381D01*
X162563152Y-46077381D02*
X162563152Y-46220238D01*
X162563152Y-46220238D02*
X162610771Y-46315476D01*
X162610771Y-46315476D02*
X162658390Y-46363095D01*
X162658390Y-46363095D02*
X162753628Y-46410714D01*
X162753628Y-46410714D02*
X163039342Y-46410714D01*
X163039342Y-46410714D02*
X163134580Y-46363095D01*
X163134580Y-46363095D02*
X163182200Y-46315476D01*
X163182200Y-46315476D02*
X163229819Y-46220238D01*
X163229819Y-46220238D02*
X163229819Y-46077381D01*
X162229819Y-46791667D02*
X162420295Y-46791667D01*
X162229819Y-47172619D02*
X162420295Y-47172619D01*
X162229819Y-48220239D02*
X162229819Y-48791667D01*
X163229819Y-48505953D02*
X162229819Y-48505953D01*
X163229819Y-49553572D02*
X162706009Y-49553572D01*
X162706009Y-49553572D02*
X162610771Y-49505953D01*
X162610771Y-49505953D02*
X162563152Y-49410715D01*
X162563152Y-49410715D02*
X162563152Y-49220239D01*
X162563152Y-49220239D02*
X162610771Y-49125001D01*
X163182200Y-49553572D02*
X163229819Y-49458334D01*
X163229819Y-49458334D02*
X163229819Y-49220239D01*
X163229819Y-49220239D02*
X163182200Y-49125001D01*
X163182200Y-49125001D02*
X163086961Y-49077382D01*
X163086961Y-49077382D02*
X162991723Y-49077382D01*
X162991723Y-49077382D02*
X162896485Y-49125001D01*
X162896485Y-49125001D02*
X162848866Y-49220239D01*
X162848866Y-49220239D02*
X162848866Y-49458334D01*
X162848866Y-49458334D02*
X162801247Y-49553572D01*
X162563152Y-49934525D02*
X163229819Y-50172620D01*
X162563152Y-50410715D02*
X163229819Y-50172620D01*
X163229819Y-50172620D02*
X163467914Y-50077382D01*
X163467914Y-50077382D02*
X163515533Y-50029763D01*
X163515533Y-50029763D02*
X163563152Y-49934525D01*
X163229819Y-50934525D02*
X163182200Y-50839287D01*
X163182200Y-50839287D02*
X163086961Y-50791668D01*
X163086961Y-50791668D02*
X162229819Y-50791668D01*
X163229819Y-51458335D02*
X163182200Y-51363097D01*
X163182200Y-51363097D02*
X163134580Y-51315478D01*
X163134580Y-51315478D02*
X163039342Y-51267859D01*
X163039342Y-51267859D02*
X162753628Y-51267859D01*
X162753628Y-51267859D02*
X162658390Y-51315478D01*
X162658390Y-51315478D02*
X162610771Y-51363097D01*
X162610771Y-51363097D02*
X162563152Y-51458335D01*
X162563152Y-51458335D02*
X162563152Y-51601192D01*
X162563152Y-51601192D02*
X162610771Y-51696430D01*
X162610771Y-51696430D02*
X162658390Y-51744049D01*
X162658390Y-51744049D02*
X162753628Y-51791668D01*
X162753628Y-51791668D02*
X163039342Y-51791668D01*
X163039342Y-51791668D02*
X163134580Y-51744049D01*
X163134580Y-51744049D02*
X163182200Y-51696430D01*
X163182200Y-51696430D02*
X163229819Y-51601192D01*
X163229819Y-51601192D02*
X163229819Y-51458335D01*
X163229819Y-52220240D02*
X162563152Y-52220240D01*
X162753628Y-52220240D02*
X162658390Y-52267859D01*
X162658390Y-52267859D02*
X162610771Y-52315478D01*
X162610771Y-52315478D02*
X162563152Y-52410716D01*
X162563152Y-52410716D02*
X162563152Y-52505954D01*
M02*
