M48
; DRILL file {KiCad 8.0.1} date 2024-06-09T23:46:03+0100
; FORMAT={-:-/ absolute / inch / decimal}
; #@! TF.CreationDate,2024-06-09T23:46:03+01:00
; #@! TF.GenerationSoftware,Kicad,Pcbnew,8.0.1
; #@! TF.FileFunction,Plated,1,2,PTH
FMAT,2
INCH
; #@! TA.AperFunction,Plated,PTH,ViaDrill
T1C0.0157
; #@! TA.AperFunction,Plated,PTH,ComponentDrill
T2C0.0276
; #@! TA.AperFunction,Plated,PTH,ComponentDrill
T3C0.0315
; #@! TA.AperFunction,Plated,PTH,ComponentDrill
T4C0.0354
; #@! TA.AperFunction,Plated,PTH,ComponentDrill
T5C0.0394
%
G90
G05
T1
X3.3927Y-4.6536
X3.7208Y-4.4875
X4.0209Y-4.4662
X4.061Y-4.8062
X4.1134Y-4.7776
X4.1428Y-4.8987
X4.1987Y-4.8429
X4.2146Y-4.6422
X4.2445Y-4.9359
X4.2952Y-4.7808
X4.3131Y-4.8709
X4.3349Y-4.4952
X4.3868Y-4.7886
X4.6559Y-4.5206
X4.674Y-4.6385
X4.7185Y-4.5842
X4.7372Y-4.4921
X4.7549Y-3.5748
X4.8166Y-4.7755
X4.8622Y-2.9695
X4.8687Y-3.0742
X4.8734Y-3.6545
X4.8878Y-1.8081
X4.8939Y-4.7847
X4.9019Y-3.6211
X4.9262Y-1.3917
X4.9457Y-4.767
X4.9715Y-3.6171
X5.0166Y-4.5206
X5.0385Y-4.5555
X5.0404Y-1.6585
X5.0876Y-3.4341
X5.1004Y-3.5492
X5.1641Y-4.9646
X5.1646Y-4.8462
X5.1654Y-1.6585
X5.2008Y-5.0246
X5.209Y-4.6953
X5.2402Y-5.0146
X5.2408Y-4.7797
X5.2838Y-2.5268
X5.2903Y-4.3871
X5.3073Y-2.7212
X5.3444Y-4.8665
X5.3479Y-2.5582
X5.3524Y-3.7343
X5.3576Y-3.7969
X5.3708Y-4.8371
X5.3772Y-3.9543
X5.4154Y-2.6552
X5.4173Y-4.8306
X5.4211Y-3.9124
X5.5686Y-2.444
X5.6033Y-1.9626
X5.6275Y-2.557
X5.853Y-2.4719
X5.853Y-3.1683
X5.9194Y-1.6258
X5.9262Y-2.6565
X5.9613Y-1.8689
X5.9613Y-2.4719
X6.0238Y-4.4124
X6.04Y-2.7543
X6.073Y-2.8234
X6.0817Y-2.6439
X6.0887Y-2.7345
X6.1526Y-3.5417
X6.2219Y-2.7761
X6.2667Y-4.3512
X6.3297Y-1.8642
T2
X2.9543Y-4.9114
X2.9543Y-4.9951
X3.2543Y-4.9114
X3.2543Y-4.9951
X5.5354Y-1.4793
X5.5354Y-1.7793
X5.5354Y-1.8557
X5.5354Y-2.1557
X5.5354Y-2.2317
X5.5354Y-2.5317
X5.5354Y-2.6087
X5.5354Y-2.9087
T3
X3.0002Y-4.7323
X3.1002Y-4.7323
X3.2002Y-4.7323
X3.3654Y-4.742
X3.3654Y-4.9389
X3.4756Y-4.69
X3.4756Y-4.99
X3.5756Y-4.69
X3.5756Y-4.99
X3.6756Y-4.69
X3.6756Y-4.99
X3.7756Y-4.69
X3.7756Y-4.99
X3.8756Y-4.69
X3.8756Y-4.99
X3.9756Y-4.69
X3.9756Y-4.99
X4.0756Y-4.69
X4.0756Y-4.99
X4.1756Y-4.69
X4.1756Y-4.99
X4.3006Y-4.69
X4.3006Y-4.99
X4.4006Y-4.69
X4.4006Y-4.99
X4.5006Y-4.69
X4.5006Y-4.99
X4.6006Y-4.69
X4.6006Y-4.99
X4.7006Y-4.69
X4.7006Y-4.99
X4.7848Y-1.5052
X4.7848Y-1.6052
X4.7848Y-1.7052
X4.7848Y-1.8052
X4.7848Y-1.9052
X4.7848Y-2.0052
X4.7848Y-2.1052
X4.7848Y-2.2052
X4.7848Y-2.3052
X4.7848Y-2.4052
X4.7848Y-2.5052
X4.7848Y-2.6052
X4.7848Y-2.7052
X4.7848Y-2.8052
X4.7848Y-2.9052
X4.7848Y-3.0052
X4.7848Y-3.1052
X4.7848Y-3.2052
X4.7848Y-3.3052
X4.7848Y-3.4052
X4.8002Y-3.7429
X4.8002Y-3.8429
X4.8002Y-3.9429
X4.8002Y-4.0429
X4.8002Y-4.1429
X4.8002Y-4.2429
X4.8002Y-4.3429
X4.8002Y-4.4429
X4.8006Y-4.69
X4.8006Y-4.99
X4.9006Y-4.69
X4.9006Y-4.99
X5.0006Y-4.69
X5.0006Y-4.99
X5.1002Y-3.7429
X5.1002Y-3.8429
X5.1002Y-3.9429
X5.1002Y-4.0429
X5.1002Y-4.1429
X5.1002Y-4.2429
X5.1002Y-4.3429
X5.1002Y-4.4429
X5.1104Y-4.742
X5.1104Y-4.9389
X5.2063Y-3.5425
X5.2063Y-3.6425
X5.2063Y-3.7425
X5.2063Y-3.8425
X5.2063Y-3.9425
X5.2063Y-4.0425
X5.2063Y-4.1425
X5.2063Y-4.2425
X5.2063Y-4.3425
X5.2063Y-4.4425
X5.3848Y-1.5052
X5.3848Y-1.6052
X5.3848Y-1.7052
X5.3848Y-1.8052
X5.3848Y-1.9052
X5.3848Y-2.0052
X5.3848Y-2.1052
X5.3848Y-2.2052
X5.3848Y-2.3052
X5.3848Y-2.4052
X5.3848Y-2.5052
X5.3848Y-2.6052
X5.3848Y-2.7052
X5.3848Y-2.8052
X5.3848Y-2.9052
X5.3848Y-3.0052
X5.3848Y-3.1052
X5.3848Y-3.2052
X5.3848Y-3.3052
X5.3848Y-3.4052
X5.5063Y-3.5425
X5.5063Y-3.6425
X5.5063Y-3.7425
X5.5063Y-3.8425
X5.5063Y-3.9425
X5.5063Y-4.0425
X5.5063Y-4.1425
X5.5063Y-4.2425
X5.5063Y-4.3425
X5.5063Y-4.4425
X5.552Y-4.9037
X5.6309Y-3.5417
X5.6309Y-3.6417
X5.6309Y-3.7417
X5.6309Y-3.8417
X5.6309Y-3.9417
X5.6309Y-4.0417
X5.6309Y-4.1417
X5.6309Y-4.2417
X5.6362Y-4.5364
X5.6362Y-4.7333
X5.652Y-4.9037
X5.6845Y-4.3512
X5.7504Y-4.4933
X5.7504Y-4.7933
X5.752Y-4.9037
X5.7809Y-2.2189
X5.7809Y-2.3189
X5.7809Y-2.4189
X5.7809Y-2.5189
X5.7809Y-2.6189
X5.7809Y-2.7189
X5.7809Y-2.8189
X5.8504Y-4.4933
X5.8504Y-4.7933
X5.8507Y-1.4578
X5.8507Y-1.568
X5.852Y-4.9037
X5.8814Y-4.3512
X5.9309Y-3.5417
X5.9309Y-3.6417
X5.9309Y-3.7417
X5.9309Y-3.8417
X5.9309Y-3.9417
X5.9309Y-4.0417
X5.9309Y-4.1417
X5.9309Y-4.2417
X5.9334Y-1.4578
X5.9504Y-4.4933
X5.9504Y-4.7933
X5.952Y-4.9037
X6.0358Y-1.4578
X6.0504Y-4.4933
X6.0504Y-4.7933
X6.052Y-4.9037
X6.1185Y-1.4578
X6.1185Y-1.568
X6.1504Y-4.4933
X6.1504Y-4.7933
X6.152Y-4.9037
X6.2504Y-4.4933
X6.2504Y-4.7933
X6.252Y-4.9037
X6.3504Y-4.4933
X6.3504Y-4.7933
X6.352Y-4.9037
X6.3809Y-2.2189
X6.3809Y-2.3189
X6.3809Y-2.4189
X6.3809Y-2.5189
X6.3809Y-2.6189
X6.3809Y-2.7189
X6.3809Y-2.8189
T4
X4.7681Y-1.215
X4.8681Y-1.215
X4.9814Y-1.215
X5.0814Y-1.215
X5.1933Y-1.215
X5.2933Y-1.215
X5.4065Y-1.215
X5.5065Y-1.215
T5
X2.9708Y-4.5609
X2.9709Y-4.4163
X3.0708Y-4.5609
X3.0709Y-4.4163
X3.1708Y-4.5609
X3.1709Y-4.4163
X3.2708Y-4.5609
X3.2709Y-4.4163
X3.3708Y-4.5609
X3.3709Y-4.4163
X3.4708Y-4.5609
X3.4709Y-4.4163
X3.5708Y-4.5609
X3.5709Y-4.4163
X3.6708Y-4.5609
X3.6709Y-4.4163
X3.7708Y-4.5609
X3.7709Y-4.4163
X3.8708Y-4.5609
X3.8709Y-4.4163
X3.9708Y-4.5609
X3.9709Y-4.4163
X4.0708Y-4.5609
X4.0709Y-4.4163
X4.1708Y-4.5609
X4.1709Y-4.4163
X4.2708Y-4.5609
X4.2709Y-4.4163
X4.3708Y-4.5609
X4.3709Y-4.4163
X4.4708Y-4.5609
X4.4709Y-4.4163
X4.5708Y-4.5609
X4.5709Y-4.4163
X5.6815Y-1.8189
X5.6815Y-1.9189
X5.6815Y-2.0189
X5.6815Y-2.1189
X5.6815Y-2.2189
X5.6815Y-2.3189
X5.6815Y-2.4189
X5.6815Y-2.5189
X5.6815Y-2.6189
X5.6815Y-2.7189
X5.6815Y-2.8189
X5.6815Y-2.9189
X5.6815Y-3.0189
X5.6815Y-3.1189
X5.6815Y-3.2189
X6.2815Y-1.8189
X6.2815Y-1.9189
X6.2815Y-2.0189
X6.2815Y-2.1189
X6.2815Y-2.2189
X6.2815Y-2.3189
X6.2815Y-2.4189
X6.2815Y-2.5189
X6.2815Y-2.6189
X6.2815Y-2.7189
X6.2815Y-2.8189
X6.2815Y-2.9189
X6.2815Y-3.0189
X6.2815Y-3.1189
X6.2815Y-3.2189
T5
G00X5.7149Y-1.3751
M15
G01X5.7149Y-1.316
M16
G05
G00X6.024Y-1.3141
M15
G01X5.9452Y-1.3141
M16
G05
G00X6.2543Y-1.3751
M15
G01X6.2543Y-1.316
M16
G05
M30
