%TF.GenerationSoftware,KiCad,Pcbnew,8.0.1*%
%TF.CreationDate,2024-06-09T23:46:04+01:00*%
%TF.ProjectId,BBC-PS2,4242432d-5053-4322-9e6b-696361645f70,rev?*%
%TF.SameCoordinates,Original*%
%TF.FileFunction,Copper,L1,Top*%
%TF.FilePolarity,Positive*%
%FSLAX46Y46*%
G04 Gerber Fmt 4.6, Leading zero omitted, Abs format (unit mm)*
G04 Created by KiCad (PCBNEW 8.0.1) date 2024-06-09 23:46:04*
%MOMM*%
%LPD*%
G01*
G04 APERTURE LIST*
%TA.AperFunction,ComponentPad*%
%ADD10R,1.600000X1.600000*%
%TD*%
%TA.AperFunction,ComponentPad*%
%ADD11O,1.600000X1.600000*%
%TD*%
%TA.AperFunction,ComponentPad*%
%ADD12C,1.600000*%
%TD*%
%TA.AperFunction,ComponentPad*%
%ADD13O,2.000000X3.500000*%
%TD*%
%TA.AperFunction,ComponentPad*%
%ADD14O,4.000000X2.000000*%
%TD*%
%TA.AperFunction,ComponentPad*%
%ADD15C,1.400000*%
%TD*%
%TA.AperFunction,ComponentPad*%
%ADD16O,1.400000X1.400000*%
%TD*%
%TA.AperFunction,ComponentPad*%
%ADD17R,1.800000X1.800000*%
%TD*%
%TA.AperFunction,ComponentPad*%
%ADD18C,1.800000*%
%TD*%
%TA.AperFunction,ComponentPad*%
%ADD19R,1.700000X1.700000*%
%TD*%
%TA.AperFunction,ComponentPad*%
%ADD20O,1.700000X1.700000*%
%TD*%
%TA.AperFunction,ComponentPad*%
%ADD21R,1.500000X1.500000*%
%TD*%
%TA.AperFunction,ComponentPad*%
%ADD22C,1.500000*%
%TD*%
%TA.AperFunction,ViaPad*%
%ADD23C,0.800000*%
%TD*%
%TA.AperFunction,Conductor*%
%ADD24C,0.600000*%
%TD*%
%TA.AperFunction,Conductor*%
%ADD25C,0.250000*%
%TD*%
G04 APERTURE END LIST*
D10*
%TO.P,U6,1,Pin_1*%
%TO.N,unconnected-(U6-Pin_1-Pad1)*%
X144310000Y-46200000D03*
D11*
%TO.P,U6,2,Pin_2*%
%TO.N,unconnected-(U6-Pin_2-Pad2)*%
X144310000Y-48740000D03*
%TO.P,U6,3,Pin_3*%
%TO.N,unconnected-(U6-Pin_3-Pad3)*%
X144310000Y-51280000D03*
%TO.P,U6,4,Pin_4*%
%TO.N,GND*%
X144310000Y-53820000D03*
%TO.P,U6,5,Pin_5*%
%TO.N,DATA*%
X144310000Y-56360000D03*
%TO.P,U6,6,Pin_6*%
%TO.N,PS2-CLK*%
X144310000Y-58900000D03*
%TO.P,U6,7,Pin_7*%
%TO.N,STROBE*%
X144310000Y-61440000D03*
%TO.P,U6,8,Pin_8*%
%TO.N,AY2*%
X144310000Y-63980000D03*
%TO.P,U6,9,Pin_9*%
%TO.N,AY1*%
X144310000Y-66520000D03*
%TO.P,U6,10,Pin_10*%
%TO.N,AY0*%
X144310000Y-69060000D03*
%TO.P,U6,11,Pin_11*%
%TO.N,AX2*%
X144310000Y-71600000D03*
%TO.P,U6,12,Pin_12*%
%TO.N,AX1*%
X144310000Y-74140000D03*
%TO.P,U6,13,Pin_13*%
%TO.N,AX0*%
X144310000Y-76680000D03*
%TO.P,U6,14,Pin_14*%
%TO.N,AX3*%
X144310000Y-79220000D03*
%TO.P,U6,15,Pin_15*%
%TO.N,PS2-DATA*%
X144310000Y-81760000D03*
%TO.P,U6,16,Pin_16*%
%TO.N,RESET*%
X159550000Y-81760000D03*
%TO.P,U6,17,Pin_17*%
%TO.N,unconnected-(U6-Pin_17-Pad17)*%
X159550000Y-79220000D03*
%TO.P,U6,18,Pin_18*%
%TO.N,unconnected-(U6-Pin_18-Pad18)*%
X159550000Y-76680000D03*
%TO.P,U6,19,Pin_19*%
%TO.N,BREAK*%
X159550000Y-74140000D03*
%TO.P,U6,20,Pin_20*%
%TO.N,unconnected-(U6-Pin_20-Pad20)*%
X159550000Y-71600000D03*
%TO.P,U6,21,Pin_21*%
%TO.N,unconnected-(U6-Pin_21-Pad21)*%
X159550000Y-69060000D03*
%TO.P,U6,22,Pin_22*%
%TO.N,unconnected-(U6-Pin_22-Pad22)*%
X159550000Y-66520000D03*
%TO.P,U6,23,Pin_23*%
%TO.N,unconnected-(U6-Pin_23-Pad23)*%
X159550000Y-63980000D03*
%TO.P,U6,24,Pin_24*%
%TO.N,unconnected-(U6-Pin_24-Pad24)*%
X159550000Y-61440000D03*
%TO.P,U6,25,Pin_25*%
%TO.N,unconnected-(U6-Pin_25-Pad25)*%
X159550000Y-58900000D03*
%TO.P,U6,26,Pin_26*%
%TO.N,unconnected-(U6-Pin_26-Pad26)*%
X159550000Y-56360000D03*
%TO.P,U6,27,Pin_27*%
%TO.N,+5V*%
X159550000Y-53820000D03*
%TO.P,U6,28,Pin_28*%
%TO.N,unconnected-(U6-Pin_28-Pad28)*%
X159550000Y-51280000D03*
%TO.P,U6,29,Pin_29*%
%TO.N,GND*%
X159550000Y-48740000D03*
%TO.P,U6,30,Pin_30*%
%TO.N,unconnected-(U6-Pin_30-Pad30)*%
X159550000Y-46200000D03*
%TD*%
D10*
%TO.P,J2,1*%
%TO.N,PS2-DATA*%
X150709000Y-37027000D03*
D12*
%TO.P,J2,2*%
%TO.N,unconnected-(J2-Pad2)*%
X153309000Y-37027000D03*
%TO.P,J2,3*%
%TO.N,GND*%
X148609000Y-37027000D03*
%TO.P,J2,4*%
%TO.N,+5V*%
X155409000Y-37027000D03*
%TO.P,J2,5*%
%TO.N,PS2-CLK*%
X148609000Y-39827000D03*
%TO.P,J2,6*%
%TO.N,unconnected-(J2-Pad6)*%
X155409000Y-39827000D03*
D13*
%TO.P,J2,7*%
%TO.N,GND*%
X158859000Y-34177000D03*
D14*
X152009000Y-33377000D03*
D13*
X145159000Y-34177000D03*
%TD*%
D15*
%TO.P,R3,1*%
%TO.N,Net-(D14-K)*%
X140600000Y-47135000D03*
D16*
%TO.P,R3,2*%
%TO.N,LED3*%
X140600000Y-54755000D03*
%TD*%
D17*
%TO.P,D14,1,K*%
%TO.N,Net-(D14-K)*%
X123650000Y-30861000D03*
D18*
%TO.P,D14,2,A*%
%TO.N,+5V*%
X121110000Y-30861000D03*
%TD*%
D10*
%TO.P,D6,1,K*%
%TO.N,X5*%
X139860000Y-102680000D03*
D11*
%TO.P,D6,2,A*%
%TO.N,Net-(D6-A)*%
X132240000Y-102680000D03*
%TD*%
D15*
%TO.P,R6,1*%
%TO.N,Net-(D15-A)*%
X82660000Y-126875000D03*
D16*
%TO.P,R6,2*%
%TO.N,BREAK*%
X75040000Y-126875000D03*
%TD*%
D15*
%TO.P,R7,1*%
%TO.N,Net-(Q2-B)*%
X75040000Y-124750000D03*
D16*
%TO.P,R7,2*%
%TO.N,Net-(D15-A)*%
X82660000Y-124750000D03*
%TD*%
D10*
%TO.P,D10,1,K*%
%TO.N,X9*%
X139860000Y-112840000D03*
D11*
%TO.P,D10,2,A*%
%TO.N,Net-(D10-A)*%
X132240000Y-112840000D03*
%TD*%
D10*
%TO.P,D3,1,K*%
%TO.N,X2*%
X139860000Y-95060000D03*
D11*
%TO.P,D3,2,A*%
%TO.N,Net-(D3-A)*%
X132240000Y-95060000D03*
%TD*%
D12*
%TO.P,C4,1*%
%TO.N,+5V*%
X149387000Y-110520000D03*
%TO.P,C4,2*%
%TO.N,GND*%
X144387000Y-110520000D03*
%TD*%
D19*
%TO.P,J1,1,Pin_1*%
%TO.N,GND*%
X75458000Y-115847000D03*
D20*
%TO.P,J1,2,Pin_2*%
%TO.N,!RST*%
X77998000Y-115847000D03*
%TO.P,J1,3,Pin_3*%
%TO.N,1MHZ*%
X80538000Y-115847000D03*
%TO.P,J1,4,Pin_4*%
%TO.N,KB !EN*%
X83078000Y-115847000D03*
%TO.P,J1,5,Pin_5*%
%TO.N,PA4*%
X85618000Y-115847000D03*
%TO.P,J1,6,Pin_6*%
%TO.N,PA5*%
X88158000Y-115847000D03*
%TO.P,J1,7,Pin_7*%
%TO.N,PA6*%
X90698000Y-115847000D03*
%TO.P,J1,8,Pin_8*%
%TO.N,PA0*%
X93238000Y-115847000D03*
%TO.P,J1,9,Pin_9*%
%TO.N,PA1*%
X95778000Y-115847000D03*
%TO.P,J1,10,Pin_10*%
%TO.N,PA2*%
X98318000Y-115847000D03*
%TO.P,J1,11,Pin_11*%
%TO.N,PA3*%
X100858000Y-115847000D03*
%TO.P,J1,12,Pin_12*%
%TO.N,PA7*%
X103398000Y-115847000D03*
%TO.P,J1,13,Pin_13*%
%TO.N,LED3*%
X105938000Y-115847000D03*
%TO.P,J1,14,Pin_14*%
%TO.N,CA2*%
X108478000Y-115847000D03*
%TO.P,J1,15,Pin_15*%
%TO.N,+5V*%
X111018000Y-115847000D03*
%TO.P,J1,16,Pin_16*%
%TO.N,LED1*%
X113558000Y-115847000D03*
%TO.P,J1,17,Pin_17*%
%TO.N,LED2*%
X116098000Y-115847000D03*
%TD*%
D10*
%TO.P,D7,1,K*%
%TO.N,X6*%
X139860000Y-105220000D03*
D11*
%TO.P,D7,2,A*%
%TO.N,Net-(D7-A)*%
X132240000Y-105220000D03*
%TD*%
D12*
%TO.P,C1,1*%
%TO.N,+5V*%
X85480000Y-120447000D03*
%TO.P,C1,2*%
%TO.N,GND*%
X85480000Y-125447000D03*
%TD*%
D10*
%TO.P,U7,1,Pin_1*%
%TO.N,DATA*%
X146835000Y-56360000D03*
D11*
%TO.P,U7,2,Pin_2*%
%TO.N,BREAK*%
X146835000Y-58900000D03*
%TO.P,U7,3,Pin_3*%
%TO.N,STROBE*%
X146835000Y-61440000D03*
%TO.P,U7,4,Pin_4*%
%TO.N,AY2*%
X146835000Y-63980000D03*
%TO.P,U7,5,Pin_5*%
%TO.N,AY1*%
X146835000Y-66520000D03*
%TO.P,U7,6,Pin_6*%
%TO.N,AY0*%
X146835000Y-69060000D03*
%TO.P,U7,7,Pin_7*%
%TO.N,AX2*%
X146835000Y-71600000D03*
%TO.P,U7,8,Pin_8*%
%TO.N,AX1*%
X162075000Y-71600000D03*
%TO.P,U7,9,Pin_9*%
%TO.N,AX0*%
X162075000Y-69060000D03*
%TO.P,U7,10,Pin_10*%
%TO.N,AX3*%
X162075000Y-66520000D03*
%TO.P,U7,11,Pin_11*%
%TO.N,RESET*%
X162075000Y-63980000D03*
%TO.P,U7,12,Pin_12*%
%TO.N,unconnected-(U7-Pin_12-Pad12)*%
X162075000Y-61440000D03*
%TO.P,U7,13,Pin_13*%
%TO.N,GND*%
X162075000Y-58900000D03*
%TO.P,U7,14,Pin_14*%
%TO.N,+5V*%
X162075000Y-56360000D03*
%TD*%
D15*
%TO.P,R4,1*%
%TO.N,FLOAT*%
X140600000Y-73880000D03*
D16*
%TO.P,R4,2*%
%TO.N,GND*%
X140600000Y-66260000D03*
%TD*%
D12*
%TO.P,C3,1*%
%TO.N,+5V*%
X143160000Y-115225000D03*
%TO.P,C3,2*%
%TO.N,GND*%
X143160000Y-120225000D03*
%TD*%
D10*
%TO.P,U5,1,Pin_1*%
%TO.N,D4*%
X121534000Y-38232000D03*
D11*
%TO.P,U5,2,Pin_2*%
%TO.N,AY2*%
X121534000Y-40772000D03*
%TO.P,U5,3,Pin_3*%
%TO.N,RESET*%
X121534000Y-43312000D03*
%TO.P,U5,4,Pin_4*%
%TO.N,AX3*%
X121534000Y-45852000D03*
%TO.P,U5,5,Pin_5*%
%TO.N,AX0*%
X121534000Y-48392000D03*
%TO.P,U5,6,Pin_6*%
%TO.N,FLOAT*%
X121534000Y-50932000D03*
%TO.P,U5,7,Pin_7*%
X121534000Y-53472000D03*
%TO.P,U5,8,Pin_8*%
%TO.N,X6*%
X121534000Y-56012000D03*
%TO.P,U5,9,Pin_9*%
%TO.N,X7*%
X121534000Y-58552000D03*
%TO.P,U5,10,Pin_10*%
%TO.N,X8*%
X121534000Y-61092000D03*
%TO.P,U5,11,Pin_11*%
%TO.N,X9*%
X121534000Y-63632000D03*
%TO.P,U5,12,Pin_12*%
%TO.N,X10*%
X121534000Y-66172000D03*
%TO.P,U5,13,Pin_13*%
%TO.N,X11*%
X121534000Y-68712000D03*
%TO.P,U5,14,Pin_14*%
%TO.N,unconnected-(U5-Pin_14-Pad14)*%
X121534000Y-71252000D03*
%TO.P,U5,15,Pin_15*%
%TO.N,D7*%
X121534000Y-73792000D03*
%TO.P,U5,16,Pin_16*%
%TO.N,GND*%
X121534000Y-76332000D03*
%TO.P,U5,17,Pin_17*%
%TO.N,D1*%
X121534000Y-78872000D03*
%TO.P,U5,18,Pin_18*%
%TO.N,STROBE*%
X121534000Y-81412000D03*
%TO.P,U5,19,Pin_19*%
%TO.N,D2*%
X121534000Y-83952000D03*
%TO.P,U5,20,Pin_20*%
%TO.N,GND*%
X121534000Y-86492000D03*
%TO.P,U5,21,Pin_21*%
%TO.N,D3*%
X136774000Y-86492000D03*
%TO.P,U5,22,Pin_22*%
%TO.N,AX1*%
X136774000Y-83952000D03*
%TO.P,U5,23,Pin_23*%
%TO.N,AX2*%
X136774000Y-81412000D03*
%TO.P,U5,24,Pin_24*%
%TO.N,AY0*%
X136774000Y-78872000D03*
%TO.P,U5,25,Pin_25*%
%TO.N,AY1*%
X136774000Y-76332000D03*
%TO.P,U5,26,Pin_26*%
%TO.N,FLOAT*%
X136774000Y-73792000D03*
%TO.P,U5,27,Pin_27*%
X136774000Y-71252000D03*
%TO.P,U5,28,Pin_28*%
%TO.N,X5*%
X136774000Y-68712000D03*
%TO.P,U5,29,Pin_29*%
%TO.N,X4*%
X136774000Y-66172000D03*
%TO.P,U5,30,Pin_30*%
%TO.N,X3*%
X136774000Y-63632000D03*
%TO.P,U5,31,Pin_31*%
%TO.N,X2*%
X136774000Y-61092000D03*
%TO.P,U5,32,Pin_32*%
%TO.N,X1*%
X136774000Y-58552000D03*
%TO.P,U5,33,Pin_33*%
%TO.N,X0*%
X136774000Y-56012000D03*
%TO.P,U5,34,Pin_34*%
%TO.N,unconnected-(U5-Pin_34-Pad34)*%
X136774000Y-53472000D03*
%TO.P,U5,35,Pin_35*%
%TO.N,D0*%
X136774000Y-50932000D03*
%TO.P,U5,36,Pin_36*%
%TO.N,+5V*%
X136774000Y-48392000D03*
%TO.P,U5,37,Pin_37*%
%TO.N,D6*%
X136774000Y-45852000D03*
%TO.P,U5,38,Pin_38*%
%TO.N,DATA*%
X136774000Y-43312000D03*
%TO.P,U5,39,Pin_39*%
%TO.N,D5*%
X136774000Y-40772000D03*
%TO.P,U5,40,Pin_40*%
%TO.N,+5V*%
X136774000Y-38232000D03*
%TD*%
D21*
%TO.P,Q2,1,C*%
%TO.N,!RST*%
X76205000Y-120200000D03*
D22*
%TO.P,Q2,2,B*%
%TO.N,Net-(Q2-B)*%
X78745000Y-120200000D03*
%TO.P,Q2,3,E*%
%TO.N,GND*%
X81285000Y-120200000D03*
%TD*%
D17*
%TO.P,D13,1,K*%
%TO.N,Net-(D13-K)*%
X129068000Y-30861000D03*
D18*
%TO.P,D13,2,A*%
%TO.N,+5V*%
X126528000Y-30861000D03*
%TD*%
D15*
%TO.P,R2,1*%
%TO.N,Net-(D13-K)*%
X140600000Y-56685000D03*
D16*
%TO.P,R2,2*%
%TO.N,LED2*%
X140600000Y-64305000D03*
%TD*%
D10*
%TO.P,D1,1,K*%
%TO.N,X0*%
X139860000Y-89980000D03*
D11*
%TO.P,D1,2,A*%
%TO.N,X10*%
X132240000Y-89980000D03*
%TD*%
D17*
%TO.P,D15,1,K*%
%TO.N,GND*%
X139865000Y-30861000D03*
D18*
%TO.P,D15,2,A*%
%TO.N,Net-(D15-A)*%
X137325000Y-30861000D03*
%TD*%
D10*
%TO.P,U3,1,~{Q0}*%
%TO.N,X0*%
X143025000Y-89960000D03*
D11*
%TO.P,U3,2,~{Q1}*%
%TO.N,X1*%
X143025000Y-92500000D03*
%TO.P,U3,3,~{Q2}*%
%TO.N,X2*%
X143025000Y-95040000D03*
%TO.P,U3,4,~{Q3}*%
%TO.N,X3*%
X143025000Y-97580000D03*
%TO.P,U3,5,~{Q4}*%
%TO.N,X4*%
X143025000Y-100120000D03*
%TO.P,U3,6,~{Q5}*%
%TO.N,X5*%
X143025000Y-102660000D03*
%TO.P,U3,7,~{Q6}*%
%TO.N,X6*%
X143025000Y-105200000D03*
%TO.P,U3,8,GND*%
%TO.N,GND*%
X143025000Y-107740000D03*
%TO.P,U3,9,~{Q7}*%
%TO.N,X7*%
X150645000Y-107740000D03*
%TO.P,U3,10,~{Q8}*%
%TO.N,X8*%
X150645000Y-105200000D03*
%TO.P,U3,11,~{Q9}*%
%TO.N,X9*%
X150645000Y-102660000D03*
%TO.P,U3,12,D*%
%TO.N,QD*%
X150645000Y-100120000D03*
%TO.P,U3,13,C*%
%TO.N,QC*%
X150645000Y-97580000D03*
%TO.P,U3,14,B*%
%TO.N,QB*%
X150645000Y-95040000D03*
%TO.P,U3,15,A*%
%TO.N,QA*%
X150645000Y-92500000D03*
%TO.P,U3,16,VCC*%
%TO.N,+5V*%
X150645000Y-89960000D03*
%TD*%
D10*
%TO.P,D4,1,K*%
%TO.N,X3*%
X139860000Y-97600000D03*
D11*
%TO.P,D4,2,A*%
%TO.N,Net-(D4-A)*%
X132240000Y-97600000D03*
%TD*%
D12*
%TO.P,C2,1*%
%TO.N,+5V*%
X129805000Y-120447000D03*
%TO.P,C2,2*%
%TO.N,GND*%
X129805000Y-125447000D03*
%TD*%
D10*
%TO.P,SW1,1*%
%TO.N,Net-(D3-A)*%
X121925000Y-95070000D03*
D11*
%TO.P,SW1,2*%
%TO.N,Net-(D4-A)*%
X121925000Y-97610000D03*
%TO.P,SW1,3*%
%TO.N,Net-(D5-A)*%
X121925000Y-100150000D03*
%TO.P,SW1,4*%
%TO.N,Net-(D6-A)*%
X121925000Y-102690000D03*
%TO.P,SW1,5*%
%TO.N,Net-(D7-A)*%
X121925000Y-105230000D03*
%TO.P,SW1,6*%
%TO.N,Net-(D8-A)*%
X121925000Y-107770000D03*
%TO.P,SW1,7*%
%TO.N,Net-(D9-A)*%
X121925000Y-110310000D03*
%TO.P,SW1,8*%
%TO.N,Net-(D10-A)*%
X121925000Y-112850000D03*
%TO.P,SW1,9*%
%TO.N,D0*%
X129545000Y-112850000D03*
%TO.P,SW1,10*%
X129545000Y-110310000D03*
%TO.P,SW1,11*%
X129545000Y-107770000D03*
%TO.P,SW1,12*%
X129545000Y-105230000D03*
%TO.P,SW1,13*%
X129545000Y-102690000D03*
%TO.P,SW1,14*%
X129545000Y-100150000D03*
%TO.P,SW1,15*%
X129545000Y-97610000D03*
%TO.P,SW1,16*%
X129545000Y-95070000D03*
%TD*%
D15*
%TO.P,R1,1*%
%TO.N,Net-(D12-K)*%
X140600000Y-37575000D03*
D16*
%TO.P,R1,2*%
%TO.N,LED1*%
X140600000Y-45195000D03*
%TD*%
D10*
%TO.P,RN1,1,common*%
%TO.N,+5V*%
X161340000Y-124555000D03*
D11*
%TO.P,RN1,2,R1*%
%TO.N,D0*%
X158800000Y-124555000D03*
%TO.P,RN1,3,R2*%
%TO.N,D6*%
X156260000Y-124555000D03*
%TO.P,RN1,4,R3*%
%TO.N,D5*%
X153720000Y-124555000D03*
%TO.P,RN1,5,R4*%
%TO.N,D4*%
X151180000Y-124555000D03*
%TO.P,RN1,6,R5*%
%TO.N,D3*%
X148640000Y-124555000D03*
%TO.P,RN1,7,R6*%
%TO.N,D2*%
X146100000Y-124555000D03*
%TO.P,RN1,8,R7*%
%TO.N,D1*%
X143560000Y-124555000D03*
%TO.P,RN1,9,R8*%
%TO.N,D7*%
X141020000Y-124555000D03*
%TD*%
D10*
%TO.P,U1,1,~{MR}*%
%TO.N,+5V*%
X88281000Y-126747000D03*
D11*
%TO.P,U1,2,CP*%
%TO.N,1MHZ*%
X90821000Y-126747000D03*
%TO.P,U1,3,D0*%
%TO.N,PA0*%
X93361000Y-126747000D03*
%TO.P,U1,4,D1*%
%TO.N,PA1*%
X95901000Y-126747000D03*
%TO.P,U1,5,D2*%
%TO.N,PA2*%
X98441000Y-126747000D03*
%TO.P,U1,6,D3*%
%TO.N,PA3*%
X100981000Y-126747000D03*
%TO.P,U1,7,CEP*%
%TO.N,+5V*%
X103521000Y-126747000D03*
%TO.P,U1,8,GND*%
%TO.N,GND*%
X106061000Y-126747000D03*
%TO.P,U1,9,~{PE}*%
%TO.N,KB !EN*%
X106061000Y-119127000D03*
%TO.P,U1,10,CET*%
%TO.N,+5V*%
X103521000Y-119127000D03*
%TO.P,U1,11,Q3*%
%TO.N,QD*%
X100981000Y-119127000D03*
%TO.P,U1,12,Q2*%
%TO.N,QC*%
X98441000Y-119127000D03*
%TO.P,U1,13,Q1*%
%TO.N,QB*%
X95901000Y-119127000D03*
%TO.P,U1,14,Q0*%
%TO.N,QA*%
X93361000Y-119127000D03*
%TO.P,U1,15,TC*%
%TO.N,unconnected-(U1-TC-Pad15)*%
X90821000Y-119127000D03*
%TO.P,U1,16,VCC*%
%TO.N,+5V*%
X88281000Y-119127000D03*
%TD*%
D10*
%TO.P,D2,1,K*%
%TO.N,X1*%
X139860000Y-92520000D03*
D11*
%TO.P,D2,2,A*%
%TO.N,X11*%
X132240000Y-92520000D03*
%TD*%
D19*
%TO.P,J3,1,Pin_1*%
%TO.N,GND*%
X75460000Y-112175000D03*
D20*
%TO.P,J3,2,Pin_2*%
%TO.N,!RST*%
X78000000Y-112175000D03*
%TO.P,J3,3,Pin_3*%
%TO.N,1MHZ*%
X80540000Y-112175000D03*
%TO.P,J3,4,Pin_4*%
%TO.N,KB !EN*%
X83080000Y-112175000D03*
%TO.P,J3,5,Pin_5*%
%TO.N,PA4*%
X85620000Y-112175000D03*
%TO.P,J3,6,Pin_6*%
%TO.N,PA5*%
X88160000Y-112175000D03*
%TO.P,J3,7,Pin_7*%
%TO.N,PA6*%
X90700000Y-112175000D03*
%TO.P,J3,8,Pin_8*%
%TO.N,PA0*%
X93240000Y-112175000D03*
%TO.P,J3,9,Pin_9*%
%TO.N,PA1*%
X95780000Y-112175000D03*
%TO.P,J3,10,Pin_10*%
%TO.N,PA2*%
X98320000Y-112175000D03*
%TO.P,J3,11,Pin_11*%
%TO.N,PA3*%
X100860000Y-112175000D03*
%TO.P,J3,12,Pin_12*%
%TO.N,PA7*%
X103400000Y-112175000D03*
%TO.P,J3,13,Pin_13*%
%TO.N,LED3*%
X105940000Y-112175000D03*
%TO.P,J3,14,Pin_14*%
%TO.N,CA2*%
X108480000Y-112175000D03*
%TO.P,J3,15,Pin_15*%
%TO.N,+5V*%
X111020000Y-112175000D03*
%TO.P,J3,16,Pin_16*%
%TO.N,LED1*%
X113560000Y-112175000D03*
%TO.P,J3,17,Pin_17*%
%TO.N,LED2*%
X116100000Y-112175000D03*
%TD*%
D10*
%TO.P,U4,1*%
%TO.N,D2*%
X146060000Y-121750000D03*
D11*
%TO.P,U4,2*%
%TO.N,D3*%
X148600000Y-121750000D03*
%TO.P,U4,3*%
%TO.N,D4*%
X151140000Y-121750000D03*
%TO.P,U4,4*%
%TO.N,D5*%
X153680000Y-121750000D03*
%TO.P,U4,5*%
%TO.N,D6*%
X156220000Y-121750000D03*
%TO.P,U4,6*%
%TO.N,+5V*%
X158760000Y-121750000D03*
%TO.P,U4,7,GND*%
%TO.N,GND*%
X161300000Y-121750000D03*
%TO.P,U4,8*%
%TO.N,CA2*%
X161300000Y-114130000D03*
%TO.P,U4,9*%
%TO.N,N/C*%
X158760000Y-114130000D03*
%TO.P,U4,10*%
X156220000Y-114130000D03*
%TO.P,U4,11*%
%TO.N,D7*%
X153680000Y-114130000D03*
%TO.P,U4,12*%
%TO.N,D1*%
X151140000Y-114130000D03*
%TO.P,U4,13*%
%TO.N,N/C*%
X148600000Y-114130000D03*
%TO.P,U4,14,VCC*%
%TO.N,+5V*%
X146060000Y-114130000D03*
%TD*%
D10*
%TO.P,D8,1,K*%
%TO.N,X7*%
X139860000Y-107760000D03*
D11*
%TO.P,D8,2,A*%
%TO.N,Net-(D8-A)*%
X132240000Y-107760000D03*
%TD*%
D10*
%TO.P,U2,1,I3*%
%TO.N,D3*%
X109236000Y-126747000D03*
D11*
%TO.P,U2,2,I2*%
%TO.N,D2*%
X111776000Y-126747000D03*
%TO.P,U2,3,I1*%
%TO.N,D1*%
X114316000Y-126747000D03*
%TO.P,U2,4,I0*%
%TO.N,D0*%
X116856000Y-126747000D03*
%TO.P,U2,5,Y*%
%TO.N,unconnected-(U2-Y-Pad5)*%
X119396000Y-126747000D03*
%TO.P,U2,6,~{Y}*%
%TO.N,PA7*%
X121936000Y-126747000D03*
%TO.P,U2,7,~{OE}*%
%TO.N,KB !EN*%
X124476000Y-126747000D03*
%TO.P,U2,8,GND*%
%TO.N,GND*%
X127016000Y-126747000D03*
%TO.P,U2,9,S2*%
%TO.N,PA6*%
X127016000Y-119127000D03*
%TO.P,U2,10,S1*%
%TO.N,PA5*%
X124476000Y-119127000D03*
%TO.P,U2,11,S0*%
%TO.N,PA4*%
X121936000Y-119127000D03*
%TO.P,U2,12,I7*%
%TO.N,D7*%
X119396000Y-119127000D03*
%TO.P,U2,13,I6*%
%TO.N,D6*%
X116856000Y-119127000D03*
%TO.P,U2,14,I5*%
%TO.N,D5*%
X114316000Y-119127000D03*
%TO.P,U2,15,I4*%
%TO.N,D4*%
X111776000Y-119127000D03*
%TO.P,U2,16,VCC*%
%TO.N,+5V*%
X109236000Y-119127000D03*
%TD*%
D10*
%TO.P,D5,1,K*%
%TO.N,X4*%
X139860000Y-100140000D03*
D11*
%TO.P,D5,2,A*%
%TO.N,Net-(D5-A)*%
X132240000Y-100140000D03*
%TD*%
D17*
%TO.P,D12,1,K*%
%TO.N,Net-(D12-K)*%
X134450000Y-30861000D03*
D18*
%TO.P,D12,2,A*%
%TO.N,+5V*%
X131910000Y-30861000D03*
%TD*%
D10*
%TO.P,D9,1,K*%
%TO.N,X8*%
X139860000Y-110300000D03*
D11*
%TO.P,D9,2,A*%
%TO.N,Net-(D9-A)*%
X132240000Y-110300000D03*
%TD*%
D23*
%TO.N,+5V*%
X156275000Y-89960000D03*
X132100000Y-127625000D03*
X159175000Y-110520000D03*
%TO.N,Net-(D15-A)*%
X125125000Y-35350000D03*
%TO.N,X4*%
X141442700Y-62077600D03*
%TO.N,X5*%
X137696600Y-99375700D03*
%TO.N,1MHZ*%
X86175000Y-118200400D03*
%TO.N,PA5*%
X109097300Y-121433400D03*
X107049800Y-117912700D03*
%TO.N,LED3*%
X135836700Y-64979400D03*
X127979100Y-115710800D03*
X124304300Y-121532500D03*
X102130000Y-113441600D03*
X104480800Y-121351400D03*
X134806500Y-69117400D03*
X105226800Y-124427100D03*
X103149900Y-122077600D03*
X135952200Y-94851700D03*
%TO.N,LED1*%
X148667200Y-62786400D03*
X148667200Y-80473900D03*
X151416000Y-62786400D03*
X151416000Y-47470000D03*
%TO.N,PS2-DATA*%
X150353000Y-41294900D03*
%TO.N,GND*%
X142939300Y-64947400D03*
%TO.N,BREAK*%
X150525000Y-67475000D03*
X120775000Y-90800000D03*
%TO.N,D0*%
X133115400Y-121405500D03*
X131168000Y-126100500D03*
X134207300Y-64180900D03*
X133102200Y-127371200D03*
X123666100Y-78083900D03*
%TO.N,D6*%
X154653700Y-69457300D03*
X154474500Y-67155100D03*
%TO.N,D5*%
X136417100Y-122862800D03*
X158035900Y-70513100D03*
X153004100Y-112075000D03*
X122341700Y-121298900D03*
X154254200Y-71715100D03*
%TO.N,D4*%
X123500000Y-75425000D03*
X137598800Y-122696000D03*
X129550000Y-90150000D03*
X126275000Y-91875000D03*
X118259900Y-114823400D03*
X132309000Y-119261100D03*
X127420600Y-114823400D03*
%TO.N,D3*%
X135746600Y-123609000D03*
X131180200Y-123093600D03*
%TO.N,D2*%
X125621800Y-121081600D03*
X109553300Y-123721900D03*
%TO.N,D1*%
X111423900Y-121630000D03*
X134373800Y-111432400D03*
X119850300Y-116437500D03*
X118720600Y-117817400D03*
%TO.N,D7*%
X129225000Y-87225000D03*
X120325000Y-114098400D03*
%TO.N,QD*%
X106645900Y-123009200D03*
%TO.N,QC*%
X123784400Y-92825000D03*
%TO.N,QB*%
X136082900Y-96441100D03*
X107811000Y-125372900D03*
X136581400Y-100440300D03*
%TO.N,QA*%
X110106000Y-114177600D03*
X124509400Y-91976300D03*
X94509000Y-113983300D03*
%TO.N,AY2*%
X137550000Y-67442000D03*
%TO.N,AX3*%
X153415000Y-69959400D03*
X160775000Y-47350000D03*
X124150000Y-45925000D03*
X142325000Y-49850000D03*
X131200000Y-42125000D03*
X128025000Y-42125000D03*
%TD*%
D24*
%TO.N,+5V*%
X160325000Y-110675000D02*
X160325000Y-110474264D01*
X163900000Y-114250000D02*
X160325000Y-110675000D01*
X163900000Y-124625000D02*
X163900000Y-114250000D01*
X163900000Y-82350000D02*
X163900000Y-46900000D01*
X160325000Y-110474264D02*
X160325000Y-85925000D01*
X160325000Y-85925000D02*
X163900000Y-82350000D01*
X160279264Y-110520000D02*
X160325000Y-110474264D01*
X159175000Y-110520000D02*
X160279264Y-110520000D01*
X156540000Y-90225000D02*
X160325000Y-90225000D01*
X156275000Y-89960000D02*
X156540000Y-90225000D01*
X103500000Y-128525000D02*
X132050000Y-128525000D01*
X163900000Y-128525000D02*
X163900000Y-124625000D01*
X163900000Y-56475000D02*
X163900000Y-28625000D01*
X126528000Y-30861000D02*
X126528000Y-28647000D01*
X126550000Y-28625000D02*
X121750000Y-28625000D01*
X163830000Y-124555000D02*
X163900000Y-124625000D01*
X121110000Y-29265000D02*
X121110000Y-30861000D01*
X161340000Y-124555000D02*
X163830000Y-124555000D01*
X163900000Y-28625000D02*
X155450000Y-28625000D01*
X163785000Y-56360000D02*
X163900000Y-56475000D01*
X88281000Y-126747000D02*
X88281000Y-128481000D01*
X131910000Y-30861000D02*
X131910000Y-28685000D01*
X132100000Y-128475000D02*
X132050000Y-128525000D01*
X88325000Y-128525000D02*
X103500000Y-128525000D01*
X126528000Y-28647000D02*
X126550000Y-28625000D01*
X155409000Y-28666000D02*
X155450000Y-28625000D01*
X155409000Y-37027000D02*
X155409000Y-28666000D01*
X155450000Y-28625000D02*
X131850000Y-28625000D01*
X103521000Y-126747000D02*
X103521000Y-128504000D01*
X131850000Y-28625000D02*
X126550000Y-28625000D01*
X131910000Y-28685000D02*
X131850000Y-28625000D01*
X88281000Y-128481000D02*
X88325000Y-128525000D01*
X103521000Y-128504000D02*
X103500000Y-128525000D01*
X121750000Y-28625000D02*
X121110000Y-29265000D01*
X162075000Y-56360000D02*
X163785000Y-56360000D01*
X132050000Y-128525000D02*
X163900000Y-128525000D01*
X132100000Y-127625000D02*
X132100000Y-128475000D01*
D25*
%TO.N,Net-(D15-A)*%
X82660000Y-124750000D02*
X82660000Y-120054720D01*
X120075000Y-92825000D02*
X121675000Y-91225000D01*
X82660000Y-120054720D02*
X79350000Y-116744720D01*
X121675000Y-89575000D02*
X119917200Y-87817200D01*
X120075000Y-110086396D02*
X120075000Y-92825000D01*
X79950000Y-110475000D02*
X119686396Y-110475000D01*
X121675000Y-91225000D02*
X121675000Y-89575000D01*
X124800000Y-35675000D02*
X125125000Y-35350000D01*
X79350000Y-116744720D02*
X79350000Y-111075000D01*
X119686396Y-110475000D02*
X120075000Y-110086396D01*
X82660000Y-126875000D02*
X82660000Y-124750000D01*
X79350000Y-111075000D02*
X79950000Y-110475000D01*
X119917200Y-35957800D02*
X120200000Y-35675000D01*
X120200000Y-35675000D02*
X124800000Y-35675000D01*
X119917200Y-87817200D02*
X119917200Y-35957800D01*
%TO.N,X0*%
X142109200Y-87917500D02*
X143025000Y-88833300D01*
X136774000Y-56024000D02*
X142195500Y-61445500D01*
X142109200Y-67512900D02*
X142109200Y-87917500D01*
X142195500Y-61445500D02*
X142195500Y-67426600D01*
X142195500Y-67426600D02*
X142109200Y-67512900D01*
X143025000Y-88833300D02*
X143025000Y-89960000D01*
X136774000Y-56012000D02*
X136774000Y-56024000D01*
%TO.N,X10*%
X132240000Y-89980000D02*
X132240000Y-76878000D01*
X132240000Y-76878000D02*
X121534000Y-66172000D01*
%TO.N,X1*%
X138692700Y-89044400D02*
X139272900Y-88464200D01*
X139860000Y-92520000D02*
X139860000Y-92076700D01*
X138692700Y-90909400D02*
X138692700Y-89044400D01*
X139272900Y-61050900D02*
X136774000Y-58552000D01*
X139272900Y-88464200D02*
X139272900Y-61050900D01*
X139860000Y-92076700D02*
X138692700Y-90909400D01*
%TO.N,X11*%
X131112200Y-78290200D02*
X121534000Y-68712000D01*
X132240000Y-92520000D02*
X131112200Y-91392200D01*
X131112200Y-91392200D02*
X131112200Y-78290200D01*
%TO.N,X2*%
X138241000Y-88764300D02*
X138821200Y-88184100D01*
X138821200Y-63139200D02*
X136774000Y-61092000D01*
X139860000Y-94637500D02*
X138241000Y-93018500D01*
X139860000Y-95060000D02*
X139860000Y-94637500D01*
X138241000Y-93018500D02*
X138241000Y-88764300D01*
X138821200Y-88184100D02*
X138821200Y-63139200D01*
%TO.N,X3*%
X139860000Y-97600000D02*
X139860000Y-97177500D01*
X138369500Y-87996900D02*
X138369500Y-65227500D01*
X137789300Y-95106800D02*
X137789300Y-88577100D01*
X138369500Y-65227500D02*
X136774000Y-63632000D01*
X139860000Y-97177500D02*
X137789300Y-95106800D01*
X137789300Y-88577100D02*
X138369500Y-87996900D01*
%TO.N,X4*%
X141657500Y-98752500D02*
X141657500Y-62292400D01*
X141657500Y-62292400D02*
X141442700Y-62077600D01*
X143025000Y-100120000D02*
X141657500Y-98752500D01*
%TO.N,X5*%
X137337600Y-99016700D02*
X137696600Y-99375700D01*
X136774000Y-68712000D02*
X137900700Y-69838700D01*
X137337600Y-87730100D02*
X137337600Y-99016700D01*
X137900700Y-87167000D02*
X137337600Y-87730100D01*
X137900700Y-69838700D02*
X137900700Y-87167000D01*
%TO.N,X6*%
X121534000Y-56870205D02*
X134900000Y-70236205D01*
X135356200Y-94420100D02*
X135225500Y-94550800D01*
X135356200Y-96742000D02*
X135617500Y-97003300D01*
X135617500Y-97003300D02*
X135617500Y-100513300D01*
X134900000Y-70236205D02*
X134900000Y-71200000D01*
X135356200Y-88257800D02*
X135356200Y-94420100D01*
X139860000Y-104755800D02*
X139860000Y-105220000D01*
X135225500Y-95152600D02*
X135356200Y-95283300D01*
X135617500Y-100513300D02*
X139860000Y-104755800D01*
X121534000Y-56012000D02*
X121534000Y-56870205D01*
X134904500Y-87806100D02*
X135356200Y-88257800D01*
X135356200Y-95283300D02*
X135356200Y-96742000D01*
X134904500Y-71204500D02*
X134904500Y-87806100D01*
X134900000Y-71200000D02*
X134904500Y-71204500D01*
X135225500Y-94550800D02*
X135225500Y-95152600D01*
%TO.N,X7*%
X134452800Y-71470800D02*
X134452800Y-87993200D01*
X134773800Y-94363700D02*
X134773800Y-95339700D01*
X134904500Y-94233000D02*
X134773800Y-94363700D01*
X134904500Y-96929100D02*
X135165800Y-97190400D01*
X134452800Y-87993200D02*
X134904500Y-88444900D01*
X134904500Y-95470400D02*
X134904500Y-96929100D01*
X135165800Y-102587900D02*
X139860000Y-107282100D01*
X134773800Y-95339700D02*
X134904500Y-95470400D01*
X135165800Y-97190400D02*
X135165800Y-102587900D01*
X139860000Y-107282100D02*
X139860000Y-107760000D01*
X121534000Y-58552000D02*
X134452800Y-71470800D01*
X134904500Y-88444900D02*
X134904500Y-94233000D01*
%TO.N,X8*%
X134714100Y-103315600D02*
X135165800Y-103767300D01*
X121534000Y-61092000D02*
X134001100Y-73559100D01*
X134001100Y-73559100D02*
X134001100Y-88180300D01*
X135165800Y-103767300D02*
X135165800Y-105183300D01*
X134322100Y-96985500D02*
X134714100Y-97377500D01*
X134001100Y-88180300D02*
X134452800Y-88632000D01*
X134714100Y-97377500D02*
X134714100Y-103315600D01*
X134322100Y-94176600D02*
X134322100Y-96985500D01*
X134452800Y-94045900D02*
X134322100Y-94176600D01*
X135165800Y-105183300D02*
X139860000Y-109877500D01*
X139860000Y-109877500D02*
X139860000Y-110300000D01*
X134452800Y-88632000D02*
X134452800Y-94045900D01*
%TO.N,X9*%
X134001100Y-93858800D02*
X133870400Y-93989500D01*
X121534000Y-63632000D02*
X133549400Y-75647400D01*
X133549400Y-88367400D02*
X134001100Y-88819100D01*
X141286700Y-111713300D02*
X150340000Y-102660000D01*
X133870400Y-93989500D02*
X133870400Y-103110700D01*
X134001100Y-88819100D02*
X134001100Y-93858800D01*
X139199700Y-111713300D02*
X139860000Y-111713300D01*
X134714100Y-103954400D02*
X134714100Y-107227700D01*
X150340000Y-102660000D02*
X150645000Y-102660000D01*
X133870400Y-103110700D02*
X134714100Y-103954400D01*
X134714100Y-107227700D02*
X139199700Y-111713300D01*
X133549400Y-75647400D02*
X133549400Y-88367400D01*
X139860000Y-111713300D02*
X141286700Y-111713300D01*
X139860000Y-112840000D02*
X139860000Y-111713300D01*
%TO.N,Net-(Q2-B)*%
X78745000Y-120200000D02*
X78745000Y-121045000D01*
X78745000Y-121045000D02*
X75040000Y-124750000D01*
%TO.N,!RST*%
X77998000Y-116435300D02*
X78000000Y-116433300D01*
X78000000Y-116433300D02*
X78000000Y-112175000D01*
X77998000Y-115847000D02*
X77998000Y-116435300D01*
X76205000Y-118816700D02*
X77998000Y-117023700D01*
X77998000Y-116435300D02*
X77998000Y-117023700D01*
X76205000Y-120200000D02*
X76205000Y-118816700D01*
%TO.N,1MHZ*%
X86175000Y-118200400D02*
X86373400Y-118002000D01*
X89696000Y-118951009D02*
X89696000Y-124471000D01*
X80540000Y-114668300D02*
X80540000Y-112175000D01*
X89696000Y-124471000D02*
X90821000Y-125596000D01*
X80538000Y-115847000D02*
X80538000Y-114670300D01*
X80538000Y-114670300D02*
X80540000Y-114668300D01*
X90821000Y-125596000D02*
X90821000Y-126747000D01*
X86373400Y-118002000D02*
X88746991Y-118002000D01*
X88746991Y-118002000D02*
X89696000Y-118951009D01*
%TO.N,KB !EN*%
X113795800Y-127873700D02*
X123349300Y-127873700D01*
X106061000Y-119127000D02*
X106061000Y-120253700D01*
X83078000Y-115847000D02*
X83078000Y-114670300D01*
X83080000Y-114668300D02*
X83080000Y-112175000D01*
X83078000Y-114670300D02*
X83080000Y-114668300D01*
X107967400Y-122160100D02*
X109019200Y-122160100D01*
X112902700Y-126043600D02*
X112902700Y-126980600D01*
X106061000Y-120253700D02*
X107967400Y-122160100D01*
X112902700Y-126980600D02*
X113795800Y-127873700D01*
X109019200Y-122160100D02*
X112902700Y-126043600D01*
X123349300Y-127873700D02*
X124476000Y-126747000D01*
%TO.N,PA4*%
X85618000Y-115847000D02*
X85618000Y-114670300D01*
X85618000Y-114670300D02*
X85620000Y-114668300D01*
X85620000Y-114668300D02*
X85620000Y-112175000D01*
%TO.N,PA5*%
X88158000Y-115847000D02*
X88158000Y-114670300D01*
X88158000Y-114670300D02*
X88160000Y-114668300D01*
X107205900Y-119542000D02*
X109097300Y-121433400D01*
X88160000Y-114668300D02*
X88160000Y-112175000D01*
X107049800Y-117912700D02*
X107205900Y-118068800D01*
X107205900Y-118068800D02*
X107205900Y-119542000D01*
%TO.N,PA6*%
X90700000Y-114668300D02*
X90700000Y-112175000D01*
X90698000Y-115847000D02*
X90698000Y-114670300D01*
X90698000Y-114670300D02*
X90700000Y-114668300D01*
%TO.N,PA0*%
X93361000Y-125620300D02*
X92230000Y-124489300D01*
X93240000Y-116433300D02*
X93240000Y-112175000D01*
X93238000Y-116435300D02*
X93238000Y-117023700D01*
X93238000Y-115847000D02*
X93238000Y-116435300D01*
X92230000Y-124489300D02*
X92230000Y-118031700D01*
X93238000Y-116435300D02*
X93240000Y-116433300D01*
X93361000Y-126747000D02*
X93361000Y-125620300D01*
X92230000Y-118031700D02*
X93238000Y-117023700D01*
%TO.N,PA1*%
X95780000Y-116433300D02*
X95778000Y-116435300D01*
X94770000Y-118031700D02*
X95778000Y-117023700D01*
X95901000Y-125620300D02*
X94770000Y-124489300D01*
X95778000Y-116435300D02*
X95778000Y-117023700D01*
X95780000Y-112175000D02*
X95780000Y-116433300D01*
X95778000Y-115847000D02*
X95778000Y-116435300D01*
X95901000Y-126747000D02*
X95901000Y-125620300D01*
X94770000Y-124489300D02*
X94770000Y-118031700D01*
%TO.N,PA2*%
X98318000Y-116435300D02*
X98320000Y-116433300D01*
X98320000Y-116433300D02*
X98320000Y-112175000D01*
X98441000Y-125620300D02*
X97310000Y-124489300D01*
X98441000Y-126747000D02*
X98441000Y-125620300D01*
X98318000Y-116435300D02*
X98318000Y-117023700D01*
X97310000Y-118031700D02*
X98318000Y-117023700D01*
X97310000Y-124489300D02*
X97310000Y-118031700D01*
X98318000Y-115847000D02*
X98318000Y-116435300D01*
%TO.N,PA3*%
X100860000Y-116433300D02*
X100860000Y-112175000D01*
X100981000Y-126747000D02*
X100981000Y-125620300D01*
X100858000Y-115847000D02*
X100858000Y-116435300D01*
X100858000Y-116435300D02*
X100858000Y-117023700D01*
X100858000Y-116435300D02*
X100860000Y-116433300D01*
X99944900Y-117936800D02*
X100858000Y-117023700D01*
X99850000Y-124489300D02*
X99850000Y-118084500D01*
X99944900Y-117989600D02*
X99944900Y-117936800D01*
X100981000Y-125620300D02*
X99850000Y-124489300D01*
X99850000Y-118084500D02*
X99944900Y-117989600D01*
%TO.N,PA7*%
X103398000Y-115258600D02*
X103398000Y-114670300D01*
X110856600Y-120705400D02*
X109154300Y-120705400D01*
X121936000Y-126747000D02*
X120809300Y-125620300D01*
X111054500Y-120903300D02*
X110856600Y-120705400D01*
X107194700Y-117029900D02*
X105169300Y-117029900D01*
X107797200Y-119348300D02*
X107797200Y-117632400D01*
X120809300Y-125620300D02*
X116358100Y-125620300D01*
X112150600Y-121329000D02*
X111724900Y-120903300D01*
X103400000Y-114668300D02*
X103400000Y-112175000D01*
X112150600Y-121412800D02*
X112150600Y-121329000D01*
X109154300Y-120705400D02*
X107797200Y-119348300D01*
X103398000Y-115847000D02*
X103398000Y-115258600D01*
X105169300Y-117029900D02*
X103398000Y-115258600D01*
X116358100Y-125620300D02*
X112150600Y-121412800D01*
X107797200Y-117632400D02*
X107194700Y-117029900D01*
X103398000Y-114670300D02*
X103400000Y-114668300D01*
X111724900Y-120903300D02*
X111054500Y-120903300D01*
%TO.N,LED3*%
X125926300Y-121853000D02*
X124624800Y-121853000D01*
X137227000Y-54836400D02*
X136297700Y-54836400D01*
X105940000Y-114668300D02*
X105940000Y-112175000D01*
X103376200Y-117352700D02*
X103190000Y-117352700D01*
X141684200Y-55839200D02*
X141684200Y-57072100D01*
X141044600Y-57711700D02*
X140102300Y-57711700D01*
X135647300Y-55486800D02*
X135647300Y-64790000D01*
X104647700Y-118624200D02*
X103376200Y-117352700D01*
X135515200Y-87552800D02*
X135952200Y-87989800D01*
X140600000Y-54755000D02*
X141684200Y-55839200D01*
X104647700Y-121184500D02*
X104647700Y-118624200D01*
X134806500Y-69117400D02*
X135515200Y-69826100D01*
X128152900Y-119626400D02*
X125926300Y-121853000D01*
X141684200Y-57072100D02*
X141044600Y-57711700D01*
X103149900Y-122077600D02*
X103149900Y-122350200D01*
X102130000Y-116292700D02*
X102130000Y-113441600D01*
X135952200Y-87989800D02*
X135952200Y-94851700D01*
X103190000Y-117352700D02*
X102130000Y-116292700D01*
X128152900Y-115884600D02*
X128152900Y-119626400D01*
X127979100Y-115710800D02*
X128152900Y-115884600D01*
X103149900Y-122350200D02*
X105226800Y-124427100D01*
X135647300Y-64790000D02*
X135836700Y-64979400D01*
X135515200Y-69826100D02*
X135515200Y-87552800D01*
X140102300Y-57711700D02*
X137227000Y-54836400D01*
X136297700Y-54836400D02*
X135647300Y-55486800D01*
X104480800Y-121351400D02*
X104647700Y-121184500D01*
X105938000Y-114670300D02*
X105940000Y-114668300D01*
X105938000Y-115847000D02*
X105938000Y-114670300D01*
X124624800Y-121853000D02*
X124304300Y-121532500D01*
%TO.N,CA2*%
X131949900Y-125359500D02*
X131311000Y-125359500D01*
X155354500Y-127085400D02*
X142454500Y-127085400D01*
X110649300Y-117682700D02*
X109654700Y-116688100D01*
X157530000Y-119026700D02*
X157530000Y-124909900D01*
X142011600Y-126642500D02*
X133232900Y-126642500D01*
X109654700Y-116688100D02*
X109654700Y-115847000D01*
X111912000Y-120451600D02*
X111507100Y-120451600D01*
X131311000Y-125359500D02*
X130271800Y-124320300D01*
X108480000Y-114668300D02*
X108480000Y-112175000D01*
X108478000Y-115847000D02*
X109654700Y-115847000D01*
X157530000Y-124909900D02*
X155354500Y-127085400D01*
X111507100Y-120451600D02*
X110649300Y-119593800D01*
X161300000Y-114130000D02*
X161300000Y-115256700D01*
X130271800Y-124320300D02*
X115780700Y-124320300D01*
X108478000Y-114670300D02*
X108480000Y-114668300D01*
X108478000Y-115847000D02*
X108478000Y-114670300D01*
X133232900Y-126642500D02*
X131949900Y-125359500D01*
X142454500Y-127085400D02*
X142011600Y-126642500D01*
X110649300Y-119593800D02*
X110649300Y-117682700D01*
X115780700Y-124320300D02*
X111912000Y-120451600D01*
X161300000Y-115256700D02*
X157530000Y-119026700D01*
%TO.N,LED1*%
X113558000Y-114857400D02*
X113560000Y-114855400D01*
X148667200Y-62786400D02*
X148667200Y-80473900D01*
X113560000Y-114855400D02*
X113560000Y-112175000D01*
X151416000Y-62786400D02*
X151416000Y-47470000D01*
X113558000Y-115847000D02*
X113558000Y-114857400D01*
%TO.N,LED2*%
X116100000Y-113351700D02*
X116098000Y-113353700D01*
X116100000Y-112175000D02*
X116100000Y-113351700D01*
X116098000Y-115847000D02*
X116098000Y-114857400D01*
X116098000Y-113353700D02*
X116098000Y-114857400D01*
%TO.N,PS2-DATA*%
X147549200Y-57773300D02*
X146305100Y-57773300D01*
X150353000Y-54969500D02*
X147549200Y-57773300D01*
X150353000Y-41294900D02*
X150353000Y-54969500D01*
X144118600Y-60032700D02*
X143183300Y-60968000D01*
X144776800Y-60032700D02*
X144118600Y-60032700D01*
X145436700Y-63486600D02*
X145436700Y-80633300D01*
X143183300Y-60968000D02*
X143183300Y-61942100D01*
X144094500Y-62853300D02*
X144803400Y-62853300D01*
X144803400Y-62853300D02*
X145436700Y-63486600D01*
X146305100Y-57773300D02*
X145572500Y-58505900D01*
X145572500Y-58505900D02*
X145572500Y-59237000D01*
X145572500Y-59237000D02*
X144776800Y-60032700D01*
X145436700Y-80633300D02*
X144310000Y-81760000D01*
X143183300Y-61942100D02*
X144094500Y-62853300D01*
%TO.N,GND*%
X121163900Y-82682000D02*
X121920700Y-82682000D01*
X122684700Y-77534700D02*
X121534000Y-76384000D01*
X142716200Y-64724300D02*
X142939300Y-64947400D01*
X121534000Y-86492000D02*
X120407300Y-85365300D01*
X142716200Y-55413800D02*
X142716200Y-64724300D01*
X120407300Y-83438600D02*
X121163900Y-82682000D01*
X121534000Y-76384000D02*
X121534000Y-76332000D01*
X144310000Y-53820000D02*
X142716200Y-55413800D01*
X121920700Y-82682000D02*
X122684700Y-81918000D01*
X122684700Y-81918000D02*
X122684700Y-77534700D01*
X120407300Y-85365300D02*
X120407300Y-83438600D01*
%TO.N,PS2-CLK*%
X144637400Y-55090000D02*
X148609000Y-51118400D01*
X143931800Y-55090000D02*
X144637400Y-55090000D01*
X148609000Y-51118400D02*
X148609000Y-39827000D01*
X144310000Y-58900000D02*
X143183300Y-57773300D01*
X143183300Y-57773300D02*
X143183300Y-55838500D01*
X143183300Y-55838500D02*
X143931800Y-55090000D01*
%TO.N,FLOAT*%
X136774000Y-71252000D02*
X136774000Y-70407100D01*
X135533200Y-67471200D02*
X121534000Y-53472000D01*
X136774000Y-70407100D02*
X135533200Y-69166300D01*
X136774000Y-71252000D02*
X136774000Y-73792000D01*
X121534000Y-53472000D02*
X121534000Y-50932000D01*
X135533200Y-69166300D02*
X135533200Y-67471200D01*
%TO.N,BREAK*%
X119625000Y-109900000D02*
X119625000Y-92000000D01*
X74015000Y-111410000D02*
X75400000Y-110025000D01*
X152414950Y-66160050D02*
X149393900Y-63139000D01*
X75040000Y-126875000D02*
X74015000Y-125850000D01*
X149393900Y-61458900D02*
X146835000Y-58900000D01*
X120775000Y-90850000D02*
X120775000Y-90800000D01*
X75400000Y-110025000D02*
X119500000Y-110025000D01*
X149393900Y-63139000D02*
X149393900Y-61458900D01*
X159550000Y-73295100D02*
X152414950Y-66160050D01*
X119625000Y-92000000D02*
X120775000Y-90850000D01*
X159550000Y-74140000D02*
X159550000Y-73295100D01*
X119500000Y-110025000D02*
X119625000Y-109900000D01*
X74015000Y-125850000D02*
X74015000Y-111410000D01*
X151100000Y-67475000D02*
X152414950Y-66160050D01*
X150525000Y-67475000D02*
X151100000Y-67475000D01*
%TO.N,D0*%
X124101600Y-78519400D02*
X124101600Y-86727900D01*
X129545000Y-92171300D02*
X129545000Y-95070000D01*
X129545000Y-112850000D02*
X129545000Y-113976700D01*
X129545000Y-105230000D02*
X129545000Y-107770000D01*
X129545000Y-110310000D02*
X129545000Y-112850000D01*
X124101600Y-86727900D02*
X129545000Y-92171300D01*
X136774000Y-50932000D02*
X136774000Y-50976000D01*
X133115400Y-117547100D02*
X133115400Y-121405500D01*
X134207300Y-53542700D02*
X134207300Y-64180900D01*
X123666100Y-78083900D02*
X124101600Y-78519400D01*
X129545000Y-102690000D02*
X129545000Y-105230000D01*
X133102200Y-127371200D02*
X131831500Y-126100500D01*
X129545000Y-97610000D02*
X129545000Y-100150000D01*
X129545000Y-97610000D02*
X129545000Y-95070000D01*
X129545000Y-113976700D02*
X133115400Y-117547100D01*
X129545000Y-107770000D02*
X129545000Y-110310000D01*
X131831500Y-126100500D02*
X131168000Y-126100500D01*
X136774000Y-50976000D02*
X134207300Y-53542700D01*
%TO.N,D6*%
X136774000Y-45852000D02*
X136802000Y-45852000D01*
X154181300Y-126633700D02*
X156260000Y-124555000D01*
X142716400Y-43107500D02*
X147170800Y-38653100D01*
X147170800Y-38653100D02*
X150003100Y-38653100D01*
X156220000Y-122313300D02*
X156220000Y-121750000D01*
X156260000Y-122916700D02*
X156260000Y-124555000D01*
X141019000Y-48173300D02*
X142716400Y-46475900D01*
X120958100Y-123208100D02*
X130033400Y-123208100D01*
X136802000Y-45852000D02*
X139123300Y-48173300D01*
X131733100Y-124907800D02*
X138279100Y-124907800D01*
X155093300Y-69896900D02*
X154653700Y-69457300D01*
X142716400Y-46475900D02*
X142716400Y-43107500D01*
X150003100Y-38653100D02*
X154474500Y-43124500D01*
X142191400Y-126183500D02*
X142641600Y-126633700D01*
X154474500Y-43124500D02*
X154474500Y-67155100D01*
X155093300Y-119496600D02*
X155093300Y-69896900D01*
X130033400Y-123208100D02*
X131733100Y-124907800D01*
X156220000Y-121750000D02*
X156220000Y-120623300D01*
X156220000Y-122876700D02*
X156260000Y-122916700D01*
X156220000Y-120623300D02*
X155093300Y-119496600D01*
X142641600Y-126633700D02*
X154181300Y-126633700D01*
X139123300Y-48173300D02*
X141019000Y-48173300D01*
X156220000Y-122313300D02*
X156220000Y-122876700D01*
X116856000Y-119127000D02*
X116877000Y-119127000D01*
X138279100Y-124907800D02*
X139554800Y-126183500D01*
X116877000Y-119127000D02*
X120958100Y-123208100D01*
X139554800Y-126183500D02*
X142191400Y-126183500D01*
%TO.N,D5*%
X132421000Y-122862800D02*
X136417100Y-122862800D01*
X153680000Y-122313300D02*
X153680000Y-121750000D01*
X153680000Y-122876700D02*
X153720000Y-122916700D01*
X145210800Y-38177500D02*
X142616300Y-40772000D01*
X153680000Y-122313300D02*
X153680000Y-122876700D01*
X150477500Y-38177500D02*
X145210800Y-38177500D01*
X153004100Y-94454700D02*
X154254200Y-93204600D01*
X127887600Y-122756400D02*
X128301600Y-122342400D01*
X122341700Y-121298900D02*
X123799200Y-122756400D01*
X153004100Y-112075000D02*
X153004100Y-94454700D01*
X154254200Y-93204600D02*
X154254200Y-71715100D01*
X142616300Y-40772000D02*
X136774000Y-40772000D01*
X131900600Y-122342400D02*
X132421000Y-122862800D01*
X123799200Y-122756400D02*
X127887600Y-122756400D01*
X128301600Y-122342400D02*
X131900600Y-122342400D01*
X153720000Y-122916700D02*
X153720000Y-124555000D01*
X158035900Y-70513100D02*
X158035900Y-45735900D01*
X158035900Y-45735900D02*
X150477500Y-38177500D01*
%TO.N,D4*%
X116331400Y-117941400D02*
X118259800Y-116013000D01*
X137598800Y-122899400D02*
X137598800Y-122696000D01*
X121226905Y-113975000D02*
X120625305Y-113373400D01*
X125050000Y-113100000D02*
X124175000Y-113975000D01*
X142603700Y-125856900D02*
X142478600Y-125731800D01*
X127625000Y-86375000D02*
X127625000Y-88225000D01*
X151140000Y-122313300D02*
X151140000Y-121750000D01*
X118259800Y-116013000D02*
X118259800Y-114823400D01*
X140431200Y-125731800D02*
X137598800Y-122899400D01*
X118259800Y-114823400D02*
X118259900Y-114823400D01*
X127625000Y-79550000D02*
X127625000Y-86375000D01*
X151180000Y-124555000D02*
X149553000Y-126182000D01*
X111776000Y-119127000D02*
X112961600Y-117941400D01*
X132309000Y-119013000D02*
X128119400Y-114823400D01*
X112961600Y-117941400D02*
X116331400Y-117941400D01*
X128119400Y-114823400D02*
X127420600Y-114823400D01*
X149553000Y-126182000D02*
X142828700Y-126182000D01*
X126275000Y-102325000D02*
X125050000Y-103550000D01*
X142828700Y-126182000D02*
X142603700Y-125957000D01*
X151140000Y-122313300D02*
X151140000Y-122876700D01*
X119709900Y-113373400D02*
X118259900Y-114823400D01*
X142478600Y-125731800D02*
X140431200Y-125731800D01*
X151180000Y-122916700D02*
X151180000Y-124555000D01*
X123500000Y-75425000D02*
X127625000Y-79550000D01*
X151140000Y-122876700D02*
X151180000Y-122916700D01*
X126275000Y-91875000D02*
X126275000Y-102325000D01*
X132309000Y-119261100D02*
X132309000Y-119013000D01*
X124175000Y-113975000D02*
X121226905Y-113975000D01*
X127625000Y-88225000D02*
X129550000Y-90150000D01*
X125050000Y-103550000D02*
X125050000Y-113100000D01*
X142603700Y-125957000D02*
X142603700Y-125856900D01*
X120625305Y-113373400D02*
X119709900Y-113373400D01*
%TO.N,D3*%
X131695600Y-123609000D02*
X131180200Y-123093600D01*
X148600000Y-122313300D02*
X148600000Y-121750000D01*
X148600000Y-122876700D02*
X148640000Y-122916700D01*
X148600000Y-120623300D02*
X148600000Y-121750000D01*
X135746600Y-123609000D02*
X131695600Y-123609000D01*
X152277400Y-116945900D02*
X148600000Y-120623300D01*
X138563000Y-101270100D02*
X151197500Y-101270100D01*
X136774000Y-86492000D02*
X136774000Y-87618700D01*
X136774000Y-87618700D02*
X136809600Y-87654300D01*
X136809600Y-99516700D02*
X138563000Y-101270100D01*
X136809600Y-87654300D02*
X136809600Y-99516700D01*
X148640000Y-122916700D02*
X148640000Y-124555000D01*
X152277400Y-102350000D02*
X152277400Y-116945900D01*
X148600000Y-122313300D02*
X148600000Y-122876700D01*
X151197500Y-101270100D02*
X152277400Y-102350000D01*
%TO.N,D2*%
X133000000Y-103950000D02*
X131450000Y-103950000D01*
X109877600Y-123721900D02*
X109553300Y-123721900D01*
X146060000Y-121750000D02*
X146060000Y-122876700D01*
X133484100Y-115217700D02*
X133484100Y-104434100D01*
X125621800Y-104388000D02*
X125844500Y-104165300D01*
X128273100Y-101357400D02*
X128273100Y-91538200D01*
X142410100Y-124143700D02*
X133484100Y-115217700D01*
X146060000Y-122876700D02*
X146100000Y-122916700D01*
X146100000Y-124555000D02*
X144973300Y-125681700D01*
X130950000Y-103450000D02*
X130950000Y-102100000D01*
X121534000Y-84799100D02*
X121534000Y-83952000D01*
X146100000Y-122916700D02*
X146100000Y-124555000D01*
X143067300Y-125681700D02*
X142410200Y-125024600D01*
X142410200Y-125024600D02*
X142410100Y-125024600D01*
X125844500Y-104165300D02*
X125844500Y-104163200D01*
X128273100Y-91538200D02*
X121534000Y-84799100D01*
X128461700Y-101546000D02*
X128273100Y-101357400D01*
X111776000Y-125620300D02*
X109877600Y-123721900D01*
X111776000Y-126747000D02*
X111776000Y-125620300D01*
X130396000Y-101546000D02*
X128461700Y-101546000D01*
X133484100Y-104434100D02*
X133000000Y-103950000D01*
X125844500Y-104163200D02*
X128461700Y-101546000D01*
X131450000Y-103950000D02*
X130950000Y-103450000D01*
X144973300Y-125681700D02*
X143067300Y-125681700D01*
X125621800Y-121081600D02*
X125621800Y-104388000D01*
X130950000Y-102100000D02*
X130396000Y-101546000D01*
X142410100Y-125024600D02*
X142410100Y-124143700D01*
%TO.N,D1*%
X132576100Y-93790000D02*
X133418700Y-94632600D01*
X143428700Y-122132500D02*
X143560000Y-122132500D01*
X151140000Y-114552500D02*
X143560000Y-122132500D01*
X151140000Y-114130000D02*
X151140000Y-114552500D01*
X121534000Y-78872000D02*
X120368700Y-77706700D01*
X114316000Y-125620300D02*
X111423900Y-122728200D01*
X114316000Y-126747000D02*
X114316000Y-125620300D01*
X133953200Y-104057500D02*
X133953200Y-111011800D01*
X134373800Y-111432400D02*
X134373800Y-113077600D01*
X124712400Y-77877700D02*
X124712400Y-86664400D01*
X121069100Y-75198200D02*
X122032900Y-75198200D01*
X133418700Y-94632600D02*
X133418700Y-103523000D01*
X119850300Y-116687700D02*
X119850300Y-116437500D01*
X120368700Y-76151800D02*
X120367200Y-76150300D01*
X120368700Y-77706700D02*
X120368700Y-76151800D01*
X111423900Y-122728200D02*
X111423900Y-121630000D01*
X143560000Y-122132500D02*
X143560000Y-124555000D01*
X133953200Y-111011800D02*
X134373800Y-111432400D01*
X131838000Y-93790000D02*
X132576100Y-93790000D01*
X122032900Y-75198200D02*
X124712400Y-77877700D01*
X118720600Y-117817400D02*
X119850300Y-116687700D01*
X124712400Y-86664400D02*
X131838000Y-93790000D01*
X134373800Y-113077600D02*
X143428700Y-122132500D01*
X120367200Y-76150300D02*
X120367200Y-75900100D01*
X133418700Y-103523000D02*
X133953200Y-104057500D01*
X120367200Y-75900100D02*
X121069100Y-75198200D01*
%TO.N,D7*%
X120325000Y-114098400D02*
X120575300Y-114348700D01*
X122398500Y-120328000D02*
X120597000Y-120328000D01*
X129225000Y-79600000D02*
X129225000Y-87225000D01*
X120575300Y-114348700D02*
X120575300Y-117947700D01*
X122610800Y-120542400D02*
X122612900Y-120542400D01*
X132333100Y-122136000D02*
X132050100Y-121853000D01*
X141020000Y-124555000D02*
X140485500Y-124555000D01*
X121534000Y-73792000D02*
X123417000Y-73792000D01*
X122615100Y-120546700D02*
X122610800Y-120542400D01*
X123548900Y-121804700D02*
X123548900Y-121478400D01*
X132050100Y-121853000D02*
X128152100Y-121853000D01*
X123548900Y-121478400D02*
X122617200Y-120546700D01*
X123417000Y-73792000D02*
X129225000Y-79600000D01*
X128152100Y-121853000D02*
X127700400Y-122304700D01*
X120575300Y-117947700D02*
X119396000Y-119127000D01*
X120597000Y-120328000D02*
X119396000Y-119127000D01*
X137899800Y-121969300D02*
X137297900Y-121969300D01*
X122612900Y-120542400D02*
X122398500Y-120328000D01*
X122617200Y-120546700D02*
X122615100Y-120546700D01*
X137131200Y-122136000D02*
X132333100Y-122136000D01*
X137297900Y-121969300D02*
X137131200Y-122136000D01*
X140485500Y-124555000D02*
X137899800Y-121969300D01*
X124048900Y-122304700D02*
X123548900Y-121804700D01*
X127700400Y-122304700D02*
X124048900Y-122304700D01*
%TO.N,QD*%
X101228800Y-119127000D02*
X105111000Y-123009200D01*
X100981000Y-119127000D02*
X101228800Y-119127000D01*
X105111000Y-123009200D02*
X106645900Y-123009200D01*
%TO.N,QC*%
X120625000Y-94120000D02*
X120625000Y-110350000D01*
X120050000Y-110925000D02*
X100200000Y-110925000D01*
X99575000Y-117670304D02*
X98441000Y-118804304D01*
X120625000Y-110350000D02*
X120050000Y-110925000D01*
X121920000Y-92825000D02*
X120625000Y-94120000D01*
X98441000Y-118804304D02*
X98441000Y-119127000D01*
X100200000Y-110925000D02*
X99575000Y-111550000D01*
X123784400Y-92825000D02*
X121920000Y-92825000D01*
X99575000Y-111550000D02*
X99575000Y-117670304D01*
%TO.N,QB*%
X107811000Y-125372900D02*
X103227100Y-125372900D01*
X97171000Y-125481100D02*
X97171000Y-127101900D01*
X102106000Y-127567700D02*
X101800000Y-127873700D01*
X103227100Y-125372900D02*
X102106000Y-126494000D01*
X136082900Y-99941800D02*
X136581400Y-100440300D01*
X95901000Y-119127000D02*
X95901000Y-124211100D01*
X102106000Y-126494000D02*
X102106000Y-127567700D01*
X95901000Y-124211100D02*
X97171000Y-125481100D01*
X97942800Y-127873700D02*
X101800000Y-127873700D01*
X136082900Y-96441100D02*
X136082900Y-99941800D01*
X97171000Y-127101900D02*
X97942800Y-127873700D01*
%TO.N,QA*%
X124506400Y-104225800D02*
X124506400Y-104862600D01*
X112194700Y-115328700D02*
X111043700Y-114177700D01*
X111043700Y-114177700D02*
X110106000Y-114177700D01*
X124509400Y-103271300D02*
X124507900Y-103272800D01*
X94509000Y-116852300D02*
X94509000Y-113983300D01*
X117533200Y-116100700D02*
X116589600Y-117044300D01*
X113031200Y-117044300D02*
X112194700Y-116207800D01*
X124507900Y-109163000D02*
X124509400Y-109164500D01*
X124507900Y-104864100D02*
X124507900Y-109163000D01*
X117533200Y-114498900D02*
X117533200Y-116100700D01*
X124507900Y-104224300D02*
X124506400Y-104225800D01*
X122379100Y-111450200D02*
X120581900Y-111450200D01*
X124507900Y-103272800D02*
X124507900Y-104224300D01*
X110106000Y-114177700D02*
X110106000Y-114177600D01*
X124509400Y-109319900D02*
X122379100Y-111450200D01*
X124509400Y-91976300D02*
X124509400Y-103271300D01*
X124506400Y-104862600D02*
X124507900Y-104864100D01*
X93361000Y-119127000D02*
X93361000Y-118000300D01*
X116589600Y-117044300D02*
X113031200Y-117044300D01*
X124509400Y-109164500D02*
X124509400Y-109319900D01*
X93361000Y-118000300D02*
X94509000Y-116852300D01*
X112194700Y-116207800D02*
X112194700Y-115328700D01*
X120581900Y-111450200D02*
X117533200Y-114498900D01*
%TO.N,AY2*%
X121534000Y-40772000D02*
X123303400Y-42541400D01*
X136436000Y-67442000D02*
X137550000Y-67442000D01*
X123303400Y-42541400D02*
X123303400Y-54309400D01*
X123303400Y-54309400D02*
X136436000Y-67442000D01*
%TO.N,RESET*%
X161841400Y-70186700D02*
X162541800Y-70186700D01*
X163201700Y-69526800D02*
X163201700Y-65106700D01*
X159550000Y-81760000D02*
X160728300Y-80581700D01*
X160728300Y-71299800D02*
X161841400Y-70186700D01*
X162541800Y-70186700D02*
X163201700Y-69526800D01*
X163201700Y-65106700D02*
X162075000Y-63980000D01*
X160728300Y-80581700D02*
X160728300Y-71299800D01*
%TO.N,AX3*%
X143703600Y-85802500D02*
X144894300Y-85802500D01*
X162075000Y-66520000D02*
X160850000Y-65295000D01*
X160850000Y-65295000D02*
X160850000Y-57750000D01*
X124150000Y-45925000D02*
X127950000Y-42125000D01*
X142800200Y-80729800D02*
X142800200Y-84899100D01*
X127950000Y-42125000D02*
X128025000Y-42125000D01*
X140112991Y-49850000D02*
X137290743Y-47027752D01*
X136102752Y-47027752D02*
X131200000Y-42125000D01*
X160850000Y-47425000D02*
X160775000Y-47350000D01*
X160850000Y-57750000D02*
X160850000Y-47425000D01*
X144310000Y-79220000D02*
X142800200Y-80729800D01*
X137290743Y-47027752D02*
X136102752Y-47027752D01*
X142325000Y-49850000D02*
X140112991Y-49850000D01*
X142800200Y-84899100D02*
X143703600Y-85802500D01*
X153415000Y-77281800D02*
X153415000Y-69959400D01*
X144894300Y-85802500D02*
X153415000Y-77281800D01*
%TO.N,STROBE*%
X146835000Y-61440000D02*
X144310000Y-61440000D01*
%TO.N,DATA*%
X146835000Y-56360000D02*
X144310000Y-56360000D01*
%TO.N,Net-(D13-K)*%
X137104200Y-49662000D02*
X138820200Y-51378000D01*
X136395100Y-49662000D02*
X137104200Y-49662000D01*
X138820200Y-51378000D02*
X138820200Y-54905200D01*
X129068000Y-30861000D02*
X129068000Y-42334900D01*
X129068000Y-42334900D02*
X136395100Y-49662000D01*
X138820200Y-54905200D02*
X140600000Y-56685000D01*
%TO.N,Net-(D14-K)*%
X130362500Y-29874100D02*
X130362500Y-38536000D01*
X123650000Y-30861000D02*
X124893300Y-32104300D01*
X127083300Y-32104300D02*
X127798000Y-31389600D01*
X127798000Y-29846200D02*
X128009900Y-29634300D01*
X130362500Y-38536000D02*
X136408500Y-44582000D01*
X128009900Y-29634300D02*
X130122700Y-29634300D01*
X124893300Y-32104300D02*
X127083300Y-32104300D01*
X130122700Y-29634300D02*
X130362500Y-29874100D01*
X136408500Y-44582000D02*
X138047000Y-44582000D01*
X138047000Y-44582000D02*
X140600000Y-47135000D01*
X127798000Y-31389600D02*
X127798000Y-29846200D01*
%TD*%
M02*
