%TF.GenerationSoftware,KiCad,Pcbnew,8.0.1*%
%TF.CreationDate,2024-06-09T22:48:09+01:00*%
%TF.ProjectId,BBC-USBSlim,4242432d-5553-4425-936c-696d2e6b6963,rev?*%
%TF.SameCoordinates,Original*%
%TF.FileFunction,Soldermask,Bot*%
%TF.FilePolarity,Negative*%
%FSLAX46Y46*%
G04 Gerber Fmt 4.6, Leading zero omitted, Abs format (unit mm)*
G04 Created by KiCad (PCBNEW 8.0.1) date 2024-06-09 22:48:09*
%MOMM*%
%LPD*%
G01*
G04 APERTURE LIST*
%ADD10C,2.500000*%
%ADD11R,1.700000X1.700000*%
%ADD12O,1.700000X1.700000*%
%ADD13R,1.600000X1.600000*%
%ADD14O,1.600000X1.600000*%
G04 APERTURE END LIST*
D10*
%TO.C,H2*%
X124700000Y-99200000D03*
%TD*%
%TO.C,H1*%
X149000000Y-111700000D03*
%TD*%
D11*
%TO.C,J1*%
X75458000Y-115847000D03*
D12*
X77998000Y-115847000D03*
X80538000Y-115847000D03*
X83078000Y-115847000D03*
X85618000Y-115847000D03*
X88158000Y-115847000D03*
X90698000Y-115847000D03*
X93238000Y-115847000D03*
X95778000Y-115847000D03*
X98318000Y-115847000D03*
X100858000Y-115847000D03*
X103398000Y-115847000D03*
X105938000Y-115847000D03*
X108478000Y-115847000D03*
X111018000Y-115847000D03*
X113558000Y-115847000D03*
X116098000Y-115847000D03*
%TD*%
D13*
%TO.C,U7*%
X137825000Y-76566000D03*
D14*
X137825000Y-79106000D03*
X137825000Y-81646000D03*
X137825000Y-84186000D03*
X137825000Y-86726000D03*
X137825000Y-89266000D03*
X137825000Y-91806000D03*
X153065000Y-91806000D03*
X153065000Y-89266000D03*
X153065000Y-86726000D03*
X153065000Y-84186000D03*
X153065000Y-81646000D03*
X153065000Y-79106000D03*
X153065000Y-76566000D03*
%TD*%
D13*
%TO.C,SW1*%
X128820000Y-94490000D03*
D14*
X128820000Y-91950000D03*
X128820000Y-89410000D03*
X128820000Y-86870000D03*
X128820000Y-84330000D03*
X128820000Y-81790000D03*
X128820000Y-79250000D03*
X128820000Y-76710000D03*
X121200000Y-76710000D03*
X121200000Y-79250000D03*
X121200000Y-81790000D03*
X121200000Y-84330000D03*
X121200000Y-86870000D03*
X121200000Y-89410000D03*
X121200000Y-91950000D03*
X121200000Y-94490000D03*
%TD*%
D11*
%TO.C,J3*%
X75460000Y-112175000D03*
D12*
X78000000Y-112175000D03*
X80540000Y-112175000D03*
X83080000Y-112175000D03*
X85620000Y-112175000D03*
X88160000Y-112175000D03*
X90700000Y-112175000D03*
X93240000Y-112175000D03*
X95780000Y-112175000D03*
X98320000Y-112175000D03*
X100860000Y-112175000D03*
X103400000Y-112175000D03*
X105940000Y-112175000D03*
X108480000Y-112175000D03*
X111020000Y-112175000D03*
X113560000Y-112175000D03*
X116100000Y-112175000D03*
%TD*%
M02*
