%TF.GenerationSoftware,KiCad,Pcbnew,8.0.1*%
%TF.CreationDate,2024-06-09T22:48:08+01:00*%
%TF.ProjectId,BBC-USBSlim,4242432d-5553-4425-936c-696d2e6b6963,rev?*%
%TF.SameCoordinates,Original*%
%TF.FileFunction,Copper,L1,Top*%
%TF.FilePolarity,Positive*%
%FSLAX46Y46*%
G04 Gerber Fmt 4.6, Leading zero omitted, Abs format (unit mm)*
G04 Created by KiCad (PCBNEW 8.0.1) date 2024-06-09 22:48:08*
%MOMM*%
%LPD*%
G01*
G04 APERTURE LIST*
G04 Aperture macros list*
%AMRoundRect*
0 Rectangle with rounded corners*
0 $1 Rounding radius*
0 $2 $3 $4 $5 $6 $7 $8 $9 X,Y pos of 4 corners*
0 Add a 4 corners polygon primitive as box body*
4,1,4,$2,$3,$4,$5,$6,$7,$8,$9,$2,$3,0*
0 Add four circle primitives for the rounded corners*
1,1,$1+$1,$2,$3*
1,1,$1+$1,$4,$5*
1,1,$1+$1,$6,$7*
1,1,$1+$1,$8,$9*
0 Add four rect primitives between the rounded corners*
20,1,$1+$1,$2,$3,$4,$5,0*
20,1,$1+$1,$4,$5,$6,$7,0*
20,1,$1+$1,$6,$7,$8,$9,0*
20,1,$1+$1,$8,$9,$2,$3,0*%
%AMFreePoly0*
4,1,9,3.862500,-0.866500,0.737500,-0.866500,0.737500,-0.450000,-0.737500,-0.450000,-0.737500,0.450000,0.737500,0.450000,0.737500,0.866500,3.862500,0.866500,3.862500,-0.866500,3.862500,-0.866500,$1*%
G04 Aperture macros list end*
%TA.AperFunction,SMDPad,CuDef*%
%ADD10RoundRect,0.250000X0.262500X0.450000X-0.262500X0.450000X-0.262500X-0.450000X0.262500X-0.450000X0*%
%TD*%
%TA.AperFunction,SMDPad,CuDef*%
%ADD11R,0.550000X1.500000*%
%TD*%
%TA.AperFunction,SMDPad,CuDef*%
%ADD12R,1.500000X0.550000*%
%TD*%
%TA.AperFunction,SMDPad,CuDef*%
%ADD13RoundRect,0.250000X0.375000X0.625000X-0.375000X0.625000X-0.375000X-0.625000X0.375000X-0.625000X0*%
%TD*%
%TA.AperFunction,SMDPad,CuDef*%
%ADD14R,0.900000X1.200000*%
%TD*%
%TA.AperFunction,SMDPad,CuDef*%
%ADD15RoundRect,0.250000X-0.262500X-0.450000X0.262500X-0.450000X0.262500X0.450000X-0.262500X0.450000X0*%
%TD*%
%TA.AperFunction,SMDPad,CuDef*%
%ADD16RoundRect,0.250000X-0.475000X0.250000X-0.475000X-0.250000X0.475000X-0.250000X0.475000X0.250000X0*%
%TD*%
%TA.AperFunction,ComponentPad*%
%ADD17R,1.700000X1.700000*%
%TD*%
%TA.AperFunction,ComponentPad*%
%ADD18O,1.700000X1.700000*%
%TD*%
%TA.AperFunction,SMDPad,CuDef*%
%ADD19RoundRect,0.225000X0.225000X-0.425000X0.225000X0.425000X-0.225000X0.425000X-0.225000X-0.425000X0*%
%TD*%
%TA.AperFunction,SMDPad,CuDef*%
%ADD20FreePoly0,90.000000*%
%TD*%
%TA.AperFunction,ComponentPad*%
%ADD21R,1.600000X1.600000*%
%TD*%
%TA.AperFunction,ComponentPad*%
%ADD22O,1.600000X1.600000*%
%TD*%
%TA.AperFunction,SMDPad,CuDef*%
%ADD23RoundRect,0.250000X0.450000X-0.262500X0.450000X0.262500X-0.450000X0.262500X-0.450000X-0.262500X0*%
%TD*%
%TA.AperFunction,SMDPad,CuDef*%
%ADD24RoundRect,0.150000X0.150000X-0.825000X0.150000X0.825000X-0.150000X0.825000X-0.150000X-0.825000X0*%
%TD*%
%TA.AperFunction,SMDPad,CuDef*%
%ADD25RoundRect,0.250000X0.475000X-0.250000X0.475000X0.250000X-0.475000X0.250000X-0.475000X-0.250000X0*%
%TD*%
%TA.AperFunction,ViaPad*%
%ADD26C,0.800000*%
%TD*%
%TA.AperFunction,Conductor*%
%ADD27C,0.250000*%
%TD*%
%TA.AperFunction,Conductor*%
%ADD28C,0.600000*%
%TD*%
%TA.AperFunction,Conductor*%
%ADD29C,0.300000*%
%TD*%
G04 APERTURE END LIST*
D10*
%TO.P,R14,1*%
%TO.N,+5V*%
X153750000Y-112575000D03*
%TO.P,R14,2*%
%TO.N,D7*%
X151925000Y-112575000D03*
%TD*%
D11*
%TO.P,U6,1,N/C*%
%TO.N,unconnected-(U6-N{slash}C-Pad1)*%
X148900000Y-95650000D03*
%TO.P,U6,2,X14*%
%TO.N,FLOAT*%
X148100000Y-95650000D03*
%TO.P,U6,3,X15*%
X147300000Y-95650000D03*
%TO.P,U6,4,X6*%
%TO.N,X6*%
X146500000Y-95650000D03*
%TO.P,U6,5,X7*%
%TO.N,X7*%
X145700000Y-95650000D03*
%TO.P,U6,6,X8*%
%TO.N,X8*%
X144900000Y-95650000D03*
%TO.P,U6,7,X9*%
%TO.N,X9*%
X144100000Y-95650000D03*
%TO.P,U6,8,X10*%
%TO.N,X10*%
X143300000Y-95650000D03*
%TO.P,U6,9,X11*%
%TO.N,X11*%
X142500000Y-95650000D03*
%TO.P,U6,10,Y7*%
%TO.N,D7*%
X141700000Y-95650000D03*
%TO.P,U6,11,N/C*%
%TO.N,unconnected-(U6-N{slash}C-Pad11)*%
X140900000Y-95650000D03*
D12*
%TO.P,U6,12,VSS*%
%TO.N,GND*%
X139200000Y-97350000D03*
%TO.P,U6,13,Y6*%
%TO.N,D1*%
X139200000Y-98150000D03*
%TO.P,U6,14,STROBE*%
%TO.N,MTSTROBE*%
X139200000Y-98950000D03*
%TO.P,U6,15,Y5*%
%TO.N,D2*%
X139200000Y-99750000D03*
%TO.P,U6,16,VEE*%
%TO.N,GND*%
X139200000Y-100550000D03*
%TO.P,U6,17,Y4*%
%TO.N,D3*%
X139200000Y-101350000D03*
%TO.P,U6,18,AX1*%
%TO.N,AX1*%
X139200000Y-102150000D03*
%TO.P,U6,19,AX2*%
%TO.N,AX2*%
X139200000Y-102950000D03*
%TO.P,U6,20,AY0*%
%TO.N,AY0*%
X139200000Y-103750000D03*
%TO.P,U6,21,AY1*%
%TO.N,AY1*%
X139200000Y-104550000D03*
%TO.P,U6,22,N/C*%
%TO.N,unconnected-(U6-N{slash}C-Pad22)*%
X139200000Y-105350000D03*
D11*
%TO.P,U6,23,N/C*%
%TO.N,unconnected-(U6-N{slash}C-Pad23)*%
X140900000Y-107050000D03*
%TO.P,U6,24,X13*%
%TO.N,FLOAT*%
X141700000Y-107050000D03*
%TO.P,U6,25,X12*%
X142500000Y-107050000D03*
%TO.P,U6,26,X5*%
%TO.N,X5*%
X143300000Y-107050000D03*
%TO.P,U6,27,X4*%
%TO.N,X4*%
X144100000Y-107050000D03*
%TO.P,U6,28,X3*%
%TO.N,X3*%
X144900000Y-107050000D03*
%TO.P,U6,29,X2*%
%TO.N,X2*%
X145700000Y-107050000D03*
%TO.P,U6,30,X1*%
%TO.N,X1*%
X146500000Y-107050000D03*
%TO.P,U6,31,X0*%
%TO.N,X0*%
X147300000Y-107050000D03*
%TO.P,U6,32,Y0*%
%TO.N,D0*%
X148100000Y-107050000D03*
%TO.P,U6,33,N/C*%
%TO.N,unconnected-(U6-N{slash}C-Pad33)*%
X148900000Y-107050000D03*
D12*
%TO.P,U6,34,CS*%
%TO.N,+5V*%
X150600000Y-105350000D03*
%TO.P,U6,35,Y1*%
%TO.N,D6*%
X150600000Y-104550000D03*
%TO.P,U6,36,DATA*%
%TO.N,MTDATA*%
X150600000Y-103750000D03*
%TO.P,U6,37,Y2*%
%TO.N,D5*%
X150600000Y-102950000D03*
%TO.P,U6,38,VCC*%
%TO.N,+5V*%
X150600000Y-102150000D03*
%TO.P,U6,39,Y3*%
%TO.N,D4*%
X150600000Y-101350000D03*
%TO.P,U6,40,AY2*%
%TO.N,AY2*%
X150600000Y-100550000D03*
%TO.P,U6,41,N/C*%
%TO.N,unconnected-(U6-N{slash}C-Pad41)*%
X150600000Y-99750000D03*
%TO.P,U6,42,RESET*%
%TO.N,MTRESET*%
X150600000Y-98950000D03*
%TO.P,U6,43,AX3*%
%TO.N,AX3*%
X150600000Y-98150000D03*
%TO.P,U6,44,AX0*%
%TO.N,AX0*%
X150600000Y-97350000D03*
%TD*%
D10*
%TO.P,R8,1*%
%TO.N,+5V*%
X153750000Y-123975000D03*
%TO.P,R8,2*%
%TO.N,D6*%
X151925000Y-123975000D03*
%TD*%
%TO.P,R3,1*%
%TO.N,Net-(D14-K)*%
X127718000Y-116550000D03*
%TO.P,R3,2*%
%TO.N,LED3*%
X125893000Y-116550000D03*
%TD*%
D13*
%TO.P,D14,1,K*%
%TO.N,Net-(D14-K)*%
X128185500Y-114311000D03*
%TO.P,D14,2,A*%
%TO.N,+5V*%
X125385500Y-114311000D03*
%TD*%
D14*
%TO.P,D6,1,K*%
%TO.N,X5*%
X134650000Y-85730000D03*
%TO.P,D6,2,A*%
%TO.N,Net-(D6-A)*%
X131350000Y-85730000D03*
%TD*%
D15*
%TO.P,R6,1*%
%TO.N,Net-(Q1-B)*%
X77137500Y-125300000D03*
%TO.P,R6,2*%
%TO.N,Net-(D11-A)*%
X78962500Y-125300000D03*
%TD*%
D10*
%TO.P,R7,1*%
%TO.N,+5V*%
X153750000Y-125875000D03*
%TO.P,R7,2*%
%TO.N,D0*%
X151925000Y-125875000D03*
%TD*%
D14*
%TO.P,D10,1,K*%
%TO.N,X9*%
X134650000Y-76330000D03*
%TO.P,D10,2,A*%
%TO.N,Net-(D10-A)*%
X131350000Y-76330000D03*
%TD*%
%TO.P,D3,1,K*%
%TO.N,X2*%
X134650000Y-92780000D03*
%TO.P,D3,2,A*%
%TO.N,Net-(D3-A)*%
X131350000Y-92780000D03*
%TD*%
D10*
%TO.P,R11,1*%
%TO.N,+5V*%
X153750000Y-118275000D03*
%TO.P,R11,2*%
%TO.N,D3*%
X151925000Y-118275000D03*
%TD*%
%TO.P,R13,1*%
%TO.N,+5V*%
X153750000Y-114475000D03*
%TO.P,R13,2*%
%TO.N,D1*%
X151925000Y-114475000D03*
%TD*%
D16*
%TO.P,C4,1*%
%TO.N,+5V*%
X133510000Y-122150000D03*
%TO.P,C4,2*%
%TO.N,GND*%
X133510000Y-124050000D03*
%TD*%
D17*
%TO.P,J1,1,Pin_1*%
%TO.N,GND*%
X75458000Y-115847000D03*
D18*
%TO.P,J1,2,Pin_2*%
%TO.N,!RST*%
X77998000Y-115847000D03*
%TO.P,J1,3,Pin_3*%
%TO.N,1MHZ*%
X80538000Y-115847000D03*
%TO.P,J1,4,Pin_4*%
%TO.N,KB !EN*%
X83078000Y-115847000D03*
%TO.P,J1,5,Pin_5*%
%TO.N,PA4*%
X85618000Y-115847000D03*
%TO.P,J1,6,Pin_6*%
%TO.N,PA5*%
X88158000Y-115847000D03*
%TO.P,J1,7,Pin_7*%
%TO.N,PA6*%
X90698000Y-115847000D03*
%TO.P,J1,8,Pin_8*%
%TO.N,PA0*%
X93238000Y-115847000D03*
%TO.P,J1,9,Pin_9*%
%TO.N,PA1*%
X95778000Y-115847000D03*
%TO.P,J1,10,Pin_10*%
%TO.N,PA2*%
X98318000Y-115847000D03*
%TO.P,J1,11,Pin_11*%
%TO.N,PA3*%
X100858000Y-115847000D03*
%TO.P,J1,12,Pin_12*%
%TO.N,PA7*%
X103398000Y-115847000D03*
%TO.P,J1,13,Pin_13*%
%TO.N,LED3*%
X105938000Y-115847000D03*
%TO.P,J1,14,Pin_14*%
%TO.N,CA2*%
X108478000Y-115847000D03*
%TO.P,J1,15,Pin_15*%
%TO.N,+5V*%
X111018000Y-115847000D03*
%TO.P,J1,16,Pin_16*%
%TO.N,LED1*%
X113558000Y-115847000D03*
%TO.P,J1,17,Pin_17*%
%TO.N,LED2*%
X116098000Y-115847000D03*
%TD*%
D14*
%TO.P,D7,1,K*%
%TO.N,X6*%
X134650000Y-83380000D03*
%TO.P,D7,2,A*%
%TO.N,Net-(D7-A)*%
X131350000Y-83380000D03*
%TD*%
D19*
%TO.P,Q1,1,B*%
%TO.N,Net-(Q1-B)*%
X76500000Y-123250000D03*
D20*
%TO.P,Q1,2,C*%
%TO.N,!RST*%
X78000000Y-123162500D03*
D19*
%TO.P,Q1,3,E*%
%TO.N,GND*%
X79500000Y-123250000D03*
%TD*%
D16*
%TO.P,C1,1*%
%TO.N,+5V*%
X102610000Y-122150000D03*
%TO.P,C1,2*%
%TO.N,GND*%
X102610000Y-124050000D03*
%TD*%
D21*
%TO.P,U7,1,Pin_1*%
%TO.N,MTDATA*%
X137825000Y-76566000D03*
D22*
%TO.P,U7,2,Pin_2*%
%TO.N,BREAK*%
X137825000Y-79106000D03*
%TO.P,U7,3,Pin_3*%
%TO.N,MTSTROBE*%
X137825000Y-81646000D03*
%TO.P,U7,4,Pin_4*%
%TO.N,AY2*%
X137825000Y-84186000D03*
%TO.P,U7,5,Pin_5*%
%TO.N,AY1*%
X137825000Y-86726000D03*
%TO.P,U7,6,Pin_6*%
%TO.N,AY0*%
X137825000Y-89266000D03*
%TO.P,U7,7,Pin_7*%
%TO.N,AX2*%
X137825000Y-91806000D03*
%TO.P,U7,8,Pin_8*%
%TO.N,AX1*%
X153065000Y-91806000D03*
%TO.P,U7,9,Pin_9*%
%TO.N,AX0*%
X153065000Y-89266000D03*
%TO.P,U7,10,Pin_10*%
%TO.N,AX3*%
X153065000Y-86726000D03*
%TO.P,U7,11,Pin_11*%
%TO.N,MTRESET*%
X153065000Y-84186000D03*
%TO.P,U7,12,Pin_12*%
%TO.N,unconnected-(U7-Pin_12-Pad12)*%
X153065000Y-81646000D03*
%TO.P,U7,13,Pin_13*%
%TO.N,GND*%
X153065000Y-79106000D03*
%TO.P,U7,14,Pin_14*%
%TO.N,+5V*%
X153065000Y-76566000D03*
%TD*%
D23*
%TO.P,R4,1*%
%TO.N,FLOAT*%
X153150000Y-109062500D03*
%TO.P,R4,2*%
%TO.N,GND*%
X153150000Y-107237500D03*
%TD*%
D16*
%TO.P,C3,1*%
%TO.N,+5V*%
X135350000Y-104900000D03*
%TO.P,C3,2*%
%TO.N,GND*%
X135350000Y-106800000D03*
%TD*%
%TO.P,C5,1*%
%TO.N,+5V*%
X147460000Y-122150000D03*
%TO.P,C5,2*%
%TO.N,GND*%
X147460000Y-124050000D03*
%TD*%
D13*
%TO.P,D13,1,K*%
%TO.N,Net-(D13-K)*%
X133603500Y-114311000D03*
%TO.P,D13,2,A*%
%TO.N,+5V*%
X130803500Y-114311000D03*
%TD*%
%TO.P,D11,1,K*%
%TO.N,GND*%
X144453500Y-114311000D03*
%TO.P,D11,2,A*%
%TO.N,Net-(D11-A)*%
X141653500Y-114311000D03*
%TD*%
D10*
%TO.P,R2,1*%
%TO.N,Net-(D13-K)*%
X133136000Y-116550000D03*
%TO.P,R2,2*%
%TO.N,LED2*%
X131311000Y-116550000D03*
%TD*%
D14*
%TO.P,D1,1,K*%
%TO.N,X0*%
X134650000Y-97430000D03*
%TO.P,D1,2,A*%
%TO.N,X10*%
X131350000Y-97430000D03*
%TD*%
D24*
%TO.P,U3,1,~{Q0}*%
%TO.N,X0*%
X123300000Y-108450000D03*
%TO.P,U3,2,~{Q1}*%
%TO.N,X1*%
X124570000Y-108450000D03*
%TO.P,U3,3,~{Q2}*%
%TO.N,X2*%
X125840000Y-108450000D03*
%TO.P,U3,4,~{Q3}*%
%TO.N,X3*%
X127110000Y-108450000D03*
%TO.P,U3,5,~{Q4}*%
%TO.N,X4*%
X128380000Y-108450000D03*
%TO.P,U3,6,~{Q5}*%
%TO.N,X5*%
X129650000Y-108450000D03*
%TO.P,U3,7,~{Q6}*%
%TO.N,X6*%
X130920000Y-108450000D03*
%TO.P,U3,8,GND*%
%TO.N,GND*%
X132190000Y-108450000D03*
%TO.P,U3,9,~{Q7}*%
%TO.N,X7*%
X132190000Y-103500000D03*
%TO.P,U3,10,~{Q8}*%
%TO.N,X8*%
X130920000Y-103500000D03*
%TO.P,U3,11,~{Q9}*%
%TO.N,X9*%
X129650000Y-103500000D03*
%TO.P,U3,12,D*%
%TO.N,QD*%
X128380000Y-103500000D03*
%TO.P,U3,13,C*%
%TO.N,QC*%
X127110000Y-103500000D03*
%TO.P,U3,14,B*%
%TO.N,QB*%
X125840000Y-103500000D03*
%TO.P,U3,15,A*%
%TO.N,QA*%
X124570000Y-103500000D03*
%TO.P,U3,16,VCC*%
%TO.N,+5V*%
X123300000Y-103500000D03*
%TD*%
D14*
%TO.P,D4,1,K*%
%TO.N,X3*%
X134650000Y-90430000D03*
%TO.P,D4,2,A*%
%TO.N,Net-(D4-A)*%
X131350000Y-90430000D03*
%TD*%
D10*
%TO.P,R10,1*%
%TO.N,+5V*%
X153750000Y-120175000D03*
%TO.P,R10,2*%
%TO.N,D4*%
X151925000Y-120175000D03*
%TD*%
%TO.P,R12,1*%
%TO.N,+5V*%
X153750000Y-116375000D03*
%TO.P,R12,2*%
%TO.N,D2*%
X151925000Y-116375000D03*
%TD*%
D16*
%TO.P,C2,1*%
%TO.N,+5V*%
X117960000Y-122150000D03*
%TO.P,C2,2*%
%TO.N,GND*%
X117960000Y-124050000D03*
%TD*%
D21*
%TO.P,SW1,1*%
%TO.N,Net-(D3-A)*%
X128820000Y-94490000D03*
D22*
%TO.P,SW1,2*%
%TO.N,Net-(D4-A)*%
X128820000Y-91950000D03*
%TO.P,SW1,3*%
%TO.N,Net-(D5-A)*%
X128820000Y-89410000D03*
%TO.P,SW1,4*%
%TO.N,Net-(D6-A)*%
X128820000Y-86870000D03*
%TO.P,SW1,5*%
%TO.N,Net-(D7-A)*%
X128820000Y-84330000D03*
%TO.P,SW1,6*%
%TO.N,Net-(D8-A)*%
X128820000Y-81790000D03*
%TO.P,SW1,7*%
%TO.N,Net-(D9-A)*%
X128820000Y-79250000D03*
%TO.P,SW1,8*%
%TO.N,Net-(D10-A)*%
X128820000Y-76710000D03*
%TO.P,SW1,9*%
%TO.N,D0*%
X121200000Y-76710000D03*
%TO.P,SW1,10*%
X121200000Y-79250000D03*
%TO.P,SW1,11*%
X121200000Y-81790000D03*
%TO.P,SW1,12*%
X121200000Y-84330000D03*
%TO.P,SW1,13*%
X121200000Y-86870000D03*
%TO.P,SW1,14*%
X121200000Y-89410000D03*
%TO.P,SW1,15*%
X121200000Y-91950000D03*
%TO.P,SW1,16*%
X121200000Y-94490000D03*
%TD*%
D10*
%TO.P,R1,1*%
%TO.N,Net-(D12-K)*%
X138518000Y-116550000D03*
%TO.P,R1,2*%
%TO.N,LED1*%
X136693000Y-116550000D03*
%TD*%
D25*
%TO.P,C6,1*%
%TO.N,+5V*%
X155200000Y-104950000D03*
%TO.P,C6,2*%
%TO.N,GND*%
X155200000Y-103050000D03*
%TD*%
D24*
%TO.P,U1,1,~{MR}*%
%TO.N,+5V*%
X105850000Y-125575000D03*
%TO.P,U1,2,CP*%
%TO.N,1MHZ*%
X107120000Y-125575000D03*
%TO.P,U1,3,D0*%
%TO.N,PA0*%
X108390000Y-125575000D03*
%TO.P,U1,4,D1*%
%TO.N,PA1*%
X109660000Y-125575000D03*
%TO.P,U1,5,D2*%
%TO.N,PA2*%
X110930000Y-125575000D03*
%TO.P,U1,6,D3*%
%TO.N,PA3*%
X112200000Y-125575000D03*
%TO.P,U1,7,CEP*%
%TO.N,+5V*%
X113470000Y-125575000D03*
%TO.P,U1,8,GND*%
%TO.N,GND*%
X114740000Y-125575000D03*
%TO.P,U1,9,~{PE}*%
%TO.N,KB !EN*%
X114740000Y-120625000D03*
%TO.P,U1,10,CET*%
%TO.N,+5V*%
X113470000Y-120625000D03*
%TO.P,U1,11,Q3*%
%TO.N,QD*%
X112200000Y-120625000D03*
%TO.P,U1,12,Q2*%
%TO.N,QC*%
X110930000Y-120625000D03*
%TO.P,U1,13,Q1*%
%TO.N,QB*%
X109660000Y-120625000D03*
%TO.P,U1,14,Q0*%
%TO.N,QA*%
X108390000Y-120625000D03*
%TO.P,U1,15,TC*%
%TO.N,unconnected-(U1-TC-Pad15)*%
X107120000Y-120625000D03*
%TO.P,U1,16,VCC*%
%TO.N,+5V*%
X105850000Y-120625000D03*
%TD*%
D14*
%TO.P,D2,1,K*%
%TO.N,X1*%
X134650000Y-95110000D03*
%TO.P,D2,2,A*%
%TO.N,X11*%
X131350000Y-95110000D03*
%TD*%
D15*
%TO.P,R5,1*%
%TO.N,Net-(D11-A)*%
X142161000Y-116561000D03*
%TO.P,R5,2*%
%TO.N,BREAK*%
X143986000Y-116561000D03*
%TD*%
D17*
%TO.P,J3,1,Pin_1*%
%TO.N,GND*%
X75460000Y-112175000D03*
D18*
%TO.P,J3,2,Pin_2*%
%TO.N,!RST*%
X78000000Y-112175000D03*
%TO.P,J3,3,Pin_3*%
%TO.N,1MHZ*%
X80540000Y-112175000D03*
%TO.P,J3,4,Pin_4*%
%TO.N,KB !EN*%
X83080000Y-112175000D03*
%TO.P,J3,5,Pin_5*%
%TO.N,PA4*%
X85620000Y-112175000D03*
%TO.P,J3,6,Pin_6*%
%TO.N,PA5*%
X88160000Y-112175000D03*
%TO.P,J3,7,Pin_7*%
%TO.N,PA6*%
X90700000Y-112175000D03*
%TO.P,J3,8,Pin_8*%
%TO.N,PA0*%
X93240000Y-112175000D03*
%TO.P,J3,9,Pin_9*%
%TO.N,PA1*%
X95780000Y-112175000D03*
%TO.P,J3,10,Pin_10*%
%TO.N,PA2*%
X98320000Y-112175000D03*
%TO.P,J3,11,Pin_11*%
%TO.N,PA3*%
X100860000Y-112175000D03*
%TO.P,J3,12,Pin_12*%
%TO.N,PA7*%
X103400000Y-112175000D03*
%TO.P,J3,13,Pin_13*%
%TO.N,LED3*%
X105940000Y-112175000D03*
%TO.P,J3,14,Pin_14*%
%TO.N,CA2*%
X108480000Y-112175000D03*
%TO.P,J3,15,Pin_15*%
%TO.N,+5V*%
X111020000Y-112175000D03*
%TO.P,J3,16,Pin_16*%
%TO.N,LED1*%
X113560000Y-112175000D03*
%TO.P,J3,17,Pin_17*%
%TO.N,LED2*%
X116100000Y-112175000D03*
%TD*%
D24*
%TO.P,U4,1*%
%TO.N,D2*%
X136690000Y-125575000D03*
%TO.P,U4,2*%
%TO.N,D3*%
X137960000Y-125575000D03*
%TO.P,U4,3*%
%TO.N,D4*%
X139230000Y-125575000D03*
%TO.P,U4,4*%
%TO.N,D5*%
X140500000Y-125575000D03*
%TO.P,U4,5*%
%TO.N,D6*%
X141770000Y-125575000D03*
%TO.P,U4,6*%
%TO.N,+5V*%
X143040000Y-125575000D03*
%TO.P,U4,7,GND*%
%TO.N,GND*%
X144310000Y-125575000D03*
%TO.P,U4,8*%
%TO.N,CA2*%
X144310000Y-120625000D03*
%TO.P,U4,9*%
%TO.N,N/C*%
X143040000Y-120625000D03*
%TO.P,U4,10*%
X141770000Y-120625000D03*
%TO.P,U4,11*%
%TO.N,D7*%
X140500000Y-120625000D03*
%TO.P,U4,12*%
%TO.N,D1*%
X139230000Y-120625000D03*
%TO.P,U4,13*%
%TO.N,N/C*%
X137960000Y-120625000D03*
%TO.P,U4,14,VCC*%
%TO.N,+5V*%
X136690000Y-120625000D03*
%TD*%
D14*
%TO.P,D8,1,K*%
%TO.N,X7*%
X134650000Y-81030000D03*
%TO.P,D8,2,A*%
%TO.N,Net-(D8-A)*%
X131350000Y-81030000D03*
%TD*%
D24*
%TO.P,U2,1,I3*%
%TO.N,D3*%
X121490000Y-125575000D03*
%TO.P,U2,2,I2*%
%TO.N,D2*%
X122760000Y-125575000D03*
%TO.P,U2,3,I1*%
%TO.N,D1*%
X124030000Y-125575000D03*
%TO.P,U2,4,I0*%
%TO.N,D0*%
X125300000Y-125575000D03*
%TO.P,U2,5,Y*%
%TO.N,unconnected-(U2-Y-Pad5)*%
X126570000Y-125575000D03*
%TO.P,U2,6,~{Y}*%
%TO.N,PA7*%
X127840000Y-125575000D03*
%TO.P,U2,7,~{OE}*%
%TO.N,KB !EN*%
X129110000Y-125575000D03*
%TO.P,U2,8,GND*%
%TO.N,GND*%
X130380000Y-125575000D03*
%TO.P,U2,9,S2*%
%TO.N,PA6*%
X130380000Y-120625000D03*
%TO.P,U2,10,S1*%
%TO.N,PA5*%
X129110000Y-120625000D03*
%TO.P,U2,11,S0*%
%TO.N,PA4*%
X127840000Y-120625000D03*
%TO.P,U2,12,I7*%
%TO.N,D7*%
X126570000Y-120625000D03*
%TO.P,U2,13,I6*%
%TO.N,D6*%
X125300000Y-120625000D03*
%TO.P,U2,14,I5*%
%TO.N,D5*%
X124030000Y-120625000D03*
%TO.P,U2,15,I4*%
%TO.N,D4*%
X122760000Y-120625000D03*
%TO.P,U2,16,VCC*%
%TO.N,+5V*%
X121490000Y-120625000D03*
%TD*%
D10*
%TO.P,R9,1*%
%TO.N,+5V*%
X153750000Y-122075000D03*
%TO.P,R9,2*%
%TO.N,D5*%
X151925000Y-122075000D03*
%TD*%
D14*
%TO.P,D5,1,K*%
%TO.N,X4*%
X134650000Y-88080000D03*
%TO.P,D5,2,A*%
%TO.N,Net-(D5-A)*%
X131350000Y-88080000D03*
%TD*%
D13*
%TO.P,D12,1,K*%
%TO.N,Net-(D12-K)*%
X138985500Y-114311000D03*
%TO.P,D12,2,A*%
%TO.N,+5V*%
X136185500Y-114311000D03*
%TD*%
D14*
%TO.P,D9,1,K*%
%TO.N,X8*%
X134650000Y-78680000D03*
%TO.P,D9,2,A*%
%TO.N,Net-(D9-A)*%
X131350000Y-78680000D03*
%TD*%
D26*
%TO.N,X8*%
X141739950Y-78360050D03*
%TO.N,MTDATA*%
X146935900Y-103762700D03*
%TO.N,MTSTROBE*%
X136266300Y-100495300D03*
%TO.N,AY1*%
X135780900Y-102416700D03*
%TO.N,AY0*%
X136848000Y-102474700D03*
%TO.N,AX2*%
X137780000Y-101951000D03*
%TO.N,AX1*%
X144736600Y-99793800D03*
%TO.N,QA*%
X113614300Y-117666400D03*
X119405500Y-112139300D03*
%TO.N,QB*%
X114877900Y-118134400D03*
X120251700Y-111100000D03*
%TO.N,QC*%
X117552900Y-118784400D03*
X122178100Y-109019300D03*
%TO.N,QD*%
X116038400Y-119322700D03*
X122391200Y-107708700D03*
%TO.N,D7*%
X140563100Y-119021100D03*
X151694947Y-110165353D03*
X129420500Y-119002500D03*
X141825800Y-97012800D03*
%TO.N,D1*%
X120580900Y-124930400D03*
X135223000Y-124927600D03*
X140842000Y-99104900D03*
X147245700Y-114828200D03*
%TO.N,D2*%
X147501300Y-115894700D03*
X137677000Y-105609400D03*
%TO.N,D3*%
X134399100Y-126888300D03*
X122903300Y-127198500D03*
X148906200Y-115894200D03*
X141508200Y-101928100D03*
%TO.N,D4*%
X149239500Y-101513800D03*
X150639700Y-120175000D03*
X122300900Y-119040300D03*
X148113000Y-119273200D03*
%TO.N,D5*%
X150846000Y-121218200D03*
X152098100Y-103241600D03*
X123434200Y-119137200D03*
%TO.N,D6*%
X148426600Y-105138400D03*
X125570400Y-118984100D03*
X150314600Y-118094900D03*
%TO.N,D0*%
X132639657Y-125655400D03*
X150703000Y-125909000D03*
X141658300Y-112461500D03*
%TO.N,BREAK*%
X142849300Y-113282600D03*
%TO.N,GND*%
X155700000Y-107200000D03*
X148600000Y-124025000D03*
X144300000Y-124025000D03*
X119100000Y-124025000D03*
X134700000Y-124025000D03*
X130400000Y-124025000D03*
X114800000Y-124025000D03*
X155700000Y-103850000D03*
X132150000Y-106750000D03*
X136750000Y-106750000D03*
X101050000Y-124025000D03*
X142950000Y-100550000D03*
X80500000Y-123250000D03*
%TO.N,Net-(D11-A)*%
X152850000Y-111450000D03*
X141168000Y-116550000D03*
%TO.N,CA2*%
X145225400Y-120625000D03*
%TO.N,PA7*%
X130468400Y-117725400D03*
X124134600Y-113854700D03*
%TO.N,PA5*%
X126441500Y-123057700D03*
%TO.N,X8*%
X132048300Y-101391500D03*
X144865600Y-94027800D03*
X136570800Y-78362400D03*
%TO.N,X7*%
X139779100Y-95886200D03*
X139161600Y-83066000D03*
%TO.N,X5*%
X133548300Y-103096000D03*
X133598100Y-86115400D03*
%TO.N,X4*%
X139556700Y-108683400D03*
X138887800Y-90536000D03*
%TO.N,X1*%
X138144100Y-110675800D03*
X127637347Y-96462653D03*
%TO.N,X10*%
X132418900Y-97574700D03*
X138554500Y-94064200D03*
%TO.N,+5V*%
X148600000Y-122125000D03*
X136700000Y-122125000D03*
X119100000Y-122125000D03*
X134800000Y-122125000D03*
X121500000Y-122125000D03*
X105850000Y-122125000D03*
X155700000Y-122100000D03*
X123250000Y-104900000D03*
X136700000Y-104900000D03*
X101050000Y-122125000D03*
X121225000Y-104733902D03*
%TD*%
D27*
%TO.N,PA7*%
X131224500Y-123589100D02*
X131517600Y-123296000D01*
X130719300Y-126890100D02*
X131224500Y-126384900D01*
X131224500Y-126384900D02*
X131224500Y-123589100D01*
X131517600Y-123296000D02*
X131517600Y-118774600D01*
X128744000Y-126890100D02*
X130719300Y-126890100D01*
X127840000Y-125986100D02*
X128744000Y-126890100D01*
X127840000Y-125575000D02*
X127840000Y-125986100D01*
X131517600Y-118774600D02*
X130468400Y-117725400D01*
%TO.N,D2*%
X134024400Y-125675600D02*
X136589400Y-125675600D01*
X122760000Y-125991200D02*
X124607700Y-127838900D01*
X136589400Y-125675600D02*
X136690000Y-125575000D01*
X122760000Y-125575000D02*
X122760000Y-125991200D01*
X124607700Y-127838900D02*
X131861100Y-127838900D01*
X131861100Y-127838900D02*
X134024400Y-125675600D01*
%TO.N,D0*%
X140442800Y-113677000D02*
X141658300Y-112461500D01*
X140442800Y-116152400D02*
X140442800Y-113677000D01*
X139360900Y-117234300D02*
X140442800Y-116152400D01*
X139360900Y-117894700D02*
X139360900Y-117234300D01*
X138602700Y-121639200D02*
X138602700Y-118652900D01*
X138602700Y-118652900D02*
X139360900Y-117894700D01*
X137286500Y-122917600D02*
X137324300Y-122917600D01*
X137324300Y-122917600D02*
X138602700Y-121639200D01*
X137104100Y-123100000D02*
X137286500Y-122917600D01*
X132890200Y-123100000D02*
X137104100Y-123100000D01*
X132460000Y-123530200D02*
X132890200Y-123100000D01*
X132639657Y-124724757D02*
X132460000Y-124545100D01*
X132460000Y-124545100D02*
X132460000Y-123530200D01*
X132639657Y-125655400D02*
X132639657Y-124724757D01*
X126682700Y-127387200D02*
X125300000Y-126004500D01*
X125300000Y-126004500D02*
X125300000Y-125575000D01*
X130936700Y-127387200D02*
X126682700Y-127387200D01*
X132639657Y-125684243D02*
X130936700Y-127387200D01*
X132639657Y-125655400D02*
X132639657Y-125684243D01*
%TO.N,D7*%
X151925000Y-110395406D02*
X151925000Y-112575000D01*
X151694947Y-110165353D02*
X151925000Y-110395406D01*
%TO.N,GND*%
X154406300Y-109379200D02*
X154406300Y-107238000D01*
X152125000Y-109570100D02*
X152464000Y-109909100D01*
X151600000Y-108700000D02*
X152125000Y-109225000D01*
X152464000Y-109909100D02*
X153876400Y-109909100D01*
X152125000Y-109225000D02*
X152125000Y-109570100D01*
X148300000Y-108700000D02*
X151600000Y-108700000D01*
X144453500Y-112546500D02*
X148300000Y-108700000D01*
X153876400Y-109909100D02*
X154406300Y-109379200D01*
X144453500Y-114311000D02*
X144453500Y-112546500D01*
%TO.N,X1*%
X133873300Y-95110000D02*
X134650000Y-95110000D01*
X132931700Y-96051600D02*
X133873300Y-95110000D01*
X128048400Y-96051600D02*
X132931700Y-96051600D01*
X127637347Y-96462653D02*
X128048400Y-96051600D01*
%TO.N,X8*%
X141360900Y-77981000D02*
X136952200Y-77981000D01*
X141739950Y-78360050D02*
X141360900Y-77981000D01*
X136952200Y-77981000D02*
X136570800Y-78362400D01*
D28*
%TO.N,+5V*%
X121225000Y-104733902D02*
X121058902Y-104900000D01*
X119700000Y-104900000D02*
X119600000Y-105000000D01*
X121058902Y-104900000D02*
X119700000Y-104900000D01*
D27*
%TO.N,QB*%
X124459600Y-101685300D02*
X125840000Y-103065700D01*
X122817204Y-101685300D02*
X124459600Y-101685300D01*
X121950000Y-105413604D02*
X121950000Y-102552504D01*
X125840000Y-103065700D02*
X125840000Y-103500000D01*
X120251700Y-107111904D02*
X121950000Y-105413604D01*
X121950000Y-102552504D02*
X122817204Y-101685300D01*
X120251700Y-111100000D02*
X120251700Y-107111904D01*
%TO.N,QA*%
X120260700Y-112139300D02*
X119405500Y-112139300D01*
X121009300Y-111390700D02*
X120260700Y-112139300D01*
X122949092Y-102200000D02*
X122400000Y-102749092D01*
X122400000Y-102749092D02*
X122400000Y-105600000D01*
X121009300Y-106990700D02*
X121009300Y-111390700D01*
X123650908Y-102200000D02*
X122949092Y-102200000D01*
X124570000Y-103119092D02*
X123650908Y-102200000D01*
X122400000Y-105600000D02*
X121009300Y-106990700D01*
X124570000Y-103500000D02*
X124570000Y-103119092D01*
%TO.N,MTRESET*%
X151676700Y-98950000D02*
X150600000Y-98950000D01*
X154656100Y-95970600D02*
X151676700Y-98950000D01*
X154656100Y-85777100D02*
X154656100Y-95970600D01*
X153065000Y-84186000D02*
X154656100Y-85777100D01*
%TO.N,AX3*%
X151676700Y-98150000D02*
X150600000Y-98150000D01*
X154198600Y-95628100D02*
X151676700Y-98150000D01*
X154198600Y-87859600D02*
X154198600Y-95628100D01*
X153065000Y-86726000D02*
X154198600Y-87859600D01*
%TO.N,AX0*%
X151676700Y-97350000D02*
X150600000Y-97350000D01*
X151676700Y-90654300D02*
X151676700Y-97350000D01*
X153065000Y-89266000D02*
X151676700Y-90654300D01*
%TO.N,X4*%
X137106000Y-90536000D02*
X138887800Y-90536000D01*
X134650000Y-88080000D02*
X137106000Y-90536000D01*
%TO.N,X6*%
X136863500Y-85593500D02*
X134650000Y-83380000D01*
X138328200Y-85593500D02*
X136863500Y-85593500D01*
X146500000Y-93765300D02*
X138328200Y-85593500D01*
X146500000Y-95650000D02*
X146500000Y-93765300D01*
%TO.N,Net-(D10-A)*%
X129200000Y-76330000D02*
X131350000Y-76330000D01*
X128820000Y-76710000D02*
X129200000Y-76330000D01*
%TO.N,Net-(D9-A)*%
X129390000Y-78680000D02*
X131350000Y-78680000D01*
X128820000Y-79250000D02*
X129390000Y-78680000D01*
%TO.N,Net-(D8-A)*%
X129580000Y-81030000D02*
X131350000Y-81030000D01*
X128820000Y-81790000D02*
X129580000Y-81030000D01*
%TO.N,Net-(D7-A)*%
X128820000Y-84330000D02*
X129770000Y-83380000D01*
X129770000Y-83380000D02*
X131350000Y-83380000D01*
%TO.N,Net-(D6-A)*%
X130573300Y-85730000D02*
X131350000Y-85730000D01*
X129433300Y-86870000D02*
X130573300Y-85730000D01*
X128820000Y-86870000D02*
X129433300Y-86870000D01*
%TO.N,Net-(D5-A)*%
X130573300Y-88080000D02*
X131350000Y-88080000D01*
X129243300Y-89410000D02*
X130573300Y-88080000D01*
X128820000Y-89410000D02*
X129243300Y-89410000D01*
%TO.N,Net-(D4-A)*%
X130573300Y-90430000D02*
X131350000Y-90430000D01*
X129053300Y-91950000D02*
X130573300Y-90430000D01*
X128820000Y-91950000D02*
X129053300Y-91950000D01*
%TO.N,Net-(D3-A)*%
X128863300Y-94490000D02*
X128820000Y-94490000D01*
X130573300Y-92780000D02*
X128863300Y-94490000D01*
X131350000Y-92780000D02*
X130573300Y-92780000D01*
D28*
%TO.N,+5V*%
X134800000Y-122125000D02*
X134800000Y-115696500D01*
X134800000Y-115696500D02*
X136185500Y-114311000D01*
D27*
%TO.N,PA2*%
X110930000Y-125183900D02*
X110930000Y-125575000D01*
X105710900Y-123019100D02*
X108765200Y-123019100D01*
X105028700Y-121706304D02*
X105028700Y-122336900D01*
X105028700Y-122336900D02*
X105710900Y-123019100D01*
X102963796Y-119641400D02*
X105028700Y-121706304D01*
X98347000Y-115847000D02*
X102141400Y-119641400D01*
X98318000Y-115847000D02*
X98347000Y-115847000D01*
X102141400Y-119641400D02*
X102963796Y-119641400D01*
X108765200Y-123019100D02*
X110930000Y-125183900D01*
%TO.N,PA4*%
X127840000Y-121096900D02*
X127840000Y-120625000D01*
X126677100Y-122259800D02*
X127840000Y-121096900D01*
X124443000Y-122259800D02*
X126677100Y-122259800D01*
X123602800Y-123100000D02*
X124443000Y-122259800D01*
X117330200Y-123100000D02*
X123602800Y-123100000D01*
X116253600Y-125797900D02*
X116253600Y-124176600D01*
X116253600Y-124176600D02*
X117330200Y-123100000D01*
X113104500Y-126921700D02*
X115129800Y-126921700D01*
X112835000Y-126652200D02*
X113104500Y-126921700D01*
X107755000Y-121657800D02*
X108024500Y-121927300D01*
X110253700Y-121927300D02*
X112835000Y-124508600D01*
X108024500Y-121927300D02*
X110253700Y-121927300D01*
X115129800Y-126921700D02*
X116253600Y-125797900D01*
X104668000Y-116336600D02*
X107755000Y-119423600D01*
X112835000Y-124508600D02*
X112835000Y-126652200D01*
X107755000Y-119423600D02*
X107755000Y-121657800D01*
X103894300Y-114670300D02*
X104668000Y-115444000D01*
X86794700Y-114670300D02*
X103894300Y-114670300D01*
X104668000Y-115444000D02*
X104668000Y-116336600D01*
X85618000Y-115847000D02*
X86794700Y-114670300D01*
%TO.N,KB !EN*%
X84716500Y-114208500D02*
X83078000Y-115847000D01*
X104987000Y-114660200D02*
X104535300Y-114208500D01*
X104535300Y-114208500D02*
X84716500Y-114208500D01*
X114047200Y-114660200D02*
X104987000Y-114660200D01*
X114828000Y-115441000D02*
X114047200Y-114660200D01*
X116586500Y-118045600D02*
X114828000Y-116287100D01*
X117848000Y-118045600D02*
X116586500Y-118045600D01*
X114828000Y-116287100D02*
X114828000Y-115441000D01*
X118312000Y-118509600D02*
X117848000Y-118045600D01*
%TO.N,1MHZ*%
X80547000Y-115847000D02*
X80538000Y-115847000D01*
X91598100Y-126898100D02*
X80547000Y-115847000D01*
X106219200Y-126898100D02*
X91598100Y-126898100D01*
X107120000Y-125997300D02*
X106219200Y-126898100D01*
X107120000Y-125575000D02*
X107120000Y-125997300D01*
%TO.N,PA0*%
X108390000Y-125155300D02*
X108390000Y-125575000D01*
X105490500Y-124080000D02*
X107314700Y-124080000D01*
X104125300Y-122714800D02*
X105490500Y-124080000D01*
X104125300Y-122078100D02*
X104125300Y-122714800D01*
X107314700Y-124080000D02*
X108390000Y-125155300D01*
X97994800Y-120594800D02*
X102642000Y-120594800D01*
X93247000Y-115847000D02*
X97994800Y-120594800D01*
X93238000Y-115847000D02*
X93247000Y-115847000D01*
X102642000Y-120594800D02*
X104125300Y-122078100D01*
%TO.N,PA1*%
X95778000Y-115878000D02*
X95778000Y-115847000D01*
X104577000Y-121891000D02*
X102777400Y-120091400D01*
X102777400Y-120091400D02*
X99991400Y-120091400D01*
X108050900Y-123548800D02*
X105598100Y-123548800D01*
X99991400Y-120091400D02*
X95778000Y-115878000D01*
X105598100Y-123548800D02*
X104577000Y-122527700D01*
X109660000Y-125157900D02*
X108050900Y-123548800D01*
X109660000Y-125575000D02*
X109660000Y-125157900D01*
X104577000Y-122527700D02*
X104577000Y-121891000D01*
%TO.N,PA3*%
X109602700Y-122565900D02*
X112200000Y-125163200D01*
X106492700Y-121647800D02*
X107410800Y-122565900D01*
X112200000Y-125163200D02*
X112200000Y-125575000D01*
X107410800Y-122565900D02*
X109602700Y-122565900D01*
X106202500Y-119280600D02*
X106492700Y-119570800D01*
X104380600Y-119280600D02*
X106202500Y-119280600D01*
X100947000Y-115847000D02*
X104380600Y-119280600D01*
X100858000Y-115847000D02*
X100947000Y-115847000D01*
X106492700Y-119570800D02*
X106492700Y-121647800D01*
%TO.N,LED2*%
X129735200Y-116550000D02*
X131311000Y-116550000D01*
X117846600Y-117595600D02*
X118034396Y-117595600D01*
X118036396Y-117597600D02*
X128687600Y-117597600D01*
X116098000Y-115847000D02*
X117846600Y-117595600D01*
X118034396Y-117595600D02*
X118036396Y-117597600D01*
X128687600Y-117597600D02*
X129735200Y-116550000D01*
%TO.N,LED1*%
X114901996Y-113372900D02*
X113704096Y-112175000D01*
X117411400Y-113372900D02*
X114901996Y-113372900D01*
X113704096Y-112175000D02*
X113560000Y-112175000D01*
X117798600Y-112985700D02*
X117411400Y-113372900D01*
X136309800Y-112593500D02*
X125143200Y-112593500D01*
X124751000Y-112985700D02*
X117798600Y-112985700D01*
X137140600Y-116102400D02*
X137140600Y-113424300D01*
X125143200Y-112593500D02*
X124751000Y-112985700D01*
X136693000Y-116550000D02*
X137140600Y-116102400D01*
X137140600Y-113424300D02*
X136309800Y-112593500D01*
%TO.N,LED3*%
X107973500Y-114208500D02*
X105940000Y-112175000D01*
X114572500Y-114318600D02*
X114462400Y-114208500D01*
X117974400Y-114318600D02*
X114572500Y-114318600D01*
X114462400Y-114208500D02*
X107973500Y-114208500D01*
X120205800Y-116550000D02*
X117974400Y-114318600D01*
X125893000Y-116550000D02*
X120205800Y-116550000D01*
%TO.N,PA7*%
X109750000Y-112654800D02*
X110545700Y-113450500D01*
X114343200Y-113450500D02*
X114747400Y-113854700D01*
X109750000Y-111724700D02*
X109750000Y-112654800D01*
X110545700Y-113450500D02*
X114343200Y-113450500D01*
X114747400Y-113854700D02*
X124134600Y-113854700D01*
X109009600Y-110984300D02*
X109750000Y-111724700D01*
X104590700Y-110984300D02*
X109009600Y-110984300D01*
X103400000Y-112175000D02*
X104590700Y-110984300D01*
%TO.N,PA6*%
X127679200Y-123784500D02*
X130380000Y-121083700D01*
X130380000Y-121083700D02*
X130380000Y-120625000D01*
X117069200Y-127413000D02*
X120697700Y-123784500D01*
X90437800Y-127413000D02*
X117069200Y-127413000D01*
X79355600Y-116330800D02*
X90437800Y-127413000D01*
X81276800Y-113351700D02*
X79355600Y-115272900D01*
X79355600Y-115272900D02*
X79355600Y-116330800D01*
X89523300Y-113351700D02*
X81276800Y-113351700D01*
X120697700Y-123784500D02*
X127679200Y-123784500D01*
X90700000Y-112175000D02*
X89523300Y-113351700D01*
D28*
%TO.N,+5V*%
X119520000Y-110280000D02*
X119600000Y-110200000D01*
X119600000Y-110200000D02*
X119600000Y-105000000D01*
X111020000Y-112175000D02*
X111020000Y-110280000D01*
X111020000Y-110280000D02*
X119520000Y-110280000D01*
D27*
%TO.N,MTDATA*%
X150600000Y-103750000D02*
X149523300Y-103750000D01*
X149510600Y-103762700D02*
X146935900Y-103762700D01*
X149523300Y-103750000D02*
X149510600Y-103762700D01*
%TO.N,MTSTROBE*%
X137811600Y-98950000D02*
X136266300Y-100495300D01*
X139200000Y-98950000D02*
X137811600Y-98950000D01*
%TO.N,Net-(D14-K)*%
X127718000Y-114778500D02*
X127718000Y-116550000D01*
X128185500Y-114311000D02*
X127718000Y-114778500D01*
%TO.N,Net-(D13-K)*%
X133603500Y-116082500D02*
X133136000Y-116550000D01*
X133603500Y-114311000D02*
X133603500Y-116082500D01*
%TO.N,Net-(D12-K)*%
X138518000Y-114778500D02*
X138518000Y-116550000D01*
X138985500Y-114311000D02*
X138518000Y-114778500D01*
%TO.N,AY1*%
X137843100Y-104550000D02*
X139200000Y-104550000D01*
X135780900Y-102487800D02*
X137843100Y-104550000D01*
X135780900Y-102416700D02*
X135780900Y-102487800D01*
%TO.N,AY0*%
X139200000Y-103750000D02*
X138123300Y-103750000D01*
X136848000Y-102474700D02*
X138123300Y-103750000D01*
%TO.N,AX2*%
X139200000Y-102950000D02*
X138123300Y-102950000D01*
X138123300Y-102294300D02*
X137780000Y-101951000D01*
X138123300Y-102950000D02*
X138123300Y-102294300D01*
%TO.N,AX1*%
X139200000Y-102150000D02*
X140276700Y-102150000D01*
X141810500Y-102719900D02*
X144736600Y-99793800D01*
X140846600Y-102719900D02*
X141810500Y-102719900D01*
X140276700Y-102150000D02*
X140846600Y-102719900D01*
%TO.N,AY2*%
X149523300Y-94748400D02*
X149523300Y-100550000D01*
X138960900Y-84186000D02*
X149523300Y-94748400D01*
X137825000Y-84186000D02*
X138960900Y-84186000D01*
X150600000Y-100550000D02*
X149523300Y-100550000D01*
%TO.N,QA*%
X110927700Y-117666400D02*
X113614300Y-117666400D01*
X108390000Y-120204100D02*
X110927700Y-117666400D01*
X108390000Y-120625000D02*
X108390000Y-120204100D01*
%TO.N,QB*%
X114619200Y-118393100D02*
X114877900Y-118134400D01*
X111503300Y-118393100D02*
X114619200Y-118393100D01*
X109660000Y-120236400D02*
X111503300Y-118393100D01*
X109660000Y-120625000D02*
X109660000Y-120236400D01*
%TO.N,QC*%
X121599900Y-108441100D02*
X122178100Y-109019300D01*
X121599900Y-107412700D02*
X121599900Y-108441100D01*
X123305400Y-105707200D02*
X121599900Y-107412700D01*
X125286100Y-105707200D02*
X123305400Y-105707200D01*
X127110000Y-103883300D02*
X125286100Y-105707200D01*
X127110000Y-103500000D02*
X127110000Y-103883300D01*
X117315800Y-118547300D02*
X117552900Y-118784400D01*
X115492700Y-118547300D02*
X117315800Y-118547300D01*
X115178900Y-118861100D02*
X115492700Y-118547300D01*
X112275800Y-118861100D02*
X115178900Y-118861100D01*
X110930000Y-120206900D02*
X112275800Y-118861100D01*
X110930000Y-120625000D02*
X110930000Y-120206900D01*
%TO.N,QD*%
X113032400Y-119322700D02*
X116038400Y-119322700D01*
X112200000Y-120155100D02*
X113032400Y-119322700D01*
X112200000Y-120625000D02*
X112200000Y-120155100D01*
X128380000Y-103951700D02*
X128380000Y-103500000D01*
X127219400Y-105112300D02*
X128380000Y-103951700D01*
X127145600Y-105112300D02*
X127219400Y-105112300D01*
X125714000Y-106543900D02*
X127145600Y-105112300D01*
X123556000Y-106543900D02*
X125714000Y-106543900D01*
X122391200Y-107708700D02*
X123556000Y-106543900D01*
%TO.N,D7*%
X127811800Y-119002500D02*
X129420500Y-119002500D01*
X126570000Y-120244300D02*
X127811800Y-119002500D01*
X126570000Y-120625000D02*
X126570000Y-120244300D01*
X141700000Y-96887000D02*
X141825800Y-97012800D01*
X141700000Y-95650000D02*
X141700000Y-96887000D01*
X140500000Y-119084200D02*
X140563100Y-119021100D01*
X140500000Y-120625000D02*
X140500000Y-119084200D01*
%TO.N,D1*%
X120580900Y-124782700D02*
X120580900Y-124930400D01*
X121090900Y-124272700D02*
X120580900Y-124782700D01*
X123134200Y-124272700D02*
X121090900Y-124272700D01*
X124030000Y-125168500D02*
X123134200Y-124272700D01*
X124030000Y-125575000D02*
X124030000Y-125168500D01*
X139230000Y-121650700D02*
X139230000Y-120625000D01*
X137329000Y-123551700D02*
X139230000Y-121650700D01*
X136598900Y-123551700D02*
X137329000Y-123551700D01*
X135223000Y-124927600D02*
X136598900Y-123551700D01*
X147245700Y-114900800D02*
X147245700Y-114828200D01*
X144500900Y-117645600D02*
X147245700Y-114900800D01*
X140891500Y-117645600D02*
X144500900Y-117645600D01*
X139230000Y-119307100D02*
X140891500Y-117645600D01*
X139230000Y-120625000D02*
X139230000Y-119307100D01*
X147598900Y-114475000D02*
X151925000Y-114475000D01*
X147245700Y-114828200D02*
X147598900Y-114475000D01*
X140276700Y-98539600D02*
X140842000Y-99104900D01*
X140276700Y-98150000D02*
X140276700Y-98539600D01*
X139200000Y-98150000D02*
X140276700Y-98150000D01*
%TO.N,D2*%
X136513800Y-101359500D02*
X138123300Y-99750000D01*
X135742600Y-101359500D02*
X136513800Y-101359500D01*
X134296800Y-102805300D02*
X135742600Y-101359500D01*
X134296800Y-105396900D02*
X134296800Y-102805300D01*
X134629400Y-105729500D02*
X134296800Y-105396900D01*
X137556900Y-105729500D02*
X134629400Y-105729500D01*
X137677000Y-105609400D02*
X137556900Y-105729500D01*
X139200000Y-99750000D02*
X138123300Y-99750000D01*
X145241700Y-118154300D02*
X147501300Y-115894700D01*
X142586700Y-118154300D02*
X145241700Y-118154300D01*
X141130200Y-119610800D02*
X142586700Y-118154300D01*
X141130200Y-121648900D02*
X141130200Y-119610800D01*
X140334000Y-122445100D02*
X141130200Y-121648900D01*
X139386400Y-122445100D02*
X140334000Y-122445100D01*
X136690000Y-125141500D02*
X139386400Y-122445100D01*
X136690000Y-125575000D02*
X136690000Y-125141500D01*
X150713400Y-115163400D02*
X151925000Y-116375000D01*
X148232600Y-115163400D02*
X150713400Y-115163400D01*
X147501300Y-115894700D02*
X148232600Y-115163400D01*
%TO.N,D3*%
X122676400Y-127198500D02*
X122903300Y-127198500D01*
X121490000Y-126012100D02*
X122676400Y-127198500D01*
X121490000Y-125575000D02*
X121490000Y-126012100D01*
X137960000Y-126013700D02*
X137960000Y-125575000D01*
X137085400Y-126888300D02*
X137960000Y-126013700D01*
X134399100Y-126888300D02*
X137085400Y-126888300D01*
X148906200Y-117361000D02*
X148906200Y-115894200D01*
X151011000Y-117361000D02*
X148906200Y-117361000D01*
X151925000Y-118275000D02*
X151011000Y-117361000D01*
X137960000Y-125055200D02*
X137960000Y-125575000D01*
X140118400Y-122896800D02*
X137960000Y-125055200D01*
X141206300Y-122896800D02*
X140118400Y-122896800D01*
X142405000Y-121698100D02*
X141206300Y-122896800D01*
X142405000Y-119570000D02*
X142405000Y-121698100D01*
X143249000Y-118726000D02*
X142405000Y-119570000D01*
X147541200Y-118726000D02*
X143249000Y-118726000D01*
X148906200Y-117361000D02*
X147541200Y-118726000D01*
X140930100Y-101350000D02*
X141508200Y-101928100D01*
X139200000Y-101350000D02*
X140930100Y-101350000D01*
%TO.N,D4*%
X150600000Y-101350000D02*
X149523300Y-101350000D01*
X149359500Y-101513800D02*
X149523300Y-101350000D01*
X149239500Y-101513800D02*
X149359500Y-101513800D01*
X150639700Y-120175000D02*
X151925000Y-120175000D01*
X122760000Y-119499400D02*
X122760000Y-120625000D01*
X122300900Y-119040300D02*
X122760000Y-119499400D01*
X143972800Y-119273200D02*
X148113000Y-119273200D01*
X143668500Y-119577500D02*
X143972800Y-119273200D01*
X143668500Y-121697900D02*
X143668500Y-119577500D01*
X142017900Y-123348500D02*
X143668500Y-121697900D01*
X140307900Y-123348500D02*
X142017900Y-123348500D01*
X139230000Y-124426400D02*
X140307900Y-123348500D01*
X139230000Y-125575000D02*
X139230000Y-124426400D01*
%TO.N,D5*%
X150600000Y-102950000D02*
X151676700Y-102950000D01*
X151968300Y-103241600D02*
X152098100Y-103241600D01*
X151676700Y-102950000D02*
X151968300Y-103241600D01*
X124030000Y-119733000D02*
X123434200Y-119137200D01*
X124030000Y-120625000D02*
X124030000Y-119733000D01*
X150846000Y-121218200D02*
X151649300Y-122021400D01*
X151702800Y-122075000D02*
X151925000Y-122075000D01*
X151649300Y-122021400D02*
X151702800Y-122075000D01*
X140500000Y-125969000D02*
X140500000Y-125575000D01*
X141457500Y-126926500D02*
X140500000Y-125969000D01*
X146744200Y-126926500D02*
X141457500Y-126926500D01*
X151649300Y-122021400D02*
X146744200Y-126926500D01*
%TO.N,D6*%
X150600000Y-104550000D02*
X149523300Y-104550000D01*
X148934900Y-105138400D02*
X148426600Y-105138400D01*
X149523300Y-104550000D02*
X148934900Y-105138400D01*
X125570400Y-120354600D02*
X125570400Y-118984100D01*
X125300000Y-120625000D02*
X125570400Y-120354600D01*
X141770000Y-124720000D02*
X141770000Y-125575000D01*
X141303100Y-124253100D02*
X141770000Y-124720000D01*
X140100900Y-124253100D02*
X141303100Y-124253100D01*
X139865000Y-124489000D02*
X140100900Y-124253100D01*
X139865000Y-126635500D02*
X139865000Y-124489000D01*
X140634100Y-127404600D02*
X139865000Y-126635500D01*
X146981900Y-127404600D02*
X140634100Y-127404600D01*
X150411500Y-123975000D02*
X146981900Y-127404600D01*
X151925000Y-123975000D02*
X150411500Y-123975000D01*
X150314600Y-118099300D02*
X150314600Y-118094900D01*
X148414000Y-119999900D02*
X150314600Y-118099300D01*
X146904000Y-119999900D02*
X148414000Y-119999900D01*
X145541900Y-121362000D02*
X146904000Y-119999900D01*
X145223100Y-121362000D02*
X145541900Y-121362000D01*
X141865100Y-124720000D02*
X145223100Y-121362000D01*
X141770000Y-124720000D02*
X141865100Y-124720000D01*
%TO.N,D0*%
X151891000Y-125909000D02*
X151925000Y-125875000D01*
X150703000Y-125909000D02*
X151891000Y-125909000D01*
X148100000Y-107050000D02*
X148100000Y-108126700D01*
X143765200Y-112461500D02*
X141658300Y-112461500D01*
X148100000Y-108126700D02*
X143765200Y-112461500D01*
%TO.N,BREAK*%
X142849300Y-115424300D02*
X143986000Y-116561000D01*
X142849300Y-113282600D02*
X142849300Y-115424300D01*
%TO.N,FLOAT*%
X147300000Y-95650000D02*
X147300000Y-96726700D01*
X147300000Y-96726700D02*
X148100000Y-96726700D01*
X148100000Y-95650000D02*
X148100000Y-96726700D01*
X146191700Y-102281600D02*
X146191700Y-105132300D01*
X147300000Y-101173300D02*
X146191700Y-102281600D01*
X147300000Y-96726700D02*
X147300000Y-101173300D01*
X147032700Y-105973300D02*
X146191700Y-105132300D01*
X150060800Y-105973300D02*
X147032700Y-105973300D01*
X153150000Y-109062500D02*
X150060800Y-105973300D01*
X143341000Y-105132300D02*
X142500000Y-105973300D01*
X146191700Y-105132300D02*
X143341000Y-105132300D01*
X142500000Y-107050000D02*
X142500000Y-106511600D01*
X141700000Y-107050000D02*
X141700000Y-105973300D01*
X142500000Y-106242400D02*
X142500000Y-105973300D01*
X142500000Y-106511600D02*
X142500000Y-106242400D01*
X142230900Y-105973300D02*
X141700000Y-105973300D01*
X142500000Y-106242400D02*
X142230900Y-105973300D01*
D29*
%TO.N,Net-(Q1-B)*%
X76500000Y-124662000D02*
X77137500Y-125300000D01*
X76500000Y-123250000D02*
X76500000Y-124662000D01*
D27*
%TO.N,GND*%
X148575000Y-124050000D02*
X148600000Y-124025000D01*
X147460000Y-124050000D02*
X148575000Y-124050000D01*
X144310000Y-124035000D02*
X144300000Y-124025000D01*
X144310000Y-125575000D02*
X144310000Y-124035000D01*
X119075000Y-124050000D02*
X119100000Y-124025000D01*
X117960000Y-124050000D02*
X119075000Y-124050000D01*
X134675000Y-124050000D02*
X134700000Y-124025000D01*
X133510000Y-124050000D02*
X134675000Y-124050000D01*
X130380000Y-124045000D02*
X130400000Y-124025000D01*
X130380000Y-125575000D02*
X130380000Y-124045000D01*
X114740000Y-124085000D02*
X114800000Y-124025000D01*
X114740000Y-125575000D02*
X114740000Y-124085000D01*
X155200000Y-103350000D02*
X155700000Y-103850000D01*
X155200000Y-103050000D02*
X155200000Y-103350000D01*
X132190000Y-106790000D02*
X132150000Y-106750000D01*
X132190000Y-108450000D02*
X132190000Y-106790000D01*
D28*
X135400000Y-106750000D02*
X135350000Y-106800000D01*
X136750000Y-106750000D02*
X135400000Y-106750000D01*
D29*
X141700000Y-100550000D02*
X139200000Y-100550000D01*
X79500000Y-123250000D02*
X80500000Y-123250000D01*
D28*
X101075000Y-124050000D02*
X101050000Y-124025000D01*
X102610000Y-124050000D02*
X101075000Y-124050000D01*
D29*
X141900000Y-100550000D02*
X141700000Y-100550000D01*
X141900000Y-99000000D02*
X141900000Y-100550000D01*
X140250000Y-97350000D02*
X141900000Y-99000000D01*
X139200000Y-97350000D02*
X140250000Y-97350000D01*
X141700000Y-100550000D02*
X141900000Y-100550000D01*
X141900000Y-100550000D02*
X142950000Y-100550000D01*
D27*
X155662000Y-107238000D02*
X155700000Y-107200000D01*
X154406300Y-107238000D02*
X155662000Y-107238000D01*
X153150000Y-107238000D02*
X153150500Y-107238000D01*
X153150500Y-107238000D02*
X154406300Y-107238000D01*
X153150500Y-107238000D02*
X153150000Y-107237500D01*
D29*
%TO.N,Net-(D11-A)*%
X152850000Y-128400000D02*
X152850000Y-111450000D01*
X152575000Y-128675000D02*
X152850000Y-128400000D01*
X79950000Y-128675000D02*
X152575000Y-128675000D01*
X78962500Y-127688000D02*
X79950000Y-128675000D01*
X78962500Y-125300000D02*
X78962500Y-127688000D01*
X141168000Y-116550000D02*
X141659000Y-116550000D01*
X142150000Y-116550000D02*
X142161000Y-116561000D01*
X141659000Y-116550000D02*
X142150000Y-116550000D01*
D27*
X141653500Y-116544500D02*
X141653500Y-114311000D01*
X141659000Y-116550000D02*
X141653500Y-116544500D01*
%TO.N,CA2*%
X144310000Y-120625000D02*
X145225400Y-120625000D01*
%TO.N,PA5*%
X127103500Y-123057700D02*
X126441500Y-123057700D01*
X129110000Y-121051200D02*
X127103500Y-123057700D01*
X129110000Y-120625000D02*
X129110000Y-121051200D01*
%TO.N,KB !EN*%
X116780400Y-120625000D02*
X114740000Y-120625000D01*
X118312000Y-119093400D02*
X116780400Y-120625000D01*
X118312000Y-118509600D02*
X118312000Y-119093400D01*
X129110000Y-124277300D02*
X129110000Y-125575000D01*
X131030600Y-122356700D02*
X129110000Y-124277300D01*
X131030600Y-119581000D02*
X131030600Y-122356700D01*
X129684900Y-118235300D02*
X131030600Y-119581000D01*
X118586300Y-118235300D02*
X129684900Y-118235300D01*
X118312000Y-118509600D02*
X118586300Y-118235300D01*
D28*
%TO.N,!RST*%
X77998000Y-123160000D02*
X78000000Y-123162000D01*
X77998000Y-115847000D02*
X77998000Y-123160000D01*
D27*
X78000000Y-123162000D02*
X78000000Y-123162500D01*
%TO.N,X9*%
X134650000Y-76330000D02*
X133873300Y-76330000D01*
X144100000Y-93939400D02*
X144100000Y-95650000D01*
X138156600Y-87996000D02*
X144100000Y-93939400D01*
X136651600Y-87996000D02*
X138156600Y-87996000D01*
X135808900Y-87153300D02*
X136651600Y-87996000D01*
X133587400Y-87153300D02*
X135808900Y-87153300D01*
X132513100Y-86079000D02*
X133587400Y-87153300D01*
X129650000Y-102119900D02*
X129650000Y-103500000D01*
X133160300Y-98609600D02*
X129650000Y-102119900D01*
X134982500Y-98609600D02*
X133160300Y-98609600D01*
X135426700Y-98165400D02*
X134982500Y-98609600D01*
X135426700Y-96635600D02*
X135426700Y-98165400D01*
X135294400Y-96503300D02*
X135426700Y-96635600D01*
X130100900Y-96503300D02*
X135294400Y-96503300D01*
X129373600Y-97230600D02*
X130100900Y-96503300D01*
X126756500Y-97230600D02*
X129373600Y-97230600D01*
X126333500Y-96807600D02*
X126756500Y-97230600D01*
X126333500Y-90266100D02*
X126333500Y-96807600D01*
X128459600Y-88140000D02*
X126333500Y-90266100D01*
X129734200Y-88140000D02*
X128459600Y-88140000D01*
X131217500Y-86656700D02*
X129734200Y-88140000D01*
X131935400Y-86656700D02*
X131217500Y-86656700D01*
X132513100Y-86079000D02*
X131935400Y-86656700D01*
X132513100Y-77690200D02*
X132513100Y-86079000D01*
X133873300Y-76330000D02*
X132513100Y-77690200D01*
%TO.N,X8*%
X132007400Y-101391500D02*
X132048300Y-101391500D01*
X130920000Y-102478900D02*
X132007400Y-101391500D01*
X130920000Y-103500000D02*
X130920000Y-102478900D01*
X144900000Y-94062200D02*
X144900000Y-95650000D01*
X144865600Y-94027800D02*
X144900000Y-94062200D01*
X134650000Y-78680000D02*
X135426700Y-78680000D01*
X135744300Y-78362400D02*
X136570800Y-78362400D01*
X135426700Y-78680000D02*
X135744300Y-78362400D01*
%TO.N,X7*%
X145700000Y-96075000D02*
X145700000Y-96726700D01*
X145700000Y-96075000D02*
X145700000Y-95650000D01*
X137312700Y-82916000D02*
X135426700Y-81030000D01*
X139011600Y-82916000D02*
X137312700Y-82916000D01*
X139161600Y-83066000D02*
X139011600Y-82916000D01*
X134650000Y-81030000D02*
X135426700Y-81030000D01*
X139779100Y-96729900D02*
X139779100Y-95886200D01*
X138322300Y-96729900D02*
X139779100Y-96729900D01*
X136901800Y-98150400D02*
X138322300Y-96729900D01*
X136901800Y-98713800D02*
X136901800Y-98150400D01*
X132190000Y-103425600D02*
X136901800Y-98713800D01*
X132190000Y-103500000D02*
X132190000Y-103425600D01*
X144672800Y-97753900D02*
X145700000Y-96726700D01*
X141328100Y-97753900D02*
X144672800Y-97753900D01*
X140304100Y-96729900D02*
X141328100Y-97753900D01*
X139779100Y-96729900D02*
X140304100Y-96729900D01*
%TO.N,X6*%
X146500000Y-99551200D02*
X146500000Y-95650000D01*
X138408700Y-107642500D02*
X146500000Y-99551200D01*
X134145800Y-107642500D02*
X138408700Y-107642500D01*
X132523700Y-106020400D02*
X134145800Y-107642500D01*
X131810800Y-106020400D02*
X132523700Y-106020400D01*
X130920000Y-106911200D02*
X131810800Y-106020400D01*
X130920000Y-108450000D02*
X130920000Y-106911200D01*
%TO.N,X5*%
X143300000Y-107050000D02*
X143300000Y-108126700D01*
X129650000Y-108892800D02*
X129650000Y-108450000D01*
X130528700Y-109771500D02*
X129650000Y-108892800D01*
X134194500Y-109771500D02*
X130528700Y-109771500D01*
X135819500Y-108146500D02*
X134194500Y-109771500D01*
X138629000Y-108146500D02*
X135819500Y-108146500D01*
X138840600Y-107934900D02*
X138629000Y-108146500D01*
X140049500Y-107934900D02*
X138840600Y-107934900D01*
X140241300Y-108126700D02*
X140049500Y-107934900D01*
X143300000Y-108126700D02*
X140241300Y-108126700D01*
X133548300Y-103803400D02*
X133548300Y-103096000D01*
X132025500Y-105326200D02*
X133548300Y-103803400D01*
X131866200Y-105326200D02*
X132025500Y-105326200D01*
X129650000Y-107542400D02*
X131866200Y-105326200D01*
X129650000Y-108450000D02*
X129650000Y-107542400D01*
X134650000Y-85730000D02*
X133873300Y-85730000D01*
X133873300Y-85840200D02*
X133873300Y-85730000D01*
X133598100Y-86115400D02*
X133873300Y-85840200D01*
%TO.N,X4*%
X144100000Y-107050000D02*
X144100000Y-108126700D01*
X143543300Y-108683400D02*
X139556700Y-108683400D01*
X144100000Y-108126700D02*
X143543300Y-108683400D01*
X128380000Y-108856100D02*
X128380000Y-108450000D01*
X129747100Y-110223200D02*
X128380000Y-108856100D01*
X134632300Y-110223200D02*
X129747100Y-110223200D01*
X136172100Y-108683400D02*
X134632300Y-110223200D01*
X139556700Y-108683400D02*
X136172100Y-108683400D01*
%TO.N,X3*%
X144900000Y-107050000D02*
X144900000Y-108126700D01*
X134650000Y-90430000D02*
X134650000Y-91356700D01*
X127110000Y-108853700D02*
X127110000Y-108450000D01*
X128931200Y-110674900D02*
X127110000Y-108853700D01*
X134819500Y-110674900D02*
X128931200Y-110674900D01*
X136067900Y-109426500D02*
X134819500Y-110674900D01*
X143600200Y-109426500D02*
X136067900Y-109426500D01*
X144900000Y-108126700D02*
X143600200Y-109426500D01*
X134824400Y-91356700D02*
X134650000Y-91356700D01*
X136382800Y-92915100D02*
X134824400Y-91356700D01*
X136382800Y-98542300D02*
X136382800Y-92915100D01*
X132806900Y-102118200D02*
X136382800Y-98542300D01*
X131919500Y-102118200D02*
X132806900Y-102118200D01*
X131555000Y-102482700D02*
X131919500Y-102118200D01*
X131555000Y-104545300D02*
X131555000Y-102482700D01*
X128987200Y-107113100D02*
X131555000Y-104545300D01*
X128066400Y-107113100D02*
X128987200Y-107113100D01*
X127110000Y-108069500D02*
X128066400Y-107113100D01*
X127110000Y-108450000D02*
X127110000Y-108069500D01*
%TO.N,X2*%
X145700000Y-107050000D02*
X145700000Y-108126700D01*
X134650000Y-92780000D02*
X135426700Y-92780000D01*
X125840000Y-108844100D02*
X125840000Y-108450000D01*
X128122500Y-111126600D02*
X125840000Y-108844100D01*
X135191400Y-111126600D02*
X128122500Y-111126600D01*
X136439800Y-109878200D02*
X135191400Y-111126600D01*
X143948500Y-109878200D02*
X136439800Y-109878200D01*
X145700000Y-108126700D02*
X143948500Y-109878200D01*
X135914000Y-93267300D02*
X135426700Y-92780000D01*
X135914000Y-98327000D02*
X135914000Y-93267300D01*
X134954600Y-99286400D02*
X135914000Y-98327000D01*
X133125400Y-99286400D02*
X134954600Y-99286400D01*
X130281000Y-102130800D02*
X133125400Y-99286400D01*
X130281000Y-104580400D02*
X130281000Y-102130800D01*
X128845700Y-106015700D02*
X130281000Y-104580400D01*
X127892700Y-106015700D02*
X128845700Y-106015700D01*
X125840000Y-108068400D02*
X127892700Y-106015700D01*
X125840000Y-108450000D02*
X125840000Y-108068400D01*
%TO.N,X11*%
X142500000Y-95650000D02*
X142500000Y-94573300D01*
X131350000Y-95110000D02*
X132126700Y-95110000D01*
X139605100Y-94573300D02*
X142500000Y-94573300D01*
X139336000Y-94842400D02*
X139605100Y-94573300D01*
X138252200Y-94842400D02*
X139336000Y-94842400D01*
X137640200Y-94230400D02*
X138252200Y-94842400D01*
X137640200Y-93287600D02*
X137640200Y-94230400D01*
X135447500Y-91094900D02*
X137640200Y-93287600D01*
X135447500Y-89673900D02*
X135447500Y-91094900D01*
X135276900Y-89503300D02*
X135447500Y-89673900D01*
X134056500Y-89503300D02*
X135276900Y-89503300D01*
X132126700Y-91433100D02*
X134056500Y-89503300D01*
X132126700Y-95110000D02*
X132126700Y-91433100D01*
%TO.N,X1*%
X146500000Y-107050000D02*
X146500000Y-108126700D01*
X143950900Y-110675800D02*
X138144100Y-110675800D01*
X146500000Y-108126700D02*
X143950900Y-110675800D01*
X137214300Y-111605600D02*
X138144100Y-110675800D01*
X127310200Y-111605600D02*
X137214300Y-111605600D01*
X124570000Y-108865400D02*
X127310200Y-111605600D01*
X124570000Y-108450000D02*
X124570000Y-108865400D01*
%TO.N,X10*%
X143300000Y-95650000D02*
X143300000Y-94573300D01*
X132271400Y-97574700D02*
X132418900Y-97574700D01*
X132126700Y-97430000D02*
X132271400Y-97574700D01*
X131350000Y-97430000D02*
X132126700Y-97430000D01*
X142790900Y-94064200D02*
X138554500Y-94064200D01*
X143300000Y-94573300D02*
X142790900Y-94064200D01*
%TO.N,X0*%
X134650000Y-97430000D02*
X133873300Y-97430000D01*
X147300000Y-107050000D02*
X147300000Y-108126700D01*
X123300000Y-108836400D02*
X123300000Y-108450000D01*
X126520900Y-112057300D02*
X123300000Y-108836400D01*
X140433500Y-112057300D02*
X126520900Y-112057300D01*
X140885300Y-111605500D02*
X140433500Y-112057300D01*
X143821200Y-111605500D02*
X140885300Y-111605500D01*
X147300000Y-108126700D02*
X143821200Y-111605500D01*
X123300000Y-108036200D02*
X123300000Y-108450000D01*
X124273900Y-107062300D02*
X123300000Y-108036200D01*
X125889000Y-107062300D02*
X124273900Y-107062300D01*
X127387300Y-105564000D02*
X125889000Y-107062300D01*
X128026100Y-105564000D02*
X127387300Y-105564000D01*
X129022700Y-104567400D02*
X128026100Y-105564000D01*
X129022700Y-102105200D02*
X129022700Y-104567400D01*
X133697900Y-97430000D02*
X129022700Y-102105200D01*
X133873300Y-97430000D02*
X133697900Y-97430000D01*
%TO.N,+5V*%
X134775000Y-122150000D02*
X134800000Y-122125000D01*
X133510000Y-122150000D02*
X134775000Y-122150000D01*
X121490000Y-122115000D02*
X121500000Y-122125000D01*
X121490000Y-120625000D02*
X121490000Y-122115000D01*
X105850000Y-120625000D02*
X105850000Y-122125000D01*
D28*
X156600000Y-105400000D02*
X156600000Y-102100000D01*
D27*
X156550000Y-102150000D02*
X156600000Y-102100000D01*
X150600000Y-102150000D02*
X156550000Y-102150000D01*
D28*
X156600000Y-122100000D02*
X156600000Y-105400000D01*
X155700000Y-122100000D02*
X156600000Y-122100000D01*
X155266000Y-76566000D02*
X153065000Y-76566000D01*
X156600000Y-77900000D02*
X155266000Y-76566000D01*
X156600000Y-102100000D02*
X156600000Y-77900000D01*
D27*
X123300000Y-104850000D02*
X123250000Y-104900000D01*
X123300000Y-103500000D02*
X123300000Y-104850000D01*
D28*
X136700000Y-104900000D02*
X135350000Y-104900000D01*
X111020000Y-115845000D02*
X111018000Y-115847000D01*
X135400000Y-104950000D02*
X135350000Y-104900000D01*
X151474000Y-74975000D02*
X153065000Y-76566000D01*
X119575000Y-74975000D02*
X151474000Y-74975000D01*
X119575000Y-104975000D02*
X119575000Y-74975000D01*
X119600000Y-105000000D02*
X119575000Y-104975000D01*
D29*
X153750000Y-122075000D02*
X153750000Y-123975000D01*
X153750000Y-123975000D02*
X153750000Y-125875000D01*
X153750000Y-120175000D02*
X153750000Y-122075000D01*
X153750000Y-112575000D02*
X153750000Y-114475000D01*
X153750000Y-114475000D02*
X153750000Y-116375000D01*
X153750000Y-116375000D02*
X153750000Y-118275000D01*
X153750000Y-118275000D02*
X153750000Y-120175000D01*
D28*
X153800000Y-122125000D02*
X153750000Y-122075000D01*
D27*
X126619800Y-113076700D02*
X125385500Y-114311000D01*
X129569200Y-113076700D02*
X126619800Y-113076700D01*
X130803500Y-114311000D02*
X129569200Y-113076700D01*
X153825000Y-122100000D02*
X153800000Y-122125000D01*
X155700000Y-122100000D02*
X153825000Y-122100000D01*
X150600000Y-105350000D02*
X154800000Y-105350000D01*
X156550000Y-105350000D02*
X156600000Y-105400000D01*
X154800000Y-105350000D02*
X156550000Y-105350000D01*
X154800000Y-105350000D02*
X155200000Y-104950000D01*
D28*
X101075000Y-122150000D02*
X101050000Y-122125000D01*
X102610000Y-122150000D02*
X101075000Y-122150000D01*
D27*
X105850000Y-125390000D02*
X105850000Y-125575000D01*
X102610000Y-122150000D02*
X105850000Y-125390000D01*
X148575000Y-122150000D02*
X148600000Y-122125000D01*
X147460000Y-122150000D02*
X148575000Y-122150000D01*
X136690000Y-122115000D02*
X136700000Y-122125000D01*
X136690000Y-120625000D02*
X136690000Y-122115000D01*
X132037800Y-113076700D02*
X130803500Y-114311000D01*
X134193200Y-113076700D02*
X132037800Y-113076700D01*
X135806500Y-114690000D02*
X134193200Y-113076700D01*
X135806500Y-114690000D02*
X136185500Y-114311000D01*
X119075000Y-122150000D02*
X119100000Y-122125000D01*
X117960000Y-122150000D02*
X119075000Y-122150000D01*
X113470000Y-123238400D02*
X113470000Y-125575000D01*
X114558400Y-122150000D02*
X113470000Y-123238400D01*
X117960000Y-122150000D02*
X114558400Y-122150000D01*
X113470000Y-121061600D02*
X113470000Y-120625000D01*
X114558400Y-122150000D02*
X113470000Y-121061600D01*
X145101100Y-122150000D02*
X147460000Y-122150000D01*
X143040000Y-124211100D02*
X145101100Y-122150000D01*
X143040000Y-125575000D02*
X143040000Y-124211100D01*
%TD*%
M02*
