%TF.GenerationSoftware,KiCad,Pcbnew,8.0.1*%
%TF.CreationDate,2024-06-09T22:48:09+01:00*%
%TF.ProjectId,BBC-USBSlim,4242432d-5553-4425-936c-696d2e6b6963,rev?*%
%TF.SameCoordinates,Original*%
%TF.FileFunction,Legend,Top*%
%TF.FilePolarity,Positive*%
%FSLAX46Y46*%
G04 Gerber Fmt 4.6, Leading zero omitted, Abs format (unit mm)*
G04 Created by KiCad (PCBNEW 8.0.1) date 2024-06-09 22:48:09*
%MOMM*%
%LPD*%
G01*
G04 APERTURE LIST*
%ADD10C,0.150000*%
%ADD11C,0.000000*%
%ADD12C,0.120000*%
%ADD13C,0.100000*%
G04 APERTURE END LIST*
D10*
X82438094Y-121421065D02*
X82580951Y-121468684D01*
X82580951Y-121468684D02*
X82628570Y-121516303D01*
X82628570Y-121516303D02*
X82676189Y-121611541D01*
X82676189Y-121611541D02*
X82676189Y-121754398D01*
X82676189Y-121754398D02*
X82628570Y-121849636D01*
X82628570Y-121849636D02*
X82580951Y-121897256D01*
X82580951Y-121897256D02*
X82485713Y-121944875D01*
X82485713Y-121944875D02*
X82104761Y-121944875D01*
X82104761Y-121944875D02*
X82104761Y-120944875D01*
X82104761Y-120944875D02*
X82438094Y-120944875D01*
X82438094Y-120944875D02*
X82533332Y-120992494D01*
X82533332Y-120992494D02*
X82580951Y-121040113D01*
X82580951Y-121040113D02*
X82628570Y-121135351D01*
X82628570Y-121135351D02*
X82628570Y-121230589D01*
X82628570Y-121230589D02*
X82580951Y-121325827D01*
X82580951Y-121325827D02*
X82533332Y-121373446D01*
X82533332Y-121373446D02*
X82438094Y-121421065D01*
X82438094Y-121421065D02*
X82104761Y-121421065D01*
X83438094Y-121421065D02*
X83580951Y-121468684D01*
X83580951Y-121468684D02*
X83628570Y-121516303D01*
X83628570Y-121516303D02*
X83676189Y-121611541D01*
X83676189Y-121611541D02*
X83676189Y-121754398D01*
X83676189Y-121754398D02*
X83628570Y-121849636D01*
X83628570Y-121849636D02*
X83580951Y-121897256D01*
X83580951Y-121897256D02*
X83485713Y-121944875D01*
X83485713Y-121944875D02*
X83104761Y-121944875D01*
X83104761Y-121944875D02*
X83104761Y-120944875D01*
X83104761Y-120944875D02*
X83438094Y-120944875D01*
X83438094Y-120944875D02*
X83533332Y-120992494D01*
X83533332Y-120992494D02*
X83580951Y-121040113D01*
X83580951Y-121040113D02*
X83628570Y-121135351D01*
X83628570Y-121135351D02*
X83628570Y-121230589D01*
X83628570Y-121230589D02*
X83580951Y-121325827D01*
X83580951Y-121325827D02*
X83533332Y-121373446D01*
X83533332Y-121373446D02*
X83438094Y-121421065D01*
X83438094Y-121421065D02*
X83104761Y-121421065D01*
X84676189Y-121849636D02*
X84628570Y-121897256D01*
X84628570Y-121897256D02*
X84485713Y-121944875D01*
X84485713Y-121944875D02*
X84390475Y-121944875D01*
X84390475Y-121944875D02*
X84247618Y-121897256D01*
X84247618Y-121897256D02*
X84152380Y-121802017D01*
X84152380Y-121802017D02*
X84104761Y-121706779D01*
X84104761Y-121706779D02*
X84057142Y-121516303D01*
X84057142Y-121516303D02*
X84057142Y-121373446D01*
X84057142Y-121373446D02*
X84104761Y-121182970D01*
X84104761Y-121182970D02*
X84152380Y-121087732D01*
X84152380Y-121087732D02*
X84247618Y-120992494D01*
X84247618Y-120992494D02*
X84390475Y-120944875D01*
X84390475Y-120944875D02*
X84485713Y-120944875D01*
X84485713Y-120944875D02*
X84628570Y-120992494D01*
X84628570Y-120992494D02*
X84676189Y-121040113D01*
X85866666Y-121944875D02*
X85866666Y-120944875D01*
X85866666Y-120944875D02*
X86199999Y-121659160D01*
X86199999Y-121659160D02*
X86533332Y-120944875D01*
X86533332Y-120944875D02*
X86533332Y-121944875D01*
X87152380Y-121944875D02*
X87057142Y-121897256D01*
X87057142Y-121897256D02*
X87009523Y-121849636D01*
X87009523Y-121849636D02*
X86961904Y-121754398D01*
X86961904Y-121754398D02*
X86961904Y-121468684D01*
X86961904Y-121468684D02*
X87009523Y-121373446D01*
X87009523Y-121373446D02*
X87057142Y-121325827D01*
X87057142Y-121325827D02*
X87152380Y-121278208D01*
X87152380Y-121278208D02*
X87295237Y-121278208D01*
X87295237Y-121278208D02*
X87390475Y-121325827D01*
X87390475Y-121325827D02*
X87438094Y-121373446D01*
X87438094Y-121373446D02*
X87485713Y-121468684D01*
X87485713Y-121468684D02*
X87485713Y-121754398D01*
X87485713Y-121754398D02*
X87438094Y-121849636D01*
X87438094Y-121849636D02*
X87390475Y-121897256D01*
X87390475Y-121897256D02*
X87295237Y-121944875D01*
X87295237Y-121944875D02*
X87152380Y-121944875D01*
X88342856Y-121944875D02*
X88342856Y-120944875D01*
X88342856Y-121897256D02*
X88247618Y-121944875D01*
X88247618Y-121944875D02*
X88057142Y-121944875D01*
X88057142Y-121944875D02*
X87961904Y-121897256D01*
X87961904Y-121897256D02*
X87914285Y-121849636D01*
X87914285Y-121849636D02*
X87866666Y-121754398D01*
X87866666Y-121754398D02*
X87866666Y-121468684D01*
X87866666Y-121468684D02*
X87914285Y-121373446D01*
X87914285Y-121373446D02*
X87961904Y-121325827D01*
X87961904Y-121325827D02*
X88057142Y-121278208D01*
X88057142Y-121278208D02*
X88247618Y-121278208D01*
X88247618Y-121278208D02*
X88342856Y-121325827D01*
X89199999Y-121897256D02*
X89104761Y-121944875D01*
X89104761Y-121944875D02*
X88914285Y-121944875D01*
X88914285Y-121944875D02*
X88819047Y-121897256D01*
X88819047Y-121897256D02*
X88771428Y-121802017D01*
X88771428Y-121802017D02*
X88771428Y-121421065D01*
X88771428Y-121421065D02*
X88819047Y-121325827D01*
X88819047Y-121325827D02*
X88914285Y-121278208D01*
X88914285Y-121278208D02*
X89104761Y-121278208D01*
X89104761Y-121278208D02*
X89199999Y-121325827D01*
X89199999Y-121325827D02*
X89247618Y-121421065D01*
X89247618Y-121421065D02*
X89247618Y-121516303D01*
X89247618Y-121516303D02*
X88771428Y-121611541D01*
X89819047Y-121944875D02*
X89723809Y-121897256D01*
X89723809Y-121897256D02*
X89676190Y-121802017D01*
X89676190Y-121802017D02*
X89676190Y-120944875D01*
X91295238Y-121421065D02*
X91438095Y-121468684D01*
X91438095Y-121468684D02*
X91485714Y-121516303D01*
X91485714Y-121516303D02*
X91533333Y-121611541D01*
X91533333Y-121611541D02*
X91533333Y-121754398D01*
X91533333Y-121754398D02*
X91485714Y-121849636D01*
X91485714Y-121849636D02*
X91438095Y-121897256D01*
X91438095Y-121897256D02*
X91342857Y-121944875D01*
X91342857Y-121944875D02*
X90961905Y-121944875D01*
X90961905Y-121944875D02*
X90961905Y-120944875D01*
X90961905Y-120944875D02*
X91295238Y-120944875D01*
X91295238Y-120944875D02*
X91390476Y-120992494D01*
X91390476Y-120992494D02*
X91438095Y-121040113D01*
X91438095Y-121040113D02*
X91485714Y-121135351D01*
X91485714Y-121135351D02*
X91485714Y-121230589D01*
X91485714Y-121230589D02*
X91438095Y-121325827D01*
X91438095Y-121325827D02*
X91390476Y-121373446D01*
X91390476Y-121373446D02*
X91295238Y-121421065D01*
X91295238Y-121421065D02*
X90961905Y-121421065D01*
X92723810Y-120944875D02*
X92723810Y-121754398D01*
X92723810Y-121754398D02*
X92771429Y-121849636D01*
X92771429Y-121849636D02*
X92819048Y-121897256D01*
X92819048Y-121897256D02*
X92914286Y-121944875D01*
X92914286Y-121944875D02*
X93104762Y-121944875D01*
X93104762Y-121944875D02*
X93200000Y-121897256D01*
X93200000Y-121897256D02*
X93247619Y-121849636D01*
X93247619Y-121849636D02*
X93295238Y-121754398D01*
X93295238Y-121754398D02*
X93295238Y-120944875D01*
X93723810Y-121897256D02*
X93866667Y-121944875D01*
X93866667Y-121944875D02*
X94104762Y-121944875D01*
X94104762Y-121944875D02*
X94200000Y-121897256D01*
X94200000Y-121897256D02*
X94247619Y-121849636D01*
X94247619Y-121849636D02*
X94295238Y-121754398D01*
X94295238Y-121754398D02*
X94295238Y-121659160D01*
X94295238Y-121659160D02*
X94247619Y-121563922D01*
X94247619Y-121563922D02*
X94200000Y-121516303D01*
X94200000Y-121516303D02*
X94104762Y-121468684D01*
X94104762Y-121468684D02*
X93914286Y-121421065D01*
X93914286Y-121421065D02*
X93819048Y-121373446D01*
X93819048Y-121373446D02*
X93771429Y-121325827D01*
X93771429Y-121325827D02*
X93723810Y-121230589D01*
X93723810Y-121230589D02*
X93723810Y-121135351D01*
X93723810Y-121135351D02*
X93771429Y-121040113D01*
X93771429Y-121040113D02*
X93819048Y-120992494D01*
X93819048Y-120992494D02*
X93914286Y-120944875D01*
X93914286Y-120944875D02*
X94152381Y-120944875D01*
X94152381Y-120944875D02*
X94295238Y-120992494D01*
X95057143Y-121421065D02*
X95200000Y-121468684D01*
X95200000Y-121468684D02*
X95247619Y-121516303D01*
X95247619Y-121516303D02*
X95295238Y-121611541D01*
X95295238Y-121611541D02*
X95295238Y-121754398D01*
X95295238Y-121754398D02*
X95247619Y-121849636D01*
X95247619Y-121849636D02*
X95200000Y-121897256D01*
X95200000Y-121897256D02*
X95104762Y-121944875D01*
X95104762Y-121944875D02*
X94723810Y-121944875D01*
X94723810Y-121944875D02*
X94723810Y-120944875D01*
X94723810Y-120944875D02*
X95057143Y-120944875D01*
X95057143Y-120944875D02*
X95152381Y-120992494D01*
X95152381Y-120992494D02*
X95200000Y-121040113D01*
X95200000Y-121040113D02*
X95247619Y-121135351D01*
X95247619Y-121135351D02*
X95247619Y-121230589D01*
X95247619Y-121230589D02*
X95200000Y-121325827D01*
X95200000Y-121325827D02*
X95152381Y-121373446D01*
X95152381Y-121373446D02*
X95057143Y-121421065D01*
X95057143Y-121421065D02*
X94723810Y-121421065D01*
X96438096Y-121897256D02*
X96580953Y-121944875D01*
X96580953Y-121944875D02*
X96819048Y-121944875D01*
X96819048Y-121944875D02*
X96914286Y-121897256D01*
X96914286Y-121897256D02*
X96961905Y-121849636D01*
X96961905Y-121849636D02*
X97009524Y-121754398D01*
X97009524Y-121754398D02*
X97009524Y-121659160D01*
X97009524Y-121659160D02*
X96961905Y-121563922D01*
X96961905Y-121563922D02*
X96914286Y-121516303D01*
X96914286Y-121516303D02*
X96819048Y-121468684D01*
X96819048Y-121468684D02*
X96628572Y-121421065D01*
X96628572Y-121421065D02*
X96533334Y-121373446D01*
X96533334Y-121373446D02*
X96485715Y-121325827D01*
X96485715Y-121325827D02*
X96438096Y-121230589D01*
X96438096Y-121230589D02*
X96438096Y-121135351D01*
X96438096Y-121135351D02*
X96485715Y-121040113D01*
X96485715Y-121040113D02*
X96533334Y-120992494D01*
X96533334Y-120992494D02*
X96628572Y-120944875D01*
X96628572Y-120944875D02*
X96866667Y-120944875D01*
X96866667Y-120944875D02*
X97009524Y-120992494D01*
X97580953Y-121944875D02*
X97485715Y-121897256D01*
X97485715Y-121897256D02*
X97438096Y-121802017D01*
X97438096Y-121802017D02*
X97438096Y-120944875D01*
X97961906Y-121944875D02*
X97961906Y-121278208D01*
X97961906Y-120944875D02*
X97914287Y-120992494D01*
X97914287Y-120992494D02*
X97961906Y-121040113D01*
X97961906Y-121040113D02*
X98009525Y-120992494D01*
X98009525Y-120992494D02*
X97961906Y-120944875D01*
X97961906Y-120944875D02*
X97961906Y-121040113D01*
X98438096Y-121944875D02*
X98438096Y-121278208D01*
X98438096Y-121373446D02*
X98485715Y-121325827D01*
X98485715Y-121325827D02*
X98580953Y-121278208D01*
X98580953Y-121278208D02*
X98723810Y-121278208D01*
X98723810Y-121278208D02*
X98819048Y-121325827D01*
X98819048Y-121325827D02*
X98866667Y-121421065D01*
X98866667Y-121421065D02*
X98866667Y-121944875D01*
X98866667Y-121421065D02*
X98914286Y-121325827D01*
X98914286Y-121325827D02*
X99009524Y-121278208D01*
X99009524Y-121278208D02*
X99152381Y-121278208D01*
X99152381Y-121278208D02*
X99247620Y-121325827D01*
X99247620Y-121325827D02*
X99295239Y-121421065D01*
X99295239Y-121421065D02*
X99295239Y-121944875D01*
X83080951Y-123554819D02*
X83080951Y-122554819D01*
X83652379Y-123554819D02*
X83223808Y-122983390D01*
X83652379Y-122554819D02*
X83080951Y-123126247D01*
X84461903Y-123507200D02*
X84366665Y-123554819D01*
X84366665Y-123554819D02*
X84176189Y-123554819D01*
X84176189Y-123554819D02*
X84080951Y-123507200D01*
X84080951Y-123507200D02*
X84033332Y-123411961D01*
X84033332Y-123411961D02*
X84033332Y-123031009D01*
X84033332Y-123031009D02*
X84080951Y-122935771D01*
X84080951Y-122935771D02*
X84176189Y-122888152D01*
X84176189Y-122888152D02*
X84366665Y-122888152D01*
X84366665Y-122888152D02*
X84461903Y-122935771D01*
X84461903Y-122935771D02*
X84509522Y-123031009D01*
X84509522Y-123031009D02*
X84509522Y-123126247D01*
X84509522Y-123126247D02*
X84033332Y-123221485D01*
X84842856Y-122888152D02*
X85080951Y-123554819D01*
X85319046Y-122888152D02*
X85080951Y-123554819D01*
X85080951Y-123554819D02*
X84985713Y-123792914D01*
X84985713Y-123792914D02*
X84938094Y-123840533D01*
X84938094Y-123840533D02*
X84842856Y-123888152D01*
X85699999Y-123554819D02*
X85699999Y-122554819D01*
X85699999Y-122935771D02*
X85795237Y-122888152D01*
X85795237Y-122888152D02*
X85985713Y-122888152D01*
X85985713Y-122888152D02*
X86080951Y-122935771D01*
X86080951Y-122935771D02*
X86128570Y-122983390D01*
X86128570Y-122983390D02*
X86176189Y-123078628D01*
X86176189Y-123078628D02*
X86176189Y-123364342D01*
X86176189Y-123364342D02*
X86128570Y-123459580D01*
X86128570Y-123459580D02*
X86080951Y-123507200D01*
X86080951Y-123507200D02*
X85985713Y-123554819D01*
X85985713Y-123554819D02*
X85795237Y-123554819D01*
X85795237Y-123554819D02*
X85699999Y-123507200D01*
X86747618Y-123554819D02*
X86652380Y-123507200D01*
X86652380Y-123507200D02*
X86604761Y-123459580D01*
X86604761Y-123459580D02*
X86557142Y-123364342D01*
X86557142Y-123364342D02*
X86557142Y-123078628D01*
X86557142Y-123078628D02*
X86604761Y-122983390D01*
X86604761Y-122983390D02*
X86652380Y-122935771D01*
X86652380Y-122935771D02*
X86747618Y-122888152D01*
X86747618Y-122888152D02*
X86890475Y-122888152D01*
X86890475Y-122888152D02*
X86985713Y-122935771D01*
X86985713Y-122935771D02*
X87033332Y-122983390D01*
X87033332Y-122983390D02*
X87080951Y-123078628D01*
X87080951Y-123078628D02*
X87080951Y-123364342D01*
X87080951Y-123364342D02*
X87033332Y-123459580D01*
X87033332Y-123459580D02*
X86985713Y-123507200D01*
X86985713Y-123507200D02*
X86890475Y-123554819D01*
X86890475Y-123554819D02*
X86747618Y-123554819D01*
X87938094Y-123554819D02*
X87938094Y-123031009D01*
X87938094Y-123031009D02*
X87890475Y-122935771D01*
X87890475Y-122935771D02*
X87795237Y-122888152D01*
X87795237Y-122888152D02*
X87604761Y-122888152D01*
X87604761Y-122888152D02*
X87509523Y-122935771D01*
X87938094Y-123507200D02*
X87842856Y-123554819D01*
X87842856Y-123554819D02*
X87604761Y-123554819D01*
X87604761Y-123554819D02*
X87509523Y-123507200D01*
X87509523Y-123507200D02*
X87461904Y-123411961D01*
X87461904Y-123411961D02*
X87461904Y-123316723D01*
X87461904Y-123316723D02*
X87509523Y-123221485D01*
X87509523Y-123221485D02*
X87604761Y-123173866D01*
X87604761Y-123173866D02*
X87842856Y-123173866D01*
X87842856Y-123173866D02*
X87938094Y-123126247D01*
X88414285Y-123554819D02*
X88414285Y-122888152D01*
X88414285Y-123078628D02*
X88461904Y-122983390D01*
X88461904Y-122983390D02*
X88509523Y-122935771D01*
X88509523Y-122935771D02*
X88604761Y-122888152D01*
X88604761Y-122888152D02*
X88699999Y-122888152D01*
X89461904Y-123554819D02*
X89461904Y-122554819D01*
X89461904Y-123507200D02*
X89366666Y-123554819D01*
X89366666Y-123554819D02*
X89176190Y-123554819D01*
X89176190Y-123554819D02*
X89080952Y-123507200D01*
X89080952Y-123507200D02*
X89033333Y-123459580D01*
X89033333Y-123459580D02*
X88985714Y-123364342D01*
X88985714Y-123364342D02*
X88985714Y-123078628D01*
X88985714Y-123078628D02*
X89033333Y-122983390D01*
X89033333Y-122983390D02*
X89080952Y-122935771D01*
X89080952Y-122935771D02*
X89176190Y-122888152D01*
X89176190Y-122888152D02*
X89366666Y-122888152D01*
X89366666Y-122888152D02*
X89461904Y-122935771D01*
X90652381Y-123269104D02*
X91128571Y-123269104D01*
X90557143Y-123554819D02*
X90890476Y-122554819D01*
X90890476Y-122554819D02*
X91223809Y-123554819D01*
X91985714Y-123554819D02*
X91985714Y-122554819D01*
X91985714Y-123507200D02*
X91890476Y-123554819D01*
X91890476Y-123554819D02*
X91700000Y-123554819D01*
X91700000Y-123554819D02*
X91604762Y-123507200D01*
X91604762Y-123507200D02*
X91557143Y-123459580D01*
X91557143Y-123459580D02*
X91509524Y-123364342D01*
X91509524Y-123364342D02*
X91509524Y-123078628D01*
X91509524Y-123078628D02*
X91557143Y-122983390D01*
X91557143Y-122983390D02*
X91604762Y-122935771D01*
X91604762Y-122935771D02*
X91700000Y-122888152D01*
X91700000Y-122888152D02*
X91890476Y-122888152D01*
X91890476Y-122888152D02*
X91985714Y-122935771D01*
X92890476Y-123554819D02*
X92890476Y-123031009D01*
X92890476Y-123031009D02*
X92842857Y-122935771D01*
X92842857Y-122935771D02*
X92747619Y-122888152D01*
X92747619Y-122888152D02*
X92557143Y-122888152D01*
X92557143Y-122888152D02*
X92461905Y-122935771D01*
X92890476Y-123507200D02*
X92795238Y-123554819D01*
X92795238Y-123554819D02*
X92557143Y-123554819D01*
X92557143Y-123554819D02*
X92461905Y-123507200D01*
X92461905Y-123507200D02*
X92414286Y-123411961D01*
X92414286Y-123411961D02*
X92414286Y-123316723D01*
X92414286Y-123316723D02*
X92461905Y-123221485D01*
X92461905Y-123221485D02*
X92557143Y-123173866D01*
X92557143Y-123173866D02*
X92795238Y-123173866D01*
X92795238Y-123173866D02*
X92890476Y-123126247D01*
X93366667Y-122888152D02*
X93366667Y-123888152D01*
X93366667Y-122935771D02*
X93461905Y-122888152D01*
X93461905Y-122888152D02*
X93652381Y-122888152D01*
X93652381Y-122888152D02*
X93747619Y-122935771D01*
X93747619Y-122935771D02*
X93795238Y-122983390D01*
X93795238Y-122983390D02*
X93842857Y-123078628D01*
X93842857Y-123078628D02*
X93842857Y-123364342D01*
X93842857Y-123364342D02*
X93795238Y-123459580D01*
X93795238Y-123459580D02*
X93747619Y-123507200D01*
X93747619Y-123507200D02*
X93652381Y-123554819D01*
X93652381Y-123554819D02*
X93461905Y-123554819D01*
X93461905Y-123554819D02*
X93366667Y-123507200D01*
X94128572Y-122888152D02*
X94509524Y-122888152D01*
X94271429Y-122554819D02*
X94271429Y-123411961D01*
X94271429Y-123411961D02*
X94319048Y-123507200D01*
X94319048Y-123507200D02*
X94414286Y-123554819D01*
X94414286Y-123554819D02*
X94509524Y-123554819D01*
X95223810Y-123507200D02*
X95128572Y-123554819D01*
X95128572Y-123554819D02*
X94938096Y-123554819D01*
X94938096Y-123554819D02*
X94842858Y-123507200D01*
X94842858Y-123507200D02*
X94795239Y-123411961D01*
X94795239Y-123411961D02*
X94795239Y-123031009D01*
X94795239Y-123031009D02*
X94842858Y-122935771D01*
X94842858Y-122935771D02*
X94938096Y-122888152D01*
X94938096Y-122888152D02*
X95128572Y-122888152D01*
X95128572Y-122888152D02*
X95223810Y-122935771D01*
X95223810Y-122935771D02*
X95271429Y-123031009D01*
X95271429Y-123031009D02*
X95271429Y-123126247D01*
X95271429Y-123126247D02*
X94795239Y-123221485D01*
X95700001Y-123554819D02*
X95700001Y-122888152D01*
X95700001Y-123078628D02*
X95747620Y-122983390D01*
X95747620Y-122983390D02*
X95795239Y-122935771D01*
X95795239Y-122935771D02*
X95890477Y-122888152D01*
X95890477Y-122888152D02*
X95985715Y-122888152D01*
X96985716Y-122888152D02*
X97223811Y-123554819D01*
X97223811Y-123554819D02*
X97461906Y-122888152D01*
X98366668Y-123554819D02*
X97795240Y-123554819D01*
X98080954Y-123554819D02*
X98080954Y-122554819D01*
X98080954Y-122554819D02*
X97985716Y-122697676D01*
X97985716Y-122697676D02*
X97890478Y-122792914D01*
X97890478Y-122792914D02*
X97795240Y-122840533D01*
X82295237Y-124164763D02*
X82390475Y-124164763D01*
X82390475Y-124164763D02*
X82485713Y-124212382D01*
X82485713Y-124212382D02*
X82533332Y-124260001D01*
X82533332Y-124260001D02*
X82580951Y-124355239D01*
X82580951Y-124355239D02*
X82628570Y-124545715D01*
X82628570Y-124545715D02*
X82628570Y-124783810D01*
X82628570Y-124783810D02*
X82580951Y-124974286D01*
X82580951Y-124974286D02*
X82533332Y-125069524D01*
X82533332Y-125069524D02*
X82485713Y-125117144D01*
X82485713Y-125117144D02*
X82390475Y-125164763D01*
X82390475Y-125164763D02*
X82295237Y-125164763D01*
X82295237Y-125164763D02*
X82199999Y-125117144D01*
X82199999Y-125117144D02*
X82152380Y-125069524D01*
X82152380Y-125069524D02*
X82104761Y-124974286D01*
X82104761Y-124974286D02*
X82057142Y-124783810D01*
X82057142Y-124783810D02*
X82057142Y-124545715D01*
X82057142Y-124545715D02*
X82104761Y-124355239D01*
X82104761Y-124355239D02*
X82152380Y-124260001D01*
X82152380Y-124260001D02*
X82199999Y-124212382D01*
X82199999Y-124212382D02*
X82295237Y-124164763D01*
X83485713Y-124164763D02*
X83295237Y-124164763D01*
X83295237Y-124164763D02*
X83199999Y-124212382D01*
X83199999Y-124212382D02*
X83152380Y-124260001D01*
X83152380Y-124260001D02*
X83057142Y-124402858D01*
X83057142Y-124402858D02*
X83009523Y-124593334D01*
X83009523Y-124593334D02*
X83009523Y-124974286D01*
X83009523Y-124974286D02*
X83057142Y-125069524D01*
X83057142Y-125069524D02*
X83104761Y-125117144D01*
X83104761Y-125117144D02*
X83199999Y-125164763D01*
X83199999Y-125164763D02*
X83390475Y-125164763D01*
X83390475Y-125164763D02*
X83485713Y-125117144D01*
X83485713Y-125117144D02*
X83533332Y-125069524D01*
X83533332Y-125069524D02*
X83580951Y-124974286D01*
X83580951Y-124974286D02*
X83580951Y-124736191D01*
X83580951Y-124736191D02*
X83533332Y-124640953D01*
X83533332Y-124640953D02*
X83485713Y-124593334D01*
X83485713Y-124593334D02*
X83390475Y-124545715D01*
X83390475Y-124545715D02*
X83199999Y-124545715D01*
X83199999Y-124545715D02*
X83104761Y-124593334D01*
X83104761Y-124593334D02*
X83057142Y-124640953D01*
X83057142Y-124640953D02*
X83009523Y-124736191D01*
X84723808Y-124117144D02*
X83866666Y-125402858D01*
X85009523Y-124260001D02*
X85057142Y-124212382D01*
X85057142Y-124212382D02*
X85152380Y-124164763D01*
X85152380Y-124164763D02*
X85390475Y-124164763D01*
X85390475Y-124164763D02*
X85485713Y-124212382D01*
X85485713Y-124212382D02*
X85533332Y-124260001D01*
X85533332Y-124260001D02*
X85580951Y-124355239D01*
X85580951Y-124355239D02*
X85580951Y-124450477D01*
X85580951Y-124450477D02*
X85533332Y-124593334D01*
X85533332Y-124593334D02*
X84961904Y-125164763D01*
X84961904Y-125164763D02*
X85580951Y-125164763D01*
X86199999Y-124164763D02*
X86295237Y-124164763D01*
X86295237Y-124164763D02*
X86390475Y-124212382D01*
X86390475Y-124212382D02*
X86438094Y-124260001D01*
X86438094Y-124260001D02*
X86485713Y-124355239D01*
X86485713Y-124355239D02*
X86533332Y-124545715D01*
X86533332Y-124545715D02*
X86533332Y-124783810D01*
X86533332Y-124783810D02*
X86485713Y-124974286D01*
X86485713Y-124974286D02*
X86438094Y-125069524D01*
X86438094Y-125069524D02*
X86390475Y-125117144D01*
X86390475Y-125117144D02*
X86295237Y-125164763D01*
X86295237Y-125164763D02*
X86199999Y-125164763D01*
X86199999Y-125164763D02*
X86104761Y-125117144D01*
X86104761Y-125117144D02*
X86057142Y-125069524D01*
X86057142Y-125069524D02*
X86009523Y-124974286D01*
X86009523Y-124974286D02*
X85961904Y-124783810D01*
X85961904Y-124783810D02*
X85961904Y-124545715D01*
X85961904Y-124545715D02*
X86009523Y-124355239D01*
X86009523Y-124355239D02*
X86057142Y-124260001D01*
X86057142Y-124260001D02*
X86104761Y-124212382D01*
X86104761Y-124212382D02*
X86199999Y-124164763D01*
X86914285Y-124260001D02*
X86961904Y-124212382D01*
X86961904Y-124212382D02*
X87057142Y-124164763D01*
X87057142Y-124164763D02*
X87295237Y-124164763D01*
X87295237Y-124164763D02*
X87390475Y-124212382D01*
X87390475Y-124212382D02*
X87438094Y-124260001D01*
X87438094Y-124260001D02*
X87485713Y-124355239D01*
X87485713Y-124355239D02*
X87485713Y-124450477D01*
X87485713Y-124450477D02*
X87438094Y-124593334D01*
X87438094Y-124593334D02*
X86866666Y-125164763D01*
X86866666Y-125164763D02*
X87485713Y-125164763D01*
X88342856Y-124498096D02*
X88342856Y-125164763D01*
X88104761Y-124117144D02*
X87866666Y-124831429D01*
X87866666Y-124831429D02*
X88485713Y-124831429D01*
X90247618Y-124688572D02*
X90199999Y-124640953D01*
X90199999Y-124640953D02*
X90104761Y-124593334D01*
X90104761Y-124593334D02*
X90009523Y-124593334D01*
X90009523Y-124593334D02*
X89914285Y-124640953D01*
X89914285Y-124640953D02*
X89866666Y-124688572D01*
X89866666Y-124688572D02*
X89819047Y-124783810D01*
X89819047Y-124783810D02*
X89819047Y-124879048D01*
X89819047Y-124879048D02*
X89866666Y-124974286D01*
X89866666Y-124974286D02*
X89914285Y-125021905D01*
X89914285Y-125021905D02*
X90009523Y-125069524D01*
X90009523Y-125069524D02*
X90104761Y-125069524D01*
X90104761Y-125069524D02*
X90199999Y-125021905D01*
X90199999Y-125021905D02*
X90247618Y-124974286D01*
X90247618Y-124593334D02*
X90247618Y-124974286D01*
X90247618Y-124974286D02*
X90295237Y-125021905D01*
X90295237Y-125021905D02*
X90342856Y-125021905D01*
X90342856Y-125021905D02*
X90438095Y-124974286D01*
X90438095Y-124974286D02*
X90485714Y-124879048D01*
X90485714Y-124879048D02*
X90485714Y-124640953D01*
X90485714Y-124640953D02*
X90390476Y-124498096D01*
X90390476Y-124498096D02*
X90247618Y-124402858D01*
X90247618Y-124402858D02*
X90057142Y-124355239D01*
X90057142Y-124355239D02*
X89866666Y-124402858D01*
X89866666Y-124402858D02*
X89723809Y-124498096D01*
X89723809Y-124498096D02*
X89628571Y-124640953D01*
X89628571Y-124640953D02*
X89580952Y-124831429D01*
X89580952Y-124831429D02*
X89628571Y-125021905D01*
X89628571Y-125021905D02*
X89723809Y-125164763D01*
X89723809Y-125164763D02*
X89866666Y-125260001D01*
X89866666Y-125260001D02*
X90057142Y-125307620D01*
X90057142Y-125307620D02*
X90247618Y-125260001D01*
X90247618Y-125260001D02*
X90390476Y-125164763D01*
X91342856Y-124498096D02*
X91342856Y-125307620D01*
X91342856Y-125307620D02*
X91295237Y-125402858D01*
X91295237Y-125402858D02*
X91247618Y-125450477D01*
X91247618Y-125450477D02*
X91152380Y-125498096D01*
X91152380Y-125498096D02*
X91009523Y-125498096D01*
X91009523Y-125498096D02*
X90914285Y-125450477D01*
X91342856Y-125117144D02*
X91247618Y-125164763D01*
X91247618Y-125164763D02*
X91057142Y-125164763D01*
X91057142Y-125164763D02*
X90961904Y-125117144D01*
X90961904Y-125117144D02*
X90914285Y-125069524D01*
X90914285Y-125069524D02*
X90866666Y-124974286D01*
X90866666Y-124974286D02*
X90866666Y-124688572D01*
X90866666Y-124688572D02*
X90914285Y-124593334D01*
X90914285Y-124593334D02*
X90961904Y-124545715D01*
X90961904Y-124545715D02*
X91057142Y-124498096D01*
X91057142Y-124498096D02*
X91247618Y-124498096D01*
X91247618Y-124498096D02*
X91342856Y-124545715D01*
X91819047Y-125164763D02*
X91819047Y-124498096D01*
X91819047Y-124688572D02*
X91866666Y-124593334D01*
X91866666Y-124593334D02*
X91914285Y-124545715D01*
X91914285Y-124545715D02*
X92009523Y-124498096D01*
X92009523Y-124498096D02*
X92104761Y-124498096D01*
X92866666Y-125164763D02*
X92866666Y-124640953D01*
X92866666Y-124640953D02*
X92819047Y-124545715D01*
X92819047Y-124545715D02*
X92723809Y-124498096D01*
X92723809Y-124498096D02*
X92533333Y-124498096D01*
X92533333Y-124498096D02*
X92438095Y-124545715D01*
X92866666Y-125117144D02*
X92771428Y-125164763D01*
X92771428Y-125164763D02*
X92533333Y-125164763D01*
X92533333Y-125164763D02*
X92438095Y-125117144D01*
X92438095Y-125117144D02*
X92390476Y-125021905D01*
X92390476Y-125021905D02*
X92390476Y-124926667D01*
X92390476Y-124926667D02*
X92438095Y-124831429D01*
X92438095Y-124831429D02*
X92533333Y-124783810D01*
X92533333Y-124783810D02*
X92771428Y-124783810D01*
X92771428Y-124783810D02*
X92866666Y-124736191D01*
X93342857Y-124498096D02*
X93342857Y-125164763D01*
X93342857Y-124593334D02*
X93390476Y-124545715D01*
X93390476Y-124545715D02*
X93485714Y-124498096D01*
X93485714Y-124498096D02*
X93628571Y-124498096D01*
X93628571Y-124498096D02*
X93723809Y-124545715D01*
X93723809Y-124545715D02*
X93771428Y-124640953D01*
X93771428Y-124640953D02*
X93771428Y-125164763D01*
X94676190Y-125164763D02*
X94676190Y-124164763D01*
X94676190Y-125117144D02*
X94580952Y-125164763D01*
X94580952Y-125164763D02*
X94390476Y-125164763D01*
X94390476Y-125164763D02*
X94295238Y-125117144D01*
X94295238Y-125117144D02*
X94247619Y-125069524D01*
X94247619Y-125069524D02*
X94200000Y-124974286D01*
X94200000Y-124974286D02*
X94200000Y-124688572D01*
X94200000Y-124688572D02*
X94247619Y-124593334D01*
X94247619Y-124593334D02*
X94295238Y-124545715D01*
X94295238Y-124545715D02*
X94390476Y-124498096D01*
X94390476Y-124498096D02*
X94580952Y-124498096D01*
X94580952Y-124498096D02*
X94676190Y-124545715D01*
X95295238Y-125164763D02*
X95200000Y-125117144D01*
X95200000Y-125117144D02*
X95152381Y-125069524D01*
X95152381Y-125069524D02*
X95104762Y-124974286D01*
X95104762Y-124974286D02*
X95104762Y-124688572D01*
X95104762Y-124688572D02*
X95152381Y-124593334D01*
X95152381Y-124593334D02*
X95200000Y-124545715D01*
X95200000Y-124545715D02*
X95295238Y-124498096D01*
X95295238Y-124498096D02*
X95438095Y-124498096D01*
X95438095Y-124498096D02*
X95533333Y-124545715D01*
X95533333Y-124545715D02*
X95580952Y-124593334D01*
X95580952Y-124593334D02*
X95628571Y-124688572D01*
X95628571Y-124688572D02*
X95628571Y-124974286D01*
X95628571Y-124974286D02*
X95580952Y-125069524D01*
X95580952Y-125069524D02*
X95533333Y-125117144D01*
X95533333Y-125117144D02*
X95438095Y-125164763D01*
X95438095Y-125164763D02*
X95295238Y-125164763D01*
X96200000Y-125164763D02*
X96104762Y-125117144D01*
X96104762Y-125117144D02*
X96057143Y-125021905D01*
X96057143Y-125021905D02*
X96057143Y-124164763D01*
X97009524Y-125164763D02*
X97009524Y-124164763D01*
X97009524Y-125117144D02*
X96914286Y-125164763D01*
X96914286Y-125164763D02*
X96723810Y-125164763D01*
X96723810Y-125164763D02*
X96628572Y-125117144D01*
X96628572Y-125117144D02*
X96580953Y-125069524D01*
X96580953Y-125069524D02*
X96533334Y-124974286D01*
X96533334Y-124974286D02*
X96533334Y-124688572D01*
X96533334Y-124688572D02*
X96580953Y-124593334D01*
X96580953Y-124593334D02*
X96628572Y-124545715D01*
X96628572Y-124545715D02*
X96723810Y-124498096D01*
X96723810Y-124498096D02*
X96914286Y-124498096D01*
X96914286Y-124498096D02*
X97009524Y-124545715D01*
X97485715Y-125164763D02*
X97485715Y-124498096D01*
X97485715Y-124164763D02*
X97438096Y-124212382D01*
X97438096Y-124212382D02*
X97485715Y-124260001D01*
X97485715Y-124260001D02*
X97533334Y-124212382D01*
X97533334Y-124212382D02*
X97485715Y-124164763D01*
X97485715Y-124164763D02*
X97485715Y-124260001D01*
X98390476Y-125164763D02*
X98390476Y-124640953D01*
X98390476Y-124640953D02*
X98342857Y-124545715D01*
X98342857Y-124545715D02*
X98247619Y-124498096D01*
X98247619Y-124498096D02*
X98057143Y-124498096D01*
X98057143Y-124498096D02*
X97961905Y-124545715D01*
X98390476Y-125117144D02*
X98295238Y-125164763D01*
X98295238Y-125164763D02*
X98057143Y-125164763D01*
X98057143Y-125164763D02*
X97961905Y-125117144D01*
X97961905Y-125117144D02*
X97914286Y-125021905D01*
X97914286Y-125021905D02*
X97914286Y-124926667D01*
X97914286Y-124926667D02*
X97961905Y-124831429D01*
X97961905Y-124831429D02*
X98057143Y-124783810D01*
X98057143Y-124783810D02*
X98295238Y-124783810D01*
X98295238Y-124783810D02*
X98390476Y-124736191D01*
X98866667Y-124498096D02*
X98866667Y-125164763D01*
X98866667Y-124593334D02*
X98914286Y-124545715D01*
X98914286Y-124545715D02*
X99009524Y-124498096D01*
X99009524Y-124498096D02*
X99152381Y-124498096D01*
X99152381Y-124498096D02*
X99247619Y-124545715D01*
X99247619Y-124545715D02*
X99295238Y-124640953D01*
X99295238Y-124640953D02*
X99295238Y-125164763D01*
X137004819Y-102061904D02*
X137814342Y-102061904D01*
X137814342Y-102061904D02*
X137909580Y-102014285D01*
X137909580Y-102014285D02*
X137957200Y-101966666D01*
X137957200Y-101966666D02*
X138004819Y-101871428D01*
X138004819Y-101871428D02*
X138004819Y-101680952D01*
X138004819Y-101680952D02*
X137957200Y-101585714D01*
X137957200Y-101585714D02*
X137909580Y-101538095D01*
X137909580Y-101538095D02*
X137814342Y-101490476D01*
X137814342Y-101490476D02*
X137004819Y-101490476D01*
X137004819Y-100585714D02*
X137004819Y-100776190D01*
X137004819Y-100776190D02*
X137052438Y-100871428D01*
X137052438Y-100871428D02*
X137100057Y-100919047D01*
X137100057Y-100919047D02*
X137242914Y-101014285D01*
X137242914Y-101014285D02*
X137433390Y-101061904D01*
X137433390Y-101061904D02*
X137814342Y-101061904D01*
X137814342Y-101061904D02*
X137909580Y-101014285D01*
X137909580Y-101014285D02*
X137957200Y-100966666D01*
X137957200Y-100966666D02*
X138004819Y-100871428D01*
X138004819Y-100871428D02*
X138004819Y-100680952D01*
X138004819Y-100680952D02*
X137957200Y-100585714D01*
X137957200Y-100585714D02*
X137909580Y-100538095D01*
X137909580Y-100538095D02*
X137814342Y-100490476D01*
X137814342Y-100490476D02*
X137576247Y-100490476D01*
X137576247Y-100490476D02*
X137481009Y-100538095D01*
X137481009Y-100538095D02*
X137433390Y-100585714D01*
X137433390Y-100585714D02*
X137385771Y-100680952D01*
X137385771Y-100680952D02*
X137385771Y-100871428D01*
X137385771Y-100871428D02*
X137433390Y-100966666D01*
X137433390Y-100966666D02*
X137481009Y-101014285D01*
X137481009Y-101014285D02*
X137576247Y-101061904D01*
X152854819Y-105202380D02*
X151854819Y-105202380D01*
X151854819Y-105202380D02*
X152569104Y-104869047D01*
X152569104Y-104869047D02*
X151854819Y-104535714D01*
X151854819Y-104535714D02*
X152854819Y-104535714D01*
X151854819Y-104202380D02*
X151854819Y-103630952D01*
X152854819Y-103916666D02*
X151854819Y-103916666D01*
X152283390Y-103154761D02*
X152235771Y-103249999D01*
X152235771Y-103249999D02*
X152188152Y-103297618D01*
X152188152Y-103297618D02*
X152092914Y-103345237D01*
X152092914Y-103345237D02*
X152045295Y-103345237D01*
X152045295Y-103345237D02*
X151950057Y-103297618D01*
X151950057Y-103297618D02*
X151902438Y-103249999D01*
X151902438Y-103249999D02*
X151854819Y-103154761D01*
X151854819Y-103154761D02*
X151854819Y-102964285D01*
X151854819Y-102964285D02*
X151902438Y-102869047D01*
X151902438Y-102869047D02*
X151950057Y-102821428D01*
X151950057Y-102821428D02*
X152045295Y-102773809D01*
X152045295Y-102773809D02*
X152092914Y-102773809D01*
X152092914Y-102773809D02*
X152188152Y-102821428D01*
X152188152Y-102821428D02*
X152235771Y-102869047D01*
X152235771Y-102869047D02*
X152283390Y-102964285D01*
X152283390Y-102964285D02*
X152283390Y-103154761D01*
X152283390Y-103154761D02*
X152331009Y-103249999D01*
X152331009Y-103249999D02*
X152378628Y-103297618D01*
X152378628Y-103297618D02*
X152473866Y-103345237D01*
X152473866Y-103345237D02*
X152664342Y-103345237D01*
X152664342Y-103345237D02*
X152759580Y-103297618D01*
X152759580Y-103297618D02*
X152807200Y-103249999D01*
X152807200Y-103249999D02*
X152854819Y-103154761D01*
X152854819Y-103154761D02*
X152854819Y-102964285D01*
X152854819Y-102964285D02*
X152807200Y-102869047D01*
X152807200Y-102869047D02*
X152759580Y-102821428D01*
X152759580Y-102821428D02*
X152664342Y-102773809D01*
X152664342Y-102773809D02*
X152473866Y-102773809D01*
X152473866Y-102773809D02*
X152378628Y-102821428D01*
X152378628Y-102821428D02*
X152331009Y-102869047D01*
X152331009Y-102869047D02*
X152283390Y-102964285D01*
X152283390Y-102202380D02*
X152235771Y-102297618D01*
X152235771Y-102297618D02*
X152188152Y-102345237D01*
X152188152Y-102345237D02*
X152092914Y-102392856D01*
X152092914Y-102392856D02*
X152045295Y-102392856D01*
X152045295Y-102392856D02*
X151950057Y-102345237D01*
X151950057Y-102345237D02*
X151902438Y-102297618D01*
X151902438Y-102297618D02*
X151854819Y-102202380D01*
X151854819Y-102202380D02*
X151854819Y-102011904D01*
X151854819Y-102011904D02*
X151902438Y-101916666D01*
X151902438Y-101916666D02*
X151950057Y-101869047D01*
X151950057Y-101869047D02*
X152045295Y-101821428D01*
X152045295Y-101821428D02*
X152092914Y-101821428D01*
X152092914Y-101821428D02*
X152188152Y-101869047D01*
X152188152Y-101869047D02*
X152235771Y-101916666D01*
X152235771Y-101916666D02*
X152283390Y-102011904D01*
X152283390Y-102011904D02*
X152283390Y-102202380D01*
X152283390Y-102202380D02*
X152331009Y-102297618D01*
X152331009Y-102297618D02*
X152378628Y-102345237D01*
X152378628Y-102345237D02*
X152473866Y-102392856D01*
X152473866Y-102392856D02*
X152664342Y-102392856D01*
X152664342Y-102392856D02*
X152759580Y-102345237D01*
X152759580Y-102345237D02*
X152807200Y-102297618D01*
X152807200Y-102297618D02*
X152854819Y-102202380D01*
X152854819Y-102202380D02*
X152854819Y-102011904D01*
X152854819Y-102011904D02*
X152807200Y-101916666D01*
X152807200Y-101916666D02*
X152759580Y-101869047D01*
X152759580Y-101869047D02*
X152664342Y-101821428D01*
X152664342Y-101821428D02*
X152473866Y-101821428D01*
X152473866Y-101821428D02*
X152378628Y-101869047D01*
X152378628Y-101869047D02*
X152331009Y-101916666D01*
X152331009Y-101916666D02*
X152283390Y-102011904D01*
X152854819Y-100869047D02*
X152854819Y-101440475D01*
X152854819Y-101154761D02*
X151854819Y-101154761D01*
X151854819Y-101154761D02*
X151997676Y-101249999D01*
X151997676Y-101249999D02*
X152092914Y-101345237D01*
X152092914Y-101345237D02*
X152140533Y-101440475D01*
X151854819Y-100011904D02*
X151854819Y-100202380D01*
X151854819Y-100202380D02*
X151902438Y-100297618D01*
X151902438Y-100297618D02*
X151950057Y-100345237D01*
X151950057Y-100345237D02*
X152092914Y-100440475D01*
X152092914Y-100440475D02*
X152283390Y-100488094D01*
X152283390Y-100488094D02*
X152664342Y-100488094D01*
X152664342Y-100488094D02*
X152759580Y-100440475D01*
X152759580Y-100440475D02*
X152807200Y-100392856D01*
X152807200Y-100392856D02*
X152854819Y-100297618D01*
X152854819Y-100297618D02*
X152854819Y-100107142D01*
X152854819Y-100107142D02*
X152807200Y-100011904D01*
X152807200Y-100011904D02*
X152759580Y-99964285D01*
X152759580Y-99964285D02*
X152664342Y-99916666D01*
X152664342Y-99916666D02*
X152426247Y-99916666D01*
X152426247Y-99916666D02*
X152331009Y-99964285D01*
X152331009Y-99964285D02*
X152283390Y-100011904D01*
X152283390Y-100011904D02*
X152235771Y-100107142D01*
X152235771Y-100107142D02*
X152235771Y-100297618D01*
X152235771Y-100297618D02*
X152283390Y-100392856D01*
X152283390Y-100392856D02*
X152331009Y-100440475D01*
X152331009Y-100440475D02*
X152426247Y-100488094D01*
X152569104Y-99535713D02*
X152569104Y-99059523D01*
X152854819Y-99630951D02*
X151854819Y-99297618D01*
X151854819Y-99297618D02*
X152854819Y-98964285D01*
X152331009Y-98297618D02*
X152331009Y-98630951D01*
X152854819Y-98630951D02*
X151854819Y-98630951D01*
X151854819Y-98630951D02*
X151854819Y-98154761D01*
X152854819Y-97249999D02*
X152854819Y-97821427D01*
X152854819Y-97535713D02*
X151854819Y-97535713D01*
X151854819Y-97535713D02*
X151997676Y-97630951D01*
X151997676Y-97630951D02*
X152092914Y-97726189D01*
X152092914Y-97726189D02*
X152140533Y-97821427D01*
X124523595Y-112945819D02*
X124523595Y-111945819D01*
X124523595Y-111945819D02*
X124856928Y-112660104D01*
X124856928Y-112660104D02*
X125190261Y-111945819D01*
X125190261Y-111945819D02*
X125190261Y-112945819D01*
X125856928Y-111945819D02*
X126047404Y-111945819D01*
X126047404Y-111945819D02*
X126142642Y-111993438D01*
X126142642Y-111993438D02*
X126237880Y-112088676D01*
X126237880Y-112088676D02*
X126285499Y-112279152D01*
X126285499Y-112279152D02*
X126285499Y-112612485D01*
X126285499Y-112612485D02*
X126237880Y-112802961D01*
X126237880Y-112802961D02*
X126142642Y-112898200D01*
X126142642Y-112898200D02*
X126047404Y-112945819D01*
X126047404Y-112945819D02*
X125856928Y-112945819D01*
X125856928Y-112945819D02*
X125761690Y-112898200D01*
X125761690Y-112898200D02*
X125666452Y-112802961D01*
X125666452Y-112802961D02*
X125618833Y-112612485D01*
X125618833Y-112612485D02*
X125618833Y-112279152D01*
X125618833Y-112279152D02*
X125666452Y-112088676D01*
X125666452Y-112088676D02*
X125761690Y-111993438D01*
X125761690Y-111993438D02*
X125856928Y-111945819D01*
X126571214Y-111945819D02*
X127142642Y-111945819D01*
X126856928Y-112945819D02*
X126856928Y-111945819D01*
X127666452Y-111945819D02*
X127856928Y-111945819D01*
X127856928Y-111945819D02*
X127952166Y-111993438D01*
X127952166Y-111993438D02*
X128047404Y-112088676D01*
X128047404Y-112088676D02*
X128095023Y-112279152D01*
X128095023Y-112279152D02*
X128095023Y-112612485D01*
X128095023Y-112612485D02*
X128047404Y-112802961D01*
X128047404Y-112802961D02*
X127952166Y-112898200D01*
X127952166Y-112898200D02*
X127856928Y-112945819D01*
X127856928Y-112945819D02*
X127666452Y-112945819D01*
X127666452Y-112945819D02*
X127571214Y-112898200D01*
X127571214Y-112898200D02*
X127475976Y-112802961D01*
X127475976Y-112802961D02*
X127428357Y-112612485D01*
X127428357Y-112612485D02*
X127428357Y-112279152D01*
X127428357Y-112279152D02*
X127475976Y-112088676D01*
X127475976Y-112088676D02*
X127571214Y-111993438D01*
X127571214Y-111993438D02*
X127666452Y-111945819D01*
X129095023Y-112945819D02*
X128761690Y-112469628D01*
X128523595Y-112945819D02*
X128523595Y-111945819D01*
X128523595Y-111945819D02*
X128904547Y-111945819D01*
X128904547Y-111945819D02*
X128999785Y-111993438D01*
X128999785Y-111993438D02*
X129047404Y-112041057D01*
X129047404Y-112041057D02*
X129095023Y-112136295D01*
X129095023Y-112136295D02*
X129095023Y-112279152D01*
X129095023Y-112279152D02*
X129047404Y-112374390D01*
X129047404Y-112374390D02*
X128999785Y-112422009D01*
X128999785Y-112422009D02*
X128904547Y-112469628D01*
X128904547Y-112469628D02*
X128523595Y-112469628D01*
X148904819Y-90130952D02*
X149904819Y-89464286D01*
X148904819Y-89464286D02*
X149904819Y-90130952D01*
X149619104Y-89130952D02*
X149619104Y-88654762D01*
X149904819Y-89226190D02*
X148904819Y-88892857D01*
X148904819Y-88892857D02*
X149904819Y-88559524D01*
X149904819Y-88226190D02*
X148904819Y-88226190D01*
X148904819Y-87559524D02*
X148904819Y-87369048D01*
X148904819Y-87369048D02*
X148952438Y-87273810D01*
X148952438Y-87273810D02*
X149047676Y-87178572D01*
X149047676Y-87178572D02*
X149238152Y-87130953D01*
X149238152Y-87130953D02*
X149571485Y-87130953D01*
X149571485Y-87130953D02*
X149761961Y-87178572D01*
X149761961Y-87178572D02*
X149857200Y-87273810D01*
X149857200Y-87273810D02*
X149904819Y-87369048D01*
X149904819Y-87369048D02*
X149904819Y-87559524D01*
X149904819Y-87559524D02*
X149857200Y-87654762D01*
X149857200Y-87654762D02*
X149761961Y-87750000D01*
X149761961Y-87750000D02*
X149571485Y-87797619D01*
X149571485Y-87797619D02*
X149238152Y-87797619D01*
X149238152Y-87797619D02*
X149047676Y-87750000D01*
X149047676Y-87750000D02*
X148952438Y-87654762D01*
X148952438Y-87654762D02*
X148904819Y-87559524D01*
X149857200Y-85988095D02*
X149904819Y-85845238D01*
X149904819Y-85845238D02*
X149904819Y-85607143D01*
X149904819Y-85607143D02*
X149857200Y-85511905D01*
X149857200Y-85511905D02*
X149809580Y-85464286D01*
X149809580Y-85464286D02*
X149714342Y-85416667D01*
X149714342Y-85416667D02*
X149619104Y-85416667D01*
X149619104Y-85416667D02*
X149523866Y-85464286D01*
X149523866Y-85464286D02*
X149476247Y-85511905D01*
X149476247Y-85511905D02*
X149428628Y-85607143D01*
X149428628Y-85607143D02*
X149381009Y-85797619D01*
X149381009Y-85797619D02*
X149333390Y-85892857D01*
X149333390Y-85892857D02*
X149285771Y-85940476D01*
X149285771Y-85940476D02*
X149190533Y-85988095D01*
X149190533Y-85988095D02*
X149095295Y-85988095D01*
X149095295Y-85988095D02*
X149000057Y-85940476D01*
X149000057Y-85940476D02*
X148952438Y-85892857D01*
X148952438Y-85892857D02*
X148904819Y-85797619D01*
X148904819Y-85797619D02*
X148904819Y-85559524D01*
X148904819Y-85559524D02*
X148952438Y-85416667D01*
X149904819Y-84845238D02*
X149857200Y-84940476D01*
X149857200Y-84940476D02*
X149809580Y-84988095D01*
X149809580Y-84988095D02*
X149714342Y-85035714D01*
X149714342Y-85035714D02*
X149428628Y-85035714D01*
X149428628Y-85035714D02*
X149333390Y-84988095D01*
X149333390Y-84988095D02*
X149285771Y-84940476D01*
X149285771Y-84940476D02*
X149238152Y-84845238D01*
X149238152Y-84845238D02*
X149238152Y-84702381D01*
X149238152Y-84702381D02*
X149285771Y-84607143D01*
X149285771Y-84607143D02*
X149333390Y-84559524D01*
X149333390Y-84559524D02*
X149428628Y-84511905D01*
X149428628Y-84511905D02*
X149714342Y-84511905D01*
X149714342Y-84511905D02*
X149809580Y-84559524D01*
X149809580Y-84559524D02*
X149857200Y-84607143D01*
X149857200Y-84607143D02*
X149904819Y-84702381D01*
X149904819Y-84702381D02*
X149904819Y-84845238D01*
X149857200Y-83654762D02*
X149904819Y-83750000D01*
X149904819Y-83750000D02*
X149904819Y-83940476D01*
X149904819Y-83940476D02*
X149857200Y-84035714D01*
X149857200Y-84035714D02*
X149809580Y-84083333D01*
X149809580Y-84083333D02*
X149714342Y-84130952D01*
X149714342Y-84130952D02*
X149428628Y-84130952D01*
X149428628Y-84130952D02*
X149333390Y-84083333D01*
X149333390Y-84083333D02*
X149285771Y-84035714D01*
X149285771Y-84035714D02*
X149238152Y-83940476D01*
X149238152Y-83940476D02*
X149238152Y-83750000D01*
X149238152Y-83750000D02*
X149285771Y-83654762D01*
X149904819Y-83226190D02*
X148904819Y-83226190D01*
X149523866Y-83130952D02*
X149904819Y-82845238D01*
X149238152Y-82845238D02*
X149619104Y-83226190D01*
X149857200Y-82035714D02*
X149904819Y-82130952D01*
X149904819Y-82130952D02*
X149904819Y-82321428D01*
X149904819Y-82321428D02*
X149857200Y-82416666D01*
X149857200Y-82416666D02*
X149761961Y-82464285D01*
X149761961Y-82464285D02*
X149381009Y-82464285D01*
X149381009Y-82464285D02*
X149285771Y-82416666D01*
X149285771Y-82416666D02*
X149238152Y-82321428D01*
X149238152Y-82321428D02*
X149238152Y-82130952D01*
X149238152Y-82130952D02*
X149285771Y-82035714D01*
X149285771Y-82035714D02*
X149381009Y-81988095D01*
X149381009Y-81988095D02*
X149476247Y-81988095D01*
X149476247Y-81988095D02*
X149571485Y-82464285D01*
X149238152Y-81702380D02*
X149238152Y-81321428D01*
X148904819Y-81559523D02*
X149761961Y-81559523D01*
X149761961Y-81559523D02*
X149857200Y-81511904D01*
X149857200Y-81511904D02*
X149904819Y-81416666D01*
X149904819Y-81416666D02*
X149904819Y-81321428D01*
X131108261Y-112820580D02*
X131060642Y-112868200D01*
X131060642Y-112868200D02*
X130917785Y-112915819D01*
X130917785Y-112915819D02*
X130822547Y-112915819D01*
X130822547Y-112915819D02*
X130679690Y-112868200D01*
X130679690Y-112868200D02*
X130584452Y-112772961D01*
X130584452Y-112772961D02*
X130536833Y-112677723D01*
X130536833Y-112677723D02*
X130489214Y-112487247D01*
X130489214Y-112487247D02*
X130489214Y-112344390D01*
X130489214Y-112344390D02*
X130536833Y-112153914D01*
X130536833Y-112153914D02*
X130584452Y-112058676D01*
X130584452Y-112058676D02*
X130679690Y-111963438D01*
X130679690Y-111963438D02*
X130822547Y-111915819D01*
X130822547Y-111915819D02*
X130917785Y-111915819D01*
X130917785Y-111915819D02*
X131060642Y-111963438D01*
X131060642Y-111963438D02*
X131108261Y-112011057D01*
X131489214Y-112630104D02*
X131965404Y-112630104D01*
X131393976Y-112915819D02*
X131727309Y-111915819D01*
X131727309Y-111915819D02*
X132060642Y-112915819D01*
X132393976Y-112915819D02*
X132393976Y-111915819D01*
X132393976Y-111915819D02*
X132774928Y-111915819D01*
X132774928Y-111915819D02*
X132870166Y-111963438D01*
X132870166Y-111963438D02*
X132917785Y-112011057D01*
X132917785Y-112011057D02*
X132965404Y-112106295D01*
X132965404Y-112106295D02*
X132965404Y-112249152D01*
X132965404Y-112249152D02*
X132917785Y-112344390D01*
X132917785Y-112344390D02*
X132870166Y-112392009D01*
X132870166Y-112392009D02*
X132774928Y-112439628D01*
X132774928Y-112439628D02*
X132393976Y-112439628D01*
X133346357Y-112868200D02*
X133489214Y-112915819D01*
X133489214Y-112915819D02*
X133727309Y-112915819D01*
X133727309Y-112915819D02*
X133822547Y-112868200D01*
X133822547Y-112868200D02*
X133870166Y-112820580D01*
X133870166Y-112820580D02*
X133917785Y-112725342D01*
X133917785Y-112725342D02*
X133917785Y-112630104D01*
X133917785Y-112630104D02*
X133870166Y-112534866D01*
X133870166Y-112534866D02*
X133822547Y-112487247D01*
X133822547Y-112487247D02*
X133727309Y-112439628D01*
X133727309Y-112439628D02*
X133536833Y-112392009D01*
X133536833Y-112392009D02*
X133441595Y-112344390D01*
X133441595Y-112344390D02*
X133393976Y-112296771D01*
X133393976Y-112296771D02*
X133346357Y-112201533D01*
X133346357Y-112201533D02*
X133346357Y-112106295D01*
X133346357Y-112106295D02*
X133393976Y-112011057D01*
X133393976Y-112011057D02*
X133441595Y-111963438D01*
X133441595Y-111963438D02*
X133536833Y-111915819D01*
X133536833Y-111915819D02*
X133774928Y-111915819D01*
X133774928Y-111915819D02*
X133917785Y-111963438D01*
X141243976Y-112422009D02*
X141386833Y-112469628D01*
X141386833Y-112469628D02*
X141434452Y-112517247D01*
X141434452Y-112517247D02*
X141482071Y-112612485D01*
X141482071Y-112612485D02*
X141482071Y-112755342D01*
X141482071Y-112755342D02*
X141434452Y-112850580D01*
X141434452Y-112850580D02*
X141386833Y-112898200D01*
X141386833Y-112898200D02*
X141291595Y-112945819D01*
X141291595Y-112945819D02*
X140910643Y-112945819D01*
X140910643Y-112945819D02*
X140910643Y-111945819D01*
X140910643Y-111945819D02*
X141243976Y-111945819D01*
X141243976Y-111945819D02*
X141339214Y-111993438D01*
X141339214Y-111993438D02*
X141386833Y-112041057D01*
X141386833Y-112041057D02*
X141434452Y-112136295D01*
X141434452Y-112136295D02*
X141434452Y-112231533D01*
X141434452Y-112231533D02*
X141386833Y-112326771D01*
X141386833Y-112326771D02*
X141339214Y-112374390D01*
X141339214Y-112374390D02*
X141243976Y-112422009D01*
X141243976Y-112422009D02*
X140910643Y-112422009D01*
X142482071Y-112945819D02*
X142148738Y-112469628D01*
X141910643Y-112945819D02*
X141910643Y-111945819D01*
X141910643Y-111945819D02*
X142291595Y-111945819D01*
X142291595Y-111945819D02*
X142386833Y-111993438D01*
X142386833Y-111993438D02*
X142434452Y-112041057D01*
X142434452Y-112041057D02*
X142482071Y-112136295D01*
X142482071Y-112136295D02*
X142482071Y-112279152D01*
X142482071Y-112279152D02*
X142434452Y-112374390D01*
X142434452Y-112374390D02*
X142386833Y-112422009D01*
X142386833Y-112422009D02*
X142291595Y-112469628D01*
X142291595Y-112469628D02*
X141910643Y-112469628D01*
X142910643Y-112422009D02*
X143243976Y-112422009D01*
X143386833Y-112945819D02*
X142910643Y-112945819D01*
X142910643Y-112945819D02*
X142910643Y-111945819D01*
X142910643Y-111945819D02*
X143386833Y-111945819D01*
X143767786Y-112660104D02*
X144243976Y-112660104D01*
X143672548Y-112945819D02*
X144005881Y-111945819D01*
X144005881Y-111945819D02*
X144339214Y-112945819D01*
X144672548Y-112945819D02*
X144672548Y-111945819D01*
X145243976Y-112945819D02*
X144815405Y-112374390D01*
X145243976Y-111945819D02*
X144672548Y-112517247D01*
X133099819Y-109594047D02*
X133099819Y-108927381D01*
X133099819Y-108927381D02*
X134099819Y-109355952D01*
X133433152Y-108117857D02*
X134099819Y-108117857D01*
X133052200Y-108355952D02*
X133766485Y-108594047D01*
X133766485Y-108594047D02*
X133766485Y-107975000D01*
X134099819Y-107117857D02*
X134099819Y-107594047D01*
X134099819Y-107594047D02*
X133099819Y-107594047D01*
X134052200Y-106832142D02*
X134099819Y-106689285D01*
X134099819Y-106689285D02*
X134099819Y-106451190D01*
X134099819Y-106451190D02*
X134052200Y-106355952D01*
X134052200Y-106355952D02*
X134004580Y-106308333D01*
X134004580Y-106308333D02*
X133909342Y-106260714D01*
X133909342Y-106260714D02*
X133814104Y-106260714D01*
X133814104Y-106260714D02*
X133718866Y-106308333D01*
X133718866Y-106308333D02*
X133671247Y-106355952D01*
X133671247Y-106355952D02*
X133623628Y-106451190D01*
X133623628Y-106451190D02*
X133576009Y-106641666D01*
X133576009Y-106641666D02*
X133528390Y-106736904D01*
X133528390Y-106736904D02*
X133480771Y-106784523D01*
X133480771Y-106784523D02*
X133385533Y-106832142D01*
X133385533Y-106832142D02*
X133290295Y-106832142D01*
X133290295Y-106832142D02*
X133195057Y-106784523D01*
X133195057Y-106784523D02*
X133147438Y-106736904D01*
X133147438Y-106736904D02*
X133099819Y-106641666D01*
X133099819Y-106641666D02*
X133099819Y-106403571D01*
X133099819Y-106403571D02*
X133147438Y-106260714D01*
X134099819Y-105308333D02*
X134099819Y-105879761D01*
X134099819Y-105594047D02*
X133099819Y-105594047D01*
X133099819Y-105594047D02*
X133242676Y-105689285D01*
X133242676Y-105689285D02*
X133337914Y-105784523D01*
X133337914Y-105784523D02*
X133385533Y-105879761D01*
X133433152Y-104451190D02*
X134099819Y-104451190D01*
X133052200Y-104689285D02*
X133766485Y-104927380D01*
X133766485Y-104927380D02*
X133766485Y-104308333D01*
X133099819Y-103451190D02*
X133099819Y-103927380D01*
X133099819Y-103927380D02*
X133576009Y-103974999D01*
X133576009Y-103974999D02*
X133528390Y-103927380D01*
X133528390Y-103927380D02*
X133480771Y-103832142D01*
X133480771Y-103832142D02*
X133480771Y-103594047D01*
X133480771Y-103594047D02*
X133528390Y-103498809D01*
X133528390Y-103498809D02*
X133576009Y-103451190D01*
X133576009Y-103451190D02*
X133671247Y-103403571D01*
X133671247Y-103403571D02*
X133909342Y-103403571D01*
X133909342Y-103403571D02*
X134004580Y-103451190D01*
X134004580Y-103451190D02*
X134052200Y-103498809D01*
X134052200Y-103498809D02*
X134099819Y-103594047D01*
X134099819Y-103594047D02*
X134099819Y-103832142D01*
X134099819Y-103832142D02*
X134052200Y-103927380D01*
X134052200Y-103927380D02*
X134004580Y-103974999D01*
X134099819Y-102974999D02*
X133099819Y-102974999D01*
X133099819Y-102974999D02*
X133099819Y-102736904D01*
X133099819Y-102736904D02*
X133147438Y-102594047D01*
X133147438Y-102594047D02*
X133242676Y-102498809D01*
X133242676Y-102498809D02*
X133337914Y-102451190D01*
X133337914Y-102451190D02*
X133528390Y-102403571D01*
X133528390Y-102403571D02*
X133671247Y-102403571D01*
X133671247Y-102403571D02*
X133861723Y-102451190D01*
X133861723Y-102451190D02*
X133956961Y-102498809D01*
X133956961Y-102498809D02*
X134052200Y-102594047D01*
X134052200Y-102594047D02*
X134099819Y-102736904D01*
X134099819Y-102736904D02*
X134099819Y-102974999D01*
X125417200Y-86933332D02*
X125464819Y-86790475D01*
X125464819Y-86790475D02*
X125464819Y-86552380D01*
X125464819Y-86552380D02*
X125417200Y-86457142D01*
X125417200Y-86457142D02*
X125369580Y-86409523D01*
X125369580Y-86409523D02*
X125274342Y-86361904D01*
X125274342Y-86361904D02*
X125179104Y-86361904D01*
X125179104Y-86361904D02*
X125083866Y-86409523D01*
X125083866Y-86409523D02*
X125036247Y-86457142D01*
X125036247Y-86457142D02*
X124988628Y-86552380D01*
X124988628Y-86552380D02*
X124941009Y-86742856D01*
X124941009Y-86742856D02*
X124893390Y-86838094D01*
X124893390Y-86838094D02*
X124845771Y-86885713D01*
X124845771Y-86885713D02*
X124750533Y-86933332D01*
X124750533Y-86933332D02*
X124655295Y-86933332D01*
X124655295Y-86933332D02*
X124560057Y-86885713D01*
X124560057Y-86885713D02*
X124512438Y-86838094D01*
X124512438Y-86838094D02*
X124464819Y-86742856D01*
X124464819Y-86742856D02*
X124464819Y-86504761D01*
X124464819Y-86504761D02*
X124512438Y-86361904D01*
X124464819Y-86028570D02*
X125464819Y-85790475D01*
X125464819Y-85790475D02*
X124750533Y-85599999D01*
X124750533Y-85599999D02*
X125464819Y-85409523D01*
X125464819Y-85409523D02*
X124464819Y-85171428D01*
X125464819Y-84266666D02*
X125464819Y-84838094D01*
X125464819Y-84552380D02*
X124464819Y-84552380D01*
X124464819Y-84552380D02*
X124607676Y-84647618D01*
X124607676Y-84647618D02*
X124702914Y-84742856D01*
X124702914Y-84742856D02*
X124750533Y-84838094D01*
X103849819Y-123861904D02*
X104659342Y-123861904D01*
X104659342Y-123861904D02*
X104754580Y-123814285D01*
X104754580Y-123814285D02*
X104802200Y-123766666D01*
X104802200Y-123766666D02*
X104849819Y-123671428D01*
X104849819Y-123671428D02*
X104849819Y-123480952D01*
X104849819Y-123480952D02*
X104802200Y-123385714D01*
X104802200Y-123385714D02*
X104754580Y-123338095D01*
X104754580Y-123338095D02*
X104659342Y-123290476D01*
X104659342Y-123290476D02*
X103849819Y-123290476D01*
X104849819Y-122290476D02*
X104849819Y-122861904D01*
X104849819Y-122576190D02*
X103849819Y-122576190D01*
X103849819Y-122576190D02*
X103992676Y-122671428D01*
X103992676Y-122671428D02*
X104087914Y-122766666D01*
X104087914Y-122766666D02*
X104135533Y-122861904D01*
X115649819Y-126219047D02*
X115649819Y-125552381D01*
X115649819Y-125552381D02*
X116649819Y-125980952D01*
X115983152Y-124742857D02*
X116649819Y-124742857D01*
X115602200Y-124980952D02*
X116316485Y-125219047D01*
X116316485Y-125219047D02*
X116316485Y-124600000D01*
X116649819Y-123742857D02*
X116649819Y-124219047D01*
X116649819Y-124219047D02*
X115649819Y-124219047D01*
X116602200Y-123457142D02*
X116649819Y-123314285D01*
X116649819Y-123314285D02*
X116649819Y-123076190D01*
X116649819Y-123076190D02*
X116602200Y-122980952D01*
X116602200Y-122980952D02*
X116554580Y-122933333D01*
X116554580Y-122933333D02*
X116459342Y-122885714D01*
X116459342Y-122885714D02*
X116364104Y-122885714D01*
X116364104Y-122885714D02*
X116268866Y-122933333D01*
X116268866Y-122933333D02*
X116221247Y-122980952D01*
X116221247Y-122980952D02*
X116173628Y-123076190D01*
X116173628Y-123076190D02*
X116126009Y-123266666D01*
X116126009Y-123266666D02*
X116078390Y-123361904D01*
X116078390Y-123361904D02*
X116030771Y-123409523D01*
X116030771Y-123409523D02*
X115935533Y-123457142D01*
X115935533Y-123457142D02*
X115840295Y-123457142D01*
X115840295Y-123457142D02*
X115745057Y-123409523D01*
X115745057Y-123409523D02*
X115697438Y-123361904D01*
X115697438Y-123361904D02*
X115649819Y-123266666D01*
X115649819Y-123266666D02*
X115649819Y-123028571D01*
X115649819Y-123028571D02*
X115697438Y-122885714D01*
X116649819Y-121933333D02*
X116649819Y-122504761D01*
X116649819Y-122219047D02*
X115649819Y-122219047D01*
X115649819Y-122219047D02*
X115792676Y-122314285D01*
X115792676Y-122314285D02*
X115887914Y-122409523D01*
X115887914Y-122409523D02*
X115935533Y-122504761D01*
X115649819Y-121076190D02*
X115649819Y-121266666D01*
X115649819Y-121266666D02*
X115697438Y-121361904D01*
X115697438Y-121361904D02*
X115745057Y-121409523D01*
X115745057Y-121409523D02*
X115887914Y-121504761D01*
X115887914Y-121504761D02*
X116078390Y-121552380D01*
X116078390Y-121552380D02*
X116459342Y-121552380D01*
X116459342Y-121552380D02*
X116554580Y-121504761D01*
X116554580Y-121504761D02*
X116602200Y-121457142D01*
X116602200Y-121457142D02*
X116649819Y-121361904D01*
X116649819Y-121361904D02*
X116649819Y-121171428D01*
X116649819Y-121171428D02*
X116602200Y-121076190D01*
X116602200Y-121076190D02*
X116554580Y-121028571D01*
X116554580Y-121028571D02*
X116459342Y-120980952D01*
X116459342Y-120980952D02*
X116221247Y-120980952D01*
X116221247Y-120980952D02*
X116126009Y-121028571D01*
X116126009Y-121028571D02*
X116078390Y-121076190D01*
X116078390Y-121076190D02*
X116030771Y-121171428D01*
X116030771Y-121171428D02*
X116030771Y-121361904D01*
X116030771Y-121361904D02*
X116078390Y-121457142D01*
X116078390Y-121457142D02*
X116126009Y-121504761D01*
X116126009Y-121504761D02*
X116221247Y-121552380D01*
X115649819Y-120647618D02*
X115649819Y-120028571D01*
X115649819Y-120028571D02*
X116030771Y-120361904D01*
X116030771Y-120361904D02*
X116030771Y-120219047D01*
X116030771Y-120219047D02*
X116078390Y-120123809D01*
X116078390Y-120123809D02*
X116126009Y-120076190D01*
X116126009Y-120076190D02*
X116221247Y-120028571D01*
X116221247Y-120028571D02*
X116459342Y-120028571D01*
X116459342Y-120028571D02*
X116554580Y-120076190D01*
X116554580Y-120076190D02*
X116602200Y-120123809D01*
X116602200Y-120123809D02*
X116649819Y-120219047D01*
X116649819Y-120219047D02*
X116649819Y-120504761D01*
X116649819Y-120504761D02*
X116602200Y-120599999D01*
X116602200Y-120599999D02*
X116554580Y-120647618D01*
X134674819Y-123861904D02*
X135484342Y-123861904D01*
X135484342Y-123861904D02*
X135579580Y-123814285D01*
X135579580Y-123814285D02*
X135627200Y-123766666D01*
X135627200Y-123766666D02*
X135674819Y-123671428D01*
X135674819Y-123671428D02*
X135674819Y-123480952D01*
X135674819Y-123480952D02*
X135627200Y-123385714D01*
X135627200Y-123385714D02*
X135579580Y-123338095D01*
X135579580Y-123338095D02*
X135484342Y-123290476D01*
X135484342Y-123290476D02*
X134674819Y-123290476D01*
X135008152Y-122385714D02*
X135674819Y-122385714D01*
X134627200Y-122623809D02*
X135341485Y-122861904D01*
X135341485Y-122861904D02*
X135341485Y-122242857D01*
X145234819Y-125742856D02*
X145234819Y-125076190D01*
X145234819Y-125076190D02*
X146234819Y-125504761D01*
X145568152Y-124266666D02*
X146234819Y-124266666D01*
X145187200Y-124504761D02*
X145901485Y-124742856D01*
X145901485Y-124742856D02*
X145901485Y-124123809D01*
X146234819Y-123266666D02*
X146234819Y-123742856D01*
X146234819Y-123742856D02*
X145234819Y-123742856D01*
X146187200Y-122980951D02*
X146234819Y-122838094D01*
X146234819Y-122838094D02*
X146234819Y-122599999D01*
X146234819Y-122599999D02*
X146187200Y-122504761D01*
X146187200Y-122504761D02*
X146139580Y-122457142D01*
X146139580Y-122457142D02*
X146044342Y-122409523D01*
X146044342Y-122409523D02*
X145949104Y-122409523D01*
X145949104Y-122409523D02*
X145853866Y-122457142D01*
X145853866Y-122457142D02*
X145806247Y-122504761D01*
X145806247Y-122504761D02*
X145758628Y-122599999D01*
X145758628Y-122599999D02*
X145711009Y-122790475D01*
X145711009Y-122790475D02*
X145663390Y-122885713D01*
X145663390Y-122885713D02*
X145615771Y-122933332D01*
X145615771Y-122933332D02*
X145520533Y-122980951D01*
X145520533Y-122980951D02*
X145425295Y-122980951D01*
X145425295Y-122980951D02*
X145330057Y-122933332D01*
X145330057Y-122933332D02*
X145282438Y-122885713D01*
X145282438Y-122885713D02*
X145234819Y-122790475D01*
X145234819Y-122790475D02*
X145234819Y-122552380D01*
X145234819Y-122552380D02*
X145282438Y-122409523D01*
X145234819Y-122076189D02*
X145234819Y-121457142D01*
X145234819Y-121457142D02*
X145615771Y-121790475D01*
X145615771Y-121790475D02*
X145615771Y-121647618D01*
X145615771Y-121647618D02*
X145663390Y-121552380D01*
X145663390Y-121552380D02*
X145711009Y-121504761D01*
X145711009Y-121504761D02*
X145806247Y-121457142D01*
X145806247Y-121457142D02*
X146044342Y-121457142D01*
X146044342Y-121457142D02*
X146139580Y-121504761D01*
X146139580Y-121504761D02*
X146187200Y-121552380D01*
X146187200Y-121552380D02*
X146234819Y-121647618D01*
X146234819Y-121647618D02*
X146234819Y-121933332D01*
X146234819Y-121933332D02*
X146187200Y-122028570D01*
X146187200Y-122028570D02*
X146139580Y-122076189D01*
X145234819Y-120838094D02*
X145234819Y-120742856D01*
X145234819Y-120742856D02*
X145282438Y-120647618D01*
X145282438Y-120647618D02*
X145330057Y-120599999D01*
X145330057Y-120599999D02*
X145425295Y-120552380D01*
X145425295Y-120552380D02*
X145615771Y-120504761D01*
X145615771Y-120504761D02*
X145853866Y-120504761D01*
X145853866Y-120504761D02*
X146044342Y-120552380D01*
X146044342Y-120552380D02*
X146139580Y-120599999D01*
X146139580Y-120599999D02*
X146187200Y-120647618D01*
X146187200Y-120647618D02*
X146234819Y-120742856D01*
X146234819Y-120742856D02*
X146234819Y-120838094D01*
X146234819Y-120838094D02*
X146187200Y-120933332D01*
X146187200Y-120933332D02*
X146139580Y-120980951D01*
X146139580Y-120980951D02*
X146044342Y-121028570D01*
X146044342Y-121028570D02*
X145853866Y-121076189D01*
X145853866Y-121076189D02*
X145615771Y-121076189D01*
X145615771Y-121076189D02*
X145425295Y-121028570D01*
X145425295Y-121028570D02*
X145330057Y-120980951D01*
X145330057Y-120980951D02*
X145282438Y-120933332D01*
X145282438Y-120933332D02*
X145234819Y-120838094D01*
X119489819Y-123861904D02*
X120299342Y-123861904D01*
X120299342Y-123861904D02*
X120394580Y-123814285D01*
X120394580Y-123814285D02*
X120442200Y-123766666D01*
X120442200Y-123766666D02*
X120489819Y-123671428D01*
X120489819Y-123671428D02*
X120489819Y-123480952D01*
X120489819Y-123480952D02*
X120442200Y-123385714D01*
X120442200Y-123385714D02*
X120394580Y-123338095D01*
X120394580Y-123338095D02*
X120299342Y-123290476D01*
X120299342Y-123290476D02*
X119489819Y-123290476D01*
X119585057Y-122861904D02*
X119537438Y-122814285D01*
X119537438Y-122814285D02*
X119489819Y-122719047D01*
X119489819Y-122719047D02*
X119489819Y-122480952D01*
X119489819Y-122480952D02*
X119537438Y-122385714D01*
X119537438Y-122385714D02*
X119585057Y-122338095D01*
X119585057Y-122338095D02*
X119680295Y-122290476D01*
X119680295Y-122290476D02*
X119775533Y-122290476D01*
X119775533Y-122290476D02*
X119918390Y-122338095D01*
X119918390Y-122338095D02*
X120489819Y-122909523D01*
X120489819Y-122909523D02*
X120489819Y-122290476D01*
X131289819Y-126219047D02*
X131289819Y-125552381D01*
X131289819Y-125552381D02*
X132289819Y-125980952D01*
X131623152Y-124742857D02*
X132289819Y-124742857D01*
X131242200Y-124980952D02*
X131956485Y-125219047D01*
X131956485Y-125219047D02*
X131956485Y-124600000D01*
X132289819Y-123742857D02*
X132289819Y-124219047D01*
X132289819Y-124219047D02*
X131289819Y-124219047D01*
X132242200Y-123457142D02*
X132289819Y-123314285D01*
X132289819Y-123314285D02*
X132289819Y-123076190D01*
X132289819Y-123076190D02*
X132242200Y-122980952D01*
X132242200Y-122980952D02*
X132194580Y-122933333D01*
X132194580Y-122933333D02*
X132099342Y-122885714D01*
X132099342Y-122885714D02*
X132004104Y-122885714D01*
X132004104Y-122885714D02*
X131908866Y-122933333D01*
X131908866Y-122933333D02*
X131861247Y-122980952D01*
X131861247Y-122980952D02*
X131813628Y-123076190D01*
X131813628Y-123076190D02*
X131766009Y-123266666D01*
X131766009Y-123266666D02*
X131718390Y-123361904D01*
X131718390Y-123361904D02*
X131670771Y-123409523D01*
X131670771Y-123409523D02*
X131575533Y-123457142D01*
X131575533Y-123457142D02*
X131480295Y-123457142D01*
X131480295Y-123457142D02*
X131385057Y-123409523D01*
X131385057Y-123409523D02*
X131337438Y-123361904D01*
X131337438Y-123361904D02*
X131289819Y-123266666D01*
X131289819Y-123266666D02*
X131289819Y-123028571D01*
X131289819Y-123028571D02*
X131337438Y-122885714D01*
X131385057Y-122504761D02*
X131337438Y-122457142D01*
X131337438Y-122457142D02*
X131289819Y-122361904D01*
X131289819Y-122361904D02*
X131289819Y-122123809D01*
X131289819Y-122123809D02*
X131337438Y-122028571D01*
X131337438Y-122028571D02*
X131385057Y-121980952D01*
X131385057Y-121980952D02*
X131480295Y-121933333D01*
X131480295Y-121933333D02*
X131575533Y-121933333D01*
X131575533Y-121933333D02*
X131718390Y-121980952D01*
X131718390Y-121980952D02*
X132289819Y-122552380D01*
X132289819Y-122552380D02*
X132289819Y-121933333D01*
X131289819Y-121028571D02*
X131289819Y-121504761D01*
X131289819Y-121504761D02*
X131766009Y-121552380D01*
X131766009Y-121552380D02*
X131718390Y-121504761D01*
X131718390Y-121504761D02*
X131670771Y-121409523D01*
X131670771Y-121409523D02*
X131670771Y-121171428D01*
X131670771Y-121171428D02*
X131718390Y-121076190D01*
X131718390Y-121076190D02*
X131766009Y-121028571D01*
X131766009Y-121028571D02*
X131861247Y-120980952D01*
X131861247Y-120980952D02*
X132099342Y-120980952D01*
X132099342Y-120980952D02*
X132194580Y-121028571D01*
X132194580Y-121028571D02*
X132242200Y-121076190D01*
X132242200Y-121076190D02*
X132289819Y-121171428D01*
X132289819Y-121171428D02*
X132289819Y-121409523D01*
X132289819Y-121409523D02*
X132242200Y-121504761D01*
X132242200Y-121504761D02*
X132194580Y-121552380D01*
X132289819Y-120028571D02*
X132289819Y-120599999D01*
X132289819Y-120314285D02*
X131289819Y-120314285D01*
X131289819Y-120314285D02*
X131432676Y-120409523D01*
X131432676Y-120409523D02*
X131527914Y-120504761D01*
X131527914Y-120504761D02*
X131575533Y-120599999D01*
X135728357Y-112868200D02*
X135871214Y-112915819D01*
X135871214Y-112915819D02*
X136109309Y-112915819D01*
X136109309Y-112915819D02*
X136204547Y-112868200D01*
X136204547Y-112868200D02*
X136252166Y-112820580D01*
X136252166Y-112820580D02*
X136299785Y-112725342D01*
X136299785Y-112725342D02*
X136299785Y-112630104D01*
X136299785Y-112630104D02*
X136252166Y-112534866D01*
X136252166Y-112534866D02*
X136204547Y-112487247D01*
X136204547Y-112487247D02*
X136109309Y-112439628D01*
X136109309Y-112439628D02*
X135918833Y-112392009D01*
X135918833Y-112392009D02*
X135823595Y-112344390D01*
X135823595Y-112344390D02*
X135775976Y-112296771D01*
X135775976Y-112296771D02*
X135728357Y-112201533D01*
X135728357Y-112201533D02*
X135728357Y-112106295D01*
X135728357Y-112106295D02*
X135775976Y-112011057D01*
X135775976Y-112011057D02*
X135823595Y-111963438D01*
X135823595Y-111963438D02*
X135918833Y-111915819D01*
X135918833Y-111915819D02*
X136156928Y-111915819D01*
X136156928Y-111915819D02*
X136299785Y-111963438D01*
X136728357Y-112915819D02*
X136728357Y-111915819D01*
X136728357Y-112392009D02*
X137299785Y-112392009D01*
X137299785Y-112915819D02*
X137299785Y-111915819D01*
X137775976Y-112915819D02*
X137775976Y-111915819D01*
X138585499Y-112392009D02*
X138252166Y-112392009D01*
X138252166Y-112915819D02*
X138252166Y-111915819D01*
X138252166Y-111915819D02*
X138728356Y-111915819D01*
X138966452Y-111915819D02*
X139537880Y-111915819D01*
X139252166Y-112915819D02*
X139252166Y-111915819D01*
D11*
%TO.C,G1*%
G36*
X145200721Y-82473335D02*
G01*
X145224008Y-82478249D01*
X145231605Y-82480912D01*
X145261006Y-82497208D01*
X145286530Y-82520338D01*
X145307807Y-82549815D01*
X145324466Y-82585151D01*
X145333744Y-82615359D01*
X145335464Y-82625313D01*
X145337059Y-82640820D01*
X145338530Y-82662055D01*
X145339881Y-82689190D01*
X145341114Y-82722400D01*
X145342233Y-82761859D01*
X145343238Y-82807740D01*
X145344134Y-82860217D01*
X145344924Y-82919464D01*
X145345609Y-82985654D01*
X145346192Y-83058962D01*
X145346676Y-83139561D01*
X145347065Y-83227626D01*
X145347360Y-83323329D01*
X145347564Y-83426844D01*
X145347660Y-83510828D01*
X145347735Y-83572268D01*
X145347855Y-83632790D01*
X145348016Y-83691733D01*
X145348216Y-83748438D01*
X145348449Y-83802243D01*
X145348713Y-83852488D01*
X145349004Y-83898513D01*
X145349317Y-83939656D01*
X145349649Y-83975257D01*
X145349996Y-84004656D01*
X145350355Y-84027192D01*
X145350685Y-84041073D01*
X145353344Y-84126447D01*
X145510018Y-84074215D01*
X145544203Y-84062803D01*
X145576112Y-84052119D01*
X145604894Y-84042451D01*
X145629697Y-84034087D01*
X145649671Y-84027313D01*
X145663964Y-84022417D01*
X145671726Y-84019686D01*
X145672782Y-84019277D01*
X145679921Y-84016380D01*
X145681916Y-84015713D01*
X145686990Y-84013840D01*
X145692412Y-84011984D01*
X145693080Y-84011811D01*
X145699812Y-84009926D01*
X145700184Y-84009808D01*
X145706273Y-84009300D01*
X145709168Y-84006652D01*
X145709317Y-84005287D01*
X145712270Y-84002573D01*
X145715407Y-84003130D01*
X145720623Y-84003011D01*
X145721496Y-84001100D01*
X145724432Y-83998440D01*
X145727323Y-83998970D01*
X145733140Y-83999235D01*
X145734427Y-83997987D01*
X145738401Y-83996165D01*
X145749419Y-83992016D01*
X145766820Y-83985769D01*
X145789941Y-83977653D01*
X145818122Y-83967897D01*
X145850699Y-83956730D01*
X145887012Y-83944381D01*
X145926399Y-83931079D01*
X145968197Y-83917052D01*
X145973182Y-83915385D01*
X146044561Y-83891519D01*
X146114204Y-83868221D01*
X146181705Y-83845629D01*
X146246657Y-83823877D01*
X146308656Y-83803104D01*
X146367295Y-83783444D01*
X146422168Y-83765035D01*
X146472868Y-83748013D01*
X146518990Y-83732513D01*
X146560128Y-83718674D01*
X146595876Y-83706630D01*
X146625827Y-83696519D01*
X146649576Y-83688476D01*
X146666716Y-83682638D01*
X146676842Y-83679142D01*
X146679527Y-83678165D01*
X146686031Y-83675488D01*
X146687646Y-83674876D01*
X146692795Y-83672964D01*
X146695765Y-83671827D01*
X146703158Y-83669172D01*
X146714714Y-83665209D01*
X146720121Y-83663395D01*
X146733236Y-83658928D01*
X146750376Y-83652961D01*
X146767930Y-83646751D01*
X146768673Y-83646486D01*
X146813692Y-83632533D01*
X146859472Y-83622297D01*
X146903393Y-83616287D01*
X146931708Y-83614866D01*
X146951779Y-83614914D01*
X146966106Y-83615666D01*
X146977061Y-83617511D01*
X146987012Y-83620843D01*
X146997778Y-83625781D01*
X147012301Y-83633568D01*
X147025625Y-83641844D01*
X147032453Y-83646875D01*
X147045868Y-83661952D01*
X147058928Y-83683813D01*
X147070937Y-83711131D01*
X147079401Y-83736299D01*
X147081981Y-83745213D01*
X147084126Y-83753472D01*
X147085895Y-83761944D01*
X147087347Y-83771495D01*
X147088540Y-83782992D01*
X147089533Y-83797302D01*
X147090384Y-83815291D01*
X147091153Y-83837827D01*
X147091898Y-83865775D01*
X147092678Y-83900004D01*
X147093551Y-83941379D01*
X147093665Y-83946859D01*
X147093969Y-83965007D01*
X147094294Y-83990911D01*
X147094638Y-84024206D01*
X147094998Y-84064531D01*
X147095373Y-84111521D01*
X147095760Y-84164813D01*
X147096159Y-84224044D01*
X147096566Y-84288851D01*
X147096980Y-84358870D01*
X147097399Y-84433738D01*
X147097820Y-84513092D01*
X147098243Y-84596568D01*
X147098665Y-84683803D01*
X147099083Y-84774434D01*
X147099497Y-84868097D01*
X147099904Y-84964429D01*
X147100302Y-85063067D01*
X147100689Y-85163647D01*
X147101063Y-85265807D01*
X147101423Y-85369182D01*
X147101547Y-85406233D01*
X147101902Y-85512847D01*
X147102262Y-85619790D01*
X147102624Y-85726618D01*
X147102986Y-85832884D01*
X147103348Y-85938143D01*
X147103708Y-86041947D01*
X147104064Y-86143851D01*
X147104414Y-86243410D01*
X147104758Y-86340176D01*
X147105092Y-86433705D01*
X147105417Y-86523549D01*
X147105729Y-86609264D01*
X147106028Y-86690402D01*
X147106312Y-86766519D01*
X147106579Y-86837167D01*
X147106828Y-86901901D01*
X147107057Y-86960275D01*
X147107264Y-87011843D01*
X147107448Y-87056158D01*
X147107599Y-87090906D01*
X147107827Y-87150377D01*
X147107970Y-87207391D01*
X147108030Y-87261393D01*
X147108011Y-87311830D01*
X147107914Y-87358145D01*
X147107742Y-87399786D01*
X147107497Y-87436196D01*
X147107181Y-87466822D01*
X147106798Y-87491109D01*
X147106350Y-87508502D01*
X147105838Y-87518447D01*
X147105724Y-87519531D01*
X147096833Y-87565838D01*
X147082080Y-87614567D01*
X147062372Y-87663657D01*
X147038618Y-87711048D01*
X147011722Y-87754677D01*
X146988897Y-87785073D01*
X146951216Y-87827360D01*
X146911787Y-87864730D01*
X146867950Y-87899618D01*
X146849697Y-87912653D01*
X146830412Y-87925746D01*
X146812326Y-87937194D01*
X146794262Y-87947543D01*
X146775047Y-87957339D01*
X146753503Y-87967129D01*
X146728456Y-87977459D01*
X146698730Y-87988875D01*
X146663149Y-88001923D01*
X146638932Y-88010610D01*
X146604603Y-88022852D01*
X146565929Y-88036639D01*
X146525727Y-88050966D01*
X146486814Y-88064830D01*
X146452008Y-88077227D01*
X146444079Y-88080050D01*
X146417626Y-88089470D01*
X146393579Y-88098035D01*
X146373036Y-88105355D01*
X146357098Y-88111037D01*
X146346864Y-88114689D01*
X146343564Y-88115871D01*
X146338238Y-88117229D01*
X146337475Y-88117151D01*
X146333662Y-88118461D01*
X146326354Y-88122192D01*
X146318338Y-88126431D01*
X146314176Y-88128303D01*
X146309098Y-88130157D01*
X146306057Y-88131427D01*
X146304643Y-88132000D01*
X146302092Y-88132970D01*
X146298041Y-88134465D01*
X146292126Y-88136617D01*
X146283984Y-88139552D01*
X146273253Y-88143402D01*
X146259569Y-88148295D01*
X146242569Y-88154360D01*
X146221890Y-88161726D01*
X146197169Y-88170524D01*
X146168043Y-88180881D01*
X146134148Y-88192927D01*
X146095122Y-88206792D01*
X146050602Y-88222604D01*
X146000223Y-88240494D01*
X145943624Y-88260589D01*
X145880441Y-88283019D01*
X145810311Y-88307915D01*
X145737734Y-88333677D01*
X145691282Y-88350112D01*
X145646043Y-88366017D01*
X145602759Y-88381135D01*
X145562174Y-88395213D01*
X145525029Y-88407995D01*
X145492068Y-88419227D01*
X145464033Y-88428654D01*
X145441667Y-88436020D01*
X145425712Y-88441072D01*
X145419067Y-88443012D01*
X145391083Y-88450302D01*
X145374451Y-88454294D01*
X145365615Y-88456415D01*
X145343769Y-88461125D01*
X145326656Y-88464205D01*
X145315384Y-88465428D01*
X145311391Y-88464969D01*
X145306526Y-88465706D01*
X145305443Y-88466995D01*
X145300427Y-88468743D01*
X145288648Y-88470084D01*
X145271453Y-88470908D01*
X145254984Y-88471120D01*
X145213017Y-88469204D01*
X145171831Y-88463732D01*
X145133678Y-88455114D01*
X145100813Y-88443764D01*
X145097558Y-88442340D01*
X145083667Y-88436451D01*
X145072222Y-88432218D01*
X145065631Y-88430528D01*
X145065516Y-88430526D01*
X145060361Y-88428208D01*
X145059805Y-88426466D01*
X145056538Y-88422817D01*
X145054006Y-88422407D01*
X145046196Y-88419795D01*
X145042842Y-88417312D01*
X145036897Y-88412544D01*
X145026443Y-88404922D01*
X145013734Y-88396086D01*
X145013608Y-88396000D01*
X144989852Y-88376831D01*
X144965636Y-88351880D01*
X144942671Y-88323190D01*
X144922665Y-88292803D01*
X144913937Y-88276888D01*
X144908527Y-88266998D01*
X144904629Y-88261278D01*
X144903568Y-88260653D01*
X144902478Y-88264933D01*
X144900369Y-88275860D01*
X144897490Y-88292062D01*
X144894085Y-88312164D01*
X144891652Y-88327013D01*
X144887499Y-88351070D01*
X144883045Y-88374160D01*
X144878713Y-88394259D01*
X144874926Y-88409341D01*
X144873397Y-88414288D01*
X144867460Y-88431951D01*
X144861306Y-88451086D01*
X144858877Y-88458942D01*
X144847268Y-88489338D01*
X144830424Y-88522672D01*
X144809596Y-88557000D01*
X144786033Y-88590374D01*
X144760986Y-88620847D01*
X144742538Y-88640089D01*
X144722403Y-88657824D01*
X144697975Y-88676732D01*
X144671556Y-88695228D01*
X144645448Y-88711730D01*
X144621952Y-88724654D01*
X144614530Y-88728147D01*
X144604659Y-88732100D01*
X144588191Y-88738204D01*
X144566239Y-88746068D01*
X144539915Y-88755300D01*
X144510332Y-88765509D01*
X144478603Y-88776304D01*
X144456211Y-88783832D01*
X144424838Y-88794330D01*
X144395865Y-88804033D01*
X144370202Y-88812635D01*
X144348762Y-88819829D01*
X144332459Y-88825310D01*
X144322203Y-88828770D01*
X144318955Y-88829883D01*
X144311806Y-88831512D01*
X144311290Y-88831548D01*
X144305987Y-88834672D01*
X144305185Y-88835761D01*
X144301039Y-88837647D01*
X144289766Y-88841906D01*
X144271941Y-88848337D01*
X144248138Y-88856744D01*
X144218932Y-88866925D01*
X144184898Y-88878684D01*
X144146610Y-88891821D01*
X144104642Y-88906136D01*
X144059569Y-88921432D01*
X144011965Y-88937509D01*
X143986064Y-88946225D01*
X143935256Y-88963323D01*
X143885136Y-88980229D01*
X143836459Y-88996686D01*
X143789984Y-89012436D01*
X143746466Y-89027222D01*
X143706664Y-89040786D01*
X143693453Y-89045304D01*
X143671333Y-89052869D01*
X143641230Y-89063216D01*
X143617113Y-89071567D01*
X143599738Y-89077666D01*
X143596372Y-89078867D01*
X143571352Y-89087788D01*
X143540789Y-89098592D01*
X143506817Y-89110532D01*
X143471573Y-89122857D01*
X143437191Y-89134818D01*
X143417914Y-89141491D01*
X143390021Y-89151215D01*
X143364517Y-89160277D01*
X143342452Y-89168290D01*
X143324874Y-89174867D01*
X143312833Y-89179624D01*
X143307376Y-89182172D01*
X143307294Y-89182235D01*
X143302874Y-89184493D01*
X143302062Y-89183554D01*
X143299564Y-89183189D01*
X143295972Y-89185584D01*
X143291063Y-89188418D01*
X143289883Y-89187614D01*
X143287380Y-89186919D01*
X143284809Y-89188460D01*
X143278769Y-89191401D01*
X143266403Y-89196241D01*
X143249147Y-89202493D01*
X143228436Y-89209672D01*
X143205705Y-89217294D01*
X143182389Y-89224870D01*
X143159923Y-89231917D01*
X143139743Y-89237948D01*
X143132518Y-89239999D01*
X143109232Y-89245518D01*
X143080646Y-89250837D01*
X143049446Y-89255585D01*
X143018320Y-89259388D01*
X142989954Y-89261874D01*
X142969018Y-89262677D01*
X142950059Y-89261874D01*
X142925570Y-89259631D01*
X142897943Y-89256275D01*
X142869573Y-89252130D01*
X142842853Y-89247522D01*
X142820178Y-89242778D01*
X142816957Y-89241996D01*
X142764032Y-89225622D01*
X142710069Y-89202939D01*
X142657381Y-89175033D01*
X142612943Y-89146334D01*
X142565452Y-89107780D01*
X142522183Y-89062871D01*
X142483703Y-89012502D01*
X142450584Y-88957569D01*
X142423393Y-88898968D01*
X142402701Y-88837593D01*
X142394101Y-88802043D01*
X142383963Y-88753252D01*
X142373183Y-86272568D01*
X143683650Y-86272568D01*
X143683653Y-86528493D01*
X143683692Y-86603348D01*
X143683804Y-86678271D01*
X143683986Y-86752828D01*
X143684233Y-86826581D01*
X143684542Y-86899095D01*
X143684907Y-86969933D01*
X143685324Y-87038659D01*
X143685790Y-87104836D01*
X143686300Y-87168030D01*
X143686850Y-87227803D01*
X143687436Y-87283719D01*
X143688053Y-87335342D01*
X143688697Y-87382236D01*
X143689365Y-87423966D01*
X143690051Y-87460093D01*
X143690752Y-87490183D01*
X143691463Y-87513800D01*
X143692180Y-87530506D01*
X143692899Y-87539866D01*
X143693453Y-87541792D01*
X143699441Y-87538108D01*
X143700860Y-87537680D01*
X143701476Y-87537618D01*
X143702009Y-87537561D01*
X143703080Y-87537309D01*
X143705307Y-87536661D01*
X143709312Y-87535418D01*
X143715713Y-87533379D01*
X143725131Y-87530345D01*
X143738185Y-87526115D01*
X143755496Y-87520490D01*
X143777683Y-87513268D01*
X143805366Y-87504250D01*
X143839164Y-87493236D01*
X143879698Y-87480026D01*
X143906920Y-87471155D01*
X143946464Y-87458272D01*
X143985021Y-87445717D01*
X144021630Y-87433802D01*
X144055332Y-87422841D01*
X144085165Y-87413144D01*
X144110170Y-87405025D01*
X144129386Y-87398795D01*
X144141854Y-87394766D01*
X144141946Y-87394737D01*
X144184148Y-87381157D01*
X144181181Y-86749912D01*
X144180841Y-86678979D01*
X144180497Y-86610273D01*
X144180153Y-86544231D01*
X144179812Y-86481291D01*
X144179475Y-86421888D01*
X144179147Y-86366459D01*
X144178830Y-86315442D01*
X144178526Y-86269274D01*
X144178239Y-86228391D01*
X144177972Y-86193230D01*
X144177727Y-86164228D01*
X144177506Y-86141822D01*
X144177314Y-86126449D01*
X144177153Y-86118545D01*
X144177086Y-86117532D01*
X144173094Y-86118446D01*
X144162275Y-86121560D01*
X144145534Y-86126598D01*
X144123776Y-86133281D01*
X144097906Y-86141333D01*
X144068828Y-86150476D01*
X144046513Y-86157548D01*
X144008087Y-86169757D01*
X143965469Y-86183289D01*
X143921039Y-86197387D01*
X143877179Y-86211296D01*
X143836269Y-86224262D01*
X143800690Y-86235528D01*
X143800360Y-86235633D01*
X143683650Y-86272568D01*
X142373183Y-86272568D01*
X142372135Y-86031389D01*
X142371488Y-85881978D01*
X142370854Y-85734188D01*
X142370347Y-85615063D01*
X145368398Y-85615063D01*
X145370954Y-86250483D01*
X145371246Y-86321654D01*
X145371541Y-86390600D01*
X145371835Y-86456885D01*
X145372127Y-86520073D01*
X145372415Y-86579730D01*
X145372695Y-86635419D01*
X145372965Y-86686705D01*
X145373224Y-86733153D01*
X145373468Y-86774328D01*
X145373695Y-86809793D01*
X145373904Y-86839114D01*
X145374090Y-86861854D01*
X145374253Y-86877580D01*
X145374390Y-86885854D01*
X145374451Y-86887070D01*
X145378559Y-86886364D01*
X145389393Y-86883420D01*
X145405968Y-86878551D01*
X145427304Y-86872072D01*
X145452417Y-86864296D01*
X145480326Y-86855539D01*
X145510048Y-86846114D01*
X145540601Y-86836336D01*
X145571003Y-86826520D01*
X145600271Y-86816979D01*
X145627424Y-86808028D01*
X145651478Y-86799981D01*
X145671451Y-86793152D01*
X145686362Y-86787857D01*
X145695109Y-86784460D01*
X145702607Y-86781670D01*
X145716491Y-86776947D01*
X145735388Y-86770743D01*
X145757924Y-86763506D01*
X145782723Y-86755687D01*
X145788477Y-86753892D01*
X145869666Y-86728626D01*
X145868437Y-86232852D01*
X145868253Y-86166934D01*
X145868028Y-86101213D01*
X145867767Y-86036380D01*
X145867475Y-85973128D01*
X145867156Y-85912151D01*
X145866815Y-85854142D01*
X145866455Y-85799792D01*
X145866082Y-85749796D01*
X145865700Y-85704846D01*
X145865313Y-85665634D01*
X145864925Y-85632855D01*
X145864542Y-85607200D01*
X145864378Y-85598440D01*
X145861547Y-85459802D01*
X145614972Y-85537433D01*
X145368398Y-85615063D01*
X142370347Y-85615063D01*
X142370233Y-85588245D01*
X142369626Y-85444372D01*
X142369034Y-85302795D01*
X142368458Y-85163738D01*
X142367898Y-85027427D01*
X142367356Y-84894084D01*
X142366832Y-84763937D01*
X142366327Y-84637209D01*
X142365842Y-84514124D01*
X142365378Y-84394909D01*
X142364935Y-84279786D01*
X142364515Y-84168983D01*
X142364118Y-84062721D01*
X142363745Y-83961228D01*
X142363397Y-83864727D01*
X142363075Y-83773443D01*
X142362779Y-83687601D01*
X142362511Y-83607426D01*
X142362271Y-83533142D01*
X142362060Y-83464975D01*
X142361878Y-83403148D01*
X142361728Y-83347886D01*
X142361609Y-83299415D01*
X142361523Y-83257959D01*
X142361470Y-83223743D01*
X142361451Y-83196991D01*
X142361467Y-83177929D01*
X142361512Y-83167444D01*
X142361842Y-83129747D01*
X142362169Y-83099212D01*
X142362561Y-83074882D01*
X142363084Y-83055800D01*
X142363804Y-83041010D01*
X142364788Y-83029554D01*
X142366103Y-83020477D01*
X142367815Y-83012821D01*
X142369990Y-83005629D01*
X142372696Y-82997946D01*
X142373449Y-82995876D01*
X142384994Y-82967111D01*
X142397467Y-82943050D01*
X142412616Y-82920886D01*
X142432192Y-82897807D01*
X142439274Y-82890196D01*
X142476839Y-82853109D01*
X142513355Y-82822747D01*
X142550242Y-82798100D01*
X142588918Y-82778158D01*
X142607895Y-82770211D01*
X142623330Y-82764144D01*
X142637486Y-82758537D01*
X142646460Y-82754942D01*
X142655458Y-82751328D01*
X142660572Y-82749344D01*
X142660668Y-82749310D01*
X142665741Y-82747250D01*
X142668787Y-82745927D01*
X142673542Y-82744217D01*
X142685372Y-82740123D01*
X142703658Y-82733854D01*
X142727780Y-82725621D01*
X142757120Y-82715635D01*
X142791060Y-82704106D01*
X142828980Y-82691244D01*
X142870263Y-82677260D01*
X142914288Y-82662364D01*
X142957008Y-82647926D01*
X143005578Y-82631512D01*
X143053900Y-82615171D01*
X143101111Y-82599196D01*
X143146346Y-82583879D01*
X143188742Y-82569513D01*
X143227434Y-82556392D01*
X143261559Y-82544807D01*
X143290251Y-82535052D01*
X143312649Y-82527419D01*
X143322952Y-82523896D01*
X143364437Y-82510202D01*
X143399691Y-82499885D01*
X143429827Y-82492864D01*
X143455958Y-82489052D01*
X143479195Y-82488368D01*
X143500652Y-82490727D01*
X143521442Y-82496045D01*
X143542677Y-82504239D01*
X143548595Y-82506917D01*
X143567691Y-82518795D01*
X143587878Y-82536515D01*
X143607497Y-82558280D01*
X143624888Y-82582292D01*
X143635839Y-82601422D01*
X143640964Y-82611604D01*
X143645438Y-82620718D01*
X143649313Y-82629368D01*
X143652638Y-82638155D01*
X143655463Y-82647684D01*
X143657838Y-82658556D01*
X143659815Y-82671373D01*
X143661442Y-82686740D01*
X143662769Y-82705257D01*
X143663848Y-82727528D01*
X143664728Y-82754156D01*
X143665459Y-82785743D01*
X143666091Y-82822891D01*
X143666675Y-82866203D01*
X143667260Y-82916283D01*
X143667898Y-82973732D01*
X143668065Y-82988828D01*
X143668462Y-83027424D01*
X143668877Y-83073459D01*
X143669306Y-83126254D01*
X143669744Y-83185130D01*
X143670189Y-83249406D01*
X143670636Y-83318403D01*
X143671081Y-83391441D01*
X143671521Y-83467842D01*
X143671950Y-83546926D01*
X143672367Y-83628012D01*
X143672765Y-83710422D01*
X143673142Y-83793476D01*
X143673494Y-83876495D01*
X143673816Y-83958798D01*
X143674020Y-84014937D01*
X143674369Y-84110608D01*
X143674720Y-84198391D01*
X143675075Y-84278519D01*
X143675437Y-84351224D01*
X143675807Y-84416736D01*
X143676189Y-84475288D01*
X143676583Y-84527111D01*
X143676994Y-84572438D01*
X143677422Y-84611499D01*
X143677870Y-84644526D01*
X143678341Y-84671752D01*
X143678837Y-84693408D01*
X143679360Y-84709725D01*
X143679912Y-84720936D01*
X143680496Y-84727271D01*
X143681106Y-84728971D01*
X143685673Y-84727108D01*
X143697289Y-84722944D01*
X143715286Y-84716704D01*
X143738998Y-84708614D01*
X143767758Y-84698899D01*
X143800898Y-84687783D01*
X143837752Y-84675492D01*
X143877652Y-84662251D01*
X143919932Y-84648285D01*
X143928797Y-84645365D01*
X144171915Y-84565315D01*
X144170335Y-83791280D01*
X144170146Y-83698102D01*
X144169980Y-83612692D01*
X144169837Y-83534699D01*
X144169722Y-83463772D01*
X144169637Y-83399558D01*
X144169584Y-83341708D01*
X144169566Y-83289871D01*
X144169587Y-83243694D01*
X144169648Y-83202827D01*
X144169752Y-83166920D01*
X144169903Y-83135620D01*
X144170102Y-83108576D01*
X144170352Y-83085439D01*
X144170657Y-83065855D01*
X144171019Y-83049475D01*
X144171441Y-83035947D01*
X144171924Y-83024921D01*
X144172473Y-83016044D01*
X144173090Y-83008966D01*
X144173777Y-83003336D01*
X144174537Y-82998802D01*
X144175373Y-82995014D01*
X144176288Y-82991620D01*
X144176510Y-82990858D01*
X144190026Y-82954006D01*
X144208619Y-82919299D01*
X144233259Y-82885140D01*
X144257607Y-82857526D01*
X144277146Y-82839502D01*
X144301843Y-82821454D01*
X144332245Y-82803080D01*
X144368896Y-82784081D01*
X144412341Y-82764154D01*
X144463127Y-82743000D01*
X144471184Y-82739793D01*
X144495403Y-82730127D01*
X144518660Y-82720706D01*
X144539245Y-82712236D01*
X144555446Y-82705417D01*
X144564552Y-82701419D01*
X144577920Y-82695528D01*
X144596086Y-82687848D01*
X144616282Y-82679536D01*
X144629503Y-82674219D01*
X144647094Y-82667035D01*
X144662121Y-82660554D01*
X144672826Y-82655557D01*
X144677201Y-82653065D01*
X144681541Y-82650744D01*
X144682276Y-82651490D01*
X144685157Y-82651571D01*
X144691410Y-82648325D01*
X144697483Y-82645352D01*
X144710252Y-82639755D01*
X144728855Y-82631878D01*
X144752431Y-82622069D01*
X144780119Y-82610672D01*
X144811059Y-82598034D01*
X144844389Y-82584501D01*
X144879248Y-82570418D01*
X144914776Y-82556131D01*
X144950112Y-82541987D01*
X144984394Y-82528330D01*
X145016762Y-82515507D01*
X145046354Y-82503864D01*
X145072311Y-82493747D01*
X145093771Y-82485501D01*
X145109872Y-82479472D01*
X145119755Y-82476006D01*
X145121903Y-82475384D01*
X145146646Y-82471750D01*
X145173926Y-82471118D01*
X145200721Y-82473335D01*
G37*
D12*
%TO.C,R14*%
X153064564Y-111840000D02*
X152610436Y-111840000D01*
X153064564Y-113310000D02*
X152610436Y-113310000D01*
D10*
%TO.C,U6*%
X139725000Y-96175000D02*
X139725000Y-96850000D01*
X139725000Y-96175000D02*
X140400000Y-96175000D01*
X139725000Y-106525000D02*
X139725000Y-105850000D01*
X139725000Y-106525000D02*
X140400000Y-106525000D01*
X150075000Y-96175000D02*
X149460000Y-96175000D01*
X150075000Y-96175000D02*
X150075000Y-96850000D01*
X150075000Y-106525000D02*
X149400000Y-106525000D01*
X150075000Y-106525000D02*
X150075000Y-105850000D01*
D12*
X149910000Y-95830000D02*
X149440000Y-95490000D01*
X149910000Y-95150000D01*
X149910000Y-95830000D01*
G36*
X149910000Y-95830000D02*
G01*
X149440000Y-95490000D01*
X149910000Y-95150000D01*
X149910000Y-95830000D01*
G37*
%TO.C,R8*%
X153064564Y-123240000D02*
X152610436Y-123240000D01*
X153064564Y-124710000D02*
X152610436Y-124710000D01*
%TO.C,R3*%
X127032564Y-115815000D02*
X126578436Y-115815000D01*
X127032564Y-117285000D02*
X126578436Y-117285000D01*
%TO.C,D14*%
X125185500Y-115446000D02*
X129070500Y-115446000D01*
X129070500Y-113176000D02*
X125185500Y-113176000D01*
X129070500Y-115446000D02*
X129070500Y-113176000D01*
D13*
%TO.C,D6*%
X132750000Y-85330000D02*
X133350000Y-85730000D01*
X132750000Y-85730000D02*
X132250000Y-85730000D01*
X132750000Y-86130000D02*
X132750000Y-85330000D01*
X133350000Y-85730000D02*
X132750000Y-86130000D01*
X133350000Y-85730000D02*
X133350000Y-85180000D01*
X133350000Y-85730000D02*
X133350000Y-86280000D01*
X133750000Y-85730000D02*
X133350000Y-85730000D01*
D12*
X135250000Y-84730000D02*
X131350000Y-84730000D01*
X135250000Y-86730000D02*
X131350000Y-86730000D01*
X135250000Y-86730000D02*
X135250000Y-84730000D01*
%TO.C,R6*%
X77822936Y-124565000D02*
X78277064Y-124565000D01*
X77822936Y-126035000D02*
X78277064Y-126035000D01*
%TO.C,R7*%
X153064564Y-125140000D02*
X152610436Y-125140000D01*
X153064564Y-126610000D02*
X152610436Y-126610000D01*
D13*
%TO.C,D10*%
X132750000Y-75930000D02*
X133350000Y-76330000D01*
X132750000Y-76330000D02*
X132250000Y-76330000D01*
X132750000Y-76730000D02*
X132750000Y-75930000D01*
X133350000Y-76330000D02*
X132750000Y-76730000D01*
X133350000Y-76330000D02*
X133350000Y-75780000D01*
X133350000Y-76330000D02*
X133350000Y-76880000D01*
X133750000Y-76330000D02*
X133350000Y-76330000D01*
D12*
X135250000Y-75330000D02*
X131350000Y-75330000D01*
X135250000Y-77330000D02*
X131350000Y-77330000D01*
X135250000Y-77330000D02*
X135250000Y-75330000D01*
D13*
%TO.C,D3*%
X132750000Y-92380000D02*
X133350000Y-92780000D01*
X132750000Y-92780000D02*
X132250000Y-92780000D01*
X132750000Y-93180000D02*
X132750000Y-92380000D01*
X133350000Y-92780000D02*
X132750000Y-93180000D01*
X133350000Y-92780000D02*
X133350000Y-92230000D01*
X133350000Y-92780000D02*
X133350000Y-93330000D01*
X133750000Y-92780000D02*
X133350000Y-92780000D01*
D12*
X135250000Y-91780000D02*
X131350000Y-91780000D01*
X135250000Y-93780000D02*
X131350000Y-93780000D01*
X135250000Y-93780000D02*
X135250000Y-91780000D01*
%TO.C,R11*%
X153064564Y-117540000D02*
X152610436Y-117540000D01*
X153064564Y-119010000D02*
X152610436Y-119010000D01*
%TO.C,R13*%
X153064564Y-113740000D02*
X152610436Y-113740000D01*
X153064564Y-115210000D02*
X152610436Y-115210000D01*
%TO.C,C4*%
X132775000Y-122838748D02*
X132775000Y-123361252D01*
X134245000Y-122838748D02*
X134245000Y-123361252D01*
%TO.C,J1*%
X74128000Y-117177000D02*
X74128000Y-115847000D01*
X75458000Y-117177000D02*
X74128000Y-117177000D01*
X76728000Y-114517000D02*
X117428000Y-114517000D01*
X76728000Y-117177000D02*
X76728000Y-114517000D01*
X76728000Y-117177000D02*
X117428000Y-117177000D01*
X117428000Y-117177000D02*
X117428000Y-114517000D01*
D13*
%TO.C,D7*%
X132750000Y-82980000D02*
X133350000Y-83380000D01*
X132750000Y-83380000D02*
X132250000Y-83380000D01*
X132750000Y-83780000D02*
X132750000Y-82980000D01*
X133350000Y-83380000D02*
X132750000Y-83780000D01*
X133350000Y-83380000D02*
X133350000Y-82830000D01*
X133350000Y-83380000D02*
X133350000Y-83930000D01*
X133750000Y-83380000D02*
X133350000Y-83380000D01*
D12*
X135250000Y-82380000D02*
X131350000Y-82380000D01*
X135250000Y-84380000D02*
X131350000Y-84380000D01*
X135250000Y-84380000D02*
X135250000Y-82380000D01*
%TO.C,Q1*%
X75640000Y-122520000D02*
X75640000Y-119940000D01*
X76620000Y-119940000D02*
X75640000Y-119940000D01*
X79380000Y-119940000D02*
X80360000Y-119940000D01*
X80360000Y-119940000D02*
X80360000Y-122660000D01*
X75790000Y-123070000D02*
X75460000Y-123310000D01*
X75460000Y-122830000D01*
X75790000Y-123070000D01*
G36*
X75790000Y-123070000D02*
G01*
X75460000Y-123310000D01*
X75460000Y-122830000D01*
X75790000Y-123070000D01*
G37*
%TO.C,C1*%
X101875000Y-122838748D02*
X101875000Y-123361252D01*
X103345000Y-122838748D02*
X103345000Y-123361252D01*
%TO.C,U7*%
X138985000Y-75236000D02*
X138985000Y-93076000D01*
X138985000Y-93076000D02*
X151905000Y-93076000D01*
X140365000Y-79106000D02*
X150525000Y-79106000D01*
X140365000Y-92060000D02*
X140365000Y-79106000D01*
X142905000Y-75236000D02*
X138985000Y-75236000D01*
X142905000Y-78344000D02*
X142905000Y-75236000D01*
X147985000Y-75236000D02*
X147985000Y-78344000D01*
X147985000Y-78344000D02*
X142905000Y-78344000D01*
X150525000Y-79106000D02*
X150525000Y-92060000D01*
X150525000Y-92060000D02*
X140365000Y-92060000D01*
X151905000Y-75236000D02*
X147985000Y-75236000D01*
X151905000Y-93076000D02*
X151905000Y-75236000D01*
%TO.C,R4*%
X152415000Y-108377064D02*
X152415000Y-107922936D01*
X153885000Y-108377064D02*
X153885000Y-107922936D01*
%TO.C,C3*%
X134615000Y-105588748D02*
X134615000Y-106111252D01*
X136085000Y-105588748D02*
X136085000Y-106111252D01*
%TO.C,C5*%
X146725000Y-122838748D02*
X146725000Y-123361252D01*
X148195000Y-122838748D02*
X148195000Y-123361252D01*
%TO.C,D13*%
X130603500Y-115446000D02*
X134488500Y-115446000D01*
X134488500Y-113176000D02*
X130603500Y-113176000D01*
X134488500Y-115446000D02*
X134488500Y-113176000D01*
%TO.C,D11*%
X141453500Y-115446000D02*
X145338500Y-115446000D01*
X145338500Y-113176000D02*
X141453500Y-113176000D01*
X145338500Y-115446000D02*
X145338500Y-113176000D01*
%TO.C,R2*%
X132450564Y-115815000D02*
X131996436Y-115815000D01*
X132450564Y-117285000D02*
X131996436Y-117285000D01*
D13*
%TO.C,D1*%
X132750000Y-97030000D02*
X133350000Y-97430000D01*
X132750000Y-97430000D02*
X132250000Y-97430000D01*
X132750000Y-97830000D02*
X132750000Y-97030000D01*
X133350000Y-97430000D02*
X132750000Y-97830000D01*
X133350000Y-97430000D02*
X133350000Y-96880000D01*
X133350000Y-97430000D02*
X133350000Y-97980000D01*
X133750000Y-97430000D02*
X133350000Y-97430000D01*
D12*
X135250000Y-96430000D02*
X131350000Y-96430000D01*
X135250000Y-98430000D02*
X131350000Y-98430000D01*
X135250000Y-98430000D02*
X135250000Y-96430000D01*
%TO.C,U3*%
X122685000Y-105975000D02*
X122685000Y-104025000D01*
X122685000Y-105975000D02*
X122685000Y-107925000D01*
X132805000Y-105975000D02*
X132805000Y-104025000D01*
X132805000Y-105975000D02*
X132805000Y-107925000D01*
X122740000Y-108675000D02*
X122410000Y-108915000D01*
X122410000Y-108435000D01*
X122740000Y-108675000D01*
G36*
X122740000Y-108675000D02*
G01*
X122410000Y-108915000D01*
X122410000Y-108435000D01*
X122740000Y-108675000D01*
G37*
D13*
%TO.C,D4*%
X132750000Y-90030000D02*
X133350000Y-90430000D01*
X132750000Y-90430000D02*
X132250000Y-90430000D01*
X132750000Y-90830000D02*
X132750000Y-90030000D01*
X133350000Y-90430000D02*
X132750000Y-90830000D01*
X133350000Y-90430000D02*
X133350000Y-89880000D01*
X133350000Y-90430000D02*
X133350000Y-90980000D01*
X133750000Y-90430000D02*
X133350000Y-90430000D01*
D12*
X135250000Y-89430000D02*
X131350000Y-89430000D01*
X135250000Y-91430000D02*
X131350000Y-91430000D01*
X135250000Y-91430000D02*
X135250000Y-89430000D01*
%TO.C,R10*%
X153064564Y-119440000D02*
X152610436Y-119440000D01*
X153064564Y-120910000D02*
X152610436Y-120910000D01*
%TO.C,R12*%
X153064564Y-115640000D02*
X152610436Y-115640000D01*
X153064564Y-117110000D02*
X152610436Y-117110000D01*
%TO.C,C2*%
X117225000Y-122838748D02*
X117225000Y-123361252D01*
X118695000Y-122838748D02*
X118695000Y-123361252D01*
%TO.C,SW1*%
X122360000Y-75380000D02*
X122360000Y-95820000D01*
X122360000Y-95820000D02*
X124010000Y-95820000D01*
X126010000Y-95820000D02*
X127660000Y-95820000D01*
X127660000Y-75380000D02*
X122360000Y-75380000D01*
X127660000Y-95820000D02*
X127660000Y-75380000D01*
X124010000Y-95820000D02*
G75*
G02*
X126010000Y-95820000I1000000J0D01*
G01*
%TO.C,R1*%
X137832564Y-115815000D02*
X137378436Y-115815000D01*
X137832564Y-117285000D02*
X137378436Y-117285000D01*
%TO.C,C6*%
X154465000Y-104261252D02*
X154465000Y-103738748D01*
X155935000Y-104261252D02*
X155935000Y-103738748D01*
%TO.C,U1*%
X105235000Y-123100000D02*
X105235000Y-121150000D01*
X105235000Y-123100000D02*
X105235000Y-125050000D01*
X115355000Y-123100000D02*
X115355000Y-121150000D01*
X115355000Y-123100000D02*
X115355000Y-125050000D01*
X105290000Y-125800000D02*
X104960000Y-126040000D01*
X104960000Y-125560000D01*
X105290000Y-125800000D01*
G36*
X105290000Y-125800000D02*
G01*
X104960000Y-126040000D01*
X104960000Y-125560000D01*
X105290000Y-125800000D01*
G37*
D13*
%TO.C,D2*%
X132750000Y-94710000D02*
X133350000Y-95110000D01*
X132750000Y-95110000D02*
X132250000Y-95110000D01*
X132750000Y-95510000D02*
X132750000Y-94710000D01*
X133350000Y-95110000D02*
X132750000Y-95510000D01*
X133350000Y-95110000D02*
X133350000Y-94560000D01*
X133350000Y-95110000D02*
X133350000Y-95660000D01*
X133750000Y-95110000D02*
X133350000Y-95110000D01*
D12*
X135250000Y-94110000D02*
X131350000Y-94110000D01*
X135250000Y-96110000D02*
X131350000Y-96110000D01*
X135250000Y-96110000D02*
X135250000Y-94110000D01*
%TO.C,R5*%
X142846436Y-115826000D02*
X143300564Y-115826000D01*
X142846436Y-117296000D02*
X143300564Y-117296000D01*
%TO.C,J3*%
X74130000Y-113505000D02*
X74130000Y-112175000D01*
X75460000Y-113505000D02*
X74130000Y-113505000D01*
X76730000Y-110845000D02*
X117430000Y-110845000D01*
X76730000Y-113505000D02*
X76730000Y-110845000D01*
X76730000Y-113505000D02*
X117430000Y-113505000D01*
X117430000Y-113505000D02*
X117430000Y-110845000D01*
%TO.C,U4*%
X136065000Y-123100000D02*
X136065000Y-121150000D01*
X136065000Y-123100000D02*
X136065000Y-125050000D01*
X144935000Y-123100000D02*
X144935000Y-121150000D01*
X144935000Y-123100000D02*
X144935000Y-125050000D01*
X136130000Y-125800000D02*
X135800000Y-126040000D01*
X135800000Y-125560000D01*
X136130000Y-125800000D01*
G36*
X136130000Y-125800000D02*
G01*
X135800000Y-126040000D01*
X135800000Y-125560000D01*
X136130000Y-125800000D01*
G37*
D13*
%TO.C,D8*%
X132750000Y-80630000D02*
X133350000Y-81030000D01*
X132750000Y-81030000D02*
X132250000Y-81030000D01*
X132750000Y-81430000D02*
X132750000Y-80630000D01*
X133350000Y-81030000D02*
X132750000Y-81430000D01*
X133350000Y-81030000D02*
X133350000Y-80480000D01*
X133350000Y-81030000D02*
X133350000Y-81580000D01*
X133750000Y-81030000D02*
X133350000Y-81030000D01*
D12*
X135250000Y-80030000D02*
X131350000Y-80030000D01*
X135250000Y-82030000D02*
X131350000Y-82030000D01*
X135250000Y-82030000D02*
X135250000Y-80030000D01*
%TO.C,U2*%
X120875000Y-123100000D02*
X120875000Y-121150000D01*
X120875000Y-123100000D02*
X120875000Y-125050000D01*
X130995000Y-123100000D02*
X130995000Y-121150000D01*
X130995000Y-123100000D02*
X130995000Y-125050000D01*
X120930000Y-125800000D02*
X120600000Y-126040000D01*
X120600000Y-125560000D01*
X120930000Y-125800000D01*
G36*
X120930000Y-125800000D02*
G01*
X120600000Y-126040000D01*
X120600000Y-125560000D01*
X120930000Y-125800000D01*
G37*
%TO.C,R9*%
X153064564Y-121340000D02*
X152610436Y-121340000D01*
X153064564Y-122810000D02*
X152610436Y-122810000D01*
D13*
%TO.C,D5*%
X132750000Y-87680000D02*
X133350000Y-88080000D01*
X132750000Y-88080000D02*
X132250000Y-88080000D01*
X132750000Y-88480000D02*
X132750000Y-87680000D01*
X133350000Y-88080000D02*
X132750000Y-88480000D01*
X133350000Y-88080000D02*
X133350000Y-87530000D01*
X133350000Y-88080000D02*
X133350000Y-88630000D01*
X133750000Y-88080000D02*
X133350000Y-88080000D01*
D12*
X135250000Y-87080000D02*
X131350000Y-87080000D01*
X135250000Y-89080000D02*
X131350000Y-89080000D01*
X135250000Y-89080000D02*
X135250000Y-87080000D01*
%TO.C,D12*%
X135985500Y-115446000D02*
X139870500Y-115446000D01*
X139870500Y-113176000D02*
X135985500Y-113176000D01*
X139870500Y-115446000D02*
X139870500Y-113176000D01*
D13*
%TO.C,D9*%
X132750000Y-78280000D02*
X133350000Y-78680000D01*
X132750000Y-78680000D02*
X132250000Y-78680000D01*
X132750000Y-79080000D02*
X132750000Y-78280000D01*
X133350000Y-78680000D02*
X132750000Y-79080000D01*
X133350000Y-78680000D02*
X133350000Y-78130000D01*
X133350000Y-78680000D02*
X133350000Y-79230000D01*
X133750000Y-78680000D02*
X133350000Y-78680000D01*
D12*
X135250000Y-77680000D02*
X131350000Y-77680000D01*
X135250000Y-79680000D02*
X131350000Y-79680000D01*
X135250000Y-79680000D02*
X135250000Y-77680000D01*
%TD*%
M02*
