M48
; DRILL file {KiCad 8.0.1} date 2024-06-09T22:48:07+0100
; FORMAT={-:-/ absolute / inch / decimal}
; #@! TF.CreationDate,2024-06-09T22:48:07+01:00
; #@! TF.GenerationSoftware,Kicad,Pcbnew,8.0.1
; #@! TF.FileFunction,Plated,1,2,PTH
FMAT,2
INCH
; #@! TA.AperFunction,Plated,PTH,ViaDrill
T1C0.0157
; #@! TA.AperFunction,Plated,PTH,ComponentDrill
T2C0.0315
; #@! TA.AperFunction,Plated,PTH,ComponentDrill
T3C0.0394
%
G90
G05
T1
X3.1693Y-4.8524
X3.9783Y-4.8081
X3.9783Y-4.8829
X4.1673Y-4.8081
X4.473Y-4.6325
X4.5197Y-4.8829
X4.5228Y-4.651
X4.5684Y-4.6977
X4.6281Y-4.6766
X4.689Y-4.8081
X4.689Y-4.8829
X4.701Y-4.4149
X4.7343Y-4.374
X4.7473Y-4.9185
X4.7726Y-4.1234
X4.7835Y-4.8081
X4.8102Y-4.2921
X4.815Y-4.6866
X4.8186Y-4.2405
X4.8387Y-5.0078
X4.8524Y-4.1299
X4.8596Y-4.6904
X4.8872Y-4.4825
X4.9437Y-4.6844
X4.978Y-4.8448
X5.0251Y-3.7977
X5.0953Y-4.6851
X5.1339Y-4.8829
X5.1366Y-4.6349
X5.1988Y-3.9918
X5.2028Y-4.2028
X5.2133Y-3.8415
X5.222Y-4.9471
X5.2578Y-4.0589
X5.2598Y-3.3904
X5.2913Y-4.9956
X5.3031Y-4.8829
X5.3071Y-4.8081
X5.3237Y-4.9184
X5.3457Y-4.0322
X5.3648Y-3.9565
X5.3768Y-3.0851
X5.3819Y-4.1299
X5.3819Y-4.8081
X5.3839Y-4.2028
X5.3877Y-4.0344
X5.4204Y-4.1579
X5.4244Y-4.0138
X5.4387Y-4.3573
X5.4549Y-3.7033
X5.468Y-3.5644
X5.4788Y-3.2703
X5.4944Y-4.2789
X5.5031Y-3.775
X5.534Y-4.6859
X5.545Y-3.9018
X5.5578Y-4.5886
X5.5712Y-4.0129
X5.5771Y-4.4276
X5.5803Y-3.085
X5.5837Y-3.8194
X5.624Y-4.4599
X5.628Y-3.9587
X5.6811Y-4.8829
X5.6983Y-3.9289
X5.7034Y-3.7019
X5.7175Y-4.749
X5.7849Y-4.0851
X5.7971Y-4.5208
X5.8071Y-4.5628
X5.8312Y-4.6958
X5.8436Y-4.1393
X5.8504Y-4.8081
X5.8504Y-4.8829
X5.8624Y-4.5628
X5.8756Y-3.9966
X5.9179Y-4.6494
X5.9307Y-4.7313
X5.9332Y-4.957
X5.9388Y-4.7724
X5.9722Y-4.3372
X5.9881Y-4.0646
X6.0177Y-4.3878
X6.1299Y-4.0886
X6.1299Y-4.2205
X6.1299Y-4.8071
T2
X4.7717Y-3.0201
X4.7717Y-3.1201
X4.7717Y-3.2201
X4.7717Y-3.3201
X4.7717Y-3.4201
X4.7717Y-3.5201
X4.7717Y-3.6201
X4.7717Y-3.7201
X5.0717Y-3.0201
X5.0717Y-3.1201
X5.0717Y-3.2201
X5.0717Y-3.3201
X5.0717Y-3.4201
X5.0717Y-3.5201
X5.0717Y-3.6201
X5.0717Y-3.7201
X5.4262Y-3.0144
X5.4262Y-3.1144
X5.4262Y-3.2144
X5.4262Y-3.3144
X5.4262Y-3.4144
X5.4262Y-3.5144
X5.4262Y-3.6144
X6.0262Y-3.0144
X6.0262Y-3.1144
X6.0262Y-3.2144
X6.0262Y-3.3144
X6.0262Y-3.4144
X6.0262Y-3.5144
X6.0262Y-3.6144
T3
X2.9708Y-4.5609
X2.9709Y-4.4163
X3.0708Y-4.5609
X3.0709Y-4.4163
X3.1708Y-4.5609
X3.1709Y-4.4163
X3.2708Y-4.5609
X3.2709Y-4.4163
X3.3708Y-4.5609
X3.3709Y-4.4163
X3.4708Y-4.5609
X3.4709Y-4.4163
X3.5708Y-4.5609
X3.5709Y-4.4163
X3.6708Y-4.5609
X3.6709Y-4.4163
X3.7708Y-4.5609
X3.7709Y-4.4163
X3.8708Y-4.5609
X3.8709Y-4.4163
X3.9708Y-4.5609
X3.9709Y-4.4163
X4.0708Y-4.5609
X4.0709Y-4.4163
X4.1708Y-4.5609
X4.1709Y-4.4163
X4.2708Y-4.5609
X4.2709Y-4.4163
X4.3708Y-4.5609
X4.3709Y-4.4163
X4.4708Y-4.5609
X4.4709Y-4.4163
X4.5708Y-4.5609
X4.5709Y-4.4163
M30
