%TF.GenerationSoftware,KiCad,Pcbnew,8.0.1*%
%TF.CreationDate,2024-06-09T22:48:09+01:00*%
%TF.ProjectId,BBC-USBSlim,4242432d-5553-4425-936c-696d2e6b6963,rev?*%
%TF.SameCoordinates,Original*%
%TF.FileFunction,Soldermask,Top*%
%TF.FilePolarity,Negative*%
%FSLAX46Y46*%
G04 Gerber Fmt 4.6, Leading zero omitted, Abs format (unit mm)*
G04 Created by KiCad (PCBNEW 8.0.1) date 2024-06-09 22:48:09*
%MOMM*%
%LPD*%
G01*
G04 APERTURE LIST*
G04 Aperture macros list*
%AMRoundRect*
0 Rectangle with rounded corners*
0 $1 Rounding radius*
0 $2 $3 $4 $5 $6 $7 $8 $9 X,Y pos of 4 corners*
0 Add a 4 corners polygon primitive as box body*
4,1,4,$2,$3,$4,$5,$6,$7,$8,$9,$2,$3,0*
0 Add four circle primitives for the rounded corners*
1,1,$1+$1,$2,$3*
1,1,$1+$1,$4,$5*
1,1,$1+$1,$6,$7*
1,1,$1+$1,$8,$9*
0 Add four rect primitives between the rounded corners*
20,1,$1+$1,$2,$3,$4,$5,0*
20,1,$1+$1,$4,$5,$6,$7,0*
20,1,$1+$1,$6,$7,$8,$9,0*
20,1,$1+$1,$8,$9,$2,$3,0*%
%AMFreePoly0*
4,1,9,3.862500,-0.866500,0.737500,-0.866500,0.737500,-0.450000,-0.737500,-0.450000,-0.737500,0.450000,0.737500,0.450000,0.737500,0.866500,3.862500,0.866500,3.862500,-0.866500,3.862500,-0.866500,$1*%
G04 Aperture macros list end*
%ADD10C,2.500000*%
%ADD11RoundRect,0.250000X0.262500X0.450000X-0.262500X0.450000X-0.262500X-0.450000X0.262500X-0.450000X0*%
%ADD12R,0.550000X1.500000*%
%ADD13R,1.500000X0.550000*%
%ADD14RoundRect,0.250000X0.375000X0.625000X-0.375000X0.625000X-0.375000X-0.625000X0.375000X-0.625000X0*%
%ADD15R,0.900000X1.200000*%
%ADD16RoundRect,0.250000X-0.262500X-0.450000X0.262500X-0.450000X0.262500X0.450000X-0.262500X0.450000X0*%
%ADD17RoundRect,0.250000X-0.475000X0.250000X-0.475000X-0.250000X0.475000X-0.250000X0.475000X0.250000X0*%
%ADD18R,1.700000X1.700000*%
%ADD19O,1.700000X1.700000*%
%ADD20RoundRect,0.225000X0.225000X-0.425000X0.225000X0.425000X-0.225000X0.425000X-0.225000X-0.425000X0*%
%ADD21FreePoly0,90.000000*%
%ADD22R,1.600000X1.600000*%
%ADD23O,1.600000X1.600000*%
%ADD24RoundRect,0.250000X0.450000X-0.262500X0.450000X0.262500X-0.450000X0.262500X-0.450000X-0.262500X0*%
%ADD25RoundRect,0.150000X0.150000X-0.825000X0.150000X0.825000X-0.150000X0.825000X-0.150000X-0.825000X0*%
%ADD26RoundRect,0.250000X0.475000X-0.250000X0.475000X0.250000X-0.475000X0.250000X-0.475000X-0.250000X0*%
G04 APERTURE END LIST*
D10*
%TO.C,H2*%
X124700000Y-99200000D03*
%TD*%
%TO.C,H1*%
X149000000Y-111700000D03*
%TD*%
D11*
%TO.C,R14*%
X153750000Y-112575000D03*
X151925000Y-112575000D03*
%TD*%
D12*
%TO.C,U6*%
X148900000Y-95650000D03*
X148100000Y-95650000D03*
X147300000Y-95650000D03*
X146500000Y-95650000D03*
X145700000Y-95650000D03*
X144900000Y-95650000D03*
X144100000Y-95650000D03*
X143300000Y-95650000D03*
X142500000Y-95650000D03*
X141700000Y-95650000D03*
X140900000Y-95650000D03*
D13*
X139200000Y-97350000D03*
X139200000Y-98150000D03*
X139200000Y-98950000D03*
X139200000Y-99750000D03*
X139200000Y-100550000D03*
X139200000Y-101350000D03*
X139200000Y-102150000D03*
X139200000Y-102950000D03*
X139200000Y-103750000D03*
X139200000Y-104550000D03*
X139200000Y-105350000D03*
D12*
X140900000Y-107050000D03*
X141700000Y-107050000D03*
X142500000Y-107050000D03*
X143300000Y-107050000D03*
X144100000Y-107050000D03*
X144900000Y-107050000D03*
X145700000Y-107050000D03*
X146500000Y-107050000D03*
X147300000Y-107050000D03*
X148100000Y-107050000D03*
X148900000Y-107050000D03*
D13*
X150600000Y-105350000D03*
X150600000Y-104550000D03*
X150600000Y-103750000D03*
X150600000Y-102950000D03*
X150600000Y-102150000D03*
X150600000Y-101350000D03*
X150600000Y-100550000D03*
X150600000Y-99750000D03*
X150600000Y-98950000D03*
X150600000Y-98150000D03*
X150600000Y-97350000D03*
%TD*%
D11*
%TO.C,R8*%
X153750000Y-123975000D03*
X151925000Y-123975000D03*
%TD*%
%TO.C,R3*%
X127718000Y-116550000D03*
X125893000Y-116550000D03*
%TD*%
D14*
%TO.C,D14*%
X128185500Y-114311000D03*
X125385500Y-114311000D03*
%TD*%
D15*
%TO.C,D6*%
X134650000Y-85730000D03*
X131350000Y-85730000D03*
%TD*%
D16*
%TO.C,R6*%
X77137500Y-125300000D03*
X78962500Y-125300000D03*
%TD*%
D11*
%TO.C,R7*%
X153750000Y-125875000D03*
X151925000Y-125875000D03*
%TD*%
D15*
%TO.C,D10*%
X134650000Y-76330000D03*
X131350000Y-76330000D03*
%TD*%
%TO.C,D3*%
X134650000Y-92780000D03*
X131350000Y-92780000D03*
%TD*%
D11*
%TO.C,R11*%
X153750000Y-118275000D03*
X151925000Y-118275000D03*
%TD*%
%TO.C,R13*%
X153750000Y-114475000D03*
X151925000Y-114475000D03*
%TD*%
D17*
%TO.C,C4*%
X133510000Y-122150000D03*
X133510000Y-124050000D03*
%TD*%
D18*
%TO.C,J1*%
X75458000Y-115847000D03*
D19*
X77998000Y-115847000D03*
X80538000Y-115847000D03*
X83078000Y-115847000D03*
X85618000Y-115847000D03*
X88158000Y-115847000D03*
X90698000Y-115847000D03*
X93238000Y-115847000D03*
X95778000Y-115847000D03*
X98318000Y-115847000D03*
X100858000Y-115847000D03*
X103398000Y-115847000D03*
X105938000Y-115847000D03*
X108478000Y-115847000D03*
X111018000Y-115847000D03*
X113558000Y-115847000D03*
X116098000Y-115847000D03*
%TD*%
D15*
%TO.C,D7*%
X134650000Y-83380000D03*
X131350000Y-83380000D03*
%TD*%
D20*
%TO.C,Q1*%
X76500000Y-123250000D03*
D21*
X78000000Y-123162500D03*
D20*
X79500000Y-123250000D03*
%TD*%
D17*
%TO.C,C1*%
X102610000Y-122150000D03*
X102610000Y-124050000D03*
%TD*%
D22*
%TO.C,U7*%
X137825000Y-76566000D03*
D23*
X137825000Y-79106000D03*
X137825000Y-81646000D03*
X137825000Y-84186000D03*
X137825000Y-86726000D03*
X137825000Y-89266000D03*
X137825000Y-91806000D03*
X153065000Y-91806000D03*
X153065000Y-89266000D03*
X153065000Y-86726000D03*
X153065000Y-84186000D03*
X153065000Y-81646000D03*
X153065000Y-79106000D03*
X153065000Y-76566000D03*
%TD*%
D24*
%TO.C,R4*%
X153150000Y-109062500D03*
X153150000Y-107237500D03*
%TD*%
D17*
%TO.C,C3*%
X135350000Y-104900000D03*
X135350000Y-106800000D03*
%TD*%
%TO.C,C5*%
X147460000Y-122150000D03*
X147460000Y-124050000D03*
%TD*%
D14*
%TO.C,D13*%
X133603500Y-114311000D03*
X130803500Y-114311000D03*
%TD*%
%TO.C,D11*%
X144453500Y-114311000D03*
X141653500Y-114311000D03*
%TD*%
D11*
%TO.C,R2*%
X133136000Y-116550000D03*
X131311000Y-116550000D03*
%TD*%
D15*
%TO.C,D1*%
X134650000Y-97430000D03*
X131350000Y-97430000D03*
%TD*%
D25*
%TO.C,U3*%
X123300000Y-108450000D03*
X124570000Y-108450000D03*
X125840000Y-108450000D03*
X127110000Y-108450000D03*
X128380000Y-108450000D03*
X129650000Y-108450000D03*
X130920000Y-108450000D03*
X132190000Y-108450000D03*
X132190000Y-103500000D03*
X130920000Y-103500000D03*
X129650000Y-103500000D03*
X128380000Y-103500000D03*
X127110000Y-103500000D03*
X125840000Y-103500000D03*
X124570000Y-103500000D03*
X123300000Y-103500000D03*
%TD*%
D15*
%TO.C,D4*%
X134650000Y-90430000D03*
X131350000Y-90430000D03*
%TD*%
D11*
%TO.C,R10*%
X153750000Y-120175000D03*
X151925000Y-120175000D03*
%TD*%
%TO.C,R12*%
X153750000Y-116375000D03*
X151925000Y-116375000D03*
%TD*%
D17*
%TO.C,C2*%
X117960000Y-122150000D03*
X117960000Y-124050000D03*
%TD*%
D22*
%TO.C,SW1*%
X128820000Y-94490000D03*
D23*
X128820000Y-91950000D03*
X128820000Y-89410000D03*
X128820000Y-86870000D03*
X128820000Y-84330000D03*
X128820000Y-81790000D03*
X128820000Y-79250000D03*
X128820000Y-76710000D03*
X121200000Y-76710000D03*
X121200000Y-79250000D03*
X121200000Y-81790000D03*
X121200000Y-84330000D03*
X121200000Y-86870000D03*
X121200000Y-89410000D03*
X121200000Y-91950000D03*
X121200000Y-94490000D03*
%TD*%
D11*
%TO.C,R1*%
X138518000Y-116550000D03*
X136693000Y-116550000D03*
%TD*%
D26*
%TO.C,C6*%
X155200000Y-104950000D03*
X155200000Y-103050000D03*
%TD*%
D25*
%TO.C,U1*%
X105850000Y-125575000D03*
X107120000Y-125575000D03*
X108390000Y-125575000D03*
X109660000Y-125575000D03*
X110930000Y-125575000D03*
X112200000Y-125575000D03*
X113470000Y-125575000D03*
X114740000Y-125575000D03*
X114740000Y-120625000D03*
X113470000Y-120625000D03*
X112200000Y-120625000D03*
X110930000Y-120625000D03*
X109660000Y-120625000D03*
X108390000Y-120625000D03*
X107120000Y-120625000D03*
X105850000Y-120625000D03*
%TD*%
D15*
%TO.C,D2*%
X134650000Y-95110000D03*
X131350000Y-95110000D03*
%TD*%
D16*
%TO.C,R5*%
X142161000Y-116561000D03*
X143986000Y-116561000D03*
%TD*%
D18*
%TO.C,J3*%
X75460000Y-112175000D03*
D19*
X78000000Y-112175000D03*
X80540000Y-112175000D03*
X83080000Y-112175000D03*
X85620000Y-112175000D03*
X88160000Y-112175000D03*
X90700000Y-112175000D03*
X93240000Y-112175000D03*
X95780000Y-112175000D03*
X98320000Y-112175000D03*
X100860000Y-112175000D03*
X103400000Y-112175000D03*
X105940000Y-112175000D03*
X108480000Y-112175000D03*
X111020000Y-112175000D03*
X113560000Y-112175000D03*
X116100000Y-112175000D03*
%TD*%
D25*
%TO.C,U4*%
X136690000Y-125575000D03*
X137960000Y-125575000D03*
X139230000Y-125575000D03*
X140500000Y-125575000D03*
X141770000Y-125575000D03*
X143040000Y-125575000D03*
X144310000Y-125575000D03*
X144310000Y-120625000D03*
X143040000Y-120625000D03*
X141770000Y-120625000D03*
X140500000Y-120625000D03*
X139230000Y-120625000D03*
X137960000Y-120625000D03*
X136690000Y-120625000D03*
%TD*%
D15*
%TO.C,D8*%
X134650000Y-81030000D03*
X131350000Y-81030000D03*
%TD*%
D25*
%TO.C,U2*%
X121490000Y-125575000D03*
X122760000Y-125575000D03*
X124030000Y-125575000D03*
X125300000Y-125575000D03*
X126570000Y-125575000D03*
X127840000Y-125575000D03*
X129110000Y-125575000D03*
X130380000Y-125575000D03*
X130380000Y-120625000D03*
X129110000Y-120625000D03*
X127840000Y-120625000D03*
X126570000Y-120625000D03*
X125300000Y-120625000D03*
X124030000Y-120625000D03*
X122760000Y-120625000D03*
X121490000Y-120625000D03*
%TD*%
D11*
%TO.C,R9*%
X153750000Y-122075000D03*
X151925000Y-122075000D03*
%TD*%
D15*
%TO.C,D5*%
X134650000Y-88080000D03*
X131350000Y-88080000D03*
%TD*%
D14*
%TO.C,D12*%
X138985500Y-114311000D03*
X136185500Y-114311000D03*
%TD*%
D15*
%TO.C,D9*%
X134650000Y-78680000D03*
X131350000Y-78680000D03*
%TD*%
M02*
