%TF.GenerationSoftware,KiCad,Pcbnew,8.0.7*%
%TF.CreationDate,2025-01-29T20:52:19+00:00*%
%TF.ProjectId,Master-Keyboard_MX,4d617374-6572-42d4-9b65-79626f617264,rev?*%
%TF.SameCoordinates,Original*%
%TF.FileFunction,Legend,Bot*%
%TF.FilePolarity,Positive*%
%FSLAX46Y46*%
G04 Gerber Fmt 4.6, Leading zero omitted, Abs format (unit mm)*
G04 Created by KiCad (PCBNEW 8.0.7) date 2025-01-29 20:52:19*
%MOMM*%
%LPD*%
G01*
G04 APERTURE LIST*
%ADD10C,0.300000*%
G04 APERTURE END LIST*
D10*
X400456917Y-326680828D02*
X400456917Y-327752257D01*
X400456917Y-327752257D02*
X400528346Y-327966542D01*
X400528346Y-327966542D02*
X400671203Y-328109400D01*
X400671203Y-328109400D02*
X400885489Y-328180828D01*
X400885489Y-328180828D02*
X401028346Y-328180828D01*
X399028346Y-328180828D02*
X399742632Y-328180828D01*
X399742632Y-328180828D02*
X399742632Y-326680828D01*
X397671203Y-328037971D02*
X397742631Y-328109400D01*
X397742631Y-328109400D02*
X397956917Y-328180828D01*
X397956917Y-328180828D02*
X398099774Y-328180828D01*
X398099774Y-328180828D02*
X398314060Y-328109400D01*
X398314060Y-328109400D02*
X398456917Y-327966542D01*
X398456917Y-327966542D02*
X398528346Y-327823685D01*
X398528346Y-327823685D02*
X398599774Y-327537971D01*
X398599774Y-327537971D02*
X398599774Y-327323685D01*
X398599774Y-327323685D02*
X398528346Y-327037971D01*
X398528346Y-327037971D02*
X398456917Y-326895114D01*
X398456917Y-326895114D02*
X398314060Y-326752257D01*
X398314060Y-326752257D02*
X398099774Y-326680828D01*
X398099774Y-326680828D02*
X397956917Y-326680828D01*
X397956917Y-326680828D02*
X397742631Y-326752257D01*
X397742631Y-326752257D02*
X397671203Y-326823685D01*
X396599774Y-326680828D02*
X396599774Y-327752257D01*
X396599774Y-327752257D02*
X396671203Y-327966542D01*
X396671203Y-327966542D02*
X396814060Y-328109400D01*
X396814060Y-328109400D02*
X397028346Y-328180828D01*
X397028346Y-328180828D02*
X397171203Y-328180828D01*
X395171203Y-328180828D02*
X395885489Y-328180828D01*
X395885489Y-328180828D02*
X395885489Y-326680828D01*
X393814060Y-328037971D02*
X393885488Y-328109400D01*
X393885488Y-328109400D02*
X394099774Y-328180828D01*
X394099774Y-328180828D02*
X394242631Y-328180828D01*
X394242631Y-328180828D02*
X394456917Y-328109400D01*
X394456917Y-328109400D02*
X394599774Y-327966542D01*
X394599774Y-327966542D02*
X394671203Y-327823685D01*
X394671203Y-327823685D02*
X394742631Y-327537971D01*
X394742631Y-327537971D02*
X394742631Y-327323685D01*
X394742631Y-327323685D02*
X394671203Y-327037971D01*
X394671203Y-327037971D02*
X394599774Y-326895114D01*
X394599774Y-326895114D02*
X394456917Y-326752257D01*
X394456917Y-326752257D02*
X394242631Y-326680828D01*
X394242631Y-326680828D02*
X394099774Y-326680828D01*
X394099774Y-326680828D02*
X393885488Y-326752257D01*
X393885488Y-326752257D02*
X393814060Y-326823685D01*
X392742631Y-326680828D02*
X392742631Y-327752257D01*
X392742631Y-327752257D02*
X392814060Y-327966542D01*
X392814060Y-327966542D02*
X392956917Y-328109400D01*
X392956917Y-328109400D02*
X393171203Y-328180828D01*
X393171203Y-328180828D02*
X393314060Y-328180828D01*
X391314060Y-328180828D02*
X392028346Y-328180828D01*
X392028346Y-328180828D02*
X392028346Y-326680828D01*
X389956917Y-328037971D02*
X390028345Y-328109400D01*
X390028345Y-328109400D02*
X390242631Y-328180828D01*
X390242631Y-328180828D02*
X390385488Y-328180828D01*
X390385488Y-328180828D02*
X390599774Y-328109400D01*
X390599774Y-328109400D02*
X390742631Y-327966542D01*
X390742631Y-327966542D02*
X390814060Y-327823685D01*
X390814060Y-327823685D02*
X390885488Y-327537971D01*
X390885488Y-327537971D02*
X390885488Y-327323685D01*
X390885488Y-327323685D02*
X390814060Y-327037971D01*
X390814060Y-327037971D02*
X390742631Y-326895114D01*
X390742631Y-326895114D02*
X390599774Y-326752257D01*
X390599774Y-326752257D02*
X390385488Y-326680828D01*
X390385488Y-326680828D02*
X390242631Y-326680828D01*
X390242631Y-326680828D02*
X390028345Y-326752257D01*
X390028345Y-326752257D02*
X389956917Y-326823685D01*
X388885488Y-326680828D02*
X388885488Y-327752257D01*
X388885488Y-327752257D02*
X388956917Y-327966542D01*
X388956917Y-327966542D02*
X389099774Y-328109400D01*
X389099774Y-328109400D02*
X389314060Y-328180828D01*
X389314060Y-328180828D02*
X389456917Y-328180828D01*
X387456917Y-328180828D02*
X388171203Y-328180828D01*
X388171203Y-328180828D02*
X388171203Y-326680828D01*
X386099774Y-328037971D02*
X386171202Y-328109400D01*
X386171202Y-328109400D02*
X386385488Y-328180828D01*
X386385488Y-328180828D02*
X386528345Y-328180828D01*
X386528345Y-328180828D02*
X386742631Y-328109400D01*
X386742631Y-328109400D02*
X386885488Y-327966542D01*
X386885488Y-327966542D02*
X386956917Y-327823685D01*
X386956917Y-327823685D02*
X387028345Y-327537971D01*
X387028345Y-327537971D02*
X387028345Y-327323685D01*
X387028345Y-327323685D02*
X386956917Y-327037971D01*
X386956917Y-327037971D02*
X386885488Y-326895114D01*
X386885488Y-326895114D02*
X386742631Y-326752257D01*
X386742631Y-326752257D02*
X386528345Y-326680828D01*
X386528345Y-326680828D02*
X386385488Y-326680828D01*
X386385488Y-326680828D02*
X386171202Y-326752257D01*
X386171202Y-326752257D02*
X386099774Y-326823685D01*
M02*
