M48
; DRILL file {KiCad 8.0.7} date 2025-01-29T20:52:16+0000
; FORMAT={-:-/ absolute / inch / decimal}
; #@! TF.CreationDate,2025-01-29T20:52:16+00:00
; #@! TF.GenerationSoftware,Kicad,Pcbnew,8.0.7
; #@! TF.FileFunction,Plated,1,2,PTH
FMAT,2
INCH
; #@! TA.AperFunction,Plated,PTH,ViaDrill
T1C0.0157
; #@! TA.AperFunction,Plated,PTH,ComponentDrill
T2C0.0354
; #@! TA.AperFunction,Plated,PTH,ComponentDrill
T3C0.0394
; #@! TA.AperFunction,Plated,PTH,ComponentDrill
T4C0.0551
; #@! TA.AperFunction,Plated,PTH,ComponentDrill
T5C0.0591
; #@! TA.AperFunction,Plated,PTH,ComponentDrill
T6C0.0600
%
G90
G05
T1
X5.6904Y-9.7425
X6.9547Y-8.0551
X7.3266Y-7.8858
X7.5197Y-7.5991
X9.8258Y-7.4892
X10.1299Y-7.4892
X14.4989Y-8.6281
T2
X2.2244Y-8.2813
X2.3244Y-8.2813
X2.8276Y-8.2813
X2.9276Y-8.2813
X3.4256Y-8.2813
X3.5256Y-8.2813
T3
X7.4819Y-7.7559
X7.5819Y-7.7559
X7.6819Y-7.7559
X7.7819Y-7.7559
X7.8819Y-7.7559
X7.9819Y-7.7559
X8.0819Y-7.7559
X8.1819Y-7.7559
X8.2819Y-7.7559
X8.3819Y-7.7559
X8.4819Y-7.7559
X8.5819Y-7.7559
X8.6819Y-7.7559
X8.7819Y-7.7559
X8.8819Y-7.7559
X9.0835Y-7.7559
X9.1835Y-7.7559
X9.2835Y-7.7559
X9.3835Y-7.7559
X9.4835Y-7.7559
X9.5835Y-7.7559
X9.6835Y-7.7559
X9.7835Y-7.7559
X9.8835Y-7.7559
X9.9835Y-7.7559
X10.0835Y-7.7559
X10.1835Y-7.7559
X10.2835Y-7.7559
X10.3835Y-7.7559
X10.4835Y-7.7559
T4
X2.7502Y-11.4872
X2.7533Y-10.7333
X2.9372Y-9.2276
X2.9955Y-11.4872
X2.9986Y-10.7333
X3.1305Y-9.9839
X3.1825Y-9.2276
X3.3758Y-9.9839
X3.5065Y-10.7333
X3.6923Y-9.2276
X3.6923Y-11.4872
X3.7518Y-10.7333
X3.9376Y-9.2276
X3.9376Y-11.4872
X4.0705Y-8.4835
X4.0711Y-9.9839
X4.2537Y-10.7333
X4.3157Y-8.4835
X4.3163Y-9.9839
X4.44Y-9.2276
X4.499Y-10.7333
X4.6268Y-11.4872
X4.6852Y-9.2276
X4.8157Y-9.9839
X4.8193Y-8.4815
X4.872Y-11.4872
X5.0091Y-10.7333
X5.061Y-9.9839
X5.0646Y-8.4815
X5.1957Y-9.2276
X5.2543Y-10.7333
X5.3813Y-11.4872
X5.4409Y-9.2276
X5.5659Y-8.4844
X5.5758Y-9.9839
X5.6266Y-11.4872
X5.7585Y-10.7333
X5.7648Y-12.2478
X5.8112Y-8.4844
X5.8211Y-9.9839
X5.9472Y-9.2276
X6.0037Y-10.7333
X6.01Y-12.2478
X6.1329Y-11.4872
X6.1925Y-9.2276
X6.3197Y-8.4795
X6.3226Y-9.9839
X6.3781Y-11.4872
X6.5108Y-10.7333
X6.565Y-8.4795
X6.5679Y-9.9839
X6.6925Y-9.2276
X6.7561Y-10.7333
X6.8823Y-11.4872
X6.9378Y-9.2276
X7.0776Y-8.4815
X7.0778Y-9.9839
X7.1276Y-11.4872
X7.2624Y-10.7333
X7.3228Y-8.4815
X7.323Y-9.9839
X7.4488Y-9.2276
X7.5077Y-10.7333
X7.6346Y-11.4872
X7.6941Y-9.2276
X7.8224Y-8.4827
X7.8285Y-9.9839
X7.8799Y-11.4872
X8.0053Y-10.7333
X8.0089Y-12.2478
X8.0677Y-8.4827
X8.0738Y-9.9839
X8.1959Y-9.2276
X8.2506Y-10.7333
X8.2541Y-12.2478
X8.3841Y-11.4872
X8.4411Y-9.2276
X8.572Y-8.4732
X8.5754Y-9.9839
X8.6293Y-11.4872
X8.7596Y-10.7333
X8.8173Y-8.4732
X8.8207Y-9.9839
X8.9492Y-9.2276
X9.0049Y-10.7333
X9.1382Y-11.4872
X9.1945Y-9.2276
X9.3246Y-9.9839
X9.3256Y-8.4748
X9.3835Y-11.4872
X9.5138Y-10.7333
X9.5699Y-9.9839
X9.5709Y-8.4748
X9.6978Y-9.2276
X9.7591Y-10.7333
X9.888Y-11.4872
X9.9431Y-9.2276
X10.0713Y-8.4732
X10.0748Y-9.9839
X10.1333Y-11.4872
X10.253Y-12.2478
X10.2667Y-10.7333
X10.3165Y-8.4732
X10.3201Y-9.9839
X10.4526Y-9.2276
X10.4982Y-12.2478
X10.512Y-10.7333
X10.6404Y-11.4872
X10.6978Y-9.2276
X10.8224Y-8.4732
X10.8309Y-9.9839
X10.8856Y-11.4872
X11.0128Y-10.7333
X11.0677Y-8.4732
X11.0762Y-9.9839
X11.198Y-9.2276
X11.2581Y-10.7333
X11.3915Y-11.4872
X11.4433Y-9.2276
X11.5793Y-9.9839
X11.6368Y-11.4872
X11.7675Y-10.7333
X11.8246Y-9.9839
X11.9618Y-9.2276
X12.0128Y-10.7333
X12.2071Y-9.2276
X12.326Y-11.4872
X12.3287Y-8.4823
X12.3291Y-9.9839
X12.5159Y-10.7333
X12.5713Y-11.4872
X12.574Y-8.4823
X12.5744Y-9.9839
X12.7051Y-9.2276
X12.7612Y-10.7333
X12.9504Y-9.2276
X13.0791Y-9.9839
X13.2626Y-11.4872
X13.3244Y-9.9839
X13.4602Y-9.2276
X13.5079Y-11.4872
X13.6404Y-10.7333
X13.7055Y-9.2276
X13.8362Y-8.4819
X13.8364Y-9.9839
X13.8856Y-10.7333
X14.0134Y-11.4872
X14.0815Y-8.4819
X14.0817Y-9.9839
X14.2039Y-9.2276
X14.2587Y-11.4872
X14.4492Y-9.2276
X15.2671Y-9.2276
X15.2671Y-11.4872
X15.2675Y-10.7333
X15.2679Y-8.4778
X15.2695Y-9.9839
X15.5124Y-9.2276
X15.5124Y-11.4872
X15.5128Y-10.7333
X15.5132Y-8.4778
X15.5148Y-9.9839
X16.0126Y-8.4787
X16.0156Y-9.9839
X16.0156Y-10.7333
X16.0156Y-11.4872
X16.0193Y-9.2276
X16.2579Y-8.4787
X16.2608Y-9.9839
X16.2608Y-10.7333
X16.2608Y-11.4872
X16.2646Y-9.2276
X16.7652Y-8.4797
X16.7703Y-10.7333
X16.7722Y-9.9839
X16.7732Y-9.2276
X17.0104Y-8.4797
X17.0156Y-10.7333
X17.0175Y-9.9839
X17.0185Y-9.2276
X17.1482Y-11.4872
X17.3935Y-11.4872
X17.5197Y-9.9839
X17.5203Y-8.4844
X17.5213Y-10.7333
X17.5244Y-9.2276
X17.765Y-9.9839
X17.7656Y-8.4844
X17.7665Y-10.7333
X17.7697Y-9.2276
T5
X2.7226Y-11.3089
X2.7258Y-10.5549
X2.9096Y-9.0492
X2.9726Y-11.2089
X2.9758Y-10.4549
X3.103Y-9.8055
X3.1596Y-8.9492
X3.353Y-9.7055
X3.4789Y-10.5549
X3.6648Y-9.0492
X3.6648Y-11.3089
X3.7289Y-10.4549
X3.9148Y-8.9492
X3.9148Y-11.2089
X4.0429Y-8.3051
X4.0435Y-9.8055
X4.2262Y-10.5549
X4.2929Y-8.2051
X4.2935Y-9.7055
X4.4124Y-9.0492
X4.4762Y-10.4549
X4.5992Y-11.3089
X4.6624Y-8.9492
X4.7882Y-9.8055
X4.7917Y-8.3031
X4.8492Y-11.2089
X4.9815Y-10.5549
X5.0382Y-9.7055
X5.0417Y-8.2031
X5.1681Y-9.0492
X5.2315Y-10.4549
X5.3537Y-11.3089
X5.4181Y-8.9492
X5.5384Y-8.3061
X5.5482Y-9.8055
X5.6037Y-11.2089
X5.7309Y-10.5549
X5.7372Y-12.0695
X5.7884Y-8.2061
X5.7982Y-9.7055
X5.9197Y-9.0492
X5.9809Y-10.4549
X5.9872Y-11.9695
X6.1053Y-11.3089
X6.1697Y-8.9492
X6.2921Y-8.3012
X6.2951Y-9.8055
X6.3553Y-11.2089
X6.4833Y-10.5549
X6.5421Y-8.2012
X6.5451Y-9.7055
X6.665Y-9.0492
X6.7333Y-10.4549
X6.8547Y-11.3089
X6.915Y-8.9492
X7.05Y-8.3031
X7.0502Y-9.8055
X7.1047Y-11.2089
X7.2348Y-10.5549
X7.3Y-8.2031
X7.3002Y-9.7055
X7.4213Y-9.0492
X7.4848Y-10.4549
X7.6071Y-11.3089
X7.6713Y-8.9492
X7.7949Y-8.3043
X7.801Y-9.8055
X7.8571Y-11.2089
X7.9778Y-10.5549
X7.9813Y-12.0695
X8.0449Y-8.2043
X8.051Y-9.7055
X8.1683Y-9.0492
X8.2278Y-10.4549
X8.2313Y-11.9695
X8.3565Y-11.3089
X8.4183Y-8.9492
X8.5445Y-8.2949
X8.5478Y-9.8055
X8.6065Y-11.2089
X8.7321Y-10.5549
X8.7945Y-8.1949
X8.7978Y-9.7055
X8.9217Y-9.0492
X8.9821Y-10.4549
X9.1106Y-11.3089
X9.1717Y-8.9492
X9.297Y-9.8055
X9.298Y-8.2965
X9.3606Y-11.2089
X9.4862Y-10.5549
X9.547Y-9.7055
X9.548Y-8.1965
X9.6703Y-9.0492
X9.7362Y-10.4549
X9.8604Y-11.3089
X9.9203Y-8.9492
X10.0437Y-8.2949
X10.0472Y-9.8055
X10.1104Y-11.2089
X10.2254Y-12.0695
X10.2392Y-10.5549
X10.2937Y-8.1949
X10.2972Y-9.7055
X10.425Y-9.0492
X10.4754Y-11.9695
X10.4892Y-10.4549
X10.6128Y-11.3089
X10.675Y-8.9492
X10.7949Y-8.2949
X10.8033Y-9.8055
X10.8628Y-11.2089
X10.9852Y-10.5549
X11.0449Y-8.1949
X11.0533Y-9.7055
X11.1705Y-9.0492
X11.2352Y-10.4549
X11.364Y-11.3089
X11.4205Y-8.9492
X11.5518Y-9.8055
X11.614Y-11.2089
X11.74Y-10.5549
X11.8018Y-9.7055
X11.9343Y-9.0492
X11.99Y-10.4549
X12.1843Y-8.9492
X12.2984Y-11.3089
X12.3012Y-8.3039
X12.3016Y-9.8055
X12.4884Y-10.5549
X12.5484Y-11.2089
X12.5512Y-8.2039
X12.5516Y-9.7055
X12.6776Y-9.0492
X12.7384Y-10.4549
X12.9276Y-8.9492
X13.0516Y-9.8055
X13.235Y-11.3089
X13.3016Y-9.7055
X13.4327Y-9.0492
X13.485Y-11.2089
X13.6128Y-10.5549
X13.6827Y-8.9492
X13.8087Y-8.3035
X13.8089Y-9.8055
X13.8628Y-10.4549
X13.9858Y-11.3089
X14.0587Y-8.2035
X14.0589Y-9.7055
X14.1764Y-9.0492
X14.2358Y-11.2089
X14.4264Y-8.9492
X15.2396Y-9.0492
X15.2396Y-11.3089
X15.24Y-10.5549
X15.2404Y-8.2994
X15.2419Y-9.8055
X15.4896Y-8.9492
X15.4896Y-11.2089
X15.49Y-10.4549
X15.4904Y-8.1994
X15.4919Y-9.7055
X15.985Y-8.3004
X15.988Y-9.8055
X15.988Y-10.5549
X15.988Y-11.3089
X15.9917Y-9.0492
X16.235Y-8.2004
X16.238Y-9.7055
X16.238Y-10.4549
X16.238Y-11.2089
X16.2417Y-8.9492
X16.7376Y-8.3014
X16.7427Y-10.5549
X16.7447Y-9.8055
X16.7457Y-9.0492
X16.9876Y-8.2014
X16.9927Y-10.4549
X16.9947Y-9.7055
X16.9957Y-8.9492
X17.1207Y-11.3089
X17.3707Y-11.2089
X17.4921Y-9.8055
X17.4927Y-8.3061
X17.4937Y-10.5549
X17.4969Y-9.0492
X17.7421Y-9.7055
X17.7427Y-8.2061
X17.7437Y-10.4549
X17.7469Y-8.9492
T6
X18.2583Y-9.3709
X18.9866Y-9.174
X18.9866Y-9.5677
M30
