ISO-10303-21;
HEADER;
/* Generated by software containing ST-Developer
 * from STEP Tools, Inc. (www.steptools.com) 
 */
/* OPTION: using custom renumber hook */

FILE_DESCRIPTION(
/* description */ ('STEP AP203'),
/* implementation_level */ '2;1');

FILE_NAME(
/* name */ 'MTSW-101-10-G-S-550',
/* time_stamp */ '2023-02-22T23:26:26+01:00',
/* author */ ('License CC BY-ND 4.0'),
/* organization */ ('CADENAS'),
/* preprocessor_version */ 'ST-DEVELOPER v18.102',
/* originating_system */ 'PARTsolutions',
/* authorisation */ '  ');

FILE_SCHEMA (('CONFIG_CONTROL_DESIGN'));
ENDSEC;

DATA;
#10=PROPERTY_DEFINITION_REPRESENTATION(#14,#12);
#11=PROPERTY_DEFINITION_REPRESENTATION(#15,#13);
#12=REPRESENTATION('',(#16),#1313);
#13=REPRESENTATION('',(#17),#1313);
#14=PROPERTY_DEFINITION('pmi validation property','',#1325);
#15=PROPERTY_DEFINITION('pmi validation property','',#1325);
#16=VALUE_REPRESENTATION_ITEM('number of annotations',COUNT_MEASURE(0.));
#17=VALUE_REPRESENTATION_ITEM('number of views',COUNT_MEASURE(0.));
#18=COLOUR_RGB('',0.5,0.5,0.5);
#19=CONTEXT_DEPENDENT_SHAPE_REPRESENTATION(#23,#1327);
#20=CONTEXT_DEPENDENT_SHAPE_REPRESENTATION(#24,#1329);
#21=NEXT_ASSEMBLY_USAGE_OCCURRENCE('NAUO1','MTSW-101-10-S-550',
'MTSW-101-10-S-550',#1330,#1331,'');
#22=NEXT_ASSEMBLY_USAGE_OCCURRENCE('NAUO2','MTSW-101-10-G-S-550_body',
'MTSW-101-10-G-S-550_body',#1330,#1332,'');
#23=(
REPRESENTATION_RELATIONSHIP(' ',' ',#842,#841)
REPRESENTATION_RELATIONSHIP_WITH_TRANSFORMATION(#25)
SHAPE_REPRESENTATION_RELATIONSHIP()
);
#24=(
REPRESENTATION_RELATIONSHIP(' ',' ',#843,#841)
REPRESENTATION_RELATIONSHIP_WITH_TRANSFORMATION(#26)
SHAPE_REPRESENTATION_RELATIONSHIP()
);
#25=ITEM_DEFINED_TRANSFORMATION(' ',' ',#844,#861);
#26=ITEM_DEFINED_TRANSFORMATION(' ',' ',#844,#888);
#27=SHAPE_REPRESENTATION_RELATIONSHIP('','',#842,#29);
#28=SHAPE_REPRESENTATION_RELATIONSHIP('','',#843,#30);
#29=ADVANCED_BREP_SHAPE_REPRESENTATION('',(#836),#1314);
#30=ADVANCED_BREP_SHAPE_REPRESENTATION('',(#837),#1315);
#31=ORIENTED_EDGE('',*,*,#247,.F.);
#32=ORIENTED_EDGE('',*,*,#248,.F.);
#33=ORIENTED_EDGE('',*,*,#249,.T.);
#34=ORIENTED_EDGE('',*,*,#250,.T.);
#35=ORIENTED_EDGE('',*,*,#251,.F.);
#36=ORIENTED_EDGE('',*,*,#252,.T.);
#37=ORIENTED_EDGE('',*,*,#253,.F.);
#38=ORIENTED_EDGE('',*,*,#254,.F.);
#39=ORIENTED_EDGE('',*,*,#248,.T.);
#40=ORIENTED_EDGE('',*,*,#255,.T.);
#41=ORIENTED_EDGE('',*,*,#254,.T.);
#42=ORIENTED_EDGE('',*,*,#256,.T.);
#43=ORIENTED_EDGE('',*,*,#257,.F.);
#44=ORIENTED_EDGE('',*,*,#250,.F.);
#45=ORIENTED_EDGE('',*,*,#258,.F.);
#46=ORIENTED_EDGE('',*,*,#252,.F.);
#47=ORIENTED_EDGE('',*,*,#258,.T.);
#48=ORIENTED_EDGE('',*,*,#249,.F.);
#49=ORIENTED_EDGE('',*,*,#256,.F.);
#50=ORIENTED_EDGE('',*,*,#253,.T.);
#51=ORIENTED_EDGE('',*,*,#255,.F.);
#52=ORIENTED_EDGE('',*,*,#247,.T.);
#53=ORIENTED_EDGE('',*,*,#257,.T.);
#54=ORIENTED_EDGE('',*,*,#251,.T.);
#55=ORIENTED_EDGE('',*,*,#259,.T.);
#56=ORIENTED_EDGE('',*,*,#260,.F.);
#57=ORIENTED_EDGE('',*,*,#261,.F.);
#58=ORIENTED_EDGE('',*,*,#262,.T.);
#59=ORIENTED_EDGE('',*,*,#263,.T.);
#60=ORIENTED_EDGE('',*,*,#264,.F.);
#61=ORIENTED_EDGE('',*,*,#265,.F.);
#62=ORIENTED_EDGE('',*,*,#260,.T.);
#63=ORIENTED_EDGE('',*,*,#266,.F.);
#64=ORIENTED_EDGE('',*,*,#267,.T.);
#65=ORIENTED_EDGE('',*,*,#268,.T.);
#66=ORIENTED_EDGE('',*,*,#269,.T.);
#67=ORIENTED_EDGE('',*,*,#270,.T.);
#68=ORIENTED_EDGE('',*,*,#271,.F.);
#69=ORIENTED_EDGE('',*,*,#272,.F.);
#70=ORIENTED_EDGE('',*,*,#264,.T.);
#71=ORIENTED_EDGE('',*,*,#273,.T.);
#72=ORIENTED_EDGE('',*,*,#262,.F.);
#73=ORIENTED_EDGE('',*,*,#274,.F.);
#74=ORIENTED_EDGE('',*,*,#271,.T.);
#75=ORIENTED_EDGE('',*,*,#261,.T.);
#76=ORIENTED_EDGE('',*,*,#265,.T.);
#77=ORIENTED_EDGE('',*,*,#272,.T.);
#78=ORIENTED_EDGE('',*,*,#274,.T.);
#79=ORIENTED_EDGE('',*,*,#259,.F.);
#80=ORIENTED_EDGE('',*,*,#273,.F.);
#81=ORIENTED_EDGE('',*,*,#270,.F.);
#82=ORIENTED_EDGE('',*,*,#263,.F.);
#83=ORIENTED_EDGE('',*,*,#275,.T.);
#84=ORIENTED_EDGE('',*,*,#276,.F.);
#85=ORIENTED_EDGE('',*,*,#277,.F.);
#86=ORIENTED_EDGE('',*,*,#278,.T.);
#87=ORIENTED_EDGE('',*,*,#268,.F.);
#88=ORIENTED_EDGE('',*,*,#279,.F.);
#89=ORIENTED_EDGE('',*,*,#275,.F.);
#90=ORIENTED_EDGE('',*,*,#280,.F.);
#91=ORIENTED_EDGE('',*,*,#281,.T.);
#92=ORIENTED_EDGE('',*,*,#266,.T.);
#93=ORIENTED_EDGE('',*,*,#282,.T.);
#94=ORIENTED_EDGE('',*,*,#277,.T.);
#95=ORIENTED_EDGE('',*,*,#267,.F.);
#96=ORIENTED_EDGE('',*,*,#281,.F.);
#97=ORIENTED_EDGE('',*,*,#276,.T.);
#98=ORIENTED_EDGE('',*,*,#279,.T.);
#99=ORIENTED_EDGE('',*,*,#269,.F.);
#100=ORIENTED_EDGE('',*,*,#280,.T.);
#101=ORIENTED_EDGE('',*,*,#278,.F.);
#102=ORIENTED_EDGE('',*,*,#282,.F.);
#103=ORIENTED_EDGE('',*,*,#283,.F.);
#104=ORIENTED_EDGE('',*,*,#284,.F.);
#105=ORIENTED_EDGE('',*,*,#285,.F.);
#106=ORIENTED_EDGE('',*,*,#286,.F.);
#107=ORIENTED_EDGE('',*,*,#287,.F.);
#108=ORIENTED_EDGE('',*,*,#288,.F.);
#109=ORIENTED_EDGE('',*,*,#289,.F.);
#110=ORIENTED_EDGE('',*,*,#290,.F.);
#111=ORIENTED_EDGE('',*,*,#291,.F.);
#112=ORIENTED_EDGE('',*,*,#292,.F.);
#113=ORIENTED_EDGE('',*,*,#293,.F.);
#114=ORIENTED_EDGE('',*,*,#294,.F.);
#115=ORIENTED_EDGE('',*,*,#295,.F.);
#116=ORIENTED_EDGE('',*,*,#296,.F.);
#117=ORIENTED_EDGE('',*,*,#297,.F.);
#118=ORIENTED_EDGE('',*,*,#298,.F.);
#119=ORIENTED_EDGE('',*,*,#299,.T.);
#120=ORIENTED_EDGE('',*,*,#300,.T.);
#121=ORIENTED_EDGE('',*,*,#286,.T.);
#122=ORIENTED_EDGE('',*,*,#301,.T.);
#123=ORIENTED_EDGE('',*,*,#288,.T.);
#124=ORIENTED_EDGE('',*,*,#302,.T.);
#125=ORIENTED_EDGE('',*,*,#303,.T.);
#126=ORIENTED_EDGE('',*,*,#304,.T.);
#127=ORIENTED_EDGE('',*,*,#292,.T.);
#128=ORIENTED_EDGE('',*,*,#305,.T.);
#129=ORIENTED_EDGE('',*,*,#306,.F.);
#130=ORIENTED_EDGE('',*,*,#307,.T.);
#131=ORIENTED_EDGE('',*,*,#308,.F.);
#132=ORIENTED_EDGE('',*,*,#309,.T.);
#133=ORIENTED_EDGE('',*,*,#298,.T.);
#134=ORIENTED_EDGE('',*,*,#310,.T.);
#135=ORIENTED_EDGE('',*,*,#284,.T.);
#136=ORIENTED_EDGE('',*,*,#311,.T.);
#137=ORIENTED_EDGE('',*,*,#312,.F.);
#138=ORIENTED_EDGE('',*,*,#313,.T.);
#139=ORIENTED_EDGE('',*,*,#314,.F.);
#140=ORIENTED_EDGE('',*,*,#315,.T.);
#141=ORIENTED_EDGE('',*,*,#290,.T.);
#142=ORIENTED_EDGE('',*,*,#316,.T.);
#143=ORIENTED_EDGE('',*,*,#317,.T.);
#144=ORIENTED_EDGE('',*,*,#318,.T.);
#145=ORIENTED_EDGE('',*,*,#294,.T.);
#146=ORIENTED_EDGE('',*,*,#319,.T.);
#147=ORIENTED_EDGE('',*,*,#296,.T.);
#148=ORIENTED_EDGE('',*,*,#320,.T.);
#149=ORIENTED_EDGE('',*,*,#321,.T.);
#150=ORIENTED_EDGE('',*,*,#322,.T.);
#151=ORIENTED_EDGE('',*,*,#316,.F.);
#152=ORIENTED_EDGE('',*,*,#289,.T.);
#153=ORIENTED_EDGE('',*,*,#304,.F.);
#154=ORIENTED_EDGE('',*,*,#323,.F.);
#155=ORIENTED_EDGE('',*,*,#324,.F.);
#156=ORIENTED_EDGE('',*,*,#325,.F.);
#157=ORIENTED_EDGE('',*,*,#326,.T.);
#158=ORIENTED_EDGE('',*,*,#327,.F.);
#159=ORIENTED_EDGE('',*,*,#310,.F.);
#160=ORIENTED_EDGE('',*,*,#297,.T.);
#161=ORIENTED_EDGE('',*,*,#322,.F.);
#162=ORIENTED_EDGE('',*,*,#328,.F.);
#163=ORIENTED_EDGE('',*,*,#313,.F.);
#164=ORIENTED_EDGE('',*,*,#329,.F.);
#165=ORIENTED_EDGE('',*,*,#319,.F.);
#166=ORIENTED_EDGE('',*,*,#293,.T.);
#167=ORIENTED_EDGE('',*,*,#307,.F.);
#168=ORIENTED_EDGE('',*,*,#330,.F.);
#169=ORIENTED_EDGE('',*,*,#331,.F.);
#170=ORIENTED_EDGE('',*,*,#332,.F.);
#171=ORIENTED_EDGE('',*,*,#333,.T.);
#172=ORIENTED_EDGE('',*,*,#334,.F.);
#173=ORIENTED_EDGE('',*,*,#301,.F.);
#174=ORIENTED_EDGE('',*,*,#285,.T.);
#175=ORIENTED_EDGE('',*,*,#335,.T.);
#176=ORIENTED_EDGE('',*,*,#336,.T.);
#177=ORIENTED_EDGE('',*,*,#337,.F.);
#178=ORIENTED_EDGE('',*,*,#338,.T.);
#179=ORIENTED_EDGE('',*,*,#337,.T.);
#180=ORIENTED_EDGE('',*,*,#339,.T.);
#181=ORIENTED_EDGE('',*,*,#340,.F.);
#182=ORIENTED_EDGE('',*,*,#341,.T.);
#183=ORIENTED_EDGE('',*,*,#340,.T.);
#184=ORIENTED_EDGE('',*,*,#342,.T.);
#185=ORIENTED_EDGE('',*,*,#343,.F.);
#186=ORIENTED_EDGE('',*,*,#344,.T.);
#187=ORIENTED_EDGE('',*,*,#343,.T.);
#188=ORIENTED_EDGE('',*,*,#345,.T.);
#189=ORIENTED_EDGE('',*,*,#335,.F.);
#190=ORIENTED_EDGE('',*,*,#346,.T.);
#191=ORIENTED_EDGE('',*,*,#347,.F.);
#192=ORIENTED_EDGE('',*,*,#326,.F.);
#193=ORIENTED_EDGE('',*,*,#348,.F.);
#194=ORIENTED_EDGE('',*,*,#331,.T.);
#195=ORIENTED_EDGE('',*,*,#349,.F.);
#196=ORIENTED_EDGE('',*,*,#333,.F.);
#197=ORIENTED_EDGE('',*,*,#350,.F.);
#198=ORIENTED_EDGE('',*,*,#324,.T.);
#199=ORIENTED_EDGE('',*,*,#338,.F.);
#200=ORIENTED_EDGE('',*,*,#341,.F.);
#201=ORIENTED_EDGE('',*,*,#344,.F.);
#202=ORIENTED_EDGE('',*,*,#346,.F.);
#203=ORIENTED_EDGE('',*,*,#325,.T.);
#204=ORIENTED_EDGE('',*,*,#350,.T.);
#205=ORIENTED_EDGE('',*,*,#332,.T.);
#206=ORIENTED_EDGE('',*,*,#348,.T.);
#207=ORIENTED_EDGE('',*,*,#351,.T.);
#208=ORIENTED_EDGE('',*,*,#299,.F.);
#209=ORIENTED_EDGE('',*,*,#334,.T.);
#210=ORIENTED_EDGE('',*,*,#349,.T.);
#211=ORIENTED_EDGE('',*,*,#323,.T.);
#212=ORIENTED_EDGE('',*,*,#303,.F.);
#213=ORIENTED_EDGE('',*,*,#352,.F.);
#214=ORIENTED_EDGE('',*,*,#314,.T.);
#215=ORIENTED_EDGE('',*,*,#328,.T.);
#216=ORIENTED_EDGE('',*,*,#321,.F.);
#217=ORIENTED_EDGE('',*,*,#353,.F.);
#218=ORIENTED_EDGE('',*,*,#308,.T.);
#219=ORIENTED_EDGE('',*,*,#327,.T.);
#220=ORIENTED_EDGE('',*,*,#347,.T.);
#221=ORIENTED_EDGE('',*,*,#330,.T.);
#222=ORIENTED_EDGE('',*,*,#306,.T.);
#223=ORIENTED_EDGE('',*,*,#354,.T.);
#224=ORIENTED_EDGE('',*,*,#317,.F.);
#225=ORIENTED_EDGE('',*,*,#329,.T.);
#226=ORIENTED_EDGE('',*,*,#312,.T.);
#227=ORIENTED_EDGE('',*,*,#345,.F.);
#228=ORIENTED_EDGE('',*,*,#342,.F.);
#229=ORIENTED_EDGE('',*,*,#339,.F.);
#230=ORIENTED_EDGE('',*,*,#336,.F.);
#231=ORIENTED_EDGE('',*,*,#353,.T.);
#232=ORIENTED_EDGE('',*,*,#320,.F.);
#233=ORIENTED_EDGE('',*,*,#295,.T.);
#234=ORIENTED_EDGE('',*,*,#309,.F.);
#235=ORIENTED_EDGE('',*,*,#291,.T.);
#236=ORIENTED_EDGE('',*,*,#318,.F.);
#237=ORIENTED_EDGE('',*,*,#354,.F.);
#238=ORIENTED_EDGE('',*,*,#305,.F.);
#239=ORIENTED_EDGE('',*,*,#351,.F.);
#240=ORIENTED_EDGE('',*,*,#311,.F.);
#241=ORIENTED_EDGE('',*,*,#283,.T.);
#242=ORIENTED_EDGE('',*,*,#300,.F.);
#243=ORIENTED_EDGE('',*,*,#287,.T.);
#244=ORIENTED_EDGE('',*,*,#315,.F.);
#245=ORIENTED_EDGE('',*,*,#352,.T.);
#246=ORIENTED_EDGE('',*,*,#302,.F.);
#247=EDGE_CURVE('',#355,#356,#427,.T.);
#248=EDGE_CURVE('',#357,#355,#428,.T.);
#249=EDGE_CURVE('',#357,#358,#429,.T.);
#250=EDGE_CURVE('',#358,#356,#430,.T.);
#251=EDGE_CURVE('',#359,#360,#431,.T.);
#252=EDGE_CURVE('',#359,#361,#432,.T.);
#253=EDGE_CURVE('',#362,#361,#433,.T.);
#254=EDGE_CURVE('',#360,#362,#434,.T.);
#255=EDGE_CURVE('',#355,#360,#435,.T.);
#256=EDGE_CURVE('',#362,#357,#436,.T.);
#257=EDGE_CURVE('',#356,#359,#437,.T.);
#258=EDGE_CURVE('',#361,#358,#438,.T.);
#259=EDGE_CURVE('',#363,#364,#439,.T.);
#260=EDGE_CURVE('',#365,#364,#440,.T.);
#261=EDGE_CURVE('',#366,#365,#441,.T.);
#262=EDGE_CURVE('',#366,#363,#442,.T.);
#263=EDGE_CURVE('',#364,#367,#443,.T.);
#264=EDGE_CURVE('',#368,#367,#444,.T.);
#265=EDGE_CURVE('',#365,#368,#445,.T.);
#266=EDGE_CURVE('',#369,#370,#446,.T.);
#267=EDGE_CURVE('',#369,#371,#447,.T.);
#268=EDGE_CURVE('',#371,#372,#448,.T.);
#269=EDGE_CURVE('',#372,#370,#449,.T.);
#270=EDGE_CURVE('',#367,#373,#450,.T.);
#271=EDGE_CURVE('',#374,#373,#451,.T.);
#272=EDGE_CURVE('',#368,#374,#452,.T.);
#273=EDGE_CURVE('',#373,#363,#453,.T.);
#274=EDGE_CURVE('',#374,#366,#454,.T.);
#275=EDGE_CURVE('',#375,#376,#455,.T.);
#276=EDGE_CURVE('',#377,#376,#456,.T.);
#277=EDGE_CURVE('',#378,#377,#457,.T.);
#278=EDGE_CURVE('',#378,#375,#458,.T.);
#279=EDGE_CURVE('',#376,#371,#459,.T.);
#280=EDGE_CURVE('',#372,#375,#460,.T.);
#281=EDGE_CURVE('',#377,#369,#461,.T.);
#282=EDGE_CURVE('',#370,#378,#462,.T.);
#283=EDGE_CURVE('',#379,#380,#463,.T.);
#284=EDGE_CURVE('',#381,#379,#464,.T.);
#285=EDGE_CURVE('',#382,#381,#465,.T.);
#286=EDGE_CURVE('',#380,#382,#466,.T.);
#287=EDGE_CURVE('',#383,#384,#467,.T.);
#288=EDGE_CURVE('',#385,#383,#468,.T.);
#289=EDGE_CURVE('',#386,#385,#469,.T.);
#290=EDGE_CURVE('',#384,#386,#470,.T.);
#291=EDGE_CURVE('',#387,#388,#471,.T.);
#292=EDGE_CURVE('',#389,#387,#472,.T.);
#293=EDGE_CURVE('',#390,#389,#473,.T.);
#294=EDGE_CURVE('',#388,#390,#474,.T.);
#295=EDGE_CURVE('',#391,#392,#475,.T.);
#296=EDGE_CURVE('',#393,#391,#476,.T.);
#297=EDGE_CURVE('',#394,#393,#477,.T.);
#298=EDGE_CURVE('',#392,#394,#478,.T.);
#299=EDGE_CURVE('',#395,#396,#479,.T.);
#300=EDGE_CURVE('',#396,#380,#480,.T.);
#301=EDGE_CURVE('',#382,#395,#481,.T.);
#302=EDGE_CURVE('',#383,#397,#482,.T.);
#303=EDGE_CURVE('',#397,#398,#483,.T.);
#304=EDGE_CURVE('',#398,#385,#484,.T.);
#305=EDGE_CURVE('',#387,#399,#485,.T.);
#306=EDGE_CURVE('',#400,#399,#486,.T.);
#307=EDGE_CURVE('',#400,#389,#487,.T.);
#308=EDGE_CURVE('',#401,#402,#488,.T.);
#309=EDGE_CURVE('',#401,#392,#489,.T.);
#310=EDGE_CURVE('',#394,#402,#490,.T.);
#311=EDGE_CURVE('',#379,#403,#491,.T.);
#312=EDGE_CURVE('',#404,#403,#492,.T.);
#313=EDGE_CURVE('',#404,#381,#493,.T.);
#314=EDGE_CURVE('',#405,#406,#494,.T.);
#315=EDGE_CURVE('',#405,#384,#495,.T.);
#316=EDGE_CURVE('',#386,#406,#496,.T.);
#317=EDGE_CURVE('',#407,#408,#497,.T.);
#318=EDGE_CURVE('',#408,#388,#498,.T.);
#319=EDGE_CURVE('',#390,#407,#499,.T.);
#320=EDGE_CURVE('',#391,#409,#500,.T.);
#321=EDGE_CURVE('',#409,#410,#501,.T.);
#322=EDGE_CURVE('',#410,#393,#502,.T.);
#323=EDGE_CURVE('',#411,#398,#503,.T.);
#324=EDGE_CURVE('',#412,#411,#504,.T.);
#325=EDGE_CURVE('',#413,#412,#505,.T.);
#326=EDGE_CURVE('',#413,#414,#506,.T.);
#327=EDGE_CURVE('',#402,#414,#507,.T.);
#328=EDGE_CURVE('',#406,#410,#508,.T.);
#329=EDGE_CURVE('',#407,#404,#509,.T.);
#330=EDGE_CURVE('',#415,#400,#510,.T.);
#331=EDGE_CURVE('',#416,#415,#511,.T.);
#332=EDGE_CURVE('',#417,#416,#512,.T.);
#333=EDGE_CURVE('',#417,#418,#513,.T.);
#334=EDGE_CURVE('',#395,#418,#514,.T.);
#335=EDGE_CURVE('',#419,#420,#515,.T.);
#336=EDGE_CURVE('',#420,#421,#516,.T.);
#337=EDGE_CURVE('',#422,#421,#517,.T.);
#338=EDGE_CURVE('',#422,#419,#518,.T.);
#339=EDGE_CURVE('',#421,#423,#519,.T.);
#340=EDGE_CURVE('',#424,#423,#520,.T.);
#341=EDGE_CURVE('',#424,#422,#521,.T.);
#342=EDGE_CURVE('',#423,#425,#522,.T.);
#343=EDGE_CURVE('',#426,#425,#523,.T.);
#344=EDGE_CURVE('',#426,#424,#524,.T.);
#345=EDGE_CURVE('',#425,#420,#525,.T.);
#346=EDGE_CURVE('',#419,#426,#526,.T.);
#347=EDGE_CURVE('',#414,#415,#527,.T.);
#348=EDGE_CURVE('',#416,#413,#528,.T.);
#349=EDGE_CURVE('',#418,#411,#529,.T.);
#350=EDGE_CURVE('',#412,#417,#530,.T.);
#351=EDGE_CURVE('',#403,#396,#531,.T.);
#352=EDGE_CURVE('',#405,#397,#532,.T.);
#353=EDGE_CURVE('',#401,#409,#533,.T.);
#354=EDGE_CURVE('',#399,#408,#534,.T.);
#355=VERTEX_POINT('',#1090);
#356=VERTEX_POINT('',#1091);
#357=VERTEX_POINT('',#1093);
#358=VERTEX_POINT('',#1095);
#359=VERTEX_POINT('',#1099);
#360=VERTEX_POINT('',#1100);
#361=VERTEX_POINT('',#1102);
#362=VERTEX_POINT('',#1104);
#363=VERTEX_POINT('',#1115);
#364=VERTEX_POINT('',#1116);
#365=VERTEX_POINT('',#1118);
#366=VERTEX_POINT('',#1120);
#367=VERTEX_POINT('',#1124);
#368=VERTEX_POINT('',#1126);
#369=VERTEX_POINT('',#1130);
#370=VERTEX_POINT('',#1131);
#371=VERTEX_POINT('',#1133);
#372=VERTEX_POINT('',#1135);
#373=VERTEX_POINT('',#1138);
#374=VERTEX_POINT('',#1140);
#375=VERTEX_POINT('',#1149);
#376=VERTEX_POINT('',#1150);
#377=VERTEX_POINT('',#1152);
#378=VERTEX_POINT('',#1154);
#379=VERTEX_POINT('',#1167);
#380=VERTEX_POINT('',#1168);
#381=VERTEX_POINT('',#1170);
#382=VERTEX_POINT('',#1172);
#383=VERTEX_POINT('',#1176);
#384=VERTEX_POINT('',#1177);
#385=VERTEX_POINT('',#1179);
#386=VERTEX_POINT('',#1181);
#387=VERTEX_POINT('',#1185);
#388=VERTEX_POINT('',#1186);
#389=VERTEX_POINT('',#1188);
#390=VERTEX_POINT('',#1190);
#391=VERTEX_POINT('',#1194);
#392=VERTEX_POINT('',#1195);
#393=VERTEX_POINT('',#1197);
#394=VERTEX_POINT('',#1199);
#395=VERTEX_POINT('',#1203);
#396=VERTEX_POINT('',#1204);
#397=VERTEX_POINT('',#1209);
#398=VERTEX_POINT('',#1211);
#399=VERTEX_POINT('',#1215);
#400=VERTEX_POINT('',#1217);
#401=VERTEX_POINT('',#1221);
#402=VERTEX_POINT('',#1222);
#403=VERTEX_POINT('',#1227);
#404=VERTEX_POINT('',#1229);
#405=VERTEX_POINT('',#1233);
#406=VERTEX_POINT('',#1234);
#407=VERTEX_POINT('',#1239);
#408=VERTEX_POINT('',#1240);
#409=VERTEX_POINT('',#1245);
#410=VERTEX_POINT('',#1247);
#411=VERTEX_POINT('',#1251);
#412=VERTEX_POINT('',#1253);
#413=VERTEX_POINT('',#1255);
#414=VERTEX_POINT('',#1257);
#415=VERTEX_POINT('',#1263);
#416=VERTEX_POINT('',#1265);
#417=VERTEX_POINT('',#1267);
#418=VERTEX_POINT('',#1269);
#419=VERTEX_POINT('',#1273);
#420=VERTEX_POINT('',#1274);
#421=VERTEX_POINT('',#1276);
#422=VERTEX_POINT('',#1278);
#423=VERTEX_POINT('',#1282);
#424=VERTEX_POINT('',#1284);
#425=VERTEX_POINT('',#1288);
#426=VERTEX_POINT('',#1290);
#427=LINE('',#1089,#535);
#428=LINE('',#1092,#536);
#429=LINE('',#1094,#537);
#430=LINE('',#1096,#538);
#431=LINE('',#1098,#539);
#432=LINE('',#1101,#540);
#433=LINE('',#1103,#541);
#434=LINE('',#1105,#542);
#435=LINE('',#1107,#543);
#436=LINE('',#1108,#544);
#437=LINE('',#1110,#545);
#438=LINE('',#1111,#546);
#439=LINE('',#1114,#547);
#440=LINE('',#1117,#548);
#441=LINE('',#1119,#549);
#442=LINE('',#1121,#550);
#443=LINE('',#1123,#551);
#444=LINE('',#1125,#552);
#445=LINE('',#1127,#553);
#446=LINE('',#1129,#554);
#447=LINE('',#1132,#555);
#448=LINE('',#1134,#556);
#449=LINE('',#1136,#557);
#450=LINE('',#1137,#558);
#451=LINE('',#1139,#559);
#452=LINE('',#1141,#560);
#453=LINE('',#1143,#561);
#454=LINE('',#1144,#562);
#455=LINE('',#1148,#563);
#456=LINE('',#1151,#564);
#457=LINE('',#1153,#565);
#458=LINE('',#1155,#566);
#459=LINE('',#1157,#567);
#460=LINE('',#1158,#568);
#461=LINE('',#1160,#569);
#462=LINE('',#1161,#570);
#463=LINE('',#1166,#571);
#464=LINE('',#1169,#572);
#465=LINE('',#1171,#573);
#466=LINE('',#1173,#574);
#467=LINE('',#1175,#575);
#468=LINE('',#1178,#576);
#469=LINE('',#1180,#577);
#470=LINE('',#1182,#578);
#471=LINE('',#1184,#579);
#472=LINE('',#1187,#580);
#473=LINE('',#1189,#581);
#474=LINE('',#1191,#582);
#475=LINE('',#1193,#583);
#476=LINE('',#1196,#584);
#477=LINE('',#1198,#585);
#478=LINE('',#1200,#586);
#479=LINE('',#1202,#587);
#480=LINE('',#1205,#588);
#481=LINE('',#1206,#589);
#482=LINE('',#1208,#590);
#483=LINE('',#1210,#591);
#484=LINE('',#1212,#592);
#485=LINE('',#1214,#593);
#486=LINE('',#1216,#594);
#487=LINE('',#1218,#595);
#488=LINE('',#1220,#596);
#489=LINE('',#1223,#597);
#490=LINE('',#1224,#598);
#491=LINE('',#1226,#599);
#492=LINE('',#1228,#600);
#493=LINE('',#1230,#601);
#494=LINE('',#1232,#602);
#495=LINE('',#1235,#603);
#496=LINE('',#1236,#604);
#497=LINE('',#1238,#605);
#498=LINE('',#1241,#606);
#499=LINE('',#1242,#607);
#500=LINE('',#1244,#608);
#501=LINE('',#1246,#609);
#502=LINE('',#1248,#610);
#503=LINE('',#1250,#611);
#504=LINE('',#1252,#612);
#505=LINE('',#1254,#613);
#506=LINE('',#1256,#614);
#507=LINE('',#1258,#615);
#508=LINE('',#1259,#616);
#509=LINE('',#1261,#617);
#510=LINE('',#1262,#618);
#511=LINE('',#1264,#619);
#512=LINE('',#1266,#620);
#513=LINE('',#1268,#621);
#514=LINE('',#1270,#622);
#515=LINE('',#1272,#623);
#516=LINE('',#1275,#624);
#517=LINE('',#1277,#625);
#518=LINE('',#1279,#626);
#519=LINE('',#1281,#627);
#520=LINE('',#1283,#628);
#521=LINE('',#1285,#629);
#522=LINE('',#1287,#630);
#523=LINE('',#1289,#631);
#524=LINE('',#1291,#632);
#525=LINE('',#1293,#633);
#526=LINE('',#1294,#634);
#527=LINE('',#1296,#635);
#528=LINE('',#1297,#636);
#529=LINE('',#1299,#637);
#530=LINE('',#1300,#638);
#531=LINE('',#1303,#639);
#532=LINE('',#1304,#640);
#533=LINE('',#1305,#641);
#534=LINE('',#1306,#642);
#535=VECTOR('',#893,39.3700787401575);
#536=VECTOR('',#894,39.3700787401575);
#537=VECTOR('',#895,39.3700787401575);
#538=VECTOR('',#896,39.3700787401575);
#539=VECTOR('',#899,39.3700787401575);
#540=VECTOR('',#900,39.3700787401575);
#541=VECTOR('',#901,39.3700787401575);
#542=VECTOR('',#902,39.3700787401575);
#543=VECTOR('',#905,39.3700787401575);
#544=VECTOR('',#906,39.3700787401575);
#545=VECTOR('',#909,39.3700787401575);
#546=VECTOR('',#910,39.3700787401575);
#547=VECTOR('',#915,39.3700787401575);
#548=VECTOR('',#916,39.3700787401575);
#549=VECTOR('',#917,39.3700787401575);
#550=VECTOR('',#918,39.3700787401575);
#551=VECTOR('',#921,39.3700787401575);
#552=VECTOR('',#922,39.3700787401575);
#553=VECTOR('',#923,39.3700787401575);
#554=VECTOR('',#926,39.3700787401575);
#555=VECTOR('',#927,39.3700787401575);
#556=VECTOR('',#928,39.3700787401575);
#557=VECTOR('',#929,39.3700787401575);
#558=VECTOR('',#930,39.3700787401575);
#559=VECTOR('',#931,39.3700787401575);
#560=VECTOR('',#932,39.3700787401575);
#561=VECTOR('',#935,39.3700787401575);
#562=VECTOR('',#936,39.3700787401575);
#563=VECTOR('',#943,39.3700787401575);
#564=VECTOR('',#944,39.3700787401575);
#565=VECTOR('',#945,39.3700787401575);
#566=VECTOR('',#946,39.3700787401575);
#567=VECTOR('',#949,39.3700787401575);
#568=VECTOR('',#950,39.3700787401575);
#569=VECTOR('',#953,39.3700787401575);
#570=VECTOR('',#954,39.3700787401575);
#571=VECTOR('',#963,39.3700787401575);
#572=VECTOR('',#964,39.3700787401575);
#573=VECTOR('',#965,39.3700787401575);
#574=VECTOR('',#966,39.3700787401575);
#575=VECTOR('',#969,39.3700787401575);
#576=VECTOR('',#970,39.3700787401575);
#577=VECTOR('',#971,39.3700787401575);
#578=VECTOR('',#972,39.3700787401575);
#579=VECTOR('',#975,39.3700787401575);
#580=VECTOR('',#976,39.3700787401575);
#581=VECTOR('',#977,39.3700787401575);
#582=VECTOR('',#978,39.3700787401575);
#583=VECTOR('',#981,39.3700787401575);
#584=VECTOR('',#982,39.3700787401575);
#585=VECTOR('',#983,39.3700787401575);
#586=VECTOR('',#984,39.3700787401575);
#587=VECTOR('',#987,39.3700787401575);
#588=VECTOR('',#988,39.3700787401575);
#589=VECTOR('',#989,39.3700787401575);
#590=VECTOR('',#992,39.3700787401575);
#591=VECTOR('',#993,39.3700787401575);
#592=VECTOR('',#994,39.3700787401575);
#593=VECTOR('',#997,39.3700787401575);
#594=VECTOR('',#998,39.3700787401575);
#595=VECTOR('',#999,39.3700787401575);
#596=VECTOR('',#1002,39.3700787401575);
#597=VECTOR('',#1003,39.3700787401575);
#598=VECTOR('',#1004,39.3700787401575);
#599=VECTOR('',#1007,39.3700787401575);
#600=VECTOR('',#1008,39.3700787401575);
#601=VECTOR('',#1009,39.3700787401575);
#602=VECTOR('',#1012,39.3700787401575);
#603=VECTOR('',#1013,39.3700787401575);
#604=VECTOR('',#1014,39.3700787401575);
#605=VECTOR('',#1017,39.3700787401575);
#606=VECTOR('',#1018,39.3700787401575);
#607=VECTOR('',#1019,39.3700787401575);
#608=VECTOR('',#1022,39.3700787401575);
#609=VECTOR('',#1023,39.3700787401575);
#610=VECTOR('',#1024,39.3700787401575);
#611=VECTOR('',#1027,39.3700787401575);
#612=VECTOR('',#1028,39.3700787401575);
#613=VECTOR('',#1029,39.3700787401575);
#614=VECTOR('',#1030,39.3700787401575);
#615=VECTOR('',#1031,39.3700787401575);
#616=VECTOR('',#1032,39.3700787401575);
#617=VECTOR('',#1035,39.3700787401575);
#618=VECTOR('',#1036,39.3700787401575);
#619=VECTOR('',#1037,39.3700787401575);
#620=VECTOR('',#1038,39.3700787401575);
#621=VECTOR('',#1039,39.3700787401575);
#622=VECTOR('',#1040,39.3700787401575);
#623=VECTOR('',#1043,39.3700787401575);
#624=VECTOR('',#1044,39.3700787401575);
#625=VECTOR('',#1045,39.3700787401575);
#626=VECTOR('',#1046,39.3700787401575);
#627=VECTOR('',#1049,39.3700787401575);
#628=VECTOR('',#1050,39.3700787401575);
#629=VECTOR('',#1051,39.3700787401575);
#630=VECTOR('',#1054,39.3700787401575);
#631=VECTOR('',#1055,39.3700787401575);
#632=VECTOR('',#1056,39.3700787401575);
#633=VECTOR('',#1059,39.3700787401575);
#634=VECTOR('',#1060,39.3700787401575);
#635=VECTOR('',#1063,39.3700787401575);
#636=VECTOR('',#1064,39.3700787401575);
#637=VECTOR('',#1067,39.3700787401575);
#638=VECTOR('',#1068,39.3700787401575);
#639=VECTOR('',#1073,39.3700787401575);
#640=VECTOR('',#1074,39.3700787401575);
#641=VECTOR('',#1075,39.3700787401575);
#642=VECTOR('',#1076,39.3700787401575);
#643=EDGE_LOOP('',(#31,#32,#33,#34));
#644=EDGE_LOOP('',(#35,#36,#37,#38));
#645=EDGE_LOOP('',(#39,#40,#41,#42));
#646=EDGE_LOOP('',(#43,#44,#45,#46));
#647=EDGE_LOOP('',(#47,#48,#49,#50));
#648=EDGE_LOOP('',(#51,#52,#53,#54));
#649=EDGE_LOOP('',(#55,#56,#57,#58));
#650=EDGE_LOOP('',(#59,#60,#61,#62));
#651=EDGE_LOOP('',(#63,#64,#65,#66));
#652=EDGE_LOOP('',(#67,#68,#69,#70));
#653=EDGE_LOOP('',(#71,#72,#73,#74));
#654=EDGE_LOOP('',(#75,#76,#77,#78));
#655=EDGE_LOOP('',(#79,#80,#81,#82));
#656=EDGE_LOOP('',(#83,#84,#85,#86));
#657=EDGE_LOOP('',(#87,#88,#89,#90));
#658=EDGE_LOOP('',(#91,#92,#93,#94));
#659=EDGE_LOOP('',(#95,#96,#97,#98));
#660=EDGE_LOOP('',(#99,#100,#101,#102));
#661=EDGE_LOOP('',(#103,#104,#105,#106));
#662=EDGE_LOOP('',(#107,#108,#109,#110));
#663=EDGE_LOOP('',(#111,#112,#113,#114));
#664=EDGE_LOOP('',(#115,#116,#117,#118));
#665=EDGE_LOOP('',(#119,#120,#121,#122));
#666=EDGE_LOOP('',(#123,#124,#125,#126));
#667=EDGE_LOOP('',(#127,#128,#129,#130));
#668=EDGE_LOOP('',(#131,#132,#133,#134));
#669=EDGE_LOOP('',(#135,#136,#137,#138));
#670=EDGE_LOOP('',(#139,#140,#141,#142));
#671=EDGE_LOOP('',(#143,#144,#145,#146));
#672=EDGE_LOOP('',(#147,#148,#149,#150));
#673=EDGE_LOOP('',(#151,#152,#153,#154,#155,#156,#157,#158,#159,#160,#161,
#162));
#674=EDGE_LOOP('',(#163,#164,#165,#166,#167,#168,#169,#170,#171,#172,#173,
#174));
#675=EDGE_LOOP('',(#175,#176,#177,#178));
#676=EDGE_LOOP('',(#179,#180,#181,#182));
#677=EDGE_LOOP('',(#183,#184,#185,#186));
#678=EDGE_LOOP('',(#187,#188,#189,#190));
#679=EDGE_LOOP('',(#191,#192,#193,#194));
#680=EDGE_LOOP('',(#195,#196,#197,#198));
#681=EDGE_LOOP('',(#199,#200,#201,#202));
#682=EDGE_LOOP('',(#203,#204,#205,#206));
#683=EDGE_LOOP('',(#207,#208,#209,#210,#211,#212,#213,#214,#215,#216,#217,
#218,#219,#220,#221,#222,#223,#224,#225,#226));
#684=EDGE_LOOP('',(#227,#228,#229,#230));
#685=EDGE_LOOP('',(#231,#232,#233,#234));
#686=EDGE_LOOP('',(#235,#236,#237,#238));
#687=EDGE_LOOP('',(#239,#240,#241,#242));
#688=EDGE_LOOP('',(#243,#244,#245,#246));
#689=FACE_BOUND('',#643,.T.);
#690=FACE_BOUND('',#644,.T.);
#691=FACE_BOUND('',#645,.T.);
#692=FACE_BOUND('',#646,.T.);
#693=FACE_BOUND('',#647,.T.);
#694=FACE_BOUND('',#648,.T.);
#695=FACE_BOUND('',#649,.T.);
#696=FACE_BOUND('',#650,.T.);
#697=FACE_BOUND('',#651,.T.);
#698=FACE_BOUND('',#652,.T.);
#699=FACE_BOUND('',#653,.T.);
#700=FACE_BOUND('',#654,.T.);
#701=FACE_BOUND('',#655,.T.);
#702=FACE_BOUND('',#656,.T.);
#703=FACE_BOUND('',#657,.T.);
#704=FACE_BOUND('',#658,.T.);
#705=FACE_BOUND('',#659,.T.);
#706=FACE_BOUND('',#660,.T.);
#707=FACE_BOUND('',#661,.T.);
#708=FACE_BOUND('',#662,.T.);
#709=FACE_BOUND('',#663,.T.);
#710=FACE_BOUND('',#664,.T.);
#711=FACE_BOUND('',#665,.T.);
#712=FACE_BOUND('',#666,.T.);
#713=FACE_BOUND('',#667,.T.);
#714=FACE_BOUND('',#668,.T.);
#715=FACE_BOUND('',#669,.T.);
#716=FACE_BOUND('',#670,.T.);
#717=FACE_BOUND('',#671,.T.);
#718=FACE_BOUND('',#672,.T.);
#719=FACE_BOUND('',#673,.T.);
#720=FACE_BOUND('',#674,.T.);
#721=FACE_BOUND('',#675,.T.);
#722=FACE_BOUND('',#676,.T.);
#723=FACE_BOUND('',#677,.T.);
#724=FACE_BOUND('',#678,.T.);
#725=FACE_BOUND('',#679,.T.);
#726=FACE_BOUND('',#680,.T.);
#727=FACE_BOUND('',#681,.T.);
#728=FACE_BOUND('',#682,.T.);
#729=FACE_BOUND('',#683,.T.);
#730=FACE_BOUND('',#684,.T.);
#731=FACE_BOUND('',#685,.T.);
#732=FACE_BOUND('',#686,.T.);
#733=FACE_BOUND('',#687,.T.);
#734=FACE_BOUND('',#688,.T.);
#735=PLANE('',#845);
#736=PLANE('',#846);
#737=PLANE('',#847);
#738=PLANE('',#848);
#739=PLANE('',#849);
#740=PLANE('',#850);
#741=PLANE('',#851);
#742=PLANE('',#852);
#743=PLANE('',#853);
#744=PLANE('',#854);
#745=PLANE('',#855);
#746=PLANE('',#856);
#747=PLANE('',#857);
#748=PLANE('',#858);
#749=PLANE('',#859);
#750=PLANE('',#860);
#751=PLANE('',#862);
#752=PLANE('',#863);
#753=PLANE('',#864);
#754=PLANE('',#865);
#755=PLANE('',#866);
#756=PLANE('',#867);
#757=PLANE('',#868);
#758=PLANE('',#869);
#759=PLANE('',#870);
#760=PLANE('',#871);
#761=PLANE('',#872);
#762=PLANE('',#873);
#763=PLANE('',#874);
#764=PLANE('',#875);
#765=PLANE('',#876);
#766=PLANE('',#877);
#767=PLANE('',#878);
#768=PLANE('',#879);
#769=PLANE('',#880);
#770=PLANE('',#881);
#771=PLANE('',#882);
#772=PLANE('',#883);
#773=PLANE('',#884);
#774=PLANE('',#885);
#775=PLANE('',#886);
#776=PLANE('',#887);
#777=ADVANCED_FACE('',(#689),#735,.F.);
#778=ADVANCED_FACE('',(#690),#736,.F.);
#779=ADVANCED_FACE('',(#691),#737,.T.);
#780=ADVANCED_FACE('',(#692),#738,.F.);
#781=ADVANCED_FACE('',(#693),#739,.F.);
#782=ADVANCED_FACE('',(#694,#695),#740,.F.);
#783=ADVANCED_FACE('',(#696),#741,.F.);
#784=ADVANCED_FACE('',(#697,#698),#742,.F.);
#785=ADVANCED_FACE('',(#699),#743,.F.);
#786=ADVANCED_FACE('',(#700),#744,.T.);
#787=ADVANCED_FACE('',(#701),#745,.F.);
#788=ADVANCED_FACE('',(#702),#746,.F.);
#789=ADVANCED_FACE('',(#703),#747,.F.);
#790=ADVANCED_FACE('',(#704),#748,.T.);
#791=ADVANCED_FACE('',(#705),#749,.F.);
#792=ADVANCED_FACE('',(#706),#750,.F.);
#793=ADVANCED_FACE('',(#707),#751,.F.);
#794=ADVANCED_FACE('',(#708),#752,.F.);
#795=ADVANCED_FACE('',(#709),#753,.F.);
#796=ADVANCED_FACE('',(#710),#754,.F.);
#797=ADVANCED_FACE('',(#711),#755,.T.);
#798=ADVANCED_FACE('',(#712),#756,.T.);
#799=ADVANCED_FACE('',(#713),#757,.T.);
#800=ADVANCED_FACE('',(#714),#758,.T.);
#801=ADVANCED_FACE('',(#715),#759,.T.);
#802=ADVANCED_FACE('',(#716),#760,.T.);
#803=ADVANCED_FACE('',(#717),#761,.T.);
#804=ADVANCED_FACE('',(#718),#762,.T.);
#805=ADVANCED_FACE('',(#719),#763,.F.);
#806=ADVANCED_FACE('',(#720),#764,.F.);
#807=ADVANCED_FACE('',(#721),#765,.T.);
#808=ADVANCED_FACE('',(#722),#766,.T.);
#809=ADVANCED_FACE('',(#723),#767,.T.);
#810=ADVANCED_FACE('',(#724),#768,.T.);
#811=ADVANCED_FACE('',(#725),#769,.F.);
#812=ADVANCED_FACE('',(#726),#770,.F.);
#813=ADVANCED_FACE('',(#727,#728),#771,.T.);
#814=ADVANCED_FACE('',(#729,#730),#772,.T.);
#815=ADVANCED_FACE('',(#731),#773,.T.);
#816=ADVANCED_FACE('',(#732),#774,.T.);
#817=ADVANCED_FACE('',(#733),#775,.T.);
#818=ADVANCED_FACE('',(#734),#776,.T.);
#819=CLOSED_SHELL('',(#777,#778,#779,#780,#781,#782,#783,#784,#785,#786,
#787,#788,#789,#790,#791,#792));
#820=CLOSED_SHELL('',(#793,#794,#795,#796,#797,#798,#799,#800,#801,#802,
#803,#804,#805,#806,#807,#808,#809,#810,#811,#812,#813,#814,#815,#816,#817,
#818));
#821=STYLED_ITEM('',(#823),#836);
#822=STYLED_ITEM('',(#824),#837);
#823=PRESENTATION_STYLE_ASSIGNMENT((#825));
#824=PRESENTATION_STYLE_ASSIGNMENT((#826));
#825=SURFACE_STYLE_USAGE(.BOTH.,#827);
#826=SURFACE_STYLE_USAGE(.BOTH.,#828);
#827=SURFACE_SIDE_STYLE('',(#829));
#828=SURFACE_SIDE_STYLE('',(#830));
#829=SURFACE_STYLE_FILL_AREA(#831);
#830=SURFACE_STYLE_FILL_AREA(#832);
#831=FILL_AREA_STYLE('',(#833));
#832=FILL_AREA_STYLE('',(#834));
#833=FILL_AREA_STYLE_COLOUR('',#835);
#834=FILL_AREA_STYLE_COLOUR('',#18);
#835=DRAUGHTING_PRE_DEFINED_COLOUR('yellow');
#836=MANIFOLD_SOLID_BREP('MTSW-101-10-S-550',#819);
#837=MANIFOLD_SOLID_BREP('MTSW-101-10-G-S-550_body',#820);
#838=SHAPE_DEFINITION_REPRESENTATION(#1325,#841);
#839=SHAPE_DEFINITION_REPRESENTATION(#1326,#842);
#840=SHAPE_DEFINITION_REPRESENTATION(#1328,#843);
#841=SHAPE_REPRESENTATION('MTSW-101-10-G-S-550',(#844,#861,#888),#1313);
#842=SHAPE_REPRESENTATION('MTSW-101-10-S-550',(#844),#1314);
#843=SHAPE_REPRESENTATION('MTSW-101-10-G-S-550_body',(#844),#1315);
#844=AXIS2_PLACEMENT_3D('',#1087,#889,#890);
#845=AXIS2_PLACEMENT_3D('',#1088,#891,#892);
#846=AXIS2_PLACEMENT_3D('',#1097,#897,#898);
#847=AXIS2_PLACEMENT_3D('',#1106,#903,#904);
#848=AXIS2_PLACEMENT_3D('',#1109,#907,#908);
#849=AXIS2_PLACEMENT_3D('',#1112,#911,#912);
#850=AXIS2_PLACEMENT_3D('',#1113,#913,#914);
#851=AXIS2_PLACEMENT_3D('',#1122,#919,#920);
#852=AXIS2_PLACEMENT_3D('',#1128,#924,#925);
#853=AXIS2_PLACEMENT_3D('',#1142,#933,#934);
#854=AXIS2_PLACEMENT_3D('',#1145,#937,#938);
#855=AXIS2_PLACEMENT_3D('',#1146,#939,#940);
#856=AXIS2_PLACEMENT_3D('',#1147,#941,#942);
#857=AXIS2_PLACEMENT_3D('',#1156,#947,#948);
#858=AXIS2_PLACEMENT_3D('',#1159,#951,#952);
#859=AXIS2_PLACEMENT_3D('',#1162,#955,#956);
#860=AXIS2_PLACEMENT_3D('',#1163,#957,#958);
#861=AXIS2_PLACEMENT_3D('',#1164,#959,#960);
#862=AXIS2_PLACEMENT_3D('',#1165,#961,#962);
#863=AXIS2_PLACEMENT_3D('',#1174,#967,#968);
#864=AXIS2_PLACEMENT_3D('',#1183,#973,#974);
#865=AXIS2_PLACEMENT_3D('',#1192,#979,#980);
#866=AXIS2_PLACEMENT_3D('',#1201,#985,#986);
#867=AXIS2_PLACEMENT_3D('',#1207,#990,#991);
#868=AXIS2_PLACEMENT_3D('',#1213,#995,#996);
#869=AXIS2_PLACEMENT_3D('',#1219,#1000,#1001);
#870=AXIS2_PLACEMENT_3D('',#1225,#1005,#1006);
#871=AXIS2_PLACEMENT_3D('',#1231,#1010,#1011);
#872=AXIS2_PLACEMENT_3D('',#1237,#1015,#1016);
#873=AXIS2_PLACEMENT_3D('',#1243,#1020,#1021);
#874=AXIS2_PLACEMENT_3D('',#1249,#1025,#1026);
#875=AXIS2_PLACEMENT_3D('',#1260,#1033,#1034);
#876=AXIS2_PLACEMENT_3D('',#1271,#1041,#1042);
#877=AXIS2_PLACEMENT_3D('',#1280,#1047,#1048);
#878=AXIS2_PLACEMENT_3D('',#1286,#1052,#1053);
#879=AXIS2_PLACEMENT_3D('',#1292,#1057,#1058);
#880=AXIS2_PLACEMENT_3D('',#1295,#1061,#1062);
#881=AXIS2_PLACEMENT_3D('',#1298,#1065,#1066);
#882=AXIS2_PLACEMENT_3D('',#1301,#1069,#1070);
#883=AXIS2_PLACEMENT_3D('',#1302,#1071,#1072);
#884=AXIS2_PLACEMENT_3D('',#1307,#1077,#1078);
#885=AXIS2_PLACEMENT_3D('',#1308,#1079,#1080);
#886=AXIS2_PLACEMENT_3D('',#1309,#1081,#1082);
#887=AXIS2_PLACEMENT_3D('',#1310,#1083,#1084);
#888=AXIS2_PLACEMENT_3D('',#1311,#1085,#1086);
#889=DIRECTION('',(0.,0.,1.));
#890=DIRECTION('',(1.,0.,0.));
#891=DIRECTION('',(1.,0.,0.));
#892=DIRECTION('',(0.,0.,-1.));
#893=DIRECTION('',(0.,0.,-1.));
#894=DIRECTION('',(0.,-1.,0.));
#895=DIRECTION('',(0.,0.,-1.));
#896=DIRECTION('',(0.,-1.,0.));
#897=DIRECTION('',(-1.,0.,0.));
#898=DIRECTION('',(0.,0.,1.));
#899=DIRECTION('',(0.,0.,1.));
#900=DIRECTION('',(0.,1.,0.));
#901=DIRECTION('',(0.,0.,-1.));
#902=DIRECTION('',(0.,1.,0.));
#903=DIRECTION('',(0.,0.,1.));
#904=DIRECTION('',(1.,0.,0.));
#905=DIRECTION('',(1.,0.,0.));
#906=DIRECTION('',(-1.,0.,0.));
#907=DIRECTION('',(0.,0.,1.));
#908=DIRECTION('',(1.,0.,0.));
#909=DIRECTION('',(1.,0.,0.));
#910=DIRECTION('',(-1.,0.,0.));
#911=DIRECTION('',(0.,-1.,0.));
#912=DIRECTION('',(0.,0.,-1.));
#913=DIRECTION('',(0.,-1.,0.));
#914=DIRECTION('',(0.,0.,-1.));
#915=DIRECTION('',(0.,0.,1.));
#916=DIRECTION('',(-1.,0.,0.));
#917=DIRECTION('',(0.,0.,1.));
#918=DIRECTION('',(-1.,0.,0.));
#919=DIRECTION('',(0.,0.,-1.));
#920=DIRECTION('',(-1.,0.,0.));
#921=DIRECTION('',(0.,-1.,0.));
#922=DIRECTION('',(-1.,0.,0.));
#923=DIRECTION('',(0.,-1.,0.));
#924=DIRECTION('',(0.,1.,0.));
#925=DIRECTION('',(0.,0.,1.));
#926=DIRECTION('',(-1.,0.,0.));
#927=DIRECTION('',(0.,0.,-1.));
#928=DIRECTION('',(-1.,0.,0.));
#929=DIRECTION('',(0.,0.,1.));
#930=DIRECTION('',(0.,0.,-1.));
#931=DIRECTION('',(-1.,0.,0.));
#932=DIRECTION('',(0.,0.,-1.));
#933=DIRECTION('',(0.,0.,1.));
#934=DIRECTION('',(1.,0.,0.));
#935=DIRECTION('',(0.,1.,0.));
#936=DIRECTION('',(0.,1.,0.));
#937=DIRECTION('',(1.,0.,0.));
#938=DIRECTION('',(0.,0.,-1.));
#939=DIRECTION('',(1.,0.,0.));
#940=DIRECTION('',(0.,0.,-1.));
#941=DIRECTION('',(0.,1.,0.));
#942=DIRECTION('',(0.,0.,1.));
#943=DIRECTION('',(1.,0.,0.));
#944=DIRECTION('',(0.,0.,-1.));
#945=DIRECTION('',(1.,0.,0.));
#946=DIRECTION('',(0.,0.,-1.));
#947=DIRECTION('',(0.,0.,1.));
#948=DIRECTION('',(1.,0.,0.));
#949=DIRECTION('',(0.,1.,0.));
#950=DIRECTION('',(0.,-1.,0.));
#951=DIRECTION('',(0.,0.,1.));
#952=DIRECTION('',(1.,0.,0.));
#953=DIRECTION('',(0.,1.,0.));
#954=DIRECTION('',(0.,-1.,0.));
#955=DIRECTION('',(-1.,0.,0.));
#956=DIRECTION('',(0.,0.,1.));
#957=DIRECTION('',(1.,0.,0.));
#958=DIRECTION('',(0.,0.,-1.));
#959=DIRECTION('',(0.,0.,1.));
#960=DIRECTION('',(1.,0.,0.));
#961=DIRECTION('',(0.,1.,0.));
#962=DIRECTION('',(0.,0.,1.));
#963=DIRECTION('',(-1.,0.,0.));
#964=DIRECTION('',(0.,0.,-1.));
#965=DIRECTION('',(1.,0.,0.));
#966=DIRECTION('',(0.,0.,1.));
#967=DIRECTION('',(0.,1.,0.));
#968=DIRECTION('',(0.,0.,1.));
#969=DIRECTION('',(1.,0.,0.));
#970=DIRECTION('',(0.,0.,1.));
#971=DIRECTION('',(-1.,0.,0.));
#972=DIRECTION('',(0.,0.,-1.));
#973=DIRECTION('',(0.,1.,0.));
#974=DIRECTION('',(0.,0.,1.));
#975=DIRECTION('',(-1.,0.,0.));
#976=DIRECTION('',(0.,0.,-1.));
#977=DIRECTION('',(1.,0.,0.));
#978=DIRECTION('',(0.,0.,1.));
#979=DIRECTION('',(0.,1.,0.));
#980=DIRECTION('',(0.,0.,1.));
#981=DIRECTION('',(1.,0.,0.));
#982=DIRECTION('',(0.,0.,1.));
#983=DIRECTION('',(-1.,0.,0.));
#984=DIRECTION('',(0.,0.,-1.));
#985=DIRECTION('',(-1.,0.,0.));
#986=DIRECTION('',(0.,0.,1.));
#987=DIRECTION('',(0.,0.,-1.));
#988=DIRECTION('',(0.,-1.,0.));
#989=DIRECTION('',(0.,1.,0.));
#990=DIRECTION('',(-1.,0.,0.));
#991=DIRECTION('',(0.,0.,1.));
#992=DIRECTION('',(0.,1.,0.));
#993=DIRECTION('',(0.,0.,-1.));
#994=DIRECTION('',(0.,-1.,0.));
#995=DIRECTION('',(1.,0.,0.));
#996=DIRECTION('',(0.,0.,-1.));
#997=DIRECTION('',(0.,1.,0.));
#998=DIRECTION('',(0.,0.,-1.));
#999=DIRECTION('',(0.,-1.,0.));
#1000=DIRECTION('',(1.,0.,0.));
#1001=DIRECTION('',(0.,0.,-1.));
#1002=DIRECTION('',(0.,0.,-1.));
#1003=DIRECTION('',(0.,-1.,0.));
#1004=DIRECTION('',(0.,1.,0.));
#1005=DIRECTION('',(1.,0.,0.));
#1006=DIRECTION('',(0.,0.,-1.));
#1007=DIRECTION('',(0.,1.,0.));
#1008=DIRECTION('',(0.,0.,-1.));
#1009=DIRECTION('',(0.,-1.,0.));
#1010=DIRECTION('',(1.,0.,0.));
#1011=DIRECTION('',(0.,0.,-1.));
#1012=DIRECTION('',(0.,0.,-1.));
#1013=DIRECTION('',(0.,-1.,0.));
#1014=DIRECTION('',(0.,1.,0.));
#1015=DIRECTION('',(-1.,0.,0.));
#1016=DIRECTION('',(0.,0.,1.));
#1017=DIRECTION('',(0.,0.,-1.));
#1018=DIRECTION('',(0.,-1.,0.));
#1019=DIRECTION('',(0.,1.,0.));
#1020=DIRECTION('',(-1.,0.,0.));
#1021=DIRECTION('',(0.,0.,1.));
#1022=DIRECTION('',(0.,1.,0.));
#1023=DIRECTION('',(0.,0.,-1.));
#1024=DIRECTION('',(0.,-1.,0.));
#1025=DIRECTION('',(0.,0.,1.));
#1026=DIRECTION('',(1.,0.,0.));
#1027=DIRECTION('',(1.,0.,0.));
#1028=DIRECTION('',(0.,-1.,0.));
#1029=DIRECTION('',(-1.,0.,0.));
#1030=DIRECTION('',(0.,-1.,0.));
#1031=DIRECTION('',(1.,0.,0.));
#1032=DIRECTION('',(1.,0.,0.));
#1033=DIRECTION('',(0.,0.,-1.));
#1034=DIRECTION('',(-1.,0.,0.));
#1035=DIRECTION('',(-1.,0.,0.));
#1036=DIRECTION('',(-1.,0.,0.));
#1037=DIRECTION('',(0.,-1.,0.));
#1038=DIRECTION('',(1.,0.,0.));
#1039=DIRECTION('',(0.,-1.,0.));
#1040=DIRECTION('',(-1.,0.,0.));
#1041=DIRECTION('',(0.,0.,1.));
#1042=DIRECTION('',(1.,0.,0.));
#1043=DIRECTION('',(0.,-1.,0.));
#1044=DIRECTION('',(1.,0.,0.));
#1045=DIRECTION('',(0.,-1.,0.));
#1046=DIRECTION('',(-1.,0.,0.));
#1047=DIRECTION('',(-1.,0.,0.));
#1048=DIRECTION('',(0.,0.,1.));
#1049=DIRECTION('',(0.,0.,1.));
#1050=DIRECTION('',(0.,-1.,0.));
#1051=DIRECTION('',(0.,0.,-1.));
#1052=DIRECTION('',(0.,0.,-1.));
#1053=DIRECTION('',(-1.,0.,0.));
#1054=DIRECTION('',(-1.,0.,0.));
#1055=DIRECTION('',(0.,-1.,0.));
#1056=DIRECTION('',(1.,0.,0.));
#1057=DIRECTION('',(1.,0.,0.));
#1058=DIRECTION('',(0.,0.,-1.));
#1059=DIRECTION('',(0.,0.,-1.));
#1060=DIRECTION('',(0.,0.,1.));
#1061=DIRECTION('',(-1.,0.,0.));
#1062=DIRECTION('',(0.,0.,1.));
#1063=DIRECTION('',(0.,0.,1.));
#1064=DIRECTION('',(0.,0.,-1.));
#1065=DIRECTION('',(1.,0.,0.));
#1066=DIRECTION('',(0.,0.,-1.));
#1067=DIRECTION('',(0.,0.,-1.));
#1068=DIRECTION('',(0.,0.,1.));
#1069=DIRECTION('',(0.,1.,0.));
#1070=DIRECTION('',(0.,0.,1.));
#1071=DIRECTION('',(0.,-1.,0.));
#1072=DIRECTION('',(0.,0.,-1.));
#1073=DIRECTION('',(-1.,0.,0.));
#1074=DIRECTION('',(-1.,0.,0.));
#1075=DIRECTION('',(-1.,0.,0.));
#1076=DIRECTION('',(-1.,0.,0.));
#1077=DIRECTION('',(0.,0.,1.));
#1078=DIRECTION('',(1.,0.,0.));
#1079=DIRECTION('',(0.,0.,-1.));
#1080=DIRECTION('',(-1.,0.,0.));
#1081=DIRECTION('',(0.,0.,-1.));
#1082=DIRECTION('',(-1.,0.,0.));
#1083=DIRECTION('',(0.,0.,1.));
#1084=DIRECTION('',(1.,0.,0.));
#1085=DIRECTION('',(0.,0.,1.));
#1086=DIRECTION('',(1.,0.,0.));
#1087=CARTESIAN_POINT('',(0.,0.,0.));
#1088=CARTESIAN_POINT('',(-0.0125,0.83,0.0125));
#1089=CARTESIAN_POINT('',(-0.0125,0.235,0.0125));
#1090=CARTESIAN_POINT('',(-0.0125,0.235,0.0125));
#1091=CARTESIAN_POINT('',(-0.0125,0.235,-0.0125));
#1092=CARTESIAN_POINT('',(-0.0125,0.83,0.0125));
#1093=CARTESIAN_POINT('',(-0.0125,0.83,0.0125));
#1094=CARTESIAN_POINT('',(-0.0125,0.83,0.0125));
#1095=CARTESIAN_POINT('',(-0.0125,0.83,-0.0125));
#1096=CARTESIAN_POINT('',(-0.0125,0.83,-0.0125));
#1097=CARTESIAN_POINT('',(0.0125,0.,0.0125));
#1098=CARTESIAN_POINT('',(0.0125,0.235,0.0125));
#1099=CARTESIAN_POINT('',(0.0125,0.235,-0.0125));
#1100=CARTESIAN_POINT('',(0.0125,0.235,0.0125));
#1101=CARTESIAN_POINT('',(0.0125,0.,-0.0125));
#1102=CARTESIAN_POINT('',(0.0125,0.83,-0.0125));
#1103=CARTESIAN_POINT('',(0.0125,0.83,0.0125));
#1104=CARTESIAN_POINT('',(0.0125,0.83,0.0125));
#1105=CARTESIAN_POINT('',(0.0125,0.,0.0125));
#1106=CARTESIAN_POINT('',(0.,0.,0.0125));
#1107=CARTESIAN_POINT('',(0.,0.235,0.0125));
#1108=CARTESIAN_POINT('',(0.0125,0.83,0.0125));
#1109=CARTESIAN_POINT('',(0.,0.,-0.0125));
#1110=CARTESIAN_POINT('',(0.,0.235,-0.0125));
#1111=CARTESIAN_POINT('',(0.0125,0.83,-0.0125));
#1112=CARTESIAN_POINT('',(0.0125,0.83,0.0125));
#1113=CARTESIAN_POINT('',(0.0175,0.235,-0.0175));
#1114=CARTESIAN_POINT('',(-0.0175,0.235,-0.0175));
#1115=CARTESIAN_POINT('',(-0.0175,0.235,-0.0175));
#1116=CARTESIAN_POINT('',(-0.0175,0.235,0.0175));
#1117=CARTESIAN_POINT('',(0.0175,0.235,0.0175));
#1118=CARTESIAN_POINT('',(0.0175,0.235,0.0175));
#1119=CARTESIAN_POINT('',(0.0175,0.235,-0.0175));
#1120=CARTESIAN_POINT('',(0.0175,0.235,-0.0175));
#1121=CARTESIAN_POINT('',(0.0175,0.235,-0.0175));
#1122=CARTESIAN_POINT('',(0.0175,0.235,0.0175));
#1123=CARTESIAN_POINT('',(-0.0175,0.235,0.0175));
#1124=CARTESIAN_POINT('',(-0.0175,0.23,0.0175));
#1125=CARTESIAN_POINT('',(0.0175,0.23,0.0175));
#1126=CARTESIAN_POINT('',(0.0175,0.23,0.0175));
#1127=CARTESIAN_POINT('',(0.0175,0.235,0.0175));
#1128=CARTESIAN_POINT('',(0.0175,0.23,0.0175));
#1129=CARTESIAN_POINT('',(0.,0.23,0.0125));
#1130=CARTESIAN_POINT('',(0.0125,0.23,0.0125));
#1131=CARTESIAN_POINT('',(-0.0125,0.23,0.0125));
#1132=CARTESIAN_POINT('',(0.0125,0.23,0.0125));
#1133=CARTESIAN_POINT('',(0.0125,0.23,-0.0125));
#1134=CARTESIAN_POINT('',(0.,0.23,-0.0125));
#1135=CARTESIAN_POINT('',(-0.0125,0.23,-0.0125));
#1136=CARTESIAN_POINT('',(-0.0125,0.23,0.0125));
#1137=CARTESIAN_POINT('',(-0.0175,0.23,0.0175));
#1138=CARTESIAN_POINT('',(-0.0175,0.23,-0.0175));
#1139=CARTESIAN_POINT('',(0.0175,0.23,-0.0175));
#1140=CARTESIAN_POINT('',(0.0175,0.23,-0.0175));
#1141=CARTESIAN_POINT('',(0.0175,0.23,0.0175));
#1142=CARTESIAN_POINT('',(0.0175,0.23,-0.0175));
#1143=CARTESIAN_POINT('',(-0.0175,0.23,-0.0175));
#1144=CARTESIAN_POINT('',(0.0175,0.23,-0.0175));
#1145=CARTESIAN_POINT('',(0.0175,0.,0.));
#1146=CARTESIAN_POINT('',(-0.0175,0.,0.));
#1147=CARTESIAN_POINT('',(-0.0125,0.,0.0125));
#1148=CARTESIAN_POINT('',(-0.0125,0.,-0.0125));
#1149=CARTESIAN_POINT('',(-0.0125,0.,-0.0125));
#1150=CARTESIAN_POINT('',(0.0125,0.,-0.0125));
#1151=CARTESIAN_POINT('',(0.0125,0.,0.0125));
#1152=CARTESIAN_POINT('',(0.0125,0.,0.0125));
#1153=CARTESIAN_POINT('',(-0.0125,0.,0.0125));
#1154=CARTESIAN_POINT('',(-0.0125,0.,0.0125));
#1155=CARTESIAN_POINT('',(-0.0125,0.,0.0125));
#1156=CARTESIAN_POINT('',(0.,0.,-0.0125));
#1157=CARTESIAN_POINT('',(0.0125,0.,-0.0125));
#1158=CARTESIAN_POINT('',(-0.0125,0.83,-0.0125));
#1159=CARTESIAN_POINT('',(0.,0.,0.0125));
#1160=CARTESIAN_POINT('',(0.0125,0.,0.0125));
#1161=CARTESIAN_POINT('',(-0.0125,0.83,0.0125));
#1162=CARTESIAN_POINT('',(0.0125,0.,0.0125));
#1163=CARTESIAN_POINT('',(-0.0125,0.83,0.0125));
#1164=CARTESIAN_POINT('',(0.,-0.18,0.));
#1165=CARTESIAN_POINT('',(0.,0.,0.));
#1166=CARTESIAN_POINT('',(0.,0.,0.033));
#1167=CARTESIAN_POINT('',(-0.0226,0.,0.033));
#1168=CARTESIAN_POINT('',(-0.0396,0.,0.033));
#1169=CARTESIAN_POINT('',(-0.0226,0.,0.));
#1170=CARTESIAN_POINT('',(-0.0226,0.,0.05));
#1171=CARTESIAN_POINT('',(-0.05,0.,0.05));
#1172=CARTESIAN_POINT('',(-0.0396,0.,0.05));
#1173=CARTESIAN_POINT('',(-0.0396,0.,0.));
#1174=CARTESIAN_POINT('',(0.,0.,0.));
#1175=CARTESIAN_POINT('',(0.,0.,-0.033));
#1176=CARTESIAN_POINT('',(-0.0396,0.,-0.033));
#1177=CARTESIAN_POINT('',(-0.0226,0.,-0.033));
#1178=CARTESIAN_POINT('',(-0.0396,0.,0.));
#1179=CARTESIAN_POINT('',(-0.0396,0.,-0.05));
#1180=CARTESIAN_POINT('',(0.05,0.,-0.05));
#1181=CARTESIAN_POINT('',(-0.0226,0.,-0.05));
#1182=CARTESIAN_POINT('',(-0.0226,0.,0.));
#1183=CARTESIAN_POINT('',(0.,0.,0.));
#1184=CARTESIAN_POINT('',(0.,0.,0.033));
#1185=CARTESIAN_POINT('',(0.0396,0.,0.033));
#1186=CARTESIAN_POINT('',(0.0226,0.,0.033));
#1187=CARTESIAN_POINT('',(0.0396,0.,0.));
#1188=CARTESIAN_POINT('',(0.0396,0.,0.05));
#1189=CARTESIAN_POINT('',(-0.05,0.,0.05));
#1190=CARTESIAN_POINT('',(0.0226,0.,0.05));
#1191=CARTESIAN_POINT('',(0.0226,0.,0.));
#1192=CARTESIAN_POINT('',(0.,0.,0.));
#1193=CARTESIAN_POINT('',(0.,0.,-0.033));
#1194=CARTESIAN_POINT('',(0.0226,0.,-0.033));
#1195=CARTESIAN_POINT('',(0.0396,0.,-0.033));
#1196=CARTESIAN_POINT('',(0.0226,0.,0.));
#1197=CARTESIAN_POINT('',(0.0226,0.,-0.05));
#1198=CARTESIAN_POINT('',(0.05,0.,-0.05));
#1199=CARTESIAN_POINT('',(0.0396,0.,-0.05));
#1200=CARTESIAN_POINT('',(0.0396,0.,0.));
#1201=CARTESIAN_POINT('',(-0.0396,-0.01,0.1));
#1202=CARTESIAN_POINT('',(-0.0396,0.02,0.1));
#1203=CARTESIAN_POINT('',(-0.0396,0.02,0.05));
#1204=CARTESIAN_POINT('',(-0.0396,0.02,0.033));
#1205=CARTESIAN_POINT('',(-0.0396,-0.01,0.033));
#1206=CARTESIAN_POINT('',(-0.0396,0.1,0.05));
#1207=CARTESIAN_POINT('',(-0.0396,-0.01,0.1));
#1208=CARTESIAN_POINT('',(-0.0396,-0.01,-0.033));
#1209=CARTESIAN_POINT('',(-0.0396,0.02,-0.033));
#1210=CARTESIAN_POINT('',(-0.0396,0.02,0.1));
#1211=CARTESIAN_POINT('',(-0.0396,0.02,-0.05));
#1212=CARTESIAN_POINT('',(-0.0396,0.1,-0.05));
#1213=CARTESIAN_POINT('',(0.0396,0.02,0.1));
#1214=CARTESIAN_POINT('',(0.0396,0.02,0.033));
#1215=CARTESIAN_POINT('',(0.0396,0.02,0.033));
#1216=CARTESIAN_POINT('',(0.0396,0.02,0.1));
#1217=CARTESIAN_POINT('',(0.0396,0.02,0.05));
#1218=CARTESIAN_POINT('',(0.0396,0.1,0.05));
#1219=CARTESIAN_POINT('',(0.0396,0.02,0.1));
#1220=CARTESIAN_POINT('',(0.0396,0.02,0.1));
#1221=CARTESIAN_POINT('',(0.0396,0.02,-0.033));
#1222=CARTESIAN_POINT('',(0.0396,0.02,-0.05));
#1223=CARTESIAN_POINT('',(0.0396,0.02,-0.033));
#1224=CARTESIAN_POINT('',(0.0396,0.1,-0.05));
#1225=CARTESIAN_POINT('',(-0.0226,0.02,0.1));
#1226=CARTESIAN_POINT('',(-0.0226,0.02,0.033));
#1227=CARTESIAN_POINT('',(-0.0226,0.02,0.033));
#1228=CARTESIAN_POINT('',(-0.0226,0.02,0.1));
#1229=CARTESIAN_POINT('',(-0.0226,0.02,0.05));
#1230=CARTESIAN_POINT('',(-0.0226,0.1,0.05));
#1231=CARTESIAN_POINT('',(-0.0226,0.02,0.1));
#1232=CARTESIAN_POINT('',(-0.0226,0.02,0.1));
#1233=CARTESIAN_POINT('',(-0.0226,0.02,-0.033));
#1234=CARTESIAN_POINT('',(-0.0226,0.02,-0.05));
#1235=CARTESIAN_POINT('',(-0.0226,0.02,-0.033));
#1236=CARTESIAN_POINT('',(-0.0226,0.1,-0.05));
#1237=CARTESIAN_POINT('',(0.0226,-0.01,0.1));
#1238=CARTESIAN_POINT('',(0.0226,0.02,0.1));
#1239=CARTESIAN_POINT('',(0.0226,0.02,0.05));
#1240=CARTESIAN_POINT('',(0.0226,0.02,0.033));
#1241=CARTESIAN_POINT('',(0.0226,-0.01,0.033));
#1242=CARTESIAN_POINT('',(0.0226,0.1,0.05));
#1243=CARTESIAN_POINT('',(0.0226,-0.01,0.1));
#1244=CARTESIAN_POINT('',(0.0226,-0.01,-0.033));
#1245=CARTESIAN_POINT('',(0.0226,0.02,-0.033));
#1246=CARTESIAN_POINT('',(0.0226,0.02,0.1));
#1247=CARTESIAN_POINT('',(0.0226,0.02,-0.05));
#1248=CARTESIAN_POINT('',(0.0226,0.1,-0.05));
#1249=CARTESIAN_POINT('',(0.05,0.1,-0.05));
#1250=CARTESIAN_POINT('',(0.05,0.02,-0.05));
#1251=CARTESIAN_POINT('',(-0.05,0.02,-0.05));
#1252=CARTESIAN_POINT('',(-0.05,0.1,-0.05));
#1253=CARTESIAN_POINT('',(-0.05,0.1,-0.05));
#1254=CARTESIAN_POINT('',(0.05,0.1,-0.05));
#1255=CARTESIAN_POINT('',(0.05,0.1,-0.05));
#1256=CARTESIAN_POINT('',(0.05,0.1,-0.05));
#1257=CARTESIAN_POINT('',(0.05,0.02,-0.05));
#1258=CARTESIAN_POINT('',(0.05,0.02,-0.05));
#1259=CARTESIAN_POINT('',(0.05,0.02,-0.05));
#1260=CARTESIAN_POINT('',(-0.05,0.1,0.05));
#1261=CARTESIAN_POINT('',(-0.05,0.02,0.05));
#1262=CARTESIAN_POINT('',(-0.05,0.02,0.05));
#1263=CARTESIAN_POINT('',(0.05,0.02,0.05));
#1264=CARTESIAN_POINT('',(0.05,0.1,0.05));
#1265=CARTESIAN_POINT('',(0.05,0.1,0.05));
#1266=CARTESIAN_POINT('',(-0.05,0.1,0.05));
#1267=CARTESIAN_POINT('',(-0.05,0.1,0.05));
#1268=CARTESIAN_POINT('',(-0.05,0.1,0.05));
#1269=CARTESIAN_POINT('',(-0.05,0.02,0.05));
#1270=CARTESIAN_POINT('',(-0.05,0.02,0.05));
#1271=CARTESIAN_POINT('',(0.0125,0.1,-0.0125));
#1272=CARTESIAN_POINT('',(-0.0125,0.1,-0.0125));
#1273=CARTESIAN_POINT('',(-0.0125,0.1,-0.0125));
#1274=CARTESIAN_POINT('',(-0.0125,0.02,-0.0125));
#1275=CARTESIAN_POINT('',(0.0125,0.02,-0.0125));
#1276=CARTESIAN_POINT('',(0.0125,0.02,-0.0125));
#1277=CARTESIAN_POINT('',(0.0125,0.1,-0.0125));
#1278=CARTESIAN_POINT('',(0.0125,0.1,-0.0125));
#1279=CARTESIAN_POINT('',(0.0125,0.1,-0.0125));
#1280=CARTESIAN_POINT('',(0.0125,0.1,0.0125));
#1281=CARTESIAN_POINT('',(0.0125,0.02,0.0125));
#1282=CARTESIAN_POINT('',(0.0125,0.02,0.0125));
#1283=CARTESIAN_POINT('',(0.0125,0.1,0.0125));
#1284=CARTESIAN_POINT('',(0.0125,0.1,0.0125));
#1285=CARTESIAN_POINT('',(0.0125,0.1,0.0125));
#1286=CARTESIAN_POINT('',(-0.0125,0.1,0.0125));
#1287=CARTESIAN_POINT('',(-0.0125,0.02,0.0125));
#1288=CARTESIAN_POINT('',(-0.0125,0.02,0.0125));
#1289=CARTESIAN_POINT('',(-0.0125,0.1,0.0125));
#1290=CARTESIAN_POINT('',(-0.0125,0.1,0.0125));
#1291=CARTESIAN_POINT('',(-0.0125,0.1,0.0125));
#1292=CARTESIAN_POINT('',(-0.0125,0.1,-0.0125));
#1293=CARTESIAN_POINT('',(-0.0125,0.02,-0.0125));
#1294=CARTESIAN_POINT('',(-0.0125,0.1,-0.0125));
#1295=CARTESIAN_POINT('',(0.05,0.1,0.05));
#1296=CARTESIAN_POINT('',(0.05,0.02,0.05));
#1297=CARTESIAN_POINT('',(0.05,0.1,0.05));
#1298=CARTESIAN_POINT('',(-0.05,0.1,-0.05));
#1299=CARTESIAN_POINT('',(-0.05,0.02,-0.05));
#1300=CARTESIAN_POINT('',(-0.05,0.1,-0.05));
#1301=CARTESIAN_POINT('',(0.,0.1,0.));
#1302=CARTESIAN_POINT('',(-0.0396,0.02,0.1));
#1303=CARTESIAN_POINT('',(0.1,0.02,0.033));
#1304=CARTESIAN_POINT('',(0.1,0.02,-0.033));
#1305=CARTESIAN_POINT('',(0.1,0.02,-0.033));
#1306=CARTESIAN_POINT('',(0.1,0.02,0.033));
#1307=CARTESIAN_POINT('',(0.1,-0.01,-0.033));
#1308=CARTESIAN_POINT('',(0.1,0.02,0.033));
#1309=CARTESIAN_POINT('',(0.1,0.02,0.033));
#1310=CARTESIAN_POINT('',(0.1,-0.01,-0.033));
#1311=CARTESIAN_POINT('',(0.,0.,0.));
#1312=MECHANICAL_DESIGN_GEOMETRIC_PRESENTATION_REPRESENTATION('',(#821,
#822),#1313);
#1313=(
GEOMETRIC_REPRESENTATION_CONTEXT(3)
GLOBAL_UNCERTAINTY_ASSIGNED_CONTEXT((#1316))
GLOBAL_UNIT_ASSIGNED_CONTEXT((#1321,#1320,#1319))
REPRESENTATION_CONTEXT('MTSW-101-10-G-S-550','TOP_LEVEL_ASSEMBLY_PART')
);
#1314=(
GEOMETRIC_REPRESENTATION_CONTEXT(3)
GLOBAL_UNCERTAINTY_ASSIGNED_CONTEXT((#1317))
GLOBAL_UNIT_ASSIGNED_CONTEXT((#1321,#1320,#1319))
REPRESENTATION_CONTEXT('MTSW-101-10-S-550','COMPONENT_PART')
);
#1315=(
GEOMETRIC_REPRESENTATION_CONTEXT(3)
GLOBAL_UNCERTAINTY_ASSIGNED_CONTEXT((#1318))
GLOBAL_UNIT_ASSIGNED_CONTEXT((#1321,#1320,#1319))
REPRESENTATION_CONTEXT('MTSW-101-10-G-S-550_body','COMPONENT_PART')
);
#1316=UNCERTAINTY_MEASURE_WITH_UNIT(LENGTH_MEASURE(0.000196850393700787),
#1321,'DISTANCE_ACCURACY_VALUE','Maximum Tolerance applied to model');
#1317=UNCERTAINTY_MEASURE_WITH_UNIT(LENGTH_MEASURE(0.000196850393700787),
#1321,'DISTANCE_ACCURACY_VALUE','Maximum Tolerance applied to model');
#1318=UNCERTAINTY_MEASURE_WITH_UNIT(LENGTH_MEASURE(0.000196850393700787),
#1321,'DISTANCE_ACCURACY_VALUE','Maximum Tolerance applied to model');
#1319=(
NAMED_UNIT(*)
SI_UNIT($,.STERADIAN.)
SOLID_ANGLE_UNIT()
);
#1320=(
NAMED_UNIT(*)
PLANE_ANGLE_UNIT()
SI_UNIT($,.RADIAN.)
);
#1321=(
CONVERSION_BASED_UNIT('INCH',#1323)
LENGTH_UNIT()
NAMED_UNIT(#1322)
);
#1322=DIMENSIONAL_EXPONENTS(1.,0.,0.,0.,0.,0.,0.);
#1323=LENGTH_MEASURE_WITH_UNIT(LENGTH_MEASURE(25.4),#1324);
#1324=(
LENGTH_UNIT()
NAMED_UNIT(*)
SI_UNIT(.MILLI.,.METRE.)
);
#1325=PRODUCT_DEFINITION_SHAPE('','',#1330);
#1326=PRODUCT_DEFINITION_SHAPE('','',#1331);
#1327=PRODUCT_DEFINITION_SHAPE(' ','NAUO PRDDFN',#21);
#1328=PRODUCT_DEFINITION_SHAPE('','',#1332);
#1329=PRODUCT_DEFINITION_SHAPE(' ','NAUO PRDDFN',#22);
#1330=PRODUCT_DEFINITION('','',#1336,#1333);
#1331=PRODUCT_DEFINITION('','',#1337,#1334);
#1332=PRODUCT_DEFINITION('','',#1338,#1335);
#1333=DESIGN_CONTEXT('',#1352,'design');
#1334=DESIGN_CONTEXT('',#1352,'design');
#1335=DESIGN_CONTEXT('',#1352,'design');
#1336=PRODUCT_DEFINITION_FORMATION_WITH_SPECIFIED_SOURCE('','',#1342,
 .NOT_KNOWN.);
#1337=PRODUCT_DEFINITION_FORMATION_WITH_SPECIFIED_SOURCE('','',#1343,
 .NOT_KNOWN.);
#1338=PRODUCT_DEFINITION_FORMATION_WITH_SPECIFIED_SOURCE('','',#1344,
 .NOT_KNOWN.);
#1339=PRODUCT_RELATED_PRODUCT_CATEGORY('','',(#1342));
#1340=PRODUCT_RELATED_PRODUCT_CATEGORY('','',(#1343));
#1341=PRODUCT_RELATED_PRODUCT_CATEGORY('','',(#1344));
#1342=PRODUCT('MTSW-101-10-G-S-550','MTSW-101-10-G-S-550',
'MTSW-101-10-G-S-550',(#1348));
#1343=PRODUCT('MTSW-101-10-S-550','MTSW-101-10-S-550',
'MTSW-101-10-S-550',(#1349));
#1344=PRODUCT('MTSW-101-10-G-S-550_body','MTSW-101-10-G-S-550_body',
'MTSW-101-10-G-S-550_body',(#1350));
#1345=PRODUCT_CATEGORY('','');
#1346=PRODUCT_CATEGORY('','');
#1347=PRODUCT_CATEGORY('','');
#1348=MECHANICAL_CONTEXT('',#1352,'mechanical');
#1349=MECHANICAL_CONTEXT('',#1352,'mechanical');
#1350=MECHANICAL_CONTEXT('',#1352,'mechanical');
#1351=APPLICATION_PROTOCOL_DEFINITION('international standard',
'config_control_design',2010,#1352);
#1352=APPLICATION_CONTEXT(
'configuration controlled 3D designs of mechanical parts and assemblie
s');
ENDSEC;
END-ISO-10303-21;
