ISO-10303-21;
HEADER;
FILE_DESCRIPTION(('FreeCAD Model'),'2;1');
FILE_NAME('Open CASCADE Shape Model','2023-01-30T19:16:27',(''),(''),
  'Open CASCADE STEP processor 7.6','FreeCAD','Unknown');
FILE_SCHEMA(('AUTOMOTIVE_DESIGN { 1 0 10303 214 1 1 1 1 }'));
ENDSEC;
DATA;
#1 = APPLICATION_PROTOCOL_DEFINITION('international standard',
  'automotive_design',2000,#2);
#2 = APPLICATION_CONTEXT(
  'core data for automotive mechanical design processes');
#3 = SHAPE_DEFINITION_REPRESENTATION(#4,#10);
#4 = PRODUCT_DEFINITION_SHAPE('','',#5);
#5 = PRODUCT_DEFINITION('design','',#6,#9);
#6 = PRODUCT_DEFINITION_FORMATION('','',#7);
#7 = PRODUCT('Final Part','Final Part','',(#8));
#8 = PRODUCT_CONTEXT('',#2,'mechanical');
#9 = PRODUCT_DEFINITION_CONTEXT('part definition',#2,'design');
#10 = ADVANCED_BREP_SHAPE_REPRESENTATION('',(#11,#15),#1094);
#11 = AXIS2_PLACEMENT_3D('',#12,#13,#14);
#12 = CARTESIAN_POINT('',(0.,0.,0.));
#13 = DIRECTION('',(0.,0.,1.));
#14 = DIRECTION('',(1.,0.,-0.));
#15 = MANIFOLD_SOLID_BREP('',#16);
#16 = CLOSED_SHELL('',(#17,#121,#163,#219,#250,#281,#360,#425,#449,#466,
    #497,#537,#568,#591,#615,#639,#668,#713,#744,#772,#789,#806,#828,
    #850,#872,#884,#908,#920,#944,#963,#972,#984,#996,#1020,#1037,#1049,
    #1069,#1081));
#17 = ADVANCED_FACE('',(#18),#116,.F.);
#18 = FACE_BOUND('',#19,.F.);
#19 = EDGE_LOOP('',(#20,#30,#38,#46,#54,#62,#70,#78,#86,#94,#102,#110));
#20 = ORIENTED_EDGE('',*,*,#21,.T.);
#21 = EDGE_CURVE('',#22,#24,#26,.T.);
#22 = VERTEX_POINT('',#23);
#23 = CARTESIAN_POINT('',(0.585000000001,0.584999999998,3.6));
#24 = VERTEX_POINT('',#25);
#25 = CARTESIAN_POINT('',(0.585000000001,2.049999999997,3.6));
#26 = LINE('',#27,#28);
#27 = CARTESIAN_POINT('',(0.585000000001,0.584999999998,3.6));
#28 = VECTOR('',#29,1.);
#29 = DIRECTION('',(0.,1.,0.));
#30 = ORIENTED_EDGE('',*,*,#31,.T.);
#31 = EDGE_CURVE('',#24,#32,#34,.T.);
#32 = VERTEX_POINT('',#33);
#33 = CARTESIAN_POINT('',(-0.585000000001,2.049999999997,3.6));
#34 = LINE('',#35,#36);
#35 = CARTESIAN_POINT('',(0.585000000001,2.049999999997,3.6));
#36 = VECTOR('',#37,1.);
#37 = DIRECTION('',(-1.,0.,0.));
#38 = ORIENTED_EDGE('',*,*,#39,.T.);
#39 = EDGE_CURVE('',#32,#40,#42,.T.);
#40 = VERTEX_POINT('',#41);
#41 = CARTESIAN_POINT('',(-0.585000000001,0.584999999998,3.6));
#42 = LINE('',#43,#44);
#43 = CARTESIAN_POINT('',(-0.585000000001,2.049999999997,3.6));
#44 = VECTOR('',#45,1.);
#45 = DIRECTION('',(0.,-1.,0.));
#46 = ORIENTED_EDGE('',*,*,#47,.T.);
#47 = EDGE_CURVE('',#40,#48,#50,.T.);
#48 = VERTEX_POINT('',#49);
#49 = CARTESIAN_POINT('',(-2.05,0.584999999998,3.6));
#50 = LINE('',#51,#52);
#51 = CARTESIAN_POINT('',(-0.585000000001,0.584999999998,3.6));
#52 = VECTOR('',#53,1.);
#53 = DIRECTION('',(-1.,0.,0.));
#54 = ORIENTED_EDGE('',*,*,#55,.T.);
#55 = EDGE_CURVE('',#48,#56,#58,.T.);
#56 = VERTEX_POINT('',#57);
#57 = CARTESIAN_POINT('',(-2.05,-0.584999999998,3.6));
#58 = LINE('',#59,#60);
#59 = CARTESIAN_POINT('',(-2.05,0.584999999998,3.6));
#60 = VECTOR('',#61,1.);
#61 = DIRECTION('',(0.,-1.,0.));
#62 = ORIENTED_EDGE('',*,*,#63,.T.);
#63 = EDGE_CURVE('',#56,#64,#66,.T.);
#64 = VERTEX_POINT('',#65);
#65 = CARTESIAN_POINT('',(-0.585000000001,-0.584999999998,3.6));
#66 = LINE('',#67,#68);
#67 = CARTESIAN_POINT('',(-2.05,-0.584999999998,3.6));
#68 = VECTOR('',#69,1.);
#69 = DIRECTION('',(1.,0.,0.));
#70 = ORIENTED_EDGE('',*,*,#71,.T.);
#71 = EDGE_CURVE('',#64,#72,#74,.T.);
#72 = VERTEX_POINT('',#73);
#73 = CARTESIAN_POINT('',(-0.585000000001,-2.049999999997,3.6));
#74 = LINE('',#75,#76);
#75 = CARTESIAN_POINT('',(-0.585000000001,-0.584999999998,3.6));
#76 = VECTOR('',#77,1.);
#77 = DIRECTION('',(0.,-1.,0.));
#78 = ORIENTED_EDGE('',*,*,#79,.T.);
#79 = EDGE_CURVE('',#72,#80,#82,.T.);
#80 = VERTEX_POINT('',#81);
#81 = CARTESIAN_POINT('',(0.584999999999,-2.049999999997,3.6));
#82 = LINE('',#83,#84);
#83 = CARTESIAN_POINT('',(-0.585000000001,-2.049999999997,3.6));
#84 = VECTOR('',#85,1.);
#85 = DIRECTION('',(1.,0.,0.));
#86 = ORIENTED_EDGE('',*,*,#87,.T.);
#87 = EDGE_CURVE('',#80,#88,#90,.T.);
#88 = VERTEX_POINT('',#89);
#89 = CARTESIAN_POINT('',(0.584999999999,-0.585000000004,3.6));
#90 = LINE('',#91,#92);
#91 = CARTESIAN_POINT('',(0.584999999999,-2.049999999997,3.6));
#92 = VECTOR('',#93,1.);
#93 = DIRECTION('',(0.,1.,0.));
#94 = ORIENTED_EDGE('',*,*,#95,.T.);
#95 = EDGE_CURVE('',#88,#96,#98,.T.);
#96 = VERTEX_POINT('',#97);
#97 = CARTESIAN_POINT('',(2.05,-0.585000000004,3.6));
#98 = LINE('',#99,#100);
#99 = CARTESIAN_POINT('',(0.584999999999,-0.585000000004,3.6));
#100 = VECTOR('',#101,1.);
#101 = DIRECTION('',(1.,0.,0.));
#102 = ORIENTED_EDGE('',*,*,#103,.T.);
#103 = EDGE_CURVE('',#96,#104,#106,.T.);
#104 = VERTEX_POINT('',#105);
#105 = CARTESIAN_POINT('',(2.05,0.584999999998,3.6));
#106 = LINE('',#107,#108);
#107 = CARTESIAN_POINT('',(2.05,-0.585000000004,3.6));
#108 = VECTOR('',#109,1.);
#109 = DIRECTION('',(0.,1.,0.));
#110 = ORIENTED_EDGE('',*,*,#111,.T.);
#111 = EDGE_CURVE('',#104,#22,#112,.T.);
#112 = LINE('',#113,#114);
#113 = CARTESIAN_POINT('',(2.05,0.584999999998,3.6));
#114 = VECTOR('',#115,1.);
#115 = DIRECTION('',(-1.,0.,0.));
#116 = PLANE('',#117);
#117 = AXIS2_PLACEMENT_3D('',#118,#119,#120);
#118 = CARTESIAN_POINT('',(4.0044E-13,-4.0041E-13,3.6));
#119 = DIRECTION('',(0.,0.,1.));
#120 = DIRECTION('',(1.,0.,0.));
#121 = ADVANCED_FACE('',(#122),#158,.T.);
#122 = FACE_BOUND('',#123,.F.);
#123 = EDGE_LOOP('',(#124,#133,#141,#150,#157));
#124 = ORIENTED_EDGE('',*,*,#125,.F.);
#125 = EDGE_CURVE('',#126,#126,#128,.T.);
#126 = VERTEX_POINT('',#127);
#127 = CARTESIAN_POINT('',(2.75,0.,0.));
#128 = CIRCLE('',#129,2.75);
#129 = AXIS2_PLACEMENT_3D('',#130,#131,#132);
#130 = CARTESIAN_POINT('',(0.,0.,0.));
#131 = DIRECTION('',(0.,0.,1.));
#132 = DIRECTION('',(1.,0.,0.));
#133 = ORIENTED_EDGE('',*,*,#134,.T.);
#134 = EDGE_CURVE('',#126,#135,#137,.T.);
#135 = VERTEX_POINT('',#136);
#136 = CARTESIAN_POINT('',(2.75,0.,7.6));
#137 = LINE('',#138,#139);
#138 = CARTESIAN_POINT('',(2.75,0.,0.));
#139 = VECTOR('',#140,1.);
#140 = DIRECTION('',(0.,0.,1.));
#141 = ORIENTED_EDGE('',*,*,#142,.T.);
#142 = EDGE_CURVE('',#135,#143,#145,.T.);
#143 = VERTEX_POINT('',#144);
#144 = CARTESIAN_POINT('',(-2.75,0.,7.6));
#145 = ELLIPSE('',#146,2.811436635879,2.75);
#146 = AXIS2_PLACEMENT_3D('',#147,#148,#149);
#147 = CARTESIAN_POINT('',(0.,0.,7.6));
#148 = DIRECTION('',(0.,-0.207911690818,0.978147600734));
#149 = DIRECTION('',(0.,-0.978147600734,-0.207911690818));
#150 = ORIENTED_EDGE('',*,*,#151,.F.);
#151 = EDGE_CURVE('',#135,#143,#152,.T.);
#152 = ELLIPSE('',#153,2.811436635879,2.75);
#153 = AXIS2_PLACEMENT_3D('',#154,#155,#156);
#154 = CARTESIAN_POINT('',(0.,0.,7.6));
#155 = DIRECTION('',(0.,0.207911690818,-0.978147600734));
#156 = DIRECTION('',(0.,-0.978147600734,-0.207911690818));
#157 = ORIENTED_EDGE('',*,*,#134,.F.);
#158 = CYLINDRICAL_SURFACE('',#159,2.75);
#159 = AXIS2_PLACEMENT_3D('',#160,#161,#162);
#160 = CARTESIAN_POINT('',(0.,0.,0.));
#161 = DIRECTION('',(-0.,-0.,-1.));
#162 = DIRECTION('',(1.,0.,0.));
#163 = ADVANCED_FACE('',(#164),#214,.F.);
#164 = FACE_BOUND('',#165,.F.);
#165 = EDGE_LOOP('',(#166,#176,#184,#192,#200,#208));
#166 = ORIENTED_EDGE('',*,*,#167,.F.);
#167 = EDGE_CURVE('',#168,#170,#172,.T.);
#168 = VERTEX_POINT('',#169);
#169 = CARTESIAN_POINT('',(-0.6,1.564814858527,12.021974045439));
#170 = VERTEX_POINT('',#171);
#171 = CARTESIAN_POINT('',(-0.6,-0.244758202831,11.637337417426));
#172 = LINE('',#173,#174);
#173 = CARTESIAN_POINT('',(-0.6,1.564814858527,12.021974045439));
#174 = VECTOR('',#175,1.);
#175 = DIRECTION('',(1.1E-16,-0.978147600734,-0.207911690818));
#176 = ORIENTED_EDGE('',*,*,#177,.T.);
#177 = EDGE_CURVE('',#168,#178,#180,.T.);
#178 = VERTEX_POINT('',#179);
#179 = CARTESIAN_POINT('',(-0.6,0.31734471362,17.890859649842));
#180 = LINE('',#181,#182);
#181 = CARTESIAN_POINT('',(-0.6,2.396461621798,8.109383642504));
#182 = VECTOR('',#183,1.);
#183 = DIRECTION('',(0.,-0.207911690818,0.978147600734));
#184 = ORIENTED_EDGE('',*,*,#185,.T.);
#185 = EDGE_CURVE('',#178,#186,#188,.T.);
#186 = VERTEX_POINT('',#187);
#187 = CARTESIAN_POINT('',(-0.6,-4.475578529975,16.872092364835));
#188 = LINE('',#189,#190);
#189 = CARTESIAN_POINT('',(-0.6,0.31734471362,17.890859649842));
#190 = VECTOR('',#191,1.);
#191 = DIRECTION('',(0.,-0.978147600734,-0.207911690818));
#192 = ORIENTED_EDGE('',*,*,#193,.F.);
#193 = EDGE_CURVE('',#194,#186,#196,.T.);
#194 = VERTEX_POINT('',#195);
#195 = CARTESIAN_POINT('',(-0.6,-3.228108385069,11.003206760432));
#196 = LINE('',#197,#198);
#197 = CARTESIAN_POINT('',(-0.6,-2.396461621798,7.090616357496));
#198 = VECTOR('',#199,1.);
#199 = DIRECTION('',(0.,-0.207911690818,0.978147600734));
#200 = ORIENTED_EDGE('',*,*,#201,.F.);
#201 = EDGE_CURVE('',#202,#194,#204,.T.);
#202 = VERTEX_POINT('',#203);
#203 = CARTESIAN_POINT('',(-0.6,-1.418535323711,11.387843388445));
#204 = LINE('',#205,#206);
#205 = CARTESIAN_POINT('',(-0.6,-1.418535323711,11.387843388445));
#206 = VECTOR('',#207,1.);
#207 = DIRECTION('',(1.1E-16,-0.978147600734,-0.207911690818));
#208 = ORIENTED_EDGE('',*,*,#209,.T.);
#209 = EDGE_CURVE('',#202,#170,#210,.T.);
#210 = LINE('',#211,#212);
#211 = CARTESIAN_POINT('',(-0.6,0.366584047628,11.767282224187));
#212 = VECTOR('',#213,1.);
#213 = DIRECTION('',(-0.,0.978147600734,0.207911690818));
#214 = PLANE('',#215);
#215 = AXIS2_PLACEMENT_3D('',#216,#217,#218);
#216 = CARTESIAN_POINT('',(-0.6,2.396461621798,8.109383642504));
#217 = DIRECTION('',(1.,0.,0.));
#218 = DIRECTION('',(0.,-0.978147600734,-0.207911690818));
#219 = ADVANCED_FACE('',(#220),#245,.T.);
#220 = FACE_BOUND('',#221,.T.);
#221 = EDGE_LOOP('',(#222,#230,#231,#239));
#222 = ORIENTED_EDGE('',*,*,#223,.T.);
#223 = EDGE_CURVE('',#224,#24,#226,.T.);
#224 = VERTEX_POINT('',#225);
#225 = CARTESIAN_POINT('',(0.585000000001,2.049999999997,0.));
#226 = LINE('',#227,#228);
#227 = CARTESIAN_POINT('',(0.585000000001,2.049999999997,0.));
#228 = VECTOR('',#229,1.);
#229 = DIRECTION('',(0.,0.,1.));
#230 = ORIENTED_EDGE('',*,*,#31,.T.);
#231 = ORIENTED_EDGE('',*,*,#232,.F.);
#232 = EDGE_CURVE('',#233,#32,#235,.T.);
#233 = VERTEX_POINT('',#234);
#234 = CARTESIAN_POINT('',(-0.585000000001,2.049999999997,0.));
#235 = LINE('',#236,#237);
#236 = CARTESIAN_POINT('',(-0.585000000001,2.049999999997,0.));
#237 = VECTOR('',#238,1.);
#238 = DIRECTION('',(0.,0.,1.));
#239 = ORIENTED_EDGE('',*,*,#240,.F.);
#240 = EDGE_CURVE('',#224,#233,#241,.T.);
#241 = LINE('',#242,#243);
#242 = CARTESIAN_POINT('',(0.585000000001,2.049999999997,0.));
#243 = VECTOR('',#244,1.);
#244 = DIRECTION('',(-1.,0.,0.));
#245 = PLANE('',#246);
#246 = AXIS2_PLACEMENT_3D('',#247,#248,#249);
#247 = CARTESIAN_POINT('',(0.585000000001,2.049999999997,0.));
#248 = DIRECTION('',(0.,-1.,0.));
#249 = DIRECTION('',(-1.,0.,0.));
#250 = ADVANCED_FACE('',(#251),#276,.T.);
#251 = FACE_BOUND('',#252,.T.);
#252 = EDGE_LOOP('',(#253,#261,#262,#270));
#253 = ORIENTED_EDGE('',*,*,#254,.T.);
#254 = EDGE_CURVE('',#255,#40,#257,.T.);
#255 = VERTEX_POINT('',#256);
#256 = CARTESIAN_POINT('',(-0.585000000001,0.584999999998,0.));
#257 = LINE('',#258,#259);
#258 = CARTESIAN_POINT('',(-0.585000000001,0.584999999998,0.));
#259 = VECTOR('',#260,1.);
#260 = DIRECTION('',(0.,0.,1.));
#261 = ORIENTED_EDGE('',*,*,#47,.T.);
#262 = ORIENTED_EDGE('',*,*,#263,.F.);
#263 = EDGE_CURVE('',#264,#48,#266,.T.);
#264 = VERTEX_POINT('',#265);
#265 = CARTESIAN_POINT('',(-2.05,0.584999999998,0.));
#266 = LINE('',#267,#268);
#267 = CARTESIAN_POINT('',(-2.05,0.584999999998,0.));
#268 = VECTOR('',#269,1.);
#269 = DIRECTION('',(0.,0.,1.));
#270 = ORIENTED_EDGE('',*,*,#271,.F.);
#271 = EDGE_CURVE('',#255,#264,#272,.T.);
#272 = LINE('',#273,#274);
#273 = CARTESIAN_POINT('',(-0.585000000001,0.584999999998,0.));
#274 = VECTOR('',#275,1.);
#275 = DIRECTION('',(-1.,0.,0.));
#276 = PLANE('',#277);
#277 = AXIS2_PLACEMENT_3D('',#278,#279,#280);
#278 = CARTESIAN_POINT('',(-0.585000000001,0.584999999998,0.));
#279 = DIRECTION('',(0.,-1.,0.));
#280 = DIRECTION('',(-1.,0.,0.));
#281 = ADVANCED_FACE('',(#282),#355,.F.);
#282 = FACE_BOUND('',#283,.F.);
#283 = EDGE_LOOP('',(#284,#292,#293,#301,#309,#317,#325,#333,#341,#349)
  );
#284 = ORIENTED_EDGE('',*,*,#285,.T.);
#285 = EDGE_CURVE('',#286,#135,#288,.T.);
#286 = VERTEX_POINT('',#287);
#287 = CARTESIAN_POINT('',(2.45,0.,7.6));
#288 = LINE('',#289,#290);
#289 = CARTESIAN_POINT('',(-5.,0.,7.6));
#290 = VECTOR('',#291,1.);
#291 = DIRECTION('',(1.,0.,0.));
#292 = ORIENTED_EDGE('',*,*,#151,.T.);
#293 = ORIENTED_EDGE('',*,*,#294,.T.);
#294 = EDGE_CURVE('',#143,#295,#297,.T.);
#295 = VERTEX_POINT('',#296);
#296 = CARTESIAN_POINT('',(-2.45,0.,7.6));
#297 = LINE('',#298,#299);
#298 = CARTESIAN_POINT('',(-5.,0.,7.6));
#299 = VECTOR('',#300,1.);
#300 = DIRECTION('',(1.,0.,0.));
#301 = ORIENTED_EDGE('',*,*,#302,.T.);
#302 = EDGE_CURVE('',#295,#303,#305,.T.);
#303 = VERTEX_POINT('',#304);
#304 = CARTESIAN_POINT('',(-2.45,-0.58688856044,7.475252985509));
#305 = LINE('',#306,#307);
#306 = CARTESIAN_POINT('',(-2.45,0.58688856044,7.724747014491));
#307 = VECTOR('',#308,1.);
#308 = DIRECTION('',(1.1E-16,-0.978147600734,-0.207911690818));
#309 = ORIENTED_EDGE('',*,*,#310,.T.);
#310 = EDGE_CURVE('',#303,#311,#313,.T.);
#311 = VERTEX_POINT('',#312);
#312 = CARTESIAN_POINT('',(-0.6,-0.58688856044,7.475252985509));
#313 = LINE('',#314,#315);
#314 = CARTESIAN_POINT('',(-2.45,-0.58688856044,7.475252985509));
#315 = VECTOR('',#316,1.);
#316 = DIRECTION('',(1.,1.116913779181E-16,-5.00360857455E-18));
#317 = ORIENTED_EDGE('',*,*,#318,.T.);
#318 = EDGE_CURVE('',#311,#319,#321,.T.);
#319 = VERTEX_POINT('',#320);
#320 = CARTESIAN_POINT('',(-0.6,-2.396461621798,7.090616357496));
#321 = LINE('',#322,#323);
#322 = CARTESIAN_POINT('',(-0.6,-0.58688856044,7.475252985509));
#323 = VECTOR('',#324,1.);
#324 = DIRECTION('',(1.1E-16,-0.978147600734,-0.207911690818));
#325 = ORIENTED_EDGE('',*,*,#326,.T.);
#326 = EDGE_CURVE('',#319,#327,#329,.T.);
#327 = VERTEX_POINT('',#328);
#328 = CARTESIAN_POINT('',(0.6,-2.396461621798,7.090616357496));
#329 = LINE('',#330,#331);
#330 = CARTESIAN_POINT('',(-0.6,-2.396461621798,7.090616357496));
#331 = VECTOR('',#332,1.);
#332 = DIRECTION('',(1.,1.116913779181E-16,-5.00360857455E-18));
#333 = ORIENTED_EDGE('',*,*,#334,.T.);
#334 = EDGE_CURVE('',#327,#335,#337,.T.);
#335 = VERTEX_POINT('',#336);
#336 = CARTESIAN_POINT('',(0.6,-0.58688856044,7.475252985509));
#337 = LINE('',#338,#339);
#338 = CARTESIAN_POINT('',(0.6,-2.396461621798,7.090616357496));
#339 = VECTOR('',#340,1.);
#340 = DIRECTION('',(-1.1E-16,0.978147600734,0.207911690818));
#341 = ORIENTED_EDGE('',*,*,#342,.T.);
#342 = EDGE_CURVE('',#335,#343,#345,.T.);
#343 = VERTEX_POINT('',#344);
#344 = CARTESIAN_POINT('',(2.45,-0.58688856044,7.475252985509));
#345 = LINE('',#346,#347);
#346 = CARTESIAN_POINT('',(0.6,-0.58688856044,7.475252985509));
#347 = VECTOR('',#348,1.);
#348 = DIRECTION('',(1.,1.116913779181E-16,-5.00360857455E-18));
#349 = ORIENTED_EDGE('',*,*,#350,.T.);
#350 = EDGE_CURVE('',#343,#286,#351,.T.);
#351 = LINE('',#352,#353);
#352 = CARTESIAN_POINT('',(2.45,-0.58688856044,7.475252985509));
#353 = VECTOR('',#354,1.);
#354 = DIRECTION('',(-1.1E-16,0.978147600734,0.207911690818));
#355 = PLANE('',#356);
#356 = AXIS2_PLACEMENT_3D('',#357,#358,#359);
#357 = CARTESIAN_POINT('',(-5.,0.,7.6));
#358 = DIRECTION('',(0.,0.207911690818,-0.978147600734));
#359 = DIRECTION('',(1.,0.,0.));
#360 = ADVANCED_FACE('',(#361),#420,.T.);
#361 = FACE_BOUND('',#362,.T.);
#362 = EDGE_LOOP('',(#363,#364,#365,#366,#374,#382,#390,#398,#406,#414)
  );
#363 = ORIENTED_EDGE('',*,*,#285,.T.);
#364 = ORIENTED_EDGE('',*,*,#142,.T.);
#365 = ORIENTED_EDGE('',*,*,#294,.T.);
#366 = ORIENTED_EDGE('',*,*,#367,.F.);
#367 = EDGE_CURVE('',#368,#295,#370,.T.);
#368 = VERTEX_POINT('',#369);
#369 = CARTESIAN_POINT('',(-2.45,0.58688856044,7.724747014491));
#370 = LINE('',#371,#372);
#371 = CARTESIAN_POINT('',(-2.45,0.58688856044,7.724747014491));
#372 = VECTOR('',#373,1.);
#373 = DIRECTION('',(1.1E-16,-0.978147600734,-0.207911690818));
#374 = ORIENTED_EDGE('',*,*,#375,.F.);
#375 = EDGE_CURVE('',#376,#368,#378,.T.);
#376 = VERTEX_POINT('',#377);
#377 = CARTESIAN_POINT('',(-0.6,0.58688856044,7.724747014491));
#378 = LINE('',#379,#380);
#379 = CARTESIAN_POINT('',(-0.6,0.58688856044,7.724747014491));
#380 = VECTOR('',#381,1.);
#381 = DIRECTION('',(-1.,-1.116913779181E-16,5.00360857455E-18));
#382 = ORIENTED_EDGE('',*,*,#383,.F.);
#383 = EDGE_CURVE('',#384,#376,#386,.T.);
#384 = VERTEX_POINT('',#385);
#385 = CARTESIAN_POINT('',(-0.6,2.396461621798,8.109383642504));
#386 = LINE('',#387,#388);
#387 = CARTESIAN_POINT('',(-0.6,2.396461621798,8.109383642504));
#388 = VECTOR('',#389,1.);
#389 = DIRECTION('',(1.1E-16,-0.978147600734,-0.207911690818));
#390 = ORIENTED_EDGE('',*,*,#391,.F.);
#391 = EDGE_CURVE('',#392,#384,#394,.T.);
#392 = VERTEX_POINT('',#393);
#393 = CARTESIAN_POINT('',(0.6,2.396461621798,8.109383642504));
#394 = LINE('',#395,#396);
#395 = CARTESIAN_POINT('',(0.6,2.396461621798,8.109383642504));
#396 = VECTOR('',#397,1.);
#397 = DIRECTION('',(-1.,-1.116913779181E-16,5.00360857455E-18));
#398 = ORIENTED_EDGE('',*,*,#399,.F.);
#399 = EDGE_CURVE('',#400,#392,#402,.T.);
#400 = VERTEX_POINT('',#401);
#401 = CARTESIAN_POINT('',(0.6,0.58688856044,7.724747014491));
#402 = LINE('',#403,#404);
#403 = CARTESIAN_POINT('',(0.6,0.58688856044,7.724747014491));
#404 = VECTOR('',#405,1.);
#405 = DIRECTION('',(-1.1E-16,0.978147600734,0.207911690818));
#406 = ORIENTED_EDGE('',*,*,#407,.F.);
#407 = EDGE_CURVE('',#408,#400,#410,.T.);
#408 = VERTEX_POINT('',#409);
#409 = CARTESIAN_POINT('',(2.45,0.58688856044,7.724747014491));
#410 = LINE('',#411,#412);
#411 = CARTESIAN_POINT('',(2.45,0.58688856044,7.724747014491));
#412 = VECTOR('',#413,1.);
#413 = DIRECTION('',(-1.,-1.116913779181E-16,5.00360857455E-18));
#414 = ORIENTED_EDGE('',*,*,#415,.F.);
#415 = EDGE_CURVE('',#286,#408,#416,.T.);
#416 = LINE('',#417,#418);
#417 = CARTESIAN_POINT('',(2.45,-0.58688856044,7.475252985509));
#418 = VECTOR('',#419,1.);
#419 = DIRECTION('',(-1.1E-16,0.978147600734,0.207911690818));
#420 = PLANE('',#421);
#421 = AXIS2_PLACEMENT_3D('',#422,#423,#424);
#422 = CARTESIAN_POINT('',(-5.,0.,7.6));
#423 = DIRECTION('',(0.,-0.207911690818,0.978147600734));
#424 = DIRECTION('',(1.,0.,0.));
#425 = ADVANCED_FACE('',(#426),#444,.T.);
#426 = FACE_BOUND('',#427,.T.);
#427 = EDGE_LOOP('',(#428,#429,#430,#438));
#428 = ORIENTED_EDGE('',*,*,#263,.T.);
#429 = ORIENTED_EDGE('',*,*,#55,.T.);
#430 = ORIENTED_EDGE('',*,*,#431,.F.);
#431 = EDGE_CURVE('',#432,#56,#434,.T.);
#432 = VERTEX_POINT('',#433);
#433 = CARTESIAN_POINT('',(-2.05,-0.584999999998,0.));
#434 = LINE('',#435,#436);
#435 = CARTESIAN_POINT('',(-2.05,-0.584999999998,0.));
#436 = VECTOR('',#437,1.);
#437 = DIRECTION('',(0.,0.,1.));
#438 = ORIENTED_EDGE('',*,*,#439,.F.);
#439 = EDGE_CURVE('',#264,#432,#440,.T.);
#440 = LINE('',#441,#442);
#441 = CARTESIAN_POINT('',(-2.05,0.584999999998,0.));
#442 = VECTOR('',#443,1.);
#443 = DIRECTION('',(0.,-1.,0.));
#444 = PLANE('',#445);
#445 = AXIS2_PLACEMENT_3D('',#446,#447,#448);
#446 = CARTESIAN_POINT('',(-2.05,0.584999999998,0.));
#447 = DIRECTION('',(1.,0.,0.));
#448 = DIRECTION('',(0.,-1.,0.));
#449 = ADVANCED_FACE('',(#450),#461,.T.);
#450 = FACE_BOUND('',#451,.T.);
#451 = EDGE_LOOP('',(#452,#453,#454,#455));
#452 = ORIENTED_EDGE('',*,*,#232,.T.);
#453 = ORIENTED_EDGE('',*,*,#39,.T.);
#454 = ORIENTED_EDGE('',*,*,#254,.F.);
#455 = ORIENTED_EDGE('',*,*,#456,.F.);
#456 = EDGE_CURVE('',#233,#255,#457,.T.);
#457 = LINE('',#458,#459);
#458 = CARTESIAN_POINT('',(-0.585000000001,2.049999999997,0.));
#459 = VECTOR('',#460,1.);
#460 = DIRECTION('',(0.,-1.,0.));
#461 = PLANE('',#462);
#462 = AXIS2_PLACEMENT_3D('',#463,#464,#465);
#463 = CARTESIAN_POINT('',(-0.585000000001,2.049999999997,0.));
#464 = DIRECTION('',(1.,0.,0.));
#465 = DIRECTION('',(0.,-1.,0.));
#466 = ADVANCED_FACE('',(#467),#492,.T.);
#467 = FACE_BOUND('',#468,.T.);
#468 = EDGE_LOOP('',(#469,#477,#478,#486));
#469 = ORIENTED_EDGE('',*,*,#470,.T.);
#470 = EDGE_CURVE('',#471,#96,#473,.T.);
#471 = VERTEX_POINT('',#472);
#472 = CARTESIAN_POINT('',(2.05,-0.585000000004,0.));
#473 = LINE('',#474,#475);
#474 = CARTESIAN_POINT('',(2.05,-0.585000000004,0.));
#475 = VECTOR('',#476,1.);
#476 = DIRECTION('',(0.,0.,1.));
#477 = ORIENTED_EDGE('',*,*,#103,.T.);
#478 = ORIENTED_EDGE('',*,*,#479,.F.);
#479 = EDGE_CURVE('',#480,#104,#482,.T.);
#480 = VERTEX_POINT('',#481);
#481 = CARTESIAN_POINT('',(2.05,0.584999999998,0.));
#482 = LINE('',#483,#484);
#483 = CARTESIAN_POINT('',(2.05,0.584999999998,0.));
#484 = VECTOR('',#485,1.);
#485 = DIRECTION('',(0.,0.,1.));
#486 = ORIENTED_EDGE('',*,*,#487,.F.);
#487 = EDGE_CURVE('',#471,#480,#488,.T.);
#488 = LINE('',#489,#490);
#489 = CARTESIAN_POINT('',(2.05,-0.585000000004,0.));
#490 = VECTOR('',#491,1.);
#491 = DIRECTION('',(0.,1.,0.));
#492 = PLANE('',#493);
#493 = AXIS2_PLACEMENT_3D('',#494,#495,#496);
#494 = CARTESIAN_POINT('',(2.05,-0.585000000004,0.));
#495 = DIRECTION('',(-1.,0.,0.));
#496 = DIRECTION('',(0.,1.,0.));
#497 = ADVANCED_FACE('',(#498),#532,.T.);
#498 = FACE_BOUND('',#499,.T.);
#499 = EDGE_LOOP('',(#500,#510,#518,#526));
#500 = ORIENTED_EDGE('',*,*,#501,.T.);
#501 = EDGE_CURVE('',#502,#504,#506,.T.);
#502 = VERTEX_POINT('',#503);
#503 = CARTESIAN_POINT('',(2.45,-0.244758202831,11.637337417426));
#504 = VERTEX_POINT('',#505);
#505 = CARTESIAN_POINT('',(0.6,-0.244758202831,11.637337417426));
#506 = LINE('',#507,#508);
#507 = CARTESIAN_POINT('',(2.45,-0.244758202831,11.637337417426));
#508 = VECTOR('',#509,1.);
#509 = DIRECTION('',(-1.,-1.116913779181E-16,5.00360857455E-18));
#510 = ORIENTED_EDGE('',*,*,#511,.F.);
#511 = EDGE_CURVE('',#512,#504,#514,.T.);
#512 = VERTEX_POINT('',#513);
#513 = CARTESIAN_POINT('',(0.6,-1.418535323711,11.387843388445));
#514 = LINE('',#515,#516);
#515 = CARTESIAN_POINT('',(0.6,0.366584047628,11.767282224187));
#516 = VECTOR('',#517,1.);
#517 = DIRECTION('',(-0.,0.978147600734,0.207911690818));
#518 = ORIENTED_EDGE('',*,*,#519,.T.);
#519 = EDGE_CURVE('',#512,#520,#522,.T.);
#520 = VERTEX_POINT('',#521);
#521 = CARTESIAN_POINT('',(2.45,-1.418535323711,11.387843388445));
#522 = LINE('',#523,#524);
#523 = CARTESIAN_POINT('',(0.6,-1.418535323711,11.387843388445));
#524 = VECTOR('',#525,1.);
#525 = DIRECTION('',(1.,1.116913779181E-16,-5.00360857455E-18));
#526 = ORIENTED_EDGE('',*,*,#527,.T.);
#527 = EDGE_CURVE('',#520,#502,#528,.T.);
#528 = LINE('',#529,#530);
#529 = CARTESIAN_POINT('',(2.45,-1.418535323711,11.387843388445));
#530 = VECTOR('',#531,1.);
#531 = DIRECTION('',(-1.1E-16,0.978147600734,0.207911690818));
#532 = PLANE('',#533);
#533 = AXIS2_PLACEMENT_3D('',#534,#535,#536);
#534 = CARTESIAN_POINT('',(-2.22044604925E-16,-0.831646763271,
    11.512590402935));
#535 = DIRECTION('',(2.E-17,-0.207911690818,0.978147600734));
#536 = DIRECTION('',(-1.1E-16,0.978147600734,0.207911690818));
#537 = ADVANCED_FACE('',(#538),#563,.T.);
#538 = FACE_BOUND('',#539,.T.);
#539 = EDGE_LOOP('',(#540,#548,#549,#557));
#540 = ORIENTED_EDGE('',*,*,#541,.T.);
#541 = EDGE_CURVE('',#542,#80,#544,.T.);
#542 = VERTEX_POINT('',#543);
#543 = CARTESIAN_POINT('',(0.584999999999,-2.049999999997,0.));
#544 = LINE('',#545,#546);
#545 = CARTESIAN_POINT('',(0.584999999999,-2.049999999997,0.));
#546 = VECTOR('',#547,1.);
#547 = DIRECTION('',(0.,0.,1.));
#548 = ORIENTED_EDGE('',*,*,#87,.T.);
#549 = ORIENTED_EDGE('',*,*,#550,.F.);
#550 = EDGE_CURVE('',#551,#88,#553,.T.);
#551 = VERTEX_POINT('',#552);
#552 = CARTESIAN_POINT('',(0.584999999999,-0.585000000004,0.));
#553 = LINE('',#554,#555);
#554 = CARTESIAN_POINT('',(0.584999999999,-0.585000000004,0.));
#555 = VECTOR('',#556,1.);
#556 = DIRECTION('',(0.,0.,1.));
#557 = ORIENTED_EDGE('',*,*,#558,.F.);
#558 = EDGE_CURVE('',#542,#551,#559,.T.);
#559 = LINE('',#560,#561);
#560 = CARTESIAN_POINT('',(0.584999999999,-2.049999999997,0.));
#561 = VECTOR('',#562,1.);
#562 = DIRECTION('',(0.,1.,0.));
#563 = PLANE('',#564);
#564 = AXIS2_PLACEMENT_3D('',#565,#566,#567);
#565 = CARTESIAN_POINT('',(0.584999999999,-2.049999999997,0.));
#566 = DIRECTION('',(-1.,0.,0.));
#567 = DIRECTION('',(0.,1.,0.));
#568 = ADVANCED_FACE('',(#569),#586,.F.);
#569 = FACE_BOUND('',#570,.F.);
#570 = EDGE_LOOP('',(#571,#577,#578,#584,#585));
#571 = ORIENTED_EDGE('',*,*,#572,.T.);
#572 = EDGE_CURVE('',#343,#520,#573,.T.);
#573 = LINE('',#574,#575);
#574 = CARTESIAN_POINT('',(2.45,-0.58688856044,7.475252985509));
#575 = VECTOR('',#576,1.);
#576 = DIRECTION('',(2.E-17,-0.207911690818,0.978147600734));
#577 = ORIENTED_EDGE('',*,*,#527,.T.);
#578 = ORIENTED_EDGE('',*,*,#579,.F.);
#579 = EDGE_CURVE('',#408,#502,#580,.T.);
#580 = LINE('',#581,#582);
#581 = CARTESIAN_POINT('',(2.45,0.58688856044,7.724747014491));
#582 = VECTOR('',#583,1.);
#583 = DIRECTION('',(2.E-17,-0.207911690818,0.978147600734));
#584 = ORIENTED_EDGE('',*,*,#415,.F.);
#585 = ORIENTED_EDGE('',*,*,#350,.F.);
#586 = PLANE('',#587);
#587 = AXIS2_PLACEMENT_3D('',#588,#589,#590);
#588 = CARTESIAN_POINT('',(2.45,-0.58688856044,7.475252985509));
#589 = DIRECTION('',(-1.,-1.117544698971E-16,-3.307333975277E-18));
#590 = DIRECTION('',(-1.1E-16,0.978147600734,0.207911690818));
#591 = ADVANCED_FACE('',(#592),#610,.T.);
#592 = FACE_BOUND('',#593,.T.);
#593 = EDGE_LOOP('',(#594,#602,#603,#604));
#594 = ORIENTED_EDGE('',*,*,#595,.T.);
#595 = EDGE_CURVE('',#596,#72,#598,.T.);
#596 = VERTEX_POINT('',#597);
#597 = CARTESIAN_POINT('',(-0.585000000001,-2.049999999997,0.));
#598 = LINE('',#599,#600);
#599 = CARTESIAN_POINT('',(-0.585000000001,-2.049999999997,0.));
#600 = VECTOR('',#601,1.);
#601 = DIRECTION('',(0.,0.,1.));
#602 = ORIENTED_EDGE('',*,*,#79,.T.);
#603 = ORIENTED_EDGE('',*,*,#541,.F.);
#604 = ORIENTED_EDGE('',*,*,#605,.F.);
#605 = EDGE_CURVE('',#596,#542,#606,.T.);
#606 = LINE('',#607,#608);
#607 = CARTESIAN_POINT('',(-0.585000000001,-2.049999999997,0.));
#608 = VECTOR('',#609,1.);
#609 = DIRECTION('',(1.,0.,0.));
#610 = PLANE('',#611);
#611 = AXIS2_PLACEMENT_3D('',#612,#613,#614);
#612 = CARTESIAN_POINT('',(-0.585000000001,-2.049999999997,0.));
#613 = DIRECTION('',(0.,1.,0.));
#614 = DIRECTION('',(1.,0.,0.));
#615 = ADVANCED_FACE('',(#616),#634,.T.);
#616 = FACE_BOUND('',#617,.T.);
#617 = EDGE_LOOP('',(#618,#626,#627,#628));
#618 = ORIENTED_EDGE('',*,*,#619,.T.);
#619 = EDGE_CURVE('',#620,#64,#622,.T.);
#620 = VERTEX_POINT('',#621);
#621 = CARTESIAN_POINT('',(-0.585000000001,-0.584999999998,0.));
#622 = LINE('',#623,#624);
#623 = CARTESIAN_POINT('',(-0.585000000001,-0.584999999998,0.));
#624 = VECTOR('',#625,1.);
#625 = DIRECTION('',(0.,0.,1.));
#626 = ORIENTED_EDGE('',*,*,#71,.T.);
#627 = ORIENTED_EDGE('',*,*,#595,.F.);
#628 = ORIENTED_EDGE('',*,*,#629,.F.);
#629 = EDGE_CURVE('',#620,#596,#630,.T.);
#630 = LINE('',#631,#632);
#631 = CARTESIAN_POINT('',(-0.585000000001,-0.584999999998,0.));
#632 = VECTOR('',#633,1.);
#633 = DIRECTION('',(0.,-1.,0.));
#634 = PLANE('',#635);
#635 = AXIS2_PLACEMENT_3D('',#636,#637,#638);
#636 = CARTESIAN_POINT('',(-0.585000000001,-0.584999999998,0.));
#637 = DIRECTION('',(1.,0.,0.));
#638 = DIRECTION('',(0.,-1.,0.));
#639 = ADVANCED_FACE('',(#640),#663,.F.);
#640 = FACE_BOUND('',#641,.F.);
#641 = EDGE_LOOP('',(#642,#648,#656,#662));
#642 = ORIENTED_EDGE('',*,*,#643,.T.);
#643 = EDGE_CURVE('',#319,#194,#644,.T.);
#644 = LINE('',#645,#646);
#645 = CARTESIAN_POINT('',(-0.6,-2.396461621798,7.090616357496));
#646 = VECTOR('',#647,1.);
#647 = DIRECTION('',(2.E-17,-0.207911690818,0.978147600734));
#648 = ORIENTED_EDGE('',*,*,#649,.T.);
#649 = EDGE_CURVE('',#194,#650,#652,.T.);
#650 = VERTEX_POINT('',#651);
#651 = CARTESIAN_POINT('',(0.6,-3.228108385069,11.003206760432));
#652 = LINE('',#653,#654);
#653 = CARTESIAN_POINT('',(-0.6,-3.228108385069,11.003206760432));
#654 = VECTOR('',#655,1.);
#655 = DIRECTION('',(1.,1.116913779181E-16,-5.00360857455E-18));
#656 = ORIENTED_EDGE('',*,*,#657,.F.);
#657 = EDGE_CURVE('',#327,#650,#658,.T.);
#658 = LINE('',#659,#660);
#659 = CARTESIAN_POINT('',(0.6,-2.396461621798,7.090616357496));
#660 = VECTOR('',#661,1.);
#661 = DIRECTION('',(2.E-17,-0.207911690818,0.978147600734));
#662 = ORIENTED_EDGE('',*,*,#326,.F.);
#663 = PLANE('',#664);
#664 = AXIS2_PLACEMENT_3D('',#665,#666,#667);
#665 = CARTESIAN_POINT('',(-0.6,-2.396461621798,7.090616357496));
#666 = DIRECTION('',(-1.1E-16,0.978147600734,0.207911690818));
#667 = DIRECTION('',(1.,1.117544698971E-16,3.307333975277E-18));
#668 = ADVANCED_FACE('',(#669,#672),#708,.F.);
#669 = FACE_BOUND('',#670,.F.);
#670 = EDGE_LOOP('',(#671));
#671 = ORIENTED_EDGE('',*,*,#125,.T.);
#672 = FACE_BOUND('',#673,.F.);
#673 = EDGE_LOOP('',(#674,#682,#688,#689,#695,#696,#697,#698,#704,#705,
    #706,#707));
#674 = ORIENTED_EDGE('',*,*,#675,.F.);
#675 = EDGE_CURVE('',#676,#224,#678,.T.);
#676 = VERTEX_POINT('',#677);
#677 = CARTESIAN_POINT('',(0.585000000001,0.584999999998,0.));
#678 = LINE('',#679,#680);
#679 = CARTESIAN_POINT('',(0.585000000001,0.584999999998,0.));
#680 = VECTOR('',#681,1.);
#681 = DIRECTION('',(0.,1.,0.));
#682 = ORIENTED_EDGE('',*,*,#683,.F.);
#683 = EDGE_CURVE('',#480,#676,#684,.T.);
#684 = LINE('',#685,#686);
#685 = CARTESIAN_POINT('',(2.05,0.584999999998,0.));
#686 = VECTOR('',#687,1.);
#687 = DIRECTION('',(-1.,0.,0.));
#688 = ORIENTED_EDGE('',*,*,#487,.F.);
#689 = ORIENTED_EDGE('',*,*,#690,.F.);
#690 = EDGE_CURVE('',#551,#471,#691,.T.);
#691 = LINE('',#692,#693);
#692 = CARTESIAN_POINT('',(0.584999999999,-0.585000000004,0.));
#693 = VECTOR('',#694,1.);
#694 = DIRECTION('',(1.,0.,0.));
#695 = ORIENTED_EDGE('',*,*,#558,.F.);
#696 = ORIENTED_EDGE('',*,*,#605,.F.);
#697 = ORIENTED_EDGE('',*,*,#629,.F.);
#698 = ORIENTED_EDGE('',*,*,#699,.F.);
#699 = EDGE_CURVE('',#432,#620,#700,.T.);
#700 = LINE('',#701,#702);
#701 = CARTESIAN_POINT('',(-2.05,-0.584999999998,0.));
#702 = VECTOR('',#703,1.);
#703 = DIRECTION('',(1.,0.,0.));
#704 = ORIENTED_EDGE('',*,*,#439,.F.);
#705 = ORIENTED_EDGE('',*,*,#271,.F.);
#706 = ORIENTED_EDGE('',*,*,#456,.F.);
#707 = ORIENTED_EDGE('',*,*,#240,.F.);
#708 = PLANE('',#709);
#709 = AXIS2_PLACEMENT_3D('',#710,#711,#712);
#710 = CARTESIAN_POINT('',(-1.9E-16,-1.1E-16,0.));
#711 = DIRECTION('',(0.,0.,1.));
#712 = DIRECTION('',(1.,0.,0.));
#713 = ADVANCED_FACE('',(#714),#739,.F.);
#714 = FACE_BOUND('',#715,.F.);
#715 = EDGE_LOOP('',(#716,#724,#732,#738));
#716 = ORIENTED_EDGE('',*,*,#717,.F.);
#717 = EDGE_CURVE('',#718,#168,#720,.T.);
#718 = VERTEX_POINT('',#719);
#719 = CARTESIAN_POINT('',(0.6,1.564814858527,12.021974045439));
#720 = LINE('',#721,#722);
#721 = CARTESIAN_POINT('',(0.6,1.564814858527,12.021974045439));
#722 = VECTOR('',#723,1.);
#723 = DIRECTION('',(-1.,-1.116913779181E-16,5.00360857455E-18));
#724 = ORIENTED_EDGE('',*,*,#725,.T.);
#725 = EDGE_CURVE('',#718,#726,#728,.T.);
#726 = VERTEX_POINT('',#727);
#727 = CARTESIAN_POINT('',(0.6,0.31734471362,17.890859649842));
#728 = LINE('',#729,#730);
#729 = CARTESIAN_POINT('',(0.6,2.396461621798,8.109383642504));
#730 = VECTOR('',#731,1.);
#731 = DIRECTION('',(0.,-0.207911690818,0.978147600734));
#732 = ORIENTED_EDGE('',*,*,#733,.T.);
#733 = EDGE_CURVE('',#726,#178,#734,.T.);
#734 = LINE('',#735,#736);
#735 = CARTESIAN_POINT('',(0.6,0.31734471362,17.890859649842));
#736 = VECTOR('',#737,1.);
#737 = DIRECTION('',(-1.,0.,0.));
#738 = ORIENTED_EDGE('',*,*,#177,.F.);
#739 = PLANE('',#740);
#740 = AXIS2_PLACEMENT_3D('',#741,#742,#743);
#741 = CARTESIAN_POINT('',(0.6,2.396461621798,8.109383642504));
#742 = DIRECTION('',(-0.,-0.978147600734,-0.207911690818));
#743 = DIRECTION('',(-1.,0.,0.));
#744 = ADVANCED_FACE('',(#745,#756),#767,.F.);
#745 = FACE_BOUND('',#746,.F.);
#746 = EDGE_LOOP('',(#747,#748,#749,#755));
#747 = ORIENTED_EDGE('',*,*,#579,.T.);
#748 = ORIENTED_EDGE('',*,*,#501,.T.);
#749 = ORIENTED_EDGE('',*,*,#750,.F.);
#750 = EDGE_CURVE('',#400,#504,#751,.T.);
#751 = LINE('',#752,#753);
#752 = CARTESIAN_POINT('',(0.6,0.58688856044,7.724747014491));
#753 = VECTOR('',#754,1.);
#754 = DIRECTION('',(2.E-17,-0.207911690818,0.978147600734));
#755 = ORIENTED_EDGE('',*,*,#407,.F.);
#756 = FACE_BOUND('',#757,.F.);
#757 = EDGE_LOOP('',(#758));
#758 = ORIENTED_EDGE('',*,*,#759,.F.);
#759 = EDGE_CURVE('',#760,#760,#762,.T.);
#760 = VERTEX_POINT('',#761);
#761 = CARTESIAN_POINT('',(1.53,3.739281095862E-02,10.309921262533));
#762 = CIRCLE('',#763,0.357071421427);
#763 = AXIS2_PLACEMENT_3D('',#764,#765,#766);
#764 = CARTESIAN_POINT('',(1.53,-3.6846512013E-02,10.659189816692));
#765 = DIRECTION('',(7.703719777549E-34,-0.978147600734,-0.207911690818)
  );
#766 = DIRECTION('',(2.E-17,0.207911690818,-0.978147600734));
#767 = PLANE('',#768);
#768 = AXIS2_PLACEMENT_3D('',#769,#770,#771);
#769 = CARTESIAN_POINT('',(2.45,0.58688856044,7.724747014491));
#770 = DIRECTION('',(1.1E-16,-0.978147600734,-0.207911690818));
#771 = DIRECTION('',(-1.,-1.117544698971E-16,-3.307333975277E-18));
#772 = ADVANCED_FACE('',(#773),#784,.T.);
#773 = FACE_BOUND('',#774,.T.);
#774 = EDGE_LOOP('',(#775));
#775 = ORIENTED_EDGE('',*,*,#776,.F.);
#776 = EDGE_CURVE('',#777,#777,#779,.T.);
#777 = VERTEX_POINT('',#778);
#778 = CARTESIAN_POINT('',(-1.52,3.739281095862E-02,10.309921262533));
#779 = CIRCLE('',#780,0.357071421427);
#780 = AXIS2_PLACEMENT_3D('',#781,#782,#783);
#781 = CARTESIAN_POINT('',(-1.52,-3.6846512013E-02,10.659189816692));
#782 = DIRECTION('',(1.1E-16,-0.978147600734,-0.207911690818));
#783 = DIRECTION('',(0.,0.207911690818,-0.978147600734));
#784 = SPHERICAL_SURFACE('',#785,0.5);
#785 = AXIS2_PLACEMENT_3D('',#786,#787,#788);
#786 = CARTESIAN_POINT('',(-1.52,-0.37919817227,10.586420724906));
#787 = DIRECTION('',(0.,-0.207911690818,0.978147600734));
#788 = DIRECTION('',(1.,0.,0.));
#789 = ADVANCED_FACE('',(#790),#801,.F.);
#790 = FACE_BOUND('',#791,.F.);
#791 = EDGE_LOOP('',(#792,#798,#799,#800));
#792 = ORIENTED_EDGE('',*,*,#793,.T.);
#793 = EDGE_CURVE('',#311,#202,#794,.T.);
#794 = LINE('',#795,#796);
#795 = CARTESIAN_POINT('',(-0.6,-0.58688856044,7.475252985509));
#796 = VECTOR('',#797,1.);
#797 = DIRECTION('',(2.E-17,-0.207911690818,0.978147600734));
#798 = ORIENTED_EDGE('',*,*,#201,.T.);
#799 = ORIENTED_EDGE('',*,*,#643,.F.);
#800 = ORIENTED_EDGE('',*,*,#318,.F.);
#801 = PLANE('',#802);
#802 = AXIS2_PLACEMENT_3D('',#803,#804,#805);
#803 = CARTESIAN_POINT('',(-0.6,-0.58688856044,7.475252985509));
#804 = DIRECTION('',(1.,1.117544698971E-16,3.307333975277E-18));
#805 = DIRECTION('',(1.1E-16,-0.978147600734,-0.207911690818));
#806 = ADVANCED_FACE('',(#807),#823,.F.);
#807 = FACE_BOUND('',#808,.F.);
#808 = EDGE_LOOP('',(#809,#810,#816,#822));
#809 = ORIENTED_EDGE('',*,*,#750,.T.);
#810 = ORIENTED_EDGE('',*,*,#811,.T.);
#811 = EDGE_CURVE('',#504,#718,#812,.T.);
#812 = LINE('',#813,#814);
#813 = CARTESIAN_POINT('',(0.6,-0.244758202831,11.637337417426));
#814 = VECTOR('',#815,1.);
#815 = DIRECTION('',(-1.1E-16,0.978147600734,0.207911690818));
#816 = ORIENTED_EDGE('',*,*,#817,.F.);
#817 = EDGE_CURVE('',#392,#718,#818,.T.);
#818 = LINE('',#819,#820);
#819 = CARTESIAN_POINT('',(0.6,2.396461621798,8.109383642504));
#820 = VECTOR('',#821,1.);
#821 = DIRECTION('',(2.E-17,-0.207911690818,0.978147600734));
#822 = ORIENTED_EDGE('',*,*,#399,.F.);
#823 = PLANE('',#824);
#824 = AXIS2_PLACEMENT_3D('',#825,#826,#827);
#825 = CARTESIAN_POINT('',(0.6,0.58688856044,7.724747014491));
#826 = DIRECTION('',(-1.,-1.117544698971E-16,-3.307333975277E-18));
#827 = DIRECTION('',(-1.1E-16,0.978147600734,0.207911690818));
#828 = ADVANCED_FACE('',(#829),#845,.F.);
#829 = FACE_BOUND('',#830,.F.);
#830 = EDGE_LOOP('',(#831,#837,#838,#844));
#831 = ORIENTED_EDGE('',*,*,#832,.T.);
#832 = EDGE_CURVE('',#384,#168,#833,.T.);
#833 = LINE('',#834,#835);
#834 = CARTESIAN_POINT('',(-0.6,2.396461621798,8.109383642504));
#835 = VECTOR('',#836,1.);
#836 = DIRECTION('',(2.E-17,-0.207911690818,0.978147600734));
#837 = ORIENTED_EDGE('',*,*,#167,.T.);
#838 = ORIENTED_EDGE('',*,*,#839,.F.);
#839 = EDGE_CURVE('',#376,#170,#840,.T.);
#840 = LINE('',#841,#842);
#841 = CARTESIAN_POINT('',(-0.6,0.58688856044,7.724747014491));
#842 = VECTOR('',#843,1.);
#843 = DIRECTION('',(2.E-17,-0.207911690818,0.978147600734));
#844 = ORIENTED_EDGE('',*,*,#383,.F.);
#845 = PLANE('',#846);
#846 = AXIS2_PLACEMENT_3D('',#847,#848,#849);
#847 = CARTESIAN_POINT('',(-0.6,2.396461621798,8.109383642504));
#848 = DIRECTION('',(1.,1.117544698971E-16,3.307333975277E-18));
#849 = DIRECTION('',(1.1E-16,-0.978147600734,-0.207911690818));
#850 = ADVANCED_FACE('',(#851),#867,.F.);
#851 = FACE_BOUND('',#852,.F.);
#852 = EDGE_LOOP('',(#853,#854,#860,#866));
#853 = ORIENTED_EDGE('',*,*,#657,.T.);
#854 = ORIENTED_EDGE('',*,*,#855,.T.);
#855 = EDGE_CURVE('',#650,#512,#856,.T.);
#856 = LINE('',#857,#858);
#857 = CARTESIAN_POINT('',(0.6,-3.228108385069,11.003206760432));
#858 = VECTOR('',#859,1.);
#859 = DIRECTION('',(-1.1E-16,0.978147600734,0.207911690818));
#860 = ORIENTED_EDGE('',*,*,#861,.F.);
#861 = EDGE_CURVE('',#335,#512,#862,.T.);
#862 = LINE('',#863,#864);
#863 = CARTESIAN_POINT('',(0.6,-0.58688856044,7.475252985509));
#864 = VECTOR('',#865,1.);
#865 = DIRECTION('',(2.E-17,-0.207911690818,0.978147600734));
#866 = ORIENTED_EDGE('',*,*,#334,.F.);
#867 = PLANE('',#868);
#868 = AXIS2_PLACEMENT_3D('',#869,#870,#871);
#869 = CARTESIAN_POINT('',(0.6,-2.396461621798,7.090616357496));
#870 = DIRECTION('',(-1.,-1.117544698971E-16,-3.307333975277E-18));
#871 = DIRECTION('',(-1.1E-16,0.978147600734,0.207911690818));
#872 = ADVANCED_FACE('',(#873),#879,.T.);
#873 = FACE_BOUND('',#874,.T.);
#874 = EDGE_LOOP('',(#875,#876,#877,#878));
#875 = ORIENTED_EDGE('',*,*,#550,.T.);
#876 = ORIENTED_EDGE('',*,*,#95,.T.);
#877 = ORIENTED_EDGE('',*,*,#470,.F.);
#878 = ORIENTED_EDGE('',*,*,#690,.F.);
#879 = PLANE('',#880);
#880 = AXIS2_PLACEMENT_3D('',#881,#882,#883);
#881 = CARTESIAN_POINT('',(0.584999999999,-0.585000000004,0.));
#882 = DIRECTION('',(0.,1.,0.));
#883 = DIRECTION('',(1.,0.,0.));
#884 = ADVANCED_FACE('',(#885),#903,.T.);
#885 = FACE_BOUND('',#886,.T.);
#886 = EDGE_LOOP('',(#887,#888,#889,#897));
#887 = ORIENTED_EDGE('',*,*,#733,.T.);
#888 = ORIENTED_EDGE('',*,*,#185,.T.);
#889 = ORIENTED_EDGE('',*,*,#890,.T.);
#890 = EDGE_CURVE('',#186,#891,#893,.T.);
#891 = VERTEX_POINT('',#892);
#892 = CARTESIAN_POINT('',(0.6,-4.475578529975,16.872092364835));
#893 = LINE('',#894,#895);
#894 = CARTESIAN_POINT('',(-0.6,-4.475578529975,16.872092364835));
#895 = VECTOR('',#896,1.);
#896 = DIRECTION('',(1.,0.,0.));
#897 = ORIENTED_EDGE('',*,*,#898,.F.);
#898 = EDGE_CURVE('',#726,#891,#899,.T.);
#899 = LINE('',#900,#901);
#900 = CARTESIAN_POINT('',(0.6,0.31734471362,17.890859649842));
#901 = VECTOR('',#902,1.);
#902 = DIRECTION('',(0.,-0.978147600734,-0.207911690818));
#903 = PLANE('',#904);
#904 = AXIS2_PLACEMENT_3D('',#905,#906,#907);
#905 = CARTESIAN_POINT('',(0.,-2.079116908178,17.381476007338));
#906 = DIRECTION('',(0.,-0.207911690818,0.978147600734));
#907 = DIRECTION('',(0.,0.978147600734,0.207911690818));
#908 = ADVANCED_FACE('',(#909),#915,.T.);
#909 = FACE_BOUND('',#910,.T.);
#910 = EDGE_LOOP('',(#911,#912,#913,#914));
#911 = ORIENTED_EDGE('',*,*,#431,.T.);
#912 = ORIENTED_EDGE('',*,*,#63,.T.);
#913 = ORIENTED_EDGE('',*,*,#619,.F.);
#914 = ORIENTED_EDGE('',*,*,#699,.F.);
#915 = PLANE('',#916);
#916 = AXIS2_PLACEMENT_3D('',#917,#918,#919);
#917 = CARTESIAN_POINT('',(-2.05,-0.584999999998,0.));
#918 = DIRECTION('',(0.,1.,0.));
#919 = DIRECTION('',(1.,0.,0.));
#920 = ADVANCED_FACE('',(#921),#939,.F.);
#921 = FACE_BOUND('',#922,.F.);
#922 = EDGE_LOOP('',(#923,#931,#937,#938));
#923 = ORIENTED_EDGE('',*,*,#924,.T.);
#924 = EDGE_CURVE('',#303,#925,#927,.T.);
#925 = VERTEX_POINT('',#926);
#926 = CARTESIAN_POINT('',(-2.45,-1.418535323711,11.387843388445));
#927 = LINE('',#928,#929);
#928 = CARTESIAN_POINT('',(-2.45,-0.58688856044,7.475252985509));
#929 = VECTOR('',#930,1.);
#930 = DIRECTION('',(2.E-17,-0.207911690818,0.978147600734));
#931 = ORIENTED_EDGE('',*,*,#932,.T.);
#932 = EDGE_CURVE('',#925,#202,#933,.T.);
#933 = LINE('',#934,#935);
#934 = CARTESIAN_POINT('',(-2.45,-1.418535323711,11.387843388445));
#935 = VECTOR('',#936,1.);
#936 = DIRECTION('',(1.,1.116913779181E-16,-5.00360857455E-18));
#937 = ORIENTED_EDGE('',*,*,#793,.F.);
#938 = ORIENTED_EDGE('',*,*,#310,.F.);
#939 = PLANE('',#940);
#940 = AXIS2_PLACEMENT_3D('',#941,#942,#943);
#941 = CARTESIAN_POINT('',(-2.45,-0.58688856044,7.475252985509));
#942 = DIRECTION('',(-1.1E-16,0.978147600734,0.207911690818));
#943 = DIRECTION('',(1.,1.117544698971E-16,3.307333975277E-18));
#944 = ADVANCED_FACE('',(#945),#958,.T.);
#945 = FACE_BOUND('',#946,.T.);
#946 = EDGE_LOOP('',(#947,#948,#949,#950,#956,#957));
#947 = ORIENTED_EDGE('',*,*,#811,.T.);
#948 = ORIENTED_EDGE('',*,*,#725,.T.);
#949 = ORIENTED_EDGE('',*,*,#898,.T.);
#950 = ORIENTED_EDGE('',*,*,#951,.F.);
#951 = EDGE_CURVE('',#650,#891,#952,.T.);
#952 = LINE('',#953,#954);
#953 = CARTESIAN_POINT('',(0.6,-2.396461621798,7.090616357496));
#954 = VECTOR('',#955,1.);
#955 = DIRECTION('',(0.,-0.207911690818,0.978147600734));
#956 = ORIENTED_EDGE('',*,*,#855,.T.);
#957 = ORIENTED_EDGE('',*,*,#511,.T.);
#958 = PLANE('',#959);
#959 = AXIS2_PLACEMENT_3D('',#960,#961,#962);
#960 = CARTESIAN_POINT('',(0.6,2.396461621798,8.109383642504));
#961 = DIRECTION('',(1.,0.,0.));
#962 = DIRECTION('',(0.,-0.978147600734,-0.207911690818));
#963 = ADVANCED_FACE('',(#964),#967,.T.);
#964 = FACE_BOUND('',#965,.T.);
#965 = EDGE_LOOP('',(#966));
#966 = ORIENTED_EDGE('',*,*,#759,.F.);
#967 = SPHERICAL_SURFACE('',#968,0.5);
#968 = AXIS2_PLACEMENT_3D('',#969,#970,#971);
#969 = CARTESIAN_POINT('',(1.53,-0.37919817227,10.586420724906));
#970 = DIRECTION('',(-2.E-17,-0.207911690818,0.978147600734));
#971 = DIRECTION('',(1.,-1.094032339867E-16,-2.807563354493E-18));
#972 = ADVANCED_FACE('',(#973),#979,.F.);
#973 = FACE_BOUND('',#974,.F.);
#974 = EDGE_LOOP('',(#975,#976,#977,#978));
#975 = ORIENTED_EDGE('',*,*,#861,.T.);
#976 = ORIENTED_EDGE('',*,*,#519,.T.);
#977 = ORIENTED_EDGE('',*,*,#572,.F.);
#978 = ORIENTED_EDGE('',*,*,#342,.F.);
#979 = PLANE('',#980);
#980 = AXIS2_PLACEMENT_3D('',#981,#982,#983);
#981 = CARTESIAN_POINT('',(0.6,-0.58688856044,7.475252985509));
#982 = DIRECTION('',(-1.1E-16,0.978147600734,0.207911690818));
#983 = DIRECTION('',(1.,1.117544698971E-16,3.307333975277E-18));
#984 = ADVANCED_FACE('',(#985),#991,.F.);
#985 = FACE_BOUND('',#986,.F.);
#986 = EDGE_LOOP('',(#987,#988,#989,#990));
#987 = ORIENTED_EDGE('',*,*,#649,.F.);
#988 = ORIENTED_EDGE('',*,*,#193,.T.);
#989 = ORIENTED_EDGE('',*,*,#890,.T.);
#990 = ORIENTED_EDGE('',*,*,#951,.F.);
#991 = PLANE('',#992);
#992 = AXIS2_PLACEMENT_3D('',#993,#994,#995);
#993 = CARTESIAN_POINT('',(-0.6,-2.396461621798,7.090616357496));
#994 = DIRECTION('',(0.,0.978147600734,0.207911690818));
#995 = DIRECTION('',(1.,0.,0.));
#996 = ADVANCED_FACE('',(#997),#1015,.T.);
#997 = FACE_BOUND('',#998,.T.);
#998 = EDGE_LOOP('',(#999,#1000,#1008,#1014));
#999 = ORIENTED_EDGE('',*,*,#209,.T.);
#1000 = ORIENTED_EDGE('',*,*,#1001,.T.);
#1001 = EDGE_CURVE('',#170,#1002,#1004,.T.);
#1002 = VERTEX_POINT('',#1003);
#1003 = CARTESIAN_POINT('',(-2.45,-0.244758202831,11.637337417426));
#1004 = LINE('',#1005,#1006);
#1005 = CARTESIAN_POINT('',(-0.6,-0.244758202831,11.637337417426));
#1006 = VECTOR('',#1007,1.);
#1007 = DIRECTION('',(-1.,-1.116913779181E-16,5.00360857455E-18));
#1008 = ORIENTED_EDGE('',*,*,#1009,.T.);
#1009 = EDGE_CURVE('',#1002,#925,#1010,.T.);
#1010 = LINE('',#1011,#1012);
#1011 = CARTESIAN_POINT('',(-2.45,-0.244758202831,11.637337417426));
#1012 = VECTOR('',#1013,1.);
#1013 = DIRECTION('',(1.1E-16,-0.978147600734,-0.207911690818));
#1014 = ORIENTED_EDGE('',*,*,#932,.T.);
#1015 = PLANE('',#1016);
#1016 = AXIS2_PLACEMENT_3D('',#1017,#1018,#1019);
#1017 = CARTESIAN_POINT('',(-2.22044604925E-16,-0.831646763271,
    11.512590402935));
#1018 = DIRECTION('',(2.E-17,-0.207911690818,0.978147600734));
#1019 = DIRECTION('',(-1.1E-16,0.978147600734,0.207911690818));
#1020 = ADVANCED_FACE('',(#1021),#1032,.T.);
#1021 = FACE_BOUND('',#1022,.T.);
#1022 = EDGE_LOOP('',(#1023,#1024,#1025,#1031));
#1023 = ORIENTED_EDGE('',*,*,#479,.T.);
#1024 = ORIENTED_EDGE('',*,*,#111,.T.);
#1025 = ORIENTED_EDGE('',*,*,#1026,.F.);
#1026 = EDGE_CURVE('',#676,#22,#1027,.T.);
#1027 = LINE('',#1028,#1029);
#1028 = CARTESIAN_POINT('',(0.585000000001,0.584999999998,0.));
#1029 = VECTOR('',#1030,1.);
#1030 = DIRECTION('',(0.,0.,1.));
#1031 = ORIENTED_EDGE('',*,*,#683,.F.);
#1032 = PLANE('',#1033);
#1033 = AXIS2_PLACEMENT_3D('',#1034,#1035,#1036);
#1034 = CARTESIAN_POINT('',(2.05,0.584999999998,0.));
#1035 = DIRECTION('',(0.,-1.,0.));
#1036 = DIRECTION('',(-1.,0.,0.));
#1037 = ADVANCED_FACE('',(#1038),#1044,.F.);
#1038 = FACE_BOUND('',#1039,.F.);
#1039 = EDGE_LOOP('',(#1040,#1041,#1042,#1043));
#1040 = ORIENTED_EDGE('',*,*,#817,.T.);
#1041 = ORIENTED_EDGE('',*,*,#717,.T.);
#1042 = ORIENTED_EDGE('',*,*,#832,.F.);
#1043 = ORIENTED_EDGE('',*,*,#391,.F.);
#1044 = PLANE('',#1045);
#1045 = AXIS2_PLACEMENT_3D('',#1046,#1047,#1048);
#1046 = CARTESIAN_POINT('',(0.6,2.396461621798,8.109383642504));
#1047 = DIRECTION('',(1.1E-16,-0.978147600734,-0.207911690818));
#1048 = DIRECTION('',(-1.,-1.117544698971E-16,-3.307333975277E-18));
#1049 = ADVANCED_FACE('',(#1050,#1061),#1064,.F.);
#1050 = FACE_BOUND('',#1051,.F.);
#1051 = EDGE_LOOP('',(#1052,#1053,#1054,#1060));
#1052 = ORIENTED_EDGE('',*,*,#839,.T.);
#1053 = ORIENTED_EDGE('',*,*,#1001,.T.);
#1054 = ORIENTED_EDGE('',*,*,#1055,.F.);
#1055 = EDGE_CURVE('',#368,#1002,#1056,.T.);
#1056 = LINE('',#1057,#1058);
#1057 = CARTESIAN_POINT('',(-2.45,0.58688856044,7.724747014491));
#1058 = VECTOR('',#1059,1.);
#1059 = DIRECTION('',(2.E-17,-0.207911690818,0.978147600734));
#1060 = ORIENTED_EDGE('',*,*,#375,.F.);
#1061 = FACE_BOUND('',#1062,.F.);
#1062 = EDGE_LOOP('',(#1063));
#1063 = ORIENTED_EDGE('',*,*,#776,.F.);
#1064 = PLANE('',#1065);
#1065 = AXIS2_PLACEMENT_3D('',#1066,#1067,#1068);
#1066 = CARTESIAN_POINT('',(-0.6,0.58688856044,7.724747014491));
#1067 = DIRECTION('',(1.1E-16,-0.978147600734,-0.207911690818));
#1068 = DIRECTION('',(-1.,-1.117544698971E-16,-3.307333975277E-18));
#1069 = ADVANCED_FACE('',(#1070),#1076,.T.);
#1070 = FACE_BOUND('',#1071,.T.);
#1071 = EDGE_LOOP('',(#1072,#1073,#1074,#1075));
#1072 = ORIENTED_EDGE('',*,*,#1026,.T.);
#1073 = ORIENTED_EDGE('',*,*,#21,.T.);
#1074 = ORIENTED_EDGE('',*,*,#223,.F.);
#1075 = ORIENTED_EDGE('',*,*,#675,.F.);
#1076 = PLANE('',#1077);
#1077 = AXIS2_PLACEMENT_3D('',#1078,#1079,#1080);
#1078 = CARTESIAN_POINT('',(0.585000000001,0.584999999998,0.));
#1079 = DIRECTION('',(-1.,0.,0.));
#1080 = DIRECTION('',(0.,1.,0.));
#1081 = ADVANCED_FACE('',(#1082),#1089,.F.);
#1082 = FACE_BOUND('',#1083,.F.);
#1083 = EDGE_LOOP('',(#1084,#1085,#1086,#1087,#1088));
#1084 = ORIENTED_EDGE('',*,*,#1055,.T.);
#1085 = ORIENTED_EDGE('',*,*,#1009,.T.);
#1086 = ORIENTED_EDGE('',*,*,#924,.F.);
#1087 = ORIENTED_EDGE('',*,*,#302,.F.);
#1088 = ORIENTED_EDGE('',*,*,#367,.F.);
#1089 = PLANE('',#1090);
#1090 = AXIS2_PLACEMENT_3D('',#1091,#1092,#1093);
#1091 = CARTESIAN_POINT('',(-2.45,0.58688856044,7.724747014491));
#1092 = DIRECTION('',(1.,1.117544698971E-16,3.307333975277E-18));
#1093 = DIRECTION('',(1.1E-16,-0.978147600734,-0.207911690818));
#1094 = ( GEOMETRIC_REPRESENTATION_CONTEXT(3) 
GLOBAL_UNCERTAINTY_ASSIGNED_CONTEXT((#1098)) 
GLOBAL_UNIT_ASSIGNED_CONTEXT((#1095,#1096,#1097)) REPRESENTATION_CONTEXT
('Context #1','3D Context with UNIT and UNCERTAINTY') );
#1095 = ( LENGTH_UNIT() NAMED_UNIT(*) SI_UNIT(.MILLI.,.METRE.) );
#1096 = ( NAMED_UNIT(*) PLANE_ANGLE_UNIT() SI_UNIT($,.RADIAN.) );
#1097 = ( NAMED_UNIT(*) SI_UNIT($,.STERADIAN.) SOLID_ANGLE_UNIT() );
#1098 = UNCERTAINTY_MEASURE_WITH_UNIT(LENGTH_MEASURE(1.E-07),#1095,
  'distance_accuracy_value','confusion accuracy');
#1099 = PRODUCT_RELATED_PRODUCT_CATEGORY('part',$,(#7));
#1100 = MECHANICAL_DESIGN_GEOMETRIC_PRESENTATION_REPRESENTATION('',(
    #1101),#1094);
#1101 = STYLED_ITEM('color',(#1102),#15);
#1102 = PRESENTATION_STYLE_ASSIGNMENT((#1103,#1109));
#1103 = SURFACE_STYLE_USAGE(.BOTH.,#1104);
#1104 = SURFACE_SIDE_STYLE('',(#1105));
#1105 = SURFACE_STYLE_FILL_AREA(#1106);
#1106 = FILL_AREA_STYLE('',(#1107));
#1107 = FILL_AREA_STYLE_COLOUR('',#1108);
#1108 = COLOUR_RGB('',0.800000010877,0.800000010877,0.800000010877);
#1109 = CURVE_STYLE('',#1110,POSITIVE_LENGTH_MEASURE(0.1),#1111);
#1110 = DRAUGHTING_PRE_DEFINED_CURVE_FONT('continuous');
#1111 = COLOUR_RGB('',9.803921802644E-02,9.803921802644E-02,
  9.803921802644E-02);
ENDSEC;
END-ISO-10303-21;
