ISO-10303-21;
HEADER;
FILE_DESCRIPTION(('FreeCAD Model'),'2;1');
FILE_NAME('Open CASCADE Shape Model','2023-01-30T19:39:35',(''),(''),
  'Open CASCADE STEP processor 7.6','FreeCAD','Unknown');
FILE_SCHEMA(('AUTOMOTIVE_DESIGN { 1 0 10303 214 1 1 1 1 }'));
ENDSEC;
DATA;
#1 = APPLICATION_PROTOCOL_DEFINITION('international standard',
  'automotive_design',2000,#2);
#2 = APPLICATION_CONTEXT(
  'core data for automotive mechanical design processes');
#3 = SHAPE_DEFINITION_REPRESENTATION(#4,#10);
#4 = PRODUCT_DEFINITION_SHAPE('','',#5);
#5 = PRODUCT_DEFINITION('design','',#6,#9);
#6 = PRODUCT_DEFINITION_FORMATION('','',#7);
#7 = PRODUCT('StabilizerBar','StabilizerBar','',(#8));
#8 = PRODUCT_CONTEXT('',#2,'mechanical');
#9 = PRODUCT_DEFINITION_CONTEXT('part definition',#2,'design');
#10 = ADVANCED_BREP_SHAPE_REPRESENTATION('',(#11,#15),#362);
#11 = AXIS2_PLACEMENT_3D('',#12,#13,#14);
#12 = CARTESIAN_POINT('',(0.,0.,0.));
#13 = DIRECTION('',(0.,0.,1.));
#14 = DIRECTION('',(1.,0.,-0.));
#15 = MANIFOLD_SOLID_BREP('',#16);
#16 = CLOSED_SHELL('',(#17,#44,#96,#165,#189,#206,#222,#233,#257,#299,
    #316,#332,#343));
#17 = ADVANCED_FACE('',(#18),#39,.T.);
#18 = FACE_BOUND('',#19,.T.);
#19 = EDGE_LOOP('',(#20,#31,#32));
#20 = ORIENTED_EDGE('',*,*,#21,.T.);
#21 = EDGE_CURVE('',#22,#24,#26,.T.);
#22 = VERTEX_POINT('',#23);
#23 = CARTESIAN_POINT('',(-65.87,0.,10.4));
#24 = VERTEX_POINT('',#25);
#25 = CARTESIAN_POINT('',(-66.67,0.,11.2));
#26 = CIRCLE('',#27,0.8);
#27 = AXIS2_PLACEMENT_3D('',#28,#29,#30);
#28 = CARTESIAN_POINT('',(-66.67,0.,10.4));
#29 = DIRECTION('',(-2.4E-16,-1.,0.));
#30 = DIRECTION('',(1.,-2.4E-16,0.));
#31 = ORIENTED_EDGE('',*,*,#21,.F.);
#32 = ORIENTED_EDGE('',*,*,#33,.T.);
#33 = EDGE_CURVE('',#22,#22,#34,.T.);
#34 = CIRCLE('',#35,0.8);
#35 = AXIS2_PLACEMENT_3D('',#36,#37,#38);
#36 = CARTESIAN_POINT('',(-66.67,0.,10.4));
#37 = DIRECTION('',(0.,0.,1.));
#38 = DIRECTION('',(1.,0.,0.));
#39 = SPHERICAL_SURFACE('',#40,0.8);
#40 = AXIS2_PLACEMENT_3D('',#41,#42,#43);
#41 = CARTESIAN_POINT('',(-66.67,0.,10.4));
#42 = DIRECTION('',(0.,0.,1.));
#43 = DIRECTION('',(1.,0.,0.));
#44 = ADVANCED_FACE('',(#45),#91,.T.);
#45 = FACE_BOUND('',#46,.F.);
#46 = EDGE_LOOP('',(#47,#58,#64,#65,#66,#75,#84));
#47 = ORIENTED_EDGE('',*,*,#48,.F.);
#48 = EDGE_CURVE('',#49,#51,#53,.T.);
#49 = VERTEX_POINT('',#50);
#50 = CARTESIAN_POINT('',(-65.87,-2.E-16,0.8));
#51 = VERTEX_POINT('',#52);
#52 = CARTESIAN_POINT('',(-66.67,0.8,9.797174393179E-17));
#53 = ELLIPSE('',#54,1.131370849898,0.8);
#54 = AXIS2_PLACEMENT_3D('',#55,#56,#57);
#55 = CARTESIAN_POINT('',(-66.67,0.,0.));
#56 = DIRECTION('',(-0.707106781187,0.,0.707106781187));
#57 = DIRECTION('',(-0.707106781187,0.,-0.707106781187));
#58 = ORIENTED_EDGE('',*,*,#59,.T.);
#59 = EDGE_CURVE('',#49,#22,#60,.T.);
#60 = LINE('',#61,#62);
#61 = CARTESIAN_POINT('',(-65.87,-2.E-16,-0.8));
#62 = VECTOR('',#63,1.);
#63 = DIRECTION('',(0.,0.,1.));
#64 = ORIENTED_EDGE('',*,*,#33,.T.);
#65 = ORIENTED_EDGE('',*,*,#59,.F.);
#66 = ORIENTED_EDGE('',*,*,#67,.F.);
#67 = EDGE_CURVE('',#68,#49,#70,.T.);
#68 = VERTEX_POINT('',#69);
#69 = CARTESIAN_POINT('',(-66.67,-0.8,-9.797174393179E-17));
#70 = ELLIPSE('',#71,1.131370849898,0.8);
#71 = AXIS2_PLACEMENT_3D('',#72,#73,#74);
#72 = CARTESIAN_POINT('',(-66.67,0.,0.));
#73 = DIRECTION('',(-0.707106781187,0.,0.707106781187));
#74 = DIRECTION('',(-0.707106781187,0.,-0.707106781187));
#75 = ORIENTED_EDGE('',*,*,#76,.T.);
#76 = EDGE_CURVE('',#68,#77,#79,.T.);
#77 = VERTEX_POINT('',#78);
#78 = CARTESIAN_POINT('',(-67.47,1.348822623823E-06,0.799999999999));
#79 = ELLIPSE('',#80,1.131370849898,0.8);
#80 = AXIS2_PLACEMENT_3D('',#81,#82,#83);
#81 = CARTESIAN_POINT('',(-66.67,0.,0.));
#82 = DIRECTION('',(-0.707106781187,0.,-0.707106781187));
#83 = DIRECTION('',(-0.707106781187,0.,0.707106781187));
#84 = ORIENTED_EDGE('',*,*,#85,.T.);
#85 = EDGE_CURVE('',#77,#51,#86,.T.);
#86 = ELLIPSE('',#87,1.131370849898,0.8);
#87 = AXIS2_PLACEMENT_3D('',#88,#89,#90);
#88 = CARTESIAN_POINT('',(-66.67,0.,0.));
#89 = DIRECTION('',(-0.707106781187,0.,-0.707106781187));
#90 = DIRECTION('',(-0.707106781187,0.,0.707106781187));
#91 = CYLINDRICAL_SURFACE('',#92,0.8);
#92 = AXIS2_PLACEMENT_3D('',#93,#94,#95);
#93 = CARTESIAN_POINT('',(-66.67,0.,-0.8));
#94 = DIRECTION('',(-0.,-0.,-1.));
#95 = DIRECTION('',(1.,0.,0.));
#96 = ADVANCED_FACE('',(#97),#160,.T.);
#97 = FACE_BOUND('',#98,.F.);
#98 = EDGE_LOOP('',(#99,#109,#118,#127,#136,#143,#144,#151,#152,#153));
#99 = ORIENTED_EDGE('',*,*,#100,.T.);
#100 = EDGE_CURVE('',#101,#103,#105,.T.);
#101 = VERTEX_POINT('',#102);
#102 = CARTESIAN_POINT('',(-65.87,0.,-0.8));
#103 = VERTEX_POINT('',#104);
#104 = CARTESIAN_POINT('',(65.87,1.878039662568E-14,-0.8));
#105 = LINE('',#106,#107);
#106 = CARTESIAN_POINT('',(-67.47,-1.959434878636E-16,-0.8));
#107 = VECTOR('',#108,1.);
#108 = DIRECTION('',(1.,0.,-2.22044604925E-16));
#109 = ORIENTED_EDGE('',*,*,#110,.F.);
#110 = EDGE_CURVE('',#111,#103,#113,.T.);
#111 = VERTEX_POINT('',#112);
#112 = CARTESIAN_POINT('',(66.67,0.8,9.797174393179E-17));
#113 = ELLIPSE('',#114,1.131370849898,0.8);
#114 = AXIS2_PLACEMENT_3D('',#115,#116,#117);
#115 = CARTESIAN_POINT('',(66.67,0.,0.));
#116 = DIRECTION('',(-0.707106781187,0.,0.707106781187));
#117 = DIRECTION('',(-0.707106781187,0.,-0.707106781187));
#118 = ORIENTED_EDGE('',*,*,#119,.F.);
#119 = EDGE_CURVE('',#120,#111,#122,.T.);
#120 = VERTEX_POINT('',#121);
#121 = CARTESIAN_POINT('',(65.87,-1.959434878636E-16,0.8));
#122 = ELLIPSE('',#123,1.131370849898,0.8);
#123 = AXIS2_PLACEMENT_3D('',#124,#125,#126);
#124 = CARTESIAN_POINT('',(66.67,0.,0.));
#125 = DIRECTION('',(-0.707106781187,0.,-0.707106781187));
#126 = DIRECTION('',(-0.707106781187,0.,0.707106781187));
#127 = ORIENTED_EDGE('',*,*,#128,.F.);
#128 = EDGE_CURVE('',#129,#120,#131,.T.);
#129 = VERTEX_POINT('',#130);
#130 = CARTESIAN_POINT('',(66.67,-0.8,-9.797174393179E-17));
#131 = ELLIPSE('',#132,1.131370849898,0.8);
#132 = AXIS2_PLACEMENT_3D('',#133,#134,#135);
#133 = CARTESIAN_POINT('',(66.67,0.,0.));
#134 = DIRECTION('',(-0.707106781187,0.,-0.707106781187));
#135 = DIRECTION('',(-0.707106781187,0.,0.707106781187));
#136 = ORIENTED_EDGE('',*,*,#137,.F.);
#137 = EDGE_CURVE('',#103,#129,#138,.T.);
#138 = ELLIPSE('',#139,1.131370849898,0.8);
#139 = AXIS2_PLACEMENT_3D('',#140,#141,#142);
#140 = CARTESIAN_POINT('',(66.67,0.,0.));
#141 = DIRECTION('',(-0.707106781187,0.,0.707106781187));
#142 = DIRECTION('',(-0.707106781187,0.,-0.707106781187));
#143 = ORIENTED_EDGE('',*,*,#100,.F.);
#144 = ORIENTED_EDGE('',*,*,#145,.T.);
#145 = EDGE_CURVE('',#101,#68,#146,.T.);
#146 = ELLIPSE('',#147,1.131370849898,0.8);
#147 = AXIS2_PLACEMENT_3D('',#148,#149,#150);
#148 = CARTESIAN_POINT('',(-66.67,0.,0.));
#149 = DIRECTION('',(-0.707106781187,0.,-0.707106781187));
#150 = DIRECTION('',(-0.707106781187,0.,0.707106781187));
#151 = ORIENTED_EDGE('',*,*,#67,.T.);
#152 = ORIENTED_EDGE('',*,*,#48,.T.);
#153 = ORIENTED_EDGE('',*,*,#154,.T.);
#154 = EDGE_CURVE('',#51,#101,#155,.T.);
#155 = ELLIPSE('',#156,1.131370849898,0.8);
#156 = AXIS2_PLACEMENT_3D('',#157,#158,#159);
#157 = CARTESIAN_POINT('',(-66.67,0.,0.));
#158 = DIRECTION('',(-0.707106781187,0.,-0.707106781187));
#159 = DIRECTION('',(-0.707106781187,0.,0.707106781187));
#160 = CYLINDRICAL_SURFACE('',#161,0.8);
#161 = AXIS2_PLACEMENT_3D('',#162,#163,#164);
#162 = CARTESIAN_POINT('',(-67.47,0.,0.));
#163 = DIRECTION('',(-1.,-0.,2.22044604925E-16));
#164 = DIRECTION('',(-2.22044604925E-16,0.,-1.));
#165 = ADVANCED_FACE('',(#166),#184,.T.);
#166 = FACE_BOUND('',#167,.F.);
#167 = EDGE_LOOP('',(#168,#176,#183));
#168 = ORIENTED_EDGE('',*,*,#169,.T.);
#169 = EDGE_CURVE('',#77,#170,#172,.T.);
#170 = VERTEX_POINT('',#171);
#171 = CARTESIAN_POINT('',(-67.47,-1.959434878636E-16,-0.8));
#172 = LINE('',#173,#174);
#173 = CARTESIAN_POINT('',(-67.47,0.,-0.8));
#174 = VECTOR('',#175,1.);
#175 = DIRECTION('',(-0.,-0.,-1.));
#176 = ORIENTED_EDGE('',*,*,#177,.F.);
#177 = EDGE_CURVE('',#51,#170,#178,.T.);
#178 = ELLIPSE('',#179,1.131370849898,0.8);
#179 = AXIS2_PLACEMENT_3D('',#180,#181,#182);
#180 = CARTESIAN_POINT('',(-66.67,0.,0.));
#181 = DIRECTION('',(-0.707106781187,0.,0.707106781187));
#182 = DIRECTION('',(-0.707106781187,0.,-0.707106781187));
#183 = ORIENTED_EDGE('',*,*,#85,.F.);
#184 = CYLINDRICAL_SURFACE('',#185,0.8);
#185 = AXIS2_PLACEMENT_3D('',#186,#187,#188);
#186 = CARTESIAN_POINT('',(-66.67,0.,-0.8));
#187 = DIRECTION('',(-0.,-0.,-1.));
#188 = DIRECTION('',(1.,0.,0.));
#189 = ADVANCED_FACE('',(#190),#201,.T.);
#190 = FACE_BOUND('',#191,.F.);
#191 = EDGE_LOOP('',(#192,#199,#200));
#192 = ORIENTED_EDGE('',*,*,#193,.F.);
#193 = EDGE_CURVE('',#170,#68,#194,.T.);
#194 = ELLIPSE('',#195,1.131370849898,0.8);
#195 = AXIS2_PLACEMENT_3D('',#196,#197,#198);
#196 = CARTESIAN_POINT('',(-66.67,0.,0.));
#197 = DIRECTION('',(-0.707106781187,0.,0.707106781187));
#198 = DIRECTION('',(-0.707106781187,0.,-0.707106781187));
#199 = ORIENTED_EDGE('',*,*,#169,.F.);
#200 = ORIENTED_EDGE('',*,*,#76,.F.);
#201 = CYLINDRICAL_SURFACE('',#202,0.8);
#202 = AXIS2_PLACEMENT_3D('',#203,#204,#205);
#203 = CARTESIAN_POINT('',(-66.67,0.,-0.8));
#204 = DIRECTION('',(-0.,-0.,-1.));
#205 = DIRECTION('',(1.,0.,0.));
#206 = ADVANCED_FACE('',(#207),#217,.T.);
#207 = FACE_BOUND('',#208,.F.);
#208 = EDGE_LOOP('',(#209,#215,#216));
#209 = ORIENTED_EDGE('',*,*,#210,.T.);
#210 = EDGE_CURVE('',#170,#101,#211,.T.);
#211 = LINE('',#212,#213);
#212 = CARTESIAN_POINT('',(-67.47,-1.959434878636E-16,-0.8));
#213 = VECTOR('',#214,1.);
#214 = DIRECTION('',(1.,0.,-2.22044604925E-16));
#215 = ORIENTED_EDGE('',*,*,#154,.F.);
#216 = ORIENTED_EDGE('',*,*,#177,.T.);
#217 = CYLINDRICAL_SURFACE('',#218,0.8);
#218 = AXIS2_PLACEMENT_3D('',#219,#220,#221);
#219 = CARTESIAN_POINT('',(-67.47,0.,0.));
#220 = DIRECTION('',(-1.,-0.,2.22044604925E-16));
#221 = DIRECTION('',(-2.22044604925E-16,0.,-1.));
#222 = ADVANCED_FACE('',(#223),#228,.T.);
#223 = FACE_BOUND('',#224,.F.);
#224 = EDGE_LOOP('',(#225,#226,#227));
#225 = ORIENTED_EDGE('',*,*,#145,.F.);
#226 = ORIENTED_EDGE('',*,*,#210,.F.);
#227 = ORIENTED_EDGE('',*,*,#193,.T.);
#228 = CYLINDRICAL_SURFACE('',#229,0.8);
#229 = AXIS2_PLACEMENT_3D('',#230,#231,#232);
#230 = CARTESIAN_POINT('',(-67.47,0.,0.));
#231 = DIRECTION('',(-1.,-0.,2.22044604925E-16));
#232 = DIRECTION('',(-2.22044604925E-16,0.,-1.));
#233 = ADVANCED_FACE('',(#234),#252,.T.);
#234 = FACE_BOUND('',#235,.F.);
#235 = EDGE_LOOP('',(#236,#245,#251));
#236 = ORIENTED_EDGE('',*,*,#237,.F.);
#237 = EDGE_CURVE('',#238,#129,#240,.T.);
#238 = VERTEX_POINT('',#239);
#239 = CARTESIAN_POINT('',(67.47,0.,-0.8));
#240 = ELLIPSE('',#241,1.131370849898,0.8);
#241 = AXIS2_PLACEMENT_3D('',#242,#243,#244);
#242 = CARTESIAN_POINT('',(66.67,0.,0.));
#243 = DIRECTION('',(-0.707106781187,0.,-0.707106781187));
#244 = DIRECTION('',(-0.707106781187,0.,0.707106781187));
#245 = ORIENTED_EDGE('',*,*,#246,.F.);
#246 = EDGE_CURVE('',#103,#238,#247,.T.);
#247 = LINE('',#248,#249);
#248 = CARTESIAN_POINT('',(-67.47,-1.959434878636E-16,-0.8));
#249 = VECTOR('',#250,1.);
#250 = DIRECTION('',(1.,0.,-2.22044604925E-16));
#251 = ORIENTED_EDGE('',*,*,#137,.T.);
#252 = CYLINDRICAL_SURFACE('',#253,0.8);
#253 = AXIS2_PLACEMENT_3D('',#254,#255,#256);
#254 = CARTESIAN_POINT('',(-67.47,0.,0.));
#255 = DIRECTION('',(-1.,-0.,2.22044604925E-16));
#256 = DIRECTION('',(-2.22044604925E-16,0.,-1.));
#257 = ADVANCED_FACE('',(#258),#294,.T.);
#258 = FACE_BOUND('',#259,.F.);
#259 = EDGE_LOOP('',(#260,#269,#277,#284,#285,#292,#293));
#260 = ORIENTED_EDGE('',*,*,#261,.F.);
#261 = EDGE_CURVE('',#262,#111,#264,.T.);
#262 = VERTEX_POINT('',#263);
#263 = CARTESIAN_POINT('',(67.47,-2.E-16,0.8));
#264 = ELLIPSE('',#265,1.131370849898,0.8);
#265 = AXIS2_PLACEMENT_3D('',#266,#267,#268);
#266 = CARTESIAN_POINT('',(66.67,0.,0.));
#267 = DIRECTION('',(-0.707106781187,0.,0.707106781187));
#268 = DIRECTION('',(-0.707106781187,0.,-0.707106781187));
#269 = ORIENTED_EDGE('',*,*,#270,.T.);
#270 = EDGE_CURVE('',#262,#271,#273,.T.);
#271 = VERTEX_POINT('',#272);
#272 = CARTESIAN_POINT('',(67.47,0.,10.4));
#273 = LINE('',#274,#275);
#274 = CARTESIAN_POINT('',(67.47,-2.E-16,-0.8));
#275 = VECTOR('',#276,1.);
#276 = DIRECTION('',(0.,0.,1.));
#277 = ORIENTED_EDGE('',*,*,#278,.T.);
#278 = EDGE_CURVE('',#271,#271,#279,.T.);
#279 = CIRCLE('',#280,0.8);
#280 = AXIS2_PLACEMENT_3D('',#281,#282,#283);
#281 = CARTESIAN_POINT('',(66.67,0.,10.4));
#282 = DIRECTION('',(0.,0.,1.));
#283 = DIRECTION('',(1.,0.,0.));
#284 = ORIENTED_EDGE('',*,*,#270,.F.);
#285 = ORIENTED_EDGE('',*,*,#286,.F.);
#286 = EDGE_CURVE('',#129,#262,#287,.T.);
#287 = ELLIPSE('',#288,1.131370849898,0.8);
#288 = AXIS2_PLACEMENT_3D('',#289,#290,#291);
#289 = CARTESIAN_POINT('',(66.67,0.,0.));
#290 = DIRECTION('',(-0.707106781187,0.,0.707106781187));
#291 = DIRECTION('',(-0.707106781187,0.,-0.707106781187));
#292 = ORIENTED_EDGE('',*,*,#128,.T.);
#293 = ORIENTED_EDGE('',*,*,#119,.T.);
#294 = CYLINDRICAL_SURFACE('',#295,0.8);
#295 = AXIS2_PLACEMENT_3D('',#296,#297,#298);
#296 = CARTESIAN_POINT('',(66.67,0.,-0.8));
#297 = DIRECTION('',(-0.,-0.,-1.));
#298 = DIRECTION('',(1.,0.,0.));
#299 = ADVANCED_FACE('',(#300),#311,.T.);
#300 = FACE_BOUND('',#301,.F.);
#301 = EDGE_LOOP('',(#302,#303,#310));
#302 = ORIENTED_EDGE('',*,*,#246,.T.);
#303 = ORIENTED_EDGE('',*,*,#304,.F.);
#304 = EDGE_CURVE('',#111,#238,#305,.T.);
#305 = ELLIPSE('',#306,1.131370849898,0.8);
#306 = AXIS2_PLACEMENT_3D('',#307,#308,#309);
#307 = CARTESIAN_POINT('',(66.67,0.,0.));
#308 = DIRECTION('',(-0.707106781187,0.,-0.707106781187));
#309 = DIRECTION('',(-0.707106781187,0.,0.707106781187));
#310 = ORIENTED_EDGE('',*,*,#110,.T.);
#311 = CYLINDRICAL_SURFACE('',#312,0.8);
#312 = AXIS2_PLACEMENT_3D('',#313,#314,#315);
#313 = CARTESIAN_POINT('',(-67.47,0.,0.));
#314 = DIRECTION('',(-1.,-0.,2.22044604925E-16));
#315 = DIRECTION('',(-2.22044604925E-16,0.,-1.));
#316 = ADVANCED_FACE('',(#317),#327,.T.);
#317 = FACE_BOUND('',#318,.F.);
#318 = EDGE_LOOP('',(#319,#325,#326));
#319 = ORIENTED_EDGE('',*,*,#320,.F.);
#320 = EDGE_CURVE('',#238,#262,#321,.T.);
#321 = LINE('',#322,#323);
#322 = CARTESIAN_POINT('',(67.47,-2.E-16,-0.8));
#323 = VECTOR('',#324,1.);
#324 = DIRECTION('',(0.,0.,1.));
#325 = ORIENTED_EDGE('',*,*,#237,.T.);
#326 = ORIENTED_EDGE('',*,*,#286,.T.);
#327 = CYLINDRICAL_SURFACE('',#328,0.8);
#328 = AXIS2_PLACEMENT_3D('',#329,#330,#331);
#329 = CARTESIAN_POINT('',(66.67,0.,-0.8));
#330 = DIRECTION('',(-0.,-0.,-1.));
#331 = DIRECTION('',(1.,0.,0.));
#332 = ADVANCED_FACE('',(#333),#338,.T.);
#333 = FACE_BOUND('',#334,.F.);
#334 = EDGE_LOOP('',(#335,#336,#337));
#335 = ORIENTED_EDGE('',*,*,#304,.T.);
#336 = ORIENTED_EDGE('',*,*,#320,.T.);
#337 = ORIENTED_EDGE('',*,*,#261,.T.);
#338 = CYLINDRICAL_SURFACE('',#339,0.8);
#339 = AXIS2_PLACEMENT_3D('',#340,#341,#342);
#340 = CARTESIAN_POINT('',(66.67,0.,-0.8));
#341 = DIRECTION('',(-0.,-0.,-1.));
#342 = DIRECTION('',(1.,0.,0.));
#343 = ADVANCED_FACE('',(#344),#357,.T.);
#344 = FACE_BOUND('',#345,.T.);
#345 = EDGE_LOOP('',(#346,#355,#356));
#346 = ORIENTED_EDGE('',*,*,#347,.T.);
#347 = EDGE_CURVE('',#271,#348,#350,.T.);
#348 = VERTEX_POINT('',#349);
#349 = CARTESIAN_POINT('',(66.67,0.,11.2));
#350 = CIRCLE('',#351,0.8);
#351 = AXIS2_PLACEMENT_3D('',#352,#353,#354);
#352 = CARTESIAN_POINT('',(66.67,0.,10.4));
#353 = DIRECTION('',(-2.4E-16,-1.,0.));
#354 = DIRECTION('',(1.,-2.4E-16,0.));
#355 = ORIENTED_EDGE('',*,*,#347,.F.);
#356 = ORIENTED_EDGE('',*,*,#278,.T.);
#357 = SPHERICAL_SURFACE('',#358,0.8);
#358 = AXIS2_PLACEMENT_3D('',#359,#360,#361);
#359 = CARTESIAN_POINT('',(66.67,0.,10.4));
#360 = DIRECTION('',(0.,0.,1.));
#361 = DIRECTION('',(1.,0.,0.));
#362 = ( GEOMETRIC_REPRESENTATION_CONTEXT(3) 
GLOBAL_UNCERTAINTY_ASSIGNED_CONTEXT((#366)) GLOBAL_UNIT_ASSIGNED_CONTEXT
((#363,#364,#365)) REPRESENTATION_CONTEXT('Context #1',
  '3D Context with UNIT and UNCERTAINTY') );
#363 = ( LENGTH_UNIT() NAMED_UNIT(*) SI_UNIT(.MILLI.,.METRE.) );
#364 = ( NAMED_UNIT(*) PLANE_ANGLE_UNIT() SI_UNIT($,.RADIAN.) );
#365 = ( NAMED_UNIT(*) SI_UNIT($,.STERADIAN.) SOLID_ANGLE_UNIT() );
#366 = UNCERTAINTY_MEASURE_WITH_UNIT(LENGTH_MEASURE(2.E-07),#363,
  'distance_accuracy_value','confusion accuracy');
#367 = PRODUCT_RELATED_PRODUCT_CATEGORY('part',$,(#7));
#368 = MECHANICAL_DESIGN_GEOMETRIC_PRESENTATION_REPRESENTATION('',(#369)
  ,#362);
#369 = STYLED_ITEM('color',(#370),#15);
#370 = PRESENTATION_STYLE_ASSIGNMENT((#371,#377));
#371 = SURFACE_STYLE_USAGE(.BOTH.,#372);
#372 = SURFACE_SIDE_STYLE('',(#373));
#373 = SURFACE_STYLE_FILL_AREA(#374);
#374 = FILL_AREA_STYLE('',(#375));
#375 = FILL_AREA_STYLE_COLOUR('',#376);
#376 = COLOUR_RGB('',0.800000010877,0.800000010877,0.800000010877);
#377 = CURVE_STYLE('',#378,POSITIVE_LENGTH_MEASURE(0.1),#379);
#378 = DRAUGHTING_PRE_DEFINED_CURVE_FONT('continuous');
#379 = COLOUR_RGB('',9.803921802644E-02,9.803921802644E-02,
  9.803921802644E-02);
ENDSEC;
END-ISO-10303-21;
